<?xml version="1.0" encoding="UTF-8"?>
<!DOCTYPE svg PUBLIC "-//W3C//DTD SVG 1.1//EN" "http://www.w3.org/Graphics/SVG/1.1/DTD/svg11.dtd">
<svg version="1.2" width="18.98mm" height="10.14mm" viewBox="9068 7760 1898 1014" preserveAspectRatio="xMidYMid" fill-rule="evenodd" stroke-width="28.222" stroke-linejoin="round" xmlns="http://www.w3.org/2000/svg" xmlns:ooo="http://xml.openoffice.org/svg/export" xmlns:xlink="http://www.w3.org/1999/xlink" xmlns:presentation="http://sun.com/xmlns/staroffice/presentation" xmlns:smil="http://www.w3.org/2001/SMIL20/" xmlns:anim="urn:oasis:names:tc:opendocument:xmlns:animation:1.0" xml:space="preserve">
 <defs class="EmbeddedBulletChars">
  <g id="bullet-char-template-57356" transform="scale(0.00048828125,-0.00048828125)">
   <path d="M 580,1141 L 1163,571 580,0 -4,571 580,1141 Z"/>
  </g>
  <g id="bullet-char-template-57354" transform="scale(0.00048828125,-0.00048828125)">
   <path d="M 8,1128 L 1137,1128 1137,0 8,0 8,1128 Z"/>
  </g>
  <g id="bullet-char-template-10146" transform="scale(0.00048828125,-0.00048828125)">
   <path d="M 174,0 L 602,739 174,1481 1456,739 174,0 Z M 1358,739 L 309,1346 659,739 1358,739 Z"/>
  </g>
  <g id="bullet-char-template-10132" transform="scale(0.00048828125,-0.00048828125)">
   <path d="M 2015,739 L 1276,0 717,0 1260,543 174,543 174,936 1260,936 717,1481 1274,1481 2015,739 Z"/>
  </g>
  <g id="bullet-char-template-10007" transform="scale(0.00048828125,-0.00048828125)">
   <path d="M 0,-2 C -7,14 -16,27 -25,37 L 356,567 C 262,823 215,952 215,954 215,979 228,992 255,992 264,992 276,990 289,987 310,991 331,999 354,1012 L 381,999 492,748 772,1049 836,1024 860,1049 C 881,1039 901,1025 922,1006 886,937 835,863 770,784 769,783 710,716 594,584 L 774,223 C 774,196 753,168 711,139 L 727,119 C 717,90 699,76 672,76 641,76 570,178 457,381 L 164,-76 C 142,-110 111,-127 72,-127 30,-127 9,-110 8,-76 1,-67 -2,-52 -2,-32 -2,-23 -1,-13 0,-2 Z"/>
  </g>
  <g id="bullet-char-template-10004" transform="scale(0.00048828125,-0.00048828125)">
   <path d="M 285,-33 C 182,-33 111,30 74,156 52,228 41,333 41,471 41,549 55,616 82,672 116,743 169,778 240,778 293,778 328,747 346,684 L 369,508 C 377,444 397,411 428,410 L 1163,1116 C 1174,1127 1196,1133 1229,1133 1271,1133 1292,1118 1292,1087 L 1292,965 C 1292,929 1282,901 1262,881 L 442,47 C 390,-6 338,-33 285,-33 Z"/>
  </g>
  <g id="bullet-char-template-9679" transform="scale(0.00048828125,-0.00048828125)">
   <path d="M 813,0 C 632,0 489,54 383,161 276,268 223,411 223,592 223,773 276,916 383,1023 489,1130 632,1184 813,1184 992,1184 1136,1130 1245,1023 1353,916 1407,772 1407,592 1407,412 1353,268 1245,161 1136,54 992,0 813,0 Z"/>
  </g>
  <g id="bullet-char-template-8226" transform="scale(0.00048828125,-0.00048828125)">
   <path d="M 346,457 C 273,457 209,483 155,535 101,586 74,649 74,723 74,796 101,859 155,911 209,963 273,989 346,989 419,989 480,963 531,910 582,859 608,796 608,723 608,648 583,586 532,535 482,483 420,457 346,457 Z"/>
  </g>
  <g id="bullet-char-template-8211" transform="scale(0.00048828125,-0.00048828125)">
   <path d="M -4,459 L 1135,459 1135,606 -4,606 -4,459 Z"/>
  </g>
  <g id="bullet-char-template-61548" transform="scale(0.00048828125,-0.00048828125)">
   <path d="M 173,740 C 173,903 231,1043 346,1159 462,1274 601,1332 765,1332 928,1332 1067,1274 1183,1159 1299,1043 1357,903 1357,740 1357,577 1299,437 1183,322 1067,206 928,148 765,148 601,148 462,206 346,322 231,437 173,577 173,740 Z"/>
  </g>
 </defs>
 <g class="Page">
  <g class="com.sun.star.drawing.PolyPolygonShape">
   <g id="id3">
    <rect class="BoundingBox" stroke="none" fill="none" x="9068" y="8131" width="180" height="299"/>
    <path fill="rgb(0,0,0)" stroke="none" d="M 9139,8361 L 9137,8369 9134,8377 9132,8384 9129,8391 9127,8397 9124,8402 9120,8407 9117,8412 9115,8414 9113,8416 9111,8418 9109,8419 9106,8421 9104,8422 9102,8424 9099,8425 9097,8426 9095,8426 9092,8427 9089,8428 9084,8428 9079,8429 9076,8429 9073,8429 9072,8428 9070,8428 9070,8428 9069,8428 9069,8428 9069,8428 9072,8414 9072,8414 9072,8414 9072,8414 9073,8414 9073,8414 9073,8414 9074,8415 9075,8415 9076,8415 9079,8415 9080,8415 9082,8414 9084,8414 9085,8414 9086,8414 9087,8413 9087,8413 9088,8413 9089,8412 9089,8412 9090,8411 9091,8411 9092,8410 9093,8409 9094,8408 9095,8406 9097,8405 9098,8403 9099,8401 9100,8399 9101,8396 9102,8394 9103,8391 9104,8388 9106,8381 9108,8374 9142,8224 9116,8224 9118,8213 9122,8212 9127,8212 9130,8211 9131,8211 9132,8211 9133,8211 9135,8210 9137,8209 9138,8209 9138,8208 9139,8208 9139,8208 9139,8208 9140,8208 9141,8206 9142,8205 9143,8204 9144,8203 9144,8202 9145,8202 9145,8200 9147,8197 9148,8193 9150,8189 9152,8182 9154,8175 9157,8169 9160,8164 9163,8159 9167,8154 9171,8150 9175,8146 9179,8143 9184,8140 9189,8137 9195,8135 9201,8134 9207,8133 9213,8132 9220,8132 9227,8132 9234,8132 9237,8133 9240,8133 9243,8134 9247,8135 9240,8161 9226,8161 9225,8159 9225,8157 9224,8155 9223,8153 9223,8152 9222,8150 9221,8149 9221,8148 9218,8146 9217,8146 9216,8145 9214,8144 9214,8144 9213,8144 9212,8144 9211,8144 9210,8144 9210,8144 9207,8144 9205,8144 9203,8145 9201,8145 9199,8146 9198,8147 9196,8148 9195,8149 9193,8150 9192,8152 9190,8154 9189,8155 9187,8157 9186,8159 9185,8162 9184,8164 9182,8166 9181,8169 9180,8175 9176,8191 9172,8208 9213,8208 9209,8224 9169,8224 9139,8361 Z"/>
   </g>
  </g>
  <g class="com.sun.star.drawing.PolyPolygonShape">
   <g id="id4">
    <rect class="BoundingBox" stroke="none" fill="none" x="9286" y="8130" width="101" height="301"/>
    <path fill="rgb(0,0,0)" stroke="none" d="M 9314,8279 L 9314,8292 9315,8305 9316,8317 9318,8329 9321,8340 9324,8351 9327,8360 9332,8370 9336,8378 9342,8386 9348,8393 9351,8397 9354,8400 9357,8403 9361,8405 9365,8408 9369,8410 9373,8412 9377,8414 9386,8418 9382,8430 9370,8426 9360,8422 9350,8417 9341,8410 9332,8403 9324,8396 9317,8387 9311,8378 9305,8367 9300,8356 9296,8345 9293,8333 9290,8320 9288,8307 9287,8294 9287,8280 9287,8266 9288,8252 9290,8239 9293,8227 9296,8215 9300,8204 9305,8193 9311,8183 9317,8173 9325,8164 9333,8156 9341,8150 9350,8144 9360,8138 9371,8134 9382,8131 9386,8143 9377,8146 9369,8150 9365,8153 9361,8155 9357,8158 9354,8161 9348,8167 9342,8174 9336,8181 9332,8190 9327,8199 9324,8209 9321,8219 9318,8230 9316,8241 9315,8253 9314,8266 9314,8279 Z"/>
   </g>
  </g>
  <g class="com.sun.star.drawing.PolyPolygonShape">
   <g id="id5">
    <rect class="BoundingBox" stroke="none" fill="none" x="9396" y="8204" width="165" height="158"/>
    <path fill="rgb(0,0,0)" stroke="none" d="M 9468,8287 L 9466,8281 9465,8275 9464,8269 9463,8263 9461,8257 9460,8252 9458,8247 9458,8242 9456,8237 9455,8233 9453,8231 9453,8229 9452,8227 9451,8227 9451,8226 9451,8226 9451,8226 9450,8225 9450,8225 9450,8225 9450,8225 9449,8225 9449,8225 9449,8225 9448,8224 9447,8224 9447,8223 9447,8223 9447,8223 9446,8223 9446,8223 9446,8223 9446,8223 9445,8223 9445,8223 9445,8223 9443,8223 9442,8223 9442,8223 9441,8223 9440,8224 9440,8224 9439,8224 9439,8224 9439,8224 9439,8225 9439,8225 9438,8225 9437,8226 9436,8226 9436,8227 9434,8228 9433,8230 9432,8231 9431,8232 9429,8235 9426,8238 9424,8242 9414,8235 9419,8228 9423,8221 9426,8219 9428,8216 9430,8214 9433,8212 9435,8210 9437,8209 9440,8208 9443,8207 9446,8206 9449,8205 9452,8205 9455,8205 9457,8205 9458,8205 9459,8205 9460,8205 9461,8205 9461,8205 9462,8205 9462,8206 9463,8206 9464,8206 9465,8206 9466,8207 9466,8207 9467,8208 9468,8208 9469,8209 9470,8210 9470,8210 9471,8211 9472,8211 9472,8212 9473,8213 9474,8213 9474,8214 9475,8215 9475,8216 9475,8217 9477,8219 9477,8221 9478,8222 9478,8223 9479,8225 9479,8227 9480,8228 9480,8230 9481,8232 9482,8236 9483,8241 9486,8260 9488,8260 9501,8241 9506,8234 9511,8229 9514,8224 9518,8220 9521,8216 9524,8214 9534,8207 9537,8206 9540,8205 9542,8205 9543,8205 9545,8205 9548,8205 9549,8205 9551,8205 9553,8205 9554,8205 9556,8206 9557,8206 9560,8207 9553,8236 9542,8236 9542,8235 9541,8234 9541,8233 9541,8233 9541,8232 9541,8231 9540,8231 9540,8230 9540,8230 9539,8230 9539,8229 9539,8229 9538,8229 9538,8229 9537,8229 9537,8229 9536,8229 9536,8229 9536,8229 9535,8229 9535,8229 9535,8229 9534,8229 9534,8230 9530,8232 9529,8232 9528,8233 9527,8233 9526,8234 9525,8236 9523,8238 9520,8240 9518,8243 9515,8246 9513,8249 9511,8251 9510,8252 9507,8256 9502,8263 9491,8276 9497,8303 9497,8305 9497,8308 9499,8312 9500,8317 9501,8321 9501,8323 9501,8324 9503,8327 9505,8333 9505,8334 9506,8336 9506,8337 9507,8338 9507,8338 9507,8338 9508,8339 9511,8342 9511,8342 9512,8342 9512,8342 9513,8343 9514,8343 9514,8343 9516,8343 9516,8343 9516,8343 9517,8343 9518,8342 9519,8342 9520,8342 9521,8341 9522,8340 9524,8340 9525,8338 9526,8337 9528,8334 9535,8325 9546,8331 9540,8338 9535,8345 9532,8348 9530,8350 9528,8353 9526,8355 9523,8356 9521,8357 9518,8358 9516,8359 9513,8360 9510,8360 9507,8361 9505,8361 9503,8361 9501,8361 9499,8360 9498,8360 9496,8360 9495,8359 9493,8359 9491,8358 9490,8357 9489,8356 9488,8355 9487,8354 9486,8353 9485,8352 9485,8351 9483,8349 9482,8347 9482,8346 9481,8344 9480,8342 9479,8339 9479,8337 9479,8334 9476,8324 9474,8316 9473,8312 9473,8309 9473,8306 9473,8303 9471,8303 9456,8323 9450,8331 9446,8337 9442,8342 9438,8346 9435,8349 9433,8352 9427,8356 9426,8357 9424,8358 9424,8358 9423,8358 9422,8358 9422,8359 9420,8359 9419,8359 9418,8360 9416,8360 9414,8360 9413,8361 9411,8361 9409,8361 9407,8361 9405,8361 9403,8360 9402,8360 9400,8360 9399,8359 9397,8359 9404,8331 9415,8331 9415,8331 9415,8332 9415,8333 9415,8333 9415,8334 9415,8334 9416,8335 9416,8335 9416,8336 9417,8336 9417,8336 9417,8336 9418,8336 9418,8337 9419,8337 9420,8337 9421,8337 9421,8337 9422,8337 9423,8336 9423,8336 9424,8336 9425,8336 9425,8335 9426,8335 9427,8333 9429,8332 9430,8331 9432,8330 9434,8327 9437,8324 9440,8320 9444,8316 9448,8310 9454,8304 9468,8287 Z"/>
   </g>
  </g>
  <g class="com.sun.star.drawing.PolyPolygonShape">
   <g id="id6">
    <rect class="BoundingBox" stroke="none" fill="none" x="9579" y="8130" width="102" height="301"/>
    <path fill="rgb(0,0,0)" stroke="none" d="M 9653,8279 L 9652,8266 9651,8253 9650,8241 9648,8230 9645,8219 9642,8209 9639,8199 9635,8190 9630,8181 9624,8174 9618,8167 9615,8164 9612,8161 9608,8158 9605,8155 9601,8153 9597,8150 9589,8146 9580,8143 9584,8131 9595,8134 9605,8138 9615,8144 9620,8146 9625,8150 9629,8153 9633,8156 9637,8160 9641,8164 9645,8169 9648,8173 9655,8183 9660,8193 9666,8204 9670,8215 9673,8227 9676,8239 9678,8252 9679,8266 9680,8280 9679,8294 9678,8307 9676,8320 9673,8333 9670,8345 9666,8356 9660,8367 9655,8378 9648,8387 9641,8396 9633,8403 9625,8410 9615,8417 9605,8422 9595,8426 9584,8430 9581,8418 9589,8414 9593,8412 9597,8410 9601,8408 9605,8405 9609,8403 9612,8400 9615,8397 9618,8393 9624,8386 9630,8378 9635,8370 9639,8360 9642,8351 9645,8340 9648,8329 9650,8317 9651,8305 9652,8292 9653,8279 Z"/>
   </g>
  </g>
  <g class="com.sun.star.drawing.PolyPolygonShape">
   <g id="id7">
    <rect class="BoundingBox" stroke="none" fill="none" x="9821" y="8222" width="196" height="89"/>
    <path fill="rgb(0,0,0)" stroke="none" d="M 9822,8223 L 10016,8223 10016,8244 9822,8244 9822,8223 Z M 9822,8289 L 10016,8289 10016,8310 9822,8310 9822,8289 Z"/>
   </g>
  </g>
  <g class="com.sun.star.drawing.PolyPolygonShape">
   <g id="id8">
    <rect class="BoundingBox" stroke="none" fill="none" x="10286" y="7760" width="146" height="122"/>
    <path fill="rgb(0,0,0)" stroke="none" d="M 10340,7792 L 10346,7785 10352,7778 10355,7776 10357,7773 10360,7771 10362,7769 10365,7767 10368,7765 10371,7764 10374,7763 10377,7762 10380,7761 10383,7761 10385,7761 10388,7761 10391,7761 10394,7762 10395,7762 10396,7762 10397,7763 10398,7763 10399,7764 10400,7765 10401,7765 10402,7766 10403,7767 10403,7768 10404,7768 10405,7769 10406,7770 10406,7771 10407,7772 10407,7773 10408,7774 10408,7775 10409,7778 10409,7780 10409,7783 10409,7786 10409,7788 10409,7790 10409,7792 10409,7793 10409,7794 10408,7796 10408,7797 10408,7799 10408,7802 10407,7806 10406,7810 10406,7812 10405,7813 10404,7817 10403,7821 10402,7825 10402,7829 10401,7833 10399,7840 10398,7846 10397,7848 10396,7851 10396,7852 10396,7853 10396,7854 10396,7854 10396,7855 10395,7856 10395,7857 10396,7859 10396,7860 10396,7860 10396,7861 10396,7861 10396,7861 10396,7862 10396,7862 10397,7863 10397,7863 10397,7863 10397,7864 10398,7864 10398,7864 10398,7864 10398,7864 10398,7864 10399,7864 10399,7865 10399,7865 10400,7865 10401,7865 10402,7865 10406,7865 10407,7865 10407,7864 10407,7864 10408,7864 10409,7863 10410,7862 10411,7862 10412,7861 10412,7861 10414,7860 10415,7859 10416,7858 10416,7858 10417,7857 10417,7856 10418,7855 10419,7855 10420,7853 10422,7851 10430,7859 10425,7864 10422,7866 10419,7869 10418,7870 10417,7870 10415,7872 10413,7874 10412,7875 10410,7876 10409,7876 10408,7877 10406,7878 10404,7879 10403,7879 10401,7880 10400,7880 10399,7880 10397,7880 10395,7881 10394,7881 10392,7881 10391,7881 10390,7881 10389,7880 10388,7880 10384,7879 10383,7878 10382,7878 10381,7877 10381,7877 10380,7876 10379,7875 10378,7875 10378,7874 10378,7873 10376,7872 10376,7871 10375,7870 10375,7869 10374,7868 10374,7867 10374,7866 10374,7864 10374,7862 10374,7861 10373,7860 10373,7857 10374,7855 10374,7853 10374,7852 10374,7850 10374,7849 10377,7835 10378,7833 10378,7831 10379,7828 10381,7824 10381,7823 10381,7821 10384,7808 10385,7805 10386,7803 10386,7801 10386,7800 10386,7799 10386,7798 10387,7797 10387,7795 10387,7793 10387,7791 10387,7791 10387,7790 10387,7788 10387,7787 10387,7785 10387,7784 10386,7783 10386,7782 10386,7782 10385,7781 10385,7781 10385,7780 10384,7780 10384,7779 10384,7779 10383,7779 10383,7778 10382,7778 10382,7778 10381,7778 10381,7777 10380,7777 10378,7777 10377,7777 10375,7777 10374,7777 10373,7777 10372,7777 10371,7777 10371,7778 10370,7778 10368,7779 10367,7779 10366,7779 10365,7780 10364,7780 10364,7781 10363,7781 10360,7783 10352,7791 10351,7792 10350,7793 10349,7794 10349,7795 10347,7797 10345,7800 10344,7802 10342,7805 10341,7807 10339,7810 10339,7811 10339,7813 10338,7815 10337,7817 10337,7818 10337,7819 10337,7819 10337,7820 10336,7821 10323,7879 10300,7879 10317,7804 10319,7798 10320,7795 10320,7793 10320,7785 10320,7784 10320,7783 10320,7782 10320,7781 10320,7781 10320,7780 10319,7779 10319,7779 10318,7778 10318,7778 10317,7778 10317,7777 10316,7777 10315,7777 10314,7777 10313,7777 10313,7777 10312,7777 10312,7777 10311,7777 10311,7777 10310,7777 10309,7778 10309,7778 10309,7778 10309,7778 10309,7778 10308,7778 10307,7778 10307,7779 10306,7779 10306,7779 10306,7780 10305,7780 10300,7785 10300,7785 10300,7785 10299,7786 10298,7787 10297,7787 10296,7789 10295,7790 10293,7791 10286,7783 10296,7773 10298,7772 10299,7771 10301,7769 10302,7769 10303,7768 10304,7767 10305,7767 10305,7767 10308,7765 10310,7764 10311,7763 10312,7763 10313,7762 10314,7762 10316,7762 10317,7762 10319,7761 10321,7761 10322,7761 10323,7761 10325,7761 10326,7761 10327,7761 10328,7761 10329,7762 10330,7762 10331,7762 10332,7763 10332,7763 10333,7764 10334,7764 10335,7765 10335,7765 10336,7766 10336,7767 10338,7768 10339,7770 10339,7771 10340,7773 10341,7775 10341,7777 10341,7779 10341,7782 10341,7782 10341,7782 10341,7783 10341,7784 10341,7785 10341,7785 10340,7786 10340,7786 10340,7786 10340,7786 10340,7787 10340,7788 10340,7789 10340,7790 10340,7790 10339,7791 10339,7791 10340,7792 Z"/>
   </g>
  </g>
  <g class="com.sun.star.drawing.PolyPolygonShape">
   <g id="id9">
    <rect class="BoundingBox" stroke="none" fill="none" x="10147" y="7957" width="398" height="619"/>
    <path fill="rgb(0,0,0)" stroke="none" d="M 10217,7978 L 10405,8234 10405,8253 10202,8529 10476,8529 10481,8529 10483,8528 10485,8528 10487,8527 10489,8527 10491,8526 10492,8526 10494,8525 10495,8524 10497,8523 10498,8522 10500,8520 10501,8519 10502,8517 10503,8516 10505,8514 10506,8512 10507,8510 10508,8508 10511,8502 10513,8495 10515,8488 10517,8479 10520,8459 10543,8459 10535,8575 10147,8575 10147,8559 10368,8260 10154,7973 10154,7958 10535,7958 10535,8051 10514,8051 10514,8043 10512,8035 10511,8028 10509,8021 10507,8014 10505,8008 10502,8003 10499,7998 10498,7995 10497,7993 10495,7991 10493,7989 10492,7987 10490,7986 10488,7984 10486,7983 10484,7982 10482,7981 10479,7980 10477,7979 10474,7978 10472,7978 10469,7978 10466,7978 10217,7978 Z"/>
   </g>
  </g>
  <g class="com.sun.star.drawing.PolyPolygonShape">
   <g id="id10">
    <rect class="BoundingBox" stroke="none" fill="none" x="10142" y="8612" width="124" height="162"/>
    <path fill="rgb(0,0,0)" stroke="none" d="M 10177,8713 L 10164,8771 10142,8771 10170,8647 10171,8645 10171,8644 10171,8641 10172,8639 10172,8638 10172,8637 10172,8631 10172,8629 10172,8629 10172,8628 10172,8628 10172,8628 10172,8628 10172,8627 10172,8627 10172,8627 10172,8627 10171,8627 10171,8627 10171,8626 10171,8626 10171,8626 10171,8626 10171,8626 10171,8625 10171,8625 10171,8625 10171,8625 10170,8625 10170,8625 10170,8625 10170,8625 10170,8625 10169,8625 10169,8625 10169,8624 10169,8624 10168,8624 10167,8623 10167,8623 10166,8623 10166,8623 10165,8623 10165,8623 10164,8623 10163,8623 10162,8623 10161,8623 10160,8622 10160,8622 10159,8622 10157,8622 10159,8615 10191,8613 10199,8613 10179,8703 10182,8703 10184,8703 10185,8703 10186,8702 10187,8702 10189,8701 10191,8701 10193,8700 10194,8700 10196,8699 10197,8699 10198,8698 10199,8697 10201,8696 10204,8694 10207,8693 10211,8690 10214,8688 10216,8686 10217,8685 10218,8684 10219,8683 10219,8682 10220,8681 10221,8681 10221,8680 10221,8680 10222,8679 10223,8678 10224,8676 10225,8675 10225,8675 10225,8675 10226,8673 10227,8672 10227,8672 10227,8671 10227,8670 10227,8669 10227,8669 10227,8669 10227,8668 10227,8668 10227,8668 10227,8668 10227,8667 10227,8667 10227,8666 10226,8666 10226,8665 10226,8665 10225,8665 10225,8665 10225,8664 10225,8664 10225,8664 10224,8664 10224,8664 10224,8663 10223,8663 10222,8663 10221,8663 10220,8663 10218,8663 10220,8655 10261,8655 10264,8662 10261,8665 10257,8668 10250,8674 10249,8675 10247,8677 10244,8679 10237,8684 10234,8686 10231,8689 10228,8691 10226,8693 10224,8694 10211,8704 10213,8708 10214,8712 10217,8721 10223,8739 10224,8740 10224,8741 10224,8743 10225,8744 10225,8745 10225,8746 10225,8746 10225,8747 10226,8749 10227,8750 10227,8750 10227,8751 10228,8752 10228,8752 10228,8752 10228,8753 10231,8756 10232,8756 10232,8756 10232,8756 10232,8756 10232,8756 10233,8756 10233,8757 10233,8757 10234,8757 10234,8757 10235,8757 10238,8757 10239,8757 10239,8756 10239,8756 10239,8756 10240,8756 10240,8756 10241,8755 10242,8755 10242,8755 10247,8750 10248,8749 10249,8749 10250,8748 10250,8747 10251,8747 10252,8746 10253,8745 10253,8744 10261,8751 10251,8761 10250,8762 10249,8763 10248,8764 10247,8765 10245,8766 10242,8768 10241,8768 10240,8769 10238,8770 10237,8770 10236,8770 10236,8770 10235,8771 10235,8771 10234,8771 10232,8771 10230,8772 10229,8772 10228,8773 10227,8773 10227,8773 10226,8773 10225,8773 10223,8772 10221,8772 10220,8771 10218,8771 10217,8770 10216,8769 10214,8769 10214,8768 10213,8768 10213,8767 10212,8767 10211,8766 10210,8764 10206,8759 10205,8755 10204,8751 10203,8749 10202,8747 10202,8744 10201,8742 10200,8737 10198,8732 10195,8721 10195,8720 10195,8719 10194,8718 10194,8718 10194,8717 10194,8717 10194,8717 10194,8717 10193,8717 10193,8716 10193,8716 10193,8716 10193,8716 10193,8715 10193,8715 10193,8715 10193,8715 10191,8714 10191,8713 10191,8713 10191,8713 10191,8713 10191,8713 10190,8713 10190,8713 10190,8713 10190,8713 10188,8713 10184,8713 10177,8713 Z"/>
   </g>
  </g>
  <g class="com.sun.star.drawing.PolyPolygonShape">
   <g id="id11">
    <rect class="BoundingBox" stroke="none" fill="none" x="10298" y="8668" width="134" height="70"/>
    <path fill="rgb(0,0,0)" stroke="none" d="M 10298,8669 L 10430,8669 10430,8687 10298,8687 10298,8669 Z M 10298,8737 L 10298,8719 10430,8719 10430,8737 10298,8737 Z"/>
   </g>
  </g>
  <g class="com.sun.star.drawing.PolyPolygonShape">
   <g id="id12">
    <rect class="BoundingBox" stroke="none" fill="none" x="10466" y="8620" width="106" height="154"/>
    <path fill="rgb(0,0,0)" stroke="none" d="M 10479,8754 L 10478,8751 10477,8749 10474,8743 10472,8737 10470,8731 10468,8723 10467,8715 10467,8707 10466,8698 10467,8693 10467,8688 10468,8680 10469,8671 10470,8664 10473,8657 10474,8654 10475,8651 10477,8648 10478,8645 10480,8642 10481,8640 10485,8635 10487,8633 10489,8632 10491,8630 10494,8628 10496,8627 10498,8626 10501,8625 10503,8624 10506,8623 10508,8622 10511,8621 10514,8621 10517,8621 10519,8621 10523,8621 10526,8621 10529,8622 10532,8622 10535,8623 10538,8624 10540,8625 10542,8627 10545,8628 10547,8629 10550,8631 10552,8633 10553,8634 10555,8636 10557,8638 10558,8641 10560,8643 10561,8646 10563,8648 10564,8651 10565,8654 10566,8657 10567,8660 10567,8664 10568,8667 10569,8671 10570,8678 10570,8686 10570,8695 10570,8704 10570,8713 10568,8721 10567,8729 10565,8735 10562,8742 10560,8748 10558,8750 10556,8753 10555,8755 10553,8757 10551,8759 10549,8761 10547,8763 10545,8765 10542,8766 10540,8768 10537,8769 10535,8770 10532,8771 10529,8771 10527,8772 10524,8772 10521,8773 10517,8773 10511,8772 10508,8772 10505,8772 10503,8771 10500,8770 10498,8769 10495,8768 10493,8767 10491,8765 10488,8764 10486,8762 10484,8760 10483,8758 10481,8756 10479,8754 Z M 10490,8695 L 10491,8703 10491,8711 10492,8718 10492,8725 10493,8728 10493,8730 10495,8736 10496,8741 10497,8746 10498,8748 10499,8749 10500,8751 10501,8752 10502,8754 10504,8755 10505,8757 10506,8758 10507,8758 10508,8758 10509,8759 10511,8760 10512,8760 10514,8760 10516,8760 10518,8761 10519,8761 10521,8761 10522,8760 10524,8760 10525,8760 10527,8760 10528,8759 10530,8758 10531,8758 10534,8755 10535,8754 10536,8753 10537,8752 10538,8750 10539,8748 10539,8747 10540,8746 10541,8745 10541,8743 10542,8740 10543,8738 10543,8735 10544,8733 10544,8728 10545,8725 10546,8721 10546,8718 10546,8715 10546,8708 10546,8700 10546,8691 10546,8683 10545,8676 10544,8670 10544,8666 10544,8663 10543,8660 10542,8658 10542,8655 10541,8653 10540,8651 10539,8649 10539,8647 10538,8645 10537,8643 10536,8641 10535,8640 10533,8638 10532,8637 10530,8636 10529,8635 10528,8634 10527,8634 10525,8633 10524,8632 10522,8632 10520,8632 10518,8632 10517,8632 10515,8632 10513,8632 10511,8633 10510,8634 10508,8635 10507,8635 10507,8636 10506,8636 10505,8637 10504,8638 10503,8639 10501,8640 10500,8642 10499,8643 10498,8645 10497,8647 10496,8649 10496,8651 10495,8653 10494,8655 10494,8658 10493,8660 10493,8663 10493,8666 10492,8669 10491,8681 10491,8688 10490,8695 Z"/>
   </g>
  </g>
  <g class="com.sun.star.drawing.PolyPolygonShape">
   <g id="id13">
    <rect class="BoundingBox" stroke="none" fill="none" x="10655" y="8132" width="157" height="230"/>
    <path fill="rgb(0,0,0)" stroke="none" d="M 10723,8294 L 10723,8291 10722,8288 10721,8286 10721,8286 10720,8285 10717,8282 10717,8282 10717,8282 10716,8282 10714,8281 10713,8281 10712,8281 10711,8281 10709,8281 10698,8281 10682,8359 10655,8359 10695,8178 10697,8173 10698,8170 10698,8168 10698,8166 10698,8165 10698,8164 10699,8163 10699,8161 10699,8160 10699,8159 10699,8157 10699,8155 10699,8153 10699,8151 10699,8151 10699,8150 10699,8149 10699,8149 10698,8148 10698,8148 10698,8147 10697,8147 10697,8146 10696,8146 10696,8146 10695,8146 10694,8145 10693,8144 10692,8144 10690,8143 10688,8143 10686,8143 10684,8143 10681,8143 10682,8134 10722,8133 10732,8133 10701,8271 10706,8271 10708,8271 10709,8271 10711,8270 10712,8270 10716,8269 10719,8268 10722,8266 10725,8264 10729,8262 10732,8260 10736,8257 10740,8255 10743,8253 10746,8250 10752,8245 10756,8241 10759,8238 10760,8236 10762,8234 10763,8232 10764,8231 10764,8230 10765,8229 10765,8228 10765,8227 10765,8226 10765,8225 10765,8224 10765,8223 10765,8222 10765,8221 10765,8220 10764,8220 10764,8219 10763,8218 10763,8218 10762,8217 10761,8217 10760,8216 10759,8216 10758,8215 10757,8215 10754,8215 10756,8208 10807,8208 10810,8215 10782,8239 10743,8269 10758,8326 10762,8337 10763,8337 10763,8338 10764,8339 10764,8339 10764,8340 10765,8340 10765,8341 10767,8341 10767,8342 10768,8342 10769,8342 10769,8342 10770,8343 10770,8343 10770,8343 10771,8343 10772,8343 10772,8343 10773,8342 10773,8342 10774,8342 10776,8341 10777,8341 10778,8340 10779,8339 10780,8338 10782,8337 10783,8335 10787,8332 10793,8326 10802,8334 10796,8341 10790,8346 10787,8349 10784,8351 10782,8353 10779,8355 10777,8356 10775,8357 10773,8358 10770,8359 10768,8360 10766,8360 10764,8361 10761,8361 10759,8361 10756,8360 10754,8360 10752,8359 10751,8359 10750,8358 10749,8358 10748,8357 10747,8357 10746,8356 10745,8355 10744,8355 10744,8354 10743,8353 10742,8352 10741,8351 10740,8350 10740,8349 10738,8347 10737,8344 10736,8341 10735,8338 10734,8335 10723,8294 Z"/>
   </g>
  </g>
  <g class="com.sun.star.drawing.PolyPolygonShape">
   <g id="id14">
    <rect class="BoundingBox" stroke="none" fill="none" x="10832" y="8122" width="134" height="121"/>
    <path fill="rgb(0,0,0)" stroke="none" d="M 10889,8185 L 10889,8182 10889,8180 10887,8175 10886,8171 10886,8170 10885,8168 10885,8164 10884,8161 10883,8158 10882,8156 10882,8154 10882,8153 10881,8150 10881,8149 10881,8148 10881,8148 10881,8147 10880,8147 10880,8145 10879,8144 10879,8143 10878,8143 10878,8142 10878,8142 10877,8142 10874,8139 10871,8139 10867,8139 10867,8139 10867,8139 10867,8139 10867,8139 10866,8140 10866,8140 10866,8140 10865,8140 10865,8140 10865,8140 10865,8141 10864,8141 10864,8141 10864,8141 10863,8141 10863,8142 10863,8142 10863,8142 10862,8143 10862,8144 10861,8144 10860,8146 10860,8146 10859,8147 10859,8148 10858,8149 10855,8153 10846,8148 10849,8144 10851,8141 10854,8136 10857,8133 10858,8131 10859,8130 10860,8129 10861,8129 10862,8128 10863,8127 10863,8127 10864,8126 10865,8126 10866,8125 10867,8125 10868,8124 10870,8124 10871,8124 10871,8123 10872,8123 10872,8123 10873,8123 10875,8123 10877,8123 10879,8123 10881,8123 10882,8123 10884,8123 10885,8123 10886,8124 10888,8124 10889,8124 10889,8125 10891,8126 10892,8126 10892,8127 10893,8128 10894,8129 10895,8130 10896,8133 10897,8134 10898,8136 10899,8139 10901,8147 10904,8164 10906,8164 10909,8159 10912,8155 10915,8152 10918,8149 10921,8145 10923,8142 10924,8141 10925,8139 10926,8138 10927,8137 10928,8136 10929,8135 10930,8134 10931,8133 10933,8131 10934,8130 10934,8130 10936,8128 10937,8127 10938,8126 10939,8126 10940,8125 10940,8125 10941,8124 10942,8124 10943,8124 10945,8123 10946,8123 10946,8123 10953,8123 10956,8123 10958,8123 10959,8123 10961,8123 10961,8123 10962,8124 10963,8124 10963,8124 10964,8124 10964,8125 10958,8147 10948,8147 10948,8146 10948,8145 10948,8145 10948,8144 10948,8144 10948,8143 10948,8143 10948,8143 10947,8143 10947,8142 10947,8142 10946,8142 10946,8142 10946,8142 10945,8142 10945,8142 10945,8142 10945,8142 10945,8142 10944,8142 10944,8142 10944,8142 10943,8143 10943,8143 10943,8143 10943,8143 10942,8143 10942,8143 10942,8143 10942,8143 10942,8143 10941,8143 10941,8143 10940,8144 10939,8144 10938,8145 10938,8145 10938,8145 10936,8146 10936,8147 10935,8147 10935,8148 10935,8148 10935,8148 10934,8149 10934,8149 10933,8150 10932,8150 10931,8151 10930,8153 10927,8155 10927,8156 10926,8157 10924,8159 10922,8162 10919,8165 10917,8168 10914,8171 10911,8174 10908,8178 10911,8192 10913,8198 10913,8204 10916,8212 10917,8214 10917,8215 10918,8216 10918,8217 10918,8218 10919,8219 10919,8220 10920,8221 10920,8222 10920,8223 10921,8223 10921,8223 10921,8224 10921,8224 10922,8224 10922,8225 10922,8225 10923,8225 10923,8225 10923,8225 10924,8226 10925,8226 10925,8226 10926,8227 10926,8227 10927,8227 10927,8227 10927,8227 10928,8227 10929,8227 10929,8227 10929,8227 10929,8227 10929,8226 10930,8226 10930,8226 10930,8226 10930,8226 10930,8226 10930,8226 10931,8226 10931,8226 10931,8226 10931,8226 10932,8225 10932,8225 10933,8224 10934,8224 10934,8224 10938,8220 10939,8219 10939,8218 10941,8216 10943,8212 10951,8218 10949,8221 10947,8224 10946,8226 10945,8227 10944,8229 10942,8230 10942,8231 10941,8232 10939,8234 10937,8236 10935,8238 10934,8238 10933,8239 10931,8240 10931,8240 10930,8240 10930,8240 10929,8241 10929,8241 10928,8241 10927,8241 10927,8241 10927,8241 10926,8241 10926,8241 10925,8241 10924,8242 10923,8242 10921,8242 10918,8242 10916,8242 10915,8242 10914,8242 10914,8241 10913,8241 10912,8241 10910,8241 10909,8240 10908,8240 10907,8239 10907,8239 10906,8238 10905,8237 10904,8237 10904,8236 10904,8235 10903,8234 10903,8233 10902,8233 10902,8232 10901,8231 10901,8229 10900,8228 10899,8226 10898,8224 10898,8223 10898,8223 10898,8222 10898,8221 10898,8220 10898,8219 10897,8218 10897,8217 10896,8217 10896,8216 10896,8214 10895,8212 10895,8211 10895,8210 10895,8210 10895,8209 10894,8209 10894,8207 10894,8206 10894,8205 10894,8204 10894,8203 10894,8202 10894,8202 10893,8202 10893,8198 10892,8198 10886,8206 10882,8210 10881,8212 10879,8214 10877,8217 10875,8220 10874,8222 10873,8223 10872,8225 10870,8226 10869,8227 10868,8228 10867,8230 10865,8232 10864,8233 10863,8234 10863,8234 10862,8235 10861,8236 10860,8237 10859,8237 10858,8238 10857,8238 10856,8239 10850,8242 10842,8242 10840,8242 10838,8242 10837,8241 10836,8241 10835,8241 10835,8241 10834,8241 10834,8240 10833,8240 10832,8240 10837,8218 10847,8218 10848,8219 10848,8219 10848,8220 10848,8220 10848,8221 10848,8221 10848,8221 10849,8222 10849,8222 10849,8222 10850,8222 10850,8223 10850,8223 10851,8223 10851,8223 10852,8223 10852,8223 10852,8223 10852,8223 10852,8223 10852,8223 10853,8223 10853,8222 10853,8222 10853,8222 10854,8222 10855,8222 10855,8222 10855,8222 10855,8222 10855,8221 10856,8221 10856,8221 10856,8221 10856,8221 10856,8221 10856,8221 10857,8220 10858,8220 10858,8219 10859,8219 10859,8218 10860,8218 10860,8218 10862,8216 10863,8215 10864,8214 10865,8213 10866,8212 10866,8211 10871,8206 10874,8203 10876,8200 10879,8196 10882,8193 10889,8185 Z"/>
   </g>
  </g>
 </g>
</svg>