<?xml version="1.0" encoding="UTF-8"?>
<!DOCTYPE svg PUBLIC "-//W3C//DTD SVG 1.1//EN" "http://www.w3.org/Graphics/SVG/1.1/DTD/svg11.dtd">
<svg version="1.2" width="94.37mm" height="85.39mm" viewBox="1282 10981 9437 8539" preserveAspectRatio="xMidYMid" fill-rule="evenodd" stroke-width="28.222" stroke-linejoin="round" xmlns="http://www.w3.org/2000/svg" xmlns:ooo="http://xml.openoffice.org/svg/export" xmlns:xlink="http://www.w3.org/1999/xlink" xmlns:presentation="http://sun.com/xmlns/staroffice/presentation" xmlns:smil="http://www.w3.org/2001/SMIL20/" xmlns:anim="urn:oasis:names:tc:opendocument:xmlns:animation:1.0" xml:space="preserve">
 <defs class="EmbeddedBulletChars">
  <g id="bullet-char-template-57356" transform="scale(0.00048828125,-0.00048828125)">
   <path d="M 580,1141 L 1163,571 580,0 -4,571 580,1141 Z"/>
  </g>
  <g id="bullet-char-template-57354" transform="scale(0.00048828125,-0.00048828125)">
   <path d="M 8,1128 L 1137,1128 1137,0 8,0 8,1128 Z"/>
  </g>
  <g id="bullet-char-template-10146" transform="scale(0.00048828125,-0.00048828125)">
   <path d="M 174,0 L 602,739 174,1481 1456,739 174,0 Z M 1358,739 L 309,1346 659,739 1358,739 Z"/>
  </g>
  <g id="bullet-char-template-10132" transform="scale(0.00048828125,-0.00048828125)">
   <path d="M 2015,739 L 1276,0 717,0 1260,543 174,543 174,936 1260,936 717,1481 1274,1481 2015,739 Z"/>
  </g>
  <g id="bullet-char-template-10007" transform="scale(0.00048828125,-0.00048828125)">
   <path d="M 0,-2 C -7,14 -16,27 -25,37 L 356,567 C 262,823 215,952 215,954 215,979 228,992 255,992 264,992 276,990 289,987 310,991 331,999 354,1012 L 381,999 492,748 772,1049 836,1024 860,1049 C 881,1039 901,1025 922,1006 886,937 835,863 770,784 769,783 710,716 594,584 L 774,223 C 774,196 753,168 711,139 L 727,119 C 717,90 699,76 672,76 641,76 570,178 457,381 L 164,-76 C 142,-110 111,-127 72,-127 30,-127 9,-110 8,-76 1,-67 -2,-52 -2,-32 -2,-23 -1,-13 0,-2 Z"/>
  </g>
  <g id="bullet-char-template-10004" transform="scale(0.00048828125,-0.00048828125)">
   <path d="M 285,-33 C 182,-33 111,30 74,156 52,228 41,333 41,471 41,549 55,616 82,672 116,743 169,778 240,778 293,778 328,747 346,684 L 369,508 C 377,444 397,411 428,410 L 1163,1116 C 1174,1127 1196,1133 1229,1133 1271,1133 1292,1118 1292,1087 L 1292,965 C 1292,929 1282,901 1262,881 L 442,47 C 390,-6 338,-33 285,-33 Z"/>
  </g>
  <g id="bullet-char-template-9679" transform="scale(0.00048828125,-0.00048828125)">
   <path d="M 813,0 C 632,0 489,54 383,161 276,268 223,411 223,592 223,773 276,916 383,1023 489,1130 632,1184 813,1184 992,1184 1136,1130 1245,1023 1353,916 1407,772 1407,592 1407,412 1353,268 1245,161 1136,54 992,0 813,0 Z"/>
  </g>
  <g id="bullet-char-template-8226" transform="scale(0.00048828125,-0.00048828125)">
   <path d="M 346,457 C 273,457 209,483 155,535 101,586 74,649 74,723 74,796 101,859 155,911 209,963 273,989 346,989 419,989 480,963 531,910 582,859 608,796 608,723 608,648 583,586 532,535 482,483 420,457 346,457 Z"/>
  </g>
  <g id="bullet-char-template-8211" transform="scale(0.00048828125,-0.00048828125)">
   <path d="M -4,459 L 1135,459 1135,606 -4,606 -4,459 Z"/>
  </g>
  <g id="bullet-char-template-61548" transform="scale(0.00048828125,-0.00048828125)">
   <path d="M 173,740 C 173,903 231,1043 346,1159 462,1274 601,1332 765,1332 928,1332 1067,1274 1183,1159 1299,1043 1357,903 1357,740 1357,577 1299,437 1183,322 1067,206 928,148 765,148 601,148 462,206 346,322 231,437 173,577 173,740 Z"/>
  </g>
 </defs>
 <g class="Page">
  <g class="Group">
   <g class="com.sun.star.drawing.PolyPolygonShape">
    <g id="id3">
     <rect class="BoundingBox" stroke="none" fill="none" x="2482" y="10981" width="3038" height="1037"/>
     <path fill="rgb(255,255,255)" stroke="none" d="M 3000,10999 L 3000,10999 2967,11000 2935,11003 2902,11009 2871,11016 2839,11026 2809,11037 2779,11051 2750,11066 2722,11083 2696,11102 2670,11123 2646,11145 2624,11169 2603,11195 2584,11221 2567,11249 2552,11278 2538,11308 2527,11338 2517,11370 2510,11401 2504,11434 2501,11466 2500,11499 2500,11499 2500,11499 2501,11532 2504,11564 2510,11597 2517,11628 2527,11660 2538,11690 2552,11720 2567,11749 2584,11777 2603,11803 2624,11829 2646,11853 2670,11875 2696,11896 2722,11915 2750,11932 2779,11947 2809,11961 2839,11972 2871,11982 2902,11989 2935,11995 2967,11998 3000,11999 5001,11999 5001,11999 5034,11998 5066,11995 5099,11989 5130,11982 5162,11972 5192,11961 5222,11947 5251,11932 5279,11915 5305,11896 5331,11875 5355,11853 5377,11829 5398,11803 5417,11777 5434,11749 5449,11720 5463,11690 5474,11660 5484,11628 5491,11597 5497,11564 5500,11532 5501,11499 5501,11499 5501,11499 5501,11499 5500,11466 5497,11434 5491,11401 5484,11370 5474,11338 5463,11308 5449,11278 5434,11249 5417,11221 5398,11195 5377,11169 5355,11145 5331,11123 5305,11102 5279,11083 5251,11066 5222,11051 5192,11037 5162,11026 5130,11016 5099,11009 5066,11003 5034,11000 5001,10999 3000,10999 Z"/>
     <path fill="none" stroke="rgb(51,51,51)" stroke-width="35" stroke-linejoin="round" d="M 3000,10999 L 3000,10999 2967,11000 2935,11003 2902,11009 2871,11016 2839,11026 2809,11037 2779,11051 2750,11066 2722,11083 2696,11102 2670,11123 2646,11145 2624,11169 2603,11195 2584,11221 2567,11249 2552,11278 2538,11308 2527,11338 2517,11370 2510,11401 2504,11434 2501,11466 2500,11499 2500,11499 2500,11499 2501,11532 2504,11564 2510,11597 2517,11628 2527,11660 2538,11690 2552,11720 2567,11749 2584,11777 2603,11803 2624,11829 2646,11853 2670,11875 2696,11896 2722,11915 2750,11932 2779,11947 2809,11961 2839,11972 2871,11982 2902,11989 2935,11995 2967,11998 3000,11999 5001,11999 5001,11999 5034,11998 5066,11995 5099,11989 5130,11982 5162,11972 5192,11961 5222,11947 5251,11932 5279,11915 5305,11896 5331,11875 5355,11853 5377,11829 5398,11803 5417,11777 5434,11749 5449,11720 5463,11690 5474,11660 5484,11628 5491,11597 5497,11564 5500,11532 5501,11499 5501,11499 5501,11499 5501,11499 5500,11466 5497,11434 5491,11401 5484,11370 5474,11338 5463,11308 5449,11278 5434,11249 5417,11221 5398,11195 5377,11169 5355,11145 5331,11123 5305,11102 5279,11083 5251,11066 5222,11051 5192,11037 5162,11026 5130,11016 5099,11009 5066,11003 5034,11000 5001,10999 3000,10999 Z"/>
    </g>
   </g>
   <g class="com.sun.star.drawing.PolyPolygonShape">
    <g id="id4">
     <rect class="BoundingBox" stroke="none" fill="none" x="3629" y="11314" width="337" height="358"/>
     <path fill="rgb(51,51,51)" stroke="none" d="M 3745,11342 L 3667,11342 3667,11369 3745,11369 3745,11342 Z M 3667,11425 L 3745,11425 3745,11395 3667,11395 3667,11425 Z M 3780,11452 L 3667,11452 3667,11671 3629,11671 3629,11314 3780,11314 3780,11452 Z M 3770,11545 L 3819,11545 3819,11506 3770,11506 3770,11545 Z M 3903,11576 L 3852,11576 3852,11663 3819,11663 3819,11576 3769,11576 3769,11582 3767,11587 3766,11593 3765,11599 3763,11605 3761,11611 3758,11617 3756,11623 3754,11627 3752,11630 3750,11633 3748,11636 3746,11639 3744,11642 3739,11648 3737,11651 3734,11654 3731,11657 3729,11660 3726,11662 3722,11665 3719,11667 3716,11669 3714,11667 3711,11664 3708,11661 3705,11658 3701,11655 3698,11652 3695,11649 3692,11647 3694,11645 3697,11644 3699,11642 3702,11640 3704,11638 3706,11636 3709,11634 3711,11631 3713,11629 3715,11627 3717,11625 3718,11622 3720,11620 3721,11618 3723,11615 3724,11613 3727,11608 3729,11603 3731,11599 3732,11594 3734,11590 3735,11585 3736,11581 3736,11576 3690,11576 3690,11545 3738,11545 3738,11506 3697,11506 3697,11476 3894,11476 3894,11506 3852,11506 3852,11545 3903,11545 3903,11576 Z M 3847,11426 L 3928,11426 3928,11395 3847,11395 3847,11426 Z M 3928,11342 L 3847,11342 3847,11369 3928,11369 3928,11342 Z M 3965,11314 L 3965,11624 3965,11628 3965,11632 3964,11635 3964,11638 3963,11641 3963,11644 3962,11647 3961,11649 3960,11651 3959,11653 3957,11655 3956,11657 3954,11658 3952,11660 3950,11661 3948,11662 3945,11664 3943,11664 3940,11665 3937,11666 3934,11667 3930,11667 3923,11668 3915,11669 3906,11669 3895,11669 3884,11669 3883,11665 3882,11661 3881,11656 3879,11650 3877,11645 3876,11640 3874,11636 3873,11634 3872,11632 3920,11632 3921,11632 3922,11632 3923,11632 3924,11632 3924,11631 3925,11631 3925,11631 3925,11631 3926,11631 3926,11630 3926,11630 3926,11630 3926,11630 3927,11629 3927,11629 3927,11629 3927,11628 3927,11628 3927,11628 3928,11627 3928,11626 3928,11625 3928,11624 3928,11453 3811,11453 3811,11314 3965,11314 Z"/>
    </g>
   </g>
   <g class="com.sun.star.drawing.PolyPolygonShape">
    <g id="id5">
     <rect class="BoundingBox" stroke="none" fill="none" x="4027" y="11297" width="379" height="376"/>
     <path fill="rgb(51,51,51)" stroke="none" d="M 4184,11470 L 4180,11434 4213,11432 4219,11417 4225,11400 4237,11365 4247,11329 4251,11313 4255,11297 4297,11306 4272,11376 4261,11405 4250,11430 4343,11425 4335,11412 4327,11399 4319,11387 4310,11375 4340,11360 4350,11373 4360,11387 4370,11402 4379,11416 4387,11431 4394,11444 4400,11457 4402,11462 4404,11468 4371,11486 4369,11480 4367,11473 4364,11466 4360,11458 4263,11465 4184,11470 Z M 4142,11414 L 4097,11414 4074,11510 4096,11525 4106,11531 4114,11537 4119,11524 4123,11510 4128,11496 4131,11481 4134,11465 4137,11449 4142,11414 Z M 4158,11378 L 4180,11383 4175,11434 4171,11458 4167,11481 4163,11503 4157,11523 4151,11542 4145,11559 4159,11572 4172,11583 4182,11594 4186,11598 4190,11602 4167,11633 4160,11624 4151,11615 4140,11604 4128,11593 4120,11605 4112,11617 4104,11628 4094,11638 4085,11647 4074,11656 4063,11664 4052,11671 4046,11662 4040,11653 4037,11650 4034,11646 4031,11644 4028,11641 4039,11635 4049,11628 4058,11620 4068,11612 4076,11603 4084,11592 4092,11581 4099,11570 4092,11564 4083,11558 4065,11545 4060,11561 4029,11544 4061,11414 4027,11414 4027,11379 4069,11379 4085,11297 4121,11301 4104,11379 4151,11379 4158,11378 Z M 4344,11539 L 4243,11539 4243,11619 4344,11619 4344,11539 Z M 4207,11670 L 4207,11505 4381,11505 4381,11669 4344,11669 4344,11653 4243,11653 4243,11670 4207,11670 Z"/>
    </g>
   </g>
  </g>
  <g class="Group">
   <g class="com.sun.star.drawing.PolyPolygonShape">
    <g id="id6">
     <rect class="BoundingBox" stroke="none" fill="none" x="1982" y="12481" width="4037" height="1037"/>
     <path fill="rgb(255,255,255)" stroke="none" d="M 2000,13499 L 2000,12499 6000,12499 6000,13499 2000,13499 Z"/>
     <path fill="none" stroke="rgb(51,51,51)" stroke-width="35" stroke-linejoin="round" d="M 2000,13499 L 2000,12499 6000,12499 6000,13499 2000,13499 Z"/>
    </g>
   </g>
   <g class="com.sun.star.drawing.PolyPolygonShape">
    <g id="id7">
     <rect class="BoundingBox" stroke="none" fill="none" x="3214" y="12816" width="338" height="355"/>
     <path fill="rgb(51,51,51)" stroke="none" d="M 3406,12939 L 3374,12951 3373,12947 3373,12943 3370,12935 3368,12925 3364,12915 3360,12905 3356,12895 3351,12886 3347,12876 3376,12866 3381,12875 3386,12884 3391,12894 3395,12904 3399,12914 3402,12923 3404,12931 3405,12935 3406,12939 Z M 3336,12946 L 3306,12960 3303,12953 3300,12944 3297,12936 3292,12926 3287,12916 3282,12907 3277,12898 3272,12890 3300,12878 3306,12886 3311,12895 3317,12904 3322,12914 3327,12923 3331,12931 3334,12939 3335,12942 3336,12946 Z M 3454,12878 L 3490,12887 3483,12905 3474,12922 3466,12939 3456,12955 3446,12971 3435,12986 3424,13001 3412,13015 3435,13028 3456,13042 3474,13054 3482,13061 3490,13067 3466,13097 3459,13090 3451,13084 3433,13070 3411,13055 3387,13040 3376,13050 3364,13060 3353,13069 3340,13078 3328,13086 3315,13094 3302,13101 3288,13108 3286,13105 3283,13101 3280,13097 3276,13093 3273,13088 3269,13084 3266,13081 3263,13078 3276,13072 3288,13066 3300,13060 3312,13053 3323,13046 3334,13038 3344,13030 3354,13022 3334,13012 3315,13002 3297,12993 3279,12986 3299,12960 3319,12968 3339,12977 3359,12987 3380,12997 3391,12984 3402,12971 3412,12957 3422,12943 3431,12927 3439,12912 3447,12895 3454,12878 Z M 3252,13115 L 3512,13115 3512,12852 3252,12852 3252,13115 Z M 3214,12816 L 3551,12816 3551,13170 3512,13170 3512,13151 3252,13151 3252,13170 3214,13170 3214,12816 Z"/>
    </g>
   </g>
   <g class="com.sun.star.drawing.PolyPolygonShape">
    <g id="id8">
     <rect class="BoundingBox" stroke="none" fill="none" x="3627" y="12812" width="330" height="349"/>
     <path fill="rgb(51,51,51)" stroke="none" d="M 3785,12815 L 3783,12827 3780,12838 3777,12849 3774,12859 3808,12857 3839,12855 3867,12852 3894,12848 3894,12885 3863,12889 3831,12892 3797,12894 3760,12896 3753,12910 3745,12924 3737,12937 3729,12949 3732,12948 3734,12947 3737,12946 3740,12944 3743,12943 3747,12942 3754,12941 3761,12939 3768,12938 3775,12937 3778,12937 3781,12937 3786,12937 3790,12938 3795,12938 3799,12939 3804,12941 3808,12942 3812,12944 3815,12946 3819,12948 3822,12951 3825,12954 3828,12957 3830,12960 3832,12964 3834,12968 3835,12972 3870,12956 3900,12943 3939,12925 3956,12962 3946,12965 3936,12969 3925,12973 3914,12977 3839,13009 3839,13045 3840,13084 3801,13084 3803,13027 3790,13034 3784,13038 3778,13042 3773,13046 3768,13049 3764,13053 3760,13057 3757,13060 3754,13064 3752,13068 3750,13072 3749,13074 3748,13076 3747,13078 3747,13080 3746,13082 3746,13084 3746,13086 3746,13088 3746,13090 3746,13092 3746,13094 3747,13096 3747,13098 3748,13099 3748,13101 3749,13102 3750,13104 3751,13105 3752,13106 3753,13108 3754,13109 3755,13110 3757,13111 3758,13112 3759,13113 3761,13114 3762,13115 3764,13115 3766,13116 3768,13117 3770,13117 3772,13118 3777,13119 3781,13120 3786,13120 3791,13121 3796,13121 3801,13121 3814,13122 3826,13121 3840,13121 3854,13120 3869,13119 3899,13115 3913,13113 3926,13111 3925,13152 3896,13155 3868,13157 3840,13159 3812,13159 3803,13159 3794,13159 3786,13158 3778,13157 3770,13156 3763,13155 3755,13153 3748,13151 3745,13150 3742,13149 3739,13147 3736,13146 3733,13144 3730,13143 3727,13141 3725,13139 3723,13137 3721,13135 3719,13133 3717,13131 3715,13129 3713,13126 3712,13123 3710,13121 3709,13118 3708,13115 3707,13112 3706,13109 3705,13105 3705,13102 3705,13098 3705,13095 3705,13091 3705,13088 3705,13084 3706,13081 3707,13077 3708,13074 3709,13070 3710,13067 3712,13064 3713,13060 3715,13057 3717,13054 3718,13051 3720,13048 3722,13046 3725,13043 3729,13038 3734,13033 3740,13027 3746,13022 3753,13017 3759,13013 3766,13008 3772,13005 3778,13001 3785,12997 3800,12989 3799,12987 3798,12984 3797,12982 3795,12980 3794,12978 3792,12977 3790,12975 3788,12974 3786,12973 3783,12972 3781,12971 3778,12970 3776,12970 3773,12969 3770,12969 3767,12969 3763,12969 3758,12969 3754,12970 3749,12971 3745,12972 3740,12973 3736,12975 3731,12977 3727,12979 3723,12981 3718,12984 3714,12986 3711,12989 3707,12992 3703,12995 3700,12998 3697,13001 3694,13004 3687,13011 3676,13024 3663,13042 3628,13016 3643,13001 3657,12986 3670,12971 3682,12956 3693,12941 3703,12927 3712,12912 3720,12897 3708,12897 3640,12894 3640,12856 3655,12858 3672,12860 3690,12861 3710,12861 3734,12860 3738,12848 3739,12842 3740,12836 3741,12830 3742,12824 3743,12818 3743,12812 3785,12815 Z"/>
    </g>
   </g>
   <g class="com.sun.star.drawing.PolyPolygonShape">
    <g id="id9">
     <rect class="BoundingBox" stroke="none" fill="none" x="4021" y="12798" width="375" height="373"/>
     <path fill="rgb(51,51,51)" stroke="none" d="M 4145,12972 L 4151,13006 4107,13020 4107,13125 4107,13129 4107,13132 4107,13135 4107,13138 4106,13140 4106,13143 4105,13145 4104,13147 4103,13149 4102,13151 4101,13153 4100,13154 4098,13156 4097,13157 4095,13159 4093,13160 4091,13161 4089,13162 4086,13163 4084,13163 4082,13164 4079,13165 4076,13165 4073,13165 4067,13166 4059,13167 4050,13167 4040,13167 4040,13165 4040,13163 4039,13159 4038,13155 4036,13150 4035,13144 4033,13140 4032,13136 4030,13132 4066,13132 4067,13132 4068,13132 4068,13132 4069,13132 4069,13132 4070,13132 4070,13132 4070,13132 4071,13131 4071,13131 4071,13131 4071,13131 4071,13131 4071,13130 4072,13130 4072,13130 4072,13130 4072,13129 4072,13129 4072,13128 4072,13127 4073,13126 4073,13125 4073,13031 4030,13044 4021,13007 4073,12994 4073,12912 4027,12912 4027,12877 4073,12877 4073,12799 4107,12799 4107,12877 4148,12877 4148,12912 4107,12912 4107,12983 4145,12972 Z M 4258,12986 L 4205,12986 4205,13035 4258,13035 4258,12986 Z M 4345,13035 L 4345,12986 4291,12986 4291,13035 4345,13035 Z M 4291,13116 L 4345,13116 4345,13067 4291,13067 4291,13116 Z M 4205,13067 L 4205,13116 4258,13116 4258,13067 4205,13067 Z M 4171,13170 L 4171,12953 4381,12953 4381,13167 4345,13167 4345,13150 4205,13150 4205,13170 4171,13170 Z M 4344,12853 L 4394,12853 4394,12887 4344,12887 4344,12937 4307,12937 4307,12887 4243,12887 4243,12937 4207,12937 4207,12887 4155,12887 4155,12853 4207,12853 4207,12798 4243,12798 4243,12853 4307,12853 4307,12798 4344,12798 4344,12853 Z"/>
    </g>
   </g>
   <g class="com.sun.star.drawing.PolyPolygonShape">
    <g id="id10">
     <rect class="BoundingBox" stroke="none" fill="none" x="4501" y="12808" width="223" height="361"/>
     <path fill="rgb(51,51,51)" stroke="none" d="M 4714,12842 L 4696,12857 4687,12865 4684,12867 4684,12867 4683,12867 4683,12867 4629,12912 4571,12959 4566,12964 4563,12966 4561,12968 4560,12970 4559,12970 4558,12971 4557,12972 4557,12973 4556,12974 4556,12975 4555,12976 4555,12977 4554,12978 4554,12979 4554,12979 4554,12980 4554,12981 4554,12982 4554,12982 4554,12983 4554,12984 4554,12985 4555,12985 4555,12986 4556,12987 4556,12988 4557,12989 4557,12990 4558,12991 4559,12992 4559,12993 4560,12994 4562,12996 4572,13005 4596,13024 4629,13051 4660,13078 4695,13108 4723,13134 4686,13168 4655,13135 4634,13115 4606,13090 4530,13024 4522,13018 4517,13012 4514,13009 4512,13006 4510,13004 4508,13001 4506,12999 4505,12996 4504,12994 4503,12991 4502,12989 4502,12986 4502,12984 4502,12981 4502,12979 4503,12976 4503,12974 4504,12971 4505,12969 4507,12966 4508,12964 4510,12961 4512,12959 4514,12956 4519,12951 4526,12945 4533,12939 4559,12917 4594,12889 4624,12863 4639,12850 4645,12844 4650,12839 4660,12829 4667,12821 4673,12814 4675,12811 4677,12809 4714,12842 Z"/>
    </g>
   </g>
  </g>
  <g class="Group">
   <g class="com.sun.star.drawing.PolyPolygonShape">
    <g id="id11">
     <rect class="BoundingBox" stroke="none" fill="none" x="1282" y="13982" width="5438" height="2038"/>
     <path fill="rgb(255,255,255)" stroke="none" d="M 4000,14000 L 6701,15000 4000,16001 1300,15000 4000,14000 4000,14000 Z"/>
     <path fill="none" stroke="rgb(51,51,51)" stroke-width="35" stroke-linejoin="round" d="M 4000,14000 L 6701,15000 4000,16001 1300,15000 4000,14000 4000,14000 Z"/>
    </g>
   </g>
   <g class="com.sun.star.drawing.PolyPolygonShape">
    <g id="id12">
     <rect class="BoundingBox" stroke="none" fill="none" x="1990" y="14849" width="300" height="305"/>
     <path fill="rgb(51,51,51)" stroke="none" d="M 2288,14870 L 2287,14872 2286,14874 2285,14879 2283,14886 2281,14894 2272,14929 2260,14967 2256,14977 2252,14988 2247,14998 2242,15008 2237,15017 2232,15026 2226,15035 2220,15043 2205,15061 2188,15079 2170,15095 2150,15109 2129,15122 2107,15134 2084,15144 2059,15153 2024,15115 2038,15111 2052,15107 2065,15102 2077,15098 2089,15092 2100,15087 2111,15081 2121,15075 2130,15069 2139,15062 2147,15055 2155,15049 2162,15042 2169,15034 2176,15026 2182,15018 2187,15012 2192,15005 2196,14998 2201,14991 2205,14983 2208,14975 2212,14967 2216,14959 2222,14942 2227,14925 2230,14909 2232,14901 2233,14893 2034,14893 1990,14895 1990,14850 2001,14851 2012,14852 2023,14853 2034,14853 2231,14853 2238,14853 2245,14852 2248,14852 2251,14851 2254,14850 2257,14850 2288,14870 Z"/>
    </g>
   </g>
   <g class="com.sun.star.drawing.PolyPolygonShape">
    <g id="id13">
     <rect class="BoundingBox" stroke="none" fill="none" x="2414" y="14891" width="287" height="280"/>
     <path fill="rgb(51,51,51)" stroke="none" d="M 2617,14891 L 2617,14894 2616,14896 2616,14903 2616,14911 2616,14921 2616,14934 2616,14951 2670,14951 2678,14951 2686,14950 2693,14950 2699,14949 2699,14988 2671,14988 2617,14988 2619,15139 2619,15142 2619,15145 2619,15147 2618,15148 2618,15150 2617,15151 2616,15153 2616,15154 2615,15155 2614,15157 2613,15158 2612,15159 2611,15160 2610,15161 2609,15162 2607,15163 2606,15164 2605,15165 2602,15166 2599,15168 2596,15169 2592,15169 2589,15170 2585,15170 2571,15170 2557,15169 2525,15167 2522,15131 2535,15132 2548,15133 2559,15134 2570,15134 2572,15134 2573,15134 2574,15134 2575,15134 2576,15133 2577,15133 2577,15132 2578,15131 2579,15131 2579,15130 2580,15129 2580,15127 2580,15126 2581,15125 2581,15124 2581,15122 2580,15022 2574,15030 2568,15037 2562,15045 2554,15052 2538,15068 2520,15084 2501,15099 2481,15113 2462,15126 2443,15137 2415,15105 2426,15100 2436,15094 2447,15088 2458,15082 2479,15067 2499,15052 2518,15035 2535,15019 2543,15011 2550,15003 2556,14995 2562,14988 2462,14988 2429,14989 2429,14949 2436,14950 2444,14950 2452,14951 2461,14951 2579,14951 2578,14921 2577,14913 2577,14905 2576,14897 2575,14891 2617,14891 Z"/>
    </g>
   </g>
   <g class="com.sun.star.drawing.PolyPolygonShape">
    <g id="id14">
     <rect class="BoundingBox" stroke="none" fill="none" x="2816" y="14837" width="328" height="315"/>
     <path fill="rgb(51,51,51)" stroke="none" d="M 2858,14837 L 2870,14846 2883,14855 2913,14879 2929,14891 2942,14903 2953,14913 2962,14922 2931,14955 2921,14946 2910,14935 2882,14910 2867,14898 2853,14886 2840,14877 2829,14869 2858,14837 Z M 2817,15109 L 2839,15105 2860,15101 2881,15095 2901,15088 2921,15081 2940,15072 2958,15063 2976,15052 2988,15045 2999,15037 3010,15029 3021,15020 3031,15011 3041,15002 3051,14992 3060,14982 3078,14961 3086,14951 3093,14941 3100,14930 3106,14920 3112,14910 3117,14899 3142,14943 3136,14954 3130,14964 3123,14974 3116,14984 3100,15004 3082,15023 3073,15033 3063,15042 3054,15051 3043,15059 3033,15068 3022,15076 3011,15083 3000,15090 2981,15101 2962,15111 2943,15120 2923,15128 2904,15135 2884,15142 2864,15147 2844,15151 2817,15109 Z"/>
    </g>
   </g>
   <g class="com.sun.star.drawing.PolyPolygonShape">
    <g id="id15">
     <rect class="BoundingBox" stroke="none" fill="none" x="3309" y="14822" width="220" height="334"/>
     <path fill="rgb(51,51,51)" stroke="none" d="M 3313,15102 L 3313,14868 3312,14856 3312,14844 3311,14833 3309,14822 3359,14822 3357,14849 3356,14859 3356,14868 3356,14931 3377,14938 3400,14945 3447,14962 3493,14980 3512,14988 3528,14996 3510,15040 3494,15032 3477,15024 3458,15015 3437,15007 3356,14977 3356,15102 3356,15116 3357,15130 3358,15142 3359,15154 3309,15154 3311,15142 3312,15129 3313,15116 3313,15102 Z"/>
    </g>
   </g>
   <g class="com.sun.star.drawing.PolyPolygonShape">
    <g id="id16">
     <rect class="BoundingBox" stroke="none" fill="none" x="3636" y="14824" width="347" height="335"/>
     <path fill="rgb(51,51,51)" stroke="none" d="M 3779,15089 L 3779,15091 3779,15092 3779,15094 3780,15096 3780,15097 3781,15098 3781,15100 3782,15101 3783,15102 3784,15104 3785,15105 3786,15106 3787,15107 3788,15108 3790,15109 3791,15110 3794,15112 3798,15113 3801,15114 3805,15115 3810,15116 3814,15117 3819,15117 3824,15117 3829,15117 3834,15117 3838,15116 3842,15115 3844,15114 3846,15113 3847,15112 3849,15112 3850,15111 3852,15109 3853,15108 3854,15107 3855,15106 3856,15104 3857,15103 3858,15101 3859,15100 3860,15098 3861,15094 3862,15090 3862,15086 3863,15081 3863,15077 3863,15065 3858,15064 3854,15063 3849,15062 3844,15061 3839,15061 3835,15060 3830,15060 3825,15060 3820,15060 3815,15060 3811,15061 3807,15062 3803,15063 3799,15064 3795,15066 3792,15068 3789,15070 3788,15071 3786,15072 3785,15073 3784,15075 3783,15076 3782,15077 3781,15079 3781,15080 3780,15081 3780,15083 3779,15084 3779,15086 3779,15087 3779,15089 Z M 3901,14825 L 3900,14831 3899,14837 3899,14843 3898,14850 3897,14896 3914,14894 3931,14892 3948,14890 3965,14887 3965,14926 3929,14931 3912,14933 3897,14934 3899,14999 3901,15031 3901,15039 3901,15042 3911,15047 3921,15051 3931,15057 3941,15063 3951,15070 3961,15078 3971,15086 3982,15095 3960,15129 3944,15115 3930,15103 3916,15092 3903,15084 3903,15086 3903,15092 3903,15097 3902,15102 3901,15107 3900,15110 3900,15112 3899,15115 3898,15117 3897,15119 3896,15122 3895,15124 3893,15126 3892,15128 3891,15131 3889,15133 3887,15135 3886,15136 3884,15138 3882,15140 3880,15142 3878,15143 3875,15145 3873,15146 3870,15147 3867,15148 3865,15150 3862,15151 3858,15152 3855,15152 3852,15153 3848,15154 3845,15154 3841,15155 3837,15155 3829,15155 3819,15155 3810,15154 3801,15153 3792,15151 3785,15149 3778,15146 3771,15143 3768,15141 3765,15139 3762,15137 3760,15135 3757,15133 3755,15130 3753,15128 3751,15125 3749,15122 3748,15120 3746,15117 3745,15114 3744,15111 3743,15107 3743,15104 3742,15101 3742,15097 3742,15094 3742,15090 3742,15087 3743,15083 3743,15080 3744,15077 3745,15074 3746,15071 3748,15068 3749,15065 3751,15062 3753,15059 3755,15057 3757,15054 3760,15051 3765,15047 3768,15045 3771,15042 3778,15039 3785,15036 3793,15033 3801,15031 3810,15030 3819,15029 3829,15028 3837,15029 3845,15029 3853,15030 3861,15031 3857,14936 3823,14937 3808,14937 3792,14936 3754,14934 3753,14896 3772,14897 3789,14898 3807,14899 3824,14899 3857,14899 3857,14851 3857,14845 3857,14839 3856,14832 3855,14825 3901,14825 Z M 3702,14828 L 3699,14835 3697,14842 3695,14851 3693,14860 3690,14876 3687,14895 3680,14940 3677,14964 3675,14986 3674,15004 3673,15020 3674,15032 3674,15043 3675,15054 3677,15064 3680,15054 3685,15042 3698,15012 3718,15028 3699,15084 3693,15105 3689,15121 3688,15126 3687,15130 3687,15135 3687,15139 3687,15140 3687,15141 3687,15144 3688,15150 3688,15152 3688,15154 3688,15154 3652,15157 3648,15143 3645,15129 3642,15114 3640,15098 3638,15082 3637,15064 3636,15028 3637,15005 3638,14981 3640,14956 3643,14933 3646,14910 3649,14890 3652,14872 3653,14862 3654,14859 3654,14858 3654,14858 3654,14858 3656,14837 3657,14829 3657,14824 3702,14828 Z"/>
    </g>
   </g>
   <g class="com.sun.star.drawing.PolyPolygonShape">
    <g id="id17">
     <rect class="BoundingBox" stroke="none" fill="none" x="4029" y="14827" width="365" height="329"/>
     <path fill="rgb(51,51,51)" stroke="none" d="M 4241,15118 L 4392,15118 4392,15155 4029,15155 4029,15118 4082,15118 4082,14933 4121,14933 4121,15118 4202,15118 4202,14864 4044,14864 4044,14827 4380,14827 4380,14864 4241,14864 4241,14964 4362,14964 4362,15000 4241,15000 4241,15118 Z"/>
    </g>
   </g>
   <g class="com.sun.star.drawing.PolyPolygonShape">
    <g id="id18">
     <rect class="BoundingBox" stroke="none" fill="none" x="4515" y="14820" width="278" height="344"/>
     <path fill="rgb(51,51,51)" stroke="none" d="M 4567,14821 L 4565,14833 4564,14845 4563,14857 4563,14868 4560,14965 4558,15063 4558,15067 4558,15070 4559,15074 4559,15077 4560,15081 4561,15084 4562,15087 4563,15090 4564,15093 4565,15095 4567,15098 4568,15100 4570,15102 4572,15104 4574,15106 4576,15108 4578,15109 4580,15111 4582,15112 4585,15114 4587,15115 4590,15116 4592,15117 4595,15117 4598,15118 4601,15119 4604,15119 4607,15120 4610,15120 4613,15120 4620,15120 4630,15120 4640,15119 4650,15118 4654,15117 4659,15116 4668,15113 4677,15110 4685,15107 4689,15105 4692,15104 4700,15100 4707,15095 4713,15090 4720,15085 4727,15079 4733,15074 4738,15068 4743,15062 4748,15056 4753,15050 4758,15044 4763,15037 4791,15072 4787,15078 4782,15085 4777,15091 4772,15096 4766,15102 4760,15108 4753,15114 4745,15121 4737,15127 4729,15132 4720,15138 4711,15142 4707,15145 4702,15147 4692,15151 4681,15154 4669,15157 4657,15160 4645,15161 4632,15163 4619,15163 4607,15163 4602,15162 4596,15162 4591,15161 4586,15160 4581,15159 4577,15158 4572,15156 4568,15155 4563,15153 4559,15151 4555,15149 4552,15147 4548,15144 4544,15142 4541,15139 4538,15136 4535,15132 4532,15129 4530,15125 4527,15121 4525,15117 4523,15112 4521,15108 4520,15103 4519,15098 4518,15092 4517,15087 4516,15081 4516,15075 4516,15069 4518,14961 4520,14868 4519,14855 4519,14843 4517,14832 4515,14821 4567,14821 Z"/>
    </g>
   </g>
   <g class="com.sun.star.drawing.PolyPolygonShape">
    <g id="id19">
     <rect class="BoundingBox" stroke="none" fill="none" x="4885" y="14853" width="332" height="294"/>
     <path fill="rgb(51,51,51)" stroke="none" d="M 4935,14854 L 4934,14859 4933,14864 4932,14876 4931,14888 4931,14893 4931,14898 4931,14922 4931,14946 4932,14968 4934,14989 4935,15005 4938,15019 4940,15033 4943,15045 4945,15051 4947,15056 4949,15061 4951,15066 4953,15071 4955,15075 4957,15079 4960,15082 4963,15086 4965,15088 4967,15090 4968,15091 4970,15092 4971,15093 4972,15093 4974,15094 4976,15095 4977,15095 4979,15096 4980,15096 4982,15096 4983,15096 4984,15096 4985,15096 4986,15096 4987,15096 4988,15095 4989,15095 4990,15095 4991,15094 4993,15093 4995,15092 4996,15090 4998,15089 5000,15087 5002,15085 5003,15082 5005,15080 5007,15077 5008,15075 5011,15069 5014,15063 5017,15056 5020,15050 5023,15043 5025,15036 5027,15029 5029,15022 5031,15015 5063,15052 5057,15069 5051,15083 5044,15096 5041,15102 5038,15107 5034,15113 5031,15117 5028,15121 5024,15125 5021,15129 5018,15132 5015,15135 5011,15137 5008,15139 5005,15141 5001,15142 4998,15144 4994,15145 4990,15145 4987,15146 4983,15146 4980,15146 4977,15146 4973,15145 4970,15145 4967,15144 4964,15143 4962,15142 4959,15141 4956,15140 4953,15138 4950,15137 4948,15135 4945,15133 4942,15130 4939,15128 4937,15125 4934,15122 4932,15119 4929,15116 4927,15113 4924,15109 4922,15106 4920,15102 4918,15098 4916,15093 4914,15089 4910,15079 4906,15068 4903,15056 4900,15043 4897,15030 4895,15015 4893,15000 4891,14978 4890,14952 4889,14923 4889,14891 4888,14880 4888,14870 4887,14861 4886,14857 4885,14853 4935,14854 Z M 5143,14864 L 5149,14873 5156,14883 5162,14893 5168,14905 5174,14917 5180,14930 5191,14959 5200,14988 5207,15017 5210,15030 5213,15044 5214,15057 5216,15070 5174,15086 5172,15068 5169,15049 5165,15031 5162,15012 5157,14993 5151,14975 5145,14956 5138,14938 5130,14920 5125,14912 5121,14904 5117,14897 5112,14890 5107,14883 5102,14878 5143,14864 Z"/>
    </g>
   </g>
   <g class="com.sun.star.drawing.PolyPolygonShape">
    <g id="id20">
     <rect class="BoundingBox" stroke="none" fill="none" x="5280" y="14816" width="369" height="341"/>
     <path fill="rgb(51,51,51)" stroke="none" d="M 5435,14821 L 5429,14849 5419,14900 5443,14899 5452,14898 5460,14898 5466,14898 5472,14898 5477,14899 5482,14900 5485,14901 5487,14901 5490,14902 5492,14903 5494,14904 5497,14905 5499,14906 5501,14907 5503,14908 5505,14910 5507,14911 5509,14913 5511,14915 5513,14916 5514,14918 5516,14920 5517,14922 5519,14925 5520,14927 5521,14930 5523,14932 5524,14935 5525,14938 5526,14941 5526,14944 5527,14948 5528,14951 5528,14955 5529,14959 5529,14963 5529,14971 5529,14991 5528,15012 5526,15032 5523,15053 5520,15073 5518,15082 5516,15090 5514,15098 5511,15105 5509,15112 5506,15118 5503,15123 5501,15127 5498,15131 5495,15135 5492,15138 5489,15141 5485,15144 5481,15146 5478,15148 5473,15149 5469,15150 5464,15151 5459,15152 5454,15153 5449,15153 5443,15153 5431,15153 5419,15152 5407,15150 5395,15148 5388,15106 5394,15107 5401,15109 5407,15110 5415,15111 5422,15112 5428,15113 5433,15113 5438,15114 5441,15114 5444,15113 5446,15113 5449,15113 5452,15112 5454,15111 5456,15110 5458,15109 5459,15109 5460,15108 5462,15107 5464,15105 5466,15104 5467,15102 5469,15099 5470,15097 5471,15094 5473,15089 5475,15084 5477,15078 5479,15072 5482,15058 5485,15043 5487,15026 5488,15009 5489,14992 5490,14975 5489,14969 5489,14966 5489,14964 5488,14961 5488,14959 5487,14956 5487,14954 5486,14952 5485,14950 5484,14948 5483,14947 5482,14945 5481,14944 5480,14943 5478,14942 5477,14940 5475,14940 5474,14939 5472,14938 5471,14937 5469,14937 5467,14936 5466,14936 5464,14935 5462,14935 5458,14934 5453,14934 5448,14934 5440,14934 5432,14935 5422,14935 5411,14937 5397,14987 5378,15043 5373,15058 5367,15073 5361,15088 5354,15103 5348,15117 5341,15130 5334,15143 5327,15155 5285,15138 5292,15128 5299,15117 5306,15105 5313,15093 5320,15080 5326,15066 5332,15053 5337,15039 5355,14988 5369,14940 5325,14946 5284,14952 5280,14908 5288,14908 5297,14908 5320,14908 5329,14907 5342,14907 5378,14904 5382,14879 5385,14856 5387,14835 5387,14825 5387,14816 5435,14821 Z M 5575,14862 L 5579,14868 5584,14875 5594,14891 5604,14910 5615,14932 5625,14954 5634,14974 5641,14993 5648,15010 5607,15029 5602,15010 5595,14991 5587,14970 5578,14948 5567,14927 5557,14908 5552,14900 5547,14892 5542,14885 5537,14879 5575,14862 Z"/>
    </g>
   </g>
   <g class="com.sun.star.drawing.PolyPolygonShape">
    <g id="id21">
     <rect class="BoundingBox" stroke="none" fill="none" x="5769" y="14830" width="203" height="314"/>
     <path fill="rgb(51,51,51)" stroke="none" d="M 5844,15039 L 5844,15035 5844,15032 5844,15029 5844,15026 5844,15023 5844,15019 5845,15016 5846,15013 5846,15010 5847,15008 5848,15005 5850,15002 5851,15000 5853,14997 5854,14995 5856,14992 5859,14988 5863,14984 5867,14979 5872,14975 5876,14971 5881,14967 5885,14963 5890,14960 5907,14945 5909,14943 5911,14942 5913,14940 5914,14938 5916,14936 5917,14934 5919,14932 5920,14930 5921,14928 5922,14926 5923,14924 5924,14922 5925,14919 5925,14917 5925,14915 5925,14913 5925,14908 5925,14906 5924,14903 5924,14901 5923,14899 5922,14897 5922,14895 5921,14893 5919,14891 5918,14889 5917,14887 5915,14886 5914,14884 5912,14883 5910,14881 5908,14880 5906,14878 5904,14877 5902,14876 5897,14874 5892,14872 5887,14871 5881,14870 5875,14869 5868,14869 5863,14869 5858,14870 5854,14870 5849,14871 5844,14873 5840,14874 5835,14876 5831,14878 5826,14880 5822,14883 5813,14889 5805,14896 5797,14904 5770,14879 5781,14868 5792,14858 5798,14853 5804,14849 5811,14846 5817,14843 5824,14840 5830,14837 5837,14835 5844,14833 5851,14832 5858,14831 5866,14831 5873,14830 5880,14831 5887,14831 5894,14832 5901,14833 5907,14834 5913,14836 5919,14837 5924,14840 5930,14842 5935,14845 5939,14848 5944,14851 5948,14854 5952,14858 5955,14862 5958,14867 5961,14871 5964,14876 5966,14881 5968,14886 5969,14892 5970,14897 5971,14903 5971,14909 5971,14912 5971,14915 5970,14918 5970,14921 5969,14924 5968,14927 5967,14929 5966,14932 5964,14935 5963,14937 5961,14940 5960,14942 5958,14944 5956,14947 5954,14949 5952,14951 5948,14955 5944,14959 5939,14963 5935,14967 5916,14982 5911,14986 5907,14990 5903,14994 5899,14998 5897,15000 5896,15002 5894,15004 5893,15006 5891,15009 5890,15011 5889,15014 5888,15016 5887,15019 5886,15022 5886,15024 5886,15027 5885,15030 5885,15033 5886,15036 5886,15039 5844,15039 Z M 5866,15142 L 5862,15142 5859,15142 5856,15141 5855,15141 5854,15140 5852,15140 5851,15139 5850,15138 5849,15138 5847,15137 5846,15136 5844,15134 5842,15132 5841,15130 5840,15129 5840,15128 5839,15127 5838,15125 5838,15124 5837,15121 5836,15118 5836,15115 5836,15112 5836,15108 5836,15105 5837,15102 5838,15099 5838,15098 5839,15097 5840,15095 5840,15094 5841,15093 5842,15092 5844,15089 5846,15087 5848,15086 5849,15086 5850,15085 5851,15084 5852,15083 5854,15083 5855,15082 5857,15082 5859,15081 5862,15081 5866,15081 5869,15081 5872,15081 5875,15082 5876,15082 5878,15083 5879,15083 5880,15084 5881,15085 5883,15086 5885,15087 5887,15089 5889,15092 5890,15093 5891,15094 5892,15095 5893,15097 5893,15098 5894,15099 5894,15101 5895,15102 5896,15105 5896,15108 5896,15112 5896,15115 5896,15118 5895,15121 5894,15123 5894,15124 5893,15125 5893,15127 5892,15128 5891,15129 5890,15130 5889,15132 5887,15134 5885,15136 5883,15138 5881,15138 5880,15139 5879,15140 5878,15140 5876,15141 5875,15141 5872,15142 5869,15142 5866,15142 Z"/>
    </g>
   </g>
  </g>
  <g class="Group">
   <g class="com.sun.star.drawing.PolyPolygonShape">
    <g id="id22">
     <rect class="BoundingBox" stroke="none" fill="none" x="6682" y="15282" width="4037" height="1037"/>
     <path fill="rgb(255,255,255)" stroke="none" d="M 6700,16300 L 6700,15300 10700,15300 10700,16300 6700,16300 Z"/>
     <path fill="none" stroke="rgb(51,51,51)" stroke-width="35" stroke-linejoin="round" d="M 6700,16300 L 6700,15300 10700,15300 10700,16300 6700,16300 Z"/>
    </g>
   </g>
   <g class="com.sun.star.drawing.PolyPolygonShape">
    <g id="id23">
     <rect class="BoundingBox" stroke="none" fill="none" x="7312" y="15649" width="300" height="305"/>
     <path fill="rgb(51,51,51)" stroke="none" d="M 7611,15670 L 7610,15672 7609,15674 7607,15679 7605,15686 7603,15694 7594,15729 7582,15767 7578,15777 7574,15788 7570,15798 7565,15808 7559,15817 7554,15826 7549,15835 7543,15843 7527,15861 7510,15879 7492,15895 7473,15909 7452,15922 7430,15934 7406,15944 7381,15953 7346,15915 7360,15911 7374,15907 7387,15902 7400,15898 7412,15892 7423,15887 7433,15881 7443,15875 7452,15869 7461,15862 7469,15855 7477,15849 7484,15842 7491,15834 7498,15826 7505,15818 7510,15812 7514,15805 7519,15798 7523,15791 7527,15783 7531,15775 7535,15767 7538,15759 7544,15742 7549,15725 7553,15709 7554,15701 7556,15693 7356,15693 7313,15695 7313,15650 7324,15651 7335,15652 7346,15653 7356,15653 7553,15653 7561,15653 7568,15652 7571,15652 7574,15651 7577,15650 7579,15650 7611,15670 Z"/>
    </g>
   </g>
   <g class="com.sun.star.drawing.PolyPolygonShape">
    <g id="id24">
     <rect class="BoundingBox" stroke="none" fill="none" x="7737" y="15691" width="286" height="280"/>
     <path fill="rgb(51,51,51)" stroke="none" d="M 7940,15691 L 7939,15694 7939,15696 7938,15703 7938,15711 7938,15721 7938,15734 7938,15751 7992,15751 8001,15751 8008,15750 8015,15750 8022,15749 8022,15788 7994,15788 7939,15788 7942,15939 7942,15942 7941,15945 7941,15947 7941,15948 7940,15950 7940,15951 7939,15953 7938,15954 7937,15955 7937,15957 7936,15958 7935,15959 7934,15960 7932,15961 7931,15962 7930,15963 7929,15964 7927,15965 7924,15966 7921,15968 7918,15969 7915,15969 7911,15970 7907,15970 7894,15970 7879,15969 7847,15967 7844,15931 7858,15932 7870,15933 7882,15934 7893,15934 7894,15934 7895,15934 7896,15934 7897,15934 7898,15933 7899,15933 7900,15932 7901,15931 7901,15931 7902,15930 7902,15929 7903,15927 7903,15926 7903,15925 7903,15924 7903,15922 7903,15822 7897,15830 7891,15837 7884,15845 7877,15852 7861,15868 7842,15884 7823,15899 7804,15913 7785,15926 7765,15937 7737,15905 7748,15900 7759,15894 7770,15888 7780,15882 7801,15867 7822,15852 7841,15835 7858,15819 7865,15811 7872,15803 7879,15795 7884,15788 7785,15788 7751,15789 7751,15749 7758,15750 7766,15750 7775,15751 7784,15751 7901,15751 7900,15721 7900,15713 7899,15705 7898,15697 7897,15691 7940,15691 Z"/>
    </g>
   </g>
   <g class="com.sun.star.drawing.PolyPolygonShape">
    <g id="id25">
     <rect class="BoundingBox" stroke="none" fill="none" x="8139" y="15637" width="327" height="315"/>
     <path fill="rgb(51,51,51)" stroke="none" d="M 8181,15637 L 8193,15646 8206,15655 8236,15679 8251,15691 8264,15703 8276,15713 8285,15722 8253,15755 8244,15746 8232,15735 8204,15710 8189,15698 8175,15686 8163,15677 8151,15669 8181,15637 Z M 8139,15909 L 8161,15905 8183,15901 8203,15895 8224,15888 8243,15881 8262,15872 8281,15863 8299,15852 8310,15845 8322,15837 8333,15829 8343,15820 8354,15811 8364,15802 8374,15792 8383,15782 8400,15761 8408,15751 8416,15741 8423,15730 8429,15720 8435,15710 8440,15699 8465,15743 8459,15754 8452,15764 8446,15774 8438,15784 8423,15804 8405,15823 8396,15833 8386,15842 8376,15851 8366,15859 8355,15868 8345,15876 8333,15883 8322,15890 8303,15901 8284,15911 8265,15920 8246,15928 8226,15935 8206,15942 8186,15947 8166,15951 8139,15909 Z"/>
    </g>
   </g>
   <g class="com.sun.star.drawing.PolyPolygonShape">
    <g id="id26">
     <rect class="BoundingBox" stroke="none" fill="none" x="8631" y="15622" width="221" height="334"/>
     <path fill="rgb(51,51,51)" stroke="none" d="M 8635,15902 L 8635,15668 8635,15656 8634,15644 8633,15633 8632,15622 8681,15622 8679,15649 8679,15659 8679,15668 8679,15731 8700,15738 8722,15745 8770,15762 8815,15780 8834,15788 8850,15796 8832,15840 8817,15832 8799,15824 8780,15815 8760,15807 8679,15777 8679,15902 8679,15916 8680,15930 8681,15942 8682,15954 8632,15954 8633,15942 8634,15929 8635,15916 8635,15902 Z"/>
    </g>
   </g>
   <g class="com.sun.star.drawing.PolyPolygonShape">
    <g id="id27">
     <rect class="BoundingBox" stroke="none" fill="none" x="8948" y="15613" width="330" height="349"/>
     <path fill="rgb(51,51,51)" stroke="none" d="M 9106,15616 L 9104,15628 9101,15639 9098,15650 9095,15660 9129,15658 9160,15656 9188,15653 9215,15649 9215,15686 9184,15690 9152,15693 9118,15695 9081,15697 9074,15711 9066,15725 9058,15738 9050,15750 9053,15749 9055,15748 9058,15747 9061,15745 9064,15744 9068,15743 9075,15742 9082,15740 9089,15739 9096,15738 9099,15738 9102,15738 9107,15738 9111,15739 9116,15739 9120,15740 9125,15742 9129,15743 9133,15745 9136,15747 9140,15749 9143,15752 9146,15755 9149,15758 9151,15761 9153,15765 9155,15769 9156,15773 9191,15757 9221,15744 9260,15726 9277,15763 9267,15766 9257,15770 9246,15774 9235,15778 9160,15810 9160,15846 9161,15885 9122,15885 9124,15828 9111,15835 9105,15839 9099,15843 9094,15847 9089,15850 9085,15854 9081,15858 9078,15861 9075,15865 9073,15869 9071,15873 9070,15875 9069,15877 9068,15879 9068,15881 9067,15883 9067,15885 9067,15887 9067,15889 9067,15891 9067,15893 9067,15895 9068,15897 9068,15899 9069,15900 9069,15902 9070,15903 9071,15905 9072,15906 9073,15907 9074,15909 9075,15910 9076,15911 9078,15912 9079,15913 9080,15914 9082,15915 9083,15916 9085,15916 9087,15917 9089,15918 9091,15918 9093,15919 9098,15920 9102,15921 9107,15921 9112,15922 9117,15922 9122,15922 9135,15923 9147,15922 9161,15922 9175,15921 9190,15920 9220,15916 9234,15914 9247,15912 9246,15953 9217,15956 9189,15958 9161,15960 9133,15960 9124,15960 9115,15960 9107,15959 9099,15958 9091,15957 9084,15956 9076,15954 9069,15952 9066,15951 9063,15950 9060,15948 9057,15947 9054,15945 9051,15944 9048,15942 9046,15940 9044,15938 9042,15936 9040,15934 9038,15932 9036,15930 9034,15927 9033,15924 9031,15922 9030,15919 9029,15916 9028,15913 9027,15910 9026,15906 9026,15903 9026,15899 9026,15896 9026,15892 9026,15889 9026,15885 9027,15882 9028,15878 9029,15875 9030,15871 9031,15868 9033,15865 9034,15861 9036,15858 9038,15855 9039,15852 9041,15849 9043,15847 9046,15844 9050,15839 9055,15834 9061,15828 9067,15823 9074,15818 9080,15814 9087,15809 9093,15806 9099,15802 9106,15798 9121,15790 9120,15788 9119,15785 9118,15783 9116,15781 9115,15779 9113,15778 9111,15776 9109,15775 9107,15774 9104,15773 9102,15772 9099,15771 9097,15771 9094,15770 9091,15770 9088,15770 9084,15770 9079,15770 9075,15771 9070,15772 9066,15773 9061,15774 9057,15776 9052,15778 9048,15780 9044,15782 9039,15785 9035,15787 9032,15790 9028,15793 9024,15796 9021,15799 9018,15802 9015,15805 9008,15812 8997,15825 8984,15843 8949,15817 8964,15802 8978,15787 8991,15772 9003,15757 9014,15742 9024,15728 9033,15713 9041,15698 9029,15698 8961,15695 8961,15657 8976,15659 8993,15661 9011,15662 9031,15662 9055,15661 9059,15649 9060,15643 9061,15637 9062,15631 9063,15625 9064,15619 9064,15613 9106,15616 Z"/>
    </g>
   </g>
   <g class="com.sun.star.drawing.PolyPolygonShape">
    <g id="id28">
     <rect class="BoundingBox" stroke="none" fill="none" x="9356" y="15597" width="361" height="377"/>
     <path fill="rgb(51,51,51)" stroke="none" d="M 9630,15752 L 9630,15725 9489,15725 9489,15752 9630,15752 Z M 9630,15806 L 9630,15778 9489,15778 9489,15806 9630,15806 Z M 9630,15860 L 9630,15832 9489,15832 9489,15860 9630,15860 Z M 9453,15697 L 9510,15697 9514,15669 9356,15669 9356,15634 9518,15634 9520,15597 9564,15599 9559,15634 9711,15634 9711,15669 9554,15669 9548,15697 9667,15697 9667,15887 9453,15887 9453,15697 Z M 9715,15917 L 9715,15952 9413,15952 9413,15972 9376,15972 9376,15709 9413,15709 9413,15917 9715,15917 Z"/>
    </g>
   </g>
   <g class="com.sun.star.drawing.PolyPolygonShape">
    <g id="id29">
     <rect class="BoundingBox" stroke="none" fill="none" x="9782" y="15615" width="343" height="352"/>
     <path fill="rgb(51,51,51)" stroke="none" d="M 10005,15616 L 10004,15618 10004,15621 10003,15630 10002,15639 10002,15643 10002,15645 10002,15648 10002,15653 10002,15666 10124,15666 10123,15704 10001,15702 10002,15765 10005,15771 10008,15777 10010,15784 10012,15790 10014,15797 10015,15804 10016,15812 10016,15820 10016,15828 10015,15837 10014,15845 10012,15853 10011,15857 10010,15861 10009,15865 10007,15869 10006,15874 10004,15878 10000,15886 9997,15890 9995,15895 9992,15899 9989,15903 9986,15906 9983,15910 9980,15914 9977,15918 9973,15921 9969,15925 9965,15928 9961,15932 9956,15935 9951,15938 9941,15945 9935,15948 9929,15951 9917,15956 9905,15961 9891,15965 9856,15931 9875,15927 9892,15921 9908,15915 9922,15908 9928,15904 9934,15900 9940,15896 9945,15891 9950,15887 9954,15882 9958,15877 9961,15872 9958,15873 9955,15874 9951,15875 9948,15876 9944,15877 9940,15877 9937,15878 9933,15878 9930,15878 9926,15877 9923,15877 9920,15876 9917,15876 9914,15875 9911,15874 9908,15873 9905,15872 9902,15870 9899,15869 9897,15867 9894,15866 9891,15864 9889,15862 9886,15860 9884,15858 9882,15855 9880,15853 9877,15850 9876,15847 9874,15844 9872,15841 9871,15837 9869,15834 9868,15830 9867,15827 9866,15823 9865,15819 9865,15815 9865,15811 9865,15807 9865,15802 9865,15797 9866,15792 9867,15787 9869,15782 9870,15778 9872,15774 9875,15769 9878,15765 9880,15761 9884,15758 9887,15754 9891,15751 9894,15748 9898,15746 9902,15743 9907,15741 9911,15739 9916,15738 9921,15736 9925,15735 9930,15734 9935,15734 9940,15734 9946,15734 9949,15734 9952,15735 9955,15735 9958,15736 9960,15736 9963,15737 9963,15720 9962,15702 9784,15709 9782,15670 9863,15668 9962,15666 9962,15655 9961,15645 9959,15626 9959,15620 9958,15616 10005,15616 Z M 9903,15806 L 9903,15810 9903,15814 9904,15816 9904,15817 9905,15819 9905,15821 9906,15822 9907,15824 9908,15825 9909,15827 9910,15828 9911,15830 9912,15831 9914,15832 9916,15835 9919,15837 9922,15838 9926,15840 9929,15841 9932,15842 9936,15842 9940,15842 9942,15842 9944,15842 9946,15842 9948,15841 9950,15841 9951,15840 9953,15840 9955,15839 9956,15838 9958,15837 9959,15836 9961,15835 9962,15833 9964,15832 9965,15830 9966,15828 9967,15827 9968,15825 9969,15823 9970,15821 9970,15819 9971,15816 9972,15811 9972,15806 9972,15800 9972,15794 9971,15788 9970,15785 9969,15783 9967,15781 9966,15779 9964,15777 9963,15776 9961,15774 9959,15773 9957,15772 9955,15771 9952,15770 9950,15769 9948,15769 9945,15768 9942,15768 9940,15768 9936,15768 9933,15769 9929,15770 9926,15771 9923,15772 9920,15774 9917,15776 9914,15778 9912,15780 9911,15781 9910,15782 9909,15784 9908,15785 9907,15787 9906,15789 9906,15790 9905,15792 9904,15794 9903,15798 9903,15802 9903,15806 Z"/>
    </g>
   </g>
  </g>
  <g class="Group">
   <g class="com.sun.star.drawing.PolyPolygonShape">
    <g id="id30">
     <rect class="BoundingBox" stroke="none" fill="none" x="1982" y="16982" width="4037" height="1037"/>
     <path fill="rgb(255,255,255)" stroke="none" d="M 2000,18000 L 2000,17000 6000,17000 6000,18000 2000,18000 Z"/>
     <path fill="none" stroke="rgb(51,51,51)" stroke-width="35" stroke-linejoin="round" d="M 2000,18000 L 2000,17000 6000,17000 6000,18000 2000,18000 Z"/>
    </g>
   </g>
   <g class="com.sun.star.drawing.PolyPolygonShape">
    <g id="id31">
     <rect class="BoundingBox" stroke="none" fill="none" x="2558" y="17345" width="218" height="302"/>
     <path fill="rgb(51,51,51)" stroke="none" d="M 2598,17528 L 2598,17646 2558,17646 2558,17345 2669,17345 2681,17345 2693,17347 2703,17349 2713,17351 2723,17355 2727,17357 2731,17359 2736,17362 2739,17364 2743,17367 2747,17370 2750,17373 2753,17377 2756,17380 2759,17384 2762,17388 2764,17391 2766,17395 2768,17399 2769,17404 2771,17408 2772,17413 2773,17417 2774,17427 2775,17437 2774,17448 2773,17458 2772,17462 2771,17467 2769,17471 2768,17476 2766,17480 2764,17484 2762,17488 2759,17491 2757,17495 2754,17498 2751,17501 2747,17504 2744,17507 2740,17510 2736,17512 2732,17515 2728,17517 2724,17519 2714,17522 2704,17525 2693,17527 2681,17528 2669,17528 2598,17528 Z M 2598,17496 L 2669,17496 2677,17496 2684,17495 2691,17494 2697,17492 2703,17490 2706,17489 2709,17488 2711,17486 2714,17484 2716,17483 2718,17481 2720,17479 2722,17477 2724,17475 2726,17472 2727,17470 2728,17468 2730,17465 2731,17462 2732,17460 2733,17457 2734,17451 2735,17444 2735,17437 2735,17431 2734,17424 2733,17418 2732,17416 2731,17413 2730,17410 2728,17408 2727,17405 2726,17403 2724,17400 2722,17398 2720,17396 2718,17394 2716,17392 2714,17390 2711,17388 2709,17387 2706,17385 2704,17384 2698,17382 2692,17380 2686,17378 2679,17377 2672,17377 2598,17377 2598,17496 Z"/>
    </g>
   </g>
   <g class="com.sun.star.drawing.PolyPolygonShape">
    <g id="id32">
     <rect class="BoundingBox" stroke="none" fill="none" x="2825" y="17345" width="219" height="302"/>
     <path fill="rgb(51,51,51)" stroke="none" d="M 2825,17646 L 2825,17345 2910,17345 2920,17345 2929,17346 2938,17347 2947,17349 2956,17352 2964,17355 2972,17358 2980,17362 2987,17367 2994,17372 3000,17377 3006,17383 3012,17390 3017,17397 3022,17404 3026,17412 3030,17420 3033,17428 3036,17437 3039,17446 3040,17456 3042,17465 3043,17475 3043,17485 3043,17505 3043,17515 3042,17525 3041,17535 3039,17545 3036,17554 3034,17563 3030,17571 3026,17579 3022,17587 3017,17594 3012,17601 3007,17608 3000,17613 2994,17619 2987,17624 2980,17628 2972,17632 2964,17636 2955,17639 2947,17641 2938,17643 2928,17645 2919,17646 2909,17646 2825,17646 Z M 2865,17377 L 2865,17614 2907,17614 2918,17614 2928,17612 2938,17610 2943,17609 2948,17607 2952,17605 2956,17603 2960,17600 2964,17598 2968,17595 2971,17592 2975,17589 2978,17585 2981,17582 2984,17578 2987,17574 2989,17569 2992,17565 2994,17560 2997,17551 3000,17540 3002,17529 3003,17517 3004,17504 3004,17486 3003,17474 3002,17462 3000,17451 2998,17440 2994,17431 2990,17422 2988,17417 2985,17413 2983,17410 2980,17406 2977,17403 2973,17399 2970,17396 2966,17393 2963,17391 2959,17389 2955,17386 2950,17384 2946,17383 2942,17381 2937,17380 2932,17379 2922,17378 2911,17377 2865,17377 Z"/>
    </g>
   </g>
   <g class="com.sun.star.drawing.PolyPolygonShape">
    <g id="id33">
     <rect class="BoundingBox" stroke="none" fill="none" x="3104" y="17345" width="188" height="302"/>
     <path fill="rgb(51,51,51)" stroke="none" d="M 3270,17513 L 3144,17513 3144,17646 3104,17646 3104,17345 3291,17345 3291,17377 3144,17377 3144,17481 3270,17481 3270,17513 Z"/>
    </g>
   </g>
   <g class="com.sun.star.drawing.PolyPolygonShape">
    <g id="id34">
     <rect class="BoundingBox" stroke="none" fill="none" x="3456" y="17327" width="322" height="329"/>
     <path fill="rgb(51,51,51)" stroke="none" d="M 3594,17361 L 3613,17364 3634,17365 3657,17366 3681,17366 3705,17366 3726,17365 3746,17363 3764,17361 3764,17403 3746,17404 3725,17405 3703,17406 3680,17406 3656,17406 3633,17405 3613,17404 3594,17403 3594,17361 Z M 3617,17530 L 3614,17540 3613,17549 3612,17554 3612,17558 3612,17562 3612,17566 3612,17570 3613,17574 3614,17578 3615,17581 3618,17584 3620,17587 3624,17589 3627,17591 3632,17593 3636,17595 3641,17596 3647,17597 3660,17599 3675,17600 3701,17599 3727,17597 3752,17593 3776,17589 3777,17632 3755,17636 3730,17638 3703,17640 3674,17640 3662,17640 3650,17639 3640,17638 3630,17636 3621,17634 3612,17631 3605,17628 3602,17626 3598,17624 3595,17622 3592,17619 3590,17617 3587,17615 3585,17612 3583,17610 3581,17607 3580,17604 3578,17601 3577,17598 3576,17595 3575,17591 3574,17588 3574,17584 3573,17581 3573,17577 3573,17571 3574,17566 3574,17560 3575,17553 3577,17541 3580,17527 3617,17530 Z M 3523,17332 L 3521,17338 3519,17346 3517,17354 3514,17363 3501,17441 3498,17463 3496,17483 3495,17500 3495,17516 3495,17526 3495,17537 3496,17548 3497,17559 3519,17508 3539,17524 3520,17583 3514,17604 3512,17612 3510,17619 3509,17625 3508,17630 3508,17632 3508,17634 3508,17636 3508,17638 3508,17640 3508,17644 3509,17652 3472,17655 3469,17643 3466,17629 3463,17614 3461,17597 3459,17580 3458,17562 3457,17543 3457,17524 3457,17513 3457,17501 3459,17476 3464,17433 3470,17391 3474,17362 3476,17352 3477,17343 3478,17335 3478,17328 3523,17332 Z"/>
    </g>
   </g>
   <g class="com.sun.star.drawing.PolyPolygonShape">
    <g id="id35">
     <rect class="BoundingBox" stroke="none" fill="none" x="3870" y="17301" width="319" height="372"/>
     <path fill="rgb(51,51,51)" stroke="none" d="M 4149,17503 L 4188,17503 4188,17671 4149,17671 4149,17647 3909,17647 3909,17672 3870,17672 3870,17503 3909,17503 3909,17610 4007,17610 4007,17479 3886,17479 3886,17337 3924,17337 3924,17442 4007,17442 4007,17302 4045,17302 4045,17442 4132,17442 4132,17337 4172,17337 4172,17479 4045,17479 4045,17610 4149,17610 4149,17503 Z"/>
    </g>
   </g>
   <g class="com.sun.star.drawing.PolyPolygonShape">
    <g id="id36">
     <rect class="BoundingBox" stroke="none" fill="none" x="4261" y="17299" width="349" height="376"/>
     <path fill="rgb(51,51,51)" stroke="none" d="M 4442,17385 L 4608,17385 4607,17404 4600,17511 4597,17550 4593,17581 4589,17605 4587,17615 4584,17624 4582,17632 4579,17639 4577,17642 4576,17644 4574,17647 4573,17649 4571,17651 4569,17653 4567,17655 4565,17657 4562,17659 4560,17660 4558,17661 4556,17662 4554,17663 4552,17664 4549,17665 4547,17666 4544,17666 4541,17667 4535,17668 4524,17668 4509,17669 4491,17668 4471,17668 4470,17665 4470,17663 4470,17661 4469,17658 4468,17653 4466,17648 4464,17643 4462,17638 4461,17635 4460,17633 4459,17631 4457,17629 4471,17630 4486,17631 4502,17631 4519,17631 4522,17631 4525,17631 4527,17631 4528,17630 4529,17630 4530,17630 4531,17630 4532,17629 4533,17629 4534,17628 4535,17627 4536,17627 4537,17626 4538,17625 4539,17624 4540,17622 4541,17620 4543,17618 4545,17612 4547,17606 4549,17598 4551,17590 4555,17569 4558,17542 4561,17509 4567,17424 4440,17424 4438,17442 4437,17451 4436,17460 4434,17469 4432,17478 4430,17488 4428,17498 4425,17508 4422,17517 4419,17527 4415,17536 4411,17545 4406,17554 4401,17563 4396,17573 4390,17582 4384,17592 4377,17600 4370,17609 4362,17617 4354,17626 4345,17634 4335,17643 4325,17651 4314,17659 4303,17666 4291,17674 4290,17672 4288,17670 4285,17666 4282,17662 4278,17658 4273,17654 4269,17650 4265,17646 4262,17643 4272,17637 4283,17630 4293,17623 4302,17616 4311,17608 4319,17601 4327,17594 4334,17586 4341,17579 4347,17571 4353,17563 4358,17554 4363,17546 4368,17538 4372,17530 4376,17522 4379,17514 4383,17506 4385,17497 4388,17488 4390,17480 4392,17471 4394,17463 4396,17456 4397,17448 4398,17440 4399,17432 4400,17424 4274,17424 4274,17385 4402,17385 4402,17300 4442,17300 4442,17385 Z"/>
    </g>
   </g>
   <g class="com.sun.star.drawing.PolyPolygonShape">
    <g id="id37">
     <rect class="BoundingBox" stroke="none" fill="none" x="4692" y="17315" width="343" height="352"/>
     <path fill="rgb(51,51,51)" stroke="none" d="M 4915,17316 L 4914,17318 4914,17321 4913,17330 4912,17339 4912,17343 4912,17345 4912,17348 4912,17353 4912,17366 5034,17366 5033,17404 4911,17402 4912,17465 4915,17471 4918,17477 4920,17484 4922,17490 4924,17497 4925,17504 4926,17512 4926,17520 4926,17528 4925,17537 4924,17545 4922,17553 4921,17557 4920,17561 4919,17565 4917,17569 4916,17574 4914,17578 4910,17586 4907,17590 4905,17595 4902,17599 4899,17603 4896,17606 4893,17610 4890,17614 4887,17618 4883,17621 4879,17625 4875,17628 4871,17632 4866,17635 4861,17638 4851,17645 4845,17648 4839,17651 4827,17656 4815,17661 4801,17665 4766,17631 4785,17627 4802,17621 4818,17615 4832,17608 4838,17604 4844,17600 4850,17596 4855,17591 4860,17587 4864,17582 4868,17577 4871,17572 4868,17573 4865,17574 4861,17575 4858,17576 4854,17577 4850,17577 4847,17578 4843,17578 4840,17578 4836,17577 4833,17577 4830,17576 4827,17576 4824,17575 4821,17574 4818,17573 4815,17572 4812,17570 4809,17569 4807,17567 4804,17566 4801,17564 4799,17562 4796,17560 4794,17558 4792,17555 4790,17553 4787,17550 4786,17547 4784,17544 4782,17541 4781,17537 4779,17534 4778,17530 4777,17527 4776,17523 4775,17519 4775,17515 4775,17511 4775,17507 4775,17502 4775,17497 4776,17492 4777,17487 4779,17482 4780,17478 4782,17474 4785,17469 4788,17465 4790,17461 4794,17458 4797,17454 4801,17451 4804,17448 4808,17446 4812,17443 4817,17441 4821,17439 4826,17438 4831,17436 4835,17435 4840,17434 4845,17434 4850,17434 4856,17434 4859,17434 4862,17435 4865,17435 4868,17436 4870,17436 4873,17437 4873,17420 4872,17402 4694,17409 4692,17370 4773,17368 4872,17366 4872,17355 4871,17345 4869,17326 4869,17320 4868,17316 4915,17316 Z M 4813,17506 L 4813,17510 4813,17514 4814,17516 4814,17517 4815,17519 4815,17521 4816,17522 4817,17524 4818,17525 4819,17527 4820,17528 4821,17530 4822,17531 4824,17532 4826,17535 4829,17537 4832,17538 4836,17540 4839,17541 4842,17542 4846,17542 4850,17542 4852,17542 4854,17542 4856,17542 4858,17541 4860,17541 4861,17540 4863,17540 4865,17539 4866,17538 4868,17537 4869,17536 4871,17535 4872,17533 4874,17532 4875,17530 4876,17528 4877,17527 4878,17525 4879,17523 4880,17521 4880,17519 4881,17516 4882,17511 4882,17506 4882,17500 4882,17494 4881,17488 4880,17485 4879,17483 4877,17481 4876,17479 4874,17477 4873,17476 4871,17474 4869,17473 4867,17472 4865,17471 4862,17470 4860,17469 4858,17469 4855,17468 4852,17468 4850,17468 4846,17468 4843,17469 4839,17470 4836,17471 4833,17472 4830,17474 4827,17476 4824,17478 4822,17480 4821,17481 4820,17482 4819,17484 4818,17485 4817,17487 4816,17489 4816,17490 4815,17492 4814,17494 4813,17498 4813,17502 4813,17506 Z"/>
    </g>
   </g>
   <g class="com.sun.star.drawing.PolyPolygonShape">
    <g id="id38">
     <rect class="BoundingBox" stroke="none" fill="none" x="5109" y="17329" width="313" height="333"/>
     <path fill="rgb(51,51,51)" stroke="none" d="M 5221,17595 L 5221,17597 5222,17598 5222,17600 5222,17601 5223,17603 5223,17604 5224,17606 5225,17607 5226,17608 5227,17609 5228,17611 5229,17612 5230,17613 5232,17614 5235,17616 5238,17618 5242,17619 5246,17621 5250,17622 5255,17623 5260,17623 5265,17624 5270,17624 5278,17624 5286,17623 5293,17623 5299,17622 5298,17617 5297,17611 5296,17606 5294,17602 5292,17597 5289,17593 5287,17589 5284,17586 5280,17582 5279,17581 5277,17579 5275,17578 5273,17577 5271,17576 5269,17575 5267,17574 5265,17574 5263,17573 5261,17573 5256,17572 5251,17572 5248,17572 5245,17572 5242,17573 5240,17573 5237,17574 5235,17576 5232,17577 5230,17579 5228,17580 5226,17582 5225,17583 5225,17584 5224,17585 5224,17586 5223,17587 5223,17588 5222,17589 5222,17590 5222,17592 5222,17593 5221,17594 5221,17595 Z M 5162,17336 L 5169,17337 5177,17337 5185,17338 5195,17338 5264,17336 5306,17335 5320,17334 5330,17334 5339,17333 5347,17332 5350,17331 5352,17331 5355,17330 5356,17330 5379,17359 5364,17368 5358,17372 5353,17376 5327,17397 5285,17432 5253,17458 5259,17456 5265,17455 5271,17453 5277,17453 5283,17452 5289,17451 5296,17451 5302,17451 5310,17451 5319,17452 5326,17453 5334,17454 5342,17456 5349,17458 5356,17461 5363,17464 5369,17467 5376,17470 5381,17474 5387,17479 5392,17483 5397,17488 5401,17493 5405,17499 5409,17504 5412,17510 5414,17516 5417,17523 5418,17529 5420,17536 5420,17542 5421,17549 5420,17555 5420,17561 5419,17567 5418,17573 5417,17578 5415,17583 5413,17589 5411,17594 5408,17599 5406,17604 5403,17608 5399,17613 5396,17617 5392,17621 5388,17625 5383,17629 5379,17633 5374,17636 5369,17639 5363,17642 5357,17645 5351,17647 5345,17650 5338,17652 5331,17654 5324,17656 5317,17657 5309,17658 5302,17659 5294,17660 5286,17660 5277,17660 5267,17660 5257,17659 5248,17658 5239,17656 5231,17654 5224,17651 5216,17647 5210,17643 5204,17639 5201,17636 5198,17634 5196,17632 5194,17629 5192,17626 5190,17624 5189,17621 5188,17618 5187,17615 5186,17612 5185,17609 5184,17605 5184,17602 5184,17599 5184,17596 5184,17593 5185,17590 5185,17588 5186,17585 5187,17582 5188,17580 5189,17577 5190,17574 5192,17572 5193,17569 5195,17567 5197,17565 5198,17563 5200,17561 5202,17559 5205,17557 5207,17555 5210,17553 5212,17551 5215,17550 5218,17548 5221,17547 5224,17546 5227,17545 5230,17544 5234,17543 5237,17542 5240,17542 5244,17542 5248,17541 5251,17541 5256,17541 5260,17542 5264,17542 5269,17543 5273,17543 5277,17544 5281,17546 5285,17547 5288,17548 5292,17550 5295,17552 5299,17554 5302,17556 5305,17558 5308,17560 5310,17562 5313,17565 5315,17567 5318,17570 5320,17573 5322,17576 5324,17579 5325,17582 5327,17585 5329,17588 5330,17591 5331,17595 5332,17598 5333,17602 5334,17605 5335,17609 5336,17612 5341,17610 5346,17607 5350,17605 5354,17601 5358,17598 5362,17595 5365,17591 5368,17587 5370,17583 5372,17579 5374,17574 5376,17569 5377,17564 5378,17559 5378,17554 5379,17549 5378,17544 5378,17539 5377,17535 5376,17531 5374,17526 5372,17522 5370,17518 5367,17515 5364,17511 5361,17508 5357,17504 5354,17501 5350,17498 5345,17496 5341,17493 5336,17491 5330,17489 5325,17487 5320,17486 5314,17485 5308,17484 5303,17483 5297,17483 5290,17483 5281,17483 5272,17484 5263,17485 5254,17486 5246,17489 5238,17491 5230,17494 5223,17497 5216,17500 5209,17504 5202,17509 5194,17514 5187,17519 5180,17525 5174,17530 5167,17536 5139,17564 5110,17534 5168,17486 5216,17446 5306,17370 5193,17376 5185,17376 5178,17377 5170,17377 5163,17378 5162,17336 Z"/>
    </g>
   </g>
  </g>
  <g class="com.sun.star.drawing.LineShape">
   <g id="id39">
    <rect class="BoundingBox" stroke="none" fill="none" x="3874" y="11981" width="253" height="519"/>
    <path fill="none" stroke="rgb(51,51,51)" stroke-width="35" stroke-linejoin="round" d="M 4000,11999 L 4000,12352"/>
    <path fill="rgb(51,51,51)" stroke="none" d="M 4126,12335 L 4000,12499 3874,12335 4126,12335 Z"/>
   </g>
  </g>
  <g class="com.sun.star.drawing.LineShape">
   <g id="id40">
    <rect class="BoundingBox" stroke="none" fill="none" x="3874" y="13481" width="253" height="519"/>
    <path fill="none" stroke="rgb(51,51,51)" stroke-width="35" stroke-linejoin="round" d="M 4000,13499 L 4000,13852"/>
    <path fill="rgb(51,51,51)" stroke="none" d="M 4126,13835 L 4000,13999 3874,13835 4126,13835 Z"/>
   </g>
  </g>
  <g class="com.sun.star.drawing.LineShape">
   <g id="id41">
    <rect class="BoundingBox" stroke="none" fill="none" x="3874" y="15982" width="253" height="1019"/>
    <path fill="none" stroke="rgb(51,51,51)" stroke-width="35" stroke-linejoin="round" d="M 4000,16000 L 4000,16853"/>
    <path fill="rgb(51,51,51)" stroke="none" d="M 4126,16836 L 4000,17000 3874,16836 4126,16836 Z"/>
   </g>
  </g>
  <g class="Group">
   <g class="com.sun.star.drawing.PolyPolygonShape">
    <g id="id42">
     <rect class="BoundingBox" stroke="none" fill="none" x="2482" y="18482" width="3038" height="1038"/>
     <path fill="rgb(255,255,255)" stroke="none" d="M 3000,18500 L 3001,18500 2968,18501 2935,18504 2903,18510 2871,18517 2840,18527 2809,18538 2779,18552 2750,18567 2722,18584 2696,18604 2670,18624 2647,18647 2624,18670 2604,18696 2584,18722 2567,18750 2552,18779 2538,18809 2527,18840 2517,18871 2510,18903 2504,18935 2501,18968 2500,19001 2500,19000 2500,19001 2501,19033 2504,19066 2510,19098 2517,19130 2527,19161 2538,19192 2552,19222 2567,19251 2584,19279 2604,19305 2624,19331 2647,19354 2670,19377 2696,19397 2722,19417 2750,19434 2779,19449 2809,19463 2840,19474 2871,19484 2903,19491 2935,19497 2968,19500 3001,19501 5000,19501 5001,19501 5033,19500 5066,19497 5098,19491 5130,19484 5161,19474 5192,19463 5222,19449 5251,19434 5279,19417 5305,19397 5331,19377 5354,19354 5377,19331 5397,19305 5417,19279 5434,19251 5449,19222 5463,19192 5474,19161 5484,19130 5491,19098 5497,19066 5500,19033 5501,19001 5501,19000 5501,19001 5501,19001 5500,18968 5497,18935 5491,18903 5484,18871 5474,18840 5463,18809 5449,18779 5434,18750 5417,18722 5397,18696 5377,18670 5354,18647 5331,18624 5305,18604 5279,18584 5251,18567 5222,18552 5192,18538 5161,18527 5130,18517 5098,18510 5066,18504 5033,18501 5001,18500 3000,18500 Z"/>
     <path fill="none" stroke="rgb(51,51,51)" stroke-width="35" stroke-linejoin="round" d="M 3000,18500 L 3001,18500 2968,18501 2935,18504 2903,18510 2871,18517 2840,18527 2809,18538 2779,18552 2750,18567 2722,18584 2696,18604 2670,18624 2647,18647 2624,18670 2604,18696 2584,18722 2567,18750 2552,18779 2538,18809 2527,18840 2517,18871 2510,18903 2504,18935 2501,18968 2500,19001 2500,19000 2500,19001 2501,19033 2504,19066 2510,19098 2517,19130 2527,19161 2538,19192 2552,19222 2567,19251 2584,19279 2604,19305 2624,19331 2647,19354 2670,19377 2696,19397 2722,19417 2750,19434 2779,19449 2809,19463 2840,19474 2871,19484 2903,19491 2935,19497 2968,19500 3001,19501 5000,19501 5001,19501 5033,19500 5066,19497 5098,19491 5130,19484 5161,19474 5192,19463 5222,19449 5251,19434 5279,19417 5305,19397 5331,19377 5354,19354 5377,19331 5397,19305 5417,19279 5434,19251 5449,19222 5463,19192 5474,19161 5484,19130 5491,19098 5497,19066 5500,19033 5501,19001 5501,19000 5501,19001 5501,19001 5500,18968 5497,18935 5491,18903 5484,18871 5474,18840 5463,18809 5449,18779 5434,18750 5417,18722 5397,18696 5377,18670 5354,18647 5331,18624 5305,18604 5279,18584 5251,18567 5222,18552 5192,18538 5161,18527 5130,18517 5098,18510 5066,18504 5033,18501 5001,18500 3000,18500 Z"/>
    </g>
   </g>
   <g class="com.sun.star.drawing.PolyPolygonShape">
    <g id="id43">
     <rect class="BoundingBox" stroke="none" fill="none" x="3603" y="18798" width="387" height="378"/>
     <path fill="rgb(51,51,51)" stroke="none" d="M 3628,19031 L 3660,19037 3655,19068 3652,19083 3649,19096 3645,19108 3641,19120 3637,19131 3633,19140 3632,19140 3630,19139 3627,19137 3624,19135 3619,19133 3615,19131 3611,19129 3607,19127 3604,19126 3608,19117 3612,19107 3615,19097 3618,19085 3621,19073 3624,19060 3628,19031 Z M 3713,19037 L 3740,19028 3749,19048 3756,19067 3762,19085 3764,19093 3766,19101 3737,19111 3735,19103 3733,19095 3730,19085 3727,19075 3724,19065 3720,19055 3717,19046 3713,19037 Z M 3777,19110 L 3799,19083 3818,19089 3839,19096 3859,19103 3881,19111 3902,19120 3921,19129 3938,19137 3954,19145 3931,19174 3917,19166 3901,19157 3882,19149 3861,19140 3840,19131 3818,19123 3798,19116 3777,19110 Z M 3821,19036 L 3843,19012 3854,19017 3865,19022 3876,19027 3887,19033 3898,19039 3908,19045 3917,19051 3925,19056 3903,19083 3895,19077 3887,19071 3877,19064 3865,19058 3854,19051 3842,19045 3831,19040 3821,19036 Z M 3828,18872 L 3827,18873 3831,18880 3836,18887 3840,18894 3845,18901 3856,18915 3868,18928 3881,18914 3887,18907 3892,18900 3897,18893 3902,18886 3907,18879 3911,18872 3828,18872 Z M 3937,18838 L 3960,18851 3954,18865 3947,18878 3940,18891 3932,18904 3924,18916 3914,18928 3904,18940 3894,18952 3905,18960 3916,18969 3928,18976 3939,18984 3951,18990 3963,18996 3976,19002 3989,19006 3985,19009 3982,19013 3979,19016 3975,19021 3972,19025 3969,19029 3966,19033 3964,19037 3951,19031 3939,19025 3926,19018 3914,19011 3902,19003 3891,18994 3879,18985 3868,18975 3858,18984 3847,18992 3836,19000 3825,19007 3813,19014 3801,19021 3788,19027 3775,19033 3774,19031 3773,19029 3770,19025 3766,19020 3762,19013 3738,19024 3737,19020 3735,19015 3734,19009 3732,19004 3705,19005 3705,19172 3672,19172 3672,19007 3610,19011 3607,18978 3636,18977 3659,18945 3654,18938 3649,18931 3643,18924 3636,18916 3629,18909 3622,18901 3615,18894 3608,18888 3627,18863 3629,18865 3631,18867 3638,18872 3648,18853 3657,18834 3665,18816 3671,18799 3704,18812 3678,18860 3668,18878 3658,18893 3669,18905 3674,18910 3678,18915 3689,18896 3699,18878 3708,18862 3716,18845 3748,18860 3726,18893 3706,18924 3687,18951 3669,18975 3720,18973 3711,18954 3707,18946 3703,18940 3729,18929 3740,18948 3749,18965 3753,18974 3756,18982 3759,18991 3762,18999 3773,18994 3783,18989 3794,18984 3804,18978 3814,18972 3824,18965 3834,18958 3843,18950 3833,18938 3823,18925 3814,18913 3806,18900 3797,18910 3787,18920 3777,18930 3766,18939 3765,18938 3764,18936 3761,18933 3758,18930 3755,18926 3751,18923 3747,18920 3744,18917 3742,18916 3741,18915 3748,18909 3755,18903 3762,18896 3769,18889 3776,18883 3782,18875 3788,18868 3793,18860 3804,18845 3813,18830 3817,18822 3821,18814 3825,18807 3828,18799 3865,18805 3861,18814 3857,18823 3852,18831 3848,18839 3930,18839 3937,18838 Z"/>
    </g>
   </g>
   <g class="com.sun.star.drawing.PolyPolygonShape">
    <g id="id44">
     <rect class="BoundingBox" stroke="none" fill="none" x="4050" y="18827" width="323" height="347"/>
     <path fill="rgb(51,51,51)" stroke="none" d="M 4341,18827 L 4371,18849 4357,18865 4341,18882 4324,18898 4306,18915 4287,18931 4268,18945 4250,18958 4232,18969 4232,19126 4232,19130 4232,19134 4231,19138 4231,19141 4230,19144 4229,19147 4228,19150 4227,19152 4226,19154 4225,19155 4225,19156 4224,19157 4222,19159 4220,19160 4217,19162 4215,19163 4212,19165 4209,19166 4206,19167 4202,19168 4199,19169 4195,19169 4187,19170 4178,19171 4124,19172 4123,19168 4121,19163 4120,19158 4118,19153 4115,19148 4113,19143 4111,19138 4108,19134 4151,19135 4167,19135 4181,19134 4182,19134 4184,19134 4185,19134 4186,19134 4187,19134 4188,19133 4189,19133 4189,19133 4189,19133 4190,19133 4190,19132 4190,19132 4191,19132 4191,19131 4191,19131 4191,19131 4192,19130 4192,19130 4192,19129 4192,19129 4192,19128 4192,19127 4192,19126 4192,18936 4216,18936 4227,18929 4238,18921 4248,18913 4259,18904 4270,18895 4280,18885 4290,18876 4299,18867 4050,18867 4050,18829 4332,18829 4341,18827 Z"/>
    </g>
   </g>
  </g>
  <g class="com.sun.star.drawing.LineShape">
   <g id="id45">
    <rect class="BoundingBox" stroke="none" fill="none" x="3874" y="17982" width="253" height="519"/>
    <path fill="none" stroke="rgb(51,51,51)" stroke-width="35" stroke-linejoin="round" d="M 4000,18000 L 4000,18353"/>
    <path fill="rgb(51,51,51)" stroke="none" d="M 4126,18336 L 4000,18500 3874,18336 4126,18336 Z"/>
   </g>
  </g>
  <g class="Group">
   <g class="com.sun.star.drawing.PolyPolygonShape">
    <g id="id46">
     <rect class="BoundingBox" stroke="none" fill="none" x="4154" y="16070" width="249" height="303"/>
     <path fill="rgb(51,51,51)" stroke="none" d="M 4278,16221 L 4356,16070 4401,16070 4297,16259 4297,16371 4258,16371 4258,16259 4154,16070 4200,16070 4278,16221 Z"/>
    </g>
   </g>
   <g class="com.sun.star.drawing.PolyPolygonShape">
    <g id="id47">
     <rect class="BoundingBox" stroke="none" fill="none" x="4424" y="16143" width="191" height="233"/>
     <path fill="rgb(51,51,51)" stroke="none" d="M 4527,16375 L 4516,16375 4505,16373 4495,16371 4490,16369 4485,16368 4481,16366 4476,16363 4472,16361 4468,16358 4464,16355 4460,16352 4456,16349 4453,16345 4449,16341 4446,16337 4443,16333 4440,16329 4438,16324 4435,16320 4433,16315 4431,16310 4428,16300 4426,16289 4425,16277 4424,16265 4424,16258 4424,16250 4425,16242 4426,16234 4427,16227 4429,16219 4431,16212 4434,16205 4437,16199 4440,16192 4444,16186 4448,16181 4452,16175 4457,16170 4462,16166 4467,16162 4472,16158 4478,16154 4484,16151 4490,16149 4496,16147 4502,16145 4509,16144 4515,16143 4522,16143 4532,16143 4542,16145 4547,16146 4552,16147 4556,16149 4561,16150 4565,16152 4569,16154 4573,16157 4576,16159 4580,16162 4583,16165 4587,16168 4590,16172 4593,16176 4595,16180 4598,16184 4600,16188 4604,16197 4608,16207 4610,16218 4612,16230 4613,16242 4614,16255 4614,16271 4462,16271 4463,16279 4464,16286 4465,16293 4468,16300 4470,16306 4474,16312 4477,16318 4482,16323 4486,16328 4489,16330 4492,16332 4494,16334 4497,16335 4500,16337 4503,16338 4506,16339 4509,16340 4512,16341 4515,16342 4522,16343 4529,16343 4534,16343 4538,16342 4543,16342 4547,16341 4552,16340 4556,16338 4559,16337 4563,16335 4566,16333 4570,16331 4573,16328 4576,16326 4579,16323 4582,16320 4585,16317 4588,16314 4611,16332 4607,16337 4603,16342 4599,16346 4595,16351 4591,16355 4586,16358 4581,16361 4576,16364 4570,16367 4565,16369 4559,16371 4553,16372 4547,16373 4540,16374 4534,16375 4527,16375 Z M 4522,16175 L 4516,16175 4513,16176 4511,16176 4508,16177 4506,16177 4503,16178 4501,16179 4498,16180 4496,16182 4494,16183 4491,16184 4489,16186 4487,16188 4483,16192 4479,16196 4476,16201 4473,16206 4470,16212 4468,16218 4466,16225 4465,16232 4464,16239 4576,16239 4576,16236 4575,16229 4574,16222 4573,16216 4571,16210 4569,16205 4566,16200 4563,16195 4562,16193 4560,16191 4558,16189 4556,16187 4554,16186 4552,16184 4550,16183 4548,16181 4546,16180 4543,16179 4541,16178 4538,16177 4536,16177 4533,16176 4528,16175 4522,16175 Z"/>
    </g>
   </g>
   <g class="com.sun.star.drawing.PolyPolygonShape">
    <g id="id48">
     <rect class="BoundingBox" stroke="none" fill="none" x="4648" y="16143" width="180" height="233"/>
     <path fill="rgb(51,51,51)" stroke="none" d="M 4788,16311 L 4788,16307 4788,16306 4787,16304 4787,16302 4786,16301 4786,16299 4785,16297 4784,16296 4783,16295 4782,16293 4781,16292 4780,16291 4779,16289 4778,16288 4776,16287 4773,16285 4769,16283 4765,16281 4760,16279 4755,16278 4749,16276 4736,16273 4722,16269 4710,16266 4704,16264 4699,16262 4694,16260 4690,16258 4685,16256 4682,16253 4678,16251 4675,16248 4672,16246 4669,16243 4667,16240 4664,16237 4662,16234 4661,16231 4659,16227 4658,16224 4657,16220 4657,16217 4656,16213 4656,16209 4656,16205 4657,16202 4657,16199 4658,16195 4658,16192 4659,16189 4661,16186 4662,16183 4664,16180 4665,16177 4667,16175 4669,16172 4672,16169 4674,16167 4679,16162 4685,16158 4692,16154 4699,16150 4706,16148 4714,16146 4722,16144 4730,16143 4739,16143 4748,16143 4757,16144 4765,16146 4773,16148 4781,16151 4788,16154 4794,16158 4800,16163 4806,16168 4809,16170 4811,16173 4813,16176 4815,16179 4817,16182 4818,16185 4820,16188 4821,16191 4822,16195 4823,16198 4823,16202 4824,16205 4824,16209 4824,16213 4786,16213 4786,16211 4786,16209 4785,16207 4785,16205 4784,16204 4784,16202 4783,16200 4782,16198 4782,16197 4781,16195 4779,16194 4778,16192 4776,16189 4772,16186 4769,16184 4765,16181 4761,16179 4757,16178 4753,16177 4749,16176 4744,16175 4739,16175 4734,16175 4729,16176 4724,16176 4720,16177 4716,16178 4713,16180 4709,16182 4708,16183 4706,16184 4705,16185 4703,16186 4702,16187 4701,16189 4700,16190 4699,16191 4698,16193 4697,16194 4697,16196 4696,16197 4696,16199 4695,16200 4695,16202 4695,16204 4694,16205 4694,16207 4694,16209 4695,16210 4695,16212 4695,16213 4695,16215 4696,16216 4697,16218 4697,16219 4698,16220 4699,16221 4700,16223 4701,16224 4702,16225 4703,16226 4704,16227 4705,16228 4708,16229 4712,16231 4716,16233 4721,16234 4732,16238 4745,16241 4759,16244 4771,16248 4776,16250 4782,16252 4787,16254 4791,16256 4796,16259 4800,16261 4803,16263 4807,16266 4810,16269 4813,16272 4815,16275 4818,16278 4820,16281 4821,16284 4823,16288 4824,16292 4825,16296 4826,16300 4826,16304 4826,16308 4826,16312 4826,16316 4825,16319 4825,16323 4824,16326 4823,16329 4822,16333 4820,16336 4819,16339 4817,16341 4815,16344 4813,16347 4810,16350 4808,16352 4805,16354 4802,16357 4796,16361 4789,16365 4782,16368 4775,16370 4767,16372 4758,16374 4749,16375 4740,16375 4733,16375 4727,16374 4721,16374 4715,16373 4709,16371 4703,16370 4698,16368 4693,16365 4688,16363 4683,16360 4678,16357 4674,16354 4670,16351 4667,16347 4663,16343 4660,16339 4658,16335 4655,16330 4653,16326 4651,16321 4650,16317 4649,16312 4649,16307 4649,16302 4687,16302 4687,16307 4688,16309 4688,16311 4689,16313 4689,16315 4690,16317 4691,16319 4692,16321 4693,16323 4694,16324 4696,16326 4697,16328 4699,16329 4700,16331 4702,16332 4706,16335 4710,16337 4714,16339 4719,16340 4724,16341 4729,16342 4734,16343 4740,16343 4745,16343 4750,16342 4755,16342 4760,16341 4764,16340 4768,16338 4771,16336 4775,16334 4776,16333 4778,16332 4779,16331 4781,16330 4782,16328 4783,16327 4784,16326 4785,16324 4785,16323 4786,16321 4787,16320 4787,16318 4788,16316 4788,16315 4788,16313 4788,16311 Z"/>
    </g>
   </g>
  </g>
  <g class="Group">
   <g class="com.sun.star.drawing.PolyPolygonShape">
    <g id="id49">
     <rect class="BoundingBox" stroke="none" fill="none" x="6864" y="14570" width="233" height="302"/>
     <path fill="rgb(51,51,51)" stroke="none" d="M 7095,14871 L 7056,14871 6904,14639 6904,14871 6864,14871 6864,14570 6904,14570 7056,14803 7056,14570 7095,14570 7095,14871 Z"/>
    </g>
   </g>
   <g class="com.sun.star.drawing.PolyPolygonShape">
    <g id="id50">
     <rect class="BoundingBox" stroke="none" fill="none" x="7148" y="14643" width="206" height="233"/>
     <path fill="rgb(51,51,51)" stroke="none" d="M 7149,14757 L 7149,14749 7149,14741 7150,14733 7152,14726 7154,14718 7156,14711 7159,14704 7162,14698 7165,14691 7169,14685 7173,14680 7177,14675 7182,14670 7187,14665 7192,14661 7198,14657 7203,14654 7209,14651 7216,14649 7222,14647 7229,14645 7236,14644 7243,14643 7250,14643 7261,14643 7272,14645 7277,14646 7282,14647 7287,14649 7291,14651 7296,14653 7300,14655 7305,14658 7309,14661 7313,14664 7317,14667 7320,14671 7324,14675 7327,14679 7331,14683 7334,14687 7336,14692 7339,14696 7341,14701 7345,14711 7348,14722 7350,14734 7352,14746 7352,14759 7352,14761 7352,14770 7351,14777 7350,14785 7349,14792 7347,14800 7345,14807 7343,14814 7340,14820 7336,14826 7333,14832 7329,14838 7324,14843 7320,14848 7315,14853 7310,14857 7304,14861 7298,14864 7292,14867 7285,14869 7279,14871 7272,14873 7265,14874 7258,14875 7251,14875 7239,14875 7229,14873 7224,14872 7219,14871 7214,14869 7209,14867 7205,14865 7200,14863 7196,14860 7192,14857 7188,14854 7184,14851 7180,14847 7177,14843 7173,14839 7170,14835 7167,14831 7165,14826 7162,14822 7160,14817 7156,14807 7153,14796 7150,14784 7149,14772 7149,14760 7149,14757 Z M 7187,14761 L 7187,14770 7188,14779 7190,14787 7191,14795 7194,14802 7197,14809 7200,14815 7204,14821 7207,14823 7209,14826 7211,14828 7214,14830 7216,14832 7219,14834 7222,14836 7224,14837 7227,14839 7230,14840 7234,14841 7237,14842 7240,14842 7243,14843 7247,14843 7251,14843 7254,14843 7258,14843 7261,14842 7264,14842 7268,14841 7271,14840 7274,14839 7277,14837 7279,14836 7282,14834 7285,14832 7287,14830 7290,14828 7292,14826 7295,14823 7297,14820 7299,14817 7301,14814 7304,14808 7307,14801 7310,14793 7311,14785 7313,14776 7314,14767 7314,14757 7314,14748 7313,14739 7311,14731 7310,14724 7307,14717 7304,14710 7301,14704 7296,14698 7294,14695 7292,14692 7290,14690 7287,14688 7284,14686 7282,14684 7279,14682 7276,14681 7273,14679 7270,14678 7267,14677 7264,14676 7261,14676 7257,14675 7254,14675 7250,14675 7247,14675 7243,14675 7240,14676 7237,14676 7233,14677 7230,14678 7227,14679 7225,14681 7222,14682 7219,14684 7216,14686 7214,14688 7211,14690 7209,14692 7207,14695 7204,14697 7202,14700 7200,14703 7199,14706 7197,14710 7194,14717 7191,14725 7190,14733 7188,14742 7187,14751 7187,14761 Z"/>
    </g>
   </g>
  </g>
  <g class="com.sun.star.drawing.PolyLineShape">
   <g id="id51">
    <rect class="BoundingBox" stroke="none" fill="none" x="6682" y="14982" width="2445" height="319"/>
    <path fill="none" stroke="rgb(51,51,51)" stroke-width="35" stroke-linejoin="round" d="M 6700,15000 L 9000,15000 9000,15001 9000,15153"/>
    <path fill="rgb(51,51,51)" stroke="none" d="M 9126,15136 L 9000,15300 8874,15136 9126,15136 Z"/>
   </g>
  </g>
  <g class="com.sun.star.drawing.PolyLineShape">
   <g id="id52">
    <rect class="BoundingBox" stroke="none" fill="none" x="4000" y="16282" width="5019" height="445"/>
    <path fill="none" stroke="rgb(51,51,51)" stroke-width="35" stroke-linejoin="round" d="M 9000,16300 L 9000,16600 8986,16600 4147,16600"/>
    <path fill="rgb(51,51,51)" stroke="none" d="M 4164,16726 L 4000,16600 4164,16474 4164,16726 Z"/>
   </g>
  </g>
 </g>
</svg>