<?xml version="1.0" encoding="UTF-8"?>
<!DOCTYPE svg PUBLIC "-//W3C//DTD SVG 1.1//EN" "http://www.w3.org/Graphics/SVG/1.1/DTD/svg11.dtd">
<svg version="1.2" width="320" height="291" viewBox="2282 11981 9437 8539" preserveAspectRatio="xMidYMid"
    fill-rule="evenodd" stroke-width="28.222" stroke-linejoin="round" xmlns="http://www.w3.org/2000/svg"
    xmlns:ooo="http://xml.openoffice.org/svg/export" xmlns:xlink="http://www.w3.org/1999/xlink"
    xmlns:presentation="http://sun.com/xmlns/staroffice/presentation" xmlns:smil="http://www.w3.org/2001/SMIL20/"
    xmlns:anim="urn:oasis:names:tc:opendocument:xmlns:animation:1.0" xml:space="preserve">
    <defs class="EmbeddedBulletChars">
        <g id="bullet-char-template-57356" transform="scale(0.00048828125,-0.00048828125)">
            <path d="M 580,1141 L 1163,571 580,0 -4,571 580,1141 Z" />
        </g>
        <g id="bullet-char-template-57354" transform="scale(0.00048828125,-0.00048828125)">
            <path d="M 8,1128 L 1137,1128 1137,0 8,0 8,1128 Z" />
        </g>
        <g id="bullet-char-template-10146" transform="scale(0.00048828125,-0.00048828125)">
            <path d="M 174,0 L 602,739 174,1481 1456,739 174,0 Z M 1358,739 L 309,1346 659,739 1358,739 Z" />
        </g>
        <g id="bullet-char-template-10132" transform="scale(0.00048828125,-0.00048828125)">
            <path d="M 2015,739 L 1276,0 717,0 1260,543 174,543 174,936 1260,936 717,1481 1274,1481 2015,739 Z" />
        </g>
        <g id="bullet-char-template-10007" transform="scale(0.00048828125,-0.00048828125)">
            <path
                d="M 0,-2 C -7,14 -16,27 -25,37 L 356,567 C 262,823 215,952 215,954 215,979 228,992 255,992 264,992 276,990 289,987 310,991 331,999 354,1012 L 381,999 492,748 772,1049 836,1024 860,1049 C 881,1039 901,1025 922,1006 886,937 835,863 770,784 769,783 710,716 594,584 L 774,223 C 774,196 753,168 711,139 L 727,119 C 717,90 699,76 672,76 641,76 570,178 457,381 L 164,-76 C 142,-110 111,-127 72,-127 30,-127 9,-110 8,-76 1,-67 -2,-52 -2,-32 -2,-23 -1,-13 0,-2 Z" />
        </g>
        <g id="bullet-char-template-10004" transform="scale(0.00048828125,-0.00048828125)">
            <path
                d="M 285,-33 C 182,-33 111,30 74,156 52,228 41,333 41,471 41,549 55,616 82,672 116,743 169,778 240,778 293,778 328,747 346,684 L 369,508 C 377,444 397,411 428,410 L 1163,1116 C 1174,1127 1196,1133 1229,1133 1271,1133 1292,1118 1292,1087 L 1292,965 C 1292,929 1282,901 1262,881 L 442,47 C 390,-6 338,-33 285,-33 Z" />
        </g>
        <g id="bullet-char-template-9679" transform="scale(0.00048828125,-0.00048828125)">
            <path
                d="M 813,0 C 632,0 489,54 383,161 276,268 223,411 223,592 223,773 276,916 383,1023 489,1130 632,1184 813,1184 992,1184 1136,1130 1245,1023 1353,916 1407,772 1407,592 1407,412 1353,268 1245,161 1136,54 992,0 813,0 Z" />
        </g>
        <g id="bullet-char-template-8226" transform="scale(0.00048828125,-0.00048828125)">
            <path
                d="M 346,457 C 273,457 209,483 155,535 101,586 74,649 74,723 74,796 101,859 155,911 209,963 273,989 346,989 419,989 480,963 531,910 582,859 608,796 608,723 608,648 583,586 532,535 482,483 420,457 346,457 Z" />
        </g>
        <g id="bullet-char-template-8211" transform="scale(0.00048828125,-0.00048828125)">
            <path d="M -4,459 L 1135,459 1135,606 -4,606 -4,459 Z" />
        </g>
        <g id="bullet-char-template-61548" transform="scale(0.00048828125,-0.00048828125)">
            <path
                d="M 173,740 C 173,903 231,1043 346,1159 462,1274 601,1332 765,1332 928,1332 1067,1274 1183,1159 1299,1043 1357,903 1357,740 1357,577 1299,437 1183,322 1067,206 928,148 765,148 601,148 462,206 346,322 231,437 173,577 173,740 Z" />
        </g>
    </defs>
    <g class="Page">
        <g class="Group">
            <g class="com.sun.star.drawing.ClosedBezierShape">
                <g id="id3">
                    <rect class="BoundingBox" stroke="none" fill="none" x="3482" y="11981" width="3038" height="1037" />
                    <path fill="rgb(255,255,255)" stroke="none"
                        d="M 4000,11999 L 4000,11999 C 3912,11999 3826,12022 3750,12066 3674,12110 3611,12173 3567,12249 3523,12325 3500,12411 3500,12499 L 3500,12499 3500,12499 C 3500,12587 3523,12673 3567,12749 3611,12825 3674,12888 3750,12932 3826,12976 3912,12999 4000,12999 4667,12999 5334,12999 6001,12999 L 6001,12999 C 6089,12999 6175,12976 6251,12932 6327,12888 6390,12825 6434,12749 6478,12673 6501,12587 6501,12499 L 6501,12499 6501,12499 6501,12499 C 6501,12411 6478,12325 6434,12249 6390,12173 6327,12110 6251,12066 6175,12022 6089,11999 6001,11999 5334,11999 4667,11999 4000,11999 Z" />
                    <path fill="none" stroke="rgb(51,51,51)" stroke-width="35" stroke-linejoin="round"
                        d="M 4000,11999 L 4000,11999 C 3912,11999 3826,12022 3750,12066 3674,12110 3611,12173 3567,12249 3523,12325 3500,12411 3500,12499 L 3500,12499 3500,12499 C 3500,12587 3523,12673 3567,12749 3611,12825 3674,12888 3750,12932 3826,12976 3912,12999 4000,12999 L 6001,12999 6001,12999 C 6089,12999 6175,12976 6251,12932 6327,12888 6390,12825 6434,12749 6478,12673 6501,12587 6501,12499 L 6501,12499 6501,12499 6501,12499 C 6501,12411 6478,12325 6434,12249 6390,12173 6327,12110 6251,12066 6175,12022 6089,11999 6001,11999 L 4000,11999 Z" />
                </g>
            </g>
            <g class="com.sun.star.drawing.ClosedBezierShape">
                <g id="id4">
                    <rect class="BoundingBox" stroke="none" fill="none" x="4615" y="12346" width="349" height="371" />
                    <path fill="rgb(51,51,51)" stroke="none"
                        d="M 4739,12371 L 4739,12406 4647,12406 4647,12371 4739,12371 Z M 4647,12464 L 4647,12428 4739,12428 4739,12464 4647,12464 Z M 4769,12488 L 4769,12347 4616,12347 4616,12715 4647,12715 4647,12488 4769,12488 Z M 4757,12586 L 4757,12541 4816,12541 4816,12586 4757,12586 Z M 4901,12613 L 4901,12586 4844,12586 4844,12541 4892,12541 4892,12515 4684,12515 4684,12541 4730,12541 4730,12586 4676,12586 4676,12613 4729,12613 C 4728,12625 4723,12639 4716,12654 4708,12669 4696,12682 4679,12693 4682,12696 4686,12699 4690,12702 4694,12706 4697,12709 4699,12712 4719,12698 4733,12681 4742,12663 4750,12644 4755,12627 4756,12613 L 4816,12613 4816,12707 4844,12707 4844,12613 4901,12613 Z M 4836,12465 L 4836,12428 4932,12428 4932,12465 4836,12465 Z M 4932,12371 L 4932,12406 4836,12406 4836,12371 4932,12371 Z M 4963,12347 L 4806,12347 4806,12489 4932,12489 4932,12673 C 4932,12677 4931,12679 4930,12680 4928,12682 4926,12683 4923,12683 4919,12683 4912,12683 4903,12683 4893,12683 4882,12682 4870,12682 4873,12687 4875,12692 4877,12698 4879,12704 4880,12709 4880,12714 4896,12714 4909,12714 4920,12713 4931,12712 4940,12710 4946,12708 4952,12705 4956,12701 4959,12696 4961,12690 4963,12683 4963,12674 L 4963,12347 Z" />
                </g>
            </g>
            <g class="com.sun.star.drawing.ClosedBezierShape">
                <g id="id5">
                    <rect class="BoundingBox" stroke="none" fill="none" x="5019" y="12328" width="392" height="389" />
                    <path fill="rgb(51,51,51)" stroke="none"
                        d="M 5181,12505 C 5207,12503 5236,12501 5269,12499 5302,12497 5335,12494 5370,12492 5375,12503 5380,12512 5383,12521 L 5410,12506 C 5404,12490 5395,12472 5382,12452 5369,12431 5356,12412 5342,12394 L 5317,12406 C 5324,12415 5330,12424 5337,12434 5343,12444 5350,12454 5355,12465 5336,12466 5316,12467 5297,12468 5278,12469 5259,12471 5242,12472 5251,12451 5260,12429 5269,12405 5278,12381 5286,12358 5294,12336 L 5260,12328 C 5254,12351 5247,12375 5238,12401 5229,12428 5220,12451 5211,12473 L 5178,12474 5181,12505 Z M 5143,12445 C 5138,12500 5127,12546 5111,12584 5103,12578 5095,12573 5087,12568 5078,12562 5070,12557 5062,12553 5066,12536 5070,12518 5075,12500 5080,12482 5084,12463 5088,12445 L 5143,12445 Z M 5157,12415 L 5151,12416 5095,12416 C 5098,12401 5101,12386 5105,12372 5108,12358 5110,12345 5113,12332 L 5083,12328 C 5080,12342 5078,12355 5075,12370 5072,12385 5069,12400 5065,12416 L 5019,12416 5019,12445 5059,12445 C 5053,12471 5047,12497 5040,12521 5034,12545 5029,12567 5023,12585 L 5050,12599 5055,12581 C 5062,12586 5069,12590 5077,12595 5084,12601 5091,12606 5098,12611 5078,12648 5053,12674 5022,12690 5025,12693 5029,12697 5032,12702 5036,12707 5039,12711 5041,12715 5058,12705 5073,12694 5086,12680 5100,12665 5112,12649 5123,12630 5132,12638 5140,12645 5147,12652 5155,12660 5161,12666 5166,12673 L 5185,12648 C 5180,12641 5173,12634 5164,12626 5156,12618 5146,12610 5136,12603 5147,12579 5155,12552 5162,12522 5168,12491 5173,12457 5176,12418 L 5157,12415 Z M 5355,12574 L 5355,12668 5237,12668 5237,12574 5355,12574 Z M 5207,12715 L 5237,12715 5237,12696 5355,12696 5355,12713 5386,12713 5386,12544 5207,12544 5207,12715 Z" />
                </g>
            </g>
        </g>
        <g class="Group">
            <g class="com.sun.star.drawing.ClosedBezierShape">
                <g id="id6">
                    <rect class="BoundingBox" stroke="none" fill="none" x="2982" y="13481" width="4037" height="1037" />
                    <path fill="rgb(255,255,255)" stroke="none"
                        d="M 3000,14499 C 3000,14166 3000,13832 3000,13499 4333,13499 5667,13499 7000,13499 7000,13832 7000,14166 7000,14499 5667,14499 4333,14499 3000,14499 Z" />
                    <path fill="none" stroke="rgb(51,51,51)" stroke-width="35" stroke-linejoin="round"
                        d="M 3000,14499 L 3000,13499 7000,13499 7000,14499 3000,14499 Z" />
                </g>
            </g>
            <g class="com.sun.star.drawing.ClosedBezierShape">
                <g id="id7">
                    <rect class="BoundingBox" stroke="none" fill="none" x="4192" y="13849" width="349" height="367" />
                    <path fill="rgb(51,51,51)" stroke="none"
                        d="M 4387,13975 C 4385,13964 4381,13951 4375,13937 4369,13923 4362,13909 4355,13896 L 4330,13905 C 4337,13918 4344,13931 4349,13946 4355,13960 4358,13973 4360,13984 L 4387,13975 Z M 4313,13982 C 4310,13971 4305,13960 4297,13946 4290,13933 4282,13921 4273,13909 L 4250,13920 C 4258,13931 4266,13944 4273,13957 4280,13971 4285,13983 4288,13994 L 4313,13982 Z M 4480,14117 C 4469,14107 4456,14097 4441,14087 4426,14076 4409,14066 4391,14055 4409,14036 4425,14015 4440,13992 4454,13969 4467,13944 4478,13918 L 4449,13909 C 4439,13934 4427,13958 4412,13980 4398,14002 4382,14022 4364,14041 4348,14032 4333,14025 4317,14017 4301,14010 4286,14003 4271,13997 L 4253,14018 C 4268,14024 4282,14031 4297,14038 4313,14045 4328,14053 4342,14061 4312,14088 4277,14111 4239,14128 4242,14131 4246,14136 4250,14141 4254,14146 4257,14150 4259,14153 4300,14133 4337,14107 4370,14076 4388,14087 4405,14098 4421,14110 4437,14121 4450,14131 4461,14141 L 4480,14117 Z M 4224,14164 L 4224,13879 4507,13879 4507,14164 4224,14164 Z M 4192,13849 L 4192,14214 4224,14214 4224,14194 4507,14194 4507,14214 4539,14214 4539,13849 4192,13849 Z" />
                </g>
            </g>
            <g class="com.sun.star.drawing.ClosedBezierShape">
                <g id="id8">
                    <rect class="BoundingBox" stroke="none" fill="none" x="4616" y="13845" width="336" height="359" />
                    <path fill="rgb(51,51,51)" stroke="none"
                        d="M 4771,13849 L 4737,13846 C 4736,13854 4735,13862 4733,13871 4731,13880 4729,13889 4726,13899 4721,13899 4717,13899 4712,13899 4707,13899 4703,13899 4698,13899 4688,13899 4676,13899 4663,13898 4650,13897 4638,13896 4627,13894 L 4627,13926 C 4638,13927 4651,13928 4663,13928 4676,13929 4687,13929 4696,13929 4702,13929 4708,13929 4715,13929 4707,13946 4695,13965 4680,13987 4664,14008 4643,14032 4617,14058 L 4646,14079 C 4653,14070 4659,14062 4666,14055 4672,14047 4678,14041 4684,14035 4694,14026 4705,14018 4718,14013 4730,14007 4744,14004 4757,14004 4767,14004 4775,14006 4782,14010 4789,14015 4793,14021 4796,14030 4770,14043 4747,14058 4727,14075 4707,14092 4697,14113 4695,14138 4696,14163 4707,14180 4728,14189 4748,14198 4774,14203 4805,14202 4824,14202 4844,14201 4865,14200 4886,14198 4904,14197 4921,14194 L 4922,14161 C 4903,14164 4883,14167 4862,14168 4842,14170 4823,14171 4806,14171 4784,14171 4766,14169 4751,14164 4737,14159 4730,14149 4730,14133 4730,14119 4736,14106 4748,14095 4760,14083 4776,14072 4797,14062 4797,14073 4796,14085 4796,14097 4796,14109 4796,14119 4795,14128 L 4828,14128 C 4828,14117 4827,14104 4827,14089 4827,14073 4827,14059 4827,14046 4843,14039 4858,14032 4873,14026 4887,14020 4900,14014 4912,14010 4918,14008 4925,14005 4931,14002 4938,14000 4944,13998 4950,13996 L 4936,13965 C 4930,13968 4925,13970 4919,13973 4914,13976 4908,13978 4901,13981 4890,13986 4878,13991 4866,13997 4853,14002 4839,14009 4825,14015 4821,14003 4814,13994 4804,13987 4794,13980 4782,13977 4768,13977 4759,13977 4749,13978 4738,13981 4727,13984 4717,13988 4709,13993 4716,13983 4723,13973 4730,13961 4737,13950 4742,13938 4747,13927 4771,13926 4795,13925 4819,13923 4844,13921 4867,13919 4888,13915 L 4888,13884 C 4868,13887 4847,13890 4825,13892 4803,13894 4781,13896 4759,13897 4762,13887 4765,13879 4767,13870 4769,13862 4770,13855 4771,13849 Z" />
                </g>
            </g>
            <g class="com.sun.star.drawing.ClosedBezierShape">
                <g id="id9">
                    <rect class="BoundingBox" stroke="none" fill="none" x="5013" y="13828" width="390" height="388" />
                    <path fill="rgb(51,51,51)" stroke="none"
                        d="M 5142,14013 L 5100,14027 5100,13943 5145,13943 5145,13914 5100,13914 5100,13829 5071,13829 5071,13914 5019,13914 5019,13943 5071,13943 5071,14036 C 5060,14039 5049,14042 5040,14045 5030,14048 5022,14050 5014,14052 L 5022,14083 C 5037,14078 5053,14073 5071,14067 L 5071,14176 C 5071,14179 5070,14181 5069,14182 5068,14184 5066,14184 5063,14184 5060,14184 5055,14184 5048,14184 5041,14184 5033,14184 5024,14184 5026,14188 5028,14193 5029,14199 5031,14204 5032,14209 5032,14213 5046,14213 5057,14213 5065,14212 5074,14211 5080,14210 5085,14207 5090,14205 5094,14201 5096,14196 5098,14192 5100,14185 5100,14176 L 5100,14057 5146,14042 5142,14013 Z M 5264,14020 L 5264,14078 5200,14078 5200,14020 5264,14020 Z M 5357,14078 L 5292,14078 5292,14020 5357,14020 5357,14078 Z M 5292,14166 L 5292,14105 5357,14105 5357,14166 5292,14166 Z M 5200,14105 L 5264,14105 5264,14166 5200,14166 5200,14105 Z M 5171,14215 L 5200,14215 5200,14193 5357,14193 5357,14213 5387,14213 5387,13992 5171,13992 5171,14215 Z M 5347,13889 L 5347,13829 5317,13829 5317,13889 5241,13889 5241,13829 5211,13829 5211,13889 5152,13889 5152,13918 5211,13918 5211,13973 5241,13973 5241,13918 5317,13918 5317,13973 5347,13973 5347,13918 5401,13918 5401,13889 5347,13889 Z" />
                </g>
            </g>
            <g class="com.sun.star.drawing.ClosedBezierShape">
                <g id="id10">
                    <rect class="BoundingBox" stroke="none" fill="none" x="5510" y="13843" width="223" height="369" />
                    <path fill="rgb(51,51,51)" stroke="none"
                        d="M 5722,13871 L 5690,13843 C 5688,13847 5684,13852 5680,13857 5675,13862 5671,13867 5666,13871 5650,13887 5630,13905 5605,13926 5580,13946 5559,13964 5541,13978 5522,13994 5512,14007 5511,14020 5509,14032 5519,14046 5538,14062 5559,14079 5583,14099 5609,14122 5635,14144 5656,14164 5672,14180 5682,14190 5692,14201 5701,14211 L 5731,14183 C 5707,14160 5680,14135 5650,14110 5619,14084 5593,14063 5573,14046 5559,14035 5553,14027 5552,14020 5552,14014 5559,14005 5572,13995 5588,13981 5609,13964 5633,13945 5657,13925 5677,13909 5693,13895 5696,13892 5701,13888 5706,13883 5712,13879 5717,13875 5722,13871 Z" />
                </g>
            </g>
        </g>
        <g class="Group">
            <g class="com.sun.star.drawing.ClosedBezierShape">
                <g id="id11">
                    <rect class="BoundingBox" stroke="none" fill="none" x="2282" y="14982" width="5438" height="2038" />
                    <path fill="rgb(255,255,255)" stroke="none"
                        d="M 5000,15000 C 5900,15333 6801,15667 7701,16000 6801,16334 5900,16667 5000,17001 4100,16667 3200,16334 2300,16000 3200,15667 4100,15333 5000,15000 L 5000,15000 Z" />
                    <path fill="none" stroke="rgb(51,51,51)" stroke-width="35" stroke-linejoin="round"
                        d="M 5000,15000 L 7701,16000 5000,17001 2300,16000 5000,15000 Z" />
                </g>
            </g>
            <g class="com.sun.star.drawing.ClosedBezierShape">
                <g id="id12">
                    <rect class="BoundingBox" stroke="none" fill="none" x="2944" y="15886" width="304" height="309" />
                    <path fill="rgb(51,51,51)" stroke="none"
                        d="M 3247,15903 L 3221,15887 C 3217,15888 3213,15889 3209,15889 3205,15889 3202,15889 3199,15889 L 2986,15889 C 2979,15889 2972,15889 2964,15888 2957,15888 2950,15887 2944,15886 L 2944,15923 C 2950,15923 2956,15923 2963,15922 2970,15922 2978,15922 2986,15922 L 3203,15922 C 3200,15943 3193,15966 3184,15992 3174,16017 3162,16040 3147,16060 3130,16083 3108,16103 3082,16120 3056,16137 3023,16151 2982,16162 L 3011,16194 C 3049,16181 3082,16165 3109,16146 3136,16127 3159,16105 3178,16080 3194,16057 3208,16032 3218,16002 3229,15973 3236,15947 3241,15924 3241,15920 3242,15916 3243,15913 3244,15909 3246,15906 3247,15903 Z" />
                </g>
            </g>
            <g class="com.sun.star.drawing.ClosedBezierShape">
                <g id="id13">
                    <rect class="BoundingBox" stroke="none" fill="none" x="3380" y="15924" width="291" height="287" />
                    <path fill="rgb(51,51,51)" stroke="none"
                        d="M 3582,15925 L 3546,15925 C 3547,15930 3548,15935 3548,15940 3549,15945 3549,15949 3549,15954 3549,15958 3549,15963 3550,15968 3550,15974 3550,15981 3550,15988 L 3423,15988 C 3418,15988 3413,15988 3407,15988 3402,15987 3397,15987 3392,15986 L 3392,16020 C 3402,16019 3412,16018 3424,16018 L 3537,16018 C 3522,16040 3500,16064 3471,16087 3443,16111 3413,16131 3380,16147 L 3404,16174 C 3433,16158 3461,16138 3488,16115 3515,16092 3536,16070 3551,16049 3551,16072 3551,16094 3552,16115 3552,16136 3552,16154 3552,16168 3552,16172 3551,16175 3549,16177 3547,16179 3544,16180 3541,16180 3534,16180 3526,16180 3516,16179 3507,16178 3498,16177 3489,16176 L 3491,16207 C 3500,16208 3510,16209 3521,16209 3533,16210 3543,16210 3552,16210 3561,16210 3569,16207 3575,16202 3581,16197 3584,16190 3584,16180 3583,16160 3583,16134 3582,16104 3582,16074 3581,16046 3581,16018 L 3642,16018 C 3647,16018 3651,16018 3656,16018 3662,16019 3666,16019 3670,16019 L 3670,15986 C 3667,15987 3662,15987 3657,15987 3651,15988 3646,15988 3641,15988 L 3581,15988 C 3581,15981 3580,15974 3580,15968 3580,15963 3580,15958 3580,15954 3580,15944 3580,15934 3582,15925 Z" />
                </g>
            </g>
            <g class="com.sun.star.drawing.ClosedBezierShape">
                <g id="id14">
                    <rect class="BoundingBox" stroke="none" fill="none" x="3790" y="15874" width="332" height="319" />
                    <path fill="rgb(51,51,51)" stroke="none"
                        d="M 3826,15874 L 3802,15900 C 3819,15911 3838,15926 3859,15944 3880,15961 3896,15976 3908,15988 L 3934,15962 C 3921,15949 3904,15934 3883,15916 3861,15899 3843,15885 3826,15874 Z M 3790,16157 L 3812,16192 C 3848,16185 3879,16176 3906,16164 3934,16153 3958,16140 3979,16126 4011,16106 4039,16082 4063,16056 4087,16029 4106,16003 4121,15976 L 4101,15940 C 4088,15967 4070,15994 4045,16022 4021,16050 3992,16074 3959,16096 3939,16108 3915,16120 3887,16132 3859,16143 3827,16151 3790,16157 Z" />
                </g>
            </g>
            <g class="com.sun.star.drawing.ClosedBezierShape">
                <g id="id15">
                    <rect class="BoundingBox" stroke="none" fill="none" x="4292" y="15857" width="221" height="341" />
                    <path fill="rgb(51,51,51)" stroke="none"
                        d="M 4296,16147 C 4296,16155 4296,16164 4295,16173 4295,16182 4294,16190 4293,16197 L 4334,16197 C 4333,16190 4332,16181 4332,16172 4332,16162 4331,16154 4331,16147 4331,16140 4331,16123 4331,16097 4331,16070 4331,16040 4331,16008 4356,16015 4383,16025 4414,16038 4445,16050 4473,16063 4497,16076 L 4512,16040 C 4488,16028 4459,16016 4426,16003 4392,15990 4360,15979 4331,15970 4331,15956 4331,15944 4331,15932 4331,15920 4331,15910 4331,15901 4331,15894 4331,15887 4332,15879 4333,15871 4333,15864 4334,15857 L 4293,15857 C 4294,15864 4295,15871 4295,15879 4296,15888 4296,15895 4296,15901 L 4296,16147 Z" />
                </g>
            </g>
            <g class="com.sun.star.drawing.ClosedBezierShape">
                <g id="id16">
                    <rect class="BoundingBox" stroke="none" fill="none" x="4625" y="15858" width="354" height="343" />
                    <path fill="rgb(51,51,51)" stroke="none"
                        d="M 4764,16133 C 4764,16123 4769,16115 4779,16108 4789,16102 4802,16099 4818,16099 4834,16099 4848,16101 4862,16106 4862,16111 4862,16116 4862,16121 4862,16135 4859,16146 4852,16154 4845,16163 4833,16167 4816,16167 4800,16167 4788,16164 4778,16158 4769,16153 4764,16144 4764,16133 Z M 4893,15859 L 4854,15859 C 4855,15863 4855,15867 4855,15872 4856,15877 4856,15881 4856,15885 L 4856,15937 C 4843,15938 4829,15938 4816,15938 4804,15938 4791,15938 4780,15937 4768,15937 4756,15936 4744,15935 L 4744,15966 C 4757,15967 4769,15968 4780,15968 4792,15969 4803,15969 4815,15969 4829,15969 4842,15969 4856,15968 4856,15986 4857,16004 4858,16023 4859,16042 4860,16060 4860,16077 4848,16074 4835,16073 4821,16073 4793,16073 4771,16080 4757,16092 4742,16103 4734,16119 4734,16137 4734,16156 4742,16171 4757,16181 4771,16192 4793,16197 4822,16197 4850,16196 4869,16189 4880,16176 4890,16163 4896,16147 4895,16129 4895,16126 4895,16123 4895,16120 4906,16126 4916,16134 4927,16142 4938,16150 4948,16160 4959,16170 L 4977,16141 C 4966,16131 4954,16121 4940,16111 4926,16102 4910,16093 4893,16086 4893,16068 4892,16049 4891,16029 4890,16008 4889,15987 4889,15965 4914,15963 4939,15961 4962,15957 L 4962,15925 C 4951,15927 4939,15929 4927,15931 4915,15933 4902,15934 4889,15935 4889,15925 4889,15915 4890,15906 4890,15897 4890,15890 4890,15884 4891,15876 4892,15867 4893,15859 Z M 4684,15861 L 4647,15858 C 4647,15863 4647,15868 4646,15873 4646,15878 4645,15884 4645,15889 4641,15907 4637,15934 4633,15967 4628,16001 4625,16034 4625,16066 4625,16095 4627,16121 4630,16143 4633,16166 4637,16185 4641,16200 L 4671,16197 C 4670,16195 4670,16193 4670,16190 4670,16187 4670,16185 4670,16183 4670,16180 4670,16177 4670,16174 4670,16170 4671,16167 4672,16164 4674,16153 4678,16138 4684,16120 4690,16103 4696,16086 4701,16070 L 4684,16057 C 4680,16066 4676,16076 4672,16087 4668,16099 4664,16109 4660,16119 4659,16109 4658,16099 4657,16089 4656,16080 4656,16070 4656,16060 4656,16044 4657,16025 4660,16004 4662,15983 4665,15962 4668,15941 4671,15921 4674,15904 4677,15890 4678,15886 4679,15881 4680,15876 4681,15870 4683,15865 4684,15861 Z" />
                </g>
            </g>
            <g class="com.sun.star.drawing.ClosedBezierShape">
                <g id="id17">
                    <rect class="BoundingBox" stroke="none" fill="none" x="5023" y="15861" width="379" height="338" />
                    <path fill="rgb(51,51,51)" stroke="none"
                        d="M 5238,16167 C 5238,16123 5238,16079 5238,16035 5282,16035 5326,16035 5370,16035 5370,16025 5370,16014 5370,16004 5326,16004 5282,16004 5238,16004 5238,15966 5238,15929 5238,15891 5287,15891 5337,15891 5386,15891 5386,15881 5386,15871 5386,15861 5271,15861 5155,15861 5040,15861 5040,15871 5040,15881 5040,15891 5095,15891 5151,15891 5206,15891 5206,15983 5206,16075 5206,16167 5175,16167 5144,16167 5113,16167 5113,16101 5113,16035 5113,15969 5102,15969 5092,15969 5081,15969 5081,16035 5081,16101 5081,16167 5062,16167 5043,16167 5023,16167 5023,16177 5023,16188 5023,16198 5149,16198 5274,16198 5400,16198 5400,16188 5400,16177 5400,16167 5346,16167 5292,16167 5238,16167 Z" />
                </g>
            </g>
            <g class="com.sun.star.drawing.ClosedBezierShape">
                <g id="id18">
                    <rect class="BoundingBox" stroke="none" fill="none" x="5523" y="15854" width="281" height="354" />
                    <path fill="rgb(51,51,51)" stroke="none"
                        d="M 5567,15855 L 5524,15854 C 5525,15860 5526,15867 5527,15874 5527,15882 5527,15889 5527,15897 5527,15913 5527,15933 5526,15959 5525,15984 5525,16010 5524,16038 5523,16065 5523,16090 5523,16111 5523,16146 5533,16170 5552,16185 5570,16199 5595,16206 5626,16206 5672,16205 5710,16194 5738,16174 5767,16154 5789,16134 5803,16112 L 5779,16083 C 5764,16106 5745,16126 5721,16144 5697,16161 5666,16170 5627,16171 5607,16171 5590,16167 5578,16157 5565,16147 5558,16131 5558,16108 5558,16086 5558,16062 5559,16036 5559,16010 5560,15984 5561,15959 5562,15934 5562,15914 5563,15897 5563,15890 5564,15883 5564,15876 5565,15869 5566,15862 5567,15855 Z" />
                </g>
            </g>
            <g class="com.sun.star.drawing.ClosedBezierShape">
                <g id="id19">
                    <rect class="BoundingBox" stroke="none" fill="none" x="5899" y="15888" width="338" height="302" />
                    <path fill="rgb(51,51,51)" stroke="none"
                        d="M 5940,15889 L 5899,15888 C 5900,15894 5901,15900 5901,15907 5902,15915 5902,15921 5902,15926 5902,15939 5902,15956 5903,15978 5904,15999 5905,16020 5907,16039 5913,16093 5924,16132 5941,16155 5958,16177 5976,16189 5997,16188 6011,16188 6025,16181 6038,16167 6051,16152 6064,16127 6077,16092 L 6050,16062 C 6044,16084 6037,16103 6028,16121 6018,16138 6008,16147 5997,16148 5982,16148 5970,16137 5960,16116 5950,16095 5943,16066 5940,16030 5939,16013 5938,15995 5937,15977 5937,15959 5937,15944 5937,15930 5937,15924 5937,15917 5938,15909 5939,15901 5940,15895 5940,15889 Z M 6161,15901 L 6128,15912 C 6148,15938 6165,15970 6177,16009 6189,16047 6198,16086 6201,16125 L 6235,16111 C 6232,16074 6223,16036 6210,15998 6196,15959 6180,15927 6161,15901 Z" />
                </g>
            </g>
            <g class="com.sun.star.drawing.ClosedBezierShape">
                <g id="id20">
                    <rect class="BoundingBox" stroke="none" fill="none" x="6303" y="15849" width="377" height="349" />
                    <path fill="rgb(51,51,51)" stroke="none"
                        d="M 6455,15854 L 6416,15850 C 6416,15864 6415,15879 6413,15895 6411,15911 6408,15927 6405,15942 6392,15943 6380,15944 6369,15945 6357,15946 6348,15947 6341,15947 6334,15947 6328,15947 6322,15947 6316,15948 6309,15947 6303,15947 L 6306,15984 C 6312,15983 6319,15982 6326,15981 6333,15980 6339,15980 6344,15979 6350,15978 6358,15977 6367,15975 6376,15974 6387,15973 6398,15972 6391,16002 6380,16037 6364,16077 6349,16117 6331,16153 6309,16183 L 6344,16197 C 6366,16160 6384,16121 6399,16079 6413,16037 6425,16001 6432,15969 6442,15968 6451,15967 6458,15967 6466,15966 6473,15966 6478,15966 6492,15965 6502,15968 6511,15974 6519,15981 6523,15993 6523,16012 6523,16036 6521,16059 6518,16083 6515,16107 6509,16126 6503,16141 6498,16150 6493,16156 6487,16159 6481,16162 6474,16163 6466,16163 6460,16163 6452,16162 6442,16161 6432,16159 6423,16157 6414,16155 L 6419,16190 C 6426,16191 6434,16193 6443,16194 6452,16195 6461,16196 6469,16196 6483,16196 6495,16194 6505,16189 6516,16184 6524,16174 6531,16160 6540,16142 6546,16118 6550,16090 6554,16061 6556,16034 6556,16008 6555,15980 6549,15961 6536,15950 6523,15940 6506,15935 6487,15936 6482,15936 6475,15936 6467,15937 6458,15937 6449,15938 6439,15939 6442,15927 6444,15916 6446,15905 6447,15894 6449,15885 6450,15878 6451,15875 6452,15871 6453,15866 6454,15862 6454,15858 6455,15854 Z M 6601,15899 L 6570,15913 C 6586,15932 6601,15956 6615,15986 6629,16016 6639,16042 6646,16066 L 6679,16050 C 6674,16036 6667,16020 6658,16001 6649,15982 6640,15963 6630,15944 6620,15926 6610,15911 6601,15899 Z" />
                </g>
            </g>
            <g class="com.sun.star.drawing.ClosedBezierShape">
                <g id="id21">
                    <rect class="BoundingBox" stroke="none" fill="none" x="6800" y="15861" width="207" height="326" />
                    <path fill="rgb(51,51,51)" stroke="none"
                        d="M 6881,16082 L 6916,16082 C 6914,16061 6920,16044 6934,16031 6949,16018 6964,16005 6980,15992 6996,15979 7005,15962 7006,15941 7006,15917 6997,15897 6979,15883 6962,15869 6938,15862 6908,15862 6885,15862 6865,15867 6848,15876 6830,15884 6815,15896 6801,15911 L 6824,15932 C 6848,15907 6875,15894 6904,15894 6926,15894 6942,15899 6952,15908 6963,15917 6968,15929 6968,15944 6967,15960 6958,15974 6943,15986 6927,15998 6912,16011 6898,16026 6884,16040 6878,16059 6881,16082 Z M 6900,16186 C 6907,16186 6914,16183 6919,16178 6924,16173 6927,16167 6927,16158 6927,16150 6924,16143 6919,16138 6914,16133 6907,16130 6900,16130 6892,16130 6885,16133 6880,16138 6875,16143 6872,16150 6872,16158 6872,16167 6875,16173 6880,16178 6885,16183 6892,16186 6900,16186 Z" />
                </g>
            </g>
        </g>
        <g class="Group">
            <g class="com.sun.star.drawing.ClosedBezierShape">
                <g id="id22">
                    <rect class="BoundingBox" stroke="none" fill="none" x="7682" y="16282" width="4037" height="1037" />
                    <path fill="rgb(255,255,255)" stroke="none"
                        d="M 7700,17300 C 7700,16967 7700,16633 7700,16300 9033,16300 10367,16300 11700,16300 11700,16633 11700,16967 11700,17300 10367,17300 9033,17300 7700,17300 Z" />
                    <path fill="none" stroke="rgb(51,51,51)" stroke-width="35" stroke-linejoin="round"
                        d="M 7700,17300 L 7700,16300 11700,16300 11700,17300 7700,17300 Z" />
                </g>
            </g>
            <g class="com.sun.star.drawing.ClosedBezierShape">
                <g id="id23">
                    <rect class="BoundingBox" stroke="none" fill="none" x="8279" y="16686" width="305" height="309" />
                    <path fill="rgb(51,51,51)" stroke="none"
                        d="M 8583,16703 L 8557,16687 C 8553,16688 8549,16689 8545,16689 8541,16689 8537,16689 8534,16689 L 8322,16689 C 8315,16689 8307,16689 8300,16688 8292,16688 8286,16687 8280,16686 L 8280,16723 C 8285,16723 8291,16723 8298,16722 8306,16722 8313,16722 8322,16722 L 8538,16722 C 8535,16743 8529,16766 8519,16792 8510,16817 8498,16840 8483,16860 8465,16883 8444,16903 8418,16920 8391,16937 8358,16951 8318,16962 L 8346,16994 C 8385,16981 8418,16965 8444,16946 8471,16927 8494,16905 8513,16880 8530,16857 8543,16832 8554,16802 8564,16773 8572,16747 8576,16724 8577,16720 8578,16716 8579,16713 8580,16709 8581,16706 8583,16703 Z" />
                </g>
            </g>
            <g class="com.sun.star.drawing.ClosedBezierShape">
                <g id="id24">
                    <rect class="BoundingBox" stroke="none" fill="none" x="8715" y="16724" width="292" height="287" />
                    <path fill="rgb(51,51,51)" stroke="none"
                        d="M 8917,16725 L 8882,16725 C 8882,16730 8883,16735 8884,16740 8884,16745 8884,16749 8885,16754 8885,16758 8885,16763 8885,16768 8885,16774 8886,16781 8886,16788 L 8758,16788 C 8753,16788 8748,16788 8743,16788 8737,16787 8732,16787 8727,16786 L 8727,16820 C 8737,16819 8748,16818 8759,16818 L 8872,16818 C 8857,16840 8835,16864 8807,16887 8779,16911 8748,16931 8716,16947 L 8739,16974 C 8769,16958 8797,16938 8823,16915 8850,16892 8871,16870 8886,16849 8887,16872 8887,16894 8887,16915 8887,16936 8888,16954 8888,16968 8888,16972 8887,16975 8885,16977 8883,16979 8880,16980 8876,16980 8869,16980 8861,16980 8852,16979 8842,16978 8833,16977 8824,16976 L 8826,17007 C 8835,17008 8845,17009 8857,17009 8868,17010 8879,17010 8888,17010 8897,17010 8905,17007 8910,17002 8916,16997 8919,16990 8919,16980 8919,16960 8918,16934 8918,16904 8917,16874 8917,16846 8917,16818 L 8978,16818 C 8982,16818 8987,16818 8992,16818 8997,16819 9002,16819 9005,16819 L 9005,16786 C 9002,16787 8998,16787 8992,16787 8987,16788 8982,16788 8977,16788 L 8916,16788 C 8916,16781 8916,16774 8916,16768 8916,16763 8916,16758 8916,16754 8915,16744 8916,16734 8917,16725 Z" />
                </g>
            </g>
            <g class="com.sun.star.drawing.ClosedBezierShape">
                <g id="id25">
                    <rect class="BoundingBox" stroke="none" fill="none" x="9125" y="16674" width="333" height="320" />
                    <path fill="rgb(51,51,51)" stroke="none"
                        d="M 9162,16674 L 9138,16700 C 9155,16711 9173,16726 9194,16744 9215,16761 9231,16776 9243,16788 L 9270,16762 C 9257,16749 9240,16734 9218,16716 9197,16699 9178,16685 9162,16674 Z M 9126,16957 L 9148,16992 C 9183,16985 9214,16976 9242,16964 9269,16953 9293,16940 9314,16926 9346,16906 9374,16882 9399,16856 9423,16829 9442,16803 9457,16776 L 9436,16740 C 9424,16767 9405,16794 9381,16822 9356,16850 9328,16874 9295,16896 9275,16908 9251,16920 9223,16932 9195,16943 9162,16952 9126,16957 Z" />
                </g>
            </g>
            <g class="com.sun.star.drawing.ClosedBezierShape">
                <g id="id26">
                    <rect class="BoundingBox" stroke="none" fill="none" x="9628" y="16657" width="221" height="341" />
                    <path fill="rgb(51,51,51)" stroke="none"
                        d="M 9632,16947 C 9632,16955 9631,16964 9631,16973 9630,16982 9630,16990 9629,16997 L 9669,16997 C 9669,16990 9668,16981 9668,16972 9667,16962 9667,16954 9667,16947 9667,16940 9667,16923 9667,16897 9667,16870 9667,16840 9667,16808 9691,16815 9719,16825 9750,16838 9781,16850 9809,16863 9833,16876 L 9847,16840 C 9824,16828 9795,16816 9761,16803 9727,16790 9696,16779 9667,16770 9667,16756 9667,16744 9667,16732 9667,16720 9667,16710 9667,16701 9667,16694 9667,16687 9668,16679 9668,16671 9669,16664 9669,16657 L 9628,16657 C 9629,16664 9630,16671 9631,16679 9631,16688 9632,16695 9632,16701 L 9632,16947 Z" />
                </g>
            </g>
            <g class="com.sun.star.drawing.ClosedBezierShape">
                <g id="id27">
                    <rect class="BoundingBox" stroke="none" fill="none" x="9951" y="16646" width="336" height="359" />
                    <path fill="rgb(51,51,51)" stroke="none"
                        d="M 10106,16650 L 10072,16647 C 10071,16655 10070,16663 10068,16672 10066,16681 10064,16690 10061,16700 10056,16700 10052,16700 10047,16700 10042,16700 10038,16700 10033,16700 10023,16700 10011,16700 9998,16699 9985,16698 9973,16697 9962,16695 L 9962,16727 C 9973,16728 9986,16729 9998,16729 10011,16730 10022,16730 10031,16730 10037,16730 10043,16730 10050,16730 10042,16747 10030,16766 10015,16788 9999,16809 9978,16833 9952,16859 L 9981,16880 C 9988,16871 9994,16863 10001,16856 10007,16848 10013,16842 10019,16836 10029,16827 10040,16819 10053,16814 10065,16808 10079,16805 10092,16805 10102,16805 10110,16807 10117,16811 10124,16816 10128,16822 10131,16831 10105,16844 10082,16859 10062,16876 10042,16893 10032,16914 10031,16939 10031,16964 10042,16981 10062,16990 10083,16999 10109,17004 10140,17003 10159,17003 10179,17002 10200,17001 10220,16999 10239,16998 10256,16995 L 10257,16962 C 10238,16965 10218,16968 10197,16969 10177,16971 10158,16972 10141,16972 10119,16972 10101,16970 10086,16965 10072,16960 10065,16950 10065,16934 10065,16920 10071,16907 10083,16896 10095,16884 10111,16873 10132,16863 10132,16874 10131,16886 10131,16898 10131,16910 10131,16920 10130,16929 L 10163,16929 C 10163,16918 10162,16905 10162,16890 10162,16874 10162,16860 10162,16847 10178,16840 10193,16833 10208,16827 10222,16821 10235,16815 10247,16811 10253,16809 10260,16806 10266,16803 10273,16801 10279,16799 10285,16797 L 10271,16766 C 10265,16769 10260,16771 10254,16774 10249,16777 10243,16779 10236,16782 10225,16787 10213,16792 10201,16798 10188,16803 10174,16810 10160,16816 10156,16804 10149,16795 10139,16788 10129,16781 10117,16778 10103,16778 10094,16778 10084,16779 10073,16782 10062,16785 10052,16789 10044,16794 10051,16784 10058,16774 10065,16762 10072,16751 10077,16739 10082,16728 10106,16727 10130,16726 10154,16724 10179,16722 10202,16720 10223,16716 L 10223,16685 C 10203,16688 10182,16691 10160,16693 10138,16695 10116,16697 10094,16698 10097,16688 10100,16680 10102,16671 10104,16663 10105,16656 10106,16650 Z" />
                </g>
            </g>
            <g class="com.sun.star.drawing.ClosedBezierShape">
                <g id="id28">
                    <rect class="BoundingBox" stroke="none" fill="none" x="10363" y="16628" width="374" height="390" />
                    <path fill="rgb(51,51,51)" stroke="none"
                        d="M 10654,16790 L 10493,16790 10493,16756 10654,16756 10654,16790 Z M 10654,16847 L 10493,16847 10493,16813 10654,16813 10654,16847 Z M 10654,16906 L 10493,16906 10493,16870 10654,16870 10654,16906 Z M 10463,16732 L 10463,16929 10684,16929 10684,16732 10559,16732 C 10561,16722 10563,16710 10564,16698 L 10732,16698 10732,16669 10568,16669 C 10571,16656 10572,16644 10574,16631 L 10537,16629 C 10537,16635 10537,16641 10537,16648 10536,16655 10536,16662 10535,16669 L 10364,16669 10364,16698 10532,16698 C 10530,16710 10528,16722 10526,16732 L 10463,16732 Z M 10736,16965 L 10416,16965 10416,16744 10386,16744 10386,17016 10416,17016 10416,16994 10736,16994 10736,16965 Z" />
                </g>
            </g>
            <g class="com.sun.star.drawing.ClosedBezierShape">
                <g id="id29">
                    <rect class="BoundingBox" stroke="none" fill="none" x="10799" y="16648" width="353" height="360" />
                    <path fill="rgb(51,51,51)" stroke="none"
                        d="M 11023,16649 L 10984,16649 C 10984,16651 10985,16654 10985,16659 10986,16664 10986,16670 10987,16676 10987,16679 10987,16682 10987,16687 10987,16692 10987,16697 10988,16703 10956,16704 10922,16705 10888,16706 10854,16707 10824,16707 10800,16708 L 10801,16741 C 10828,16739 10858,16737 10891,16736 10924,16734 10956,16734 10989,16733 10989,16741 10989,16748 10989,16755 10989,16763 10990,16769 10990,16776 10981,16773 10972,16771 10961,16771 10941,16771 10923,16778 10909,16792 10895,16805 10888,16823 10888,16844 10888,16868 10895,16885 10908,16897 10922,16909 10938,16915 10956,16915 10970,16915 10983,16911 10993,16904 10984,16923 10971,16938 10952,16951 10933,16963 10909,16972 10882,16978 L 10909,17006 C 10958,16991 10991,16969 11009,16942 11028,16914 11036,16886 11036,16856 11035,16846 11034,16836 11032,16827 11030,16817 11026,16809 11022,16802 11021,16792 11021,16781 11021,16769 11021,16757 11020,16745 11021,16733 11022,16733 11024,16733 11026,16733 11057,16733 11083,16733 11103,16734 11123,16734 11139,16734 11150,16735 L 11151,16703 C 11140,16703 11123,16703 11101,16703 11078,16703 11053,16703 11027,16703 11025,16703 11023,16703 11021,16703 11021,16697 11021,16692 11021,16687 11021,16683 11021,16679 11021,16676 11021,16672 11021,16668 11022,16662 11022,16656 11023,16652 11023,16649 Z M 10919,16844 C 10919,16830 10923,16819 10932,16811 10940,16803 10950,16799 10961,16799 10969,16799 10977,16801 10983,16805 10990,16810 10995,16816 10999,16826 11000,16846 10998,16861 10991,16871 10984,16881 10974,16886 10961,16886 10949,16886 10939,16882 10931,16875 10923,16868 10919,16857 10919,16844 Z" />
                </g>
            </g>
        </g>
        <g class="Group">
            <g class="com.sun.star.drawing.ClosedBezierShape">
                <g id="id30">
                    <rect class="BoundingBox" stroke="none" fill="none" x="2982" y="17982" width="4037" height="1037" />
                    <path fill="rgb(255,255,255)" stroke="none"
                        d="M 3000,19000 C 3000,18667 3000,18333 3000,18000 4333,18000 5667,18000 7000,18000 7000,18333 7000,18667 7000,19000 5667,19000 4333,19000 3000,19000 Z" />
                    <path fill="none" stroke="rgb(51,51,51)" stroke-width="35" stroke-linejoin="round"
                        d="M 3000,19000 L 3000,18000 7000,18000 7000,19000 3000,19000 Z" />
                </g>
            </g>
            <g class="com.sun.star.drawing.ClosedBezierShape">
                <g id="id31">
                    <rect class="BoundingBox" stroke="none" fill="none" x="3526" y="18374" width="207" height="311" />
                    <path fill="rgb(51,51,51)" stroke="none"
                        d="M 3527,18684 L 3565,18684 3565,18561 3617,18561 C 3652,18561 3679,18553 3700,18537 3720,18522 3731,18498 3731,18465 3731,18432 3720,18408 3699,18394 3679,18380 3651,18374 3615,18374 L 3527,18374 3527,18684 Z M 3565,18529 L 3565,18406 3610,18406 C 3638,18406 3658,18410 3672,18419 3686,18428 3693,18443 3693,18465 3693,18487 3686,18503 3673,18514 3659,18524 3639,18529 3612,18529 L 3565,18529 Z" />
                </g>
            </g>
            <g class="com.sun.star.drawing.ClosedBezierShape">
                <g id="id32">
                    <rect class="BoundingBox" stroke="none" fill="none" x="3793" y="18374" width="226" height="311" />
                    <path fill="rgb(51,51,51)" stroke="none"
                        d="M 3794,18684 L 3873,18684 C 3920,18684 3956,18670 3980,18643 4005,18616 4017,18578 4017,18528 4017,18479 4005,18441 3980,18414 3956,18388 3919,18374 3871,18374 L 3794,18374 3794,18684 Z M 3832,18652 L 3832,18406 3868,18406 C 3905,18406 3932,18417 3950,18438 3968,18458 3978,18489 3978,18528 3978,18568 3968,18598 3950,18619 3932,18641 3905,18652 3868,18652 L 3832,18652 Z" />
                </g>
            </g>
            <g class="com.sun.star.drawing.ClosedBezierShape">
                <g id="id33">
                    <rect class="BoundingBox" stroke="none" fill="none" x="4085" y="18374" width="181" height="311" />
                    <path fill="rgb(51,51,51)" stroke="none"
                        d="M 4086,18684 C 4099,18684 4111,18684 4124,18684 4124,18638 4124,18591 4124,18545 4164,18545 4203,18545 4243,18545 4243,18534 4243,18523 4243,18512 4203,18512 4164,18512 4124,18512 4124,18477 4124,18442 4124,18407 4171,18407 4217,18407 4264,18407 4264,18396 4264,18385 4264,18374 4205,18374 4145,18374 4086,18374 4086,18477 4086,18581 4086,18684 Z" />
                </g>
            </g>
            <g class="com.sun.star.drawing.ClosedBezierShape">
                <g id="id34">
                    <rect class="BoundingBox" stroke="none" fill="none" x="4450" y="18361" width="330" height="338" />
                    <path fill="rgb(51,51,51)" stroke="none"
                        d="M 4591,18398 L 4591,18432 C 4616,18435 4645,18436 4679,18436 4712,18436 4741,18435 4765,18432 L 4765,18398 C 4751,18400 4733,18401 4712,18402 4690,18403 4669,18403 4648,18403 4626,18402 4607,18400 4591,18398 Z M 4608,18571 L 4578,18568 C 4575,18578 4574,18587 4572,18595 4571,18603 4571,18611 4571,18618 4570,18638 4579,18653 4595,18664 4612,18675 4638,18681 4673,18681 4695,18681 4715,18680 4732,18678 4750,18677 4765,18675 4779,18672 L 4778,18637 C 4761,18641 4744,18644 4727,18645 4710,18647 4692,18648 4673,18648 4645,18648 4626,18644 4616,18636 4606,18629 4601,18620 4602,18610 4602,18604 4602,18598 4603,18592 4604,18586 4606,18579 4608,18571 Z M 4510,18365 L 4473,18362 C 4473,18367 4472,18372 4472,18377 4471,18382 4470,18387 4470,18392 4467,18411 4463,18436 4458,18467 4454,18498 4451,18530 4451,18562 4451,18591 4452,18617 4455,18640 4458,18664 4462,18683 4466,18698 L 4497,18696 C 4497,18694 4496,18691 4496,18689 4496,18686 4496,18683 4496,18681 4495,18679 4496,18676 4496,18672 4496,18669 4497,18665 4498,18662 4500,18652 4504,18637 4510,18619 4516,18600 4522,18583 4528,18567 L 4510,18554 C 4506,18563 4502,18573 4498,18584 4493,18595 4489,18606 4485,18616 4484,18605 4483,18596 4482,18586 4482,18577 4482,18567 4482,18556 4482,18531 4484,18503 4489,18472 4494,18441 4498,18415 4503,18394 4504,18390 4505,18385 4506,18379 4508,18374 4509,18369 4510,18365 Z" />
                </g>
            </g>
            <g class="com.sun.star.drawing.ClosedBezierShape">
                <g id="id35">
                    <rect class="BoundingBox" stroke="none" fill="none" x="4870" y="18333" width="329" height="385" />
                    <path fill="rgb(51,51,51)" stroke="none"
                        d="M 5166,18542 C 5166,18581 5166,18620 5166,18659 5126,18659 5086,18659 5047,18659 5047,18611 5047,18563 5047,18515 5092,18515 5137,18515 5182,18515 5182,18467 5182,18419 5182,18371 5171,18371 5160,18371 5149,18371 5149,18409 5149,18447 5149,18485 5115,18485 5081,18485 5047,18485 5047,18434 5047,18384 5047,18333 5036,18333 5025,18333 5015,18333 5015,18384 5015,18434 5015,18485 4982,18485 4950,18485 4918,18485 4918,18447 4918,18409 4918,18371 4907,18371 4897,18371 4887,18371 4887,18419 4887,18467 4887,18515 4929,18515 4972,18515 5015,18515 5015,18563 5015,18611 5015,18659 4977,18659 4939,18659 4902,18659 4902,18620 4902,18581 4902,18542 4891,18542 4881,18542 4871,18542 4871,18600 4871,18658 4871,18716 4881,18716 4891,18716 4902,18716 4902,18707 4902,18699 4902,18690 4990,18690 5078,18690 5166,18690 5166,18698 5166,18707 5166,18715 5176,18715 5187,18715 5198,18715 5198,18658 5198,18600 5198,18542 5187,18542 5176,18542 5166,18542 Z" />
                </g>
            </g>
            <g class="com.sun.star.drawing.ClosedBezierShape">
                <g id="id36">
                    <rect class="BoundingBox" stroke="none" fill="none" x="5269" y="18330" width="360" height="390" />
                    <path fill="rgb(51,51,51)" stroke="none"
                        d="M 5453,18422 C 5453,18416 5453,18410 5453,18404 L 5453,18331 5420,18331 5420,18404 C 5420,18410 5420,18416 5420,18422 L 5282,18422 5282,18453 5418,18453 C 5416,18493 5405,18535 5384,18577 5364,18620 5325,18659 5269,18694 5273,18696 5278,18700 5282,18705 5287,18710 5291,18714 5294,18718 5353,18680 5394,18637 5416,18591 5437,18544 5449,18498 5451,18453 L 5595,18453 C 5591,18527 5586,18581 5581,18615 5576,18650 5569,18670 5562,18677 5560,18679 5557,18681 5554,18682 5551,18683 5547,18683 5543,18683 5537,18683 5528,18683 5516,18682 5504,18682 5491,18681 5476,18680 5479,18685 5482,18690 5484,18696 5486,18702 5487,18707 5487,18712 5500,18713 5513,18713 5525,18714 5537,18714 5547,18714 5554,18713 5562,18713 5569,18711 5575,18709 5580,18706 5586,18702 5590,18696 5599,18687 5607,18663 5612,18625 5617,18586 5622,18524 5627,18438 5627,18436 5627,18432 5627,18428 5627,18425 5627,18422 5628,18422 L 5453,18422 Z" />
                </g>
            </g>
            <g class="com.sun.star.drawing.ClosedBezierShape">
                <g id="id37">
                    <rect class="BoundingBox" stroke="none" fill="none" x="5709" y="18348" width="353" height="360" />
                    <path fill="rgb(51,51,51)" stroke="none"
                        d="M 5933,18349 L 5894,18349 C 5894,18351 5895,18354 5895,18359 5896,18364 5896,18370 5897,18376 5897,18379 5897,18382 5897,18387 5897,18392 5897,18397 5898,18403 5866,18404 5832,18405 5798,18406 5764,18407 5734,18407 5710,18408 L 5711,18441 C 5738,18439 5768,18437 5801,18436 5834,18434 5866,18434 5899,18433 5899,18441 5899,18448 5899,18455 5899,18463 5900,18469 5900,18476 5891,18473 5882,18471 5871,18471 5851,18471 5833,18478 5819,18492 5805,18505 5798,18523 5798,18544 5798,18568 5805,18585 5818,18597 5832,18609 5848,18615 5866,18615 5880,18615 5893,18611 5903,18604 5894,18623 5881,18638 5862,18651 5843,18663 5819,18672 5792,18678 L 5819,18706 C 5868,18691 5901,18669 5919,18642 5938,18614 5946,18586 5945,18556 5945,18546 5944,18536 5942,18527 5940,18517 5936,18509 5932,18502 5931,18492 5931,18481 5931,18469 5931,18457 5930,18445 5931,18433 5932,18433 5934,18433 5936,18433 5967,18433 5993,18433 6013,18434 6033,18434 6049,18434 6060,18435 L 6061,18403 C 6050,18403 6033,18403 6011,18403 5988,18403 5963,18403 5937,18403 5935,18403 5933,18403 5931,18403 5931,18397 5931,18392 5931,18387 5931,18383 5931,18379 5931,18376 5931,18372 5931,18368 5932,18362 5932,18356 5933,18352 5933,18349 Z M 5829,18544 C 5829,18530 5833,18519 5842,18511 5850,18503 5860,18499 5871,18499 5879,18499 5887,18501 5893,18505 5900,18510 5905,18516 5909,18526 5910,18546 5908,18561 5901,18571 5894,18581 5884,18586 5871,18586 5859,18586 5849,18582 5841,18575 5833,18568 5829,18557 5829,18544 Z" />
                </g>
            </g>
            <g class="com.sun.star.drawing.ClosedBezierShape">
                <g id="id38">
                    <rect class="BoundingBox" stroke="none" fill="none" x="6138" y="18365" width="317" height="338" />
                    <path fill="rgb(51,51,51)" stroke="none"
                        d="M 6247,18639 C 6247,18631 6250,18625 6256,18620 6263,18615 6271,18612 6280,18612 6296,18612 6309,18618 6319,18628 6329,18639 6335,18652 6337,18669 6326,18671 6315,18672 6303,18672 6286,18672 6272,18669 6262,18663 6252,18657 6247,18649 6247,18639 Z M 6192,18372 L 6194,18408 C 6198,18407 6203,18406 6207,18406 6212,18405 6217,18405 6221,18405 6230,18405 6243,18404 6260,18403 6277,18402 6295,18401 6312,18401 6330,18400 6343,18399 6351,18399 6339,18410 6323,18423 6303,18440 6282,18457 6266,18471 6253,18482 6240,18493 6222,18508 6200,18526 6178,18545 6158,18561 6139,18576 L 6163,18601 C 6189,18574 6214,18553 6238,18539 6262,18524 6291,18517 6325,18517 6353,18517 6376,18524 6393,18538 6410,18551 6419,18568 6420,18590 6419,18607 6415,18621 6406,18633 6397,18646 6384,18655 6367,18661 6364,18641 6356,18623 6342,18609 6327,18595 6307,18588 6281,18587 6261,18587 6245,18593 6233,18603 6222,18614 6216,18627 6216,18642 6216,18659 6224,18674 6240,18685 6257,18696 6279,18702 6308,18702 6353,18702 6389,18691 6414,18671 6440,18651 6453,18624 6454,18590 6453,18561 6442,18537 6420,18519 6398,18501 6369,18492 6333,18491 6323,18491 6314,18492 6304,18493 6294,18494 6284,18497 6274,18500 6292,18485 6312,18468 6334,18449 6357,18430 6374,18416 6386,18407 6390,18404 6394,18401 6398,18398 6402,18395 6406,18392 6409,18390 L 6390,18365 C 6388,18366 6385,18366 6382,18367 6378,18368 6373,18368 6367,18369 6359,18369 6345,18370 6325,18371 6305,18372 6285,18372 6265,18373 6245,18374 6231,18374 6222,18374 6218,18374 6213,18374 6208,18374 6202,18373 6197,18373 6192,18372 Z" />
                </g>
            </g>
        </g>
        <g class="com.sun.star.drawing.OpenBezierShape">
            <g id="id39">
                <rect class="BoundingBox" stroke="none" fill="none" x="4874" y="12981" width="253" height="519" />
                <path fill="none" stroke="rgb(51,51,51)" stroke-width="35" stroke-linejoin="round"
                    d="M 5000,12999 L 5000,13352" />
                <path fill="rgb(51,51,51)" stroke="none" d="M 5126,13335 L 5000,13499 4874,13335 5126,13335 Z" />
            </g>
        </g>
        <g class="com.sun.star.drawing.OpenBezierShape">
            <g id="id40">
                <rect class="BoundingBox" stroke="none" fill="none" x="4874" y="14481" width="253" height="519" />
                <path fill="none" stroke="rgb(51,51,51)" stroke-width="35" stroke-linejoin="round"
                    d="M 5000,14499 L 5000,14852" />
                <path fill="rgb(51,51,51)" stroke="none" d="M 5126,14835 L 5000,14999 4874,14835 5126,14835 Z" />
            </g>
        </g>
        <g class="com.sun.star.drawing.OpenBezierShape">
            <g id="id41">
                <rect class="BoundingBox" stroke="none" fill="none" x="4874" y="16982" width="253" height="1019" />
                <path fill="none" stroke="rgb(51,51,51)" stroke-width="35" stroke-linejoin="round"
                    d="M 5000,17000 L 5000,17853" />
                <path fill="rgb(51,51,51)" stroke="none" d="M 5126,17836 L 5000,18000 4874,17836 5126,17836 Z" />
            </g>
        </g>
        <g class="Group">
            <g class="com.sun.star.drawing.ClosedBezierShape">
                <g id="id42">
                    <rect class="BoundingBox" stroke="none" fill="none" x="3482" y="19482" width="3038" height="1038" />
                    <path fill="rgb(255,255,255)" stroke="none"
                        d="M 4000,19500 C 4000,19500 4000,19500 4001,19500 3913,19500 3826,19523 3750,19567 3674,19611 3611,19674 3567,19750 3523,19826 3500,19913 3500,20001 3500,20000 3500,20000 3500,20000 3500,20000 3500,20000 3500,20001 3500,20088 3523,20175 3567,20251 3611,20327 3674,20390 3750,20434 3826,20478 3913,20501 4001,20501 4667,20501 5334,20501 6000,20501 6000,20501 6000,20501 6001,20501 6088,20501 6175,20478 6251,20434 6327,20390 6390,20327 6434,20251 6478,20175 6501,20088 6501,20001 6501,20000 6501,20000 6501,20000 6501,20000 6501,20000 6501,20001 L 6501,20001 C 6501,19913 6478,19826 6434,19750 6390,19674 6327,19611 6251,19567 6175,19523 6088,19500 6001,19500 5334,19500 4667,19500 4000,19500 Z" />
                    <path fill="none" stroke="rgb(51,51,51)" stroke-width="35" stroke-linejoin="round"
                        d="M 4000,19500 L 4001,19500 C 3913,19500 3826,19523 3750,19567 3674,19611 3611,19674 3567,19750 3523,19826 3500,19913 3500,20001 L 3500,20000 3500,20001 C 3500,20088 3523,20175 3567,20251 3611,20327 3674,20390 3750,20434 3826,20478 3913,20501 4001,20501 L 6000,20501 6001,20501 C 6088,20501 6175,20478 6251,20434 6327,20390 6390,20327 6434,20251 6478,20175 6501,20088 6501,20001 L 6501,20000 6501,20001 6501,20001 C 6501,19913 6478,19826 6434,19750 6390,19674 6327,19611 6251,19567 6175,19523 6088,19500 6001,19500 L 4000,19500 Z" />
                </g>
            </g>
            <g class="com.sun.star.drawing.ClosedBezierShape">
                <g id="id43">
                    <rect class="BoundingBox" stroke="none" fill="none" x="4589" y="19829" width="399" height="391" />
                    <path fill="rgb(51,51,51)" stroke="none"
                        d="M 4616,20070 C 4614,20089 4611,20107 4606,20124 4602,20142 4596,20157 4589,20170 4593,20172 4597,20173 4602,20176 4607,20178 4611,20180 4614,20182 4621,20169 4627,20152 4632,20133 4637,20115 4641,20095 4644,20075 L 4616,20070 Z M 4703,20074 C 4709,20087 4714,20100 4719,20114 4724,20128 4727,20141 4729,20152 L 4753,20144 C 4751,20133 4747,20121 4743,20107 4738,20093 4732,20079 4726,20067 L 4703,20074 Z M 4769,20151 C 4798,20160 4828,20170 4858,20183 4888,20195 4912,20207 4932,20218 L 4950,20193 C 4931,20183 4906,20171 4876,20159 4846,20147 4816,20137 4788,20129 L 4769,20151 Z M 4815,20072 C 4830,20078 4846,20086 4861,20095 4877,20104 4890,20113 4900,20121 L 4920,20099 C 4909,20091 4896,20083 4880,20075 4864,20066 4849,20058 4834,20052 L 4815,20072 Z M 4817,19901 L 4913,19901 C 4906,19913 4899,19925 4891,19936 4882,19948 4873,19958 4863,19969 4854,19958 4845,19948 4837,19937 4829,19926 4822,19915 4815,19904 L 4817,19901 Z M 4934,19872 L 4929,19874 4834,19874 C 4842,19861 4848,19848 4854,19835 L 4823,19830 C 4815,19849 4804,19870 4789,19892 4773,19914 4754,19933 4732,19952 4735,19954 4739,19957 4743,19961 4748,19965 4751,19968 4753,19972 4762,19965 4770,19958 4777,19950 4784,19943 4791,19935 4798,19927 4811,19948 4826,19968 4843,19987 4829,19999 4814,20010 4799,20019 4783,20028 4767,20036 4751,20043 4748,20032 4743,20019 4736,20006 4729,19992 4722,19979 4714,19967 L 4692,19975 C 4696,19981 4699,19988 4703,19994 4706,20001 4709,20007 4712,20014 L 4650,20016 C 4664,19998 4678,19977 4693,19954 4708,19932 4722,19910 4734,19890 L 4707,19878 C 4702,19889 4695,19901 4688,19914 4681,19927 4673,19940 4665,19954 4661,19949 4657,19945 4653,19940 4649,19936 4645,19931 4640,19926 4648,19914 4656,19900 4664,19885 4673,19870 4681,19855 4688,19841 L 4660,19830 C 4656,19842 4650,19855 4643,19869 4637,19883 4630,19896 4622,19909 4618,19905 4614,19901 4610,19898 L 4594,19918 C 4604,19928 4614,19937 4624,19948 4634,19959 4642,19969 4649,19978 4644,19985 4639,19992 4634,19999 4630,20005 4625,20012 4621,20017 L 4593,20019 4595,20047 C 4605,20046 4615,20046 4627,20045 4638,20044 4649,20044 4661,20043 L 4661,20217 4689,20217 4689,20041 4722,20039 C 4724,20043 4725,20047 4727,20051 4728,20055 4729,20058 4730,20061 L 4750,20052 C 4752,20056 4755,20059 4757,20062 4760,20066 4762,20069 4763,20071 4781,20064 4798,20055 4815,20044 4832,20034 4848,20022 4863,20008 4879,20023 4895,20036 4913,20048 4930,20059 4948,20069 4966,20077 4969,20072 4972,20068 4976,20063 4980,20058 4983,20054 4986,20051 4968,20044 4950,20036 4933,20025 4916,20014 4899,20002 4884,19989 4899,19974 4912,19957 4924,19940 4935,19922 4945,19903 4953,19883 L 4934,19872 Z" />
                </g>
            </g>
            <g class="com.sun.star.drawing.ClosedBezierShape">
                <g id="id44">
                    <rect class="BoundingBox" stroke="none" fill="none" x="5042" y="19860" width="334" height="358" />
                    <path fill="rgb(51,51,51)" stroke="none"
                        d="M 5350,19861 L 5344,19863 5042,19863 5042,19894 5315,19894 C 5302,19908 5286,19922 5269,19936 5252,19951 5234,19963 5216,19974 L 5195,19974 5195,20175 C 5196,20179 5195,20182 5193,20183 5191,20185 5188,20186 5183,20186 5178,20186 5168,20186 5154,20186 5140,20186 5124,20186 5106,20185 5109,20190 5112,20195 5114,20200 5117,20206 5118,20211 5119,20216 5140,20216 5158,20216 5173,20215 5187,20215 5198,20214 5206,20211 5214,20209 5220,20205 5223,20200 5227,20194 5229,20186 5228,20176 L 5228,20001 C 5255,19986 5281,19967 5307,19946 5333,19924 5356,19902 5375,19879 L 5350,19861 Z" />
                </g>
            </g>
        </g>
        <g class="com.sun.star.drawing.OpenBezierShape">
            <g id="id45">
                <rect class="BoundingBox" stroke="none" fill="none" x="4874" y="18982" width="254" height="519" />
                <path fill="none" stroke="rgb(51,51,51)" stroke-width="35" stroke-linejoin="round"
                    d="M 5000,19000 L 5000,19353" />
                <path fill="rgb(51,51,51)" stroke="none" d="M 5126,19336 L 5000,19500 4874,19336 5126,19336 Z" />
            </g>
        </g>
        <g class="Group">
            <g class="com.sun.star.drawing.ClosedBezierShape">
                <g id="id46">
                    <rect class="BoundingBox" stroke="none" fill="none" x="5331" y="17024" width="226" height="311" />
                    <path fill="rgb(51,51,51)" stroke="none"
                        d="M 5424,17334 L 5463,17334 5463,17214 5556,17024 5515,17024 5475,17112 C 5471,17123 5466,17134 5460,17145 5455,17157 5450,17168 5445,17179 L 5443,17179 C 5437,17168 5432,17157 5427,17145 5423,17134 5418,17123 5413,17112 L 5373,17024 5331,17024 5424,17214 5424,17334 Z" />
                </g>
            </g>
            <g class="com.sun.star.drawing.ClosedBezierShape">
                <g id="id47">
                    <rect class="BoundingBox" stroke="none" fill="none" x="5560" y="17098" width="196" height="242" />
                    <path fill="rgb(51,51,51)" stroke="none"
                        d="M 5670,17339 C 5685,17339 5700,17336 5712,17332 5725,17328 5736,17322 5746,17315 L 5732,17290 C 5724,17296 5715,17300 5705,17303 5696,17306 5686,17308 5675,17308 5652,17308 5634,17301 5621,17286 5607,17272 5599,17253 5598,17228 L 5753,17228 C 5754,17225 5754,17222 5754,17218 5755,17214 5755,17210 5755,17206 5755,17173 5747,17147 5731,17127 5715,17108 5693,17098 5663,17098 5636,17098 5612,17109 5592,17131 5572,17152 5561,17181 5560,17219 5561,17257 5572,17287 5592,17307 5613,17328 5639,17339 5670,17339 Z M 5598,17200 C 5601,17177 5608,17160 5620,17148 5633,17135 5647,17129 5664,17129 5682,17129 5696,17135 5706,17147 5716,17159 5721,17177 5721,17200 L 5598,17200 Z" />
                </g>
            </g>
            <g class="com.sun.star.drawing.ClosedBezierShape">
                <g id="id48">
                    <rect class="BoundingBox" stroke="none" fill="none" x="5784" y="17098" width="171" height="242" />
                    <path fill="rgb(51,51,51)" stroke="none"
                        d="M 5870,17339 C 5897,17338 5918,17332 5932,17319 5947,17306 5954,17290 5954,17271 5953,17250 5946,17234 5932,17224 5917,17214 5901,17207 5884,17201 5870,17196 5859,17191 5849,17186 5839,17180 5834,17172 5834,17161 5834,17152 5837,17144 5844,17138 5851,17131 5862,17128 5877,17128 5887,17128 5896,17130 5905,17134 5913,17137 5922,17142 5929,17148 L 5948,17123 C 5939,17116 5928,17110 5916,17106 5904,17101 5891,17098 5877,17098 5851,17098 5832,17105 5818,17117 5804,17129 5797,17144 5797,17163 5798,17182 5805,17196 5819,17206 5832,17216 5847,17224 5864,17229 5878,17234 5890,17239 5900,17246 5911,17252 5916,17261 5917,17273 5917,17283 5913,17292 5906,17299 5898,17305 5887,17309 5871,17309 5858,17309 5845,17306 5834,17302 5823,17297 5813,17290 5803,17282 L 5784,17307 C 5795,17317 5808,17324 5823,17330 5838,17336 5854,17339 5870,17339 Z" />
                </g>
            </g>
        </g>
        <g class="com.sun.star.drawing.OpenBezierShape">
            <g id="id49">
                <rect class="BoundingBox" stroke="none" fill="none" x="7682" y="15982" width="2445" height="319" />
                <path fill="none" stroke="rgb(51,51,51)" stroke-width="35" stroke-linejoin="round"
                    d="M 7700,16000 L 10000,16000 10000,16001 10000,16153" />
                <path fill="rgb(51,51,51)" stroke="none" d="M 10126,16136 L 10000,16300 9874,16136 10126,16136 Z" />
            </g>
        </g>
        <g class="com.sun.star.drawing.OpenBezierShape">
            <g id="id50">
                <rect class="BoundingBox" stroke="none" fill="none" x="5000" y="17282" width="5019" height="446" />
                <path fill="none" stroke="rgb(51,51,51)" stroke-width="35" stroke-linejoin="round"
                    d="M 10000,17300 L 10000,17600 9986,17600 5147,17600" />
                <path fill="rgb(51,51,51)" stroke="none" d="M 5164,17726 L 5000,17600 5164,17474 5164,17726 Z" />
            </g>
        </g>
        <g class="Group">
            <g class="com.sun.star.drawing.ClosedBezierShape">
                <g id="id51">
                    <rect class="BoundingBox" stroke="none" fill="none" x="7811" y="15524" width="222" height="311" />
                    <path fill="rgb(51,51,51)" stroke="none"
                        d="M 7811,15834 L 7848,15834 7848,15671 C 7848,15655 7847,15639 7846,15623 7845,15606 7844,15591 7843,15575 L 7845,15575 7879,15639 7992,15834 8032,15834 8032,15524 7995,15524 7995,15685 C 7995,15701 7996,15718 7997,15735 7998,15751 7999,15767 8000,15783 L 7998,15783 7965,15719 7851,15524 7811,15524 7811,15834 Z" />
                </g>
            </g>
            <g class="com.sun.star.drawing.ClosedBezierShape">
                <g id="id52">
                    <rect class="BoundingBox" stroke="none" fill="none" x="8096" y="15598" width="214" height="242" />
                    <path fill="rgb(51,51,51)" stroke="none"
                        d="M 8202,15839 C 8231,15839 8256,15828 8277,15808 8297,15787 8308,15757 8309,15719 8308,15680 8297,15651 8277,15630 8256,15609 8231,15598 8202,15598 8173,15598 8149,15609 8128,15630 8108,15651 8097,15680 8096,15719 8097,15757 8108,15787 8128,15808 8149,15828 8173,15839 8202,15839 Z M 8202,15807 C 8182,15807 8166,15799 8154,15783 8142,15767 8136,15746 8136,15719 8136,15692 8142,15671 8154,15655 8166,15639 8182,15630 8202,15630 8222,15630 8239,15639 8251,15655 8263,15671 8269,15692 8269,15719 8269,15746 8263,15767 8251,15783 8239,15799 8222,15807 8202,15807 Z" />
                </g>
            </g>
        </g>
    </g>
</svg>
