<svg xmlns="http://www.w3.org/2000/svg" xmlns:xlink="http://www.w3.org/1999/xlink" width="838.853" height="372.919" viewBox="0 0 838.853 372.919"><defs><path id="a" d="M.469-.039q-.002.015-.008.027L.138.661C.133.673.123.692.097.692A.04.04 0 0 1 .055.65Q.057.635.063.623L.386-.05c.005-.012.015-.031.041-.031.024 0 .042.02.042.042"/><path id="b" d="M.413.507C.414.53.398.539.368.559l-.09.058a.03.03 0 0 1-.032 0L.156.559C.127.539.11.529.111.507q0-.032.04-.032c.009 0 .032.014.043.02l.068.043L.33.496C.343.488.364.475.373.475q.04 0 .04.032"/><path id="c" d="M.469.174C.469.224.442.322.3.351V.54C.328.534.365.521.38.483A.05.05 0 0 1 .366.448c0-.026.02-.05.051-.05.024 0 .052.013.052.055C.469.53.415.603.3.615v.03C.3.662.299.691.263.691.226.692.225.663.225.644v-.03C.117.598.055.522.055.448c0-.024.006-.132.17-.165V.072C.189.079.157.098.143.137.15.143.158.153.158.174a.05.05 0 0 1-.051.052C.097.226.055.222.055.17c0-.083.057-.16.17-.174v-.029c0-.019.001-.048.038-.048.036 0 .037.029.037.048v.03c.119.022.169.108.169.177M.225.367C.175.378.131.41.131.452c0 .041.04.075.094.086zM.393.17C.393.127.356.086.3.074v.193C.357.253.393.215.393.171"/><path id="d" d="M.215.554c0 .081-.043.138-.093.138S.029.633.029.554c0-.081.043-.138.093-.138s.093.059.093.138M.44.65a.04.04 0 0 1-.042.042C.371.692.362.672.356.655L.09-.015C.086-.026.084-.031.084-.04c0-.023.019-.042.042-.042.028 0 .036.02.041.033l.267.674C.438.637.44.642.44.65M.495.057c0 .077-.041.137-.093.137S.309.134.309.057.35-.08.402-.08s.093.06.093.138M.144.554C.144.517.132.492.122.492S.1.517.1.554C.1.59.111.616.122.616S.144.59.144.554m.28-.497C.424.02.412-.005.402-.005S.38.019.38.057c0 .037.012.061.022.061S.424.094.424.058"/><path id="e" d="M.44.551C.44.615.356.617.338.617.256.617.178.57.178.48V.436h-.09C.069.436.04.434.04.398S.069.361.087.361h.091V.075H.087C.069.075.039.074.039.038.039.001.069 0 .087 0h.264c.018 0 .048.001.048.037 0 .037-.03.038-.048.038H.26v.286h.112c.017 0 .046.001.046.037 0 .037-.027.038-.046.038H.26v.038c0 .063.052.068.081.068C.345.528.358.5.39.5a.05.05 0 0 1 .05.051"/><path id="f" d="M.514.573c0 .037-.03.038-.047.038H.39c-.019 0-.047 0-.047-.038C.343.537.372.536.39.536h.015L.354.13.309.345C.299.373.272.373.262.373.25.373.228.373.216.346L.17.13.119.536h.015c.018 0 .047.001.047.037C.181.61.153.611.134.611H.057C.04.611.01.611.01.573c0-.03.024-.036.038-.037L.117.033c.006-.04.034-.04.048-.04.01 0 .033 0 .045.024l.053.24.05-.235c.008-.029.038-.03.046-.03.014 0 .042 0 .048.041l.069.503c.015.001.038.006.038.037"/><path id="g" d="M.47-.043c0 .035-.03.037-.041.037-.124.003-.125.032-.125.06v.157a.1.1 0 0 1-.05.094c.036.025.05.057.05.08v.191c.001.052.1.041.132.041.008 0 .034.007.034.037C.47.691.442.692.421.692.35.692.223.675.222.587L.221.416c0-.031 0-.044-.03-.058A.3.3 0 0 0 .088.343.036.036 0 0 1 .054.306C.054.27.083.268.095.268.119.267.219.263.221.218V.058c0-.031.001-.077.055-.108a.3.3 0 0 1 .145-.03c.021 0 .049 0 .049.038"/><path id="h" d="M.491.201c0 .04-.04.042-.054.042H.382L.398.37h.039c.014 0 .054.002.054.042 0 .041-.04.042-.054.042H.409l.013.103C.428.6.399.611.381.611.345.611.339.578.338.564L.324.454H.24l.012.102C.258.6.229.611.211.611.175.611.17.578.168.564L.155.454H.087C.073.453.033.451.033.41S.073.37.087.37h.056L.127.243h-.04C.073.243.033.241.033.201S.073.16.087.16h.029L.101.042C.101.02.118 0 .143 0c.035 0 .041.033.043.047l.015.112h.084L.271.042C.271.02.288 0 .313 0c.035 0 .04.033.042.047L.37.159h.067C.451.16.491.16.491.201M.313.37.297.243H.212L.228.37z"/><path id="i" d="M.319.558c0 .06-.047.064-.057.064S.205.618.205.558l.01-.346C.216.181.246.179.262.179c.041 0 .045.009.048.055zm0-.501a.056.056 0 0 1-.057.056.056.056 0 0 1-.057-.056C.205.025.23 0 .262 0s.057.025.057.057"/><path id="j" d="M.451.131c0 .021 0 .045-.042.045C.37.176.369.152.369.132.368.078.318.07.297.07.23.07.23.115.23.136v.225h.152C.4.361.429.362.429.398c0 .037-.028.038-.047.038H.23v.072C.23.53.229.555.189.555.148.555.147.531.147.508V.436H.07C.051.436.023.434.023.398S.051.361.069.361h.078v-.23c0-.099.07-.137.146-.137S.451.04.451.131"/><path id="k" d="M.47.218C.47.345.375.444.262.444S.054.345.054.218c0-.128.097-.224.208-.224S.47.091.47.218M.387.225C.387.14.33.07.262.07S.137.14.137.225c0 .084.06.144.125.144C.328.37.387.31.387.225"/><path id="l" d="M.514.038c0 .036-.03.037-.047.037H.431v.488C.431.6.424.611.384.611H.313c-.019 0-.048 0-.048-.038 0-.036.03-.037.047-.037h.036v-.13a.18.18 0 0 1-.106.035C.132.441.034.346.034.217c0-.125.092-.223.199-.223A.17.17 0 0 1 .348.04C.35.011.356 0 .395 0h.071c.019 0 .048.001.048.038M.347.197C.347.147.306.069.236.069.17.07.116.135.116.217c0 .09.064.15.129.15.058 0 .102-.05.102-.1z"/><path id="m" d="M.47.305C.47.34.441.343.429.343c-.022 0-.123.005-.125.05v.162c0 .03-.001.076-.055.107a.3.3 0 0 1-.146.03c-.02 0-.049 0-.049-.038 0-.032.023-.037.04-.037C.22.615.221.585.221.555V.4c0-.04.013-.07.049-.093A.1.1 0 0 1 .221.225V.052C.221.025.22-.004.088-.006a.036.036 0 0 1-.034-.037c0-.037.029-.038.049-.038.089 0 .2.039.2.105l.001.17c0 .032 0 .045.03.059.034.014.08.015.102.015.008 0 .034.007.034.037"/><path id="n" d="M.35.64C.35.662.329.679.312.679.287.679.177.609.177.48c0-.08.041-.118.084-.118.037 0 .058.03.058.056a.056.056 0 0 1-.057.057C.256.476.256.475.252.474c0 .048.02.099.066.128.02.012.032.02.032.038"/><path id="o" d="M.476.305c0 .187-.104.317-.214.317C.15.622.048.49.048.306.048.12.152-.01.262-.01c.112 0 .214.133.214.316M.394.316C.394.177.335.064.262.064S.13.177.13.316c0 .137.063.231.132.231.068 0 .132-.094.132-.23"/><path id="p" d="M.509.037c0 .033-.02.038-.052.038v.461c.032 0 .052.005.052.038C.509.61.48.611.462.611H.407C.363.611.357.596.347.567L.262.301l-.09.282C.16.61.133.611.117.611H.062c-.018 0-.047 0-.047-.037 0-.033.02-.038.052-.038V.075C.035.075.015.07.015.037.015.001.044 0 .062 0h.08C.16 0 .189.001.189.037c0 .033-.02.038-.051.038v.408L.226.218A.05.05 0 0 1 .262.2C.277.2.294.21.303.225l.084.258V.075C.355.075.335.07.335.037.335.001.364 0 .382 0h.08C.48 0 .509.001.509.037"/><path id="q" d="M.482.573C.482.61.455.611.435.611H.119C.11.626.092.627.083.627.043.627.042.601.042.58V.54C.042.514.043.49.083.49.12.49.124.508.125.536h.231A.76.76 0 0 1 .165.043c0-.016.001-.054.041-.054.021 0 .041.013.041.047a.7.7 0 0 0 .211.498c.023.02.024.023.024.039"/><path id="r" d="M.347.493c0 .081-.041.118-.084.118A.056.056 0 0 1 .205.555c0-.03.023-.057.057-.057.006 0 .006 0 .01.002A.15.15 0 0 0 .206.372C.186.36.174.352.174.334c0-.022.021-.04.038-.04.025 0 .135.07.135.199"/><path id="s" d="M.473.313c0 .241-.113.31-.208.31A.21.21 0 0 1 .051.414C.051.3.14.21.251.21a.22.22 0 0 1 .136.045C.371.148.302.065.217.065a.1.1 0 0 0-.053.01A.1.1 0 0 1 .169.1a.05.05 0 0 1-.05.051C.09.151.067.132.067.097c0-.033.018-.108.15-.108s.256.125.256.324M.382.387c0-.05-.05-.1-.126-.1-.074 0-.123.06-.123.128 0 .08.066.132.132.132.082 0 .117-.092.117-.16"/><path id="t" d="M.402.56C.405.613.366.622.351.622.329.622.296.61.299.56L.312.362C.313.344.318.32.351.32c.03 0 .037.021.038.041zm-.177 0C.228.612.189.621.174.621.152.622.119.61.122.56L.135.362C.136.344.141.32.174.32c.03 0 .037.021.038.041z"/><path id="u" d="M.498.573C.498.61.47.611.451.611H.348c-.019 0-.047 0-.047-.038C.301.537.33.536.348.536h.016V.124L.199.571c-.013.036-.03.04-.06.04H.073c-.018 0-.047 0-.047-.037S.054.536.073.536H.09V.075H.073C.055.075.026.074.026.038.026.001.054 0 .073 0h.103c.018 0 .047.001.047.037 0 .037-.028.038-.047.038H.16v.412L.325.04C.339.001.357 0 .386 0c.035 0 .048.004.048.048v.488h.017c.018 0 .047.001.047.037"/><path id="v" d="M.356.306a.45.45 0 0 1-.08.257c-.053.074-.13.13-.154.13A.036.036 0 0 1 .084.656C.084.64.097.63.103.627a.38.38 0 0 0 .171-.32.38.38 0 0 0-.165-.316C.092-.021.084-.027.084-.045c0-.01.007-.035.038-.035.029 0 .234.13.234.386"/><path id="w" d="M.504.037c0 .037-.028.038-.047.038H.44v.461h.017c.018 0 .047.001.047.037C.504.61.476.611.457.611H.341c-.018 0-.047 0-.047-.037S.322.536.341.536h.016v-.18h-.19v.18h.016C.201.536.23.537.23.573.23.61.202.611.183.611H.067C.048.611.02.611.02.573.02.537.049.536.067.536h.017V.075H.067C.048.075.02.074.02.037.02.001.049 0 .067 0h.116C.201 0 .23.001.23.037.23.074.202.075.183.075H.167V.28h.19V.075H.341C.323.075.294.074.294.038.294.001.322 0 .341 0h.116c.018 0 .047.001.047.037"/><path id="x" d="M.445.037c0 .037-.027.038-.046.038H.318v.499c0 .019-.002.048-.037.048C.258.622.25.608.244.594.21.516.162.504.145.503.126.502.102.498.102.465c0-.031.021-.037.039-.037s.054.005.094.034V.075H.154C.135.075.107.074.107.037.107.001.136 0 .154 0h.245c.018 0 .046.001.046.037"/><path id="y" d="M.497.202C.497.239.469.24.45.24H.382v.335c0 .038-.008.048-.048.048H.307C.28.623.274.621.259.599L.037.25C.027.236.027.233.027.211c0-.038.011-.046.047-.046h.238v-.09H.259C.24.075.212.074.212.037.212.001.241 0 .259 0h.175c.018 0 .047.001.047.037 0 .037-.027.038-.047.038H.382v.09H.45c.018 0 .047.001.047.037M.31.24H.116L.31.545z"/><path id="z" d="M.352.032C.352.097.31.137.263.137A.066.066 0 0 1 .194.069C.194.027.226 0 .262 0L.27.001C.254-.046.217-.058.207-.062.195-.065.174-.072.174-.096c0-.019.019-.039.039-.039.033 0 .139.054.139.167"/><path id="A" d="M.487.301c0 .161-.088.31-.221.31H.065c-.019 0-.048 0-.048-.038 0-.036.03-.037.048-.037h.014V.075H.065C.046.075.017.074.017.037.017.001.047 0 .065 0h.201c.131 0 .221.14.221.301m-.082 0C.405.191.352.075.248.075H.162v.461h.086C.354.536.405.41.405.301"/><path id="B" d="M.492.492v.071C.492.6.485.611.445.611H.074c-.019 0-.048 0-.048-.038 0-.036.03-.037.048-.037h.024V.075H.074C.055.075.026.074.026.037.026.001.056 0 .074 0h.15c.018 0 .047.001.047.037 0 .037-.028.038-.047.038H.181v.194h.117C.298.227.302.212.34.212c.04 0 .041.026.041.049v.09C.381.375.38.4.34.4.302.4.298.385.298.344H.181v.192h.228V.492C.409.47.41.444.45.444c.041 0 .042.025.042.048"/><path id="C" d="M.488.38c0 .04-.041.042-.057.042H.093C.077.422.036.42.036.38c0-.041.038-.042.052-.042h.348c.014 0 .052 0 .052.042m0-.149C.488.272.45.273.436.273H.088c-.014 0-.052 0-.052-.042C.036.191.077.19.093.19h.338c.016 0 .057.002.057.042"/><path id="D" d="M.483.048v.089C.483.16.482.185.442.185.401.185.4.161.4.137V.075H.155l.312.461C.478.552.478.56.478.57c0 .04-.025.041-.047.041H.105C.067.611.057.602.057.563v-.07C.057.47.058.443.098.443.14.444.14.47.14.492v.044h.229L.057.075C.046.059.046.052.046.041.046.001.071 0 .093 0h.343c.039 0 .047.01.047.048"/><path id="E" d="M.331.366a.07.07 0 0 1-.068.07.069.069 0 0 1-.001-.138c.042 0 .069.034.069.068M.336.034c0 .07-.034.103-.074.103A.066.066 0 0 1 .194.069C.194.041.21.005.256 0 .242-.04.211-.057.198-.064.19-.068.174-.077.174-.096s.018-.039.039-.039c.023 0 .123.054.123.17"/><path id="F" d="M.492.398c0 .037-.028.038-.047.038h-.09C.338.436.309.434.309.4c0-.03.018-.037.036-.038a2 2 0 0 0-.074-.18 1 1 0 0 0-.062.115C.306.4.306.458.306.48c0 .064-.024.142-.098.142C.157.622.099.576.099.473Q.098.41.125.317C.111.302.066.251.063.25A.17.17 0 0 1 .026.141c0-.078.049-.152.128-.152.05 0 .09.03.121.064C.294.031.335-.01.389-.01c.069 0 .1.071.1.121 0 .041-.035.04-.035.04C.422.15.419.12.419.112.415.076.402.064.389.064.358.064.328.1.316.114c.02.033.038.076.048.1L.42.361h.025c.018 0 .047.001.047.037M.234.48C.234.455.219.425.179.38a.5.5 0 0 0-.011.093c0 .05.02.074.039.074C.234.547.234.488.234.48M.228.113C.195.07.165.064.152.064c-.039 0-.045.057-.045.08 0 .041.009.054.046.096C.178.19.206.144.228.113"/><path id="G" d="M.474.193a.2.2 0 0 1-.197.202.3.3 0 0 1-.11-.024v.165h.227C.411.536.44.537.44.573.44.61.413.611.394.611H.131C.093.611.085.601.085.563V.304c0-.02.001-.048.039-.048.021 0 .026.006.035.018Q.196.32.276.32C.351.32.392.252.392.193.392.12.326.064.248.064c-.024 0-.08.007-.107.053A.05.05 0 0 1 .152.15a.05.05 0 0 1-.051.052C.084.201.05.191.05.146.05.062.134-.01.248-.01c.127 0 .226.092.226.204"/><path id="H" d="M.49.218C.49.343.399.441.292.441A.2.2 0 0 1 .175.402C.174.425.165.436.129.436H.058C.039.436.01.434.01.398S.04.361.057.361h.036V-.14H.058C.039-.14.01-.14.01-.179c0-.036.03-.037.047-.037h.155c.017 0 .047.001.047.037 0 .037-.029.038-.048.038H.176v.175a.16.16 0 0 1 .105-.04c.11 0 .209.096.209.224m-.082 0C.408.13.344.07.279.07.208.07.177.15.177.194v.071c0 .054.053.101.11.101.068 0 .121-.068.121-.148"/><path id="I" d="M.474.048v.025c0 .023 0 .048-.04.048C.396.121.392.103.392.075H.189c.057.049.138.113.177.148.063.056.108.121.108.201 0 .121-.101.198-.225.198C.129.622.05.538.05.451A.05.05 0 0 1 .101.397c.024 0 .051.019.051.051A.06.06 0 0 1 .14.482c.015.04.056.065.104.065C.32.547.392.505.392.424.392.358.345.303.282.252L.067.07C.056.061.05.055.05.038.05.001.078 0 .097 0h.331c.038 0 .046.01.046.048"/><path id="J" d="M.521.038c0 .036-.029.037-.047.037a.2.2 0 0 0-.051.006v.205c0 .072-.054.158-.2.158C.178.444.074.441.074.365c0-.034.024-.052.051-.052.017 0 .05.01.051.053L.224.37C.29.37.337.344.34.285.167.281.048.228.048.133c0-.07.064-.139.169-.139.035 0 .094.007.14.035C.382.002.427 0 .464 0c.033 0 .057.002.057.038m-.182.1C.339.119.339.1.306.085.272.069.23.069.222.069.167.07.13.1.13.133c0 .044.079.074.209.08z"/><path id="K" d="M.482.177A.18.18 0 0 1 .38.334a.18.18 0 0 1 .074.143C.454.552.38.622.263.622.14.622.07.57.07.5.07.462.099.446.122.446c.024 0 .05.02.05.052a.1.1 0 0 1-.006.025c.03.024.09.024.098.024.061 0 .107-.03.107-.07a.1.1 0 0 0-.038-.08A.12.12 0 0 0 .247.37C.184.37.169.361.169.33c0-.037.028-.038.047-.038h.045c.091 0 .138-.06.138-.114C.399.121.347.064.264.064c-.036 0-.103.01-.13.048q.009.008.01.031a.05.05 0 0 1-.051.051C.067.194.042.177.042.14c0-.09.097-.15.222-.15.133 0 .218.093.218.187"/><path id="L" d="M.441-.045c0 .018-.007.023-.027.037a.38.38 0 0 0-.163.314c0 .095.037.228.165.315.018.013.025.018.025.036 0 .01-.005.035-.038.035C.374.692.169.562.169.306A.45.45 0 0 1 .249.05c.053-.074.13-.13.154-.13.033 0 .038.026.038.036"/><path id="M" d="M.481.574c0 .036-.03.037-.048.037H.256c-.017 0-.047 0-.047-.037S.239.536.256.536h.073V.144c0-.076-.074-.08-.091-.08-.007 0-.046 0-.072.02a.1.1 0 0 1 .005.023.05.05 0 0 1-.051.051C.094.158.068.141.068.104c0-.065.067-.115.17-.115.091 0 .173.056.173.15v.397h.022c.019 0 .048.001.048.038"/><path id="N" d="M.49.048v.086C.49.158.489.182.449.182.408.182.407.16.407.134V.075H.188v.461h.047c.016 0 .047.001.047.037 0 .037-.03.038-.047.038H.077C.058.611.03.611.03.573.03.537.059.536.077.536h.028V.075H.077C.058.075.03.074.03.037.03.001.059 0 .077 0h.366C.482 0 .49.01.49.048"/><path id="O" d="M.482.086C.482.12.449.121.437.121.418.121.414.121.403.11A.14.14 0 0 0 .304.07C.202.07.112.171.112.305c0 .14.094.237.191.237A.09.09 0 0 0 .38.498a.1.1 0 0 1-.046.01C.253.508.185.42.185.306c0-.12.073-.202.148-.202.05 0 .149.042.149.217C.482.386.48.617.303.617.167.617.042.487.042.307s.123-.313.263-.313c.092 0 .177.062.177.092m-.068.22C.414.23.375.178.336.178.293.179.257.234.257.305c0 .076.04.128.078.128.041 0 .079-.054.079-.128"/><path id="P" d="M.484.171a.16.16 0 0 1-.11.15.15.15 0 0 1 .089.131c0 .075-.061.16-.175.16h-.22C.051.611.021.61.021.573.021.537.05.536.069.536h.018V.075H.069C.05.075.021.074.021.037.021.001.051 0 .068 0h.24c.115 0 .176.091.176.171m-.103.28C.381.414.352.355.263.355H.171v.181h.114C.361.536.381.481.381.451M.402.172C.402.128.366.075.287.075H.171V.28h.127C.375.28.402.213.402.172"/><path id="Q" d="M.331.068a.07.07 0 0 1-.068.069.07.07 0 0 1-.069-.068C.194.029.227 0 .262 0c.042 0 .069.034.069.068"/><path id="R" d="M.507.573C.507.61.479.611.46.611H.358c-.017 0-.046 0-.046-.037 0-.03.018-.037.04-.038L.263.333.172.536c.022.001.04.007.04.038C.212.61.183.611.166.611H.064c-.018 0-.047 0-.047-.037S.045.536.064.536H.08L.221.244V.075H.205C.187.075.158.074.158.038.158.001.185 0 .205 0H.32c.018 0 .047.001.047.037C.367.074.34.075.32.075H.304v.17l.14.291H.46c.018 0 .047.001.047.037"/><path id="S" d="M.5.492v.071C.5.6.493.611.453.611H.072C.034.611.024.602.024.563v-.07C.024.47.025.443.065.443c.041 0 .042.025.042.048v.044h.114V.075H.178C.16.075.131.074.131.038.131.001.159 0 .178 0h.169c.018 0 .047.001.047.037 0 .037-.028.038-.047.038H.304v.461h.113V.492C.417.47.418.444.458.444.499.444.5.47.5.492"/><path id="T" d="M.467.114c0 .034-.035.035-.042.035C.403.149.394.145.385.123.365.077.316.069.291.069a.155.155 0 0 0-.152.117H.42c.025 0 .047 0 .047.044C.467.345.401.444.27.444A.22.22 0 0 1 .052.22c0-.123.102-.225.232-.225.136 0 .183.094.183.12M.381.26H.14c.016.063.068.11.13.11.046 0 .1-.023.111-.11"/><path id="U" d="M.331.366a.07.07 0 0 1-.068.07.069.069 0 0 1-.001-.138c.042 0 .069.034.069.068m0-.298a.07.07 0 0 1-.068.069.07.07 0 0 1-.069-.068C.194.029.227 0 .262 0c.042 0 .069.034.069.068"/><path id="V" d="M.513.037c0 .037-.028.038-.047.038H.431v.218c0 .104-.053.148-.135.148A.2.2 0 0 1 .176.4C.175.424.168.436.129.436H.058C.039.436.011.434.011.398S.041.361.057.361h.036V.075H.058C.039.075.011.074.011.037.011.001.041 0 .057 0h.155c.017 0 .047.001.047.037C.259.074.23.075.211.075H.176V.24c0 .091.068.126.114.126.047 0 .058-.025.058-.078V.075h-.03C.299.075.27.074.27.037.27.001.301 0 .318 0h.149c.016 0 .046.001.046.037"/><path id="W" d="M.462.13c0 .106-.131.13-.164.134L.197.282C.171.288.144.3.144.322S.175.37.26.37C.333.37.347.345.35.322c.001-.02.004-.04.041-.04.041 0 .042.024.042.047v.068c0 .02-.002.047-.037.047C.374.444.366.435.362.427.32.444.28.444.262.444.091.444.069.358.069.322c0-.094.105-.114.199-.128C.312.187.387.175.387.13.387.096.352.07.27.07.227.07.176.08.153.15.147.172.142.184.111.184.07.184.069.16.069.136V.042c0-.019.001-.048.037-.048.01 0 .027 0 .04.033a.2.2 0 0 1 .123-.033c.161 0 .193.087.193.136"/><path id="X" d="M.522.037C.522.07.503.075.467.075v.228c0 .021-.002.138-.095.138A.13.13 0 0 1 .277.397a.09.09 0 0 1-.075.044.13.13 0 0 1-.079-.028C.116.435.097.436.079.436H.048C.03.436 0 .434 0 .4 0 .366.019.361.055.361V.075C.019.075 0 .07 0 .037 0 .001.031 0 .048 0h.085c.018 0 .045.001.045.037C.178.07.162.075.126.075v.167c0 .08.034.124.072.124C.217.366.226.35.226.294V.075C.205.074.186.069.186.037.186.001.214 0 .231 0h.073c.018 0 .045.001.045.037C.349.07.332.075.296.075v.167c0 .08.035.124.072.124.02 0 .028-.016.028-.072V.075C.376.074.357.069.357.037.357.001.385 0 .401 0h.073c.018 0 .048.001.048.037"/><path id="Y" d="M.497.037c0 .034-.023.038-.054.038L.285.356l.143.18c.038 0 .059.004.059.038C.487.61.456.611.439.611H.354c-.018 0-.048 0-.048-.038C.306.547.323.54.338.537L.156.307v.23h.013c.018 0 .048 0 .048.036C.217.61.188.611.169.611H.072c-.018 0-.048 0-.048-.037S.053.536.072.536h.014V.075H.072C.054.075.024.074.024.038.024.001.053 0 .072 0h.097c.018 0 .048.001.048.037 0 .037-.029.038-.048.038H.156v.12l.081.102.125-.223C.346.073.328.066.328.038.328.001.357 0 .376 0h.073c.018 0 .048.001.048.037"/><path id="Z" d="M.469.114C.469.148.434.15.427.15.408.15.396.147.387.123.382.111.362.07.298.07a.147.147 0 0 0-.145.15c0 .044.026.15.151.15L.355.368C.356.328.378.313.405.313s.052.019.052.052c0 .076-.106.08-.153.08A.223.223 0 0 1 .07.217c0-.12.095-.224.222-.224.143 0 .177.103.177.12"/><path id="aa" d="M.471.306c0 .04-.04.042-.054.042h-.31C.093.348.053.347.053.306S.093.264.107.264h.31c.014 0 .054 0 .054.042"/><path id="ab" d="M.482.177c0 .07-.054.126-.12.152.069.03.107.076.107.13C.469.54.383.621.262.621.14.622.055.54.055.458c0-.053.039-.1.107-.129C.095.303.042.247.042.177c0-.098.093-.188.22-.188.128 0 .22.09.22.188m-.096.28c0-.052-.058-.09-.124-.09s-.124.04-.124.09c0 .047.052.09.124.09.071 0 .124-.043.124-.09M.399.178C.399.115.338.064.262.064S.125.115.125.178c0 .056.053.113.137.113S.399.234.399.178"/><path id="ac" d="M.49.218C.49.343.399.441.292.441A.2.2 0 0 1 .176.403v.16C.176.6.169.611.129.611H.058C.039.611.01.611.01.573.01.537.04.536.057.536h.036V.048C.093.024.094 0 .135 0c.031 0 .039.014.04.034a.16.16 0 0 1 .106-.04c.11 0 .209.096.209.224m-.082 0C.408.13.344.07.279.07.208.07.177.15.177.194v.071c0 .054.053.101.11.101.068 0 .121-.068.121-.148"/><path id="ad" d="M.459.216a.04.04 0 0 1-.017.033C.421.263.368.29.338.305L.43.356c.015.008.029.017.029.04 0 .003 0 .04-.049.04L.3.37l.002.104c0 .01-.001.048-.04.048S.222.485.222.475L.224.371.132.425c-.016.01-.019.01-.027.01-.024 0-.04-.022-.04-.04 0-.023.012-.03.028-.038l.093-.05L.094.254C.079.247.065.24.065.216c0-.004 0-.04.049-.04l.11.064L.222.136c0-.01.001-.048.04-.048s.04.038.04.048L.3.24.379.193C.407.176.41.176.419.176c.024 0 .04.022.04.04"/><path id="ae" d="M.502.398c0 .037-.028.038-.047.038H.341C.323.436.294.434.294.4c0-.037.028-.038.047-.038h.016L.262.08.167.361h.016C.201.361.23.362.23.398.23.435.202.436.183.436H.069C.05.436.022.436.022.398c0-.036.029-.037.047-.037h.024l.11-.327c.013-.038.036-.038.059-.038.021 0 .047.001.059.038l.11.327h.024c.018 0 .047.001.047.037"/></defs><use xlink:href="#a" data-text="\" transform="matrix(19.9253 0 0 -19.9253 .996 14.638)"/><use xlink:href="#b" data-text="ˆ" transform="matrix(19.9253 0 0 -19.9253 11.457 14.638)"/><use xlink:href="#b" data-text="ˆ" transform="matrix(19.9253 0 0 -19.9253 21.918 14.638)"/><use xlink:href="#c" data-text="$" transform="matrix(19.9253 0 0 -19.9253 32.378 14.638)"/><use xlink:href="#b" data-text="ˆ" transform="matrix(19.9253 0 0 -19.9253 42.84 14.638)"/><use xlink:href="#b" data-text="ˆ" transform="matrix(19.9253 0 0 -19.9253 53.3 14.638)"/><use xlink:href="#d" data-text="%" transform="matrix(19.9253 0 0 -19.9253 63.76 14.638)"/><use xlink:href="#e" data-text="f" transform="matrix(19.9253 0 0 -19.9253 74.221 14.638)"/><use xlink:href="#a" data-text="\" transform="matrix(19.9253 0 0 -19.9253 84.682 14.638)"/><use xlink:href="#f" data-text="W" transform="matrix(19.9253 0 0 -19.9253 95.143 14.638)"/><use xlink:href="#g" data-text="{" transform="matrix(19.9253 0 0 -19.9253 105.604 14.638)"/><use xlink:href="#a" data-text="\" transform="matrix(19.9253 0 0 -19.9253 116.065 14.638)"/><use xlink:href="#b" data-text="ˆ" transform="matrix(19.9253 0 0 -19.9253 126.525 14.638)"/><use xlink:href="#b" data-text="ˆ" transform="matrix(19.9253 0 0 -19.9253 136.986 14.638)"/><use xlink:href="#h" data-text="#" transform="matrix(19.9253 0 0 -19.9253 147.447 14.638)"/><use xlink:href="#b" data-text="ˆ" transform="matrix(19.9253 0 0 -19.9253 157.908 14.638)"/><use xlink:href="#b" data-text="ˆ" transform="matrix(19.9253 0 0 -19.9253 168.369 14.638)"/><use xlink:href="#i" data-text="!" transform="matrix(19.9253 0 0 -19.9253 178.83 14.638)"/><use xlink:href="#j" data-text="t" transform="matrix(19.9253 0 0 -19.9253 189.29 14.638)"/><use xlink:href="#b" data-text="ˆ" transform="matrix(19.9253 0 0 -19.9253 199.75 14.638)"/><use xlink:href="#b" data-text="ˆ" transform="matrix(19.9253 0 0 -19.9253 210.212 14.638)"/><use xlink:href="#h" data-text="#" transform="matrix(19.9253 0 0 -19.9253 220.672 14.638)"/><use xlink:href="#k" data-text="o" transform="matrix(19.9253 0 0 -19.9253 231.133 14.638)"/><use xlink:href="#l" data-text="d" transform="matrix(19.9253 0 0 -19.9253 241.594 14.638)"/><use xlink:href="#b" data-text="ˆ" transform="matrix(19.9253 0 0 -19.9253 252.055 14.638)"/><use xlink:href="#b" data-text="ˆ" transform="matrix(19.9253 0 0 -19.9253 262.516 14.638)"/><use xlink:href="#d" data-text="%" transform="matrix(19.9253 0 0 -19.9253 272.976 14.638)"/><use xlink:href="#m" data-text="}" transform="matrix(19.9253 0 0 -19.9253 283.437 14.638)"/><use xlink:href="#a" data-text="\" transform="matrix(19.9253 0 0 -19.9253 492.653 14.638)"/><use xlink:href="#f" data-text="W" transform="matrix(19.9253 0 0 -19.9253 503.114 14.638)"/><use xlink:href="#n" data-text="‘" transform="matrix(19.9253 0 0 -19.9253 513.574 14.638)"/><use xlink:href="#f" data-text="W" transform="matrix(19.9253 0 0 -19.9253 524.035 14.638)"/><use xlink:href="#o" data-text="0" transform="matrix(19.9253 0 0 -19.9253 534.496 14.638)"/><use xlink:href="#a" data-text="\" transform="matrix(19.9253 0 0 -19.9253 544.957 14.638)"/><use xlink:href="#f" data-text="W" transform="matrix(19.9253 0 0 -19.9253 555.417 14.638)"/><use xlink:href="#n" data-text="‘" transform="matrix(19.9253 0 0 -19.9253 565.878 14.638)"/><use xlink:href="#p" data-text="M" transform="matrix(19.9253 0 0 -19.9253 576.339 14.638)"/><use xlink:href="#q" data-text="7" transform="matrix(19.9253 0 0 -19.9253 586.8 14.638)"/><use xlink:href="#f" data-text="W" transform="matrix(19.9253 0 0 -19.9253 597.26 14.638)"/><use xlink:href="#f" data-text="W" transform="matrix(19.9253 0 0 -19.9253 607.721 14.638)"/><use xlink:href="#n" data-text="‘" transform="matrix(19.9253 0 0 -19.9253 618.182 14.638)"/><use xlink:href="#r" data-text="’" transform="matrix(19.9253 0 0 -19.9253 628.643 14.638)"/><use xlink:href="#o" data-text="0" transform="matrix(19.9253 0 0 -19.9253 639.103 14.638)"/><use xlink:href="#r" data-text="’" transform="matrix(19.9253 0 0 -19.9253 691.407 14.638)"/><use xlink:href="#f" data-text="W" transform="matrix(19.9253 0 0 -19.9253 701.868 14.638)"/><use xlink:href="#n" data-text="‘" transform="matrix(19.9253 0 0 -19.9253 712.329 14.638)"/><use xlink:href="#p" data-text="M" transform="matrix(19.9253 0 0 -19.9253 722.79 14.638)"/><use xlink:href="#p" data-text="M" transform="matrix(19.9253 0 0 -19.9253 733.25 14.638)"/><use xlink:href="#n" data-text="‘" transform="matrix(19.9253 0 0 -19.9253 743.711 14.638)"/><use xlink:href="#s" data-text="9" transform="matrix(19.9253 0 0 -19.9253 754.172 14.638)"/><use xlink:href="#f" data-text="W" transform="matrix(19.9253 0 0 -19.9253 764.633 14.638)"/><use xlink:href="#f" data-text="W" transform="matrix(19.9253 0 0 -19.9253 775.093 14.638)"/><use xlink:href="#n" data-text="‘" transform="matrix(19.9253 0 0 -19.9253 785.554 14.638)"/><use xlink:href="#t" data-text="&quot;" transform="matrix(19.9253 0 0 -19.9253 796.015 14.638)"/><use xlink:href="#s" data-text="9" transform="matrix(19.9253 0 0 -19.9253 806.476 14.638)"/><use xlink:href="#f" data-text="W" transform="matrix(19.9253 0 0 -19.9253 11.457 35.56)"/><use xlink:href="#f" data-text="W" transform="matrix(19.9253 0 0 -19.9253 21.918 35.56)"/><use xlink:href="#n" data-text="‘" transform="matrix(19.9253 0 0 -19.9253 32.379 35.56)"/><use xlink:href="#u" data-text="N" transform="matrix(19.9253 0 0 -19.9253 42.84 35.56)"/><use xlink:href="#s" data-text="9" transform="matrix(19.9253 0 0 -19.9253 53.3 35.56)"/><use xlink:href="#t" data-text="&quot;" transform="matrix(19.9253 0 0 -19.9253 63.76 35.56)"/><use xlink:href="#f" data-text="W" transform="matrix(19.9253 0 0 -19.9253 126.526 35.56)"/><use xlink:href="#f" data-text="W" transform="matrix(19.9253 0 0 -19.9253 136.986 35.56)"/><use xlink:href="#n" data-text="‘" transform="matrix(19.9253 0 0 -19.9253 147.447 35.56)"/><use xlink:href="#v" data-text=")" transform="matrix(19.9253 0 0 -19.9253 157.908 35.56)"/><use xlink:href="#u" data-text="N" transform="matrix(19.9253 0 0 -19.9253 168.369 35.56)"/><use xlink:href="#t" data-text="&quot;" transform="matrix(19.9253 0 0 -19.9253 178.83 35.56)"/><use xlink:href="#t" data-text="&quot;" transform="matrix(19.9253 0 0 -19.9253 241.594 35.56)"/><use xlink:href="#s" data-text="9" transform="matrix(19.9253 0 0 -19.9253 252.055 35.56)"/><use xlink:href="#u" data-text="N" transform="matrix(19.9253 0 0 -19.9253 262.516 35.56)"/><use xlink:href="#f" data-text="W" transform="matrix(19.9253 0 0 -19.9253 272.977 35.56)"/><use xlink:href="#f" data-text="W" transform="matrix(19.9253 0 0 -19.9253 283.437 35.56)"/><use xlink:href="#n" data-text="‘" transform="matrix(19.9253 0 0 -19.9253 555.418 35.56)"/><use xlink:href="#w" data-text="H" transform="matrix(19.9253 0 0 -19.9253 565.879 35.56)"/><use xlink:href="#x" data-text="1" transform="matrix(19.9253 0 0 -19.9253 576.34 35.56)"/><use xlink:href="#y" data-text="4" transform="matrix(19.9253 0 0 -19.9253 586.8 35.56)"/><use xlink:href="#f" data-text="W" transform="matrix(19.9253 0 0 -19.9253 597.26 35.56)"/><use xlink:href="#f" data-text="W" transform="matrix(19.9253 0 0 -19.9253 607.721 35.56)"/><use xlink:href="#u" data-text="N" transform="matrix(19.9253 0 0 -19.9253 618.182 35.56)"/><use xlink:href="#n" data-text="‘" transform="matrix(19.9253 0 0 -19.9253 628.643 35.56)"/><use xlink:href="#h" data-text="#" transform="matrix(19.9253 0 0 -19.9253 722.79 35.56)"/><use xlink:href="#x" data-text="1" transform="matrix(19.9253 0 0 -19.9253 733.25 35.56)"/><use xlink:href="#o" data-text="0" transform="matrix(19.9253 0 0 -19.9253 743.712 35.56)"/><use xlink:href="#t" data-text="&quot;" transform="matrix(19.9253 0 0 -19.9253 754.172 35.56)"/><use xlink:href="#f" data-text="W" transform="matrix(19.9253 0 0 -19.9253 11.457 56.481)"/><use xlink:href="#f" data-text="W" transform="matrix(19.9253 0 0 -19.9253 21.918 56.481)"/><use xlink:href="#n" data-text="‘" transform="matrix(19.9253 0 0 -19.9253 32.379 56.481)"/><use xlink:href="#u" data-text="N" transform="matrix(19.9253 0 0 -19.9253 126.526 56.481)"/><use xlink:href="#u" data-text="N" transform="matrix(19.9253 0 0 -19.9253 136.986 56.481)"/><use xlink:href="#z" data-text="," transform="matrix(19.9253 0 0 -19.9253 147.447 56.481)"/><use xlink:href="#s" data-text="9" transform="matrix(19.9253 0 0 -19.9253 157.908 56.481)"/><use xlink:href="#u" data-text="N" transform="matrix(19.9253 0 0 -19.9253 168.369 56.481)"/><use xlink:href="#h" data-text="#" transform="matrix(19.9253 0 0 -19.9253 178.83 56.481)"/><use xlink:href="#t" data-text="&quot;" transform="matrix(19.9253 0 0 -19.9253 262.516 56.481)"/><use xlink:href="#d" data-text="%" transform="matrix(19.9253 0 0 -19.9253 272.977 56.481)"/><use xlink:href="#f" data-text="W" transform="matrix(19.9253 0 0 -19.9253 283.437 56.481)"/><use xlink:href="#z" data-text="," transform="matrix(19.9253 0 0 -19.9253 565.879 56.481)"/><use xlink:href="#f" data-text="W" transform="matrix(19.9253 0 0 -19.9253 576.34 56.481)"/><use xlink:href="#f" data-text="W" transform="matrix(19.9253 0 0 -19.9253 586.8 56.481)"/><use xlink:href="#n" data-text="‘" transform="matrix(19.9253 0 0 -19.9253 597.26 56.481)"/><use xlink:href="#A" data-text="D" transform="matrix(19.9253 0 0 -19.9253 607.722 56.481)"/><use xlink:href="#s" data-text="9" transform="matrix(19.9253 0 0 -19.9253 618.182 56.481)"/><use xlink:href="#u" data-text="N" transform="matrix(19.9253 0 0 -19.9253 628.643 56.481)"/><use xlink:href="#z" data-text="," transform="matrix(19.9253 0 0 -19.9253 639.104 56.481)"/><use xlink:href="#z" data-text="," transform="matrix(19.9253 0 0 -19.9253 701.868 56.481)"/><use xlink:href="#h" data-text="#" transform="matrix(19.9253 0 0 -19.9253 712.33 56.481)"/><use xlink:href="#p" data-text="M" transform="matrix(19.9253 0 0 -19.9253 722.79 56.481)"/><use xlink:href="#A" data-text="D" transform="matrix(19.9253 0 0 -19.9253 733.25 56.481)"/><use xlink:href="#z" data-text="," transform="matrix(19.9253 0 0 -19.9253 .996 77.403)"/><use xlink:href="#u" data-text="N" transform="matrix(19.9253 0 0 -19.9253 11.457 77.403)"/><use xlink:href="#h" data-text="#" transform="matrix(19.9253 0 0 -19.9253 21.918 77.403)"/><use xlink:href="#f" data-text="W" transform="matrix(19.9253 0 0 -19.9253 126.525 77.403)"/><use xlink:href="#l" data-text="d" transform="matrix(19.9253 0 0 -19.9253 136.986 77.403)"/><use xlink:href="#p" data-text="M" transform="matrix(19.9253 0 0 -19.9253 147.447 77.403)"/><use xlink:href="#p" data-text="M" transform="matrix(19.9253 0 0 -19.9253 157.908 77.403)"/><use xlink:href="#d" data-text="%" transform="matrix(19.9253 0 0 -19.9253 168.369 77.403)"/><use xlink:href="#e" data-text="f" transform="matrix(19.9253 0 0 -19.9253 178.83 77.403)"/><use xlink:href="#f" data-text="W" transform="matrix(19.9253 0 0 -19.9253 272.976 77.403)"/><use xlink:href="#B" data-text="F" transform="matrix(19.9253 0 0 -19.9253 283.437 77.403)"/><use xlink:href="#z" data-text="," transform="matrix(19.9253 0 0 -19.9253 293.898 77.403)"/><use xlink:href="#z" data-text="," transform="matrix(19.9253 0 0 -19.9253 576.34 77.403)"/><use xlink:href="#g" data-text="{" transform="matrix(19.9253 0 0 -19.9253 586.8 77.403)"/><use xlink:href="#f" data-text="W" transform="matrix(19.9253 0 0 -19.9253 597.26 77.403)"/><use xlink:href="#l" data-text="d" transform="matrix(19.9253 0 0 -19.9253 607.721 77.403)"/><use xlink:href="#p" data-text="M" transform="matrix(19.9253 0 0 -19.9253 618.182 77.403)"/><use xlink:href="#p" data-text="M" transform="matrix(19.9253 0 0 -19.9253 628.643 77.403)"/><use xlink:href="#d" data-text="%" transform="matrix(19.9253 0 0 -19.9253 639.104 77.403)"/><use xlink:href="#e" data-text="f" transform="matrix(19.9253 0 0 -19.9253 649.564 77.403)"/><use xlink:href="#z" data-text="," transform="matrix(19.9253 0 0 -19.9253 691.408 77.403)"/><use xlink:href="#p" data-text="M" transform="matrix(19.9253 0 0 -19.9253 701.868 77.403)"/><use xlink:href="#p" data-text="M" transform="matrix(19.9253 0 0 -19.9253 712.329 77.403)"/><use xlink:href="#C" data-text="=" transform="matrix(19.9253 0 0 -19.9253 722.79 77.403)"/><use xlink:href="#z" data-text="," transform="matrix(19.9253 0 0 -19.9253 .996 98.325)"/><use xlink:href="#u" data-text="N" transform="matrix(19.9253 0 0 -19.9253 11.457 98.325)"/><use xlink:href="#v" data-text=")" transform="matrix(19.9253 0 0 -19.9253 21.918 98.325)"/><use xlink:href="#f" data-text="W" transform="matrix(19.9253 0 0 -19.9253 126.525 98.325)"/><use xlink:href="#B" data-text="F" transform="matrix(19.9253 0 0 -19.9253 136.986 98.325)"/><use xlink:href="#f" data-text="W" transform="matrix(19.9253 0 0 -19.9253 147.447 98.325)"/><use xlink:href="#D" data-text="Z" transform="matrix(19.9253 0 0 -19.9253 157.908 98.325)"/><use xlink:href="#u" data-text="N" transform="matrix(19.9253 0 0 -19.9253 168.369 98.325)"/><use xlink:href="#t" data-text="&quot;" transform="matrix(19.9253 0 0 -19.9253 178.83 98.325)"/><use xlink:href="#t" data-text="&quot;" transform="matrix(19.9253 0 0 -19.9253 272.976 98.325)"/><use xlink:href="#u" data-text="N" transform="matrix(19.9253 0 0 -19.9253 283.437 98.325)"/><use xlink:href="#z" data-text="," transform="matrix(19.9253 0 0 -19.9253 293.898 98.325)"/><use xlink:href="#p" data-text="M" transform="matrix(19.9253 0 0 -19.9253 597.26 98.325)"/><use xlink:href="#p" data-text="M" transform="matrix(19.9253 0 0 -19.9253 607.721 98.325)"/><use xlink:href="#E" data-text=";" transform="matrix(19.9253 0 0 -19.9253 618.182 98.325)"/><use xlink:href="#u" data-text="N" transform="matrix(19.9253 0 0 -19.9253 628.643 98.325)"/><use xlink:href="#p" data-text="M" transform="matrix(19.9253 0 0 -19.9253 639.104 98.325)"/><use xlink:href="#p" data-text="M" transform="matrix(19.9253 0 0 -19.9253 649.564 98.325)"/><use xlink:href="#d" data-text="%" transform="matrix(19.9253 0 0 -19.9253 660.025 98.325)"/><use xlink:href="#z" data-text="," transform="matrix(19.9253 0 0 -19.9253 670.486 98.325)"/><use xlink:href="#m" data-text="}" transform="matrix(19.9253 0 0 -19.9253 680.947 98.325)"/><use xlink:href="#u" data-text="N" transform="matrix(19.9253 0 0 -19.9253 691.407 98.325)"/><use xlink:href="#h" data-text="#" transform="matrix(19.9253 0 0 -19.9253 701.868 98.325)"/><use xlink:href="#u" data-text="N" transform="matrix(19.9253 0 0 -19.9253 126.525 119.246)"/><use xlink:href="#f" data-text="W" transform="matrix(19.9253 0 0 -19.9253 136.986 119.246)"/><use xlink:href="#B" data-text="F" transform="matrix(19.9253 0 0 -19.9253 147.447 119.246)"/><use xlink:href="#u" data-text="N" transform="matrix(19.9253 0 0 -19.9253 157.907 119.246)"/><use xlink:href="#f" data-text="W" transform="matrix(19.9253 0 0 -19.9253 168.368 119.246)"/><use xlink:href="#F" data-text="&amp;" transform="matrix(19.9253 0 0 -19.9253 178.829 119.246)"/><use xlink:href="#g" data-text="{" transform="matrix(19.9253 0 0 -19.9253 252.054 119.246)"/><use xlink:href="#f" data-text="W" transform="matrix(19.9253 0 0 -19.9253 262.515 119.246)"/><use xlink:href="#p" data-text="M" transform="matrix(19.9253 0 0 -19.9253 272.976 119.246)"/><use xlink:href="#p" data-text="M" transform="matrix(19.9253 0 0 -19.9253 283.437 119.246)"/><use xlink:href="#G" data-text="5" transform="matrix(19.9253 0 0 -19.9253 293.898 119.246)"/><use xlink:href="#p" data-text="M" transform="matrix(19.9253 0 0 -19.9253 304.358 119.246)"/><use xlink:href="#p" data-text="M" transform="matrix(19.9253 0 0 -19.9253 314.82 119.246)"/><use xlink:href="#o" data-text="0" transform="matrix(19.9253 0 0 -19.9253 325.28 119.246)"/><use xlink:href="#H" data-text="p" transform="matrix(19.9253 0 0 -19.9253 335.74 119.246)"/><use xlink:href="#p" data-text="M" transform="matrix(19.9253 0 0 -19.9253 346.201 119.246)"/><use xlink:href="#p" data-text="M" transform="matrix(19.9253 0 0 -19.9253 356.662 119.246)"/><use xlink:href="#d" data-text="%" transform="matrix(19.9253 0 0 -19.9253 367.123 119.246)"/><use xlink:href="#p" data-text="M" transform="matrix(19.9253 0 0 -19.9253 377.584 119.246)"/><use xlink:href="#p" data-text="M" transform="matrix(19.9253 0 0 -19.9253 388.045 119.246)"/><use xlink:href="#I" data-text="2" transform="matrix(19.9253 0 0 -19.9253 398.505 119.246)"/><use xlink:href="#p" data-text="M" transform="matrix(19.9253 0 0 -19.9253 408.966 119.246)"/><use xlink:href="#p" data-text="M" transform="matrix(19.9253 0 0 -19.9253 419.427 119.246)"/><use xlink:href="#h" data-text="#" transform="matrix(19.9253 0 0 -19.9253 429.888 119.246)"/><use xlink:href="#J" data-text="a" transform="matrix(19.9253 0 0 -19.9253 440.349 119.246)"/><use xlink:href="#p" data-text="M" transform="matrix(19.9253 0 0 -19.9253 450.81 119.246)"/><use xlink:href="#p" data-text="M" transform="matrix(19.9253 0 0 -19.9253 461.27 119.246)"/><use xlink:href="#K" data-text="3" transform="matrix(19.9253 0 0 -19.9253 471.73 119.246)"/><use xlink:href="#p" data-text="M" transform="matrix(19.9253 0 0 -19.9253 482.192 119.246)"/><use xlink:href="#p" data-text="M" transform="matrix(19.9253 0 0 -19.9253 492.652 119.246)"/><use xlink:href="#d" data-text="%" transform="matrix(19.9253 0 0 -19.9253 503.113 119.246)"/><use xlink:href="#p" data-text="M" transform="matrix(19.9253 0 0 -19.9253 618.182 119.246)"/><use xlink:href="#p" data-text="M" transform="matrix(19.9253 0 0 -19.9253 628.643 119.246)"/><use xlink:href="#q" data-text="7" transform="matrix(19.9253 0 0 -19.9253 639.103 119.246)"/><use xlink:href="#l" data-text="d" transform="matrix(19.9253 0 0 -19.9253 649.564 119.246)"/><use xlink:href="#w" data-text="H" transform="matrix(19.9253 0 0 -19.9253 660.025 119.246)"/><use xlink:href="#p" data-text="M" transform="matrix(19.9253 0 0 -19.9253 670.486 119.246)"/><use xlink:href="#p" data-text="M" transform="matrix(19.9253 0 0 -19.9253 680.946 119.246)"/><use xlink:href="#n" data-text="‘" transform="matrix(19.9253 0 0 -19.9253 691.407 119.246)"/><use xlink:href="#f" data-text="W" transform="matrix(19.9253 0 0 -19.9253 126.525 140.168)"/><use xlink:href="#f" data-text="W" transform="matrix(19.9253 0 0 -19.9253 136.986 140.168)"/><use xlink:href="#n" data-text="‘" transform="matrix(19.9253 0 0 -19.9253 147.447 140.168)"/><use xlink:href="#L" data-text="(" transform="matrix(19.9253 0 0 -19.9253 157.907 140.168)"/><use xlink:href="#s" data-text="9" transform="matrix(19.9253 0 0 -19.9253 168.368 140.168)"/><use xlink:href="#h" data-text="#" transform="matrix(19.9253 0 0 -19.9253 178.829 140.168)"/><use xlink:href="#L" data-text="(" transform="matrix(19.9253 0 0 -19.9253 293.898 140.168)"/><use xlink:href="#f" data-text="W" transform="matrix(19.9253 0 0 -19.9253 304.358 140.168)"/><use xlink:href="#f" data-text="W" transform="matrix(19.9253 0 0 -19.9253 314.82 140.168)"/><use xlink:href="#n" data-text="‘" transform="matrix(19.9253 0 0 -19.9253 325.28 140.168)"/><use xlink:href="#p" data-text="M" transform="matrix(19.9253 0 0 -19.9253 335.74 140.168)"/><use xlink:href="#o" data-text="0" transform="matrix(19.9253 0 0 -19.9253 346.201 140.168)"/><use xlink:href="#t" data-text="&quot;" transform="matrix(19.9253 0 0 -19.9253 471.73 140.168)"/><use xlink:href="#h" data-text="#" transform="matrix(19.9253 0 0 -19.9253 482.192 140.168)"/><use xlink:href="#u" data-text="N" transform="matrix(19.9253 0 0 -19.9253 492.652 140.168)"/><use xlink:href="#u" data-text="N" transform="matrix(19.9253 0 0 -19.9253 503.113 140.168)"/><use xlink:href="#v" data-text=")" transform="matrix(19.9253 0 0 -19.9253 513.574 140.168)"/><use xlink:href="#f" data-text="W" transform="matrix(19.9253 0 0 -19.9253 628.643 140.168)"/><use xlink:href="#f" data-text="W" transform="matrix(19.9253 0 0 -19.9253 639.103 140.168)"/><use xlink:href="#n" data-text="‘" transform="matrix(19.9253 0 0 -19.9253 649.564 140.168)"/><use xlink:href="#f" data-text="W" transform="matrix(19.9253 0 0 -19.9253 660.025 140.168)"/><use xlink:href="#f" data-text="W" transform="matrix(19.9253 0 0 -19.9253 670.486 140.168)"/><use xlink:href="#q" data-text="7" transform="matrix(19.9253 0 0 -19.9253 680.946 140.168)"/><use xlink:href="#u" data-text="N" transform="matrix(19.9253 0 0 -19.9253 691.407 140.168)"/><use xlink:href="#z" data-text="," transform="matrix(19.9253 0 0 -19.9253 701.868 140.168)"/><use xlink:href="#u" data-text="N" transform="matrix(19.9253 0 0 -19.9253 126.525 161.089)"/><use xlink:href="#u" data-text="N" transform="matrix(19.9253 0 0 -19.9253 136.986 161.089)"/><use xlink:href="#p" data-text="M" transform="matrix(19.9253 0 0 -19.9253 147.447 161.089)"/><use xlink:href="#f" data-text="W" transform="matrix(19.9253 0 0 -19.9253 157.907 161.089)"/><use xlink:href="#u" data-text="N" transform="matrix(19.9253 0 0 -19.9253 168.368 161.089)"/><use xlink:href="#u" data-text="N" transform="matrix(19.9253 0 0 -19.9253 178.829 161.089)"/><use xlink:href="#n" data-text="‘" transform="matrix(19.9253 0 0 -19.9253 293.898 161.089)"/><use xlink:href="#M" data-text="J" transform="matrix(19.9253 0 0 -19.9253 304.358 161.089)"/><use xlink:href="#x" data-text="1" transform="matrix(19.9253 0 0 -19.9253 314.82 161.089)"/><use xlink:href="#y" data-text="4" transform="matrix(19.9253 0 0 -19.9253 325.28 161.089)"/><use xlink:href="#u" data-text="N" transform="matrix(19.9253 0 0 -19.9253 335.74 161.089)"/><use xlink:href="#u" data-text="N" transform="matrix(19.9253 0 0 -19.9253 346.201 161.089)"/><use xlink:href="#u" data-text="N" transform="matrix(19.9253 0 0 -19.9253 492.652 161.089)"/><use xlink:href="#w" data-text="H" transform="matrix(19.9253 0 0 -19.9253 503.113 161.089)"/><use xlink:href="#N" data-text="L" transform="matrix(19.9253 0 0 -19.9253 513.574 161.089)"/><use xlink:href="#z" data-text="," transform="matrix(19.9253 0 0 -19.9253 628.643 161.089)"/><use xlink:href="#f" data-text="W" transform="matrix(19.9253 0 0 -19.9253 639.103 161.089)"/><use xlink:href="#f" data-text="W" transform="matrix(19.9253 0 0 -19.9253 649.564 161.089)"/><use xlink:href="#n" data-text="‘" transform="matrix(19.9253 0 0 -19.9253 660.025 161.089)"/><use xlink:href="#p" data-text="M" transform="matrix(19.9253 0 0 -19.9253 670.486 161.089)"/><use xlink:href="#p" data-text="M" transform="matrix(19.9253 0 0 -19.9253 680.946 161.089)"/><use xlink:href="#p" data-text="M" transform="matrix(19.9253 0 0 -19.9253 691.407 161.089)"/><use xlink:href="#s" data-text="9" transform="matrix(19.9253 0 0 -19.9253 701.868 161.089)"/><use xlink:href="#z" data-text="," transform="matrix(19.9253 0 0 -19.9253 712.329 161.089)"/><use xlink:href="#p" data-text="M" transform="matrix(19.9253 0 0 -19.9253 126.525 182.011)"/><use xlink:href="#f" data-text="W" transform="matrix(19.9253 0 0 -19.9253 136.986 182.011)"/><use xlink:href="#n" data-text="‘" transform="matrix(19.9253 0 0 -19.9253 147.447 182.011)"/><use xlink:href="#c" data-text="$" transform="matrix(19.9253 0 0 -19.9253 157.907 182.011)"/><use xlink:href="#I" data-text="2" transform="matrix(19.9253 0 0 -19.9253 168.368 182.011)"/><use xlink:href="#h" data-text="#" transform="matrix(19.9253 0 0 -19.9253 178.829 182.011)"/><use xlink:href="#a" data-text="\" transform="matrix(19.9253 0 0 -19.9253 293.898 182.011)"/><use xlink:href="#f" data-text="W" transform="matrix(19.9253 0 0 -19.9253 304.358 182.011)"/><use xlink:href="#n" data-text="‘" transform="matrix(19.9253 0 0 -19.9253 314.82 182.011)"/><use xlink:href="#E" data-text=";" transform="matrix(19.9253 0 0 -19.9253 325.28 182.011)"/><use xlink:href="#s" data-text="9" transform="matrix(19.9253 0 0 -19.9253 335.74 182.011)"/><use xlink:href="#u" data-text="N" transform="matrix(19.9253 0 0 -19.9253 346.201 182.011)"/><use xlink:href="#z" data-text="," transform="matrix(19.9253 0 0 -19.9253 492.652 182.011)"/><use xlink:href="#u" data-text="N" transform="matrix(19.9253 0 0 -19.9253 503.113 182.011)"/><use xlink:href="#u" data-text="N" transform="matrix(19.9253 0 0 -19.9253 513.574 182.011)"/><use xlink:href="#z" data-text="," transform="matrix(19.9253 0 0 -19.9253 607.721 182.011)"/><use xlink:href="#u" data-text="N" transform="matrix(19.9253 0 0 -19.9253 618.182 182.011)"/><use xlink:href="#u" data-text="N" transform="matrix(19.9253 0 0 -19.9253 628.643 182.011)"/><use xlink:href="#t" data-text="&quot;" transform="matrix(19.9253 0 0 -19.9253 639.103 182.011)"/><use xlink:href="#a" data-text="\" transform="matrix(19.9253 0 0 -19.9253 660.025 182.011)"/><use xlink:href="#f" data-text="W" transform="matrix(19.9253 0 0 -19.9253 670.486 182.011)"/><use xlink:href="#n" data-text="‘" transform="matrix(19.9253 0 0 -19.9253 680.946 182.011)"/><use xlink:href="#O" data-text="@" transform="matrix(19.9253 0 0 -19.9253 691.407 182.011)"/><use xlink:href="#x" data-text="1" transform="matrix(19.9253 0 0 -19.9253 701.868 182.011)"/><use xlink:href="#w" data-text="H" transform="matrix(19.9253 0 0 -19.9253 712.329 182.011)"/><use xlink:href="#H" data-text="p" transform="matrix(19.9253 0 0 -19.9253 722.79 182.011)"/><use xlink:href="#u" data-text="N" transform="matrix(19.9253 0 0 -19.9253 126.525 202.932)"/><use xlink:href="#p" data-text="M" transform="matrix(19.9253 0 0 -19.9253 136.986 202.932)"/><use xlink:href="#f" data-text="W" transform="matrix(19.9253 0 0 -19.9253 147.447 202.932)"/><use xlink:href="#n" data-text="‘" transform="matrix(19.9253 0 0 -19.9253 157.907 202.932)"/><use xlink:href="#P" data-text="B" transform="matrix(19.9253 0 0 -19.9253 168.368 202.932)"/><use xlink:href="#x" data-text="1" transform="matrix(19.9253 0 0 -19.9253 178.829 202.932)"/><use xlink:href="#E" data-text=";" transform="matrix(19.9253 0 0 -19.9253 293.898 202.932)"/><use xlink:href="#w" data-text="H" transform="matrix(19.9253 0 0 -19.9253 304.358 202.932)"/><use xlink:href="#u" data-text="N" transform="matrix(19.9253 0 0 -19.9253 314.82 202.932)"/><use xlink:href="#u" data-text="N" transform="matrix(19.9253 0 0 -19.9253 325.28 202.932)"/><use xlink:href="#u" data-text="N" transform="matrix(19.9253 0 0 -19.9253 335.74 202.932)"/><use xlink:href="#h" data-text="#" transform="matrix(19.9253 0 0 -19.9253 346.201 202.932)"/><use xlink:href="#z" data-text="," transform="matrix(19.9253 0 0 -19.9253 408.966 202.932)"/><use xlink:href="#w" data-text="H" transform="matrix(19.9253 0 0 -19.9253 419.427 202.932)"/><use xlink:href="#p" data-text="M" transform="matrix(19.9253 0 0 -19.9253 429.888 202.932)"/><use xlink:href="#p" data-text="M" transform="matrix(19.9253 0 0 -19.9253 503.113 202.932)"/><use xlink:href="#f" data-text="W" transform="matrix(19.9253 0 0 -19.9253 513.574 202.932)"/><use xlink:href="#z" data-text="," transform="matrix(19.9253 0 0 -19.9253 597.26 202.932)"/><use xlink:href="#p" data-text="M" transform="matrix(19.9253 0 0 -19.9253 607.721 202.932)"/><use xlink:href="#f" data-text="W" transform="matrix(19.9253 0 0 -19.9253 618.182 202.932)"/><use xlink:href="#b" data-text="ˆ" transform="matrix(19.9253 0 0 -19.9253 628.642 202.932)"/><use xlink:href="#z" data-text="," transform="matrix(19.9253 0 0 -19.9253 670.486 202.932)"/><use xlink:href="#p" data-text="M" transform="matrix(19.9253 0 0 -19.9253 680.946 202.932)"/><use xlink:href="#p" data-text="M" transform="matrix(19.9253 0 0 -19.9253 691.407 202.932)"/><use xlink:href="#n" data-text="‘" transform="matrix(19.9253 0 0 -19.9253 701.868 202.932)"/><use xlink:href="#p" data-text="M" transform="matrix(19.9253 0 0 -19.9253 712.329 202.932)"/><use xlink:href="#q" data-text="7" transform="matrix(19.9253 0 0 -19.9253 722.79 202.932)"/><use xlink:href="#f" data-text="W" transform="matrix(19.9253 0 0 -19.9253 733.25 202.932)"/><use xlink:href="#z" data-text="," transform="matrix(19.9253 0 0 -19.9253 743.71 202.932)"/><use xlink:href="#u" data-text="N" transform="matrix(19.9253 0 0 -19.9253 126.525 223.854)"/><use xlink:href="#u" data-text="N" transform="matrix(19.9253 0 0 -19.9253 136.986 223.854)"/><use xlink:href="#w" data-text="H" transform="matrix(19.9253 0 0 -19.9253 147.447 223.854)"/><use xlink:href="#p" data-text="M" transform="matrix(19.9253 0 0 -19.9253 157.907 223.854)"/><use xlink:href="#p" data-text="M" transform="matrix(19.9253 0 0 -19.9253 168.368 223.854)"/><use xlink:href="#u" data-text="N" transform="matrix(19.9253 0 0 -19.9253 178.829 223.854)"/><use xlink:href="#n" data-text="‘" transform="matrix(19.9253 0 0 -19.9253 293.898 223.854)"/><use xlink:href="#A" data-text="D" transform="matrix(19.9253 0 0 -19.9253 304.358 223.854)"/><use xlink:href="#h" data-text="#" transform="matrix(19.9253 0 0 -19.9253 314.82 223.854)"/><use xlink:href="#f" data-text="W" transform="matrix(19.9253 0 0 -19.9253 325.28 223.854)"/><use xlink:href="#f" data-text="W" transform="matrix(19.9253 0 0 -19.9253 335.74 223.854)"/><use xlink:href="#d" data-text="%" transform="matrix(19.9253 0 0 -19.9253 346.201 223.854)"/><use xlink:href="#p" data-text="M" transform="matrix(19.9253 0 0 -19.9253 408.966 223.854)"/><use xlink:href="#p" data-text="M" transform="matrix(19.9253 0 0 -19.9253 419.427 223.854)"/><use xlink:href="#u" data-text="N" transform="matrix(19.9253 0 0 -19.9253 429.888 223.854)"/><use xlink:href="#n" data-text="‘" transform="matrix(19.9253 0 0 -19.9253 440.349 223.854)"/><use xlink:href="#Q" data-text="." transform="matrix(19.9253 0 0 -19.9253 576.339 223.854)"/><use xlink:href="#l" data-text="d" transform="matrix(19.9253 0 0 -19.9253 586.8 223.854)"/><use xlink:href="#p" data-text="M" transform="matrix(19.9253 0 0 -19.9253 597.26 223.854)"/><use xlink:href="#R" data-text="Y" transform="matrix(19.9253 0 0 -19.9253 607.721 223.854)"/><use xlink:href="#S" data-text="T" transform="matrix(19.9253 0 0 -19.9253 691.407 223.854)"/><use xlink:href="#p" data-text="M" transform="matrix(19.9253 0 0 -19.9253 701.868 223.854)"/><use xlink:href="#p" data-text="M" transform="matrix(19.9253 0 0 -19.9253 712.329 223.854)"/><use xlink:href="#f" data-text="W" transform="matrix(19.9253 0 0 -19.9253 722.79 223.854)"/><use xlink:href="#f" data-text="W" transform="matrix(19.9253 0 0 -19.9253 733.25 223.854)"/><use xlink:href="#f" data-text="W" transform="matrix(19.9253 0 0 -19.9253 743.711 223.854)"/><use xlink:href="#T" data-text="e" transform="matrix(19.9253 0 0 -19.9253 754.172 223.854)"/><use xlink:href="#p" data-text="M" transform="matrix(19.9253 0 0 -19.9253 126.525 244.775)"/><use xlink:href="#B" data-text="F" transform="matrix(19.9253 0 0 -19.9253 136.986 244.775)"/><use xlink:href="#p" data-text="M" transform="matrix(19.9253 0 0 -19.9253 147.447 244.775)"/><use xlink:href="#d" data-text="%" transform="matrix(19.9253 0 0 -19.9253 157.907 244.775)"/><use xlink:href="#P" data-text="B" transform="matrix(19.9253 0 0 -19.9253 168.368 244.775)"/><use xlink:href="#v" data-text=")" transform="matrix(19.9253 0 0 -19.9253 178.829 244.775)"/><use xlink:href="#L" data-text="(" transform="matrix(19.9253 0 0 -19.9253 293.898 244.775)"/><use xlink:href="#u" data-text="N" transform="matrix(19.9253 0 0 -19.9253 304.358 244.775)"/><use xlink:href="#p" data-text="M" transform="matrix(19.9253 0 0 -19.9253 314.82 244.775)"/><use xlink:href="#f" data-text="W" transform="matrix(19.9253 0 0 -19.9253 325.28 244.775)"/><use xlink:href="#f" data-text="W" transform="matrix(19.9253 0 0 -19.9253 335.74 244.775)"/><use xlink:href="#d" data-text="%" transform="matrix(19.9253 0 0 -19.9253 346.201 244.775)"/><use xlink:href="#f" data-text="W" transform="matrix(19.9253 0 0 -19.9253 356.662 244.775)"/><use xlink:href="#f" data-text="W" transform="matrix(19.9253 0 0 -19.9253 367.123 244.775)"/><use xlink:href="#Q" data-text="." transform="matrix(19.9253 0 0 -19.9253 377.584 244.775)"/><use xlink:href="#f" data-text="W" transform="matrix(19.9253 0 0 -19.9253 388.045 244.775)"/><use xlink:href="#f" data-text="W" transform="matrix(19.9253 0 0 -19.9253 398.505 244.775)"/><use xlink:href="#c" data-text="$" transform="matrix(19.9253 0 0 -19.9253 408.966 244.775)"/><use xlink:href="#c" data-text="$" transform="matrix(19.9253 0 0 -19.9253 419.427 244.775)"/><use xlink:href="#u" data-text="N" transform="matrix(19.9253 0 0 -19.9253 429.888 244.775)"/><use xlink:href="#t" data-text="&quot;" transform="matrix(19.9253 0 0 -19.9253 440.349 244.775)"/><use xlink:href="#z" data-text="," transform="matrix(19.9253 0 0 -19.9253 565.878 244.775)"/><use xlink:href="#u" data-text="N" transform="matrix(19.9253 0 0 -19.9253 576.339 244.775)"/><use xlink:href="#w" data-text="H" transform="matrix(19.9253 0 0 -19.9253 586.8 244.775)"/><use xlink:href="#h" data-text="#" transform="matrix(19.9253 0 0 -19.9253 597.26 244.775)"/><use xlink:href="#g" data-text="{" transform="matrix(19.9253 0 0 -19.9253 701.868 244.775)"/><use xlink:href="#p" data-text="M" transform="matrix(19.9253 0 0 -19.9253 712.329 244.775)"/><use xlink:href="#p" data-text="M" transform="matrix(19.9253 0 0 -19.9253 722.79 244.775)"/><use xlink:href="#f" data-text="W" transform="matrix(19.9253 0 0 -19.9253 733.25 244.775)"/><use xlink:href="#p" data-text="M" transform="matrix(19.9253 0 0 -19.9253 743.711 244.775)"/><use xlink:href="#p" data-text="M" transform="matrix(19.9253 0 0 -19.9253 754.172 244.775)"/><use xlink:href="#d" data-text="%" transform="matrix(19.9253 0 0 -19.9253 764.633 244.775)"/><use xlink:href="#z" data-text="," transform="matrix(19.9253 0 0 -19.9253 775.093 244.775)"/><use xlink:href="#u" data-text="N" transform="matrix(19.9253 0 0 -19.9253 126.525 265.697)"/><use xlink:href="#p" data-text="M" transform="matrix(19.9253 0 0 -19.9253 136.986 265.697)"/><use xlink:href="#B" data-text="F" transform="matrix(19.9253 0 0 -19.9253 147.447 265.697)"/><use xlink:href="#p" data-text="M" transform="matrix(19.9253 0 0 -19.9253 157.907 265.697)"/><use xlink:href="#w" data-text="H" transform="matrix(19.9253 0 0 -19.9253 168.368 265.697)"/><use xlink:href="#g" data-text="{" transform="matrix(19.9253 0 0 -19.9253 178.829 265.697)"/><use xlink:href="#E" data-text=";" transform="matrix(19.9253 0 0 -19.9253 293.898 265.697)"/><use xlink:href="#u" data-text="N" transform="matrix(19.9253 0 0 -19.9253 304.358 265.697)"/><use xlink:href="#u" data-text="N" transform="matrix(19.9253 0 0 -19.9253 314.82 265.697)"/><use xlink:href="#c" data-text="$" transform="matrix(19.9253 0 0 -19.9253 325.28 265.697)"/><use xlink:href="#h" data-text="#" transform="matrix(19.9253 0 0 -19.9253 335.74 265.697)"/><use xlink:href="#u" data-text="N" transform="matrix(19.9253 0 0 -19.9253 346.201 265.697)"/><use xlink:href="#u" data-text="N" transform="matrix(19.9253 0 0 -19.9253 408.966 265.697)"/><use xlink:href="#p" data-text="M" transform="matrix(19.9253 0 0 -19.9253 419.427 265.697)"/><use xlink:href="#w" data-text="H" transform="matrix(19.9253 0 0 -19.9253 429.888 265.697)"/><use xlink:href="#t" data-text="&quot;" transform="matrix(19.9253 0 0 -19.9253 440.349 265.697)"/><use xlink:href="#h" data-text="#" transform="matrix(19.9253 0 0 -19.9253 555.417 265.697)"/><use xlink:href="#p" data-text="M" transform="matrix(19.9253 0 0 -19.9253 565.878 265.697)"/><use xlink:href="#B" data-text="F" transform="matrix(19.9253 0 0 -19.9253 576.339 265.697)"/><use xlink:href="#u" data-text="N" transform="matrix(19.9253 0 0 -19.9253 722.79 265.697)"/><use xlink:href="#p" data-text="M" transform="matrix(19.9253 0 0 -19.9253 733.25 265.697)"/><use xlink:href="#U" data-text=":" transform="matrix(19.9253 0 0 -19.9253 743.711 265.697)"/><use xlink:href="#P" data-text="B" transform="matrix(19.9253 0 0 -19.9253 754.172 265.697)"/><use xlink:href="#w" data-text="H" transform="matrix(19.9253 0 0 -19.9253 764.633 265.697)"/><use xlink:href="#p" data-text="M" transform="matrix(19.9253 0 0 -19.9253 775.093 265.697)"/><use xlink:href="#Q" data-text="." transform="matrix(19.9253 0 0 -19.9253 785.554 265.697)"/><use xlink:href="#p" data-text="M" transform="matrix(19.9253 0 0 -19.9253 63.761 286.618)"/><use xlink:href="#f" data-text="W" transform="matrix(19.9253 0 0 -19.9253 74.222 286.618)"/><use xlink:href="#f" data-text="W" transform="matrix(19.9253 0 0 -19.9253 84.683 286.618)"/><use xlink:href="#d" data-text="%" transform="matrix(19.9253 0 0 -19.9253 95.143 286.618)"/><use xlink:href="#V" data-text="n" transform="matrix(19.9253 0 0 -19.9253 105.604 286.618)"/><use xlink:href="#l" data-text="d" transform="matrix(19.9253 0 0 -19.9253 116.065 286.618)"/><use xlink:href="#f" data-text="W" transform="matrix(19.9253 0 0 -19.9253 126.526 286.618)"/><use xlink:href="#f" data-text="W" transform="matrix(19.9253 0 0 -19.9253 136.987 286.618)"/><use xlink:href="#h" data-text="#" transform="matrix(19.9253 0 0 -19.9253 147.447 286.618)"/><use xlink:href="#W" data-text="s" transform="matrix(19.9253 0 0 -19.9253 157.908 286.618)"/><use xlink:href="#V" data-text="n" transform="matrix(19.9253 0 0 -19.9253 168.369 286.618)"/><use xlink:href="#f" data-text="W" transform="matrix(19.9253 0 0 -19.9253 178.83 286.618)"/><use xlink:href="#f" data-text="W" transform="matrix(19.9253 0 0 -19.9253 189.29 286.618)"/><use xlink:href="#i" data-text="!" transform="matrix(19.9253 0 0 -19.9253 199.751 286.618)"/><use xlink:href="#X" data-text="m" transform="matrix(19.9253 0 0 -19.9253 210.212 286.618)"/><use xlink:href="#f" data-text="W" transform="matrix(19.9253 0 0 -19.9253 220.673 286.618)"/><use xlink:href="#f" data-text="W" transform="matrix(19.9253 0 0 -19.9253 231.134 286.618)"/><use xlink:href="#d" data-text="%" transform="matrix(19.9253 0 0 -19.9253 241.594 286.618)"/><use xlink:href="#L" data-text="(" transform="matrix(19.9253 0 0 -19.9253 293.898 286.618)"/><use xlink:href="#f" data-text="W" transform="matrix(19.9253 0 0 -19.9253 304.36 286.618)"/><use xlink:href="#f" data-text="W" transform="matrix(19.9253 0 0 -19.9253 314.82 286.618)"/><use xlink:href="#l" data-text="d" transform="matrix(19.9253 0 0 -19.9253 325.28 286.618)"/><use xlink:href="#u" data-text="N" transform="matrix(19.9253 0 0 -19.9253 335.741 286.618)"/><use xlink:href="#u" data-text="N" transform="matrix(19.9253 0 0 -19.9253 346.202 286.618)"/><use xlink:href="#r" data-text="’" transform="matrix(19.9253 0 0 -19.9253 408.967 286.618)"/><use xlink:href="#f" data-text="W" transform="matrix(19.9253 0 0 -19.9253 419.428 286.618)"/><use xlink:href="#u" data-text="N" transform="matrix(19.9253 0 0 -19.9253 429.888 286.618)"/><use xlink:href="#u" data-text="N" transform="matrix(19.9253 0 0 -19.9253 503.114 286.618)"/><use xlink:href="#n" data-text="‘" transform="matrix(19.9253 0 0 -19.9253 513.575 286.618)"/><use xlink:href="#P" data-text="B" transform="matrix(19.9253 0 0 -19.9253 524.035 286.618)"/><use xlink:href="#u" data-text="N" transform="matrix(19.9253 0 0 -19.9253 534.496 286.618)"/><use xlink:href="#x" data-text="1" transform="matrix(19.9253 0 0 -19.9253 544.957 286.618)"/><use xlink:href="#x" data-text="1" transform="matrix(19.9253 0 0 -19.9253 555.418 286.618)"/><use xlink:href="#p" data-text="M" transform="matrix(19.9253 0 0 -19.9253 565.879 286.618)"/><use xlink:href="#B" data-text="F" transform="matrix(19.9253 0 0 -19.9253 576.34 286.618)"/><use xlink:href="#p" data-text="M" transform="matrix(19.9253 0 0 -19.9253 586.8 286.618)"/><use xlink:href="#Y" data-text="K" transform="matrix(19.9253 0 0 -19.9253 597.26 286.618)"/><use xlink:href="#O" data-text="@" transform="matrix(19.9253 0 0 -19.9253 607.721 286.618)"/><use xlink:href="#p" data-text="M" transform="matrix(19.9253 0 0 -19.9253 691.408 286.618)"/><use xlink:href="#Z" data-text="c" transform="matrix(19.9253 0 0 -19.9253 701.868 286.618)"/><use xlink:href="#f" data-text="W" transform="matrix(19.9253 0 0 -19.9253 712.33 286.618)"/><use xlink:href="#f" data-text="W" transform="matrix(19.9253 0 0 -19.9253 722.79 286.618)"/><use xlink:href="#K" data-text="3" transform="matrix(19.9253 0 0 -19.9253 733.25 286.618)"/><use xlink:href="#V" data-text="n" transform="matrix(19.9253 0 0 -19.9253 743.712 286.618)"/><use xlink:href="#J" data-text="a" transform="matrix(19.9253 0 0 -19.9253 754.172 286.618)"/><use xlink:href="#f" data-text="W" transform="matrix(19.9253 0 0 -19.9253 764.633 286.618)"/><use xlink:href="#f" data-text="W" transform="matrix(19.9253 0 0 -19.9253 775.094 286.618)"/><use xlink:href="#aa" data-text="-" transform="matrix(19.9253 0 0 -19.9253 785.554 286.618)"/><use xlink:href="#f" data-text="W" transform="matrix(19.9253 0 0 -19.9253 796.015 286.618)"/><use xlink:href="#f" data-text="W" transform="matrix(19.9253 0 0 -19.9253 806.476 286.618)"/><use xlink:href="#d" data-text="%" transform="matrix(19.9253 0 0 -19.9253 816.937 286.618)"/><use xlink:href="#c" data-text="$" transform="matrix(19.9253 0 0 -19.9253 827.398 286.618)"/><use xlink:href="#E" data-text=";" transform="matrix(19.9253 0 0 -19.9253 293.897 307.54)"/><use xlink:href="#p" data-text="M" transform="matrix(19.9253 0 0 -19.9253 304.358 307.54)"/><use xlink:href="#F" data-text="&amp;" transform="matrix(19.9253 0 0 -19.9253 314.819 307.54)"/><use xlink:href="#O" data-text="@" transform="matrix(19.9253 0 0 -19.9253 325.28 307.54)"/><use xlink:href="#p" data-text="M" transform="matrix(19.9253 0 0 -19.9253 335.74 307.54)"/><use xlink:href="#Y" data-text="K" transform="matrix(19.9253 0 0 -19.9253 346.2 307.54)"/><use xlink:href="#h" data-text="#" transform="matrix(19.9253 0 0 -19.9253 503.113 307.54)"/><use xlink:href="#u" data-text="N" transform="matrix(19.9253 0 0 -19.9253 513.573 307.54)"/><use xlink:href="#L" data-text="(" transform="matrix(19.9253 0 0 -19.9253 293.897 328.462)"/><use xlink:href="#f" data-text="W" transform="matrix(19.9253 0 0 -19.9253 304.358 328.462)"/><use xlink:href="#f" data-text="W" transform="matrix(19.9253 0 0 -19.9253 314.819 328.462)"/><use xlink:href="#q" data-text="7" transform="matrix(19.9253 0 0 -19.9253 325.28 328.462)"/><use xlink:href="#y" data-text="4" transform="matrix(19.9253 0 0 -19.9253 335.74 328.462)"/><use xlink:href="#u" data-text="N" transform="matrix(19.9253 0 0 -19.9253 346.2 328.462)"/><use xlink:href="#z" data-text="," transform="matrix(19.9253 0 0 -19.9253 492.652 328.462)"/><use xlink:href="#p" data-text="M" transform="matrix(19.9253 0 0 -19.9253 503.113 328.462)"/><use xlink:href="#D" data-text="Z" transform="matrix(19.9253 0 0 -19.9253 513.573 328.462)"/><use xlink:href="#h" data-text="#" transform="matrix(19.9253 0 0 -19.9253 293.897 349.383)"/><use xlink:href="#f" data-text="W" transform="matrix(19.9253 0 0 -19.9253 304.358 349.383)"/><use xlink:href="#f" data-text="W" transform="matrix(19.9253 0 0 -19.9253 314.819 349.383)"/><use xlink:href="#ab" data-text="8" transform="matrix(19.9253 0 0 -19.9253 325.28 349.383)"/><use xlink:href="#p" data-text="M" transform="matrix(19.9253 0 0 -19.9253 335.74 349.383)"/><use xlink:href="#U" data-text=":" transform="matrix(19.9253 0 0 -19.9253 346.2 349.383)"/><use xlink:href="#z" data-text="," transform="matrix(19.9253 0 0 -19.9253 471.73 349.383)"/><use xlink:href="#c" data-text="$" transform="matrix(19.9253 0 0 -19.9253 482.191 349.383)"/><use xlink:href="#h" data-text="#" transform="matrix(19.9253 0 0 -19.9253 492.652 349.383)"/><use xlink:href="#p" data-text="M" transform="matrix(19.9253 0 0 -19.9253 503.113 349.383)"/><use xlink:href="#d" data-text="%" transform="matrix(19.9253 0 0 -19.9253 513.573 349.383)"/><use xlink:href="#ac" data-text="b" transform="matrix(19.9253 0 0 -19.9253 252.054 370.305)"/><use xlink:href="#f" data-text="W" transform="matrix(19.9253 0 0 -19.9253 262.515 370.305)"/><use xlink:href="#f" data-text="W" transform="matrix(19.9253 0 0 -19.9253 272.976 370.305)"/><use xlink:href="#s" data-text="9" transform="matrix(19.9253 0 0 -19.9253 283.436 370.305)"/><use xlink:href="#h" data-text="#" transform="matrix(19.9253 0 0 -19.9253 293.897 370.305)"/><use xlink:href="#A" data-text="D" transform="matrix(19.9253 0 0 -19.9253 304.358 370.305)"/><use xlink:href="#f" data-text="W" transform="matrix(19.9253 0 0 -19.9253 314.819 370.305)"/><use xlink:href="#f" data-text="W" transform="matrix(19.9253 0 0 -19.9253 325.28 370.305)"/><use xlink:href="#i" data-text="!" transform="matrix(19.9253 0 0 -19.9253 335.74 370.305)"/><use xlink:href="#f" data-text="W" transform="matrix(19.9253 0 0 -19.9253 346.201 370.305)"/><use xlink:href="#f" data-text="W" transform="matrix(19.9253 0 0 -19.9253 356.662 370.305)"/><use xlink:href="#v" data-text=")" transform="matrix(19.9253 0 0 -19.9253 367.123 370.305)"/><use xlink:href="#f" data-text="W" transform="matrix(19.9253 0 0 -19.9253 377.583 370.305)"/><use xlink:href="#f" data-text="W" transform="matrix(19.9253 0 0 -19.9253 388.044 370.305)"/><use xlink:href="#ad" data-text="*" transform="matrix(19.9253 0 0 -19.9253 398.505 370.305)"/><use xlink:href="#f" data-text="W" transform="matrix(19.9253 0 0 -19.9253 408.966 370.305)"/><use xlink:href="#f" data-text="W" transform="matrix(19.9253 0 0 -19.9253 419.427 370.305)"/><use xlink:href="#v" data-text=")" transform="matrix(19.9253 0 0 -19.9253 429.887 370.305)"/><use xlink:href="#I" data-text="2" transform="matrix(19.9253 0 0 -19.9253 440.348 370.305)"/><use xlink:href="#G" data-text="5" transform="matrix(19.9253 0 0 -19.9253 450.809 370.305)"/><use xlink:href="#f" data-text="W" transform="matrix(19.9253 0 0 -19.9253 461.27 370.305)"/><use xlink:href="#f" data-text="W" transform="matrix(19.9253 0 0 -19.9253 471.73 370.305)"/><use xlink:href="#ae" data-text="v" transform="matrix(19.9253 0 0 -19.9253 482.191 370.305)"/><use xlink:href="#p" data-text="M" transform="matrix(19.9253 0 0 -19.9253 492.652 370.305)"/><use xlink:href="#d" data-text="%" transform="matrix(19.9253 0 0 -19.9253 503.113 370.305)"/></svg>