<svg xmlns="http://www.w3.org/2000/svg">
 <symbol viewBox="0 0 24 24" id="symbol">
  <path fill="#55c500"
   d="M 2,8.86 L 3.6,9.05 C 3.57,9.22 3.54,9.4 3.51,9.57 L 2.11,9.66 2.11,9.88 3.49,9.76 C 3.46,9.95 3.45,10.13 3.44,10.34 3.43,10.34 3.43,10.35 3.43,10.36 L 2.2,10.87 2.24,11.16 3.43,10.58 C 3.39,14.56 7.15,15.58 11.61,14.64 15.82,13.77 16.42,11.57 16.03,9.31 L 17.31,9.59 17.34,9.36 16,9.12 C 15.97,9 15.95,8.88 15.92,8.77 15.9,8.68 15.88,8.6 15.86,8.51 L 17.23,8.37 17.23,8.16 15.8,8.32 C 15.74,8.13 15.66,7.94 15.58,7.75 L 17.13,7.25 17.1,6.98 15.48,7.55 C 14.5,5.58 12.31,3.9 9.82,3.99 7.22,4.09 4.46,5.65 3.66,8.8 L 2.03,8.57 2,8.86 2,8.86 2,8.86 Z M 9.74,2.35 C 11.09,2.37 12.3,2.65 13.37,3.12 14.41,2.51 15.56,1.52 16.12,1.75 16.68,1.96 16.55,3.3 16.59,5.45 18.33,7.29 19.29,9.58 19.5,11.23 19.75,13.3 19.59,15.09 19.06,16.57 19.05,16.93 19.12,17.18 19.34,17.45 19.91,18.18 20.26,18.55 20.57,18.53 20.89,18.5 23,17.97 23.6,19.21 24.21,20.44 22.64,22.17 21.24,22.1 19.83,22.02 18.9,21.32 18.06,20.58 17.73,20.3 17.45,19.88 17.23,19.46 15.49,21.16 12.86,22.03 9.6,22.03 3.25,22.03 0.57,18.46 0.27,13.43 0.15,11.49 0.68,9.3 1.76,7.37 1.23,4.52 -0.16,3.01 4.12,4.44 5.61,3.15 7.52,2.32 9.74,2.35 L 9.74,2.35 9.74,2.35 Z" />
 </symbol>
</svg>
