<svg version="1.2" width="24" height="24" viewBox="0 0 2400 2400" preserveAspectRatio="xMidYMid" fill-rule="evenodd" stroke-width="28.222" stroke-linejoin="round" xmlns="http://www.w3.org/2000/svg" xmlns:ooo="http://xml.openoffice.org/svg/export" xmlns:xlink="http://www.w3.org/1999/xlink" xmlns:presentation="http://sun.com/xmlns/staroffice/presentation" xmlns:smil="http://www.w3.org/2001/SMIL20/" xmlns:anim="urn:oasis:names:tc:opendocument:xmlns:animation:1.0" xml:space="preserve"><path fill="#55c500" stroke="none" d="M 200,886 L 360,905 C 357,922 354,940 351,957 L 211,966 211,988 349,976 C 346,995 345,1013 344,1034 343,1034 343,1035 343,1036 L 220,1087 224,1116 343,1058 C 339,1456 715,1558 1161,1464 1582,1377 1642,1157 1603,931 L 1731,959 1734,936 1600,912 C 1597,900 1595,888 1592,877 1590,868 1588,860 1586,851 L 1723,837 1723,816 1580,832 C 1574,813 1566,794 1558,775 L 1713,725 1710,698 1548,755 C 1450,558 1231,390 982,399 722,409 446,565 366,880 L 203,857 200,886 200,886 200,886 Z M 974,235 C 1109,237 1230,265 1337,312 1441,251 1556,152 1612,175 1668,196 1655,330 1659,545 1833,729 1929,958 1950,1123 1975,1330 1959,1509 1906,1657 1905,1693 1912,1718 1934,1745 1991,1818 2026,1855 2057,1853 2089,1850 2300,1797 2360,1921 2421,2044 2264,2217 2124,2210 1983,2202 1890,2132 1806,2058 1773,2030 1745,1988 1723,1946 1549,2116 1286,2203 960,2203 325,2203 57,1846 27,1343 15,1149 68,930 176,737 123,452 -16,301 412,444 561,315 752,232 974,235 L 974,235 974,235 Z"/></svg>
