<?xml version="1.0" encoding="UTF-8"?>
<!DOCTYPE svg PUBLIC "-//W3C//DTD SVG 1.1//EN" "http://www.w3.org/Graphics/SVG/1.1/DTD/svg11.dtd">
<svg version="1.2" width="75.31mm" height="80.01mm" viewBox="11270 11000 7531 8001" preserveAspectRatio="xMidYMid" fill-rule="evenodd" stroke-width="28.222" stroke-linejoin="round" xmlns="http://www.w3.org/2000/svg" xmlns:ooo="http://xml.openoffice.org/svg/export" xmlns:xlink="http://www.w3.org/1999/xlink" xmlns:presentation="http://sun.com/xmlns/staroffice/presentation" xmlns:smil="http://www.w3.org/2001/SMIL20/" xmlns:anim="urn:oasis:names:tc:opendocument:xmlns:animation:1.0" xml:space="preserve">
 <defs class="EmbeddedBulletChars">
  <g id="bullet-char-template-57356" transform="scale(0.00048828125,-0.00048828125)">
   <path d="M 580,1141 L 1163,571 580,0 -4,571 580,1141 Z"/>
  </g>
  <g id="bullet-char-template-57354" transform="scale(0.00048828125,-0.00048828125)">
   <path d="M 8,1128 L 1137,1128 1137,0 8,0 8,1128 Z"/>
  </g>
  <g id="bullet-char-template-10146" transform="scale(0.00048828125,-0.00048828125)">
   <path d="M 174,0 L 602,739 174,1481 1456,739 174,0 Z M 1358,739 L 309,1346 659,739 1358,739 Z"/>
  </g>
  <g id="bullet-char-template-10132" transform="scale(0.00048828125,-0.00048828125)">
   <path d="M 2015,739 L 1276,0 717,0 1260,543 174,543 174,936 1260,936 717,1481 1274,1481 2015,739 Z"/>
  </g>
  <g id="bullet-char-template-10007" transform="scale(0.00048828125,-0.00048828125)">
   <path d="M 0,-2 C -7,14 -16,27 -25,37 L 356,567 C 262,823 215,952 215,954 215,979 228,992 255,992 264,992 276,990 289,987 310,991 331,999 354,1012 L 381,999 492,748 772,1049 836,1024 860,1049 C 881,1039 901,1025 922,1006 886,937 835,863 770,784 769,783 710,716 594,584 L 774,223 C 774,196 753,168 711,139 L 727,119 C 717,90 699,76 672,76 641,76 570,178 457,381 L 164,-76 C 142,-110 111,-127 72,-127 30,-127 9,-110 8,-76 1,-67 -2,-52 -2,-32 -2,-23 -1,-13 0,-2 Z"/>
  </g>
  <g id="bullet-char-template-10004" transform="scale(0.00048828125,-0.00048828125)">
   <path d="M 285,-33 C 182,-33 111,30 74,156 52,228 41,333 41,471 41,549 55,616 82,672 116,743 169,778 240,778 293,778 328,747 346,684 L 369,508 C 377,444 397,411 428,410 L 1163,1116 C 1174,1127 1196,1133 1229,1133 1271,1133 1292,1118 1292,1087 L 1292,965 C 1292,929 1282,901 1262,881 L 442,47 C 390,-6 338,-33 285,-33 Z"/>
  </g>
  <g id="bullet-char-template-9679" transform="scale(0.00048828125,-0.00048828125)">
   <path d="M 813,0 C 632,0 489,54 383,161 276,268 223,411 223,592 223,773 276,916 383,1023 489,1130 632,1184 813,1184 992,1184 1136,1130 1245,1023 1353,916 1407,772 1407,592 1407,412 1353,268 1245,161 1136,54 992,0 813,0 Z"/>
  </g>
  <g id="bullet-char-template-8226" transform="scale(0.00048828125,-0.00048828125)">
   <path d="M 346,457 C 273,457 209,483 155,535 101,586 74,649 74,723 74,796 101,859 155,911 209,963 273,989 346,989 419,989 480,963 531,910 582,859 608,796 608,723 608,648 583,586 532,535 482,483 420,457 346,457 Z"/>
  </g>
  <g id="bullet-char-template-8211" transform="scale(0.00048828125,-0.00048828125)">
   <path d="M -4,459 L 1135,459 1135,606 -4,606 -4,459 Z"/>
  </g>
  <g id="bullet-char-template-61548" transform="scale(0.00048828125,-0.00048828125)">
   <path d="M 173,740 C 173,903 231,1043 346,1159 462,1274 601,1332 765,1332 928,1332 1067,1274 1183,1159 1299,1043 1357,903 1357,740 1357,577 1299,437 1183,322 1067,206 928,148 765,148 601,148 462,206 346,322 231,437 173,577 173,740 Z"/>
  </g>
 </defs>
 <g class="Page">
  <g class="Graphic">
   <g id="id3">
    <rect class="BoundingBox" stroke="none" fill="none" x="11270" y="11000" width="7531" height="8001"/>
    <path fill="rgb(168,185,204)" stroke="none" d="M 15150,13550 C 14632,13535 14366,13941 14366,14521 14366,15102 14660,15566 15164,15566 15668,15566 15724,14986 15724,14986 L 16691,15044 C 16691,15044 16748,15568 16343,15967 15939,16367 15443,16433 15096,16430 14749,16427 14269,16435 13804,15959 13339,15483 13261,15021 13261,14567 13261,14113 13349,13511 13901,13055 14277,12744 14657,12630 15038,12630 16628,12630 16734,14096 16734,14096 L 15724,14086 C 15724,14086 15668,13564 15150,13550 Z"/>
    <path fill="rgb(27,117,179)" stroke="none" d="M 14571,11612 L 14572,11796 14547,11796 C 14538,11730 14515,11686 14475,11662 14453,11650 14420,11643 14376,11641 L 14376,12123 C 14376,12156 14382,12179 14393,12190 14405,12201 14428,12206 14464,12206 L 14464,12230 14150,12230 14150,12206 C 14184,12206 14207,12201 14218,12190 14230,12178 14235,12156 14235,12123 L 14235,11641 C 14192,11643 14159,11650 14136,11662 14094,11686 14070,11731 14065,11796 L 14039,11796 14040,11612 14571,11612 Z"/>
    <path fill="rgb(27,117,179)" stroke="none" d="M 14683,12206 C 14706,12205 14723,12202 14733,12196 14749,12187 14757,12169 14757,12142 L 14757,11699 C 14757,11674 14750,11656 14736,11647 14727,11642 14709,11638 14683,11635 L 14683,11612 14981,11612 14981,11635 C 14956,11637 14938,11640 14928,11646 14911,11655 14903,11673 14903,11699 L 14903,11889 15113,11889 15113,11699 C 15113,11673 15105,11655 15089,11646 15079,11641 15061,11637 15034,11635 L 15034,11612 15335,11612 15335,11635 C 15309,11637 15291,11641 15282,11647 15266,11656 15258,11673 15258,11699 L 15258,12142 C 15258,12169 15267,12187 15284,12197 15294,12202 15311,12205 15335,12206 L 15335,12230 15034,12230 15034,12206 C 15060,12205 15078,12202 15088,12196 15105,12186 15113,12168 15113,12142 L 15113,11932 14903,11932 14903,12142 C 14903,12169 14912,12187 14929,12197 14940,12202 14957,12205 14981,12206 L 14981,12230 14683,12230 14683,12206 14683,12206 Z"/>
    <path fill="rgb(27,117,179)" stroke="none" d="M 15429,12230 L 15429,12206 C 15455,12205 15472,12202 15483,12196 15499,12186 15508,12168 15508,12142 L 15508,11699 C 15508,11673 15499,11655 15482,11646 15473,11640 15455,11637 15429,11635 L 15429,11612 15938,11612 15938,11796 15916,11796 C 15905,11737 15886,11697 15859,11675 15832,11654 15783,11643 15712,11643 15685,11643 15668,11646 15661,11652 15653,11657 15650,11669 15650,11686 L 15650,11898 C 15700,11898 15734,11889 15752,11869 15770,11850 15783,11814 15793,11762 L 15815,11762 15815,12071 15793,12071 C 15787,12019 15774,11982 15754,11961 15735,11940 15700,11929 15650,11929 L 15650,12151 C 15650,12170 15655,12183 15664,12190 15674,12197 15694,12201 15724,12201 15780,12201 15826,12189 15861,12167 15897,12144 15929,12102 15956,12040 L 15981,12040 15945,12230 15429,12230 15429,12230 15429,12230 Z"/>
    <path fill="rgb(27,117,179)" stroke="none" d="M 11436,17393 C 11446,17383 11451,17361 11451,17329 L 11451,16924 C 11451,16890 11446,16868 11436,16859 11426,16850 11407,16844 11378,16841 L 11378,16818 11662,16818 C 11737,16818 11794,16830 11834,16856 11873,16881 11892,16924 11892,16986 11892,17016 11885,17044 11869,17071 11854,17097 11829,17118 11793,17134 11767,17145 11740,17152 11713,17155 11686,17157 11647,17158 11594,17158 L 11594,17329 C 11594,17362 11600,17384 11611,17395 11622,17405 11642,17411 11672,17412 L 11672,17435 11378,17435 11378,17412 11378,17412 C 11407,17410 11426,17404 11436,17393 Z M 11699,17108 C 11727,17089 11741,17050 11741,16989 11741,16947 11734,16913 11721,16888 11707,16862 11681,16850 11643,16850 11626,16850 11613,16852 11606,16856 11598,16860 11594,16869 11594,16881 L 11594,17127 C 11647,17126 11682,17119 11699,17108 Z"/>
    <path fill="rgb(27,117,179)" stroke="none" d="M 11936,17412 C 11966,17411 11987,17405 11997,17395 12008,17385 12014,17363 12014,17329 L 12014,16924 C 12014,16889 12007,16866 11994,16856 11986,16849 11966,16844 11936,16841 L 11936,16818 12220,16818 C 12279,16818 12327,16824 12363,16837 12434,16863 12469,16909 12469,16977 12469,17026 12451,17065 12414,17094 12385,17115 12355,17129 12324,17135 L 12511,17395 C 12516,17402 12521,17407 12527,17409 12532,17411 12539,17413 12547,17414 L 12547,17435 12363,17435 12157,17150 12157,17150 12157,17329 C 12157,17361 12162,17382 12172,17394 12183,17405 12203,17411 12234,17412 L 12234,17435 11936,17435 11936,17412 11936,17412 11936,17412 Z M 12281,17095 C 12306,17079 12318,17042 12318,16985 12318,16949 12313,16921 12304,16901 12287,16866 12258,16849 12214,16849 12191,16849 12175,16852 12168,16858 12160,16864 12157,16874 12157,16888 L 12157,17120 C 12215,17119 12256,17111 12281,17095 L 12281,17095 Z"/>
    <path fill="rgb(27,117,179)" stroke="none" d="M 13233,17129 C 13233,17225 13203,17303 13143,17364 13083,17424 13009,17454 12921,17454 12826,17454 12750,17421 12690,17356 12635,17295 12607,17221 12607,17134 12607,17038 12636,16959 12694,16898 12753,16835 12828,16804 12921,16804 13010,16804 13084,16834 13143,16893 13203,16954 13233,17033 13233,17129 Z M 13077,17129 C 13077,17032 13063,16958 13035,16909 13006,16859 12968,16835 12920,16835 12854,16835 12808,16876 12783,16958 12770,17002 12764,17059 12764,17129 12764,17200 12770,17257 12784,17301 12808,17382 12854,17423 12920,17423 12987,17423 13032,17382 13057,17301 13070,17257 13077,17200 13077,17129 Z"/>
    <path fill="rgb(27,117,179)" stroke="none" d="M 13626,16806 C 13662,16806 13699,16813 13735,16827 13771,16841 13794,16849 13802,16849 13812,16849 13820,16845 13825,16838 13831,16831 13836,16821 13839,16807 L 13864,16807 13864,17021 13842,17021 C 13820,16974 13799,16938 13777,16911 13735,16862 13688,16837 13636,16837 13579,16837 13538,16863 13512,16914 13486,16965 13473,17037 13473,17130 13473,17206 13485,17274 13509,17333 13533,17393 13580,17423 13650,17423 13687,17423 13712,17415 13725,17398 13733,17389 13737,17375 13737,17356 L 13737,17260 C 13737,17232 13728,17214 13712,17206 13701,17200 13680,17197 13647,17197 L 13647,17173 13950,17173 13950,17197 C 13919,17198 13899,17204 13889,17216 13879,17227 13874,17249 13874,17280 L 13874,17397 C 13855,17409 13823,17422 13780,17434 13736,17447 13687,17453 13633,17453 13535,17453 13457,17421 13398,17357 13344,17297 13317,17222 13317,17132 13317,17041 13345,16964 13401,16902 13460,16838 13535,16806 13626,16806 Z"/>
    <path fill="rgb(27,117,179)" stroke="none" d="M 14004,17412 C 14034,17411 14054,17405 14065,17395 14076,17385 14082,17363 14082,17329 L 14082,16924 C 14082,16889 14075,16866 14062,16856 14054,16849 14034,16844 14004,16841 L 14004,16818 14288,16818 C 14347,16818 14395,16824 14431,16837 14502,16863 14537,16909 14537,16977 14537,17026 14519,17065 14482,17094 14453,17115 14423,17129 14392,17135 L 14579,17395 C 14584,17402 14589,17407 14595,17409 14600,17411 14607,17413 14615,17414 L 14615,17435 14431,17435 14225,17150 14225,17150 14225,17329 C 14225,17361 14230,17382 14240,17394 14250,17405 14271,17411 14302,17412 L 14302,17435 14004,17435 14004,17412 14004,17412 14004,17412 Z M 14349,17095 C 14373,17079 14386,17042 14386,16985 14386,16949 14381,16921 14372,16901 14355,16866 14325,16849 14282,16849 14258,16849 14243,16852 14236,16858 14228,16864 14225,16874 14225,16888 L 14225,17120 C 14282,17119 14324,17111 14349,17095 L 14349,17095 Z"/>
    <path fill="rgb(27,117,179)" stroke="none" d="M 14714,17382 C 14722,17371 14734,17345 14749,17305 L 14945,16805 14970,16805 15167,17285 C 15189,17339 15205,17374 15216,17390 15227,17405 15243,17413 15263,17412 L 15263,17435 14977,17435 14977,17412 C 15006,17411 15025,17408 15034,17405 15043,17401 15048,17391 15048,17375 15048,17368 15045,17357 15041,17343 15038,17334 15034,17323 15029,17311 L 15007,17256 14809,17256 C 14796,17292 14787,17316 14784,17327 14776,17350 14772,17368 14772,17378 14772,17391 14780,17401 14797,17407 14807,17410 14822,17412 14843,17412 L 14843,17435 14662,17435 14662,17412 14662,17412 C 14684,17411 14701,17401 14714,17382 Z M 14909,17008 L 14901,17008 14822,17220 14994,17220 14909,17008 Z"/>
    <path fill="rgb(27,117,179)" stroke="none" d="M 15315,17412 C 15349,17412 15370,17406 15381,17394 15391,17382 15396,17364 15396,17339 L 15396,16905 C 15396,16880 15390,16864 15378,16856 15367,16848 15346,16843 15317,16841 L 15317,16818 15539,16818 15713,17241 15720,17241 15893,16818 16115,16818 16115,16841 C 16086,16843 16065,16849 16054,16858 16043,16867 16038,16889 16038,16924 L 16038,17329 C 16038,17362 16043,17384 16054,17395 16065,17405 16086,17411 16115,17412 L 16115,17435 15823,17435 15823,17412 C 15849,17411 15868,17407 15882,17399 15895,17390 15901,17372 15901,17345 L 15901,16898 15895,16898 15679,17435 15655,17435 15437,16909 15433,16909 15433,17322 C 15433,17352 15438,17375 15449,17389 15460,17403 15484,17411 15521,17412 L 15521,17435 15315,17435 15315,17412 15315,17412 15315,17412 Z"/>
    <path fill="rgb(27,117,179)" stroke="none" d="M 16233,17394 C 16243,17382 16248,17364 16248,17339 L 16248,16905 C 16248,16880 16242,16864 16231,16856 16219,16848 16199,16843 16169,16841 L 16169,16818 16392,16818 16565,17241 16573,17241 16745,16818 16968,16818 16968,16841 C 16938,16843 16917,16849 16906,16858 16895,16867 16890,16889 16890,16924 L 16890,17329 C 16890,17362 16895,17384 16906,17395 16917,17405 16938,17411 16968,17412 L 16968,17435 16675,17435 16675,17412 C 16701,17411 16720,17407 16734,17399 16747,17390 16753,17372 16753,17345 L 16753,16898 16747,16898 16531,17435 16507,17435 16289,16909 16285,16909 16285,17322 C 16285,17352 16290,17375 16301,17389 16312,17403 16336,17411 16374,17412 L 16374,17435 16167,17435 16167,17412 16167,17412 C 16201,17412 16223,17406 16233,17394 Z"/>
    <path fill="rgb(27,117,179)" stroke="none" d="M 17075,17403 C 17093,17393 17102,17375 17102,17348 L 17102,16905 C 17102,16878 17093,16860 17077,16851 17066,16846 17048,16842 17021,16841 L 17021,16818 17330,16818 17330,16841 C 17302,16842 17283,16845 17273,16851 17256,16860 17247,16878 17247,16905 L 17247,17348 C 17247,17374 17254,17391 17268,17399 17282,17408 17302,17412 17330,17412 L 17330,17435 17021,17435 17021,17412 17021,17412 C 17046,17412 17064,17408 17075,17403 Z"/>
    <path fill="rgb(27,117,179)" stroke="none" d="M 17447,17393 C 17457,17381 17462,17363 17462,17339 L 17462,16907 C 17435,16875 17418,16857 17412,16851 17405,16846 17397,16842 17386,16841 L 17386,16818 17573,16818 17876,17200 17880,17200 17880,16931 C 17880,16900 17875,16878 17864,16865 17853,16852 17832,16844 17799,16841 L 17799,16818 17989,16818 17989,16841 C 17961,16846 17943,16852 17933,16860 17924,16868 17919,16886 17919,16914 L 17919,17452 17895,17452 17507,16964 17501,16964 17501,17322 C 17501,17350 17504,17370 17512,17382 17524,17400 17548,17411 17584,17412 L 17584,17435 17384,17435 17384,17412 C 17417,17411 17438,17405 17447,17393 Z"/>
    <path fill="rgb(27,117,179)" stroke="none" d="M 18368,16806 C 18405,16806 18441,16813 18477,16827 18513,16841 18536,16849 18545,16849 18554,16849 18562,16845 18568,16838 18573,16831 18578,16821 18582,16807 L 18606,16807 18606,17021 18584,17021 C 18563,16974 18541,16938 18519,16911 18478,16862 18431,16837 18378,16837 18322,16837 18280,16863 18254,16914 18228,16965 18215,17037 18215,17130 18215,17206 18227,17274 18251,17333 18275,17393 18322,17423 18392,17423 18429,17423 18455,17415 18468,17398 18475,17389 18479,17375 18479,17356 L 18479,17260 C 18479,17232 18471,17214 18454,17206 18444,17200 18422,17197 18390,17197 L 18390,17173 18692,17173 18692,17197 C 18662,17198 18641,17204 18632,17216 18622,17227 18617,17249 18617,17280 L 18617,17397 C 18597,17409 18566,17422 18522,17434 18478,17447 18429,17453 18375,17453 18278,17453 18199,17421 18141,17357 18086,17297 18059,17222 18059,17132 18059,17041 18087,16964 18144,16902 18202,16838 18277,16806 18368,16806 Z"/>
    <path fill="rgb(27,117,179)" stroke="none" d="M 12419,18326 C 12443,18325 12460,18322 12470,18316 12488,18307 12497,18289 12497,18262 L 12497,17819 C 12497,17793 12488,17775 12472,17765 12462,17760 12444,17756 12419,17755 L 12419,17732 12727,17732 12727,17755 C 12691,17756 12667,17761 12655,17770 12644,17780 12638,17802 12638,17838 L 12638,18270 C 12638,18290 12643,18304 12653,18310 12663,18317 12683,18320 12713,18320 12766,18320 12810,18308 12846,18284 12882,18260 12913,18212 12940,18142 L 12965,18142 12930,18349 12419,18349 12419,18326 12419,18326 12419,18326 Z"/>
    <path fill="rgb(27,117,179)" stroke="none" d="M 13083,18296 C 13092,18285 13103,18259 13119,18219 L 13315,17719 13339,17719 13536,18199 C 13558,18253 13575,18288 13586,18303 13597,18319 13612,18327 13632,18326 L 13632,18349 13347,18349 13347,18326 C 13376,18325 13394,18322 13403,18318 13412,18315 13417,18305 13417,18289 13417,18282 13415,18271 13410,18256 13407,18248 13403,18237 13398,18225 L 13376,18170 13178,18170 C 13165,18206 13157,18230 13153,18241 13145,18264 13141,18281 13141,18292 13141,18305 13150,18315 13167,18321 13177,18324 13192,18326 13212,18326 L 13212,18349 13032,18349 13032,18326 C 13053,18325 13070,18315 13083,18296 Z M 13363,18134 L 13278,17922 13271,17922 13191,18134 13363,18134 Z"/>
    <path fill="rgb(27,117,179)" stroke="none" d="M 13755,18307 C 13765,18295 13770,18277 13770,18253 L 13770,17820 C 13743,17789 13726,17771 13720,17765 13713,17760 13705,17756 13694,17755 L 13694,17732 13881,17732 14184,18113 14188,18113 14188,17845 C 14188,17814 14183,17792 14172,17779 14161,17766 14139,17758 14107,17755 L 14107,17732 14296,17732 14296,17755 C 14269,17760 14250,17766 14241,17774 14232,17782 14227,17800 14227,17828 L 14227,18366 14203,18366 13814,17878 13808,17878 13808,18236 C 13808,18264 13812,18284 13820,18295 13831,18314 13855,18324 13892,18326 L 13892,18349 13692,18349 13692,18326 C 13725,18325 13746,18319 13755,18307 Z"/>
    <path fill="rgb(27,117,179)" stroke="none" d="M 14681,17720 C 14718,17720 14754,17727 14790,17741 14826,17755 14849,17762 14858,17762 14867,17762 14875,17759 14881,17752 14886,17745 14891,17735 14895,17721 L 14919,17721 14919,17935 14897,17935 C 14876,17888 14854,17852 14832,17825 14791,17775 14744,17751 14692,17751 14635,17751 14593,17776 14567,17828 14541,17879 14528,17951 14528,18044 14528,18120 14540,18188 14564,18247 14589,18307 14635,18337 14705,18337 14743,18337 14768,18329 14781,18312 14788,18303 14792,18289 14792,18270 L 14792,18174 C 14792,18146 14784,18128 14767,18119 14757,18114 14735,18111 14703,18111 L 14703,18087 15005,18087 15005,18111 C 14975,18112 14955,18118 14945,18130 14935,18141 14930,18162 14930,18194 L 14930,18310 C 14910,18323 14879,18335 14835,18348 14791,18360 14743,18367 14689,18367 14591,18367 14512,18335 14454,18271 14399,18211 14372,18136 14372,18046 14372,17955 14400,17878 14457,17816 14515,17752 14590,17720 14681,17720 Z"/>
    <path fill="rgb(27,117,179)" stroke="none" d="M 15363,17732 L 15363,17755 C 15329,17756 15306,17762 15294,17771 15283,17781 15277,17803 15277,17838 L 15277,18145 C 15277,18191 15283,18227 15293,18252 15312,18299 15349,18323 15404,18323 15472,18323 15517,18297 15541,18245 15554,18216 15561,18176 15561,18125 L 15561,17845 C 15561,17812 15555,17790 15544,17777 15532,17765 15509,17758 15475,17755 L 15475,17732 15669,17732 15669,17755 C 15641,17760 15623,17767 15613,17776 15604,17784 15600,17803 15600,17832 L 15600,18124 C 15600,18202 15582,18262 15546,18304 15509,18346 15453,18368 15375,18368 15274,18368 15204,18336 15167,18273 15147,18240 15137,18197 15137,18144 L 15137,17838 C 15137,17804 15133,17782 15124,17773 15115,17765 15096,17758 15065,17755 L 15065,17732 15363,17732 15363,17732 Z"/>
    <path fill="rgb(27,117,179)" stroke="none" d="M 15780,18296 C 15788,18285 15800,18259 15815,18219 L 16011,17719 16036,17719 16233,18199 C 16255,18253 16271,18288 16282,18303 16293,18319 16309,18327 16329,18326 L 16329,18349 16043,18349 16043,18326 C 16072,18325 16091,18322 16100,18318 16109,18315 16114,18305 16114,18289 16114,18282 16111,18271 16107,18256 16104,18248 16100,18237 16095,18225 L 16073,18170 15875,18170 C 15862,18206 15853,18230 15849,18241 15842,18264 15838,18281 15838,18292 15838,18305 15846,18315 15863,18321 15873,18324 15888,18326 15909,18326 L 15909,18349 15728,18349 15728,18326 C 15750,18325 15767,18315 15780,18296 Z M 15975,17922 L 15967,17922 15888,18134 16060,18134 15975,17922 Z"/>
    <path fill="rgb(27,117,179)" stroke="none" d="M 16716,17720 C 16752,17720 16789,17727 16825,17741 16861,17755 16884,17762 16892,17762 16902,17762 16910,17759 16915,17752 16921,17745 16926,17735 16929,17721 L 16954,17721 16954,17935 16932,17935 C 16910,17888 16889,17852 16867,17825 16825,17775 16778,17751 16726,17751 16669,17751 16628,17776 16602,17828 16576,17879 16562,17951 16562,18044 16562,18120 16575,18188 16599,18247 16623,18307 16670,18337 16740,18337 16777,18337 16802,18329 16815,18312 16823,18303 16827,18289 16827,18270 L 16827,18174 C 16827,18146 16818,18128 16802,18119 16791,18114 16770,18111 16737,18111 L 16737,18087 17040,18087 17040,18111 C 17009,18112 16989,18118 16979,18130 16969,18141 16964,18162 16964,18194 L 16964,18310 C 16945,18323 16913,18335 16870,18348 16826,18360 16777,18367 16723,18367 16625,18367 16547,18335 16488,18271 16434,18211 16407,18136 16407,18046 16407,17955 16435,17878 16491,17816 16550,17752 16625,17720 16716,17720 Z"/>
    <path fill="rgb(27,117,179)" stroke="none" d="M 17099,18326 C 17125,18325 17143,18322 17153,18315 17170,18306 17178,18288 17178,18262 L 17178,17819 C 17178,17793 17169,17775 17152,17766 17143,17760 17125,17756 17099,17755 L 17099,17732 17608,17732 17608,17916 17586,17916 C 17575,17857 17556,17817 17529,17795 17502,17773 17453,17762 17382,17762 17355,17762 17338,17765 17331,17771 17324,17777 17320,17789 17320,17806 L 17320,18017 C 17370,18018 17404,18008 17422,17989 17440,17969 17454,17934 17463,17882 L 17485,17882 17485,18191 17463,18191 C 17457,18139 17444,18102 17424,18081 17405,18060 17370,18049 17320,18049 L 17320,18270 C 17320,18290 17325,18303 17334,18310 17344,18317 17364,18320 17394,18320 17450,18320 17496,18309 17532,18286 17567,18264 17599,18221 17626,18159 L 17651,18159 17615,18349 17099,18349 17099,18349 17099,18326 Z"/>
   </g>
  </g>
 </g>
</svg>