<?xml version="1.0" encoding="UTF-8"?>
<!DOCTYPE svg PUBLIC "-//W3C//DTD SVG 1.1//EN" "http://www.w3.org/Graphics/SVG/1.1/DTD/svg11.dtd">
<svg version="1.2" width="80.01mm" height="63.42mm" viewBox="2000 20260 8001 6342" preserveAspectRatio="xMidYMid" fill-rule="evenodd" stroke-width="28.222" stroke-linejoin="round" xmlns="http://www.w3.org/2000/svg" xmlns:ooo="http://xml.openoffice.org/svg/export" xmlns:xlink="http://www.w3.org/1999/xlink" xmlns:presentation="http://sun.com/xmlns/staroffice/presentation" xmlns:smil="http://www.w3.org/2001/SMIL20/" xmlns:anim="urn:oasis:names:tc:opendocument:xmlns:animation:1.0" xml:space="preserve">
 <defs class="EmbeddedBulletChars">
  <g id="bullet-char-template-57356" transform="scale(0.00048828125,-0.00048828125)">
   <path d="M 580,1141 L 1163,571 580,0 -4,571 580,1141 Z"/>
  </g>
  <g id="bullet-char-template-57354" transform="scale(0.00048828125,-0.00048828125)">
   <path d="M 8,1128 L 1137,1128 1137,0 8,0 8,1128 Z"/>
  </g>
  <g id="bullet-char-template-10146" transform="scale(0.00048828125,-0.00048828125)">
   <path d="M 174,0 L 602,739 174,1481 1456,739 174,0 Z M 1358,739 L 309,1346 659,739 1358,739 Z"/>
  </g>
  <g id="bullet-char-template-10132" transform="scale(0.00048828125,-0.00048828125)">
   <path d="M 2015,739 L 1276,0 717,0 1260,543 174,543 174,936 1260,936 717,1481 1274,1481 2015,739 Z"/>
  </g>
  <g id="bullet-char-template-10007" transform="scale(0.00048828125,-0.00048828125)">
   <path d="M 0,-2 C -7,14 -16,27 -25,37 L 356,567 C 262,823 215,952 215,954 215,979 228,992 255,992 264,992 276,990 289,987 310,991 331,999 354,1012 L 381,999 492,748 772,1049 836,1024 860,1049 C 881,1039 901,1025 922,1006 886,937 835,863 770,784 769,783 710,716 594,584 L 774,223 C 774,196 753,168 711,139 L 727,119 C 717,90 699,76 672,76 641,76 570,178 457,381 L 164,-76 C 142,-110 111,-127 72,-127 30,-127 9,-110 8,-76 1,-67 -2,-52 -2,-32 -2,-23 -1,-13 0,-2 Z"/>
  </g>
  <g id="bullet-char-template-10004" transform="scale(0.00048828125,-0.00048828125)">
   <path d="M 285,-33 C 182,-33 111,30 74,156 52,228 41,333 41,471 41,549 55,616 82,672 116,743 169,778 240,778 293,778 328,747 346,684 L 369,508 C 377,444 397,411 428,410 L 1163,1116 C 1174,1127 1196,1133 1229,1133 1271,1133 1292,1118 1292,1087 L 1292,965 C 1292,929 1282,901 1262,881 L 442,47 C 390,-6 338,-33 285,-33 Z"/>
  </g>
  <g id="bullet-char-template-9679" transform="scale(0.00048828125,-0.00048828125)">
   <path d="M 813,0 C 632,0 489,54 383,161 276,268 223,411 223,592 223,773 276,916 383,1023 489,1130 632,1184 813,1184 992,1184 1136,1130 1245,1023 1353,916 1407,772 1407,592 1407,412 1353,268 1245,161 1136,54 992,0 813,0 Z"/>
  </g>
  <g id="bullet-char-template-8226" transform="scale(0.00048828125,-0.00048828125)">
   <path d="M 346,457 C 273,457 209,483 155,535 101,586 74,649 74,723 74,796 101,859 155,911 209,963 273,989 346,989 419,989 480,963 531,910 582,859 608,796 608,723 608,648 583,586 532,535 482,483 420,457 346,457 Z"/>
  </g>
  <g id="bullet-char-template-8211" transform="scale(0.00048828125,-0.00048828125)">
   <path d="M -4,459 L 1135,459 1135,606 -4,606 -4,459 Z"/>
  </g>
  <g id="bullet-char-template-61548" transform="scale(0.00048828125,-0.00048828125)">
   <path d="M 173,740 C 173,903 231,1043 346,1159 462,1274 601,1332 765,1332 928,1332 1067,1274 1183,1159 1299,1043 1357,903 1357,740 1357,577 1299,437 1183,322 1067,206 928,148 765,148 601,148 462,206 346,322 231,437 173,577 173,740 Z"/>
  </g>
 </defs>
 <g class="Page">
  <g class="Group">
   <g class="com.sun.star.drawing.PolyPolygonShape">
    <g id="id3">
     <rect class="BoundingBox" stroke="none" fill="none" x="2021" y="21250" width="6729" height="5330"/>
     <path fill="rgb(194,185,95)" stroke="none" d="M 8749,21641 L 8749,26190 8749,26203 8748,26215 8747,26227 8746,26240 8742,26264 8737,26287 8736,26287 8736,26287 8736,26287 8736,26287 8736,26287 8736,26287 8736,26287 8736,26287 8736,26288 8736,26288 8736,26288 8735,26288 8735,26288 8735,26289 8735,26289 8735,26289 8729,26312 8721,26333 8712,26354 8701,26375 8689,26395 8676,26414 8662,26432 8646,26450 8620,26477 8591,26501 8576,26512 8560,26523 8543,26532 8526,26541 8509,26549 8491,26556 8472,26562 8454,26567 8434,26571 8415,26574 8395,26577 8375,26578 8373,26578 8372,26578 8370,26578 8369,26579 8367,26579 8364,26579 8360,26579 2410,26579 2387,26578 2364,26576 2342,26573 2320,26568 2299,26562 2279,26555 2258,26547 2239,26538 2211,26523 2184,26505 2159,26486 2136,26464 2115,26441 2095,26416 2077,26390 2062,26362 2055,26348 2049,26334 2044,26320 2039,26305 2035,26290 2031,26275 2028,26260 2026,26244 2024,26231 2022,26217 2022,26204 2021,26190 2021,21641 2023,21601 2029,21563 2039,21526 2052,21490 2069,21456 2088,21423 2111,21393 2136,21366 2164,21340 2193,21318 2226,21298 2259,21282 2295,21268 2332,21259 2370,21253 2410,21251 8360,21251 8400,21253 8438,21259 8475,21268 8511,21282 8545,21298 8577,21318 8607,21340 8634,21366 8660,21393 8682,21423 8702,21456 8718,21490 8731,21526 8741,21563 8747,21601 8749,21641 Z"/>
    </g>
   </g>
   <g class="com.sun.star.drawing.PolyPolygonShape">
    <g id="id4">
     <rect class="BoundingBox" stroke="none" fill="none" x="2021" y="21250" width="6729" height="5330"/>
     <path fill="rgb(194,185,95)" stroke="none" d="M 8749,21641 L 8749,26190 8749,26203 8748,26215 8747,26227 8746,26240 8742,26264 8737,26287 8736,26287 8736,26287 8736,26287 8736,26287 8736,26287 8736,26287 8736,26287 8736,26287 8736,26288 8736,26288 8736,26288 8735,26288 8735,26288 8735,26289 8735,26289 8735,26289 8729,26312 8721,26333 8712,26354 8701,26375 8689,26395 8676,26414 8662,26432 8646,26450 8620,26477 8591,26501 8576,26512 8560,26523 8543,26532 8526,26541 8509,26549 8491,26556 8472,26562 8454,26567 8434,26571 8415,26574 8395,26577 8375,26578 8373,26578 8372,26578 8370,26578 8369,26579 8367,26579 8364,26579 8360,26579 2410,26579 2387,26578 2364,26576 2342,26573 2320,26568 2299,26562 2279,26555 2258,26547 2239,26538 2211,26523 2184,26505 2159,26486 2136,26464 2115,26441 2095,26416 2077,26390 2062,26362 2055,26348 2049,26334 2044,26320 2039,26305 2035,26290 2031,26275 2028,26260 2026,26244 2024,26231 2022,26217 2022,26204 2021,26190 2021,21641 2023,21601 2029,21563 2039,21526 2052,21490 2069,21456 2088,21423 2111,21393 2136,21366 2164,21340 2193,21318 2226,21298 2259,21282 2295,21268 2332,21259 2370,21253 2410,21251 8360,21251 8400,21253 8438,21259 8475,21268 8511,21282 8545,21298 8577,21318 8607,21340 8634,21366 8660,21393 8682,21423 8702,21456 8718,21490 8731,21526 8741,21563 8747,21601 8749,21641 Z"/>
    </g>
   </g>
   <g class="com.sun.star.drawing.PolyPolygonShape">
    <g id="id5">
     <rect class="BoundingBox" stroke="none" fill="none" x="2021" y="20260" width="3363" height="2218"/>
     <path fill="rgb(194,185,95)" stroke="none" d="M 5383,22476 L 2523,22476 2503,22476 2484,22475 2465,22473 2446,22471 2408,22465 2371,22457 2334,22446 2299,22434 2264,22419 2232,22403 2201,22384 2172,22364 2145,22342 2121,22319 2099,22294 2079,22268 2062,22240 2048,22211 2036,22181 2028,22151 2023,22119 2021,22087 2021,20649 2024,20609 2032,20571 2044,20534 2061,20498 2082,20464 2107,20432 2136,20402 2169,20375 2205,20349 2243,20327 2285,20307 2328,20291 2374,20278 2422,20268 2472,20262 2523,20260 4077,20260 4660,21251 4868,21602 5064,21935 5383,22476 Z"/>
    </g>
   </g>
   <g class="com.sun.star.drawing.PolyPolygonShape">
    <g id="id6">
     <rect class="BoundingBox" stroke="none" fill="none" x="2371" y="21601" width="6029" height="4629"/>
     <path fill="rgb(255,255,255)" stroke="none" d="M 2371,26190 L 2371,21641 2372,21637 2372,21633 2373,21629 2375,21626 2376,21622 2378,21619 2381,21616 2383,21613 2386,21611 2389,21608 2392,21606 2396,21605 2399,21603 2403,21602 2407,21602 2410,21602 8360,21602 8364,21602 8367,21602 8371,21603 8375,21605 8378,21606 8381,21608 8384,21611 8387,21613 8390,21616 8392,21619 8394,21622 8396,21626 8397,21629 8398,21633 8399,21637 8399,21641 8399,26190 8399,26194 8398,26197 8397,26201 8396,26204 8394,26208 8392,26211 8390,26214 8387,26217 8384,26219 8381,26222 8378,26224 8375,26225 8371,26227 8367,26228 8364,26228 8360,26229 2410,26229 2407,26228 2403,26228 2399,26227 2396,26225 2392,26224 2389,26222 2386,26219 2383,26217 2381,26214 2378,26211 2376,26208 2375,26204 2373,26201 2372,26197 2372,26194 2371,26190 Z"/>
    </g>
   </g>
   <g class="com.sun.star.drawing.PolyPolygonShape">
    <g id="id7">
     <rect class="BoundingBox" stroke="none" fill="none" x="2000" y="21935" width="8001" height="4667"/>
     <path fill="rgb(207,185,86)" stroke="none" d="M 9979,22273 L 9979,22273 9979,22273 9979,22274 9979,22274 9979,22274 9979,22274 9979,22274 9979,22274 9979,22274 9979,22274 9979,22274 9979,22274 9979,22275 9979,22275 9979,22275 9979,22275 9979,22275 9947,22379 9785,22901 9613,23458 9452,23979 9280,24537 9120,25059 8748,26260 8737,26287 8736,26287 8736,26287 8736,26287 8736,26287 8736,26287 8736,26287 8736,26287 8736,26287 8736,26288 8736,26288 8736,26288 8735,26288 8735,26288 8735,26289 8735,26289 8735,26289 8733,26292 8733,26292 8733,26292 8733,26292 8733,26292 8733,26293 8733,26293 8732,26294 8732,26294 8732,26295 8731,26295 8731,26296 8731,26296 8718,26320 8704,26343 8688,26365 8670,26387 8651,26409 8631,26429 8587,26467 8539,26502 8488,26532 8435,26557 8379,26576 8379,26577 8378,26577 8378,26577 8378,26577 8377,26577 8376,26577 8375,26577 8375,26578 8375,26578 8375,26578 8375,26578 8373,26578 8355,26583 8336,26587 8318,26591 8300,26594 8281,26597 8263,26599 8245,26600 8227,26600 2278,26600 2248,26599 2218,26596 2191,26591 2165,26584 2140,26575 2118,26564 2097,26551 2078,26537 2061,26522 2045,26505 2032,26486 2021,26467 2013,26446 2006,26424 2002,26401 2000,26377 2000,26363 2001,26349 2002,26336 2005,26321 2008,26307 2009,26301 2010,26296 2013,26284 2021,26260 2026,26244 2371,25125 3190,22476 3252,22275 3267,22241 3286,22207 3308,22175 3334,22143 3362,22114 3392,22086 3424,22059 3459,22035 3495,22013 3533,21994 3571,21976 3611,21962 3651,21951 3692,21942 3732,21937 3772,21935 9722,21935 9752,21936 9781,21940 9809,21945 9835,21952 9860,21961 9882,21972 9903,21984 9922,21998 9939,22014 9954,22031 9967,22050 9978,22069 9987,22090 9994,22112 9998,22135 10000,22159 10000,22171 9999,22184 9998,22196 9996,22208 9994,22221 9991,22234 9988,22247 9983,22260 9979,22273 Z"/>
    </g>
   </g>
   <g class="com.sun.star.drawing.PolyPolygonShape">
    <g id="id8">
     <rect class="BoundingBox" stroke="none" fill="none" x="6707" y="24537" width="2574" height="523"/>
     <path fill="rgb(251,225,226)" fill-opacity="0.502" stroke="rgb(255,255,255)" stroke-opacity="0.502" d="M 9280,24537 L 9119,25059 6707,25059 6707,24537 9280,24537 Z"/>
    </g>
   </g>
   <g class="com.sun.star.drawing.PolyPolygonShape">
    <g id="id9">
     <rect class="BoundingBox" stroke="none" fill="none" x="7074" y="23458" width="2541" height="523"/>
     <path fill="rgb(251,225,226)" fill-opacity="0.502" stroke="rgb(255,255,255)" stroke-opacity="0.502" d="M 9614,23458 L 9452,23980 7075,23980 7075,23458 9614,23458 Z"/>
    </g>
   </g>
   <g class="com.sun.star.drawing.PolyPolygonShape">
    <g id="id10">
     <rect class="BoundingBox" stroke="none" fill="none" x="2829" y="21250" width="7172" height="5352"/>
     <path fill="rgb(4,0,0)" fill-opacity="0.059" stroke="rgb(255,255,255)" stroke-opacity="0.059" d="M 9979,22273 L 9979,22273 9979,22273 9979,22274 9979,22274 9979,22274 9979,22274 9979,22274 9979,22274 9979,22274 9979,22274 9979,22274 9979,22274 9979,22275 9979,22275 9979,22275 9979,22275 9979,22275 9947,22379 9785,22901 9613,23458 9452,23979 9280,24537 9120,25059 8748,26260 8737,26287 8736,26287 8736,26287 8736,26287 8736,26287 8736,26287 8736,26287 8736,26287 8736,26287 8736,26288 8736,26288 8736,26288 8735,26288 8735,26288 8735,26289 8735,26289 8735,26289 8733,26292 8733,26292 8733,26292 8733,26292 8733,26292 8733,26293 8733,26293 8732,26294 8732,26294 8732,26295 8731,26295 8731,26296 8731,26296 8724,26317 8717,26338 8708,26359 8698,26378 8686,26397 8674,26415 8661,26433 8646,26450 8620,26476 8591,26500 8561,26521 8528,26539 8493,26554 8456,26565 8418,26573 8379,26576 8379,26577 8378,26577 8378,26577 8378,26577 8377,26577 8376,26577 8375,26577 8375,26578 8375,26578 8375,26578 8375,26578 8373,26578 8355,26583 8337,26587 8318,26591 8300,26594 8282,26597 8263,26599 8245,26600 8227,26600 2829,26600 2850,26579 3201,26229 7495,21935 7828,21602 8178,21251 8360,21251 8400,21253 8438,21259 8475,21268 8511,21282 8545,21298 8577,21318 8607,21340 8634,21366 8660,21393 8682,21423 8702,21455 8718,21489 8731,21525 8741,21562 8747,21601 8749,21641 8749,21935 9722,21935 9752,21936 9781,21940 9809,21945 9835,21952 9860,21961 9882,21972 9903,21984 9922,21998 9939,22014 9954,22031 9967,22050 9978,22069 9987,22090 9994,22112 9998,22135 10000,22159 10000,22171 9999,22184 9998,22196 9996,22208 9994,22221 9991,22234 9988,22247 9983,22260 9979,22273 Z"/>
    </g>
   </g>
  </g>
 </g>
</svg>