<svg xmlns="http://www.w3.org/2000/svg" xmlns:xlink="http://www.w3.org/1999/xlink" width="487" height="475" viewBox="0 0 487 475"><defs><path id="b" d="M.471.096c0 .022-.015.032-.027.04l-.27.17.27.17c.012.008.027.018.027.04 0 .027-.023.04-.042.04-.011 0-.014 0-.03-.01L.079.345C.068.338.053.328.053.305Q.055.284.075.27L.399.066C.415.055.418.055.429.055c.019 0 .042.014.042.04"/><path id="c" d="M.462.13c0 .106-.131.13-.164.134L.197.282C.171.288.144.3.144.322S.175.37.26.37C.333.37.347.345.35.322c.001-.02.004-.04.041-.04.041 0 .042.024.042.047v.068c0 .02-.002.047-.037.047C.374.444.366.435.362.427.32.444.28.444.262.444.091.444.069.358.069.322c0-.094.105-.114.199-.128C.312.187.387.175.387.13.387.096.352.07.27.07.227.07.176.08.153.15.147.172.142.184.111.184.07.184.069.16.069.136V.042c0-.019.001-.048.037-.048.01 0 .027 0 .04.033a.2.2 0 0 1 .123-.033c.161 0 .193.087.193.136"/><path id="d" d="M.502.398c0 .037-.028.038-.047.038H.341C.323.436.294.434.294.4c0-.037.028-.038.047-.038h.016L.262.08.167.361h.016C.201.361.23.362.23.398.23.435.202.436.183.436H.069C.05.436.022.436.022.398c0-.036.029-.037.047-.037h.024l.11-.327c.013-.038.036-.038.059-.038.021 0 .047.001.059.038l.11.327h.024c.018 0 .047.001.047.037"/><path id="e" d="M.511.386c0 .025-.02.06-.079.06A.2.2 0 0 1 .328.414a.2.2 0 0 1-.094.027.166.166 0 0 1-.169-.163c0-.04.015-.073.03-.093A.12.12 0 0 1 .077.12c0-.03.01-.054.019-.068C.027.005.027-.06.027-.072c0-.087.105-.15.235-.15s.235.064.235.15c0 .038-.019.09-.071.118a.3.3 0 0 1-.145.029H.212C.194.075.173.07.158.088c-.009.011-.01.03-.01.03l.003.016a.2.2 0 0 1 .083-.02c.094 0 .169.073.169.164A.16.16 0 0 1 .38.36q.023.01.04.012A.05.05 0 0 1 .464.338c.02 0 .047.014.047.048M.319.278a.09.09 0 0 0-.086-.09c-.048 0-.086.041-.086.09 0 .05.039.09.086.09a.09.09 0 0 0 .086-.09m.106-.35c0-.04-.071-.077-.163-.077s-.163.036-.163.077c0 .016.008.044.037.062.022.014.031.014.1.014.082 0 .189 0 .189-.076"/><path id="f" d="M.498.037c0 .037-.03.038-.048.038H.415l-.119.15.105.136h.035c.017 0 .048.001.048.037S.454.436.436.436H.322C.305.436.276.434.276.4c0-.03.016-.037.04-.038L.259.283.2.361C.223.362.24.37.24.4.24.434.211.436.193.436H.079C.061.436.031.434.031.398S.062.361.079.361h.035L.223.224.108.075H.073C.055.075.025.074.025.037.025.001.056 0 .073 0h.114c.018 0 .047.001.047.037C.234.068.217.074.19.075l.069.1.072-.1C.306.073.289.067.289.037.289.001.318 0 .336 0H.45c.017 0 .048.001.048.037"/><path id="g" d="M.522.037C.522.07.503.075.467.075v.228c0 .021-.002.138-.095.138A.13.13 0 0 1 .277.397a.09.09 0 0 1-.075.044.13.13 0 0 1-.079-.028C.116.435.097.436.079.436H.048C.03.436 0 .434 0 .4 0 .366.019.361.055.361V.075C.019.075 0 .07 0 .037 0 .001.031 0 .048 0h.085c.018 0 .045.001.045.037C.178.07.162.075.126.075v.167c0 .08.034.124.072.124C.217.366.226.35.226.294V.075C.205.074.186.069.186.037.186.001.214 0 .231 0h.073c.018 0 .045.001.045.037C.349.07.332.075.296.075v.167c0 .08.035.124.072.124.02 0 .028-.016.028-.072V.075C.376.074.357.069.357.037.357.001.385 0 .401 0h.073c.018 0 .048.001.048.037"/><path id="h" d="M.47.037C.47.074.442.075.423.075H.304v.488C.304.6.297.611.257.611H.103c-.019 0-.048 0-.048-.038 0-.036.03-.037.047-.037h.119V.075H.103C.084.075.055.074.055.037.055.001.085 0 .102 0h.321C.441 0 .47.001.47.037"/><path id="i" d="M.513.037c0 .037-.028.038-.047.038H.431v.218c0 .104-.053.148-.135.148A.2.2 0 0 1 .176.4C.175.424.168.436.129.436H.058C.039.436.011.434.011.398S.041.361.057.361h.036V.075H.058C.039.075.011.074.011.037.011.001.041 0 .057 0h.155c.017 0 .047.001.047.037C.259.074.23.075.211.075H.176V.24c0 .091.068.126.114.126.047 0 .058-.025.058-.078V.075h-.03C.299.075.27.074.27.037.27.001.301 0 .318 0h.149c.016 0 .046.001.046.037"/><path id="j" d="M.488.38c0 .04-.041.042-.057.042H.093C.077.422.036.42.036.38c0-.041.038-.042.052-.042h.348c.014 0 .052 0 .052.042m0-.149C.488.272.45.273.436.273H.088c-.014 0-.052 0-.052-.042C.036.191.077.19.093.19h.338c.016 0 .057.002.057.042"/><path id="k" d="M.402.56C.405.613.366.622.351.622.329.622.296.61.299.56L.312.362C.313.344.318.32.351.32c.03 0 .037.021.038.041zm-.177 0C.228.612.189.621.174.621.152.622.119.61.122.56L.135.362C.136.344.141.32.174.32c.03 0 .037.021.038.041z"/><path id="l" d="M.513.037c0 .037-.028.038-.047.038H.431v.218c0 .104-.053.148-.135.148A.2.2 0 0 1 .176.4v.164C.176.6.169.611.129.611H.058c-.019 0-.047 0-.047-.038 0-.036.03-.037.046-.037h.036V.075H.058C.039.075.011.074.011.037.011.001.041 0 .057 0h.155c.017 0 .047.001.047.037C.259.074.23.075.211.075H.176V.24c0 .091.068.126.114.126.047 0 .058-.025.058-.078V.075h-.03C.299.075.27.074.27.037.27.001.301 0 .318 0h.149c.016 0 .046.001.046.037"/><path id="m" d="M.451.131c0 .021 0 .045-.042.045C.37.176.369.152.369.132.368.078.318.07.297.07.23.07.23.115.23.136v.225h.152C.4.361.429.362.429.398c0 .037-.028.038-.047.038H.23v.072C.23.53.229.555.189.555.148.555.147.531.147.508V.436H.07C.051.436.023.434.023.398S.051.361.069.361h.078v-.23c0-.099.07-.137.146-.137S.451.04.451.131"/><path id="n" d="M.49.218C.49.343.399.441.292.441A.2.2 0 0 1 .175.402C.174.425.165.436.129.436H.058C.039.436.01.434.01.398S.04.361.057.361h.036V-.14H.058C.039-.14.01-.14.01-.179c0-.036.03-.037.047-.037h.155c.017 0 .047.001.047.037 0 .037-.029.038-.048.038H.176v.175a.16.16 0 0 1 .105-.04c.11 0 .209.096.209.224m-.082 0C.408.13.344.07.279.07.208.07.177.15.177.194v.071c0 .054.053.101.11.101.068 0 .121-.068.121-.148"/><path id="o" d="M.331.366a.07.07 0 0 1-.068.07.069.069 0 0 1-.001-.138c.042 0 .069.034.069.068m0-.298a.07.07 0 0 1-.068.069.07.07 0 0 1-.069-.068C.194.029.227 0 .262 0c.042 0 .069.034.069.068"/><path id="p" d="M.469.65a.04.04 0 0 1-.042.042C.401.692.392.675.386.66L.064-.012C.056-.03.055-.032.055-.039c0-.022.018-.042.042-.042.026 0 .035.017.041.032L.46.623c.008.018.009.02.009.027"/><path id="q" d="M.51.4C.51.433.482.435.461.435H.349C.327.436.3.434.3.4.3.362.326.361.349.361h.038L.345.115.326.19C.307.258.301.268.264.268c-.012 0-.033 0-.046-.026L.18.113.137.361h.038c.022 0 .049.001.049.037S.198.436.175.436H.063C.042.436.014.434.014.4S.034.361.065.361L.123.04C.127.013.131-.004.176-.004c.043 0 .048.008.064.074l.025.092.038-.145c.014-.02.034-.02.048-.02.042 0 .046.017.05.043l.058.321C.49.361.51.365.51.4"/><path id="r" d="M.331.068a.07.07 0 0 1-.068.069.07.07 0 0 1-.069-.068C.194.029.227 0 .262 0c.042 0 .069.034.069.068"/><path id="s" d="M.482.177A.18.18 0 0 1 .38.334a.18.18 0 0 1 .074.143C.454.552.38.622.263.622.14.622.07.57.07.5.07.462.099.446.122.446c.024 0 .05.02.05.052a.1.1 0 0 1-.006.025c.03.024.09.024.098.024.061 0 .107-.03.107-.07a.1.1 0 0 0-.038-.08A.12.12 0 0 0 .247.37C.184.37.169.361.169.33c0-.037.028-.038.047-.038h.045c.091 0 .138-.06.138-.114C.399.121.347.064.264.064c-.036 0-.103.01-.13.048q.009.008.01.031a.05.05 0 0 1-.051.051C.067.194.042.177.042.14c0-.09.097-.15.222-.15.133 0 .218.093.218.187"/><path id="t" d="M.47.218C.47.345.375.444.262.444S.054.345.054.218c0-.128.097-.224.208-.224S.47.091.47.218M.387.225C.387.14.33.07.262.07S.137.14.137.225c0 .084.06.144.125.144C.328.37.387.31.387.225"/><path id="u" d="M.489.373c0 .022-.012.068-.1.068A.22.22 0 0 1 .231.374v.014c0 .036-.007.048-.047.048H.077C.059.436.03.434.03.4.03.362.058.361.077.361h.071V.075H.077C.059.075.03.074.03.038.03.001.058 0 .077 0h.254c.018 0 .048.001.048.037 0 .037-.03.038-.048.038h-.1v.114c0 .086.052.174.16.177C.391.342.414.324.44.324s.049.018.049.05"/><path id="v" d="M.474.048v.025c0 .023 0 .048-.04.048C.396.121.392.103.392.075H.189c.057.049.138.113.177.148.063.056.108.121.108.201 0 .121-.101.198-.225.198C.129.622.05.538.05.451A.05.05 0 0 1 .101.397c.024 0 .051.019.051.051A.06.06 0 0 1 .14.482c.015.04.056.065.104.065C.32.547.392.505.392.424.392.358.345.303.282.252L.067.07C.056.061.05.055.05.038.05.001.078 0 .097 0h.331c.038 0 .046.01.046.048"/><path id="w" d="M.476.305c0 .187-.104.317-.214.317C.15.622.048.49.048.306.048.12.152-.01.262-.01c.112 0 .214.133.214.316M.394.316C.394.177.335.064.262.064S.13.177.13.316c0 .137.063.231.132.231.068 0 .132-.094.132-.23"/><path id="x" d="M.458.037c0 .037-.03.038-.048.038H.316v.313c0 .036-.007.048-.047.048H.131C.113.436.083.434.083.4c0-.037.03-.038.048-.038h.102V.075h-.11C.104.075.075.074.075.037.075.001.105 0 .123 0H.41c.018 0 .048.001.048.037M.32.55a.056.056 0 0 1-.057.056A.056.056 0 0 1 .206.55c0-.032.025-.057.057-.057S.32.518.32.55"/><path id="y" d="M.514.038c0 .036-.03.037-.047.037H.431v.488C.431.6.424.611.384.611H.313c-.019 0-.048 0-.048-.038 0-.036.03-.037.047-.037h.036v-.13a.18.18 0 0 1-.106.035C.132.441.034.346.034.217c0-.125.092-.223.199-.223A.17.17 0 0 1 .348.04C.35.011.356 0 .395 0h.071c.019 0 .048.001.048.038M.347.197C.347.147.306.069.236.069.17.07.116.135.116.217c0 .09.064.15.129.15.058 0 .102-.05.102-.1z"/><path id="z" d="M.467.114c0 .034-.035.035-.042.035C.403.149.394.145.385.123.365.077.316.069.291.069a.155.155 0 0 0-.152.117H.42c.025 0 .047 0 .047.044C.467.345.401.444.27.444A.22.22 0 0 1 .052.22c0-.123.102-.225.232-.225.136 0 .183.094.183.12M.381.26H.14c.016.063.068.11.13.11.046 0 .1-.023.111-.11"/><path id="A" d="M.471.306Q.469.329.449.343L.125.546c-.016.01-.019.01-.03.01C.076.557.053.544.053.517c0-.022.015-.032.027-.04l.27-.17-.27-.17C.068.128.053.118.053.096c0-.027.023-.041.042-.041.011 0 .014 0 .03.01l.32.202c.011.007.026.017.026.039"/><path id="B" d="M.44.551C.44.615.356.617.338.617.256.617.178.57.178.48V.436h-.09C.069.436.04.434.04.398S.069.361.087.361h.091V.075H.087C.069.075.039.074.039.038.039.001.069 0 .087 0h.264c.018 0 .048.001.048.037 0 .037-.03.038-.048.038H.26v.286h.112c.017 0 .046.001.046.037 0 .037-.027.038-.046.038H.26v.038c0 .063.052.068.081.068C.345.528.358.5.39.5a.05.05 0 0 1 .05.051"/><path id="C" d="M.51.037C.51.074.48.075.462.075H.435l-.138.18.112.106H.44c.018 0 .048.001.048.037S.458.436.44.436H.29c-.019 0-.046 0-.046-.038C.244.362.272.361.29.361h.017L.176.238v.325C.176.6.169.611.13.611H.066c-.018 0-.047 0-.047-.037S.047.536.066.536h.04V.075h-.04C.048.075.019.074.019.038.019.001.047 0 .066 0h.15c.018 0 .047.001.047.037 0 .037-.028.038-.047.038h-.04v.068l.069.064.102-.132C.316.074.3.068.3.037.3.001.329 0 .347 0h.115C.48 0 .51.001.51.037"/><path id="D" d="M.471.306c0 .04-.04.042-.054.042h-.31C.093.348.053.347.053.306S.093.264.107.264h.31c.014 0 .054 0 .054.042"/><path id="E" d="M.497.202C.497.239.469.24.45.24H.382v.335c0 .038-.008.048-.048.048H.307C.28.623.274.621.259.599L.037.25C.027.236.027.233.027.211c0-.038.011-.046.047-.046h.238v-.09H.259C.24.075.212.074.212.037.212.001.241 0 .259 0h.175c.018 0 .047.001.047.037 0 .037-.027.038-.047.038H.382v.09H.45c.018 0 .047.001.047.037M.31.24H.116L.31.545z"/><path id="F" d="M.372-.035v.423c0 .036-.007.048-.047.048H.171C.152.436.123.434.123.398S.152.361.17.361h.119v-.39c0-.016 0-.049-.021-.08C.241-.147.213-.147.192-.147l-.045.003v.005a.05.05 0 0 1-.051.051.05.05 0 0 1-.052-.052c0-.079.101-.082.144-.082.147 0 .184.122.184.187M.376.55a.056.056 0 0 1-.057.056A.056.056 0 0 1 .262.55c0-.032.025-.057.057-.057S.376.518.376.55"/><path id="G" d="M.513.038c0 .036-.03.037-.046.037H.431v.313c0 .036-.008.048-.047.048H.313C.294.436.265.434.265.398S.295.361.312.361h.036v-.2C.348.081.274.07.245.07.177.07.176.097.176.125v.263c0 .036-.007.048-.047.048H.058C.039.436.011.434.011.398S.041.361.057.361h.036V.12c0-.099.071-.125.147-.125q.057 0 .109.031C.356.001.376 0 .395 0h.071c.019 0 .047.001.047.038"/><path id="H" d="M.521.038c0 .036-.029.037-.047.037a.2.2 0 0 0-.051.006v.205c0 .072-.054.158-.2.158C.178.444.074.441.074.365c0-.034.024-.052.051-.052.017 0 .05.01.051.053L.224.37C.29.37.337.344.34.285.167.281.048.228.048.133c0-.07.064-.139.169-.139.035 0 .094.007.14.035C.382.002.427 0 .464 0c.033 0 .057.002.057.038m-.182.1C.339.119.339.1.306.085.272.069.23.069.222.069.167.07.13.1.13.133c0 .044.079.074.209.08z"/><path id="I" d="M.491.201c0 .04-.04.042-.054.042H.382L.398.37h.039c.014 0 .054.002.054.042 0 .041-.04.042-.054.042H.409l.013.103C.428.6.399.611.381.611.345.611.339.578.338.564L.324.454H.24l.012.102C.258.6.229.611.211.611.175.611.17.578.168.564L.155.454H.087C.073.453.033.451.033.41S.073.37.087.37h.056L.127.243h-.04C.073.243.033.241.033.201S.073.16.087.16h.029L.101.042C.101.02.118 0 .143 0c.035 0 .041.033.043.047l.015.112h.084L.271.042C.271.02.288 0 .313 0c.035 0 .04.033.042.047L.37.159h.067C.451.16.491.16.491.201M.313.37.297.243H.212L.228.37z"/><path id="J" d="M.473.196a.2.2 0 0 1-.2.205.2.2 0 0 1-.135-.045c.019.12.102.191.181.191A.1.1 0 0 0 .361.538Q.355.53.355.511c0-.028.02-.05.05-.05.029 0 .052.018.052.053 0 .05-.037.108-.138.108C.185.622.051.502.051.3c0-.239.114-.31.213-.31.11 0 .209.084.209.207m-.082 0A.13.13 0 0 0 .264.064C.204.064.169.11.151.166a.2.2 0 0 0-.008.059c0 .057.056.1.125.1.074 0 .123-.06.123-.128"/><path id="K" d="M.445.037c0 .037-.027.038-.046.038H.318v.499c0 .019-.002.048-.037.048C.258.622.25.608.244.594.21.516.162.504.145.503.126.502.102.498.102.465c0-.031.021-.037.039-.037s.054.005.094.034V.075H.154C.135.075.107.074.107.037.107.001.136 0 .154 0h.245c.018 0 .046.001.046.037"/><path id="L" d="M.509.037c0 .033-.02.038-.052.038v.461c.032 0 .052.005.052.038C.509.61.48.611.462.611H.407C.363.611.357.596.347.567L.262.301l-.09.282C.16.61.133.611.117.611H.062c-.018 0-.047 0-.047-.037 0-.033.02-.038.052-.038V.075C.035.075.015.07.015.037.015.001.044 0 .062 0h.08C.16 0 .189.001.189.037c0 .033-.02.038-.051.038v.408L.226.218A.05.05 0 0 1 .262.2C.277.2.294.21.303.225l.084.258V.075C.355.075.335.07.335.037.335.001.364 0 .382 0h.08C.48 0 .509.001.509.037"/><path id="M" d="M.482.573C.482.61.455.611.435.611H.119C.11.626.092.627.083.627.043.627.042.601.042.58V.54C.042.514.043.49.083.49.12.49.124.508.125.536h.231A.76.76 0 0 1 .165.043c0-.016.001-.054.041-.054.021 0 .041.013.041.047a.7.7 0 0 0 .211.498c.023.02.024.023.024.039"/><path id="N" d="M.473.313c0 .241-.113.31-.208.31A.21.21 0 0 1 .051.414C.051.3.14.21.251.21a.22.22 0 0 1 .136.045C.371.148.302.065.217.065a.1.1 0 0 0-.053.01A.1.1 0 0 1 .169.1a.05.05 0 0 1-.05.051C.09.151.067.132.067.097c0-.033.018-.108.15-.108s.256.125.256.324M.382.387c0-.05-.05-.1-.126-.1-.074 0-.123.06-.123.128 0 .08.066.132.132.132.082 0 .117-.092.117-.16"/><path id="O" d="M.49.048v.086C.49.158.489.182.449.182.408.182.407.16.407.134V.075H.188v.461h.047c.016 0 .047.001.047.037 0 .037-.03.038-.047.038H.077C.058.611.03.611.03.573.03.537.059.536.077.536h.028V.075H.077C.058.075.03.074.03.037.03.001.059 0 .077 0h.366C.482 0 .49.01.49.048"/><path id="P" d="M.486.172c0 .04-.029.04-.042.04-.011 0-.038 0-.041-.036C.397.086.323.064.285.064.2.064.121.165.121.306s.08.241.163.241C.34.547.39.504.402.43.406.41.409.391.444.391c.041 0 .042.024.042.048v.135c0 .02-.001.048-.037.048C.43.622.421.61.415.602L.405.578a.2.2 0 0 1-.124.043C.151.622.038.488.038.306c0-.183.113-.317.243-.317.118 0 .205.091.205.183"/><path id="Q" d="M.482.177c0 .07-.054.126-.12.152.069.03.107.076.107.13C.469.54.383.621.262.621.14.622.055.54.055.458c0-.053.039-.1.107-.129C.095.303.042.247.042.177c0-.098.093-.188.22-.188.128 0 .22.09.22.188m-.096.28c0-.052-.058-.09-.124-.09s-.124.04-.124.09c0 .047.052.09.124.09.071 0 .124-.043.124-.09M.399.178C.399.115.338.064.262.064S.125.115.125.178c0 .056.053.113.137.113S.399.234.399.178"/><path id="R" d="M.469.114C.469.148.434.15.427.15.408.15.396.147.387.123.382.111.362.07.298.07a.147.147 0 0 0-.145.15c0 .044.026.15.151.15L.355.368C.356.328.378.313.405.313s.052.019.052.052c0 .076-.106.08-.153.08A.223.223 0 0 1 .07.217c0-.12.095-.224.222-.224.143 0 .177.103.177.12"/><path id="S" d="M.474.193a.2.2 0 0 1-.197.202.3.3 0 0 1-.11-.024v.165h.227C.411.536.44.537.44.573.44.61.413.611.394.611H.131C.093.611.085.601.085.563V.304c0-.02.001-.048.039-.048.021 0 .026.006.035.018Q.196.32.276.32C.351.32.392.252.392.193.392.12.326.064.248.064c-.024 0-.08.007-.107.053A.05.05 0 0 1 .152.15a.05.05 0 0 1-.051.052C.084.201.05.191.05.146.05.062.134-.01.248-.01c.127 0 .226.092.226.204"/><clipPath id="a"><path d="M-1 475h1670.741V-.316H-1Z"/></clipPath></defs><g clip-path="url(#a)"><use xlink:href="#b" data-text="&lt;" transform="matrix(29.8879 0 0 -29.8879 -.004 19.213)"/><use xlink:href="#c" data-text="s" transform="matrix(29.8879 0 0 -29.8879 31.378 19.213)"/><use xlink:href="#d" data-text="v" transform="matrix(29.8879 0 0 -29.8879 62.76 19.213)"/><use xlink:href="#e" data-text="g" transform="matrix(29.8879 0 0 -29.8879 94.143 19.213)"/><use xlink:href="#f" data-text="x" transform="matrix(29.8879 0 0 -29.8879 156.907 19.213)"/><use xlink:href="#g" data-text="m" transform="matrix(29.8879 0 0 -29.8879 188.29 19.213)"/><use xlink:href="#h" data-text="l" transform="matrix(29.8879 0 0 -29.8879 219.672 19.213)"/><use xlink:href="#i" data-text="n" transform="matrix(29.8879 0 0 -29.8879 251.054 19.213)"/><use xlink:href="#c" data-text="s" transform="matrix(29.8879 0 0 -29.8879 282.437 19.213)"/><use xlink:href="#j" data-text="=" transform="matrix(29.8879 0 0 -29.8879 313.819 19.213)"/><use xlink:href="#k" data-text="&quot;" transform="matrix(29.8879 0 0 -29.8879 345.201 19.213)"/><use xlink:href="#l" data-text="h" transform="matrix(29.8879 0 0 -29.8879 376.584 19.213)"/><use xlink:href="#m" data-text="t" transform="matrix(29.8879 0 0 -29.8879 407.966 19.213)"/><use xlink:href="#m" data-text="t" transform="matrix(29.8879 0 0 -29.8879 439.348 19.213)"/><use xlink:href="#n" data-text="p" transform="matrix(29.8879 0 0 -29.8879 470.73 19.213)"/><use xlink:href="#o" data-text=":" transform="matrix(29.8879 0 0 -29.8879 -.004 49.101)"/><use xlink:href="#p" data-text="/" transform="matrix(29.8879 0 0 -29.8879 31.378 49.101)"/><use xlink:href="#p" data-text="/" transform="matrix(29.8879 0 0 -29.8879 62.76 49.101)"/><use xlink:href="#q" data-text="w" transform="matrix(29.8879 0 0 -29.8879 94.143 49.101)"/><use xlink:href="#q" data-text="w" transform="matrix(29.8879 0 0 -29.8879 125.525 49.101)"/><use xlink:href="#q" data-text="w" transform="matrix(29.8879 0 0 -29.8879 156.907 49.101)"/><use xlink:href="#r" data-text="." transform="matrix(29.8879 0 0 -29.8879 188.29 49.101)"/><use xlink:href="#q" data-text="w" transform="matrix(29.8879 0 0 -29.8879 219.672 49.101)"/><use xlink:href="#s" data-text="3" transform="matrix(29.8879 0 0 -29.8879 251.054 49.101)"/><use xlink:href="#r" data-text="." transform="matrix(29.8879 0 0 -29.8879 282.437 49.101)"/><use xlink:href="#t" data-text="o" transform="matrix(29.8879 0 0 -29.8879 313.819 49.101)"/><use xlink:href="#u" data-text="r" transform="matrix(29.8879 0 0 -29.8879 345.201 49.101)"/><use xlink:href="#e" data-text="g" transform="matrix(29.8879 0 0 -29.8879 376.584 49.101)"/><use xlink:href="#p" data-text="/" transform="matrix(29.8879 0 0 -29.8879 407.966 49.101)"/><use xlink:href="#v" data-text="2" transform="matrix(29.8879 0 0 -29.8879 439.348 49.101)"/><use xlink:href="#w" data-text="0" transform="matrix(29.8879 0 0 -29.8879 470.73 49.101)"/><use xlink:href="#w" data-text="0" transform="matrix(29.8879 0 0 -29.8879 -.004 78.989)"/><use xlink:href="#w" data-text="0" transform="matrix(29.8879 0 0 -29.8879 31.378 78.989)"/><use xlink:href="#p" data-text="/" transform="matrix(29.8879 0 0 -29.8879 62.76 78.989)"/><use xlink:href="#c" data-text="s" transform="matrix(29.8879 0 0 -29.8879 94.143 78.989)"/><use xlink:href="#d" data-text="v" transform="matrix(29.8879 0 0 -29.8879 125.525 78.989)"/><use xlink:href="#e" data-text="g" transform="matrix(29.8879 0 0 -29.8879 156.907 78.989)"/><use xlink:href="#k" data-text="&quot;" transform="matrix(29.8879 0 0 -29.8879 188.29 78.989)"/><use xlink:href="#q" data-text="w" transform="matrix(29.8879 0 0 -29.8879 251.054 78.989)"/><use xlink:href="#x" data-text="i" transform="matrix(29.8879 0 0 -29.8879 282.437 78.989)"/><use xlink:href="#y" data-text="d" transform="matrix(29.8879 0 0 -29.8879 313.819 78.989)"/><use xlink:href="#m" data-text="t" transform="matrix(29.8879 0 0 -29.8879 345.201 78.989)"/><use xlink:href="#l" data-text="h" transform="matrix(29.8879 0 0 -29.8879 376.584 78.989)"/><use xlink:href="#j" data-text="=" transform="matrix(29.8879 0 0 -29.8879 407.966 78.989)"/><use xlink:href="#k" data-text="&quot;" transform="matrix(29.8879 0 0 -29.8879 439.348 78.989)"/><use xlink:href="#s" data-text="3" transform="matrix(29.8879 0 0 -29.8879 470.73 78.989)"/><use xlink:href="#v" data-text="2" transform="matrix(29.8879 0 0 -29.8879 -.004 108.876)"/><use xlink:href="#k" data-text="&quot;" transform="matrix(29.8879 0 0 -29.8879 31.378 108.876)"/><use xlink:href="#l" data-text="h" transform="matrix(29.8879 0 0 -29.8879 94.143 108.876)"/><use xlink:href="#z" data-text="e" transform="matrix(29.8879 0 0 -29.8879 125.525 108.876)"/><use xlink:href="#x" data-text="i" transform="matrix(29.8879 0 0 -29.8879 156.907 108.876)"/><use xlink:href="#e" data-text="g" transform="matrix(29.8879 0 0 -29.8879 188.29 108.876)"/><use xlink:href="#l" data-text="h" transform="matrix(29.8879 0 0 -29.8879 219.672 108.876)"/><use xlink:href="#m" data-text="t" transform="matrix(29.8879 0 0 -29.8879 251.054 108.876)"/><use xlink:href="#j" data-text="=" transform="matrix(29.8879 0 0 -29.8879 282.437 108.876)"/><use xlink:href="#k" data-text="&quot;" transform="matrix(29.8879 0 0 -29.8879 313.819 108.876)"/><use xlink:href="#s" data-text="3" transform="matrix(29.8879 0 0 -29.8879 345.201 108.876)"/><use xlink:href="#v" data-text="2" transform="matrix(29.8879 0 0 -29.8879 376.584 108.876)"/><use xlink:href="#k" data-text="&quot;" transform="matrix(29.8879 0 0 -29.8879 407.966 108.876)"/><use xlink:href="#A" data-text="&gt;" transform="matrix(29.8879 0 0 -29.8879 439.348 108.876)"/><use xlink:href="#b" data-text="&lt;" transform="matrix(29.8879 0 0 -29.8879 470.73 108.876)"/><use xlink:href="#e" data-text="g" transform="matrix(29.8879 0 0 -29.8879 -.004 138.764)"/><use xlink:href="#B" data-text="f" transform="matrix(29.8879 0 0 -29.8879 62.76 138.764)"/><use xlink:href="#x" data-text="i" transform="matrix(29.8879 0 0 -29.8879 94.143 138.764)"/><use xlink:href="#h" data-text="l" transform="matrix(29.8879 0 0 -29.8879 125.525 138.764)"/><use xlink:href="#h" data-text="l" transform="matrix(29.8879 0 0 -29.8879 156.907 138.764)"/><use xlink:href="#j" data-text="=" transform="matrix(29.8879 0 0 -29.8879 188.29 138.764)"/><use xlink:href="#k" data-text="&quot;" transform="matrix(29.8879 0 0 -29.8879 219.672 138.764)"/><use xlink:href="#i" data-text="n" transform="matrix(29.8879 0 0 -29.8879 251.054 138.764)"/><use xlink:href="#t" data-text="o" transform="matrix(29.8879 0 0 -29.8879 282.437 138.764)"/><use xlink:href="#i" data-text="n" transform="matrix(29.8879 0 0 -29.8879 313.819 138.764)"/><use xlink:href="#z" data-text="e" transform="matrix(29.8879 0 0 -29.8879 345.201 138.764)"/><use xlink:href="#k" data-text="&quot;" transform="matrix(29.8879 0 0 -29.8879 376.584 138.764)"/><use xlink:href="#c" data-text="s" transform="matrix(29.8879 0 0 -29.8879 439.348 138.764)"/><use xlink:href="#m" data-text="t" transform="matrix(29.8879 0 0 -29.8879 470.73 138.764)"/><use xlink:href="#u" data-text="r" transform="matrix(29.8879 0 0 -29.8879 -.004 168.652)"/><use xlink:href="#t" data-text="o" transform="matrix(29.8879 0 0 -29.8879 31.378 168.652)"/><use xlink:href="#C" data-text="k" transform="matrix(29.8879 0 0 -29.8879 62.76 168.652)"/><use xlink:href="#z" data-text="e" transform="matrix(29.8879 0 0 -29.8879 94.143 168.652)"/><use xlink:href="#D" data-text="-" transform="matrix(29.8879 0 0 -29.8879 125.525 168.652)"/><use xlink:href="#q" data-text="w" transform="matrix(29.8879 0 0 -29.8879 156.907 168.652)"/><use xlink:href="#x" data-text="i" transform="matrix(29.8879 0 0 -29.8879 188.29 168.652)"/><use xlink:href="#y" data-text="d" transform="matrix(29.8879 0 0 -29.8879 219.672 168.652)"/><use xlink:href="#m" data-text="t" transform="matrix(29.8879 0 0 -29.8879 251.054 168.652)"/><use xlink:href="#l" data-text="h" transform="matrix(29.8879 0 0 -29.8879 282.437 168.652)"/><use xlink:href="#j" data-text="=" transform="matrix(29.8879 0 0 -29.8879 313.819 168.652)"/><use xlink:href="#k" data-text="&quot;" transform="matrix(29.8879 0 0 -29.8879 345.201 168.652)"/><use xlink:href="#E" data-text="4" transform="matrix(29.8879 0 0 -29.8879 376.584 168.652)"/><use xlink:href="#k" data-text="&quot;" transform="matrix(29.8879 0 0 -29.8879 407.966 168.652)"/><use xlink:href="#c" data-text="s" transform="matrix(29.8879 0 0 -29.8879 470.73 168.652)"/><use xlink:href="#m" data-text="t" transform="matrix(29.8879 0 0 -29.8879 -.004 198.54)"/><use xlink:href="#u" data-text="r" transform="matrix(29.8879 0 0 -29.8879 31.378 198.54)"/><use xlink:href="#t" data-text="o" transform="matrix(29.8879 0 0 -29.8879 62.76 198.54)"/><use xlink:href="#C" data-text="k" transform="matrix(29.8879 0 0 -29.8879 94.143 198.54)"/><use xlink:href="#z" data-text="e" transform="matrix(29.8879 0 0 -29.8879 125.525 198.54)"/><use xlink:href="#D" data-text="-" transform="matrix(29.8879 0 0 -29.8879 156.907 198.54)"/><use xlink:href="#h" data-text="l" transform="matrix(29.8879 0 0 -29.8879 188.29 198.54)"/><use xlink:href="#x" data-text="i" transform="matrix(29.8879 0 0 -29.8879 219.672 198.54)"/><use xlink:href="#i" data-text="n" transform="matrix(29.8879 0 0 -29.8879 251.054 198.54)"/><use xlink:href="#z" data-text="e" transform="matrix(29.8879 0 0 -29.8879 282.437 198.54)"/><use xlink:href="#F" data-text="j" transform="matrix(29.8879 0 0 -29.8879 313.819 198.54)"/><use xlink:href="#t" data-text="o" transform="matrix(29.8879 0 0 -29.8879 345.201 198.54)"/><use xlink:href="#x" data-text="i" transform="matrix(29.8879 0 0 -29.8879 376.584 198.54)"/><use xlink:href="#i" data-text="n" transform="matrix(29.8879 0 0 -29.8879 407.966 198.54)"/><use xlink:href="#j" data-text="=" transform="matrix(29.8879 0 0 -29.8879 439.348 198.54)"/><use xlink:href="#k" data-text="&quot;" transform="matrix(29.8879 0 0 -29.8879 470.73 198.54)"/><use xlink:href="#u" data-text="r" transform="matrix(29.8879 0 0 -29.8879 -.004 228.428)"/><use xlink:href="#t" data-text="o" transform="matrix(29.8879 0 0 -29.8879 31.378 228.428)"/><use xlink:href="#G" data-text="u" transform="matrix(29.8879 0 0 -29.8879 62.76 228.428)"/><use xlink:href="#i" data-text="n" transform="matrix(29.8879 0 0 -29.8879 94.143 228.428)"/><use xlink:href="#y" data-text="d" transform="matrix(29.8879 0 0 -29.8879 125.525 228.428)"/><use xlink:href="#k" data-text="&quot;" transform="matrix(29.8879 0 0 -29.8879 156.907 228.428)"/><use xlink:href="#A" data-text="&gt;" transform="matrix(29.8879 0 0 -29.8879 188.29 228.428)"/><use xlink:href="#b" data-text="&lt;" transform="matrix(29.8879 0 0 -29.8879 219.672 228.428)"/><use xlink:href="#n" data-text="p" transform="matrix(29.8879 0 0 -29.8879 251.054 228.428)"/><use xlink:href="#H" data-text="a" transform="matrix(29.8879 0 0 -29.8879 282.437 228.428)"/><use xlink:href="#m" data-text="t" transform="matrix(29.8879 0 0 -29.8879 313.819 228.428)"/><use xlink:href="#l" data-text="h" transform="matrix(29.8879 0 0 -29.8879 345.201 228.428)"/><use xlink:href="#c" data-text="s" transform="matrix(29.8879 0 0 -29.8879 407.966 228.428)"/><use xlink:href="#m" data-text="t" transform="matrix(29.8879 0 0 -29.8879 439.348 228.428)"/><use xlink:href="#u" data-text="r" transform="matrix(29.8879 0 0 -29.8879 470.73 228.428)"/><use xlink:href="#t" data-text="o" transform="matrix(29.8879 0 0 -29.8879 -.004 258.316)"/><use xlink:href="#C" data-text="k" transform="matrix(29.8879 0 0 -29.8879 31.378 258.316)"/><use xlink:href="#z" data-text="e" transform="matrix(29.8879 0 0 -29.8879 62.76 258.316)"/><use xlink:href="#j" data-text="=" transform="matrix(29.8879 0 0 -29.8879 94.143 258.316)"/><use xlink:href="#k" data-text="&quot;" transform="matrix(29.8879 0 0 -29.8879 125.525 258.316)"/><use xlink:href="#I" data-text="#" transform="matrix(29.8879 0 0 -29.8879 156.907 258.316)"/><use xlink:href="#z" data-text="e" transform="matrix(29.8879 0 0 -29.8879 188.29 258.316)"/><use xlink:href="#J" data-text="6" transform="matrix(29.8879 0 0 -29.8879 219.672 258.316)"/><use xlink:href="#K" data-text="1" transform="matrix(29.8879 0 0 -29.8879 251.054 258.316)"/><use xlink:href="#H" data-text="a" transform="matrix(29.8879 0 0 -29.8879 282.437 258.316)"/><use xlink:href="#K" data-text="1" transform="matrix(29.8879 0 0 -29.8879 313.819 258.316)"/><use xlink:href="#H" data-text="a" transform="matrix(29.8879 0 0 -29.8879 345.201 258.316)"/><use xlink:href="#k" data-text="&quot;" transform="matrix(29.8879 0 0 -29.8879 376.584 258.316)"/><use xlink:href="#y" data-text="d" transform="matrix(29.8879 0 0 -29.8879 439.348 258.316)"/><use xlink:href="#j" data-text="=" transform="matrix(29.8879 0 0 -29.8879 470.73 258.316)"/><use xlink:href="#k" data-text="&quot;" transform="matrix(29.8879 0 0 -29.8879 -.004 288.204)"/><use xlink:href="#L" data-text="M" transform="matrix(29.8879 0 0 -29.8879 31.378 288.204)"/><use xlink:href="#M" data-text="7" transform="matrix(29.8879 0 0 -29.8879 62.76 288.204)"/><use xlink:href="#N" data-text="9" transform="matrix(29.8879 0 0 -29.8879 125.525 288.204)"/><use xlink:href="#O" data-text="L" transform="matrix(29.8879 0 0 -29.8879 188.29 288.204)"/><use xlink:href="#M" data-text="7" transform="matrix(29.8879 0 0 -29.8879 219.672 288.204)"/><use xlink:href="#v" data-text="2" transform="matrix(29.8879 0 0 -29.8879 282.437 288.204)"/><use xlink:href="#w" data-text="0" transform="matrix(29.8879 0 0 -29.8879 313.819 288.204)"/><use xlink:href="#O" data-text="L" transform="matrix(29.8879 0 0 -29.8879 376.584 288.204)"/><use xlink:href="#K" data-text="1" transform="matrix(29.8879 0 0 -29.8879 407.966 288.204)"/><use xlink:href="#E" data-text="4" transform="matrix(29.8879 0 0 -29.8879 439.348 288.204)"/><use xlink:href="#v" data-text="2" transform="matrix(29.8879 0 0 -29.8879 -.004 318.092)"/><use xlink:href="#w" data-text="0" transform="matrix(29.8879 0 0 -29.8879 31.378 318.092)"/><use xlink:href="#P" data-text="C" transform="matrix(29.8879 0 0 -29.8879 94.143 318.092)"/><use xlink:href="#v" data-text="2" transform="matrix(29.8879 0 0 -29.8879 125.525 318.092)"/><use xlink:href="#w" data-text="0" transform="matrix(29.8879 0 0 -29.8879 156.907 318.092)"/><use xlink:href="#v" data-text="2" transform="matrix(29.8879 0 0 -29.8879 219.672 318.092)"/><use xlink:href="#w" data-text="0" transform="matrix(29.8879 0 0 -29.8879 251.054 318.092)"/><use xlink:href="#v" data-text="2" transform="matrix(29.8879 0 0 -29.8879 313.819 318.092)"/><use xlink:href="#w" data-text="0" transform="matrix(29.8879 0 0 -29.8879 345.201 318.092)"/><use xlink:href="#M" data-text="7" transform="matrix(29.8879 0 0 -29.8879 407.966 318.092)"/><use xlink:href="#K" data-text="1" transform="matrix(29.8879 0 0 -29.8879 470.73 318.092)"/><use xlink:href="#E" data-text="4" transform="matrix(29.8879 0 0 -29.8879 -.004 347.98)"/><use xlink:href="#M" data-text="7" transform="matrix(29.8879 0 0 -29.8879 62.76 347.98)"/><use xlink:href="#O" data-text="L" transform="matrix(29.8879 0 0 -29.8879 125.525 347.98)"/><use xlink:href="#K" data-text="1" transform="matrix(29.8879 0 0 -29.8879 156.907 347.98)"/><use xlink:href="#v" data-text="2" transform="matrix(29.8879 0 0 -29.8879 188.29 347.98)"/><use xlink:href="#M" data-text="7" transform="matrix(29.8879 0 0 -29.8879 251.054 347.98)"/><use xlink:href="#k" data-text="&quot;" transform="matrix(29.8879 0 0 -29.8879 282.437 347.98)"/><use xlink:href="#p" data-text="/" transform="matrix(29.8879 0 0 -29.8879 345.201 347.98)"/><use xlink:href="#A" data-text="&gt;" transform="matrix(29.8879 0 0 -29.8879 376.584 347.98)"/><use xlink:href="#b" data-text="&lt;" transform="matrix(29.8879 0 0 -29.8879 407.966 347.98)"/><use xlink:href="#n" data-text="p" transform="matrix(29.8879 0 0 -29.8879 439.348 347.98)"/><use xlink:href="#H" data-text="a" transform="matrix(29.8879 0 0 -29.8879 470.73 347.98)"/><use xlink:href="#m" data-text="t" transform="matrix(29.8879 0 0 -29.8879 -.004 377.868)"/><use xlink:href="#l" data-text="h" transform="matrix(29.8879 0 0 -29.8879 31.378 377.868)"/><use xlink:href="#c" data-text="s" transform="matrix(29.8879 0 0 -29.8879 94.143 377.868)"/><use xlink:href="#m" data-text="t" transform="matrix(29.8879 0 0 -29.8879 125.525 377.868)"/><use xlink:href="#u" data-text="r" transform="matrix(29.8879 0 0 -29.8879 156.907 377.868)"/><use xlink:href="#t" data-text="o" transform="matrix(29.8879 0 0 -29.8879 188.29 377.868)"/><use xlink:href="#C" data-text="k" transform="matrix(29.8879 0 0 -29.8879 219.672 377.868)"/><use xlink:href="#z" data-text="e" transform="matrix(29.8879 0 0 -29.8879 251.054 377.868)"/><use xlink:href="#j" data-text="=" transform="matrix(29.8879 0 0 -29.8879 282.437 377.868)"/><use xlink:href="#k" data-text="&quot;" transform="matrix(29.8879 0 0 -29.8879 313.819 377.868)"/><use xlink:href="#I" data-text="#" transform="matrix(29.8879 0 0 -29.8879 345.201 377.868)"/><use xlink:href="#Q" data-text="8" transform="matrix(29.8879 0 0 -29.8879 376.584 377.868)"/><use xlink:href="#w" data-text="0" transform="matrix(29.8879 0 0 -29.8879 407.966 377.868)"/><use xlink:href="#R" data-text="c" transform="matrix(29.8879 0 0 -29.8879 439.348 377.868)"/><use xlink:href="#R" data-text="c" transform="matrix(29.8879 0 0 -29.8879 470.73 377.868)"/><use xlink:href="#s" data-text="3" transform="matrix(29.8879 0 0 -29.8879 -.004 407.756)"/><use xlink:href="#s" data-text="3" transform="matrix(29.8879 0 0 -29.8879 31.378 407.756)"/><use xlink:href="#k" data-text="&quot;" transform="matrix(29.8879 0 0 -29.8879 62.76 407.756)"/><use xlink:href="#y" data-text="d" transform="matrix(29.8879 0 0 -29.8879 125.525 407.756)"/><use xlink:href="#j" data-text="=" transform="matrix(29.8879 0 0 -29.8879 156.907 407.756)"/><use xlink:href="#k" data-text="&quot;" transform="matrix(29.8879 0 0 -29.8879 188.29 407.756)"/><use xlink:href="#L" data-text="M" transform="matrix(29.8879 0 0 -29.8879 219.672 407.756)"/><use xlink:href="#K" data-text="1" transform="matrix(29.8879 0 0 -29.8879 251.054 407.756)"/><use xlink:href="#w" data-text="0" transform="matrix(29.8879 0 0 -29.8879 282.437 407.756)"/><use xlink:href="#v" data-text="2" transform="matrix(29.8879 0 0 -29.8879 345.201 407.756)"/><use xlink:href="#S" data-text="5" transform="matrix(29.8879 0 0 -29.8879 376.584 407.756)"/><use xlink:href="#O" data-text="L" transform="matrix(29.8879 0 0 -29.8879 439.348 407.756)"/><use xlink:href="#v" data-text="2" transform="matrix(29.8879 0 0 -29.8879 470.73 407.756)"/><use xlink:href="#w" data-text="0" transform="matrix(29.8879 0 0 -29.8879 -.004 437.644)"/><use xlink:href="#v" data-text="2" transform="matrix(29.8879 0 0 -29.8879 62.76 437.644)"/><use xlink:href="#S" data-text="5" transform="matrix(29.8879 0 0 -29.8879 94.143 437.644)"/><use xlink:href="#O" data-text="L" transform="matrix(29.8879 0 0 -29.8879 156.907 437.644)"/><use xlink:href="#v" data-text="2" transform="matrix(29.8879 0 0 -29.8879 188.29 437.644)"/><use xlink:href="#E" data-text="4" transform="matrix(29.8879 0 0 -29.8879 219.672 437.644)"/><use xlink:href="#K" data-text="1" transform="matrix(29.8879 0 0 -29.8879 282.437 437.644)"/><use xlink:href="#M" data-text="7" transform="matrix(29.8879 0 0 -29.8879 313.819 437.644)"/><use xlink:href="#O" data-text="L" transform="matrix(29.8879 0 0 -29.8879 376.584 437.644)"/><use xlink:href="#v" data-text="2" transform="matrix(29.8879 0 0 -29.8879 407.966 437.644)"/><use xlink:href="#M" data-text="7" transform="matrix(29.8879 0 0 -29.8879 439.348 437.644)"/><use xlink:href="#K" data-text="1" transform="matrix(29.8879 0 0 -29.8879 -.004 467.531)"/><use xlink:href="#M" data-text="7" transform="matrix(29.8879 0 0 -29.8879 31.378 467.531)"/><use xlink:href="#k" data-text="&quot;" transform="matrix(29.8879 0 0 -29.8879 62.76 467.531)"/><use xlink:href="#p" data-text="/" transform="matrix(29.8879 0 0 -29.8879 125.525 467.531)"/><use xlink:href="#A" data-text="&gt;" transform="matrix(29.8879 0 0 -29.8879 156.907 467.531)"/><use xlink:href="#b" data-text="&lt;" transform="matrix(29.8879 0 0 -29.8879 188.29 467.531)"/><use xlink:href="#p" data-text="/" transform="matrix(29.8879 0 0 -29.8879 219.672 467.531)"/><use xlink:href="#e" data-text="g" transform="matrix(29.8879 0 0 -29.8879 251.054 467.531)"/><use xlink:href="#A" data-text="&gt;" transform="matrix(29.8879 0 0 -29.8879 282.437 467.531)"/><use xlink:href="#b" data-text="&lt;" transform="matrix(29.8879 0 0 -29.8879 313.819 467.531)"/><use xlink:href="#p" data-text="/" transform="matrix(29.8879 0 0 -29.8879 345.201 467.531)"/><use xlink:href="#c" data-text="s" transform="matrix(29.8879 0 0 -29.8879 376.584 467.531)"/><use xlink:href="#d" data-text="v" transform="matrix(29.8879 0 0 -29.8879 407.966 467.531)"/><use xlink:href="#e" data-text="g" transform="matrix(29.8879 0 0 -29.8879 439.348 467.531)"/><use xlink:href="#A" data-text="&gt;" transform="matrix(29.8879 0 0 -29.8879 470.73 467.531)"/></g></svg>