<?xml version="1.0" encoding="UTF-8"?>
<!DOCTYPE svg PUBLIC "-//W3C//DTD SVG 1.1//EN" "http://www.w3.org/Graphics/SVG/1.1/DTD/svg11.dtd">
<svg version="1.2" width="21.72mm" height="11.6mm" viewBox="9402 8207 2172 1160" preserveAspectRatio="xMidYMid" fill-rule="evenodd" stroke-width="28.222" stroke-linejoin="round" xmlns="http://www.w3.org/2000/svg" xmlns:ooo="http://xml.openoffice.org/svg/export" xmlns:xlink="http://www.w3.org/1999/xlink" xmlns:presentation="http://sun.com/xmlns/staroffice/presentation" xmlns:smil="http://www.w3.org/2001/SMIL20/" xmlns:anim="urn:oasis:names:tc:opendocument:xmlns:animation:1.0" xml:space="preserve">
 <defs class="EmbeddedBulletChars">
  <g id="bullet-char-template-57356" transform="scale(0.00048828125,-0.00048828125)">
   <path d="M 580,1141 L 1163,571 580,0 -4,571 580,1141 Z"/>
  </g>
  <g id="bullet-char-template-57354" transform="scale(0.00048828125,-0.00048828125)">
   <path d="M 8,1128 L 1137,1128 1137,0 8,0 8,1128 Z"/>
  </g>
  <g id="bullet-char-template-10146" transform="scale(0.00048828125,-0.00048828125)">
   <path d="M 174,0 L 602,739 174,1481 1456,739 174,0 Z M 1358,739 L 309,1346 659,739 1358,739 Z"/>
  </g>
  <g id="bullet-char-template-10132" transform="scale(0.00048828125,-0.00048828125)">
   <path d="M 2015,739 L 1276,0 717,0 1260,543 174,543 174,936 1260,936 717,1481 1274,1481 2015,739 Z"/>
  </g>
  <g id="bullet-char-template-10007" transform="scale(0.00048828125,-0.00048828125)">
   <path d="M 0,-2 C -7,14 -16,27 -25,37 L 356,567 C 262,823 215,952 215,954 215,979 228,992 255,992 264,992 276,990 289,987 310,991 331,999 354,1012 L 381,999 492,748 772,1049 836,1024 860,1049 C 881,1039 901,1025 922,1006 886,937 835,863 770,784 769,783 710,716 594,584 L 774,223 C 774,196 753,168 711,139 L 727,119 C 717,90 699,76 672,76 641,76 570,178 457,381 L 164,-76 C 142,-110 111,-127 72,-127 30,-127 9,-110 8,-76 1,-67 -2,-52 -2,-32 -2,-23 -1,-13 0,-2 Z"/>
  </g>
  <g id="bullet-char-template-10004" transform="scale(0.00048828125,-0.00048828125)">
   <path d="M 285,-33 C 182,-33 111,30 74,156 52,228 41,333 41,471 41,549 55,616 82,672 116,743 169,778 240,778 293,778 328,747 346,684 L 369,508 C 377,444 397,411 428,410 L 1163,1116 C 1174,1127 1196,1133 1229,1133 1271,1133 1292,1118 1292,1087 L 1292,965 C 1292,929 1282,901 1262,881 L 442,47 C 390,-6 338,-33 285,-33 Z"/>
  </g>
  <g id="bullet-char-template-9679" transform="scale(0.00048828125,-0.00048828125)">
   <path d="M 813,0 C 632,0 489,54 383,161 276,268 223,411 223,592 223,773 276,916 383,1023 489,1130 632,1184 813,1184 992,1184 1136,1130 1245,1023 1353,916 1407,772 1407,592 1407,412 1353,268 1245,161 1136,54 992,0 813,0 Z"/>
  </g>
  <g id="bullet-char-template-8226" transform="scale(0.00048828125,-0.00048828125)">
   <path d="M 346,457 C 273,457 209,483 155,535 101,586 74,649 74,723 74,796 101,859 155,911 209,963 273,989 346,989 419,989 480,963 531,910 582,859 608,796 608,723 608,648 583,586 532,535 482,483 420,457 346,457 Z"/>
  </g>
  <g id="bullet-char-template-8211" transform="scale(0.00048828125,-0.00048828125)">
   <path d="M -4,459 L 1135,459 1135,606 -4,606 -4,459 Z"/>
  </g>
  <g id="bullet-char-template-61548" transform="scale(0.00048828125,-0.00048828125)">
   <path d="M 173,740 C 173,903 231,1043 346,1159 462,1274 601,1332 765,1332 928,1332 1067,1274 1183,1159 1299,1043 1357,903 1357,740 1357,577 1299,437 1183,322 1067,206 928,148 765,148 601,148 462,206 346,322 231,437 173,577 173,740 Z"/>
  </g>
 </defs>
 <g class="Page">
  <g class="com.sun.star.drawing.PolyPolygonShape">
   <g id="id3">
    <rect class="BoundingBox" stroke="none" fill="none" x="9402" y="8632" width="206" height="342"/>
    <path fill="rgb(0,0,0)" stroke="none" d="M 9484,8895 L 9481,8904 9479,8913 9476,8921 9473,8929 9470,8936 9466,8942 9463,8948 9461,8950 9459,8953 9454,8957 9449,8961 9447,8963 9444,8965 9441,8966 9439,8968 9436,8969 9433,8970 9430,8971 9427,8971 9424,8972 9421,8972 9418,8973 9415,8973 9413,8973 9411,8973 9408,8972 9405,8972 9404,8972 9403,8972 9406,8956 9415,8956 9416,8956 9418,8955 9420,8955 9422,8955 9424,8954 9425,8954 9426,8953 9427,8953 9428,8952 9429,8952 9429,8951 9430,8951 9431,8950 9431,8950 9432,8949 9433,8948 9434,8947 9435,8945 9437,8943 9440,8938 9441,8935 9442,8932 9444,8925 9446,8917 9449,8909 9488,8738 9457,8738 9460,8725 9462,8725 9465,8725 9468,8724 9470,8724 9472,8724 9474,8723 9475,8723 9477,8723 9478,8722 9479,8722 9480,8722 9481,8721 9482,8721 9483,8720 9484,8719 9485,8719 9485,8718 9485,8718 9486,8718 9486,8718 9487,8717 9487,8716 9488,8715 9489,8714 9489,8713 9490,8713 9490,8711 9491,8710 9492,8708 9493,8707 9494,8703 9496,8698 9498,8690 9501,8682 9504,8675 9507,8669 9511,8663 9515,8658 9520,8653 9525,8649 9530,8645 9536,8642 9542,8639 9548,8637 9554,8635 9561,8634 9568,8633 9576,8633 9584,8633 9592,8633 9607,8635 9600,8666 9584,8666 9582,8661 9581,8659 9580,8657 9580,8655 9579,8653 9578,8652 9577,8651 9577,8651 9576,8650 9576,8650 9575,8649 9575,8649 9574,8648 9573,8648 9573,8648 9572,8648 9571,8647 9570,8647 9569,8647 9567,8647 9565,8647 9562,8647 9560,8647 9557,8648 9555,8648 9553,8649 9551,8650 9549,8651 9548,8653 9547,8653 9546,8654 9545,8655 9544,8655 9542,8657 9541,8659 9539,8661 9538,8664 9537,8666 9536,8669 9534,8672 9533,8675 9531,8679 9530,8682 9528,8691 9526,8700 9522,8719 9568,8719 9564,8738 9518,8738 9484,8895 Z"/>
   </g>
  </g>
  <g class="com.sun.star.drawing.PolyPolygonShape">
   <g id="id4">
    <rect class="BoundingBox" stroke="none" fill="none" x="9652" y="8630" width="116" height="345"/>
    <path fill="rgb(0,0,0)" stroke="none" d="M 9684,8801 L 9684,8816 9685,8831 9686,8845 9689,8858 9691,8871 9695,8883 9699,8894 9704,8905 9709,8914 9715,8923 9722,8931 9730,8939 9738,8945 9746,8951 9756,8956 9766,8960 9762,8974 9749,8969 9737,8964 9726,8958 9715,8951 9705,8943 9696,8934 9688,8924 9681,8914 9674,8902 9668,8889 9663,8876 9659,8863 9656,8848 9654,8833 9653,8818 9653,8802 9653,8786 9654,8771 9656,8756 9659,8742 9663,8728 9668,8715 9674,8703 9681,8691 9688,8680 9696,8670 9705,8660 9710,8656 9715,8652 9720,8649 9726,8645 9737,8640 9749,8635 9762,8631 9767,8645 9756,8649 9747,8653 9742,8656 9738,8659 9734,8662 9730,8665 9726,8668 9722,8672 9715,8680 9709,8689 9704,8699 9699,8709 9695,8720 9691,8732 9689,8744 9686,8758 9685,8771 9684,8786 9684,8801 Z"/>
   </g>
  </g>
  <g class="com.sun.star.drawing.PolyPolygonShape">
   <g id="id5">
    <rect class="BoundingBox" stroke="none" fill="none" x="9778" y="8715" width="188" height="181"/>
    <path fill="rgb(0,0,0)" stroke="none" d="M 9860,8810 L 9854,8783 9848,8758 9845,8749 9844,8747 9844,8745 9843,8744 9843,8743 9843,8743 9842,8741 9841,8741 9841,8740 9841,8740 9841,8740 9840,8739 9840,8739 9840,8739 9840,8739 9839,8739 9839,8739 9839,8739 9838,8739 9838,8738 9838,8738 9838,8738 9837,8738 9837,8738 9836,8737 9835,8737 9835,8737 9834,8737 9833,8737 9832,8737 9832,8737 9831,8737 9830,8737 9830,8737 9829,8738 9828,8738 9827,8739 9826,8739 9825,8740 9824,8740 9823,8741 9822,8742 9821,8743 9820,8744 9820,8745 9818,8746 9817,8747 9815,8750 9812,8754 9810,8758 9799,8750 9804,8742 9806,8738 9809,8735 9812,8732 9814,8729 9817,8727 9820,8725 9822,8723 9825,8721 9828,8719 9831,8718 9835,8717 9838,8716 9841,8716 9845,8716 9846,8716 9847,8716 9850,8716 9852,8717 9853,8717 9855,8717 9856,8717 9857,8718 9859,8719 9860,8720 9861,8720 9863,8721 9864,8722 9865,8723 9865,8724 9866,8725 9867,8726 9867,8727 9868,8728 9868,8729 9869,8730 9870,8732 9870,8733 9871,8735 9872,8736 9872,8738 9873,8740 9873,8741 9874,8743 9875,8747 9878,8757 9881,8779 9883,8779 9909,8743 9917,8733 9920,8729 9922,8728 9924,8727 9927,8724 9930,8722 9931,8721 9933,8720 9933,8719 9934,8719 9935,8719 9936,8719 9936,8718 9937,8718 9938,8718 9939,8718 9940,8717 9942,8717 9944,8717 9946,8717 9951,8717 9955,8717 9957,8717 9959,8717 9960,8717 9961,8717 9962,8718 9963,8718 9963,8718 9964,8718 9965,8719 9958,8751 9945,8751 9945,8750 9944,8749 9944,8748 9944,8748 9944,8747 9944,8746 9943,8746 9943,8745 9943,8745 9942,8745 9942,8744 9941,8744 9941,8744 9940,8744 9939,8744 9939,8744 9938,8744 9938,8744 9938,8744 9937,8744 9937,8743 9937,8743 9937,8743 9937,8743 9936,8744 9936,8744 9936,8744 9936,8744 9935,8744 9935,8744 9934,8744 9934,8745 9933,8745 9932,8746 9931,8746 9931,8747 9930,8747 9929,8748 9928,8748 9927,8749 9927,8750 9926,8751 9924,8754 9922,8755 9921,8756 9919,8758 9918,8759 9915,8763 9912,8767 9899,8783 9887,8798 9893,8828 9895,8839 9897,8844 9898,8849 9902,8862 9902,8863 9902,8864 9904,8866 9906,8870 9906,8870 9906,8870 9908,8871 9909,8872 9909,8872 9910,8873 9910,8873 9910,8873 9910,8873 9910,8873 9911,8873 9911,8873 9912,8874 9912,8874 9913,8874 9915,8874 9916,8874 9917,8873 9917,8873 9918,8873 9918,8873 9919,8873 9920,8873 9920,8872 9921,8872 9921,8872 9922,8871 9924,8870 9924,8869 9925,8869 9926,8867 9928,8866 9929,8864 9931,8862 9933,8859 9935,8856 9937,8853 9949,8861 9943,8869 9940,8873 9937,8876 9934,8879 9931,8882 9928,8885 9926,8887 9924,8888 9923,8888 9921,8890 9918,8891 9915,8893 9911,8893 9908,8894 9905,8895 9902,8895 9900,8895 9898,8895 9896,8894 9895,8894 9893,8894 9892,8893 9890,8892 9889,8892 9887,8891 9886,8890 9884,8889 9883,8888 9882,8887 9881,8886 9880,8884 9880,8883 9878,8881 9877,8879 9876,8877 9876,8875 9874,8870 9872,8864 9867,8844 9866,8835 9866,8832 9866,8829 9864,8829 9847,8851 9840,8860 9835,8867 9830,8872 9826,8877 9823,8881 9820,8885 9817,8887 9815,8888 9814,8889 9812,8890 9811,8891 9809,8891 9808,8891 9808,8892 9806,8892 9804,8893 9803,8894 9801,8894 9799,8894 9797,8895 9795,8895 9793,8895 9791,8895 9789,8895 9787,8894 9785,8894 9782,8893 9779,8893 9786,8860 9799,8860 9799,8861 9799,8862 9799,8863 9800,8864 9800,8864 9800,8865 9801,8865 9801,8865 9802,8866 9802,8866 9802,8866 9803,8866 9803,8867 9804,8867 9805,8867 9806,8867 9807,8867 9808,8867 9808,8866 9809,8866 9810,8866 9811,8866 9811,8865 9812,8865 9814,8863 9819,8860 9821,8856 9824,8853 9828,8848 9833,8843 9860,8810 Z"/>
   </g>
  </g>
  <g class="com.sun.star.drawing.PolyPolygonShape">
   <g id="id6">
    <rect class="BoundingBox" stroke="none" fill="none" x="9988" y="8630" width="116" height="345"/>
    <path fill="rgb(0,0,0)" stroke="none" d="M 10072,8801 L 10071,8786 10070,8771 10069,8758 10066,8744 10063,8732 10060,8720 10055,8709 10051,8699 10045,8689 10042,8684 10039,8680 10036,8676 10033,8672 10029,8668 10025,8665 10021,8662 10017,8659 10013,8656 10008,8653 9999,8649 9989,8645 9993,8631 10006,8635 10018,8640 10024,8642 10029,8645 10035,8649 10040,8652 10045,8656 10049,8660 10054,8665 10058,8670 10062,8674 10066,8680 10074,8691 10080,8703 10086,8715 10091,8728 10095,8742 10098,8756 10101,8771 10102,8786 10103,8802 10102,8818 10101,8833 10098,8848 10095,8863 10091,8876 10086,8889 10081,8902 10075,8914 10067,8924 10059,8934 10050,8943 10040,8951 10029,8958 10018,8964 10006,8969 9993,8974 9989,8960 9999,8956 10008,8951 10017,8945 10021,8942 10025,8939 10029,8935 10033,8931 10036,8927 10039,8923 10045,8914 10051,8905 10055,8894 10060,8883 10063,8871 10066,8858 10069,8845 10070,8831 10071,8816 10072,8801 Z"/>
   </g>
  </g>
  <g class="com.sun.star.drawing.PolyPolygonShape">
   <g id="id7">
    <rect class="BoundingBox" stroke="none" fill="none" x="10264" y="8736" width="225" height="101"/>
    <path fill="rgb(0,0,0)" stroke="none" d="M 10265,8737 L 10488,8737 10488,8761 10265,8761 10265,8737 Z M 10265,8812 L 10488,8812 10488,8836 10265,8836 10265,8812 Z"/>
   </g>
  </g>
  <g class="com.sun.star.drawing.PolyPolygonShape">
   <g id="id8">
    <rect class="BoundingBox" stroke="none" fill="none" x="10796" y="8207" width="167" height="139"/>
    <path fill="rgb(0,0,0)" stroke="none" d="M 10859,8243 L 10863,8239 10866,8235 10869,8231 10872,8228 10875,8225 10878,8222 10881,8219 10884,8217 10888,8215 10891,8213 10894,8211 10897,8210 10900,8209 10904,8208 10907,8208 10910,8208 10914,8208 10917,8208 10920,8209 10922,8210 10924,8210 10925,8211 10926,8212 10927,8212 10928,8213 10930,8214 10931,8215 10931,8216 10933,8218 10934,8220 10935,8222 10936,8225 10937,8227 10938,8230 10938,8233 10938,8237 10938,8238 10938,8239 10938,8241 10938,8244 10938,8246 10937,8248 10936,8255 10935,8259 10933,8264 10930,8282 10929,8286 10928,8290 10926,8298 10926,8300 10925,8301 10925,8303 10924,8305 10924,8307 10924,8308 10924,8310 10923,8311 10923,8313 10922,8315 10922,8317 10922,8317 10921,8318 10921,8318 10922,8319 10922,8320 10922,8321 10922,8322 10922,8323 10923,8324 10923,8324 10923,8324 10923,8325 10923,8325 10924,8325 10924,8325 10924,8326 10924,8326 10925,8326 10925,8327 10925,8327 10926,8327 10926,8327 10927,8327 10927,8327 10927,8328 10928,8328 10928,8328 10929,8328 10930,8328 10930,8328 10931,8328 10931,8328 10931,8327 10932,8327 10933,8327 10933,8327 10933,8327 10934,8327 10934,8327 10934,8327 10935,8326 10936,8326 10937,8325 10938,8324 10939,8324 10939,8324 10940,8323 10941,8322 10942,8321 10944,8320 10945,8319 10945,8319 10946,8318 10947,8317 10949,8315 10950,8313 10951,8312 10952,8311 10961,8320 10955,8326 10952,8328 10951,8330 10949,8331 10948,8332 10947,8333 10944,8335 10942,8337 10939,8339 10934,8342 10932,8343 10931,8343 10929,8344 10928,8344 10927,8344 10925,8344 10924,8345 10921,8345 10918,8345 10916,8345 10915,8345 10914,8344 10913,8344 10912,8344 10912,8344 10911,8344 10911,8343 10910,8343 10909,8343 10908,8342 10907,8341 10906,8341 10905,8340 10905,8340 10904,8340 10904,8339 10903,8339 10903,8338 10902,8338 10902,8337 10901,8336 10901,8335 10900,8335 10900,8334 10899,8333 10899,8332 10898,8331 10898,8328 10897,8327 10897,8326 10897,8325 10897,8324 10897,8322 10896,8321 10897,8319 10897,8318 10897,8315 10897,8312 10897,8310 10897,8309 10899,8301 10900,8297 10901,8293 10902,8291 10902,8288 10903,8284 10905,8280 10905,8279 10905,8277 10906,8275 10907,8273 10908,8269 10909,8265 10909,8262 10910,8259 10911,8256 10911,8254 10911,8253 10911,8251 10911,8250 10912,8249 10912,8247 10912,8246 10912,8245 10912,8244 10912,8243 10912,8242 10912,8240 10912,8238 10912,8236 10912,8234 10911,8233 10911,8232 10911,8232 10910,8231 10910,8231 10910,8230 10909,8230 10909,8229 10909,8229 10908,8228 10908,8228 10907,8227 10907,8227 10906,8227 10906,8227 10905,8226 10904,8226 10904,8226 10903,8226 10901,8226 10899,8226 10898,8226 10897,8226 10896,8226 10895,8226 10893,8227 10890,8228 10889,8228 10888,8229 10887,8229 10886,8230 10885,8231 10884,8232 10883,8233 10881,8234 10880,8235 10879,8235 10877,8237 10875,8239 10872,8242 10864,8253 10864,8254 10863,8256 10861,8258 10860,8260 10860,8261 10859,8263 10859,8264 10858,8265 10857,8268 10856,8271 10855,8272 10854,8274 10854,8275 10853,8277 10839,8343 10813,8343 10833,8257 10835,8250 10835,8247 10835,8246 10835,8245 10836,8243 10836,8242 10836,8241 10836,8239 10836,8237 10836,8236 10836,8234 10836,8233 10836,8232 10836,8231 10836,8230 10835,8229 10835,8229 10834,8228 10834,8228 10833,8227 10833,8227 10832,8226 10831,8226 10830,8226 10829,8226 10828,8226 10828,8226 10828,8226 10828,8226 10826,8226 10826,8226 10825,8227 10824,8227 10824,8227 10823,8227 10823,8227 10823,8227 10823,8227 10822,8228 10821,8228 10820,8229 10818,8230 10818,8230 10817,8231 10816,8231 10815,8232 10814,8233 10812,8235 10812,8236 10811,8236 10809,8238 10808,8239 10808,8240 10807,8241 10805,8242 10796,8234 10799,8230 10802,8227 10804,8226 10805,8224 10807,8223 10808,8222 10811,8219 10814,8217 10816,8215 10817,8215 10818,8214 10821,8212 10824,8211 10826,8210 10828,8210 10834,8208 10835,8208 10837,8208 10838,8208 10839,8208 10842,8208 10843,8208 10844,8208 10845,8208 10846,8209 10847,8209 10848,8209 10849,8210 10850,8210 10850,8211 10851,8212 10852,8212 10853,8213 10854,8214 10854,8215 10856,8216 10857,8218 10857,8220 10858,8222 10859,8224 10859,8226 10859,8228 10859,8231 10859,8237 10859,8237 10859,8238 10858,8240 10858,8241 10858,8242 10857,8243 10859,8243 Z"/>
   </g>
  </g>
  <g class="com.sun.star.drawing.PolyPolygonShape">
   <g id="id9">
    <rect class="BoundingBox" stroke="none" fill="none" x="10638" y="8432" width="455" height="708"/>
    <path fill="rgb(0,0,0)" stroke="none" d="M 10718,8457 L 10933,8749 10933,8771 10700,9087 11014,9087 11020,9086 11022,9086 11024,9086 11026,9085 11029,9085 11031,9084 11033,9083 11035,9082 11037,9081 11038,9080 11040,9078 11042,9077 11043,9075 11046,9072 11048,9070 11049,9068 11050,9065 11052,9063 11054,9056 11056,9049 11059,9040 11061,9030 11065,9007 11091,9007 11082,9139 10638,9139 10638,9122 10891,8779 10645,8450 10645,8433 11081,8433 11081,8540 11058,8540 11057,8530 11056,8521 11054,8513 11052,8505 11050,8498 11047,8491 11044,8485 11041,8479 11040,8476 11038,8473 11036,8471 11034,8469 11032,8467 11030,8465 11028,8464 11025,8462 11023,8461 11021,8460 11018,8459 11015,8458 11013,8457 11010,8457 11007,8457 11003,8457 10718,8457 Z"/>
   </g>
  </g>
  <g class="com.sun.star.drawing.PolyPolygonShape">
   <g id="id10">
    <rect class="BoundingBox" stroke="none" fill="none" x="10632" y="9182" width="142" height="185"/>
    <path fill="rgb(0,0,0)" stroke="none" d="M 10671,9297 L 10657,9363 10632,9363 10664,9222 10665,9218 10665,9215 10666,9214 10666,9213 10666,9212 10666,9211 10666,9211 10666,9204 10666,9199 10663,9196 10663,9196 10663,9196 10662,9196 10661,9195 10660,9195 10659,9195 10659,9195 10657,9195 10657,9195 10657,9194 10656,9194 10656,9194 10655,9194 10654,9194 10653,9194 10652,9194 10649,9194 10651,9185 10688,9183 10697,9183 10674,9286 10678,9286 10680,9286 10681,9286 10682,9285 10683,9285 10688,9284 10690,9283 10691,9282 10694,9281 10696,9280 10697,9280 10699,9279 10700,9278 10703,9276 10706,9275 10709,9273 10711,9271 10720,9262 10722,9261 10723,9260 10723,9259 10724,9258 10725,9257 10726,9256 10727,9254 10728,9252 10729,9251 10729,9251 10729,9250 10729,9249 10729,9248 10729,9248 10729,9248 10729,9247 10729,9247 10729,9247 10729,9246 10729,9245 10729,9245 10729,9244 10728,9244 10728,9243 10728,9243 10727,9243 10727,9242 10726,9241 10726,9241 10725,9241 10725,9241 10724,9240 10724,9240 10723,9240 10723,9240 10722,9240 10721,9240 10719,9240 10721,9232 10768,9232 10772,9240 10770,9241 10768,9243 10764,9246 10756,9253 10752,9256 10748,9259 10745,9262 10741,9265 10738,9267 10734,9270 10726,9276 10723,9278 10719,9281 10711,9287 10717,9307 10720,9312 10721,9317 10724,9328 10727,9337 10728,9339 10729,9340 10729,9340 10729,9341 10730,9342 10730,9342 10730,9342 10730,9343 10731,9343 10731,9344 10732,9345 10732,9345 10732,9346 10733,9346 10733,9347 10734,9347 10735,9347 10735,9347 10736,9348 10737,9348 10737,9348 10738,9348 10739,9348 10740,9348 10740,9348 10741,9347 10741,9347 10742,9347 10742,9347 10743,9347 10743,9347 10743,9347 10743,9347 10744,9346 10744,9346 10745,9346 10746,9345 10746,9345 10746,9345 10746,9345 10747,9344 10748,9344 10749,9343 10749,9343 10751,9341 10752,9340 10759,9333 10768,9342 10765,9345 10762,9347 10756,9352 10755,9353 10754,9354 10753,9355 10751,9356 10746,9360 10745,9360 10744,9361 10743,9362 10742,9362 10740,9363 10737,9364 10735,9364 10733,9365 10732,9365 10731,9366 10730,9366 10728,9366 10726,9366 10724,9365 10722,9365 10721,9364 10719,9364 10718,9363 10714,9362 10713,9361 10712,9359 10711,9358 10710,9356 10709,9355 10708,9353 10707,9352 10706,9350 10705,9348 10704,9346 10703,9343 10703,9341 10701,9336 10699,9331 10696,9319 10695,9313 10692,9307 10692,9306 10692,9306 10692,9306 10692,9305 10692,9304 10692,9304 10692,9303 10691,9303 10691,9302 10691,9302 10690,9302 10690,9301 10690,9301 10690,9301 10690,9300 10690,9300 10690,9300 10690,9300 10690,9299 10690,9299 10690,9299 10689,9299 10689,9299 10689,9299 10689,9299 10689,9299 10688,9299 10688,9299 10688,9298 10688,9298 10688,9298 10687,9298 10687,9298 10687,9297 10686,9297 10686,9297 10686,9297 10686,9297 10685,9297 10680,9297 10671,9297 Z"/>
   </g>
  </g>
  <g class="com.sun.star.drawing.PolyPolygonShape">
   <g id="id11">
    <rect class="BoundingBox" stroke="none" fill="none" x="10810" y="9247" width="154" height="79"/>
    <path fill="rgb(0,0,0)" stroke="none" d="M 10810,9248 L 10962,9248 10962,9268 10810,9268 10810,9248 Z M 10810,9325 L 10810,9305 10962,9305 10962,9325 10810,9325 Z"/>
   </g>
  </g>
  <g class="com.sun.star.drawing.PolyPolygonShape">
   <g id="id12">
    <rect class="BoundingBox" stroke="none" fill="none" x="11003" y="9192" width="121" height="175"/>
    <path fill="rgb(0,0,0)" stroke="none" d="M 11017,9345 L 11016,9342 11014,9339 11011,9333 11009,9326 11007,9318 11006,9310 11004,9301 11004,9291 11003,9281 11004,9270 11005,9260 11006,9250 11007,9242 11009,9238 11010,9234 11012,9230 11013,9226 11015,9223 11017,9219 11019,9216 11020,9214 11022,9211 11025,9209 11027,9207 11029,9205 11032,9203 11034,9201 11037,9199 11039,9198 11042,9196 11045,9195 11048,9194 11051,9194 11054,9193 11057,9193 11060,9193 11063,9193 11067,9193 11071,9193 11074,9194 11078,9194 11081,9195 11084,9196 11087,9197 11090,9199 11093,9200 11096,9201 11098,9203 11100,9205 11102,9207 11105,9210 11107,9212 11108,9215 11110,9218 11112,9221 11113,9224 11115,9227 11116,9230 11117,9234 11118,9238 11118,9242 11120,9250 11121,9258 11122,9267 11122,9272 11122,9277 11122,9288 11121,9298 11120,9307 11118,9316 11116,9324 11113,9331 11110,9338 11106,9344 11105,9346 11102,9349 11100,9351 11098,9353 11096,9355 11093,9357 11090,9359 11088,9360 11085,9362 11082,9363 11079,9364 11076,9364 11072,9365 11069,9365 11061,9366 11054,9365 11051,9365 11048,9364 11044,9364 11041,9363 11039,9362 11036,9360 11033,9359 11031,9357 11028,9356 11026,9354 11024,9352 11021,9350 11019,9347 11017,9345 Z M 11030,9277 L 11031,9287 11031,9296 11032,9304 11032,9311 11034,9318 11035,9324 11037,9330 11038,9335 11041,9339 11042,9341 11043,9343 11044,9345 11046,9346 11047,9347 11048,9348 11048,9349 11050,9349 11052,9350 11053,9351 11055,9351 11057,9352 11059,9352 11061,9353 11063,9353 11065,9353 11067,9352 11069,9352 11071,9352 11073,9351 11074,9351 11075,9350 11076,9350 11077,9349 11077,9349 11079,9348 11080,9346 11082,9345 11083,9343 11084,9342 11085,9340 11086,9338 11086,9336 11088,9333 11089,9331 11089,9328 11090,9326 11091,9323 11092,9320 11092,9317 11092,9314 11093,9310 11094,9307 11094,9303 11094,9299 11094,9291 11094,9283 11094,9273 11094,9264 11094,9255 11093,9251 11092,9248 11092,9244 11092,9241 11091,9237 11090,9234 11089,9231 11089,9229 11088,9226 11086,9224 11084,9219 11083,9217 11082,9216 11081,9214 11079,9212 11078,9211 11077,9210 11076,9210 11075,9209 11073,9208 11072,9207 11070,9206 11068,9205 11067,9205 11065,9205 11062,9205 11060,9205 11058,9205 11056,9205 11054,9206 11052,9207 11051,9208 11049,9209 11047,9210 11046,9211 11045,9212 11043,9214 11042,9216 11040,9217 11039,9219 11038,9221 11037,9224 11036,9229 11035,9234 11033,9240 11033,9243 11032,9247 11031,9261 11031,9269 11030,9277 Z"/>
   </g>
  </g>
  <g class="com.sun.star.drawing.PolyPolygonShape">
   <g id="id13">
    <rect class="BoundingBox" stroke="none" fill="none" x="11219" y="8633" width="179" height="263"/>
    <path fill="rgb(0,0,0)" stroke="none" d="M 11297,8818 L 11297,8814 11296,8812 11296,8810 11295,8809 11295,8809 11294,8808 11293,8806 11293,8806 11292,8805 11291,8805 11291,8804 11290,8804 11289,8804 11289,8804 11289,8804 11288,8804 11287,8803 11285,8803 11284,8803 11283,8803 11281,8803 11269,8803 11250,8892 11219,8892 11265,8686 11267,8681 11268,8676 11268,8674 11268,8672 11268,8670 11268,8669 11269,8667 11269,8666 11269,8665 11269,8663 11269,8661 11269,8659 11269,8657 11269,8655 11269,8654 11269,8653 11269,8652 11268,8651 11268,8651 11268,8650 11267,8650 11267,8649 11266,8649 11266,8648 11265,8648 11265,8647 11264,8647 11263,8647 11263,8646 11261,8646 11259,8645 11257,8645 11254,8645 11251,8645 11248,8645 11250,8635 11296,8634 11307,8634 11271,8791 11277,8791 11279,8791 11281,8791 11284,8790 11288,8789 11292,8788 11296,8786 11299,8784 11303,8782 11307,8780 11316,8774 11323,8768 11329,8763 11334,8758 11337,8755 11339,8752 11341,8750 11343,8747 11344,8745 11344,8744 11345,8742 11345,8741 11345,8740 11345,8739 11345,8738 11345,8737 11345,8736 11345,8735 11345,8734 11344,8733 11343,8732 11343,8731 11342,8731 11341,8730 11340,8730 11339,8729 11338,8729 11337,8728 11335,8728 11332,8728 11334,8719 11393,8719 11396,8728 11381,8741 11373,8748 11364,8755 11320,8789 11337,8855 11339,8858 11340,8861 11341,8867 11342,8867 11342,8868 11343,8869 11343,8870 11345,8871 11345,8872 11347,8872 11348,8873 11348,8873 11349,8873 11350,8874 11351,8874 11351,8874 11351,8874 11352,8874 11353,8874 11353,8873 11354,8873 11355,8873 11357,8872 11358,8872 11359,8871 11361,8870 11362,8869 11366,8866 11370,8862 11372,8860 11374,8858 11376,8856 11377,8854 11388,8864 11381,8872 11373,8879 11370,8882 11367,8884 11364,8886 11361,8888 11359,8889 11356,8891 11353,8892 11351,8893 11348,8894 11346,8894 11343,8895 11340,8895 11338,8895 11335,8894 11332,8894 11331,8893 11329,8893 11328,8893 11327,8892 11326,8892 11325,8891 11324,8890 11323,8889 11322,8889 11321,8888 11320,8886 11318,8884 11316,8881 11315,8878 11313,8875 11312,8872 11311,8869 11309,8865 11297,8818 Z"/>
   </g>
  </g>
  <g class="com.sun.star.drawing.PolyPolygonShape">
   <g id="id14">
    <rect class="BoundingBox" stroke="none" fill="none" x="11421" y="8621" width="153" height="139"/>
    <path fill="rgb(0,0,0)" stroke="none" d="M 11487,8693 L 11486,8687 11485,8682 11484,8678 11483,8676 11482,8674 11482,8670 11481,8666 11479,8660 11479,8657 11478,8654 11476,8650 11473,8644 11470,8641 11470,8641 11470,8641 11470,8641 11468,8640 11467,8640 11467,8640 11467,8640 11466,8640 11465,8640 11465,8640 11464,8640 11464,8640 11464,8640 11463,8640 11463,8640 11463,8640 11463,8640 11463,8641 11462,8641 11462,8641 11462,8641 11461,8641 11461,8641 11461,8641 11461,8641 11460,8641 11460,8641 11460,8641 11460,8642 11459,8642 11458,8643 11457,8644 11456,8645 11455,8646 11455,8647 11453,8649 11453,8650 11453,8650 11451,8652 11448,8657 11438,8650 11441,8646 11443,8643 11447,8637 11449,8635 11450,8634 11451,8633 11452,8631 11453,8630 11454,8629 11455,8629 11456,8628 11459,8626 11461,8625 11462,8624 11463,8624 11464,8623 11465,8623 11467,8622 11468,8622 11469,8622 11470,8622 11473,8622 11476,8622 11478,8622 11479,8622 11481,8622 11482,8622 11484,8623 11485,8623 11486,8624 11487,8625 11489,8626 11490,8626 11491,8627 11492,8628 11493,8630 11494,8631 11495,8632 11495,8634 11497,8637 11498,8639 11498,8640 11499,8642 11500,8644 11500,8647 11500,8649 11501,8653 11502,8658 11504,8664 11504,8670 11506,8670 11510,8665 11514,8660 11520,8652 11523,8648 11526,8644 11528,8641 11529,8640 11530,8639 11533,8636 11535,8633 11537,8631 11538,8630 11541,8628 11542,8627 11544,8626 11545,8625 11545,8625 11549,8623 11550,8623 11551,8623 11552,8623 11552,8623 11552,8623 11554,8622 11555,8622 11556,8622 11556,8622 11557,8622 11558,8622 11560,8622 11562,8622 11564,8622 11566,8622 11567,8622 11569,8623 11570,8623 11572,8624 11566,8650 11555,8650 11555,8649 11555,8648 11555,8648 11555,8647 11555,8647 11555,8646 11554,8646 11554,8646 11554,8645 11554,8645 11553,8645 11553,8645 11553,8645 11552,8645 11552,8645 11551,8645 11547,8645 11547,8645 11547,8645 11547,8645 11547,8645 11546,8645 11546,8645 11545,8646 11544,8646 11543,8647 11538,8652 11538,8652 11537,8653 11535,8655 11534,8656 11533,8657 11532,8658 11531,8659 11529,8661 11527,8664 11524,8667 11521,8670 11515,8677 11512,8681 11509,8686 11512,8702 11514,8709 11515,8715 11516,8717 11516,8720 11517,8722 11518,8724 11518,8726 11519,8728 11520,8730 11520,8732 11521,8733 11521,8734 11522,8735 11522,8736 11523,8737 11524,8738 11524,8738 11524,8739 11526,8739 11527,8740 11527,8740 11528,8740 11529,8741 11530,8741 11530,8741 11530,8741 11531,8741 11532,8741 11532,8741 11533,8740 11533,8740 11534,8740 11534,8740 11534,8740 11534,8740 11534,8740 11535,8740 11535,8740 11535,8740 11535,8740 11536,8739 11536,8739 11537,8739 11538,8738 11538,8738 11538,8738 11538,8738 11539,8737 11540,8736 11541,8735 11542,8734 11542,8733 11542,8733 11543,8732 11544,8731 11545,8730 11545,8729 11546,8728 11547,8727 11548,8724 11558,8731 11556,8734 11553,8738 11551,8742 11548,8745 11546,8747 11544,8749 11542,8751 11541,8752 11539,8753 11539,8753 11539,8754 11538,8754 11538,8755 11537,8755 11537,8755 11536,8756 11535,8756 11534,8757 11531,8758 11530,8758 11529,8758 11526,8758 11523,8759 11522,8759 11520,8759 11519,8759 11518,8759 11517,8758 11516,8758 11514,8757 11511,8757 11511,8757 11511,8757 11510,8757 11510,8756 11509,8756 11509,8756 11509,8756 11508,8755 11508,8755 11507,8755 11507,8754 11507,8754 11506,8753 11506,8753 11506,8752 11505,8752 11505,8752 11505,8751 11504,8751 11504,8751 11504,8750 11504,8750 11503,8750 11503,8749 11503,8749 11502,8748 11502,8747 11501,8746 11501,8745 11501,8744 11500,8742 11498,8738 11495,8729 11495,8728 11495,8726 11494,8724 11494,8723 11494,8722 11494,8722 11494,8721 11493,8721 11493,8720 11493,8718 11493,8716 11493,8714 11492,8714 11492,8713 11492,8712 11492,8711 11492,8711 11492,8710 11492,8709 11491,8709 11491,8708 11490,8708 11488,8710 11486,8713 11483,8718 11479,8723 11476,8727 11471,8734 11470,8736 11468,8737 11467,8738 11465,8740 11463,8743 11461,8745 11459,8747 11458,8749 11457,8750 11453,8753 11453,8753 11452,8754 11451,8754 11449,8755 11449,8755 11449,8755 11448,8756 11448,8756 11447,8757 11446,8757 11445,8757 11444,8758 11443,8758 11443,8758 11442,8758 11441,8758 11440,8758 11439,8758 11438,8759 11436,8759 11433,8759 11432,8759 11430,8759 11429,8758 11427,8758 11424,8757 11421,8757 11427,8731 11439,8731 11440,8732 11440,8733 11440,8733 11440,8734 11440,8734 11440,8735 11440,8735 11441,8736 11441,8736 11441,8736 11442,8736 11442,8736 11442,8737 11443,8737 11443,8737 11444,8737 11444,8737 11444,8737 11444,8737 11445,8736 11445,8736 11445,8736 11446,8736 11446,8736 11446,8736 11446,8736 11446,8736 11447,8736 11447,8736 11447,8736 11447,8736 11447,8735 11448,8735 11448,8735 11448,8735 11449,8734 11449,8734 11450,8734 11450,8734 11450,8734 11450,8734 11450,8733 11451,8733 11452,8733 11453,8732 11454,8731 11454,8731 11455,8730 11456,8729 11458,8727 11459,8725 11460,8724 11461,8723 11464,8720 11466,8717 11472,8711 11476,8707 11479,8702 11487,8693 Z"/>
   </g>
  </g>
 </g>
</svg>