<?xml version="1.0" encoding="UTF-8"?>
<!DOCTYPE svg PUBLIC "-//W3C//DTD SVG 1.1//EN" "http://www.w3.org/Graphics/SVG/1.1/DTD/svg11.dtd">
<svg version="1.2" width="203.21mm" height="203.21mm" viewBox="53070 25130 20321 20321" preserveAspectRatio="xMidYMid" fill-rule="evenodd" stroke-width="28.222" stroke-linejoin="round" xmlns="http://www.w3.org/2000/svg" xmlns:ooo="http://xml.openoffice.org/svg/export" xmlns:xlink="http://www.w3.org/1999/xlink" xmlns:presentation="http://sun.com/xmlns/staroffice/presentation" xmlns:smil="http://www.w3.org/2001/SMIL20/" xmlns:anim="urn:oasis:names:tc:opendocument:xmlns:animation:1.0" xml:space="preserve">
 <defs class="EmbeddedBulletChars">
  <g id="bullet-char-template-57356" transform="scale(0.00048828125,-0.00048828125)">
   <path d="M 580,1141 L 1163,571 580,0 -4,571 580,1141 Z"/>
  </g>
  <g id="bullet-char-template-57354" transform="scale(0.00048828125,-0.00048828125)">
   <path d="M 8,1128 L 1137,1128 1137,0 8,0 8,1128 Z"/>
  </g>
  <g id="bullet-char-template-10146" transform="scale(0.00048828125,-0.00048828125)">
   <path d="M 174,0 L 602,739 174,1481 1456,739 174,0 Z M 1358,739 L 309,1346 659,739 1358,739 Z"/>
  </g>
  <g id="bullet-char-template-10132" transform="scale(0.00048828125,-0.00048828125)">
   <path d="M 2015,739 L 1276,0 717,0 1260,543 174,543 174,936 1260,936 717,1481 1274,1481 2015,739 Z"/>
  </g>
  <g id="bullet-char-template-10007" transform="scale(0.00048828125,-0.00048828125)">
   <path d="M 0,-2 C -7,14 -16,27 -25,37 L 356,567 C 262,823 215,952 215,954 215,979 228,992 255,992 264,992 276,990 289,987 310,991 331,999 354,1012 L 381,999 492,748 772,1049 836,1024 860,1049 C 881,1039 901,1025 922,1006 886,937 835,863 770,784 769,783 710,716 594,584 L 774,223 C 774,196 753,168 711,139 L 727,119 C 717,90 699,76 672,76 641,76 570,178 457,381 L 164,-76 C 142,-110 111,-127 72,-127 30,-127 9,-110 8,-76 1,-67 -2,-52 -2,-32 -2,-23 -1,-13 0,-2 Z"/>
  </g>
  <g id="bullet-char-template-10004" transform="scale(0.00048828125,-0.00048828125)">
   <path d="M 285,-33 C 182,-33 111,30 74,156 52,228 41,333 41,471 41,549 55,616 82,672 116,743 169,778 240,778 293,778 328,747 346,684 L 369,508 C 377,444 397,411 428,410 L 1163,1116 C 1174,1127 1196,1133 1229,1133 1271,1133 1292,1118 1292,1087 L 1292,965 C 1292,929 1282,901 1262,881 L 442,47 C 390,-6 338,-33 285,-33 Z"/>
  </g>
  <g id="bullet-char-template-9679" transform="scale(0.00048828125,-0.00048828125)">
   <path d="M 813,0 C 632,0 489,54 383,161 276,268 223,411 223,592 223,773 276,916 383,1023 489,1130 632,1184 813,1184 992,1184 1136,1130 1245,1023 1353,916 1407,772 1407,592 1407,412 1353,268 1245,161 1136,54 992,0 813,0 Z"/>
  </g>
  <g id="bullet-char-template-8226" transform="scale(0.00048828125,-0.00048828125)">
   <path d="M 346,457 C 273,457 209,483 155,535 101,586 74,649 74,723 74,796 101,859 155,911 209,963 273,989 346,989 419,989 480,963 531,910 582,859 608,796 608,723 608,648 583,586 532,535 482,483 420,457 346,457 Z"/>
  </g>
  <g id="bullet-char-template-8211" transform="scale(0.00048828125,-0.00048828125)">
   <path d="M -4,459 L 1135,459 1135,606 -4,606 -4,459 Z"/>
  </g>
  <g id="bullet-char-template-61548" transform="scale(0.00048828125,-0.00048828125)">
   <path d="M 173,740 C 173,903 231,1043 346,1159 462,1274 601,1332 765,1332 928,1332 1067,1274 1183,1159 1299,1043 1357,903 1357,740 1357,577 1299,437 1183,322 1067,206 928,148 765,148 601,148 462,206 346,322 231,437 173,577 173,740 Z"/>
  </g>
 </defs>
 <g class="Page">
  <g class="com.sun.star.drawing.CustomShape">
   <g id="id3">
    <rect class="BoundingBox" stroke="none" fill="none" x="53070" y="25130" width="20321" height="20321"/>
   </g>
  </g>
  <g class="com.sun.star.drawing.ClosedBezierShape">
   <g id="id4">
    <rect class="BoundingBox" stroke="none" fill="none" x="59198" y="25511" width="10976" height="10576"/>
    <path fill="rgb(241,13,12)" stroke="none" d="M 64488,25525 C 64506,25516 64526,25511 64547,25511 64568,25511 64588,25516 64606,25525 64616,25530 64625,25537 64633,25544 L 64921,25816 C 64928,25822 64934,25829 64938,25836 64948,25852 64954,25870 64954,25889 64954,25907 64948,25926 64938,25942 64937,25944 64936,25945 64935,25947 L 64725,26232 64661,26327 64639,26361 64623,26387 64623,26389 64622,26389 64622,26390 64622,26391 64622,26394 64623,26398 64624,26402 64625,26408 64627,26414 64636,26433 64649,26454 64665,26478 64689,26505 64723,26540 64769,26583 64827,26632 64976,26752 65169,26898 65335,27016 65528,27147 66006,27449 67162,28145 C 67162,28145 67163,28145 67163,28146 L 67463,28332 C 67463,28332 67464,28333 67465,28333 L 67744,28515 C 67745,28516 67745,28516 67747,28516 L 68007,28694 C 68008,28694 68008,28695 68009,28695 L 68251,28867 C 68252,28868 68253,28869 68254,28870 L 68582,29126 C 68583,29127 68585,29129 68586,29130 L 68882,29391 C 68883,29393 68886,29395 68888,29396 L 69152,29663 C 69154,29664 69155,29666 69157,29668 L 69391,29940 C 69392,29942 69395,29944 69396,29946 L 69598,30223 C 69600,30225 69601,30227 69602,30228 69603,30229 69603,30230 69604,30231 L 69775,30513 C 69777,30515 69779,30518 69780,30521 L 69920,30809 C 69921,30812 69922,30814 69924,30817 L 70033,31110 C 70034,31114 70035,31117 70036,31120 L 70114,31416 C 70115,31419 70115,31423 70116,31426 L 70160,31722 C 70161,31726 70161,31729 70161,31733 L 70172,32029 C 70173,32030 70173,32031 70173,32033 70173,32035 70172,32037 70172,32040 L 70151,32336 C 70150,32339 70150,32343 70150,32346 L 70094,32643 C 70094,32646 70093,32650 70092,32653 L 70004,32950 C 70004,32953 70003,32956 70000,32959 L 69880,33257 C 69879,33259 69878,33262 69877,33265 L 69723,33563 C 69722,33565 69721,33567 69720,33569 L 69589,33782 C 69588,33783 69588,33783 69588,33784 69587,33785 69587,33786 69586,33787 L 69445,33992 C 69444,33994 69443,33995 69441,33997 L 69288,34195 C 69287,34197 69285,34198 69284,34200 L 69120,34391 C 69118,34393 69117,34394 69116,34395 L 68939,34580 C 68938,34581 68937,34582 68936,34584 L 68748,34761 C 68745,34762 68744,34763 68743,34764 L 68543,34934 C 68542,34935 68541,34936 68538,34938 L 68327,35100 C 68326,35101 68323,35102 68322,35103 L 68103,35256 C 68101,35257 68100,35258 68098,35259 L 67875,35399 C 67873,35400 67871,35401 67870,35402 L 67643,35528 C 67642,35529 67641,35530 67640,35530 67639,35531 67639,35531 67637,35531 L 67407,35645 C 67405,35646 67404,35647 67401,35648 L 67166,35748 C 67165,35749 67163,35750 67161,35750 L 66923,35838 C 66920,35839 66918,35839 66917,35840 L 66675,35915 C 66673,35915 66671,35916 66669,35916 L 66423,35978 C 66420,35979 66417,35979 66414,35980 L 66018,36050 C 66015,36051 66012,36051 66009,36052 L 65816,36073 C 65813,36073 65811,36073 65810,36073 L 65620,36084 C 65617,36085 65615,36085 65613,36085 L 65427,36086 65426,36086 C 65424,36086 65423,36086 65420,36086 L 65238,36078 C 65235,36078 65232,36078 65230,36078 L 65051,36060 C 65048,36060 65046,36060 65044,36059 L 64868,36032 C 64865,36032 64862,36031 64860,36031 L 64688,35994 C 64685,35994 64683,35993 64681,35992 L 64512,35946 C 64508,35945 64506,35945 64504,35944 L 64338,35888 C 64336,35887 64333,35886 64331,35885 L 64169,35820 C 64166,35819 64164,35818 64162,35817 L 64003,35741 C 64002,35741 64001,35740 63999,35739 63998,35739 63998,35739 63997,35738 L 63841,35653 C 63839,35652 63838,35651 63836,35650 L 63683,35556 C 63681,35554 63680,35553 63678,35552 L 63529,35448 C 63527,35447 63525,35445 63524,35444 L 63339,35299 C 63337,35298 63335,35296 63334,35294 L 63163,35143 C 63162,35141 63160,35140 63158,35138 L 63004,34980 C 63003,34978 63001,34976 62998,34974 L 62860,34810 C 62859,34807 62857,34805 62856,34803 L 62732,34632 C 62731,34631 62730,34629 62729,34628 62729,34627 62729,34626 62728,34625 L 62621,34448 C 62619,34446 62617,34443 62616,34441 L 62524,34257 C 62523,34254 62522,34252 62521,34249 L 62444,34059 C 62444,34056 62443,34054 62442,34051 L 62377,33846 C 62377,33844 62376,33842 62376,33840 L 62320,33613 C 62320,33611 62319,33609 62319,33607 L 62273,33358 C 62273,33356 62272,33355 62272,33353 L 62236,33081 C 62236,33080 62236,33078 62236,33077 L 62208,32783 C 62208,32782 62208,32781 62207,32779 L 62189,32463 C 62189,32462 62189,32460 62189,32459 L 62179,31759 62179,31758 C 62179,31757 62179,31757 62179,31756 L 62194,31023 61586,30824 C 61584,30823 61583,30823 61582,30822 L 61271,30707 C 61269,30707 61268,30706 61267,30706 L 60985,30592 C 60984,30591 60983,30590 60981,30590 L 60728,30476 C 60727,30475 60724,30474 60723,30474 L 60499,30361 C 60499,30360 60498,30360 60498,30360 60496,30359 60495,30358 60494,30357 L 60299,30245 C 60296,30244 60293,30242 60291,30241 L 60125,30129 C 60123,30127 60120,30125 60118,30123 L 59961,29998 C 59958,29996 59956,29994 59954,29992 L 59812,29859 C 59810,29857 59808,29855 59806,29853 L 59679,29713 C 59678,29711 59675,29708 59673,29706 L 59562,29559 C 59561,29557 59559,29554 59557,29552 L 59556,29551 59461,29397 C 59458,29394 59457,29391 59456,29389 L 59375,29227 C 59374,29225 59373,29222 59371,29219 L 59306,29050 C 59305,29048 59304,29045 59302,29042 L 59252,28866 C 59252,28863 59251,28860 59251,28858 L 59217,28679 C 59217,28676 59216,28673 59216,28670 L 59199,28492 C 59199,28489 59199,28487 59199,28484 59199,28483 59199,28483 59199,28483 L 59200,28307 C 59200,28304 59200,28300 59200,28297 L 59219,28122 C 59219,28119 59220,28116 59220,28113 L 59257,27939 C 59257,27936 59258,27933 59259,27930 L 59311,27758 C 59312,27755 59314,27752 59315,27749 L 59386,27578 C 59387,27575 59388,27573 59389,27570 L 59477,27400 C 59478,27398 59479,27396 59481,27394 L 59552,27278 C 59552,27277 59553,27277 59553,27276 59553,27275 59554,27274 59555,27273 L 59630,27165 C 59631,27163 59632,27161 59633,27160 L 59711,27059 C 59713,27057 59714,27055 59716,27054 L 59798,26960 C 59800,26959 59801,26957 59804,26955 L 59889,26869 C 59891,26868 59893,26866 59895,26864 L 59985,26786 C 59987,26784 59989,26782 59992,26781 L 60085,26710 C 60087,26708 60090,26707 60092,26705 L 60190,26642 C 60192,26640 60195,26639 60198,26638 L 60299,26582 C 60300,26582 60301,26581 60302,26581 60304,26580 60306,26579 60308,26578 L 60414,26530 C 60416,26529 60419,26527 60422,26526 L 60532,26486 C 60534,26485 60537,26484 60540,26483 L 60653,26450 C 60657,26449 60659,26448 60662,26448 L 60780,26422 C 60782,26422 60786,26421 60788,26421 L 60909,26403 C 60913,26402 60915,26402 60918,26402 L 61043,26391 C 61046,26391 61048,26391 61051,26391 L 61181,26388 C 61181,26388 61182,26388 61183,26388 61185,26388 61187,26388 61189,26388 L 61362,26394 C 61366,26394 61369,26395 61373,26395 L 61542,26414 C 61545,26414 61548,26414 61552,26415 L 61714,26446 C 61718,26446 61721,26447 61724,26448 L 61883,26491 C 61886,26492 61889,26493 61893,26494 L 62045,26550 C 62048,26551 62051,26552 62054,26553 L 62201,26621 C 62202,26622 62204,26622 62205,26623 62208,26624 62209,26625 62210,26625 L 62350,26705 C 62354,26706 62356,26708 62359,26710 L 62494,26802 C 62497,26803 62499,26805 62502,26808 L 62633,26914 C 62635,26916 62639,26919 62641,26921 L 62759,27038 C 62761,27040 62763,27043 62766,27046 L 62870,27173 C 62872,27175 62875,27178 62877,27181 L 62968,27318 C 62969,27319 62969,27319 62969,27320 62972,27322 62973,27324 62974,27327 L 63053,27474 C 63054,27477 63055,27480 63057,27483 L 63123,27640 C 63124,27643 63125,27646 63125,27648 L 63179,27816 C 63180,27819 63180,27821 63181,27824 L 63221,28002 C 63221,28004 63222,28007 63222,28009 L 63251,28213 C 63251,28214 63252,28216 63252,28218 L 63273,28461 C 63273,28463 63273,28464 63273,28466 L 63293,29071 C 63293,29073 63293,29074 63293,29075 L 63293,29076 63282,29840 C 63282,29841 63282,29842 63282,29843 L 63246,30636 63262,30637 C 63268,30637 63273,30637 63279,30638 L 63384,30656 63462,30656 63525,30643 63580,30619 63630,30583 63675,30532 63718,30468 63754,30391 63815,30197 63855,29972 63900,29466 63938,28976 C 63938,28974 63938,28971 63938,28969 L 63970,28760 C 63970,28757 63972,28754 63973,28751 L 63995,28660 C 63995,28658 63996,28655 63997,28652 L 64025,28572 C 64026,28568 64027,28564 64029,28560 L 64063,28493 C 64065,28490 64066,28487 64068,28483 64071,28481 64072,28479 64073,28477 L 64114,28423 C 64117,28418 64123,28413 64127,28409 L 64151,28388 C 64154,28384 64159,28381 64163,28377 L 64189,28360 C 64192,28358 64197,28356 64201,28353 64202,28353 64203,28352 64205,28351 L 64232,28338 C 64239,28336 64244,28333 64251,28331 L 64281,28323 C 64287,28321 64293,28320 64300,28319 L 64332,28315 C 64338,28314 64344,28314 64348,28314 64349,28314 64350,28314 64351,28314 L 64386,28315 C 64394,28315 64403,28316 64410,28318 L 64487,28334 C 64495,28336 64503,28339 64509,28342 L 64597,28379 C 64600,28380 64603,28382 64605,28383 64607,28384 64610,28386 64612,28387 L 64711,28447 C 64714,28448 64717,28450 64720,28452 L 64759,28480 C 64761,28482 64762,28483 64764,28484 L 64803,28515 C 64806,28517 64808,28519 64809,28520 L 64885,28590 C 64887,28592 64889,28594 64891,28597 L 64962,28675 C 64964,28677 64966,28680 64968,28682 L 65031,28767 C 65033,28769 65034,28771 65035,28773 65036,28774 65036,28774 65036,28775 L 65092,28866 C 65094,28869 65095,28872 65096,28875 L 65143,28971 C 65144,28974 65146,28977 65147,28981 L 65183,29081 C 65184,29084 65185,29086 65185,29089 L 65200,29140 C 65200,29142 65201,29144 65201,29146 L 65212,29198 C 65212,29200 65213,29203 65213,29205 L 65223,29291 C 65224,29294 65224,29297 65224,29300 L 65225,29385 65227,29386 C 65227,29389 65225,29392 65225,29394 L 65219,29478 C 65219,29481 65218,29484 65218,29487 L 65202,29571 C 65201,29574 65201,29576 65200,29579 L 65176,29663 C 65175,29666 65175,29668 65174,29671 L 65143,29756 C 65142,29758 65141,29760 65140,29762 L 65102,29849 C 65101,29851 65100,29852 65098,29854 L 65053,29943 C 65052,29945 65051,29947 65050,29949 L 64900,30198 C 64899,30199 64899,30199 64898,30200 64898,30202 64897,30203 64896,30205 L 64715,30456 C 64713,30458 64712,30461 64710,30463 L 64504,30703 C 64502,30705 64501,30707 64498,30709 L 64387,30820 C 64386,30822 64384,30823 64382,30825 L 64267,30928 C 64266,30930 64263,30932 64261,30933 L 64142,31027 C 64140,31029 64137,31030 64134,31032 L 64012,31114 C 64009,31116 64006,31118 64003,31120 L 63877,31189 C 63877,31189 63876,31190 63875,31190 63872,31192 63869,31193 63866,31194 L 63739,31249 C 63734,31250 63730,31252 63724,31254 L 63595,31291 C 63590,31293 63584,31294 63578,31295 L 63448,31315 C 63444,31315 63439,31316 63434,31316 L 63369,31318 C 63367,31318 63366,31318 63364,31318 63362,31318 63360,31318 63358,31318 L 63293,31315 C 63290,31315 63286,31315 63282,31314 L 63218,31306 C 63215,31306 63213,31306 63212,31305 L 63209,31882 63242,32532 63271,32826 63310,33100 63358,33354 63415,33588 63482,33803 63560,34005 63650,34193 63752,34368 63866,34528 63991,34675 64127,34808 64276,34929 64418,35027 64566,35113 64720,35187 64877,35250 65039,35302 65208,35341 65381,35370 65560,35387 65740,35392 65918,35385 66095,35365 66270,35334 66444,35290 66616,35234 66789,35166 66959,35085 67249,34925 67520,34750 67774,34560 68010,34355 68229,34135 68429,33900 68612,33650 68777,33385 68896,33154 68989,32925 69056,32696 69098,32468 69115,32240 69107,32012 69074,31784 69015,31555 68931,31327 68822,31103 68688,30882 68528,30664 68343,30449 68133,30237 67896,30029 67632,29823 67423,29673 67190,29517 66654,29180 65096,28258 C 65095,28258 65095,28258 65094,28257 L 64881,28127 C 64880,28126 64880,28126 64879,28125 L 64669,27989 C 64668,27988 64668,27988 64666,27987 L 64458,27845 C 64457,27844 64457,27843 64456,27843 L 64250,27694 C 64249,27693 64249,27693 64248,27692 L 64124,27597 C 64123,27596 64121,27595 64120,27594 L 64003,27496 C 64002,27495 64001,27494 63999,27493 L 63888,27391 C 63887,27390 63886,27389 63885,27388 L 63779,27284 C 63778,27283 63777,27281 63776,27280 L 63676,27173 C 63675,27171 63674,27170 63674,27169 L 63581,27058 C 63580,27057 63578,27056 63577,27054 L 63492,26941 C 63491,26939 63489,26938 63488,26936 L 63407,26819 C 63407,26818 63406,26818 63406,26817 63395,26800 63390,26782 63390,26764 63390,26745 63395,26727 63406,26711 63408,26707 63410,26704 63413,26701 L 63564,26514 C 63566,26512 63568,26509 63571,26507 L 63948,26110 64345,25662 C 64347,25660 64348,25659 64349,25657 L 64459,25547 C 64467,25538 64477,25531 64488,25525 Z M 60125,27714 L 60073,27843 60035,27975 60011,28108 59999,28244 60003,28382 60020,28523 60050,28667 60094,28809 60149,28945 60217,29074 60295,29198 60386,29316 60488,29429 60604,29536 60731,29637 60899,29754 61079,29865 61269,29971 61472,30070 61685,30164 61910,30252 62146,30333 62201,30349 62211,29615 62199,28993 62164,28498 62140,28301 62109,28136 62071,27992 62024,27857 61968,27732 61904,27615 61830,27508 61747,27409 61655,27319 61553,27236 61512,27207 61469,27180 61426,27156 61384,27135 61340,27117 61297,27102 61253,27089 61209,27079 61163,27072 61118,27067 61071,27065 61024,27065 60976,27068 60926,27074 60876,27083 60825,27094 60773,27108 60724,27124 60677,27141 60631,27162 60587,27184 60544,27208 60503,27235 60463,27264 60424,27296 60387,27329 60351,27366 60317,27403 60251,27489 60191,27585 60125,27714 Z"/>
   </g>
  </g>
  <g class="com.sun.star.drawing.ClosedBezierShape">
   <g id="id5">
    <rect class="BoundingBox" stroke="none" fill="none" x="55229" y="32618" width="12934" height="12631"/>
    <path fill="rgb(129,212,26)" stroke="none" d="M 67973,38105 C 67990,38114 68005,38128 68016,38144 68026,38160 68032,38178 68032,38197 L 68032,38198 68023,38674 C 68023,38692 68017,38710 68007,38725 67997,38741 67982,38755 67964,38764 67950,38771 67935,38776 67919,38778 L 67534,38819 C 67533,38819 67532,38819 67531,38819 L 67133,38851 C 67132,38851 67131,38851 67130,38851 L 66721,38873 C 66720,38873 66719,38873 66718,38873 L 66297,38886 C 66296,38886 66293,38886 66292,38886 66284,38886 66277,38885 66269,38884 L 65964,38828 C 65950,38826 65939,38822 65928,38816 65910,38807 65895,38793 65885,38777 65875,38761 65869,38743 65869,38724 65869,38712 65871,38700 65876,38688 L 66147,38015 66149,38014 66332,37572 C 66332,37571 66332,37571 66332,37571 L 66386,37446 66430,37335 66466,37239 66492,37158 66505,37102 66508,37080 66510,37059 66510,37039 66509,37022 66506,37007 66503,36994 66498,36982 66493,36972 66487,36963 66479,36955 66470,36947 66460,36939 66448,36932 66434,36924 66381,36903 66328,36884 66270,36868 66210,36855 66147,36846 66082,36839 66013,36835 65943,36834 65788,36842 65623,36864 65446,36898 65257,36946 65133,36983 65016,37025 64906,37070 64802,37120 64704,37174 64612,37231 64526,37293 64447,37360 64372,37430 64305,37504 64243,37583 64186,37667 64135,37754 64090,37847 64051,37944 64017,38045 64004,38099 64001,38123 63998,38146 63997,38169 63998,38191 64001,38212 64004,38233 64009,38252 64015,38271 64023,38290 64032,38308 64043,38325 64054,38343 64068,38360 64083,38376 64102,38394 64123,38413 64188,38460 64270,38514 64372,38574 64639,38713 64823,38800 64832,38775 64903,38511 64959,38234 65003,37942 65034,37635 C 65036,37619 65041,37604 65050,37591 65060,37575 65075,37562 65093,37552 65111,37543 65131,37538 65152,37538 65172,37538 65193,37543 65211,37552 65219,37556 65225,37561 65232,37566 L 65315,37635 C 65317,37637 65319,37639 65321,37641 L 65396,37715 C 65398,37717 65400,37720 65403,37722 L 65468,37801 C 65470,37804 65473,37807 65475,37809 L 65532,37893 C 65533,37894 65533,37895 65534,37896 65535,37898 65536,37900 65537,37902 L 65586,37991 C 65588,37994 65590,37997 65591,38000 L 65632,38095 C 65633,38097 65634,38100 65635,38103 L 65669,38203 C 65670,38206 65671,38208 65671,38211 L 65696,38316 C 65696,38319 65698,38322 65698,38324 L 65714,38435 C 65714,38437 65715,38440 65715,38442 L 65723,38558 C 65724,38560 65724,38562 65724,38564 L 65724,38686 C 65724,38688 65724,38690 65724,38692 L 65717,38818 C 65717,38821 65715,38824 65715,38826 L 65675,39095 C 65675,39098 65674,39101 65673,39104 L 65655,39178 66372,39482 C 66375,39483 66377,39484 66378,39485 L 66619,39602 C 66620,39602 66621,39603 66622,39603 66622,39604 66623,39604 66624,39605 L 66730,39663 C 66731,39664 66733,39664 66734,39665 L 66831,39723 C 66832,39724 66835,39725 66836,39726 L 66924,39784 C 66925,39785 66927,39786 66928,39787 L 67007,39845 C 67009,39846 67010,39848 67013,39849 L 67082,39907 C 67084,39908 67086,39910 67088,39912 L 67149,39969 C 67151,39971 67152,39973 67154,39975 L 67243,40073 C 67245,40074 67247,40076 67248,40078 L 67329,40179 C 67330,40181 67331,40183 67332,40185 L 67405,40289 C 67406,40290 67406,40291 67407,40292 67408,40293 67408,40294 67409,40295 L 67473,40402 C 67474,40404 67475,40406 67476,40409 L 67531,40519 C 67532,40521 67533,40523 67534,40526 L 67581,40639 C 67582,40641 67582,40644 67583,40646 L 67621,40762 C 67622,40765 67622,40767 67623,40769 L 67652,40889 C 67653,40891 67653,40894 67653,40896 L 67674,41019 C 67674,41021 67675,41023 67675,41025 L 67688,41151 C 67688,41153 67688,41156 67688,41158 L 67691,41287 C 67691,41288 67691,41288 67691,41289 67691,41291 67691,41292 67691,41293 L 67686,41425 C 67686,41427 67686,41429 67686,41431 L 67672,41566 C 67672,41568 67672,41570 67672,41572 L 67650,41710 C 67650,41713 67649,41715 67649,41718 L 67578,42004 C 67577,42006 67576,42009 67575,42012 L 67451,42377 C 67450,42379 67449,42382 67448,42384 L 67297,42733 C 67296,42735 67294,42738 67293,42740 L 67114,43072 C 67113,43074 67112,43077 67111,43079 L 67110,43079 66905,43395 C 66902,43397 66901,43399 66899,43402 L 66666,43700 C 66665,43703 66663,43705 66661,43707 L 66401,43989 C 66399,43991 66397,43993 66395,43995 L 66108,44261 C 66106,44263 66104,44265 66102,44266 L 65788,44515 C 65786,44517 65783,44518 65781,44519 L 65586,44655 C 65585,44656 65583,44657 65582,44659 L 65386,44780 C 65385,44781 65382,44782 65380,44783 L 65185,44890 C 65184,44890 65184,44891 65183,44891 65182,44892 65181,44893 65179,44893 L 64984,44986 C 64982,44987 64979,44988 64977,44989 L 64782,45067 C 64779,45068 64777,45069 64774,45069 L 64580,45133 C 64576,45134 64574,45135 64571,45135 L 64376,45184 C 64372,45185 64370,45186 64367,45186 L 64172,45221 C 64169,45221 64165,45222 64162,45222 L 63967,45242 C 63965,45242 63962,45243 63958,45243 L 63763,45248 C 63762,45248 63760,45248 63759,45248 63758,45248 63756,45248 63753,45248 L 63558,45239 C 63555,45239 63552,45239 63548,45238 L 63354,45215 C 63350,45215 63348,45214 63345,45214 L 63150,45176 C 63146,45175 63144,45175 63141,45174 L 62946,45121 C 62943,45121 62940,45120 62937,45119 L 62742,45052 C 62740,45051 62738,45050 62736,45049 L 62541,44968 C 62538,44967 62536,44966 62534,44965 L 62393,44896 C 62391,44895 62390,44895 62389,44895 62388,44894 62387,44893 62386,44893 L 62252,44817 C 62250,44816 62248,44814 62246,44813 L 62119,44731 C 62116,44730 62115,44728 62113,44727 L 61994,44638 C 61992,44637 61989,44635 61987,44634 L 61876,44539 C 61874,44537 61871,44535 61870,44534 L 61766,44432 C 61763,44430 61762,44429 61760,44427 L 61663,44319 C 61661,44317 61660,44315 61659,44313 L 61569,44199 C 61567,44197 61565,44195 61564,44193 L 61482,44073 C 61481,44072 61481,44071 61481,44070 61479,44069 61478,44068 61478,44067 L 61403,43940 C 61401,43938 61400,43936 61399,43934 L 61331,43800 C 61330,43798 61330,43797 61329,43795 L 61269,43654 C 61268,43653 61267,43651 61267,43649 L 61213,43502 C 61212,43501 61212,43499 61211,43497 L 61165,43344 C 61164,43342 61164,43339 61163,43337 L 61118,43124 60857,43189 C 60852,43190 60849,43191 60846,43191 L 60462,43252 C 60459,43252 60456,43252 60453,43253 L 60262,43269 C 60260,43270 60258,43270 60256,43270 L 60065,43278 C 60063,43278 60062,43278 60060,43278 L 60059,43278 59868,43277 C 59867,43277 59865,43277 59863,43277 L 59672,43267 C 59670,43267 59669,43267 59667,43267 L 59476,43248 C 59475,43248 59473,43248 59471,43247 L 59281,43220 C 59278,43219 59276,43219 59272,43218 L 58895,43137 C 58890,43136 58887,43135 58884,43134 L 58507,43017 C 58504,43016 58501,43015 58497,43014 L 58122,42862 C 58119,42860 58116,42859 58113,42858 L 57831,42718 C 57830,42718 57830,42717 57829,42717 57828,42716 57826,42715 57825,42714 L 57555,42557 C 57552,42556 57550,42554 57547,42553 L 57291,42379 C 57289,42378 57287,42376 57285,42374 L 57040,42184 C 57037,42182 57036,42180 57034,42179 L 56801,41971 C 56800,41969 56798,41967 56797,41966 L 56576,41741 C 56575,41739 56573,41737 56572,41736 L 56365,41494 C 56364,41492 56361,41490 56360,41488 L 56166,41229 C 56164,41228 56163,41226 56162,41224 L 55986,40957 55986,40956 C 55985,40955 55984,40953 55983,40952 L 55826,40677 C 55825,40676 55825,40674 55824,40672 L 55686,40390 C 55684,40388 55683,40386 55682,40384 L 55563,40096 C 55562,40094 55561,40092 55561,40090 L 55460,39794 C 55460,39792 55458,39790 55457,39788 L 55376,39484 C 55375,39482 55375,39480 55374,39478 L 55310,39168 C 55310,39166 55309,39164 55309,39162 L 55265,38844 C 55264,38842 55264,38840 55264,38838 L 55237,38513 C 55237,38511 55237,38509 55237,38507 L 55229,38174 C 55229,38174 55229,38173 55229,38172 55229,38170 55229,38168 55229,38167 L 55269,37479 C 55269,37476 55270,37473 55270,37470 L 55385,36753 C 55385,36751 55386,36748 55386,36745 L 55575,35999 C 55576,35997 55576,35995 55578,35993 L 55730,35528 C 55731,35526 55731,35524 55732,35522 L 55905,35091 C 55906,35088 55907,35086 55908,35084 L 56101,34686 C 56102,34683 56103,34681 56104,34679 L 56317,34314 C 56317,34312 56318,34311 56319,34310 56320,34309 56320,34308 56321,34306 L 56553,33974 C 56555,33972 56557,33969 56560,33967 L 56811,33668 C 56814,33665 56816,33663 56818,33660 L 57090,33395 C 57092,33393 57094,33391 57096,33389 L 57239,33269 C 57240,33267 57242,33266 57243,33265 L 57392,33153 C 57394,33152 57395,33151 57397,33149 L 57547,33047 C 57550,33046 57552,33045 57554,33044 L 57706,32953 C 57708,32952 57710,32950 57712,32949 L 57865,32870 C 57867,32869 57869,32868 57871,32867 L 58025,32799 C 58027,32797 58030,32796 58032,32795 L 58187,32739 C 58189,32738 58192,32737 58194,32736 L 58349,32691 C 58353,32690 58356,32689 58358,32689 L 58514,32655 C 58517,32654 58521,32653 58523,32653 L 58680,32630 C 58683,32630 58687,32630 58689,32629 L 58847,32618 C 58849,32618 58853,32618 58856,32618 L 59014,32618 C 59017,32618 59021,32618 59024,32619 L 59182,32630 C 59185,32630 59189,32631 59191,32631 L 59351,32654 C 59354,32655 59357,32655 59360,32656 L 59521,32690 C 59523,32691 59526,32691 59528,32692 L 59690,32738 C 59692,32739 59694,32739 59698,32740 L 59859,32797 C 59861,32798 59864,32799 59866,32800 L 60028,32869 C 60031,32870 60033,32870 60035,32871 L 60190,32946 C 60191,32947 60192,32947 60193,32948 60193,32948 60194,32949 60195,32949 L 60345,33031 C 60347,33031 60348,33032 60350,33033 L 60495,33122 C 60496,33123 60498,33124 60499,33125 L 60640,33220 C 60642,33221 60644,33223 60646,33225 L 60910,33434 C 60914,33437 60916,33439 60919,33442 L 61163,33678 C 61167,33680 61169,33683 61171,33685 L 61395,33948 C 61397,33951 61399,33953 61400,33956 L 61605,34245 C 61605,34246 61606,34247 61607,34249 61609,34250 61609,34251 61610,34252 L 61793,34568 C 61795,34570 61796,34573 61797,34575 L 61960,34917 C 61962,34919 61962,34921 61963,34922 L 62044,35121 C 62045,35123 62045,35124 62046,35126 L 62120,35329 C 62120,35330 62120,35332 62121,35333 L 62185,35541 C 62185,35542 62187,35544 62187,35545 L 62242,35757 C 62243,35759 62243,35760 62243,35761 L 62291,35978 C 62291,35979 62292,35981 62292,35982 L 62331,36203 C 62331,36205 62331,36206 62331,36207 L 62362,36433 C 62362,36434 62362,36436 62362,36437 L 62385,36667 C 62385,36669 62385,36671 62386,36672 L 62410,37196 C 62410,37198 62410,37199 62410,37201 L 62410,37843 C 62410,37844 62410,37845 62410,37846 L 62386,38607 C 62386,38608 62386,38609 62386,38610 L 62339,39489 C 62339,39490 62339,39490 62339,39491 L 62253,40784 62203,41679 62191,42014 62190,42105 62276,42062 62417,41978 62570,41875 62733,41754 62906,41614 63285,41279 63653,40914 63813,40740 63958,40569 64088,40403 64203,40241 64302,40084 64332,40029 64313,40022 C 64311,40021 64308,40019 64306,40018 L 64087,39915 C 64086,39915 64085,39914 64084,39914 L 63884,39812 C 63882,39812 63882,39811 63882,39811 63881,39811 63880,39810 63879,39810 L 63697,39709 C 63695,39708 63694,39707 63692,39706 L 63527,39606 C 63526,39605 63524,39604 63523,39603 L 63375,39504 C 63374,39503 63371,39502 63369,39500 L 63240,39402 C 63238,39401 63236,39399 63233,39397 L 63121,39300 C 63119,39298 63116,39296 63114,39294 L 63019,39198 C 63017,39196 63016,39194 63014,39192 L 62973,39143 C 62972,39141 62970,39140 62969,39138 L 62933,39088 C 62930,39087 62929,39085 62928,39083 L 62896,39032 62895,39032 C 62894,39030 62893,39028 62891,39026 L 62862,38974 C 62861,38972 62860,38970 62859,38968 L 62835,38915 C 62834,38913 62832,38911 62831,38908 L 62810,38854 C 62809,38852 62809,38850 62808,38848 L 62791,38792 C 62790,38790 62789,38788 62789,38785 L 62776,38729 C 62774,38726 62774,38724 62774,38722 L 62764,38664 C 62764,38662 62763,38660 62763,38658 L 62758,38598 C 62758,38596 62758,38594 62758,38592 L 62756,38532 C 62756,38531 62756,38530 62756,38529 62756,38528 62756,38527 62756,38526 L 62758,38464 C 62758,38462 62758,38460 62758,38458 L 62764,38396 C 62764,38394 62764,38392 62766,38390 L 62774,38326 C 62776,38323 62776,38321 62777,38318 L 62808,38187 C 62809,38184 62810,38182 62810,38179 L 62841,38084 C 62842,38083 62844,38081 62844,38079 L 62880,37985 C 62881,37982 62883,37980 62884,37977 L 62975,37792 C 62976,37788 62978,37785 62979,37782 L 63093,37600 C 63093,37599 63093,37599 63094,37599 63095,37596 63096,37594 63099,37592 L 63234,37413 C 63236,37410 63238,37408 63240,37406 L 63398,37230 C 63400,37228 63401,37226 63404,37224 L 63585,37052 C 63586,37050 63589,37048 63591,37047 L 63793,36878 C 63796,36876 63798,36875 63799,36874 L 64025,36708 C 64027,36707 64028,36706 64031,36705 L 64220,36581 C 64222,36580 64223,36579 64225,36578 L 64418,36468 C 64419,36467 64420,36466 64423,36465 64423,36465 64424,36465 64424,36464 L 64619,36367 C 64621,36366 64623,36365 64625,36364 L 64823,36279 C 64826,36278 64828,36278 64830,36277 L 65031,36205 C 65033,36204 65036,36203 65038,36203 L 65241,36144 C 65244,36143 65247,36142 65249,36142 L 65455,36096 C 65458,36095 65460,36095 65464,36094 L 65672,36061 C 65674,36061 65678,36061 65680,36060 L 65896,36040 C 65898,36039 65900,36039 65902,36039 L 66130,36030 C 66131,36030 66133,36030 66134,36030 66135,36030 66135,36030 66136,36030 L 66374,36033 C 66376,36033 66377,36033 66379,36033 L 66627,36048 C 66630,36048 66631,36048 66633,36048 L 66892,36074 C 66894,36074 66896,36075 66897,36075 L 67166,36113 C 67169,36113 67170,36113 67171,36114 L 67451,36163 C 67454,36164 67455,36164 67456,36164 L 67748,36226 C 67751,36226 67755,36227 67759,36229 L 68083,36330 C 68091,36332 68097,36335 68103,36338 68122,36347 68136,36361 68146,36377 68157,36393 68162,36411 68162,36430 68162,36442 68160,36454 68155,36465 L 68047,36742 C 68046,36745 68045,36747 68044,36750 L 67819,37208 67545,37799 67459,37998 67433,38065 67431,38067 67532,38065 C 67533,38065 67533,38065 67534,38065 67535,38065 67536,38065 67536,38065 L 67675,38068 C 67678,38068 67679,38068 67681,38068 L 67808,38076 C 67810,38076 67811,38077 67813,38077 L 67872,38083 C 67873,38084 67875,38084 67877,38084 L 67933,38092 C 67947,38094 67960,38099 67973,38105 Z M 62995,42472 L 62781,42591 C 62780,42592 62779,42592 62778,42593 62777,42593 62777,42594 62776,42594 L 62564,42698 C 62562,42699 62560,42700 62557,42701 L 62347,42789 C 62345,42790 62342,42791 62339,42791 L 62218,42834 62250,43065 62277,43205 62309,43336 62345,43458 62384,43570 62427,43673 62474,43766 62525,43851 62583,43930 62649,44005 62722,44075 62802,44140 62891,44201 62988,44258 63094,44309 63209,44357 63323,44397 63438,44429 63553,44452 63669,44468 63784,44475 63900,44475 64017,44467 64135,44450 64254,44426 64375,44393 64496,44352 64619,44303 64742,44245 64867,44179 64992,44105 65235,43937 65458,43750 65661,43545 65843,43319 66007,43074 66151,42809 66274,42523 66378,42217 66421,42057 66450,41906 66467,41765 66470,41634 66461,41512 66453,41457 66441,41403 66426,41351 66408,41302 66388,41255 66365,41211 66338,41167 66307,41123 66270,41079 66230,41035 66132,40943 66015,40851 65878,40758 65721,40664 65543,40570 65346,40475 65143,40384 65092,40473 C 65091,40475 65090,40476 65088,40478 L 64965,40669 C 64964,40670 64963,40672 64962,40673 L 64822,40863 C 64821,40865 64820,40866 64819,40868 L 64665,41057 C 64664,41059 64663,41060 64662,41061 L 64493,41251 C 64492,41252 64490,41253 64489,41254 L 64306,41443 C 64305,41444 64303,41445 64302,41446 L 64103,41635 C 64103,41636 64102,41637 64101,41638 L 63887,41826 C 63886,41827 63885,41828 63884,41829 L 63663,42010 C 63662,42011 63661,42012 63660,42013 L 63440,42178 C 63439,42179 63438,42180 63437,42181 L 63220,42331 C 63219,42332 63217,42333 63215,42334 L 62999,42469 C 62998,42470 62996,42471 62995,42472 Z M 61224,37371 L 61208,36882 61173,36430 61121,36015 61052,35639 60966,35300 60863,34993 60740,34714 60600,34461 60524,34346 60443,34237 60358,34134 60268,34039 60174,33950 60075,33867 59973,33791 59865,33721 59753,33658 59636,33600 59513,33548 59390,33503 59271,33467 59153,33439 59037,33418 58924,33406 58811,33402 58702,33405 58593,33416 58486,33435 58380,33462 58276,33496 58172,33538 58070,33589 57967,33648 57866,33715 57767,33789 57670,33872 57576,33961 57485,34058 57308,34277 57143,34525 56988,34805 56844,35115 56711,35457 56591,35829 56534,36032 56485,36240 56444,36452 56409,36667 56363,37112 56345,37571 56357,38030 56398,38471 56431,38683 56468,38892 56515,39095 56568,39294 56645,39540 56732,39778 56828,40008 56935,40230 57051,40445 57176,40651 57311,40849 57455,41040 57608,41220 57767,41389 57931,41545 58101,41688 58277,41820 58459,41940 58647,42047 58840,42143 59109,42252 59381,42339 59661,42403 59945,42446 60236,42465 60533,42463 60837,42438 61044,42406 61024,42159 C 61024,42158 61024,42157 61024,42156 L 61009,41821 C 61009,41820 61009,41819 61009,41817 L 61008,41492 C 61008,41491 61008,41489 61008,41488 L 61023,41172 C 61023,41171 61023,41171 61023,41170 L 61171,39061 61224,37896 61224,37371 Z"/>
   </g>
  </g>
 </g>
</svg>