<?xml version="1.0" encoding="UTF-8"?>
<!DOCTYPE svg PUBLIC "-//W3C//DTD SVG 1.1//EN" "http://www.w3.org/Graphics/SVG/1.1/DTD/svg11.dtd">
<svg version="1.2" width="67.59mm" height="22.68mm" viewBox="2728 31951 6759 2268" preserveAspectRatio="xMidYMid" fill-rule="evenodd" stroke-width="28.222" stroke-linejoin="round" xmlns="http://www.w3.org/2000/svg" xmlns:ooo="http://xml.openoffice.org/svg/export" xmlns:xlink="http://www.w3.org/1999/xlink" xmlns:presentation="http://sun.com/xmlns/staroffice/presentation" xmlns:smil="http://www.w3.org/2001/SMIL20/" xmlns:anim="urn:oasis:names:tc:opendocument:xmlns:animation:1.0" xml:space="preserve">
 <defs class="EmbeddedBulletChars">
  <g id="bullet-char-template-57356" transform="scale(0.00048828125,-0.00048828125)">
   <path d="M 580,1141 L 1163,571 580,0 -4,571 580,1141 Z"/>
  </g>
  <g id="bullet-char-template-57354" transform="scale(0.00048828125,-0.00048828125)">
   <path d="M 8,1128 L 1137,1128 1137,0 8,0 8,1128 Z"/>
  </g>
  <g id="bullet-char-template-10146" transform="scale(0.00048828125,-0.00048828125)">
   <path d="M 174,0 L 602,739 174,1481 1456,739 174,0 Z M 1358,739 L 309,1346 659,739 1358,739 Z"/>
  </g>
  <g id="bullet-char-template-10132" transform="scale(0.00048828125,-0.00048828125)">
   <path d="M 2015,739 L 1276,0 717,0 1260,543 174,543 174,936 1260,936 717,1481 1274,1481 2015,739 Z"/>
  </g>
  <g id="bullet-char-template-10007" transform="scale(0.00048828125,-0.00048828125)">
   <path d="M 0,-2 C -7,14 -16,27 -25,37 L 356,567 C 262,823 215,952 215,954 215,979 228,992 255,992 264,992 276,990 289,987 310,991 331,999 354,1012 L 381,999 492,748 772,1049 836,1024 860,1049 C 881,1039 901,1025 922,1006 886,937 835,863 770,784 769,783 710,716 594,584 L 774,223 C 774,196 753,168 711,139 L 727,119 C 717,90 699,76 672,76 641,76 570,178 457,381 L 164,-76 C 142,-110 111,-127 72,-127 30,-127 9,-110 8,-76 1,-67 -2,-52 -2,-32 -2,-23 -1,-13 0,-2 Z"/>
  </g>
  <g id="bullet-char-template-10004" transform="scale(0.00048828125,-0.00048828125)">
   <path d="M 285,-33 C 182,-33 111,30 74,156 52,228 41,333 41,471 41,549 55,616 82,672 116,743 169,778 240,778 293,778 328,747 346,684 L 369,508 C 377,444 397,411 428,410 L 1163,1116 C 1174,1127 1196,1133 1229,1133 1271,1133 1292,1118 1292,1087 L 1292,965 C 1292,929 1282,901 1262,881 L 442,47 C 390,-6 338,-33 285,-33 Z"/>
  </g>
  <g id="bullet-char-template-9679" transform="scale(0.00048828125,-0.00048828125)">
   <path d="M 813,0 C 632,0 489,54 383,161 276,268 223,411 223,592 223,773 276,916 383,1023 489,1130 632,1184 813,1184 992,1184 1136,1130 1245,1023 1353,916 1407,772 1407,592 1407,412 1353,268 1245,161 1136,54 992,0 813,0 Z"/>
  </g>
  <g id="bullet-char-template-8226" transform="scale(0.00048828125,-0.00048828125)">
   <path d="M 346,457 C 273,457 209,483 155,535 101,586 74,649 74,723 74,796 101,859 155,911 209,963 273,989 346,989 419,989 480,963 531,910 582,859 608,796 608,723 608,648 583,586 532,535 482,483 420,457 346,457 Z"/>
  </g>
  <g id="bullet-char-template-8211" transform="scale(0.00048828125,-0.00048828125)">
   <path d="M -4,459 L 1135,459 1135,606 -4,606 -4,459 Z"/>
  </g>
  <g id="bullet-char-template-61548" transform="scale(0.00048828125,-0.00048828125)">
   <path d="M 173,740 C 173,903 231,1043 346,1159 462,1274 601,1332 765,1332 928,1332 1067,1274 1183,1159 1299,1043 1357,903 1357,740 1357,577 1299,437 1183,322 1067,206 928,148 765,148 601,148 462,206 346,322 231,437 173,577 173,740 Z"/>
  </g>
 </defs>
 <g class="Page">
  <g class="com.sun.star.drawing.PolyPolygonShape">
   <g id="id3">
    <rect class="BoundingBox" stroke="none" fill="none" x="2728" y="31951" width="1625" height="2268"/>
    <path fill="rgb(0,0,0)" stroke="none" d="M 3268,33071 L 3097,33928 3087,33982 3079,34025 3075,34058 3074,34070 3074,34080 3074,34089 3075,34098 3076,34107 3078,34116 3080,34126 3083,34135 3086,34145 3090,34155 3059,34170 3028,34182 2999,34193 2970,34202 2941,34209 2913,34214 2886,34217 2860,34218 2852,34218 2845,34217 2838,34216 2832,34215 2826,34213 2821,34211 2816,34208 2812,34205 2808,34202 2805,34198 2802,34193 2800,34189 2798,34184 2797,34178 2796,34172 2796,34166 2796,34158 2797,34146 2802,34114 2820,34012 3008,33071 2989,33071 2961,33072 2932,33074 2903,33078 2873,33084 2843,33092 2812,33101 2780,33112 2748,33124 2778,33064 2792,33039 2806,33016 2819,32996 2832,32980 2844,32966 2850,32960 2856,32955 2862,32950 2868,32946 2875,32942 2882,32938 2890,32935 2898,32932 2916,32926 2935,32922 2957,32919 2979,32918 3004,32917 3038,32917 3187,32175 3159,32175 3093,32177 3031,32184 2972,32196 2916,32212 2864,32233 2839,32245 2815,32258 2792,32272 2770,32288 2749,32305 2729,32323 2742,32276 2757,32233 2775,32194 2795,32159 2805,32143 2817,32129 2828,32115 2841,32102 2854,32090 2867,32079 2881,32070 2896,32061 2908,32055 2923,32050 2940,32045 2960,32041 3009,32033 3069,32026 3222,32018 3419,32015 3745,32015 3920,32011 4079,31999 4153,31990 4223,31979 4289,31966 4352,31951 4332,31983 4313,32013 4293,32040 4273,32063 4253,32085 4232,32103 4212,32118 4201,32125 4191,32131 4169,32142 4144,32151 4116,32159 4085,32165 4051,32170 4015,32173 3976,32176 3934,32176 3825,32175 3446,32175 3298,32917 3565,32917 3626,32916 3684,32913 3740,32908 3793,32901 3843,32892 3890,32881 3935,32869 3977,32854 3961,32887 3946,32918 3929,32945 3913,32969 3895,32989 3886,32999 3877,33007 3868,33014 3859,33021 3849,33027 3840,33033 3829,33037 3818,33042 3792,33049 3761,33056 3725,33061 3685,33066 3640,33069 3536,33071 3268,33071 Z"/>
   </g>
  </g>
  <g class="com.sun.star.drawing.PolyPolygonShape">
   <g id="id4">
    <rect class="BoundingBox" stroke="none" fill="none" x="4231" y="32399" width="2090" height="1484"/>
    <path fill="rgb(0,0,0)" stroke="none" d="M 5603,32937 L 5604,32951 5606,32965 5606,32978 5607,32990 5603,33078 5591,33164 5572,33246 5546,33326 5512,33402 5470,33476 5420,33547 5363,33615 5301,33678 5237,33732 5203,33756 5170,33778 5135,33798 5100,33815 5064,33831 5027,33845 4990,33856 4952,33865 4914,33873 4875,33878 4835,33881 4794,33882 4734,33880 4676,33872 4620,33860 4594,33851 4568,33842 4543,33832 4519,33820 4495,33807 4473,33792 4450,33777 4429,33760 4408,33742 4388,33723 4369,33702 4352,33681 4335,33660 4320,33637 4306,33614 4293,33590 4281,33565 4271,33540 4254,33486 4241,33430 4234,33371 4232,33309 4235,33238 4244,33169 4260,33103 4282,33039 4311,32978 4346,32919 4387,32862 4434,32808 4486,32758 4540,32715 4568,32696 4596,32679 4625,32663 4655,32649 4685,32637 4716,32626 4747,32617 4779,32609 4812,32603 4845,32599 4912,32596 4923,32596 4934,32597 4956,32599 4978,32602 5001,32607 4994,32594 4988,32580 4983,32568 4978,32556 4975,32544 4972,32533 4971,32523 4971,32513 4971,32498 4973,32484 4976,32469 4981,32455 4986,32441 4994,32427 5002,32413 5011,32399 5049,32403 5085,32409 5121,32417 5156,32428 5191,32440 5224,32454 5257,32471 5288,32489 5320,32509 5350,32532 5379,32556 5408,32583 5463,32642 5515,32709 5566,32742 5619,32770 5672,32794 5725,32814 5779,32829 5833,32840 5888,32847 5944,32849 5980,32847 6018,32843 6056,32835 6095,32825 6134,32811 6175,32794 6216,32774 6258,32751 6320,32856 6270,32889 6220,32917 6170,32940 6120,32960 6069,32975 6018,32985 5967,32992 5915,32994 5880,32993 5844,32990 5807,32986 5768,32980 5729,32972 5688,32962 5603,32937 Z M 5321,32832 L 5296,32823 5271,32814 5246,32803 5222,32791 5199,32778 5176,32764 5154,32749 5132,32733 5101,32727 5074,32722 5049,32720 5037,32719 5026,32719 5000,32720 4974,32722 4949,32726 4924,32731 4899,32738 4875,32746 4851,32755 4827,32767 4804,32779 4782,32793 4759,32809 4737,32826 4694,32864 4653,32909 4614,32957 4581,33007 4553,33058 4530,33112 4513,33167 4500,33223 4492,33281 4490,33341 4491,33384 4496,33425 4503,33464 4514,33502 4528,33537 4545,33570 4565,33601 4588,33631 4601,33644 4614,33657 4627,33669 4641,33680 4655,33690 4670,33700 4685,33708 4701,33716 4717,33722 4733,33728 4750,33733 4768,33737 4785,33740 4804,33742 4842,33744 4868,33743 4893,33741 4918,33737 4943,33731 4967,33723 4990,33714 5014,33703 5036,33691 5059,33677 5081,33661 5102,33644 5123,33625 5163,33582 5202,33533 5238,33478 5268,33422 5294,33363 5316,33301 5332,33237 5344,33170 5351,33101 5354,33029 5353,33003 5351,32978 5349,32953 5345,32929 5341,32904 5335,32880 5329,32856 5321,32832 Z"/>
   </g>
  </g>
  <g class="com.sun.star.drawing.PolyPolygonShape">
   <g id="id5">
    <rect class="BoundingBox" stroke="none" fill="none" x="6120" y="32474" width="2249" height="1409"/>
    <path fill="rgb(0,0,0)" stroke="none" d="M 6387,33406 L 6496,33187 6602,32998 6705,32838 6805,32707 6854,32652 6903,32605 6950,32565 6997,32532 7044,32507 7089,32489 7134,32478 7156,32475 7178,32474 7212,32476 7243,32483 7272,32493 7298,32508 7323,32527 7345,32551 7366,32578 7384,32610 7400,32647 7414,32687 7426,32732 7435,32781 7448,32892 7452,33020 7455,33170 7457,33290 7462,33390 7465,33433 7470,33470 7475,33503 7482,33530 7489,33554 7493,33564 7498,33574 7503,33583 7508,33591 7513,33598 7519,33605 7526,33611 7532,33616 7539,33620 7546,33624 7554,33626 7562,33628 7570,33630 7579,33630 7592,33629 7606,33627 7620,33624 7634,33619 7648,33613 7663,33606 7678,33597 7693,33588 7724,33564 7755,33534 7788,33500 7821,33460 7858,33412 7900,33354 8000,33204 8263,32777 8368,32838 8235,33078 8109,33286 7990,33460 7934,33535 7879,33602 7826,33660 7774,33711 7723,33754 7674,33789 7650,33803 7626,33816 7603,33827 7580,33835 7558,33842 7535,33847 7513,33850 7492,33851 7472,33850 7454,33849 7436,33846 7419,33841 7402,33836 7387,33830 7372,33822 7358,33813 7344,33803 7331,33791 7319,33779 7308,33765 7298,33750 7288,33734 7279,33717 7270,33698 7255,33657 7242,33608 7231,33553 7222,33490 7215,33421 7210,33344 7206,33170 7205,33063 7204,32969 7199,32890 7195,32856 7191,32826 7186,32800 7179,32777 7172,32758 7168,32749 7164,32741 7159,32734 7155,32727 7149,32721 7144,32716 7138,32711 7132,32707 7126,32703 7119,32700 7112,32698 7104,32696 7097,32695 7089,32695 7079,32696 7068,32698 7057,32701 7045,32705 7021,32718 6995,32736 6967,32759 6938,32787 6875,32858 6807,32950 6731,33063 6562,33349 6447,33555 6405,33632 6389,33666 6375,33698 6365,33726 6357,33752 6355,33764 6353,33775 6352,33786 6352,33795 6352,33803 6353,33810 6354,33817 6356,33824 6358,33831 6361,33838 6364,33845 6368,33852 6350,33859 6333,33865 6317,33870 6301,33875 6286,33878 6272,33880 6259,33882 6246,33882 6231,33881 6217,33880 6203,33877 6191,33873 6180,33868 6169,33862 6160,33855 6152,33847 6145,33838 6138,33828 6133,33816 6128,33804 6125,33790 6122,33776 6121,33760 6120,33743 6121,33729 6123,33706 6129,33634 6153,33386 6180,33117 6194,32965 6197,32903 6199,32851 6198,32819 6195,32789 6190,32760 6184,32734 6175,32709 6165,32685 6153,32664 6146,32654 6139,32644 6226,32614 6262,32602 6279,32598 6295,32594 6310,32591 6324,32589 6337,32587 6349,32587 6360,32588 6371,32589 6382,32592 6391,32596 6400,32601 6408,32607 6415,32614 6421,32622 6427,32632 6432,32642 6436,32654 6439,32667 6442,32680 6444,32695 6446,32728 6444,32772 6441,32829 6427,32984 6420,33060 6387,33406 Z"/>
   </g>
  </g>
  <g class="com.sun.star.drawing.PolyPolygonShape">
   <g id="id6">
    <rect class="BoundingBox" stroke="none" fill="none" x="7843" y="31955" width="1644" height="1928"/>
    <path fill="rgb(0,0,0)" stroke="none" d="M 8965,33360 L 8972,33375 8979,33389 8985,33403 8990,33417 8993,33430 8996,33443 8997,33455 8998,33466 8997,33482 8995,33497 8991,33513 8985,33529 8978,33545 8969,33561 8959,33578 8947,33594 8918,33628 8883,33663 8841,33699 8793,33735 8742,33769 8692,33799 8644,33825 8597,33845 8550,33861 8505,33873 8461,33880 8440,33881 8419,33882 8400,33881 8382,33880 8365,33877 8348,33874 8331,33869 8315,33863 8299,33857 8284,33849 8269,33840 8254,33830 8240,33819 8226,33807 8213,33794 8200,33780 8176,33749 8154,33715 8135,33678 8119,33639 8106,33597 8096,33553 8088,33507 8084,33458 8083,33407 8084,33346 8090,33278 8100,33204 8113,33124 8152,32946 8205,32743 8262,32535 8053,32535 8021,32536 7991,32537 7962,32540 7935,32544 7910,32550 7886,32556 7864,32563 7844,32572 7878,32513 7894,32488 7909,32466 7924,32447 7937,32431 7950,32418 7957,32413 7962,32408 7969,32404 7975,32400 7982,32397 7990,32394 8007,32388 8026,32383 8047,32380 8070,32377 8095,32376 8122,32375 8310,32375 8334,32289 8349,32243 8364,32201 8380,32163 8397,32128 8414,32097 8432,32070 8451,32046 8461,32036 8471,32026 8481,32018 8492,32010 8503,32002 8515,31995 8528,31989 8541,31983 8570,31973 8601,31965 8635,31959 8670,31956 8709,31955 8720,31955 8733,31956 8769,31957 8744,31991 8720,32030 8695,32074 8670,32124 8619,32239 8568,32375 9223,32375 9264,32374 9304,32372 9340,32369 9374,32364 9406,32358 9435,32350 9462,32341 9486,32330 9477,32361 9469,32388 9459,32413 9449,32435 9439,32455 9433,32463 9427,32471 9422,32478 9416,32485 9409,32491 9403,32496 9396,32501 9389,32505 9381,32509 9372,32513 9352,32520 9329,32525 9304,32530 9276,32533 9245,32534 9211,32535 8514,32535 8496,32596 8430,32836 8383,33044 8367,33137 8355,33221 8348,33298 8346,33367 8346,33402 8349,33435 8353,33465 8358,33493 8366,33519 8375,33543 8385,33564 8397,33583 8411,33600 8426,33615 8443,33627 8462,33637 8482,33645 8504,33651 8528,33654 8553,33655 8566,33655 8580,33654 8607,33649 8635,33642 8664,33632 8694,33620 8723,33604 8754,33586 8785,33564 8816,33541 8844,33518 8869,33493 8893,33468 8914,33442 8933,33415 8950,33388 8965,33360 Z"/>
   </g>
  </g>
 </g>
</svg>