<?xml version="1.0" encoding="UTF-8"?>
<!DOCTYPE svg PUBLIC "-//W3C//DTD SVG 1.1//EN" "http://www.w3.org/Graphics/SVG/1.1/DTD/svg11.dtd">
<svg version="1.2" width="80.01mm" height="80.01mm" viewBox="2001 2001 8001 8001" preserveAspectRatio="xMidYMid" fill-rule="evenodd" stroke-width="28.222" stroke-linejoin="round" xmlns="http://www.w3.org/2000/svg" xmlns:ooo="http://xml.openoffice.org/svg/export" xmlns:xlink="http://www.w3.org/1999/xlink" xmlns:presentation="http://sun.com/xmlns/staroffice/presentation" xmlns:smil="http://www.w3.org/2001/SMIL20/" xmlns:anim="urn:oasis:names:tc:opendocument:xmlns:animation:1.0" xml:space="preserve">
 <defs class="EmbeddedBulletChars">
  <g id="bullet-char-template-57356" transform="scale(0.00048828125,-0.00048828125)">
   <path d="M 580,1141 L 1163,571 580,0 -4,571 580,1141 Z"/>
  </g>
  <g id="bullet-char-template-57354" transform="scale(0.00048828125,-0.00048828125)">
   <path d="M 8,1128 L 1137,1128 1137,0 8,0 8,1128 Z"/>
  </g>
  <g id="bullet-char-template-10146" transform="scale(0.00048828125,-0.00048828125)">
   <path d="M 174,0 L 602,739 174,1481 1456,739 174,0 Z M 1358,739 L 309,1346 659,739 1358,739 Z"/>
  </g>
  <g id="bullet-char-template-10132" transform="scale(0.00048828125,-0.00048828125)">
   <path d="M 2015,739 L 1276,0 717,0 1260,543 174,543 174,936 1260,936 717,1481 1274,1481 2015,739 Z"/>
  </g>
  <g id="bullet-char-template-10007" transform="scale(0.00048828125,-0.00048828125)">
   <path d="M 0,-2 C -7,14 -16,27 -25,37 L 356,567 C 262,823 215,952 215,954 215,979 228,992 255,992 264,992 276,990 289,987 310,991 331,999 354,1012 L 381,999 492,748 772,1049 836,1024 860,1049 C 881,1039 901,1025 922,1006 886,937 835,863 770,784 769,783 710,716 594,584 L 774,223 C 774,196 753,168 711,139 L 727,119 C 717,90 699,76 672,76 641,76 570,178 457,381 L 164,-76 C 142,-110 111,-127 72,-127 30,-127 9,-110 8,-76 1,-67 -2,-52 -2,-32 -2,-23 -1,-13 0,-2 Z"/>
  </g>
  <g id="bullet-char-template-10004" transform="scale(0.00048828125,-0.00048828125)">
   <path d="M 285,-33 C 182,-33 111,30 74,156 52,228 41,333 41,471 41,549 55,616 82,672 116,743 169,778 240,778 293,778 328,747 346,684 L 369,508 C 377,444 397,411 428,410 L 1163,1116 C 1174,1127 1196,1133 1229,1133 1271,1133 1292,1118 1292,1087 L 1292,965 C 1292,929 1282,901 1262,881 L 442,47 C 390,-6 338,-33 285,-33 Z"/>
  </g>
  <g id="bullet-char-template-9679" transform="scale(0.00048828125,-0.00048828125)">
   <path d="M 813,0 C 632,0 489,54 383,161 276,268 223,411 223,592 223,773 276,916 383,1023 489,1130 632,1184 813,1184 992,1184 1136,1130 1245,1023 1353,916 1407,772 1407,592 1407,412 1353,268 1245,161 1136,54 992,0 813,0 Z"/>
  </g>
  <g id="bullet-char-template-8226" transform="scale(0.00048828125,-0.00048828125)">
   <path d="M 346,457 C 273,457 209,483 155,535 101,586 74,649 74,723 74,796 101,859 155,911 209,963 273,989 346,989 419,989 480,963 531,910 582,859 608,796 608,723 608,648 583,586 532,535 482,483 420,457 346,457 Z"/>
  </g>
  <g id="bullet-char-template-8211" transform="scale(0.00048828125,-0.00048828125)">
   <path d="M -4,459 L 1135,459 1135,606 -4,606 -4,459 Z"/>
  </g>
  <g id="bullet-char-template-61548" transform="scale(0.00048828125,-0.00048828125)">
   <path d="M 173,740 C 173,903 231,1043 346,1159 462,1274 601,1332 765,1332 928,1332 1067,1274 1183,1159 1299,1043 1357,903 1357,740 1357,577 1299,437 1183,322 1067,206 928,148 765,148 601,148 462,206 346,322 231,437 173,577 173,740 Z"/>
  </g>
 </defs>
 <g class="Page">
  <g class="com.sun.star.drawing.ClosedBezierShape">
   <g id="id3">
    <rect class="BoundingBox" stroke="none" fill="none" x="2001" y="2001" width="8001" height="8001"/>
    <path fill="rgb(85,197,0)" stroke="none" d="M 3857,5240 L 3864,5163 4296,5226 C 4509,4387 5243,3970 5935,3945 6597,3920 7179,4366 7441,4891 L 7869,4741 7878,4812 7467,4945 C 7490,4995 7509,5045 7526,5095 L 7906,5051 7906,5110 7542,5147 C 7548,5169 7554,5192 7559,5214 7566,5245 7573,5277 7579,5309 L 7937,5371 7929,5435 7588,5359 C 7689,5960 7530,6545 6412,6778 5227,7025 4225,6754 4235,5695 L 3919,5851 3906,5774 4237,5638 C 4237,5636 4237,5634 4237,5632 4240,5579 4244,5528 4250,5478 L 3883,5509 3885,5453 4256,5429 C 4263,5382 4271,5335 4281,5291 L 3857,5240 Z M 5914,3507 C 5322,3499 4817,3720 4418,4065 3281,3681 3652,4086 3792,4841 3504,5355 3362,5941 3394,6455 3475,7794 4187,8741 5878,8741 6743,8741 7444,8511 7908,8057 7964,8169 8037,8280 8126,8358 8336,8541 8566,8715 8902,8753 8638,9031 8335,9271 8000,9464 7392,9815 6703,10000 6001,10000 5298,10000 4609,9815 4001,9464 3393,9113 2888,8608 2537,8000 2186,7392 2001,6703 2001,6001 2001,5298 2186,4609 2537,4001 2888,3393 3393,2888 4001,2537 4609,2186 5298,2001 6000,2001 6703,2001 7392,2186 8000,2537 8608,2888 9113,3393 9464,4001 9815,4609 10000,5298 10000,6000 10000,6660 9837,7309 9526,7889 9310,7696 8868,7806 8794,7811 8710,7817 8619,7716 8466,7524 8409,7453 8393,7386 8393,7290 8533,6895 8577,6421 8508,5870 8454,5431 8197,4821 7738,4331 7726,3761 7759,3405 7610,3346 7463,3287 7156,3550 6880,3714 6595,3588 6273,3511 5914,3507 Z"/>
   </g>
  </g>
 </g>
</svg>