<?xml version="1.0" encoding="UTF-8"?>
<!DOCTYPE svg PUBLIC "-//W3C//DTD SVG 1.1//EN" "http://www.w3.org/Graphics/SVG/1.1/DTD/svg11.dtd">
<svg version="1.2" width="100mm" height="100mm" viewBox="0 0 10000 10000" preserveAspectRatio="xMidYMid" fill-rule="evenodd" stroke-width="28.222" stroke-linejoin="round" xmlns="http://www.w3.org/2000/svg" xmlns:ooo="http://xml.openoffice.org/svg/export" xmlns:xlink="http://www.w3.org/1999/xlink" xmlns:presentation="http://sun.com/xmlns/staroffice/presentation" xmlns:smil="http://www.w3.org/2001/SMIL20/" xmlns:anim="urn:oasis:names:tc:opendocument:xmlns:animation:1.0" xml:space="preserve">
 <defs class="ClipPathGroup">
  <clipPath id="presentation_clip_path" clipPathUnits="userSpaceOnUse">
   <rect x="0" y="0" width="10000" height="10000"/>
  </clipPath>
  <clipPath id="presentation_clip_path_shrink" clipPathUnits="userSpaceOnUse">
   <rect x="10" y="10" width="9980" height="9980"/>
  </clipPath>
 </defs>
 <defs class="TextShapeIndex">
  <g ooo:slide="id1" ooo:id-list="id3 id4 id5 id6 id7 id8 id9 id10"/>
 </defs>
 <defs class="EmbeddedBulletChars">
  <g id="bullet-char-template-57356" transform="scale(0.00048828125,-0.00048828125)">
   <path d="M 580,1141 L 1163,571 580,0 -4,571 580,1141 Z"/>
  </g>
  <g id="bullet-char-template-57354" transform="scale(0.00048828125,-0.00048828125)">
   <path d="M 8,1128 L 1137,1128 1137,0 8,0 8,1128 Z"/>
  </g>
  <g id="bullet-char-template-10146" transform="scale(0.00048828125,-0.00048828125)">
   <path d="M 174,0 L 602,739 174,1481 1456,739 174,0 Z M 1358,739 L 309,1346 659,739 1358,739 Z"/>
  </g>
  <g id="bullet-char-template-10132" transform="scale(0.00048828125,-0.00048828125)">
   <path d="M 2015,739 L 1276,0 717,0 1260,543 174,543 174,936 1260,936 717,1481 1274,1481 2015,739 Z"/>
  </g>
  <g id="bullet-char-template-10007" transform="scale(0.00048828125,-0.00048828125)">
   <path d="M 0,-2 C -7,14 -16,27 -25,37 L 356,567 C 262,823 215,952 215,954 215,979 228,992 255,992 264,992 276,990 289,987 310,991 331,999 354,1012 L 381,999 492,748 772,1049 836,1024 860,1049 C 881,1039 901,1025 922,1006 886,937 835,863 770,784 769,783 710,716 594,584 L 774,223 C 774,196 753,168 711,139 L 727,119 C 717,90 699,76 672,76 641,76 570,178 457,381 L 164,-76 C 142,-110 111,-127 72,-127 30,-127 9,-110 8,-76 1,-67 -2,-52 -2,-32 -2,-23 -1,-13 0,-2 Z"/>
  </g>
  <g id="bullet-char-template-10004" transform="scale(0.00048828125,-0.00048828125)">
   <path d="M 285,-33 C 182,-33 111,30 74,156 52,228 41,333 41,471 41,549 55,616 82,672 116,743 169,778 240,778 293,778 328,747 346,684 L 369,508 C 377,444 397,411 428,410 L 1163,1116 C 1174,1127 1196,1133 1229,1133 1271,1133 1292,1118 1292,1087 L 1292,965 C 1292,929 1282,901 1262,881 L 442,47 C 390,-6 338,-33 285,-33 Z"/>
  </g>
  <g id="bullet-char-template-9679" transform="scale(0.00048828125,-0.00048828125)">
   <path d="M 813,0 C 632,0 489,54 383,161 276,268 223,411 223,592 223,773 276,916 383,1023 489,1130 632,1184 813,1184 992,1184 1136,1130 1245,1023 1353,916 1407,772 1407,592 1407,412 1353,268 1245,161 1136,54 992,0 813,0 Z"/>
  </g>
  <g id="bullet-char-template-8226" transform="scale(0.00048828125,-0.00048828125)">
   <path d="M 346,457 C 273,457 209,483 155,535 101,586 74,649 74,723 74,796 101,859 155,911 209,963 273,989 346,989 419,989 480,963 531,910 582,859 608,796 608,723 608,648 583,586 532,535 482,483 420,457 346,457 Z"/>
  </g>
  <g id="bullet-char-template-8211" transform="scale(0.00048828125,-0.00048828125)">
   <path d="M -4,459 L 1135,459 1135,606 -4,606 -4,459 Z"/>
  </g>
  <g id="bullet-char-template-61548" transform="scale(0.00048828125,-0.00048828125)">
   <path d="M 173,740 C 173,903 231,1043 346,1159 462,1274 601,1332 765,1332 928,1332 1067,1274 1183,1159 1299,1043 1357,903 1357,740 1357,577 1299,437 1183,322 1067,206 928,148 765,148 601,148 462,206 346,322 231,437 173,577 173,740 Z"/>
  </g>
 </defs>
 <g>
  <g id="id2" class="Master_Slide">
   <g id="bg-id2" class="Background"/>
   <g id="bo-id2" class="BackgroundObjects"/>
  </g>
 </g>
 <g class="SlideGroup">
  <g>
   <g id="container-id1">
    <g id="id1" class="Slide" clip-path="url(#presentation_clip_path)">
     <g class="Page">
      <g class="Group">
       <g class="com.sun.star.drawing.ClosedBezierShape">
        <g id="id3">
         <rect class="BoundingBox" stroke="none" fill="none" x="27" y="2336" width="8411" height="6663"/>
         <path fill="rgb(194,185,95)" stroke="none" d="M 8437,2824 C 8437,4719 8437,6615 8437,8511 8437,8553 8431,8592 8421,8632 8420,8632 8420,8633 8420,8635 8400,8709 8362,8778 8308,8835 8225,8929 8104,8991 7969,8995 7968,8995 7967,8995 7967,8995 7962,8997 7956,8997 7951,8997 5472,8997 2992,8997 513,8997 435,8997 363,8978 298,8946 203,8898 125,8821 77,8725 55,8680 39,8630 32,8578 28,8556 27,8533 27,8511 27,6615 27,4719 27,2824 27,2557 246,2337 513,2337 2992,2337 5472,2337 7951,2337 8217,2337 8437,2557 8437,2824 Z"/>
        </g>
       </g>
       <g class="com.sun.star.drawing.ClosedBezierShape">
        <g id="id4">
         <rect class="BoundingBox" stroke="none" fill="none" x="27" y="2336" width="8411" height="6663"/>
         <path fill="rgb(194,185,95)" stroke="none" d="M 8437,2824 C 8437,4719 8437,6615 8437,8511 8437,8553 8431,8592 8421,8632 8420,8632 8420,8633 8420,8635 8400,8709 8362,8778 8308,8835 8225,8929 8104,8991 7969,8995 7968,8995 7967,8995 7967,8995 7962,8997 7956,8997 7951,8997 5472,8997 2992,8997 513,8997 435,8997 363,8978 298,8946 203,8898 125,8821 77,8725 55,8680 39,8630 32,8578 28,8556 27,8533 27,8511 27,6615 27,4719 27,2824 27,2557 246,2337 513,2337 2992,2337 5472,2337 7951,2337 8217,2337 8437,2557 8437,2824 Z"/>
        </g>
       </g>
       <g class="com.sun.star.drawing.ClosedBezierShape">
        <g id="id5">
         <rect class="BoundingBox" stroke="none" fill="none" x="27" y="1098" width="4203" height="2771"/>
         <path fill="rgb(194,185,95)" stroke="none" d="M 4228,3868 C 3037,3868 1845,3868 653,3868 587,3868 525,3860 465,3844 213,3784 27,3599 27,3382 27,2783 27,2184 27,1584 27,1316 310,1098 653,1098 1301,1098 1949,1098 2596,1098 2839,1511 3082,1924 3325,2337 3412,2483 3499,2629 3585,2775 3667,2914 3749,3053 3830,3192 3963,3417 4096,3642 4228,3868 Z"/>
        </g>
       </g>
       <g class="com.sun.star.drawing.ClosedBezierShape">
        <g id="id6">
         <rect class="BoundingBox" stroke="none" fill="none" x="464" y="2774" width="7536" height="5787"/>
         <path fill="rgb(255,255,255)" stroke="none" d="M 464,8510 C 464,6615 464,4719 464,2824 464,2798 487,2775 513,2775 2992,2775 5471,2775 7950,2775 7976,2775 7999,2798 7999,2824 7999,4719 7999,6615 7999,8510 7999,8536 7976,8559 7950,8559 5471,8559 2992,8559 513,8559 487,8559 464,8536 464,8510 Z"/>
        </g>
       </g>
       <g class="com.sun.star.drawing.ClosedBezierShape">
        <g id="id7">
         <rect class="BoundingBox" stroke="none" fill="none" x="0" y="3191" width="10001" height="5834"/>
         <path fill="rgb(207,185,86)" stroke="none" d="M 9973,3615 C 9975,3616 9973,3616 9973,3617 9960,3660 9947,3703 9934,3747 9867,3964 9799,4181 9732,4399 9660,4631 9589,4863 9517,5096 9450,5313 9382,5530 9315,5747 9243,5979 9172,6212 9100,6444 9033,6662 8967,6879 8900,7097 8745,7597 8590,8098 8435,8598 8431,8609 8425,8620 8421,8632 8420,8632 8420,8633 8420,8635 8418,8636 8418,8637 8417,8637 8417,8639 8415,8642 8414,8643 8335,8802 8160,8937 7974,8994 7972,8994 7970,8995 7969,8995 7968,8995 7967,8995 7967,8995 7905,9013 7845,9023 7784,9023 5305,9023 2827,9023 348,9023 103,9023 -40,8863 10,8657 13,8637 20,8618 27,8598 29,8591 30,8585 32,8578 176,8112 321,7646 465,7180 806,6076 1146,4972 1487,3868 1513,3784 1539,3700 1565,3617 1655,3384 1948,3192 2215,3192 4694,3192 7173,3192 9652,3192 9918,3192 10063,3382 9973,3615 Z"/>
        </g>
       </g>
       <g class="com.sun.star.drawing.ClosedBezierShape">
        <g id="id8">
         <rect class="BoundingBox" stroke="none" fill="none" x="5883" y="6444" width="3218" height="654"/>
         <path fill="rgb(251,225,226)" fill-opacity="0.502" stroke="rgb(255,255,255)" stroke-opacity="0.502" d="M 9100,6445 C 9033,6662 8966,6879 8899,7096 7894,7096 6889,7096 5884,7096 5884,6879 5884,6662 5884,6445 6956,6445 8028,6445 9100,6445 Z"/>
        </g>
       </g>
       <g class="com.sun.star.drawing.ClosedBezierShape">
        <g id="id9">
         <rect class="BoundingBox" stroke="none" fill="none" x="6343" y="5095" width="3175" height="654"/>
         <path fill="rgb(251,225,226)" fill-opacity="0.502" stroke="rgb(255,255,255)" stroke-opacity="0.502" d="M 9517,5096 C 9450,5313 9383,5531 9316,5748 8325,5748 7334,5748 6344,5748 6344,5531 6344,5313 6344,5096 7401,5096 8459,5096 9517,5096 Z"/>
        </g>
       </g>
       <g class="com.sun.star.drawing.ClosedBezierShape">
        <g id="id10">
         <rect class="BoundingBox" stroke="none" fill="none" x="1037" y="2336" width="8964" height="6689"/>
         <path fill="rgb(4,0,0)" fill-opacity="0.059" stroke="rgb(255,255,255)" stroke-opacity="0.059" d="M 9973,3615 C 9975,3616 9973,3616 9973,3617 9960,3660 9947,3703 9934,3747 9867,3964 9799,4181 9732,4399 9660,4631 9589,4863 9517,5096 9450,5313 9382,5530 9315,5747 9243,5979 9172,6212 9100,6444 9033,6662 8967,6879 8900,7097 8745,7597 8590,8098 8435,8598 8431,8609 8425,8620 8421,8632 8420,8632 8420,8633 8420,8635 8418,8636 8418,8637 8417,8637 8417,8639 8415,8642 8414,8643 8394,8715 8358,8781 8308,8835 8225,8928 8107,8987 7975,8994 7972,8994 7970,8995 7969,8995 7968,8995 7967,8995 7967,8995 7906,9013 7845,9023 7784,9023 5535,9023 3286,9023 1037,9023 1046,9015 1054,9006 1063,8997 1209,8851 1355,8705 1501,8559 3290,6770 5080,4981 6869,3192 7008,3053 7147,2914 7286,2775 7432,2629 7578,2483 7724,2337 7799,2337 7875,2337 7951,2337 8217,2337 8437,2557 8437,2824 8437,2946 8437,3069 8437,3192 8842,3192 9247,3192 9652,3192 9918,3192 10063,3382 9973,3615 Z"/>
        </g>
       </g>
      </g>
     </g>
    </g>
   </g>
  </g>
 </g>
</svg>