<svg xmlns="http://www.w3.org/2000/svg" width="263.931" height="200.171" viewBox="0 0 197.948 150.128"><g stroke-width=".996" stroke-linecap="round" stroke-miterlimit="10" fill="none" stroke="#000"><path d="M19.274 146.795v-7.97M35.214 146.795v-7.97M59.125 146.795v-7.97M83.035 146.795v-7.97M114.916 146.795v-7.97M130.857 146.795v-7.97M146.797 146.795v-7.97M170.708 146.795v-7.97M186.648 146.795v-7.97M19.274 138.825h7.97M43.184 138.825h7.97M67.095 138.825h7.97M98.976 138.825h7.97M146.797 138.825h7.97M154.767 138.825h7.97M170.708 138.825h7.97M11.303 138.825v-7.97M27.244 138.825v-7.97M35.214 138.825v-7.97M51.154 138.825v-7.97M59.125 138.825v-7.97M75.065 138.825v-7.97M83.035 138.825v-7.97M91.006 138.825v-7.97M106.946 138.825v-7.97M114.916 138.825v-7.97M122.886 138.825v-7.97M138.827 138.825v-7.97M146.797 138.825v-7.97M178.678 138.825v-7.97M186.648 138.825v-7.97M11.303 130.854h7.97M35.214 130.854h7.97M59.125 130.854h7.97M83.035 130.854h7.97M91.006 130.854h7.97M122.886 130.854h7.97M130.857 130.854h7.97M154.767 130.854h7.97M162.738 130.854h7.97M11.303 130.854v-7.97M19.274 130.854v-7.97M27.244 130.854v-7.97M43.184 130.854v-7.97M51.154 130.854v-7.97M59.125 130.854v-7.97M75.065 130.854v-7.97M83.035 130.854v-7.97M98.976 130.854v-7.97M106.946 130.854v-7.97M114.916 130.854v-7.97M138.827 130.854v-7.97M154.767 130.854v-7.97M170.708 130.854v-7.97M178.678 130.854v-7.97M27.244 122.884h7.97M114.916 122.884h7.97M122.886 122.884h7.97M138.827 122.884h7.97M178.678 122.884h7.97M19.274 122.884v-7.97M35.214 122.884v-7.97M51.154 122.884v-7.97M67.095 122.884v-7.97M75.065 122.884v-7.97M83.035 122.884v-7.97M91.006 122.884v-7.97M98.976 122.884v-7.97M106.946 122.884v-7.97M114.916 122.884v-7.97M130.857 122.884v-7.97M146.797 122.884v-7.97M154.767 122.884v-7.97M162.738 122.884v-7.97M170.708 122.884v-7.97M3.333 114.914h7.97M11.303 114.914h7.97M35.214 114.914h7.97M51.154 114.914h7.97M59.125 114.914h7.97M122.886 114.914h7.97M170.708 114.914h7.97M178.678 114.914h7.97M19.274 114.914v-7.97M27.244 114.914v-7.97M35.214 114.914v-7.97M43.184 114.914v-7.97M51.154 114.914v-7.97M67.095 114.914v-7.97M75.065 114.914v-7.97M83.035 114.914v-7.97M91.006 114.914v-7.97M106.946 114.914v-7.97M114.916 114.914v-7.97M130.857 114.914v-7.97M138.827 114.914v-7.97M146.797 114.914v-7.97M154.767 114.914v-7.97M162.738 114.914v-7.97M186.648 114.914v-7.97M19.274 106.944h7.97M59.125 106.944h7.97M91.006 106.944h7.97M98.976 106.944h7.97M114.916 106.944h7.97M162.738 106.944h7.97M170.708 106.944h7.97M11.303 106.944v-7.97M27.244 106.944v-7.97M35.214 106.944v-7.97M43.184 106.944v-7.97M51.154 106.944v-7.97M59.125 106.944v-7.97M75.065 106.944v-7.97M83.035 106.944v-7.97M98.976 106.944v-7.97M106.946 106.944v-7.97M114.916 106.944v-7.97M122.886 106.944v-7.97M130.857 106.944v-7.97M138.827 106.944v-7.97M146.797 106.944v-7.97M154.767 106.944v-7.97M178.678 106.944v-7.97M186.648 106.944v-7.97M11.303 98.973h7.97M67.095 98.973h7.97M83.035 98.973h7.97M154.767 98.973h7.97M162.738 98.973h7.97M170.708 98.973h7.97M186.648 98.973h7.97M19.274 98.973v-7.97M27.244 98.973v-7.97M35.214 98.973v-7.97M51.154 98.973v-7.97M59.125 98.973v-7.97M67.095 98.973v-7.97M83.035 98.973v-7.97M98.976 98.973v-7.97M106.946 98.973v-7.97M114.916 98.973v-7.97M138.827 98.973v-7.97M146.797 98.973v-7.97M154.767 98.973v-7.97M178.678 98.973v-7.97M3.333 91.003h7.97M35.214 91.003h7.97M75.065 91.003h7.97M91.006 91.003h7.97M114.916 91.003h7.97M122.886 91.003h7.97M130.857 91.003h7.97M162.738 91.003h7.97M178.678 91.003h7.97M19.274 91.003v-7.97M27.244 91.003v-7.97M35.214 91.003v-7.97M43.184 91.003v-7.97M59.125 91.003v-7.97M67.095 91.003v-7.97M75.065 91.003v-7.97M98.976 91.003v-7.97M114.916 91.003v-7.97M146.797 91.003v-7.97M154.767 91.003v-7.97M170.708 91.003v-7.97M3.333 83.033h7.97M51.154 83.033h7.97M75.065 83.033h7.97M83.035 83.033h7.97M98.976 83.033h7.97M106.946 83.033h7.97M122.886 83.033h7.97M130.857 83.033h7.97M138.827 83.033h7.97M154.767 83.033h7.97M162.738 83.033h7.97M170.708 83.033h7.97M186.648 83.033h7.97M19.274 83.033v-7.97M27.244 83.033v-7.97M35.214 83.033v-7.97M43.184 83.033v-7.97M51.154 83.033v-7.97M59.125 83.033v-7.97M67.095 83.033v-7.97M98.976 83.033v-7.97M114.916 83.033v-7.97M138.827 83.033v-7.97M154.767 83.033v-7.97M170.708 83.033v-7.97M11.303 75.063h7.97M75.065 75.063h7.97M83.035 75.063h7.97M91.006 75.063h7.97M114.916 75.063h7.97M146.797 75.063h7.97M170.708 75.063h7.97M178.678 75.063h7.97M19.274 75.063v-7.97M35.214 75.063v-7.97M43.184 75.063v-7.97M51.154 75.063v-7.97M59.125 75.063v-7.97M67.095 75.063v-7.97M91.006 75.063v-7.97M98.976 75.063v-7.97M106.946 75.063v-7.97M130.857 75.063v-7.97M138.827 75.063v-7.97M146.797 75.063v-7.97M162.738 75.063v-7.97M170.708 75.063v-7.97M186.648 75.063v-7.97M3.333 67.093h7.97M19.274 67.093h7.97M75.065 67.093h7.97M114.916 67.093h7.97M122.886 67.093h7.97M130.857 67.093h7.97M154.767 67.093h7.97M11.303 67.093v-7.97M27.244 67.093v-7.97M43.184 67.093v-7.97M51.154 67.093v-7.97M59.125 67.093v-7.97M67.095 67.093v-7.97M83.035 67.093v-7.97M91.006 67.093v-7.97M98.976 67.093v-7.97M106.946 67.093v-7.97M114.916 67.093v-7.97M130.857 67.093v-7.97M146.797 67.093v-7.97M162.738 67.093v-7.97M170.708 67.093v-7.97M178.678 67.093v-7.97M186.648 67.093v-7.97M27.244 59.122h7.97M35.214 59.122h7.97M138.827 59.122h7.97M154.767 59.122h7.97M11.303 59.122v-7.97M19.274 59.122v-7.97M43.184 59.122v-7.97M51.154 59.122v-7.97M59.125 59.122v-7.97M67.095 59.122v-7.97M75.065 59.122v-7.97M83.035 59.122v-7.97M91.006 59.122v-7.97M98.976 59.122v-7.97M106.946 59.122v-7.97M114.916 59.122v-7.97M122.886 59.122v-7.97M146.797 59.122v-7.97M154.767 59.122v-7.97M170.708 59.122v-7.97M178.678 59.122v-7.97M19.274 51.152h7.97M35.214 51.152h7.97M122.886 51.152h7.97M130.857 51.152h7.97M138.827 51.152h7.97M162.738 51.152h7.97M178.678 51.152h7.97M186.648 51.152h7.97M11.303 51.152v-7.97M19.274 51.152v-7.97M51.154 51.152v-7.97M59.125 51.152v-7.97M67.095 51.152v-7.97M75.065 51.152v-7.97M83.035 51.152v-7.97M91.006 51.152v-7.97M106.946 51.152v-7.97M114.916 51.152v-7.97M130.857 51.152v-7.97M154.767 51.152v-7.97M162.738 51.152v-7.97M170.708 51.152v-7.97M19.274 43.182h7.97M27.244 43.182h7.97M35.214 43.182h7.97M43.184 43.182h7.97M98.976 43.182h7.97M114.916 43.182h7.97M130.857 43.182h7.97M138.827 43.182h7.97M170.708 43.182h7.97M178.678 43.182h7.97M11.303 43.182v-7.97M19.274 43.182v-7.97M51.154 43.182v-7.97M67.095 43.182v-7.97M75.065 43.182v-7.97M83.035 43.182v-7.97M91.006 43.182v-7.97M106.946 43.182v-7.97M122.886 43.182v-7.97M138.827 43.182v-7.97M154.767 43.182v-7.97M162.738 43.182v-7.97M27.244 35.212h7.97M35.214 35.212h7.97M51.154 35.212h7.97M59.125 35.212h7.97M91.006 35.212h7.97M106.946 35.212h7.97M146.797 35.212h7.97M170.708 35.212h7.97M186.648 35.212h7.97M19.274 35.212v-7.97M27.244 35.212v-7.97M43.184 35.212v-7.97M51.154 35.212v-7.97M67.095 35.212v-7.97M75.065 35.212v-7.97M83.035 35.212v-7.97M98.976 35.212v-7.97M114.916 35.212v-7.97M122.886 35.212v-7.97M130.857 35.212v-7.97M146.797 35.212v-7.97M162.738 35.212v-7.97M178.678 35.212v-7.97M186.648 35.212v-7.97M3.333 27.242h7.97M11.303 27.242h7.97M91.006 27.242h7.97M98.976 27.242h7.97M130.857 27.242h7.97M138.827 27.242h7.97M146.797 27.242h7.97M162.738 27.242h7.97M19.274 27.242v-7.97M27.244 27.242v-7.97M35.214 27.242v-7.97M43.184 27.242v-7.97M51.154 27.242v-7.97M59.125 27.242v-7.97M75.065 27.242v-7.97M83.035 27.242v-7.97M106.946 27.242v-7.97M114.916 27.242v-7.97M122.886 27.242v-7.97M154.767 27.242v-7.97M178.678 27.242v-7.97M186.648 27.242v-7.97M43.184 19.271h7.97M59.125 19.271h7.97M67.095 19.271h7.97M91.006 19.271h7.97M122.886 19.271h7.97M130.857 19.271h7.97M138.827 19.271h7.97M154.767 19.271h7.97M162.738 19.271h7.97M170.708 19.271h7.97M11.303 19.271v-7.97M27.244 19.271v-7.97M35.214 19.271v-7.97M51.154 19.271v-7.97M59.125 19.271v-7.97M67.095 19.271v-7.97M83.035 19.271v-7.97M91.006 19.271v-7.97M106.946 19.271v-7.97M114.916 19.271v-7.97M122.886 19.271v-7.97M146.797 19.271v-7.97M154.767 19.271v-7.97M178.678 19.271v-7.97M186.648 19.271v-7.97M11.303 11.301h7.97M19.274 11.301h7.97M35.214 11.301h7.97M75.065 11.301h7.97M98.976 11.301h7.97M130.857 11.301h7.97M162.738 11.301h7.97M35.214 11.301v-7.97M59.125 11.301v-7.97M75.065 11.301v-7.97M91.006 11.301v-7.97M114.916 11.301v-7.97M130.857 11.301v-7.97M146.797 11.301v-7.97M162.738 11.301v-7.97M178.678 11.301v-7.97M3.333 3.33h191.285M3.333 146.795h191.285M3.333 146.795V11.3M194.618 138.825V3.33"/></g></svg>