<?xml version="1.0" encoding="UTF-8"?>
<!DOCTYPE svg PUBLIC "-//W3C//DTD SVG 1.1//EN" "http://www.w3.org/Graphics/SVG/1.1/DTD/svg11.dtd">
<svg version="1.2" width="84.27mm" height="73.28mm" viewBox="3287 9287 8427 7328" preserveAspectRatio="xMidYMid" fill-rule="evenodd" stroke-width="28.222" stroke-linejoin="round" xmlns="http://www.w3.org/2000/svg" xmlns:ooo="http://xml.openoffice.org/svg/export" xmlns:xlink="http://www.w3.org/1999/xlink" xmlns:presentation="http://sun.com/xmlns/staroffice/presentation" xmlns:smil="http://www.w3.org/2001/SMIL20/" xmlns:anim="urn:oasis:names:tc:opendocument:xmlns:animation:1.0" xml:space="preserve">
 <defs class="EmbeddedBulletChars">
  <g id="bullet-char-template-57356" transform="scale(0.00048828125,-0.00048828125)">
   <path d="M 580,1141 L 1163,571 580,0 -4,571 580,1141 Z"/>
  </g>
  <g id="bullet-char-template-57354" transform="scale(0.00048828125,-0.00048828125)">
   <path d="M 8,1128 L 1137,1128 1137,0 8,0 8,1128 Z"/>
  </g>
  <g id="bullet-char-template-10146" transform="scale(0.00048828125,-0.00048828125)">
   <path d="M 174,0 L 602,739 174,1481 1456,739 174,0 Z M 1358,739 L 309,1346 659,739 1358,739 Z"/>
  </g>
  <g id="bullet-char-template-10132" transform="scale(0.00048828125,-0.00048828125)">
   <path d="M 2015,739 L 1276,0 717,0 1260,543 174,543 174,936 1260,936 717,1481 1274,1481 2015,739 Z"/>
  </g>
  <g id="bullet-char-template-10007" transform="scale(0.00048828125,-0.00048828125)">
   <path d="M 0,-2 C -7,14 -16,27 -25,37 L 356,567 C 262,823 215,952 215,954 215,979 228,992 255,992 264,992 276,990 289,987 310,991 331,999 354,1012 L 381,999 492,748 772,1049 836,1024 860,1049 C 881,1039 901,1025 922,1006 886,937 835,863 770,784 769,783 710,716 594,584 L 774,223 C 774,196 753,168 711,139 L 727,119 C 717,90 699,76 672,76 641,76 570,178 457,381 L 164,-76 C 142,-110 111,-127 72,-127 30,-127 9,-110 8,-76 1,-67 -2,-52 -2,-32 -2,-23 -1,-13 0,-2 Z"/>
  </g>
  <g id="bullet-char-template-10004" transform="scale(0.00048828125,-0.00048828125)">
   <path d="M 285,-33 C 182,-33 111,30 74,156 52,228 41,333 41,471 41,549 55,616 82,672 116,743 169,778 240,778 293,778 328,747 346,684 L 369,508 C 377,444 397,411 428,410 L 1163,1116 C 1174,1127 1196,1133 1229,1133 1271,1133 1292,1118 1292,1087 L 1292,965 C 1292,929 1282,901 1262,881 L 442,47 C 390,-6 338,-33 285,-33 Z"/>
  </g>
  <g id="bullet-char-template-9679" transform="scale(0.00048828125,-0.00048828125)">
   <path d="M 813,0 C 632,0 489,54 383,161 276,268 223,411 223,592 223,773 276,916 383,1023 489,1130 632,1184 813,1184 992,1184 1136,1130 1245,1023 1353,916 1407,772 1407,592 1407,412 1353,268 1245,161 1136,54 992,0 813,0 Z"/>
  </g>
  <g id="bullet-char-template-8226" transform="scale(0.00048828125,-0.00048828125)">
   <path d="M 346,457 C 273,457 209,483 155,535 101,586 74,649 74,723 74,796 101,859 155,911 209,963 273,989 346,989 419,989 480,963 531,910 582,859 608,796 608,723 608,648 583,586 532,535 482,483 420,457 346,457 Z"/>
  </g>
  <g id="bullet-char-template-8211" transform="scale(0.00048828125,-0.00048828125)">
   <path d="M -4,459 L 1135,459 1135,606 -4,606 -4,459 Z"/>
  </g>
  <g id="bullet-char-template-61548" transform="scale(0.00048828125,-0.00048828125)">
   <path d="M 173,740 C 173,903 231,1043 346,1159 462,1274 601,1332 765,1332 928,1332 1067,1274 1183,1159 1299,1043 1357,903 1357,740 1357,577 1299,437 1183,322 1067,206 928,148 765,148 601,148 462,206 346,322 231,437 173,577 173,740 Z"/>
  </g>
 </defs>
 <g class="Page">
  <g class="Group">
   <g class="com.sun.star.drawing.PolyPolygonShape">
    <g id="id3">
     <rect class="BoundingBox" stroke="none" fill="none" x="4487" y="9287" width="2828" height="828"/>
     <path fill="rgb(255,255,255)" stroke="none" d="M 4900,9300 L 4901,9300 4874,9301 4848,9303 4822,9308 4797,9314 4772,9321 4747,9330 4723,9341 4700,9354 4678,9368 4657,9383 4636,9399 4617,9417 4599,9436 4583,9457 4568,9478 4554,9500 4541,9523 4530,9547 4521,9572 4514,9597 4508,9622 4503,9648 4501,9674 4500,9701 4500,9700 4500,9701 4501,9727 4503,9753 4508,9779 4514,9804 4521,9829 4530,9854 4541,9878 4554,9901 4568,9923 4583,9944 4599,9965 4617,9984 4636,10002 4657,10018 4678,10033 4700,10047 4723,10060 4747,10071 4772,10080 4797,10087 4822,10093 4848,10098 4874,10100 4901,10101 6900,10101 6901,10101 6927,10100 6953,10098 6979,10093 7004,10087 7029,10080 7054,10071 7078,10060 7101,10047 7123,10033 7144,10018 7165,10002 7184,9984 7202,9965 7218,9944 7233,9923 7247,9901 7260,9878 7271,9854 7280,9829 7287,9804 7293,9779 7298,9753 7300,9727 7301,9701 7300,9700 7301,9701 7301,9701 7300,9674 7298,9648 7293,9622 7287,9597 7280,9572 7271,9547 7260,9523 7247,9500 7233,9478 7218,9457 7202,9436 7184,9417 7165,9399 7144,9383 7123,9368 7101,9354 7078,9341 7054,9330 7029,9321 7004,9314 6979,9308 6953,9303 6927,9301 6901,9300 4900,9300 Z"/>
     <path fill="none" stroke="rgb(0,0,0)" stroke-width="25" stroke-linejoin="round" d="M 4900,9300 L 4901,9300 4874,9301 4848,9303 4822,9308 4797,9314 4772,9321 4747,9330 4723,9341 4700,9354 4678,9368 4657,9383 4636,9399 4617,9417 4599,9436 4583,9457 4568,9478 4554,9500 4541,9523 4530,9547 4521,9572 4514,9597 4508,9622 4503,9648 4501,9674 4500,9701 4500,9700 4500,9701 4501,9727 4503,9753 4508,9779 4514,9804 4521,9829 4530,9854 4541,9878 4554,9901 4568,9923 4583,9944 4599,9965 4617,9984 4636,10002 4657,10018 4678,10033 4700,10047 4723,10060 4747,10071 4772,10080 4797,10087 4822,10093 4848,10098 4874,10100 4901,10101 6900,10101 6901,10101 6927,10100 6953,10098 6979,10093 7004,10087 7029,10080 7054,10071 7078,10060 7101,10047 7123,10033 7144,10018 7165,10002 7184,9984 7202,9965 7218,9944 7233,9923 7247,9901 7260,9878 7271,9854 7280,9829 7287,9804 7293,9779 7298,9753 7300,9727 7301,9701 7300,9700 7301,9701 7301,9701 7300,9674 7298,9648 7293,9622 7287,9597 7280,9572 7271,9547 7260,9523 7247,9500 7233,9478 7218,9457 7202,9436 7184,9417 7165,9399 7144,9383 7123,9368 7101,9354 7078,9341 7054,9330 7029,9321 7004,9314 6979,9308 6953,9303 6927,9301 6901,9300 4900,9300 Z"/>
    </g>
   </g>
   <g class="com.sun.star.drawing.PolyPolygonShape">
    <g id="id4">
     <rect class="BoundingBox" stroke="none" fill="none" x="5616" y="9556" width="260" height="276"/>
     <path fill="rgb(0,0,0)" stroke="none" d="M 5705,9578 L 5646,9578 5646,9599 5705,9599 5705,9578 Z M 5646,9642 L 5705,9642 5705,9619 5646,9619 5646,9642 Z M 5732,9663 L 5646,9663 5646,9831 5617,9831 5617,9557 5732,9557 5732,9663 Z M 5725,9734 L 5762,9734 5762,9704 5725,9704 5725,9734 Z M 5827,9758 L 5788,9758 5788,9825 5762,9825 5762,9758 5725,9758 5724,9762 5723,9767 5722,9771 5721,9775 5720,9780 5718,9785 5716,9789 5714,9794 5713,9797 5711,9799 5710,9802 5709,9804 5707,9806 5705,9809 5702,9814 5700,9816 5697,9818 5695,9820 5693,9822 5691,9824 5689,9826 5686,9828 5684,9830 5682,9828 5680,9825 5678,9823 5675,9821 5672,9818 5670,9816 5667,9814 5665,9812 5667,9811 5669,9810 5671,9808 5673,9807 5674,9805 5676,9804 5678,9802 5680,9801 5683,9797 5684,9795 5685,9794 5687,9792 5688,9790 5689,9788 5690,9786 5692,9783 5693,9779 5695,9775 5696,9772 5697,9768 5698,9765 5699,9761 5699,9758 5664,9758 5664,9734 5700,9734 5700,9704 5669,9704 5669,9681 5821,9681 5821,9704 5788,9704 5788,9734 5827,9734 5827,9758 Z M 5784,9642 L 5846,9642 5846,9619 5784,9619 5784,9642 Z M 5846,9578 L 5784,9578 5784,9599 5846,9599 5846,9578 Z M 5875,9557 L 5875,9795 5875,9798 5875,9801 5874,9803 5874,9806 5874,9808 5873,9810 5873,9812 5872,9814 5871,9816 5870,9817 5869,9819 5868,9820 5866,9821 5865,9822 5863,9823 5861,9824 5860,9825 5858,9826 5856,9826 5853,9827 5851,9828 5848,9828 5843,9829 5837,9829 5829,9829 5821,9830 5812,9830 5812,9826 5811,9823 5810,9819 5809,9815 5808,9811 5806,9807 5805,9804 5804,9802 5803,9801 5840,9801 5841,9801 5842,9801 5842,9801 5843,9801 5844,9800 5844,9800 5844,9800 5844,9800 5845,9800 5845,9800 5845,9799 5845,9799 5845,9799 5845,9799 5845,9799 5846,9798 5846,9798 5846,9798 5846,9798 5846,9797 5846,9796 5846,9795 5846,9794 5846,9664 5757,9664 5757,9557 5875,9557 Z"/>
    </g>
   </g>
   <g class="com.sun.star.drawing.PolyPolygonShape">
    <g id="id5">
     <rect class="BoundingBox" stroke="none" fill="none" x="5921" y="9543" width="292" height="290"/>
     <path fill="rgb(0,0,0)" stroke="none" d="M 6042,9677 L 6039,9649 6064,9647 6069,9635 6074,9623 6083,9595 6091,9568 6094,9555 6097,9544 6129,9550 6110,9604 6101,9626 6093,9645 6164,9642 6158,9632 6152,9622 6146,9613 6139,9603 6162,9592 6170,9602 6178,9613 6185,9624 6192,9635 6198,9646 6204,9657 6208,9666 6210,9671 6211,9675 6186,9689 6185,9684 6183,9679 6180,9673 6178,9667 6103,9672 6042,9677 Z M 6010,9634 L 5975,9634 5957,9707 5975,9718 5982,9723 5989,9728 5992,9718 5996,9707 5999,9696 6002,9685 6004,9673 6006,9660 6010,9634 Z M 6022,9606 L 6039,9609 6035,9649 6033,9668 6029,9685 6026,9701 6022,9717 6017,9732 6012,9745 6023,9755 6033,9764 6041,9771 6044,9775 6046,9778 6029,9801 6024,9795 6017,9788 6009,9780 5999,9771 5993,9780 5987,9789 5981,9798 5973,9805 5966,9813 5958,9819 5950,9825 5941,9831 5936,9824 5931,9817 5929,9814 5927,9812 5925,9810 5923,9808 5931,9803 5938,9798 5946,9792 5953,9785 5959,9778 5966,9770 5971,9762 5977,9753 5971,9749 5965,9744 5950,9734 5947,9746 5923,9734 5948,9634 5922,9634 5922,9607 5954,9607 5966,9544 5994,9547 5981,9607 6017,9607 6022,9606 Z M 6165,9730 L 6087,9730 6087,9791 6165,9791 6165,9730 Z M 6060,9830 L 6060,9703 6194,9703 6194,9829 6165,9829 6165,9817 6087,9817 6087,9830 6060,9830 Z"/>
    </g>
   </g>
  </g>
  <g class="Group">
   <g class="com.sun.star.drawing.PolyPolygonShape">
    <g id="id6">
     <rect class="BoundingBox" stroke="none" fill="none" x="4187" y="10487" width="3427" height="827"/>
     <path fill="rgb(255,255,255)" stroke="none" d="M 4200,11300 L 4200,10500 7600,10500 7600,11300 4200,11300 Z"/>
     <path fill="none" stroke="rgb(0,0,0)" stroke-width="25" stroke-linejoin="round" d="M 4200,11300 L 4200,10500 7600,10500 7600,11300 4200,11300 Z"/>
    </g>
   </g>
   <g class="com.sun.star.drawing.PolyPolygonShape">
    <g id="id7">
     <rect class="BoundingBox" stroke="none" fill="none" x="5298" y="10757" width="260" height="274"/>
     <path fill="rgb(0,0,0)" stroke="none" d="M 5445,10852 L 5421,10861 5420,10858 5420,10855 5418,10849 5416,10842 5413,10834 5410,10826 5407,10819 5403,10811 5400,10804 5423,10796 5426,10803 5430,10810 5434,10818 5437,10825 5440,10833 5442,10840 5444,10846 5445,10849 5445,10852 Z M 5392,10858 L 5368,10868 5367,10863 5364,10856 5361,10850 5358,10842 5354,10835 5350,10828 5346,10821 5342,10814 5364,10805 5368,10812 5373,10819 5377,10826 5381,10833 5385,10840 5388,10846 5390,10852 5391,10855 5392,10858 Z M 5482,10805 L 5510,10812 5504,10826 5498,10839 5491,10852 5484,10865 5476,10877 5468,10888 5459,10900 5450,10910 5468,10921 5484,10931 5498,10941 5504,10946 5510,10951 5492,10973 5486,10968 5480,10963 5466,10953 5450,10942 5431,10930 5422,10938 5413,10945 5404,10952 5395,10959 5385,10965 5375,10971 5365,10977 5355,10982 5353,10980 5351,10977 5349,10974 5346,10970 5343,10967 5340,10964 5338,10961 5336,10959 5345,10955 5355,10950 5364,10945 5373,10940 5381,10934 5390,10928 5398,10922 5406,10916 5390,10908 5376,10901 5361,10894 5348,10888 5363,10869 5379,10875 5394,10882 5410,10889 5425,10897 5434,10887 5442,10877 5450,10866 5458,10855 5465,10843 5471,10831 5477,10818 5482,10805 Z M 5327,10988 L 5527,10988 5527,10785 5327,10785 5327,10988 Z M 5298,10758 L 5557,10758 5557,11030 5527,11030 5527,11015 5327,11015 5327,11030 5298,11030 5298,10758 Z"/>
    </g>
   </g>
   <g class="com.sun.star.drawing.PolyPolygonShape">
    <g id="id8">
     <rect class="BoundingBox" stroke="none" fill="none" x="5615" y="10754" width="253" height="269"/>
     <path fill="rgb(0,0,0)" stroke="none" d="M 5736,10757 L 5734,10766 5732,10775 5730,10783 5728,10791 5753,10790 5777,10788 5799,10785 5819,10782 5819,10811 5796,10814 5771,10816 5745,10818 5717,10819 5711,10830 5705,10841 5699,10851 5693,10860 5695,10859 5697,10858 5699,10857 5701,10856 5704,10856 5706,10855 5712,10853 5717,10852 5723,10851 5728,10851 5730,10851 5733,10851 5736,10851 5740,10851 5743,10852 5747,10853 5750,10854 5753,10855 5756,10856 5759,10858 5762,10859 5764,10861 5766,10864 5769,10866 5770,10869 5772,10871 5773,10874 5775,10877 5801,10866 5824,10855 5854,10841 5867,10870 5860,10872 5852,10875 5844,10878 5835,10881 5777,10906 5777,10934 5778,10964 5748,10964 5750,10920 5739,10925 5735,10928 5731,10931 5727,10934 5723,10937 5720,10940 5717,10943 5714,10945 5712,10948 5710,10951 5709,10954 5708,10956 5707,10957 5707,10959 5706,10960 5706,10962 5706,10964 5706,10965 5706,10967 5706,10968 5706,10970 5706,10971 5706,10973 5707,10974 5707,10975 5708,10977 5708,10978 5709,10979 5710,10980 5710,10981 5711,10982 5712,10983 5713,10984 5714,10984 5715,10985 5716,10986 5717,10986 5718,10987 5720,10988 5721,10988 5723,10989 5724,10989 5726,10990 5729,10990 5733,10991 5736,10992 5740,10992 5744,10992 5748,10992 5758,10993 5768,10992 5778,10992 5789,10991 5800,10990 5823,10988 5834,10986 5844,10984 5843,11016 5821,11018 5799,11020 5778,11021 5757,11021 5750,11021 5743,11021 5736,11021 5730,11020 5724,11019 5719,11018 5713,11017 5708,11015 5705,11014 5702,11013 5700,11012 5698,11011 5696,11010 5694,11009 5692,11007 5690,11006 5688,11005 5686,11003 5685,11001 5683,11000 5682,10998 5681,10996 5679,10994 5678,10992 5677,10990 5676,10987 5676,10985 5675,10983 5675,10980 5674,10977 5674,10975 5674,10972 5674,10969 5674,10966 5675,10964 5675,10961 5676,10958 5676,10956 5677,10953 5678,10951 5679,10948 5681,10946 5682,10943 5683,10941 5685,10939 5686,10936 5688,10934 5689,10932 5693,10928 5697,10924 5701,10920 5706,10916 5711,10912 5716,10909 5721,10906 5726,10903 5731,10900 5736,10897 5748,10891 5747,10889 5746,10887 5745,10885 5744,10884 5742,10882 5741,10881 5740,10880 5738,10879 5736,10878 5734,10877 5733,10877 5731,10876 5729,10876 5726,10875 5724,10875 5722,10875 5719,10875 5715,10876 5712,10876 5708,10877 5705,10878 5701,10879 5698,10880 5695,10881 5691,10883 5688,10885 5685,10887 5682,10889 5679,10891 5676,10893 5673,10895 5670,10898 5668,10900 5666,10902 5663,10905 5661,10908 5652,10918 5642,10931 5615,10911 5627,10900 5638,10888 5648,10877 5657,10865 5665,10854 5673,10843 5680,10831 5686,10820 5676,10820 5624,10818 5624,10789 5636,10790 5649,10791 5663,10792 5678,10792 5697,10792 5699,10782 5700,10778 5701,10773 5702,10768 5703,10764 5703,10759 5704,10755 5736,10757 Z"/>
    </g>
   </g>
   <g class="com.sun.star.drawing.PolyPolygonShape">
    <g id="id9">
     <rect class="BoundingBox" stroke="none" fill="none" x="5915" y="10744" width="288" height="287"/>
     <path fill="rgb(0,0,0)" stroke="none" d="M 6011,10878 L 6015,10904 5982,10915 5982,10995 5982,10998 5982,11000 5981,11003 5981,11005 5981,11007 5980,11009 5980,11011 5979,11012 5978,11014 5978,11015 5977,11016 5976,11018 5975,11019 5973,11020 5972,11021 5970,11022 5969,11023 5967,11023 5966,11024 5964,11025 5962,11025 5960,11026 5958,11026 5955,11026 5950,11027 5944,11027 5938,11027 5930,11027 5930,11026 5930,11025 5929,11021 5928,11018 5927,11014 5926,11010 5925,11007 5923,11003 5922,11001 5950,11001 5950,11001 5951,11001 5952,11001 5952,11001 5952,11000 5953,11000 5953,11000 5953,11000 5953,11000 5953,11000 5954,11000 5954,11000 5954,10999 5954,10999 5954,10999 5954,10999 5954,10999 5954,10998 5955,10998 5955,10997 5955,10997 5955,10996 5955,10995 5955,10923 5922,10933 5916,10905 5955,10894 5955,10832 5920,10832 5920,10805 5955,10805 5955,10744 5982,10744 5982,10805 6012,10805 6012,10832 5982,10832 5982,10886 6011,10878 Z M 6097,10888 L 6057,10888 6057,10926 6097,10926 6097,10888 Z M 6164,10926 L 6164,10888 6123,10888 6123,10926 6164,10926 Z M 6123,10988 L 6164,10988 6164,10950 6123,10950 6123,10988 Z M 6057,10950 L 6057,10988 6097,10988 6097,10950 6057,10950 Z M 6030,11029 L 6030,10863 6192,10863 6192,11028 6164,11028 6164,11014 6057,11014 6057,11029 6030,11029 Z M 6164,10786 L 6202,10786 6202,10813 6164,10813 6164,10851 6135,10851 6135,10813 6086,10813 6086,10851 6058,10851 6058,10813 6018,10813 6018,10786 6058,10786 6058,10744 6086,10744 6086,10786 6135,10786 6135,10744 6164,10744 6164,10786 Z"/>
    </g>
   </g>
   <g class="com.sun.star.drawing.PolyPolygonShape">
    <g id="id10">
     <rect class="BoundingBox" stroke="none" fill="none" x="6283" y="10751" width="172" height="279"/>
     <path fill="rgb(0,0,0)" stroke="none" d="M 6447,10778 L 6433,10789 6426,10795 6424,10797 6424,10797 6423,10797 6423,10797 6381,10831 6337,10868 6333,10871 6331,10873 6330,10874 6328,10876 6328,10876 6327,10877 6327,10878 6326,10878 6326,10879 6325,10880 6325,10881 6325,10881 6324,10882 6324,10883 6324,10883 6324,10884 6324,10884 6324,10885 6324,10885 6324,10886 6324,10887 6324,10887 6324,10888 6325,10889 6325,10889 6325,10890 6326,10891 6326,10891 6327,10892 6327,10893 6328,10894 6329,10894 6330,10896 6338,10903 6340,10904 6343,10907 6356,10918 6381,10939 6405,10959 6432,10982 6453,11002 6425,11028 6401,11003 6385,10988 6364,10968 6305,10917 6300,10913 6295,10908 6293,10906 6291,10904 6290,10902 6288,10900 6287,10898 6286,10896 6285,10894 6285,10892 6284,10890 6284,10888 6284,10887 6284,10885 6284,10883 6284,10881 6285,10879 6286,10877 6287,10875 6288,10873 6289,10871 6290,10870 6292,10868 6293,10866 6297,10862 6302,10857 6307,10852 6328,10835 6354,10814 6378,10794 6389,10784 6394,10779 6398,10775 6405,10768 6411,10761 6415,10756 6417,10754 6418,10752 6447,10778 Z"/>
    </g>
   </g>
  </g>
  <g class="Group">
   <g class="com.sun.star.drawing.PolyPolygonShape">
    <g id="id11">
     <rect class="BoundingBox" stroke="none" fill="none" x="3287" y="11687" width="5228" height="1627"/>
     <path fill="rgb(255,255,255)" stroke="none" d="M 5900,11700 L 8501,12500 5900,13300 3300,12500 5900,11700 5900,11700 Z"/>
     <path fill="none" stroke="rgb(0,0,0)" stroke-width="25" stroke-linejoin="round" d="M 5900,11700 L 8501,12500 5900,13300 3300,12500 5900,11700 5900,11700 Z"/>
    </g>
   </g>
   <g class="com.sun.star.drawing.PolyPolygonShape">
    <g id="id12">
     <rect class="BoundingBox" stroke="none" fill="none" x="4353" y="12382" width="231" height="235"/>
     <path fill="rgb(0,0,0)" stroke="none" d="M 4582,12398 L 4582,12400 4581,12402 4580,12406 4578,12411 4577,12417 4570,12444 4561,12473 4558,12481 4554,12489 4551,12497 4547,12504 4543,12512 4539,12519 4535,12525 4530,12531 4518,12546 4506,12559 4492,12571 4477,12582 4460,12592 4443,12601 4425,12609 4406,12616 4379,12586 4390,12584 4401,12580 4411,12577 4420,12573 4430,12569 4438,12565 4446,12561 4454,12556 4461,12551 4468,12546 4474,12541 4480,12536 4485,12530 4491,12525 4496,12519 4501,12512 4505,12507 4509,12502 4512,12497 4515,12491 4518,12485 4521,12479 4524,12473 4527,12466 4531,12453 4535,12441 4538,12428 4539,12422 4540,12416 4387,12416 4353,12418 4353,12383 4362,12384 4371,12385 4379,12385 4387,12385 4538,12385 4544,12385 4549,12385 4552,12384 4554,12384 4556,12383 4558,12383 4582,12398 Z"/>
    </g>
   </g>
   <g class="com.sun.star.drawing.PolyPolygonShape">
    <g id="id13">
     <rect class="BoundingBox" stroke="none" fill="none" x="4679" y="12414" width="220" height="216"/>
     <path fill="rgb(0,0,0)" stroke="none" d="M 4834,12415 L 4834,12417 4834,12419 4834,12424 4833,12430 4833,12438 4833,12448 4834,12461 4875,12461 4881,12460 4887,12460 4893,12460 4898,12459 4898,12489 4876,12489 4834,12489 4836,12605 4836,12607 4836,12610 4835,12611 4835,12612 4835,12614 4834,12615 4834,12616 4833,12617 4833,12618 4832,12619 4831,12620 4831,12621 4830,12621 4829,12622 4828,12623 4827,12624 4826,12624 4825,12625 4823,12626 4820,12627 4818,12628 4815,12628 4813,12629 4810,12629 4799,12629 4788,12628 4763,12627 4761,12599 4771,12600 4781,12601 4790,12601 4798,12602 4799,12602 4800,12601 4801,12601 4802,12601 4803,12601 4803,12600 4804,12600 4805,12599 4805,12599 4805,12598 4806,12597 4806,12596 4806,12595 4806,12594 4806,12593 4807,12592 4806,12516 4802,12521 4797,12527 4792,12533 4786,12539 4774,12550 4760,12563 4745,12575 4730,12585 4715,12595 4701,12604 4679,12579 4687,12575 4696,12571 4704,12566 4712,12561 4728,12550 4744,12538 4759,12525 4772,12513 4777,12507 4783,12501 4788,12495 4792,12489 4715,12489 4690,12490 4690,12459 4695,12460 4701,12460 4708,12460 4715,12461 4805,12461 4804,12438 4804,12431 4803,12425 4803,12420 4802,12415 4834,12415 Z"/>
    </g>
   </g>
   <g class="com.sun.star.drawing.PolyPolygonShape">
    <g id="id14">
     <rect class="BoundingBox" stroke="none" fill="none" x="4985" y="12373" width="252" height="243"/>
     <path fill="rgb(0,0,0)" stroke="none" d="M 5018,12373 L 5027,12380 5037,12387 5060,12405 5072,12415 5082,12424 5091,12432 5098,12438 5073,12464 5066,12457 5057,12448 5036,12429 5024,12420 5014,12411 5004,12404 4995,12398 5018,12373 Z M 4986,12582 L 5003,12579 5019,12576 5035,12571 5051,12566 5066,12560 5081,12554 5095,12546 5109,12538 5118,12533 5126,12527 5135,12520 5143,12514 5151,12507 5158,12500 5166,12492 5173,12484 5187,12469 5193,12461 5198,12453 5204,12445 5208,12437 5213,12429 5217,12421 5236,12455 5231,12463 5226,12471 5221,12478 5216,12486 5204,12501 5190,12516 5183,12523 5176,12531 5168,12537 5160,12544 5152,12550 5144,12556 5135,12562 5126,12568 5112,12576 5097,12584 5083,12591 5068,12597 5053,12602 5037,12607 5022,12611 5007,12614 4986,12582 Z"/>
    </g>
   </g>
   <g class="com.sun.star.drawing.PolyPolygonShape">
    <g id="id15">
     <rect class="BoundingBox" stroke="none" fill="none" x="5367" y="12361" width="170" height="257"/>
     <path fill="rgb(0,0,0)" stroke="none" d="M 5370,12577 L 5370,12397 5370,12388 5369,12379 5369,12370 5367,12362 5406,12362 5404,12382 5404,12390 5404,12397 5404,12445 5420,12450 5437,12456 5474,12469 5508,12483 5523,12489 5536,12495 5522,12529 5509,12523 5496,12517 5482,12510 5466,12504 5404,12481 5404,12577 5404,12588 5404,12598 5405,12608 5406,12617 5368,12617 5369,12607 5370,12598 5370,12587 5370,12577 Z"/>
    </g>
   </g>
   <g class="com.sun.star.drawing.PolyPolygonShape">
    <g id="id16">
     <rect class="BoundingBox" stroke="none" fill="none" x="5621" y="12363" width="267" height="258"/>
     <path fill="rgb(0,0,0)" stroke="none" d="M 5731,12567 L 5731,12568 5731,12569 5732,12571 5732,12572 5732,12573 5733,12574 5733,12575 5734,12576 5734,12577 5735,12578 5736,12579 5737,12580 5737,12581 5738,12581 5740,12582 5741,12583 5743,12584 5746,12585 5749,12586 5752,12587 5755,12588 5758,12588 5762,12588 5766,12588 5770,12588 5773,12588 5777,12587 5780,12586 5781,12586 5783,12585 5784,12585 5785,12584 5786,12583 5787,12582 5788,12582 5789,12581 5790,12580 5791,12579 5791,12577 5792,12576 5793,12575 5793,12574 5794,12571 5795,12568 5795,12564 5796,12561 5796,12557 5796,12549 5792,12548 5789,12547 5785,12546 5781,12545 5778,12545 5774,12545 5771,12544 5767,12544 5763,12544 5759,12545 5756,12545 5753,12546 5749,12547 5747,12548 5744,12549 5741,12551 5739,12552 5738,12553 5737,12554 5736,12555 5735,12556 5734,12557 5734,12558 5733,12559 5733,12560 5732,12561 5732,12562 5732,12563 5731,12564 5731,12565 5731,12567 Z M 5825,12364 L 5824,12368 5824,12373 5823,12378 5823,12383 5822,12418 5835,12417 5848,12416 5861,12414 5874,12411 5874,12442 5846,12445 5834,12447 5822,12448 5824,12498 5825,12522 5825,12528 5825,12531 5833,12534 5841,12538 5848,12542 5856,12547 5864,12552 5871,12558 5879,12564 5887,12571 5870,12597 5858,12587 5847,12577 5837,12569 5827,12563 5827,12564 5827,12569 5826,12573 5826,12577 5825,12581 5825,12583 5824,12585 5823,12586 5823,12588 5822,12590 5821,12592 5820,12594 5819,12595 5818,12597 5817,12599 5816,12600 5815,12602 5813,12603 5812,12605 5810,12606 5809,12607 5807,12608 5805,12609 5803,12610 5801,12611 5799,12612 5797,12613 5795,12614 5792,12615 5790,12615 5787,12616 5784,12617 5782,12617 5779,12617 5776,12617 5770,12618 5762,12617 5755,12617 5748,12616 5742,12615 5736,12613 5730,12611 5725,12608 5723,12607 5721,12605 5718,12604 5716,12602 5715,12600 5713,12598 5711,12596 5710,12594 5708,12592 5707,12590 5706,12588 5705,12586 5705,12583 5704,12581 5704,12578 5703,12576 5703,12573 5703,12570 5703,12567 5703,12565 5704,12562 5704,12560 5705,12557 5705,12555 5706,12553 5707,12550 5709,12548 5710,12546 5711,12544 5713,12542 5715,12540 5717,12538 5721,12534 5723,12533 5726,12531 5731,12528 5736,12526 5742,12524 5748,12522 5755,12521 5762,12520 5769,12520 5776,12520 5782,12521 5789,12521 5795,12522 5791,12449 5765,12450 5754,12450 5741,12449 5712,12448 5712,12418 5726,12419 5739,12420 5753,12421 5766,12421 5791,12420 5791,12384 5791,12379 5791,12375 5790,12369 5790,12364 5825,12364 Z M 5672,12366 L 5670,12372 5669,12377 5667,12383 5665,12390 5663,12403 5661,12417 5655,12452 5653,12471 5652,12487 5651,12502 5650,12514 5650,12523 5651,12531 5652,12539 5653,12547 5655,12540 5659,12531 5669,12508 5684,12520 5670,12563 5665,12579 5662,12591 5661,12595 5661,12598 5661,12602 5661,12605 5661,12606 5661,12607 5661,12609 5661,12613 5661,12615 5661,12616 5661,12617 5634,12619 5631,12609 5628,12597 5626,12586 5625,12574 5623,12561 5622,12548 5621,12520 5622,12502 5623,12484 5625,12465 5627,12447 5629,12429 5631,12414 5634,12400 5635,12392 5635,12390 5635,12390 5635,12389 5635,12389 5637,12373 5638,12367 5638,12363 5672,12366 Z"/>
    </g>
   </g>
   <g class="com.sun.star.drawing.PolyPolygonShape">
    <g id="id17">
     <rect class="BoundingBox" stroke="none" fill="none" x="5926" y="12365" width="281" height="254"/>
     <path fill="rgb(0,0,0)" stroke="none" d="M 6090,12589 L 6206,12589 6206,12617 5927,12617 5927,12589 5967,12589 5967,12447 5997,12447 5997,12589 6059,12589 6059,12394 5938,12394 5938,12365 6196,12365 6196,12394 6090,12394 6090,12470 6183,12470 6183,12498 6090,12498 6090,12589 Z"/>
    </g>
   </g>
   <g class="com.sun.star.drawing.PolyPolygonShape">
    <g id="id18">
     <rect class="BoundingBox" stroke="none" fill="none" x="6299" y="12360" width="214" height="265"/>
     <path fill="rgb(0,0,0)" stroke="none" d="M 6339,12361 L 6338,12370 6337,12379 6336,12388 6336,12397 6333,12471 6332,12547 6332,12550 6332,12552 6333,12555 6333,12558 6334,12560 6334,12563 6335,12565 6336,12567 6337,12569 6338,12571 6339,12573 6340,12575 6341,12577 6343,12578 6344,12580 6346,12581 6347,12582 6349,12584 6351,12585 6353,12586 6355,12586 6357,12587 6359,12588 6361,12589 6363,12589 6365,12590 6367,12590 6369,12590 6372,12591 6374,12591 6380,12591 6387,12591 6395,12590 6403,12589 6406,12588 6410,12587 6417,12585 6423,12583 6430,12581 6432,12579 6435,12578 6441,12575 6446,12571 6452,12568 6457,12564 6462,12559 6466,12555 6471,12551 6475,12546 6478,12542 6482,12537 6486,12532 6489,12527 6511,12554 6508,12559 6504,12563 6500,12568 6497,12572 6492,12577 6487,12581 6482,12586 6476,12591 6470,12596 6463,12600 6457,12604 6450,12608 6446,12609 6443,12611 6435,12614 6427,12617 6418,12619 6408,12621 6399,12622 6389,12623 6379,12624 6370,12623 6366,12623 6362,12623 6358,12622 6354,12621 6350,12620 6346,12620 6343,12618 6340,12617 6336,12616 6333,12614 6330,12613 6327,12611 6324,12609 6322,12607 6319,12605 6317,12602 6314,12600 6312,12597 6310,12594 6308,12591 6307,12588 6305,12585 6304,12581 6303,12577 6302,12573 6301,12569 6301,12565 6300,12561 6300,12556 6300,12551 6301,12469 6303,12397 6303,12387 6302,12378 6301,12369 6299,12361 6339,12361 Z"/>
    </g>
   </g>
   <g class="com.sun.star.drawing.PolyPolygonShape">
    <g id="id19">
     <rect class="BoundingBox" stroke="none" fill="none" x="6585" y="12385" width="256" height="227"/>
     <path fill="rgb(0,0,0)" stroke="none" d="M 6624,12386 L 6622,12403 6621,12413 6621,12416 6621,12420 6621,12439 6621,12457 6622,12474 6623,12490 6624,12502 6626,12513 6628,12524 6630,12533 6632,12537 6633,12542 6634,12546 6636,12549 6638,12553 6639,12556 6641,12559 6643,12562 6645,12564 6647,12566 6648,12567 6649,12568 6650,12569 6652,12569 6653,12570 6654,12571 6655,12571 6656,12571 6657,12572 6659,12572 6660,12572 6661,12572 6662,12572 6663,12572 6663,12572 6664,12572 6665,12572 6665,12571 6666,12571 6667,12571 6668,12570 6670,12569 6671,12568 6672,12566 6674,12565 6675,12563 6677,12562 6678,12560 6679,12558 6680,12556 6683,12551 6685,12547 6687,12542 6689,12537 6691,12531 6693,12526 6695,12521 6696,12515 6698,12510 6722,12539 6718,12551 6713,12562 6708,12572 6705,12577 6703,12581 6700,12585 6698,12588 6695,12592 6693,12595 6690,12597 6688,12600 6685,12602 6683,12604 6680,12605 6677,12607 6675,12608 6672,12609 6669,12609 6666,12610 6664,12610 6661,12610 6658,12610 6656,12610 6654,12610 6651,12609 6649,12609 6647,12608 6644,12608 6642,12607 6640,12606 6638,12605 6636,12603 6634,12602 6631,12600 6629,12598 6627,12597 6625,12595 6623,12592 6621,12590 6619,12588 6617,12585 6616,12582 6614,12579 6612,12576 6611,12573 6609,12570 6607,12567 6604,12559 6602,12551 6599,12541 6597,12532 6595,12521 6593,12510 6592,12498 6590,12481 6589,12462 6589,12440 6588,12415 6588,12406 6588,12398 6587,12391 6586,12388 6586,12385 6624,12386 Z M 6784,12394 L 6789,12401 6794,12408 6799,12416 6803,12425 6808,12435 6812,12445 6820,12466 6828,12489 6833,12511 6835,12522 6837,12532 6839,12542 6840,12552 6807,12564 6806,12550 6804,12536 6801,12522 6798,12508 6794,12493 6790,12479 6785,12465 6780,12450 6773,12437 6770,12431 6767,12425 6763,12419 6760,12414 6756,12409 6753,12404 6784,12394 Z"/>
    </g>
   </g>
   <g class="com.sun.star.drawing.PolyPolygonShape">
    <g id="id20">
     <rect class="BoundingBox" stroke="none" fill="none" x="6888" y="12357" width="284" height="262"/>
     <path fill="rgb(0,0,0)" stroke="none" d="M 7007,12361 L 7003,12383 6995,12422 7013,12420 7021,12420 7026,12420 7031,12420 7035,12420 7040,12421 7044,12421 7045,12422 7047,12422 7049,12423 7051,12424 7053,12424 7055,12425 7056,12426 7058,12427 7060,12428 7061,12429 7063,12430 7064,12431 7066,12433 7067,12434 7068,12436 7069,12437 7071,12439 7072,12440 7073,12442 7074,12444 7075,12446 7075,12448 7076,12451 7077,12453 7077,12456 7078,12458 7078,12461 7079,12464 7079,12467 7079,12470 7079,12476 7079,12492 7078,12507 7077,12523 7075,12539 7073,12554 7071,12561 7070,12567 7068,12573 7066,12579 7064,12584 7062,12589 7060,12593 7058,12596 7056,12599 7053,12602 7051,12604 7048,12607 7046,12609 7043,12610 7040,12612 7037,12613 7033,12614 7030,12615 7026,12615 7022,12616 7018,12616 7014,12616 7004,12616 6995,12615 6986,12614 6977,12612 6971,12579 6976,12581 6981,12582 6986,12583 6992,12584 6997,12585 7002,12585 7006,12585 7010,12586 7012,12586 7014,12585 7016,12585 7018,12585 7020,12584 7022,12584 7023,12583 7025,12582 7026,12582 7027,12582 7028,12580 7029,12579 7031,12578 7032,12576 7033,12575 7034,12573 7035,12571 7037,12567 7038,12563 7040,12559 7041,12554 7043,12543 7045,12531 7047,12518 7048,12505 7049,12492 7049,12479 7049,12475 7049,12472 7049,12470 7048,12468 7048,12466 7048,12465 7047,12463 7046,12462 7046,12460 7045,12459 7044,12457 7043,12456 7043,12455 7042,12454 7040,12453 7039,12453 7038,12452 7037,12451 7036,12451 7035,12450 7033,12450 7032,12449 7031,12449 7029,12449 7028,12448 7025,12448 7021,12448 7017,12448 7011,12448 7005,12448 6997,12449 6989,12450 6978,12489 6964,12531 6960,12543 6955,12554 6950,12566 6945,12577 6940,12588 6935,12598 6930,12608 6924,12617 6892,12605 6897,12597 6903,12588 6908,12579 6914,12570 6919,12560 6923,12549 6928,12539 6932,12528 6946,12489 6957,12453 6922,12457 6892,12461 6888,12428 6894,12428 6901,12428 6919,12428 6926,12427 6935,12427 6963,12424 6967,12405 6969,12388 6970,12372 6970,12364 6970,12357 7007,12361 Z M 7115,12392 L 7118,12397 7122,12403 7129,12415 7137,12429 7145,12446 7153,12463 7160,12479 7166,12493 7171,12506 7140,12520 7136,12506 7130,12491 7124,12475 7117,12458 7109,12442 7101,12428 7097,12421 7093,12415 7090,12410 7086,12405 7115,12392 Z"/>
    </g>
   </g>
   <g class="com.sun.star.drawing.PolyPolygonShape">
    <g id="id21">
     <rect class="BoundingBox" stroke="none" fill="none" x="7262" y="12368" width="157" height="241"/>
     <path fill="rgb(0,0,0)" stroke="none" d="M 7320,12528 L 7320,12526 7319,12523 7319,12521 7319,12518 7320,12516 7320,12513 7320,12511 7321,12509 7321,12506 7322,12504 7323,12502 7324,12500 7325,12498 7326,12496 7327,12494 7329,12493 7331,12489 7334,12486 7338,12482 7341,12479 7344,12476 7348,12473 7351,12470 7355,12467 7368,12456 7370,12455 7371,12453 7372,12452 7374,12451 7375,12449 7376,12448 7377,12446 7378,12445 7379,12443 7380,12441 7381,12440 7381,12438 7382,12436 7382,12435 7382,12433 7382,12432 7382,12428 7382,12426 7381,12424 7381,12422 7380,12421 7380,12419 7379,12418 7378,12416 7378,12415 7377,12413 7376,12412 7375,12411 7373,12409 7372,12408 7371,12407 7369,12406 7368,12405 7366,12404 7364,12403 7361,12401 7357,12400 7353,12399 7348,12398 7343,12398 7338,12398 7334,12398 7331,12398 7327,12399 7323,12400 7320,12400 7316,12402 7313,12403 7309,12404 7306,12406 7303,12408 7296,12413 7290,12418 7283,12424 7263,12405 7271,12397 7280,12389 7285,12386 7289,12383 7294,12380 7299,12377 7304,12375 7309,12373 7314,12372 7320,12370 7325,12369 7331,12369 7336,12368 7342,12368 7348,12368 7353,12368 7358,12369 7363,12370 7368,12371 7373,12372 7377,12373 7381,12375 7385,12377 7389,12379 7393,12381 7396,12384 7399,12387 7402,12389 7405,12393 7408,12396 7410,12399 7412,12403 7413,12407 7415,12411 7416,12415 7417,12419 7417,12424 7417,12428 7417,12431 7417,12433 7417,12435 7416,12438 7416,12440 7415,12442 7414,12444 7413,12446 7412,12448 7411,12450 7410,12452 7409,12454 7407,12456 7406,12457 7405,12459 7403,12461 7400,12464 7396,12467 7393,12470 7389,12473 7375,12485 7371,12487 7368,12490 7365,12493 7362,12497 7361,12498 7359,12500 7358,12501 7357,12503 7356,12505 7355,12507 7354,12509 7353,12511 7353,12513 7352,12515 7352,12517 7352,12519 7351,12521 7351,12524 7352,12526 7352,12528 7320,12528 Z M 7336,12608 L 7334,12608 7331,12607 7329,12607 7328,12607 7327,12606 7326,12606 7325,12605 7324,12605 7323,12604 7322,12603 7321,12603 7320,12601 7318,12599 7317,12599 7317,12598 7316,12597 7316,12596 7315,12595 7315,12594 7314,12591 7314,12589 7313,12587 7313,12584 7313,12582 7314,12579 7314,12577 7315,12575 7315,12574 7316,12573 7316,12572 7317,12571 7318,12570 7318,12569 7320,12567 7321,12565 7322,12565 7323,12564 7324,12564 7325,12563 7326,12562 7327,12562 7328,12562 7329,12561 7331,12561 7334,12560 7336,12560 7339,12560 7341,12561 7343,12561 7344,12562 7345,12562 7346,12562 7347,12563 7348,12564 7349,12564 7351,12565 7353,12567 7355,12569 7355,12570 7356,12571 7356,12572 7357,12573 7358,12574 7358,12575 7358,12576 7359,12577 7359,12579 7360,12582 7360,12584 7360,12587 7359,12589 7359,12591 7358,12592 7358,12594 7358,12595 7357,12596 7356,12597 7356,12598 7355,12599 7355,12599 7353,12601 7351,12603 7349,12604 7348,12605 7347,12605 7346,12606 7345,12606 7344,12607 7343,12607 7341,12607 7339,12608 7336,12608 Z"/>
    </g>
   </g>
  </g>
  <g class="Group">
   <g class="com.sun.star.drawing.PolyPolygonShape">
    <g id="id22">
     <rect class="BoundingBox" stroke="none" fill="none" x="8487" y="12887" width="3227" height="827"/>
     <path fill="rgb(255,255,255)" stroke="none" d="M 8500,13700 L 8500,12900 11700,12900 11700,13700 8500,13700 Z"/>
     <path fill="none" stroke="rgb(0,0,0)" stroke-width="25" stroke-linejoin="round" d="M 8500,13700 L 8500,12900 11700,12900 11700,13700 8500,13700 Z"/>
    </g>
   </g>
   <g class="com.sun.star.drawing.PolyPolygonShape">
    <g id="id23">
     <rect class="BoundingBox" stroke="none" fill="none" x="9034" y="13182" width="231" height="235"/>
     <path fill="rgb(0,0,0)" stroke="none" d="M 9263,13198 L 9263,13200 9262,13202 9261,13206 9259,13211 9258,13217 9251,13244 9242,13273 9239,13281 9235,13289 9232,13297 9228,13304 9224,13312 9220,13319 9216,13325 9211,13331 9199,13346 9187,13359 9173,13371 9158,13382 9141,13392 9124,13401 9106,13409 9087,13416 9060,13386 9071,13384 9082,13380 9092,13377 9101,13373 9111,13369 9119,13365 9127,13361 9135,13356 9142,13351 9149,13346 9155,13341 9161,13336 9166,13330 9172,13325 9177,13319 9182,13312 9186,13307 9190,13302 9193,13297 9196,13291 9199,13285 9202,13279 9205,13273 9208,13266 9212,13253 9216,13241 9219,13228 9220,13222 9221,13216 9068,13216 9034,13218 9034,13183 9043,13184 9052,13185 9060,13185 9068,13185 9219,13185 9225,13185 9230,13185 9233,13184 9235,13184 9237,13183 9239,13183 9263,13198 Z"/>
    </g>
   </g>
   <g class="com.sun.star.drawing.PolyPolygonShape">
    <g id="id24">
     <rect class="BoundingBox" stroke="none" fill="none" x="9360" y="13214" width="220" height="216"/>
     <path fill="rgb(0,0,0)" stroke="none" d="M 9515,13215 L 9515,13217 9515,13219 9515,13224 9514,13230 9514,13238 9514,13248 9515,13261 9556,13261 9562,13260 9568,13260 9574,13260 9579,13259 9579,13289 9557,13289 9515,13289 9517,13405 9517,13407 9517,13410 9516,13411 9516,13412 9516,13414 9515,13415 9515,13416 9514,13417 9514,13418 9513,13419 9512,13420 9512,13421 9511,13421 9510,13422 9509,13423 9508,13424 9507,13424 9506,13425 9504,13426 9501,13427 9499,13428 9496,13428 9494,13429 9491,13429 9480,13429 9469,13428 9444,13427 9442,13399 9452,13400 9462,13401 9471,13401 9479,13402 9480,13402 9481,13401 9482,13401 9483,13401 9484,13401 9484,13400 9485,13400 9486,13399 9486,13399 9486,13398 9487,13397 9487,13396 9487,13395 9487,13394 9487,13393 9488,13392 9487,13316 9483,13321 9478,13327 9473,13333 9467,13339 9455,13350 9441,13363 9426,13375 9411,13385 9396,13395 9382,13404 9360,13379 9368,13375 9377,13371 9385,13366 9393,13361 9409,13350 9425,13338 9440,13325 9453,13313 9458,13307 9464,13301 9469,13295 9473,13289 9396,13289 9371,13290 9371,13259 9376,13260 9382,13260 9389,13260 9396,13261 9486,13261 9485,13238 9485,13231 9484,13225 9484,13220 9483,13215 9515,13215 Z"/>
    </g>
   </g>
   <g class="com.sun.star.drawing.PolyPolygonShape">
    <g id="id25">
     <rect class="BoundingBox" stroke="none" fill="none" x="9666" y="13173" width="252" height="243"/>
     <path fill="rgb(0,0,0)" stroke="none" d="M 9699,13173 L 9708,13180 9718,13187 9741,13205 9753,13215 9763,13224 9772,13232 9779,13238 9754,13264 9747,13257 9738,13248 9717,13229 9705,13220 9695,13211 9685,13204 9676,13198 9699,13173 Z M 9667,13382 L 9684,13379 9700,13376 9716,13371 9732,13366 9747,13360 9762,13354 9776,13346 9790,13338 9799,13333 9807,13327 9816,13320 9824,13314 9832,13307 9839,13300 9847,13292 9854,13284 9868,13269 9874,13261 9879,13253 9885,13245 9889,13237 9894,13229 9898,13221 9917,13255 9912,13263 9907,13271 9902,13278 9897,13286 9885,13301 9871,13316 9864,13323 9857,13331 9849,13337 9841,13344 9833,13350 9825,13356 9816,13362 9807,13368 9793,13376 9778,13384 9764,13391 9749,13397 9734,13402 9718,13407 9703,13411 9688,13414 9667,13382 Z"/>
    </g>
   </g>
   <g class="com.sun.star.drawing.PolyPolygonShape">
    <g id="id26">
     <rect class="BoundingBox" stroke="none" fill="none" x="10048" y="13161" width="170" height="257"/>
     <path fill="rgb(0,0,0)" stroke="none" d="M 10051,13377 L 10051,13197 10051,13188 10050,13179 10050,13170 10048,13162 10087,13162 10085,13182 10085,13190 10085,13197 10085,13245 10101,13250 10118,13256 10155,13269 10189,13283 10204,13289 10217,13295 10203,13329 10190,13323 10177,13317 10163,13310 10147,13304 10085,13281 10085,13377 10085,13388 10085,13398 10086,13408 10087,13417 10049,13417 10050,13407 10051,13398 10051,13387 10051,13377 Z"/>
    </g>
   </g>
   <g class="com.sun.star.drawing.PolyPolygonShape">
    <g id="id27">
     <rect class="BoundingBox" stroke="none" fill="none" x="10295" y="13154" width="253" height="269"/>
     <path fill="rgb(0,0,0)" stroke="none" d="M 10416,13157 L 10414,13166 10412,13175 10410,13183 10408,13191 10433,13190 10457,13188 10479,13185 10499,13182 10499,13211 10476,13214 10451,13216 10425,13218 10397,13219 10391,13230 10385,13241 10379,13251 10373,13260 10375,13259 10377,13258 10379,13257 10381,13256 10384,13256 10386,13255 10392,13253 10397,13252 10403,13251 10408,13251 10410,13251 10413,13251 10416,13251 10420,13251 10423,13252 10427,13253 10430,13254 10433,13255 10436,13256 10439,13258 10442,13259 10444,13261 10446,13264 10449,13266 10450,13269 10452,13271 10453,13274 10455,13277 10481,13266 10504,13255 10534,13241 10547,13270 10540,13272 10532,13275 10524,13278 10515,13281 10457,13306 10457,13334 10458,13364 10428,13364 10430,13320 10419,13325 10415,13328 10411,13331 10407,13334 10403,13337 10400,13340 10397,13343 10394,13345 10392,13348 10390,13351 10389,13354 10388,13356 10387,13357 10387,13359 10386,13360 10386,13362 10386,13364 10386,13365 10386,13367 10386,13368 10386,13370 10386,13371 10386,13373 10387,13374 10387,13375 10388,13377 10388,13378 10389,13379 10390,13380 10390,13381 10391,13382 10392,13383 10393,13384 10394,13384 10395,13385 10396,13386 10397,13386 10398,13387 10400,13388 10401,13388 10403,13389 10404,13389 10406,13390 10409,13390 10413,13391 10416,13392 10420,13392 10424,13392 10428,13392 10438,13393 10448,13392 10458,13392 10469,13391 10480,13390 10503,13388 10514,13386 10524,13384 10523,13416 10501,13418 10479,13420 10458,13421 10437,13421 10430,13421 10423,13421 10416,13421 10410,13420 10404,13419 10399,13418 10393,13417 10388,13415 10385,13414 10382,13413 10380,13412 10378,13411 10376,13410 10374,13409 10372,13407 10370,13406 10368,13405 10366,13403 10365,13401 10363,13400 10362,13398 10361,13396 10359,13394 10358,13392 10357,13390 10356,13387 10356,13385 10355,13383 10355,13380 10354,13377 10354,13375 10354,13372 10354,13369 10354,13366 10355,13364 10355,13361 10356,13358 10356,13356 10357,13353 10358,13351 10359,13348 10361,13346 10362,13343 10363,13341 10365,13339 10366,13336 10368,13334 10369,13332 10373,13328 10377,13324 10381,13320 10386,13316 10391,13312 10396,13309 10401,13306 10406,13303 10411,13300 10416,13297 10428,13291 10427,13289 10426,13287 10425,13285 10424,13284 10422,13282 10421,13281 10420,13280 10418,13279 10416,13278 10414,13277 10413,13277 10411,13276 10409,13276 10406,13275 10404,13275 10402,13275 10399,13275 10395,13276 10392,13276 10388,13277 10385,13278 10381,13279 10378,13280 10375,13281 10371,13283 10368,13285 10365,13287 10362,13289 10359,13291 10356,13293 10353,13295 10350,13298 10348,13300 10346,13302 10343,13305 10341,13308 10332,13318 10322,13331 10295,13311 10307,13300 10318,13288 10328,13277 10337,13265 10345,13254 10353,13243 10360,13231 10366,13220 10356,13220 10304,13218 10304,13189 10316,13190 10329,13191 10343,13192 10358,13192 10377,13192 10379,13182 10380,13178 10381,13173 10382,13168 10383,13164 10383,13159 10384,13155 10416,13157 Z"/>
    </g>
   </g>
   <g class="com.sun.star.drawing.PolyPolygonShape">
    <g id="id28">
     <rect class="BoundingBox" stroke="none" fill="none" x="10607" y="13142" width="277" height="290"/>
     <path fill="rgb(0,0,0)" stroke="none" d="M 10818,13261 L 10818,13241 10709,13241 10709,13261 10818,13261 Z M 10818,13303 L 10818,13281 10709,13281 10709,13303 10818,13303 Z M 10818,13344 L 10818,13323 10709,13323 10709,13344 10818,13344 Z M 10682,13219 L 10725,13219 10728,13197 10607,13197 10607,13171 10731,13171 10733,13143 10766,13144 10763,13171 10880,13171 10880,13197 10759,13197 10755,13219 10846,13219 10846,13365 10682,13365 10682,13219 Z M 10883,13388 L 10883,13415 10651,13415 10651,13431 10623,13431 10623,13228 10651,13228 10651,13388 10883,13388 Z"/>
    </g>
   </g>
   <g class="com.sun.star.drawing.PolyPolygonShape">
    <g id="id29">
     <rect class="BoundingBox" stroke="none" fill="none" x="10932" y="13156" width="265" height="271"/>
     <path fill="rgb(0,0,0)" stroke="none" d="M 11104,13157 L 11103,13159 11103,13161 11102,13168 11102,13175 11102,13177 11102,13179 11101,13182 11101,13185 11101,13195 11195,13195 11194,13225 11101,13223 11101,13272 11104,13276 11106,13281 11108,13286 11109,13291 11111,13296 11112,13302 11112,13307 11112,13313 11112,13320 11112,13326 11111,13333 11109,13339 11109,13342 11108,13345 11107,13348 11106,13352 11104,13355 11103,13358 11100,13365 11098,13368 11096,13371 11094,13374 11092,13377 11089,13380 11087,13383 11085,13386 11082,13389 11079,13391 11076,13394 11073,13397 11070,13399 11066,13402 11062,13404 11054,13409 11050,13412 11046,13414 11036,13418 11027,13422 11016,13425 10990,13399 11004,13396 11017,13391 11029,13387 11040,13381 11045,13378 11049,13375 11054,13372 11058,13368 11061,13365 11064,13361 11067,13357 11070,13353 11068,13354 11065,13355 11063,13356 11060,13357 11057,13357 11054,13358 11051,13358 11048,13358 11046,13358 11043,13358 11041,13357 11039,13357 11036,13357 11034,13356 11032,13355 11029,13354 11027,13353 11025,13352 11023,13351 11021,13350 11019,13349 11017,13347 11015,13346 11013,13344 11011,13343 11009,13341 11007,13339 11006,13337 11004,13334 11003,13332 11002,13330 11000,13327 10999,13324 10998,13322 10998,13319 10997,13316 10997,13313 10996,13310 10996,13307 10996,13304 10996,13300 10996,13296 10997,13292 10998,13288 10999,13285 11000,13281 11002,13278 11004,13275 11006,13272 11008,13269 11011,13266 11013,13263 11016,13261 11019,13259 11022,13257 11025,13255 11028,13253 11032,13252 11035,13250 11039,13249 11043,13249 11046,13248 11050,13248 11054,13248 11059,13248 11061,13248 11063,13248 11065,13248 11068,13249 11070,13249 11071,13250 11071,13237 11071,13223 10934,13228 10933,13198 10995,13197 11071,13195 11070,13187 11070,13179 11069,13165 11068,13160 11068,13157 11104,13157 Z M 11025,13303 L 11025,13306 11026,13309 11026,13310 11026,13312 11027,13313 11027,13314 11028,13316 11029,13317 11029,13318 11030,13319 11031,13320 11032,13321 11033,13322 11034,13323 11036,13325 11038,13327 11040,13328 11043,13329 11045,13330 11048,13330 11051,13331 11054,13331 11055,13331 11057,13331 11058,13330 11060,13330 11061,13330 11063,13329 11064,13329 11065,13328 11066,13327 11068,13327 11069,13326 11070,13325 11071,13324 11072,13323 11073,13321 11074,13320 11075,13319 11075,13317 11076,13316 11077,13314 11077,13313 11078,13311 11078,13307 11079,13303 11079,13299 11079,13294 11078,13289 11077,13287 11076,13285 11075,13284 11074,13282 11072,13281 11071,13280 11070,13279 11068,13278 11067,13277 11065,13276 11063,13275 11062,13275 11060,13274 11058,13274 11056,13274 11054,13274 11051,13274 11048,13274 11046,13275 11043,13276 11041,13277 11038,13278 11036,13280 11034,13282 11033,13283 11032,13284 11031,13285 11030,13286 11029,13287 11029,13288 11028,13290 11027,13291 11027,13292 11026,13294 11026,13297 11025,13300 11025,13303 Z"/>
    </g>
   </g>
  </g>
  <g class="Group">
   <g class="com.sun.star.drawing.PolyPolygonShape">
    <g id="id30">
     <rect class="BoundingBox" stroke="none" fill="none" x="4287" y="14587" width="3227" height="827"/>
     <path fill="rgb(255,255,255)" stroke="none" d="M 4300,15400 L 4300,14600 7500,14600 7500,15400 4300,15400 Z"/>
     <path fill="none" stroke="rgb(0,0,0)" stroke-width="25" stroke-linejoin="round" d="M 4300,15400 L 4300,14600 7500,14600 7500,15400 4300,15400 Z"/>
    </g>
   </g>
   <g class="com.sun.star.drawing.PolyPolygonShape">
    <g id="id31">
     <rect class="BoundingBox" stroke="none" fill="none" x="4772" y="14869" width="183" height="253"/>
     <path fill="rgb(0,0,0)" stroke="none" d="M 4806,15023 L 4806,15121 4773,15121 4773,14870 4865,14870 4875,14870 4885,14871 4894,14872 4902,14875 4910,14878 4914,14879 4917,14881 4921,14883 4924,14886 4927,14888 4930,14891 4933,14893 4935,14896 4938,14899 4940,14902 4942,14905 4944,14908 4946,14912 4947,14915 4949,14919 4950,14922 4951,14926 4952,14930 4953,14938 4953,14946 4953,14955 4952,14964 4951,14968 4950,14971 4949,14975 4948,14979 4946,14982 4944,14986 4942,14989 4940,14992 4938,14995 4936,14998 4933,15000 4930,15003 4927,15005 4924,15007 4921,15009 4918,15011 4914,15013 4911,15015 4903,15018 4894,15020 4885,15021 4875,15022 4865,15023 4806,15023 Z M 4806,14996 L 4865,14996 4872,14995 4878,14995 4884,14994 4889,14992 4894,14991 4896,14990 4898,14988 4900,14987 4902,14986 4904,14984 4906,14983 4908,14981 4909,14980 4911,14978 4912,14976 4913,14974 4915,14972 4916,14970 4917,14968 4917,14965 4918,14963 4919,14958 4920,14952 4920,14947 4920,14941 4919,14936 4918,14931 4917,14929 4917,14926 4916,14924 4915,14922 4913,14920 4912,14918 4911,14916 4909,14914 4908,14912 4906,14911 4904,14909 4902,14907 4900,14906 4898,14905 4896,14903 4894,14902 4889,14900 4884,14899 4879,14898 4873,14897 4867,14897 4806,14897 4806,14996 Z"/>
    </g>
   </g>
   <g class="com.sun.star.drawing.PolyPolygonShape">
    <g id="id32">
     <rect class="BoundingBox" stroke="none" fill="none" x="4992" y="14869" width="184" height="253"/>
     <path fill="rgb(0,0,0)" stroke="none" d="M 4993,15121 L 4993,14870 5063,14870 5072,14870 5079,14870 5087,14872 5094,14873 5101,14875 5108,14878 5115,14881 5121,14884 5127,14888 5133,14892 5139,14897 5144,14902 5148,14907 5153,14913 5157,14919 5160,14925 5163,14932 5166,14939 5169,14946 5171,14954 5172,14962 5173,14970 5174,14978 5174,14987 5174,15003 5174,15011 5173,15020 5172,15028 5171,15036 5169,15044 5166,15051 5164,15058 5160,15065 5157,15071 5153,15077 5148,15083 5144,15088 5139,15093 5133,15098 5127,15102 5121,15106 5115,15109 5108,15112 5101,15115 5094,15117 5086,15118 5078,15119 5070,15120 5062,15121 4993,15121 Z M 5026,14897 L 5026,15094 5061,15094 5070,15093 5079,15092 5087,15090 5091,15089 5095,15088 5098,15086 5102,15084 5105,15082 5108,15080 5112,15078 5115,15075 5117,15073 5120,15070 5123,15067 5125,15063 5127,15060 5129,15056 5131,15053 5133,15049 5136,15041 5138,15032 5140,15023 5141,15013 5141,15002 5141,14987 5141,14977 5140,14967 5139,14958 5136,14949 5134,14941 5130,14934 5128,14930 5126,14927 5124,14924 5121,14921 5119,14918 5116,14915 5113,14913 5110,14910 5107,14908 5104,14906 5101,14904 5097,14903 5093,14901 5090,14900 5086,14899 5082,14898 5073,14897 5064,14897 5026,14897 Z"/>
    </g>
   </g>
   <g class="com.sun.star.drawing.PolyPolygonShape">
    <g id="id33">
     <rect class="BoundingBox" stroke="none" fill="none" x="5221" y="14869" width="158" height="253"/>
     <path fill="rgb(0,0,0)" stroke="none" d="M 5360,15010 L 5255,15010 5255,15121 5222,15121 5222,14870 5377,14870 5377,14897 5255,14897 5255,14983 5360,14983 5360,15010 Z"/>
    </g>
   </g>
   <g class="com.sun.star.drawing.PolyPolygonShape">
    <g id="id34">
     <rect class="BoundingBox" stroke="none" fill="none" x="5511" y="14876" width="247" height="253"/>
     <path fill="rgb(0,0,0)" stroke="none" d="M 5616,14902 L 5631,14903 5647,14905 5665,14905 5683,14906 5701,14905 5718,14904 5733,14903 5747,14902 5747,14934 5733,14935 5717,14936 5700,14936 5682,14936 5664,14936 5647,14936 5631,14935 5617,14934 5616,14902 Z M 5634,15031 L 5632,15039 5631,15046 5630,15050 5630,15053 5630,15056 5630,15059 5630,15062 5631,15065 5632,15068 5633,15070 5635,15073 5637,15075 5639,15077 5642,15078 5645,15080 5649,15081 5653,15082 5657,15083 5667,15084 5678,15085 5699,15084 5718,15083 5737,15080 5756,15076 5757,15110 5740,15113 5721,15115 5700,15116 5678,15116 5668,15116 5660,15115 5651,15114 5644,15113 5637,15111 5631,15109 5625,15106 5622,15105 5620,15103 5617,15102 5615,15100 5613,15098 5611,15096 5610,15095 5608,15092 5607,15090 5605,15088 5604,15086 5603,15083 5602,15081 5602,15078 5601,15076 5601,15073 5601,15070 5601,15068 5601,15063 5601,15059 5601,15054 5602,15049 5603,15039 5606,15029 5634,15031 Z M 5562,14879 L 5560,14884 5559,14890 5557,14896 5555,14903 5545,14963 5543,14980 5541,14995 5540,15009 5540,15021 5540,15029 5540,15037 5541,15045 5542,15054 5558,15014 5574,15027 5559,15072 5555,15088 5553,15094 5552,15100 5551,15104 5551,15108 5550,15110 5550,15111 5550,15113 5550,15114 5550,15116 5551,15119 5551,15125 5522,15127 5520,15118 5518,15108 5516,15096 5514,15083 5513,15070 5512,15056 5511,15041 5511,15027 5511,15018 5511,15009 5513,14990 5516,14957 5521,14925 5525,14902 5526,14895 5526,14888 5527,14882 5527,14876 5562,14879 Z"/>
    </g>
   </g>
   <g class="com.sun.star.drawing.PolyPolygonShape">
    <g id="id35">
     <rect class="BoundingBox" stroke="none" fill="none" x="5827" y="14855" width="246" height="287"/>
     <path fill="rgb(0,0,0)" stroke="none" d="M 6042,15011 L 6072,15011 6072,15140 6042,15140 6042,15121 5857,15121 5857,15140 5828,15140 5828,15011 5857,15011 5857,15093 5933,15093 5933,14992 5840,14992 5840,14883 5869,14883 5869,14964 5933,14964 5933,14856 5962,14856 5962,14964 6029,14964 6029,14883 6059,14883 6059,14992 5962,14992 5962,15093 6042,15093 6042,15011 Z"/>
    </g>
   </g>
   <g class="com.sun.star.drawing.PolyPolygonShape">
    <g id="id36">
     <rect class="BoundingBox" stroke="none" fill="none" x="6126" y="14854" width="268" height="289"/>
     <path fill="rgb(0,0,0)" stroke="none" d="M 6265,14920 L 6393,14920 6392,14934 6387,15016 6384,15047 6381,15071 6378,15089 6376,15097 6375,15104 6372,15110 6370,15115 6369,15117 6368,15119 6367,15121 6366,15123 6364,15124 6362,15126 6361,15128 6359,15129 6358,15130 6356,15131 6355,15132 6353,15133 6351,15134 6350,15134 6348,15135 6346,15136 6344,15136 6342,15136 6339,15137 6337,15137 6328,15138 6317,15138 6303,15138 6287,15137 6287,15135 6287,15134 6287,15132 6286,15130 6285,15126 6284,15122 6282,15118 6281,15114 6280,15112 6279,15110 6278,15109 6277,15107 6288,15108 6299,15109 6311,15109 6324,15109 6327,15109 6329,15109 6330,15109 6331,15109 6332,15108 6333,15108 6334,15108 6334,15108 6335,15107 6336,15107 6337,15106 6337,15106 6338,15105 6339,15104 6340,15103 6341,15102 6342,15100 6343,15099 6344,15095 6346,15090 6348,15084 6349,15077 6352,15061 6355,15041 6357,15015 6361,14950 6264,14950 6262,14964 6261,14971 6260,14978 6259,14985 6258,14992 6256,14999 6254,15007 6252,15014 6250,15022 6247,15029 6245,15036 6241,15043 6238,15050 6234,15057 6230,15064 6225,15072 6220,15079 6215,15085 6210,15092 6204,15099 6197,15105 6191,15112 6183,15118 6175,15124 6167,15130 6158,15136 6149,15142 6148,15140 6147,15139 6145,15136 6142,15133 6139,15130 6136,15126 6132,15123 6129,15121 6127,15118 6135,15113 6143,15108 6151,15103 6158,15097 6165,15092 6171,15086 6177,15080 6182,15074 6187,15069 6192,15063 6197,15056 6201,15050 6205,15044 6208,15037 6212,15031 6215,15025 6217,15019 6220,15013 6222,15006 6224,14999 6226,14993 6227,14986 6228,14980 6230,14974 6231,14968 6231,14962 6233,14950 6136,14950 6136,14920 6234,14920 6234,14855 6265,14855 6265,14920 Z"/>
    </g>
   </g>
   <g class="com.sun.star.drawing.PolyPolygonShape">
    <g id="id37">
     <rect class="BoundingBox" stroke="none" fill="none" x="6456" y="14866" width="265" height="271"/>
     <path fill="rgb(0,0,0)" stroke="none" d="M 6628,14867 L 6627,14869 6627,14871 6626,14878 6626,14885 6626,14887 6626,14889 6625,14892 6625,14895 6625,14905 6719,14905 6718,14935 6625,14933 6625,14982 6628,14986 6630,14991 6632,14996 6633,15001 6635,15006 6636,15012 6636,15017 6636,15023 6636,15030 6636,15036 6635,15043 6633,15049 6633,15052 6632,15055 6631,15058 6630,15062 6628,15065 6627,15068 6624,15075 6622,15078 6620,15081 6618,15084 6616,15087 6613,15090 6611,15093 6609,15096 6606,15099 6603,15101 6600,15104 6597,15107 6594,15109 6590,15112 6586,15114 6578,15119 6574,15122 6570,15124 6560,15128 6551,15132 6540,15135 6514,15109 6528,15106 6541,15101 6553,15097 6564,15091 6569,15088 6573,15085 6578,15082 6582,15078 6585,15075 6588,15071 6591,15067 6594,15063 6592,15064 6589,15065 6587,15066 6584,15067 6581,15067 6578,15068 6575,15068 6572,15068 6570,15068 6567,15068 6565,15067 6563,15067 6560,15067 6558,15066 6556,15065 6553,15064 6551,15063 6549,15062 6547,15061 6545,15060 6543,15059 6541,15057 6539,15056 6537,15054 6535,15053 6533,15051 6531,15049 6530,15047 6528,15044 6527,15042 6526,15040 6524,15037 6523,15034 6522,15032 6522,15029 6521,15026 6521,15023 6520,15020 6520,15017 6520,15014 6520,15010 6520,15006 6521,15002 6522,14998 6523,14995 6524,14991 6526,14988 6528,14985 6530,14982 6532,14979 6535,14976 6537,14973 6540,14971 6543,14969 6546,14967 6549,14965 6552,14963 6556,14962 6559,14960 6563,14959 6567,14959 6570,14958 6574,14958 6578,14958 6583,14958 6585,14958 6587,14958 6589,14958 6592,14959 6594,14959 6595,14960 6595,14947 6595,14933 6458,14938 6457,14908 6519,14907 6595,14905 6594,14897 6594,14889 6593,14875 6592,14870 6592,14867 6628,14867 Z M 6549,15013 L 6549,15016 6550,15019 6550,15020 6550,15022 6551,15023 6551,15024 6552,15026 6553,15027 6553,15028 6554,15029 6555,15030 6556,15031 6557,15032 6558,15033 6560,15035 6562,15037 6564,15038 6567,15039 6569,15040 6572,15040 6575,15041 6578,15041 6579,15041 6581,15041 6582,15040 6584,15040 6585,15040 6587,15039 6588,15039 6589,15038 6590,15037 6592,15037 6593,15036 6594,15035 6595,15034 6596,15033 6597,15031 6598,15030 6599,15029 6599,15027 6600,15026 6601,15024 6601,15023 6602,15021 6602,15017 6603,15013 6603,15009 6603,15004 6602,14999 6601,14997 6600,14995 6599,14994 6598,14992 6596,14991 6595,14990 6594,14989 6592,14988 6591,14987 6589,14986 6587,14985 6586,14985 6584,14984 6582,14984 6580,14984 6578,14984 6575,14984 6572,14984 6570,14985 6567,14986 6565,14987 6562,14988 6560,14990 6558,14992 6557,14993 6556,14994 6555,14995 6554,14996 6553,14997 6553,14998 6552,15000 6551,15001 6551,15002 6550,15004 6550,15007 6549,15010 6549,15013 Z"/>
    </g>
   </g>
   <g class="com.sun.star.drawing.PolyPolygonShape">
    <g id="id38">
     <rect class="BoundingBox" stroke="none" fill="none" x="6776" y="14877" width="241" height="256"/>
     <path fill="rgb(0,0,0)" stroke="none" d="M 6862,15081 L 6862,15083 6862,15084 6862,15085 6863,15086 6863,15087 6864,15088 6864,15089 6865,15090 6865,15091 6866,15092 6867,15093 6868,15094 6869,15095 6870,15096 6872,15097 6875,15099 6878,15100 6881,15101 6884,15102 6888,15103 6892,15103 6895,15103 6900,15103 6906,15103 6912,15103 6917,15103 6922,15102 6921,15098 6920,15094 6919,15090 6918,15086 6916,15083 6914,15080 6912,15077 6910,15074 6909,15073 6907,15072 6906,15070 6905,15069 6903,15068 6902,15068 6900,15067 6899,15066 6897,15065 6896,15065 6894,15064 6892,15064 6889,15064 6885,15063 6883,15063 6880,15064 6878,15064 6876,15065 6874,15065 6872,15066 6870,15068 6869,15069 6867,15070 6866,15072 6865,15072 6865,15073 6864,15074 6864,15075 6863,15075 6863,15076 6863,15077 6863,15078 6862,15079 6862,15080 6862,15080 6862,15081 Z M 6817,14882 L 6822,14883 6828,14883 6834,14884 6841,14884 6895,14883 6927,14881 6938,14881 6946,14880 6953,14880 6958,14879 6961,14879 6963,14878 6964,14878 6966,14877 6983,14900 6972,14907 6967,14910 6963,14913 6943,14929 6911,14956 6887,14976 6891,14975 6895,14973 6900,14973 6905,14972 6909,14971 6914,14971 6919,14971 6924,14971 6931,14971 6937,14971 6943,14972 6949,14973 6954,14974 6960,14976 6965,14978 6971,14980 6976,14983 6981,14986 6985,14989 6989,14992 6993,14995 6997,14999 7000,15003 7003,15007 7006,15012 7008,15016 7010,15021 7012,15026 7013,15031 7014,15036 7015,15041 7015,15046 7015,15051 7015,15055 7014,15060 7013,15064 7012,15068 7011,15072 7009,15076 7008,15080 7006,15084 7004,15088 7001,15092 6999,15095 6996,15098 6993,15101 6990,15105 6987,15107 6983,15110 6979,15113 6975,15115 6971,15117 6967,15120 6962,15122 6957,15123 6952,15125 6947,15127 6941,15128 6936,15129 6930,15130 6924,15131 6918,15131 6912,15131 6905,15131 6897,15131 6890,15131 6883,15130 6876,15128 6870,15126 6864,15124 6858,15121 6853,15118 6849,15115 6846,15113 6845,15111 6843,15109 6841,15107 6840,15105 6838,15103 6837,15101 6836,15099 6835,15096 6835,15094 6834,15092 6834,15089 6833,15087 6833,15084 6833,15082 6834,15080 6834,15078 6834,15076 6835,15074 6836,15071 6836,15069 6837,15067 6838,15065 6839,15064 6840,15062 6842,15060 6843,15058 6844,15056 6846,15055 6848,15053 6849,15052 6851,15050 6853,15049 6855,15048 6857,15047 6859,15046 6862,15045 6864,15044 6866,15043 6869,15042 6871,15041 6874,15041 6877,15041 6879,15040 6882,15040 6885,15040 6888,15040 6892,15040 6895,15041 6898,15041 6902,15042 6905,15042 6908,15043 6911,15044 6914,15045 6916,15047 6919,15048 6922,15049 6924,15051 6926,15053 6928,15054 6930,15056 6932,15058 6934,15060 6936,15062 6938,15064 6939,15067 6941,15069 6942,15071 6943,15074 6945,15076 6946,15079 6947,15081 6947,15084 6948,15086 6949,15089 6949,15092 6950,15095 6954,15093 6957,15091 6961,15089 6964,15086 6967,15084 6970,15081 6972,15078 6974,15075 6976,15072 6978,15069 6980,15065 6981,15062 6982,15058 6982,15054 6983,15050 6983,15046 6983,15042 6982,15039 6982,15035 6981,15032 6979,15029 6978,15026 6976,15023 6974,15020 6972,15017 6969,15014 6967,15012 6964,15009 6961,15007 6957,15005 6954,15003 6950,15001 6946,15000 6942,14999 6938,14998 6933,14997 6929,14996 6924,14995 6920,14995 6915,14995 6908,14995 6901,14996 6894,14997 6887,14998 6881,14999 6875,15001 6869,15003 6863,15006 6858,15008 6852,15011 6847,15015 6841,15019 6836,15023 6831,15027 6825,15032 6821,15036 6799,15058 6776,15035 6821,14998 6858,14967 6927,14909 6841,14913 6834,14913 6828,14913 6823,14914 6818,14915 6817,14882 Z"/>
    </g>
   </g>
  </g>
  <g class="com.sun.star.drawing.LineShape">
   <g id="id39">
    <rect class="BoundingBox" stroke="none" fill="none" x="5781" y="10087" width="239" height="414"/>
    <path fill="none" stroke="rgb(0,0,0)" stroke-width="25" stroke-linejoin="round" d="M 5900,10100 L 5900,10362"/>
    <path fill="rgb(0,0,0)" stroke="none" d="M 6019,10346 L 5900,10500 5782,10346 6019,10346 Z"/>
   </g>
  </g>
  <g class="com.sun.star.drawing.LineShape">
   <g id="id40">
    <rect class="BoundingBox" stroke="none" fill="none" x="5781" y="11287" width="239" height="414"/>
    <path fill="none" stroke="rgb(0,0,0)" stroke-width="25" stroke-linejoin="round" d="M 5900,11300 L 5900,11562"/>
    <path fill="rgb(0,0,0)" stroke="none" d="M 6019,11546 L 5900,11700 5782,11546 6019,11546 Z"/>
   </g>
  </g>
  <g class="com.sun.star.drawing.LineShape">
   <g id="id41">
    <rect class="BoundingBox" stroke="none" fill="none" x="5781" y="13287" width="239" height="1314"/>
    <path fill="none" stroke="rgb(0,0,0)" stroke-width="25" stroke-linejoin="round" d="M 5900,13300 L 5900,14462"/>
    <path fill="rgb(0,0,0)" stroke="none" d="M 6019,14446 L 5900,14600 5782,14446 6019,14446 Z"/>
   </g>
  </g>
  <g class="Group">
   <g class="com.sun.star.drawing.PolyPolygonShape">
    <g id="id42">
     <rect class="BoundingBox" stroke="none" fill="none" x="4487" y="15787" width="2828" height="828"/>
     <path fill="rgb(255,255,255)" stroke="none" d="M 4900,15800 L 4901,15800 4874,15801 4848,15803 4822,15808 4797,15814 4772,15821 4747,15830 4723,15841 4700,15854 4678,15868 4657,15883 4636,15899 4617,15917 4599,15936 4583,15957 4568,15978 4554,16000 4541,16023 4530,16047 4521,16072 4514,16097 4508,16122 4503,16148 4501,16174 4500,16201 4500,16200 4500,16201 4501,16227 4503,16253 4508,16279 4514,16304 4521,16329 4530,16354 4541,16378 4554,16401 4568,16423 4583,16444 4599,16465 4617,16484 4636,16502 4657,16518 4678,16533 4700,16547 4723,16560 4747,16571 4772,16580 4797,16587 4822,16593 4848,16598 4874,16600 4901,16601 6900,16601 6901,16601 6927,16600 6953,16598 6979,16593 7004,16587 7029,16580 7054,16571 7078,16560 7101,16547 7123,16533 7144,16518 7165,16502 7184,16484 7202,16465 7218,16444 7233,16423 7247,16401 7260,16378 7271,16354 7280,16329 7287,16304 7293,16279 7298,16253 7300,16227 7301,16201 7300,16200 7301,16201 7301,16201 7300,16174 7298,16148 7293,16122 7287,16097 7280,16072 7271,16047 7260,16023 7247,16000 7233,15978 7218,15957 7202,15936 7184,15917 7165,15899 7144,15883 7123,15868 7101,15854 7078,15841 7054,15830 7029,15821 7004,15814 6979,15808 6953,15803 6927,15801 6901,15800 4900,15800 Z"/>
     <path fill="none" stroke="rgb(0,0,0)" stroke-width="25" stroke-linejoin="round" d="M 4900,15800 L 4901,15800 4874,15801 4848,15803 4822,15808 4797,15814 4772,15821 4747,15830 4723,15841 4700,15854 4678,15868 4657,15883 4636,15899 4617,15917 4599,15936 4583,15957 4568,15978 4554,16000 4541,16023 4530,16047 4521,16072 4514,16097 4508,16122 4503,16148 4501,16174 4500,16201 4500,16200 4500,16201 4501,16227 4503,16253 4508,16279 4514,16304 4521,16329 4530,16354 4541,16378 4554,16401 4568,16423 4583,16444 4599,16465 4617,16484 4636,16502 4657,16518 4678,16533 4700,16547 4723,16560 4747,16571 4772,16580 4797,16587 4822,16593 4848,16598 4874,16600 4901,16601 6900,16601 6901,16601 6927,16600 6953,16598 6979,16593 7004,16587 7029,16580 7054,16571 7078,16560 7101,16547 7123,16533 7144,16518 7165,16502 7184,16484 7202,16465 7218,16444 7233,16423 7247,16401 7260,16378 7271,16354 7280,16329 7287,16304 7293,16279 7298,16253 7300,16227 7301,16201 7300,16200 7301,16201 7301,16201 7300,16174 7298,16148 7293,16122 7287,16097 7280,16072 7271,16047 7260,16023 7247,16000 7233,15978 7218,15957 7202,15936 7184,15917 7165,15899 7144,15883 7123,15868 7101,15854 7078,15841 7054,15830 7029,15821 7004,15814 6979,15808 6953,15803 6927,15801 6901,15800 4900,15800 Z"/>
    </g>
   </g>
   <g class="com.sun.star.drawing.PolyPolygonShape">
    <g id="id43">
     <rect class="BoundingBox" stroke="none" fill="none" x="5597" y="16043" width="297" height="291"/>
     <path fill="rgb(0,0,0)" stroke="none" d="M 5616,16222 L 5640,16227 5637,16251 5634,16262 5632,16272 5629,16282 5626,16291 5623,16299 5620,16306 5619,16306 5618,16305 5615,16304 5613,16302 5609,16300 5606,16299 5603,16297 5600,16296 5597,16295 5601,16288 5604,16281 5606,16273 5609,16264 5611,16254 5613,16244 5616,16222 Z M 5681,16227 L 5702,16220 5709,16236 5714,16250 5719,16264 5720,16270 5722,16276 5700,16284 5698,16278 5697,16271 5695,16264 5692,16256 5690,16248 5687,16241 5684,16234 5681,16227 Z M 5731,16283 L 5747,16262 5762,16267 5778,16272 5794,16277 5810,16284 5826,16291 5841,16297 5854,16304 5866,16310 5849,16332 5838,16326 5825,16319 5811,16313 5795,16306 5778,16299 5762,16293 5746,16288 5731,16283 Z M 5764,16226 L 5781,16208 5789,16211 5798,16215 5806,16219 5815,16224 5824,16229 5831,16233 5838,16237 5844,16242 5827,16262 5821,16257 5815,16253 5807,16248 5798,16243 5789,16238 5781,16233 5772,16229 5764,16226 Z M 5769,16100 L 5769,16101 5772,16106 5775,16112 5779,16117 5783,16122 5791,16133 5801,16143 5810,16132 5815,16127 5819,16122 5823,16116 5827,16111 5830,16105 5833,16100 5769,16100 Z M 5853,16074 L 5871,16084 5866,16094 5861,16105 5856,16115 5850,16124 5843,16134 5836,16143 5828,16152 5820,16161 5829,16168 5837,16174 5846,16180 5855,16186 5864,16191 5874,16195 5883,16200 5893,16203 5891,16205 5888,16208 5886,16211 5883,16214 5880,16217 5878,16221 5876,16224 5874,16227 5864,16222 5855,16218 5845,16212 5836,16207 5827,16200 5818,16194 5809,16187 5801,16179 5793,16186 5784,16192 5776,16198 5767,16204 5758,16209 5749,16214 5739,16219 5729,16224 5728,16222 5727,16221 5725,16218 5722,16213 5719,16209 5700,16217 5700,16213 5699,16210 5697,16205 5696,16201 5675,16202 5675,16331 5649,16331 5649,16204 5602,16207 5600,16181 5622,16181 5640,16156 5636,16151 5632,16145 5627,16140 5622,16134 5617,16128 5612,16123 5606,16117 5601,16112 5615,16093 5616,16094 5618,16096 5623,16100 5631,16085 5638,16071 5644,16057 5649,16044 5675,16054 5654,16091 5646,16105 5639,16116 5648,16125 5651,16129 5654,16133 5663,16119 5671,16105 5678,16092 5684,16080 5708,16091 5692,16116 5676,16140 5661,16161 5648,16179 5687,16177 5680,16163 5677,16157 5674,16152 5694,16144 5702,16158 5709,16172 5712,16178 5714,16185 5717,16191 5719,16198 5727,16194 5735,16190 5743,16186 5751,16181 5759,16176 5767,16171 5774,16166 5782,16160 5773,16150 5766,16141 5759,16131 5753,16122 5746,16129 5738,16137 5730,16145 5722,16152 5721,16151 5720,16149 5718,16147 5716,16144 5713,16142 5710,16139 5708,16137 5705,16135 5702,16133 5708,16128 5714,16124 5719,16119 5724,16113 5729,16108 5734,16103 5739,16097 5743,16091 5751,16079 5758,16067 5761,16062 5764,16056 5767,16050 5769,16044 5798,16049 5795,16056 5791,16062 5788,16069 5785,16075 5848,16075 5853,16074 Z"/>
    </g>
   </g>
   <g class="com.sun.star.drawing.PolyPolygonShape">
    <g id="id44">
     <rect class="BoundingBox" stroke="none" fill="none" x="5939" y="16065" width="248" height="267"/>
     <path fill="rgb(0,0,0)" stroke="none" d="M 6163,16065 L 6186,16082 6175,16095 6163,16108 6150,16120 6136,16133 6121,16145 6107,16156 6093,16166 6079,16174 6079,16295 6079,16298 6079,16301 6079,16304 6078,16307 6078,16309 6077,16312 6076,16314 6075,16315 6075,16316 6074,16317 6073,16318 6073,16319 6071,16320 6070,16322 6068,16323 6066,16324 6064,16325 6061,16326 6059,16327 6056,16327 6054,16328 6051,16328 6045,16329 6038,16330 5996,16331 5995,16327 5994,16324 5993,16320 5991,16316 5989,16312 5988,16308 5986,16304 5984,16301 6017,16302 6029,16302 6040,16302 6041,16302 6042,16302 6043,16301 6044,16301 6045,16301 6046,16301 6046,16301 6046,16301 6046,16300 6047,16300 6047,16300 6047,16300 6047,16300 6048,16299 6048,16299 6048,16299 6048,16298 6048,16298 6048,16298 6048,16297 6049,16297 6049,16296 6049,16295 6049,16149 6067,16149 6075,16144 6083,16138 6092,16131 6100,16124 6108,16117 6116,16110 6123,16103 6130,16096 5939,16096 5939,16067 6156,16067 6163,16065 Z"/>
    </g>
   </g>
  </g>
  <g class="com.sun.star.drawing.LineShape">
   <g id="id45">
    <rect class="BoundingBox" stroke="none" fill="none" x="5781" y="15387" width="239" height="414"/>
    <path fill="none" stroke="rgb(0,0,0)" stroke-width="25" stroke-linejoin="round" d="M 5900,15400 L 5900,15662"/>
    <path fill="rgb(0,0,0)" stroke="none" d="M 6019,15646 L 5900,15800 5782,15646 6019,15646 Z"/>
   </g>
  </g>
  <g class="Group">
   <g class="com.sun.star.drawing.PolyPolygonShape">
    <g id="id46">
     <rect class="BoundingBox" stroke="none" fill="none" x="6212" y="13370" width="208" height="252"/>
     <path fill="rgb(0,0,0)" stroke="none" d="M 6316,13496 L 6381,13370 6419,13370 6332,13527 6332,13621 6299,13621 6299,13527 6213,13370 6251,13370 6316,13496 Z"/>
    </g>
   </g>
   <g class="com.sun.star.drawing.PolyPolygonShape">
    <g id="id47">
     <rect class="BoundingBox" stroke="none" fill="none" x="6438" y="13431" width="160" height="195"/>
     <path fill="rgb(0,0,0)" stroke="none" d="M 6524,13624 L 6514,13624 6505,13622 6497,13621 6493,13619 6489,13618 6485,13616 6482,13614 6478,13612 6475,13610 6471,13608 6468,13605 6465,13602 6462,13599 6459,13596 6456,13593 6454,13589 6451,13586 6449,13582 6447,13578 6446,13574 6444,13570 6441,13562 6440,13552 6438,13543 6438,13533 6438,13527 6438,13520 6439,13513 6440,13507 6441,13501 6442,13495 6444,13489 6446,13483 6449,13477 6451,13472 6454,13467 6458,13462 6461,13458 6465,13454 6469,13450 6474,13447 6478,13443 6483,13440 6488,13438 6493,13436 6498,13434 6503,13433 6509,13432 6514,13431 6520,13431 6528,13431 6537,13433 6541,13433 6545,13434 6548,13436 6552,13437 6555,13439 6559,13440 6562,13442 6565,13445 6568,13447 6571,13449 6573,13452 6576,13455 6579,13458 6581,13461 6583,13465 6585,13468 6587,13472 6588,13476 6591,13484 6593,13493 6595,13503 6596,13513 6596,13524 6596,13537 6470,13537 6470,13544 6471,13550 6472,13556 6474,13561 6477,13567 6479,13572 6482,13576 6486,13580 6490,13584 6492,13586 6494,13588 6496,13589 6499,13591 6501,13592 6504,13593 6506,13594 6509,13595 6511,13595 6514,13596 6519,13597 6525,13597 6529,13597 6533,13597 6537,13596 6541,13595 6544,13594 6548,13593 6551,13592 6554,13590 6557,13589 6560,13587 6562,13585 6565,13583 6567,13580 6570,13578 6572,13576 6574,13573 6594,13588 6591,13592 6588,13596 6584,13600 6581,13604 6577,13607 6573,13610 6569,13613 6565,13615 6560,13617 6555,13619 6551,13620 6545,13622 6540,13623 6535,13623 6529,13624 6524,13624 Z M 6520,13458 L 6515,13458 6510,13459 6508,13459 6506,13460 6504,13461 6502,13461 6500,13462 6498,13463 6496,13464 6494,13466 6492,13467 6491,13468 6487,13472 6484,13475 6481,13479 6479,13483 6477,13488 6475,13493 6473,13498 6472,13504 6471,13510 6564,13510 6564,13508 6564,13502 6563,13496 6562,13491 6560,13487 6559,13482 6556,13478 6555,13476 6554,13474 6553,13473 6551,13471 6550,13469 6548,13468 6547,13467 6545,13465 6543,13464 6541,13463 6539,13462 6537,13461 6535,13460 6533,13460 6531,13459 6529,13459 6524,13458 6520,13458 Z"/>
    </g>
   </g>
   <g class="com.sun.star.drawing.PolyPolygonShape">
    <g id="id48">
     <rect class="BoundingBox" stroke="none" fill="none" x="6624" y="13431" width="150" height="195"/>
     <path fill="rgb(0,0,0)" stroke="none" d="M 6741,13571 L 6741,13569 6741,13568 6740,13566 6740,13565 6740,13563 6739,13562 6739,13561 6738,13559 6738,13558 6737,13557 6736,13556 6735,13555 6734,13554 6733,13553 6732,13552 6731,13551 6728,13549 6725,13547 6722,13546 6718,13544 6713,13543 6708,13541 6697,13539 6686,13536 6675,13533 6671,13532 6666,13530 6662,13528 6659,13526 6655,13525 6652,13523 6649,13521 6646,13519 6644,13516 6641,13514 6639,13512 6638,13509 6636,13507 6635,13504 6633,13501 6632,13498 6632,13495 6631,13492 6631,13489 6631,13486 6631,13483 6631,13480 6631,13477 6632,13475 6633,13472 6633,13469 6634,13467 6636,13464 6637,13462 6638,13460 6640,13457 6642,13455 6644,13453 6646,13451 6650,13447 6655,13443 6660,13440 6666,13437 6672,13435 6679,13433 6685,13432 6692,13431 6700,13431 6707,13431 6715,13432 6722,13433 6728,13435 6735,13437 6741,13440 6746,13444 6751,13447 6756,13452 6758,13454 6760,13456 6762,13459 6763,13461 6765,13463 6766,13466 6767,13469 6768,13471 6769,13474 6770,13477 6770,13480 6771,13483 6771,13486 6771,13489 6739,13489 6739,13488 6739,13486 6738,13485 6738,13483 6738,13482 6737,13480 6737,13479 6736,13477 6735,13476 6734,13475 6734,13473 6733,13472 6730,13470 6728,13467 6725,13465 6722,13463 6719,13462 6715,13460 6712,13459 6708,13459 6704,13458 6700,13458 6695,13458 6691,13458 6688,13459 6684,13460 6681,13461 6678,13462 6675,13464 6674,13464 6672,13465 6671,13466 6670,13467 6669,13468 6668,13469 6667,13470 6666,13471 6666,13473 6665,13474 6665,13475 6664,13476 6664,13477 6663,13479 6663,13480 6663,13481 6663,13483 6663,13484 6663,13486 6663,13487 6663,13488 6663,13490 6664,13491 6664,13492 6664,13493 6665,13494 6666,13495 6666,13496 6667,13497 6668,13498 6669,13499 6670,13500 6671,13500 6672,13501 6674,13502 6677,13504 6681,13505 6685,13507 6694,13509 6705,13512 6716,13515 6726,13518 6731,13520 6735,13521 6740,13523 6743,13525 6747,13527 6750,13529 6753,13531 6756,13533 6759,13535 6761,13538 6764,13540 6765,13543 6767,13546 6769,13548 6770,13551 6771,13555 6772,13558 6772,13561 6772,13565 6773,13568 6773,13572 6772,13575 6772,13578 6771,13580 6771,13583 6770,13586 6769,13589 6768,13591 6766,13594 6765,13596 6763,13598 6761,13601 6759,13603 6757,13605 6755,13607 6753,13609 6747,13612 6742,13615 6736,13618 6730,13620 6723,13622 6716,13623 6709,13624 6701,13624 6695,13624 6690,13624 6685,13623 6680,13622 6675,13621 6670,13620 6665,13618 6661,13616 6657,13614 6653,13612 6649,13609 6646,13607 6642,13604 6639,13601 6637,13597 6634,13594 6632,13590 6630,13587 6628,13583 6627,13579 6626,13575 6625,13571 6625,13567 6624,13563 6656,13563 6657,13567 6657,13569 6657,13571 6658,13572 6658,13574 6659,13576 6660,13577 6661,13579 6662,13580 6663,13582 6664,13583 6665,13584 6666,13585 6668,13587 6669,13588 6672,13590 6676,13592 6679,13593 6683,13595 6687,13596 6691,13596 6696,13597 6701,13597 6705,13597 6709,13597 6713,13596 6717,13595 6721,13594 6724,13593 6727,13591 6730,13590 6731,13589 6732,13588 6733,13587 6735,13586 6736,13585 6736,13584 6737,13583 6738,13581 6739,13580 6739,13579 6740,13578 6740,13576 6740,13575 6741,13574 6741,13572 6741,13571 Z"/>
    </g>
   </g>
  </g>
  <g class="Group">
   <g class="com.sun.star.drawing.PolyPolygonShape">
    <g id="id49">
     <rect class="BoundingBox" stroke="none" fill="none" x="8605" y="11969" width="195" height="253"/>
     <path fill="rgb(0,0,0)" stroke="none" d="M 8798,12221 L 8765,12221 8639,12027 8639,12221 8605,12221 8605,11970 8639,11970 8765,12164 8765,11970 8798,11970 8798,12221 Z"/>
    </g>
   </g>
   <g class="com.sun.star.drawing.PolyPolygonShape">
    <g id="id50">
     <rect class="BoundingBox" stroke="none" fill="none" x="8841" y="12030" width="172" height="195"/>
     <path fill="rgb(0,0,0)" stroke="none" d="M 8842,12125 L 8842,12119 8842,12112 8843,12106 8844,12099 8846,12093 8848,12087 8850,12082 8852,12076 8855,12071 8858,12066 8862,12061 8865,12057 8869,12053 8873,12049 8878,12045 8882,12042 8887,12040 8892,12037 8897,12035 8903,12033 8908,12032 8914,12031 8920,12031 8926,12031 8935,12031 8944,12032 8949,12033 8953,12034 8957,12036 8961,12037 8964,12039 8968,12041 8972,12043 8975,12045 8978,12048 8982,12051 8985,12054 8988,12057 8991,12060 8993,12064 8996,12067 8998,12071 9000,12075 9002,12079 9005,12087 9008,12097 9010,12106 9011,12116 9011,12127 9011,12129 9011,12136 9011,12142 9010,12149 9009,12155 9007,12161 9005,12167 9003,12172 9001,12178 8998,12183 8995,12188 8992,12193 8988,12197 8984,12201 8980,12205 8976,12208 8971,12211 8966,12214 8961,12217 8956,12219 8950,12220 8945,12222 8939,12223 8933,12223 8927,12224 8917,12223 8908,12222 8904,12221 8900,12220 8896,12218 8892,12217 8888,12215 8885,12213 8881,12211 8878,12209 8874,12206 8871,12203 8868,12200 8865,12197 8862,12194 8860,12190 8857,12187 8855,12183 8853,12179 8851,12175 8847,12167 8845,12158 8843,12148 8842,12138 8842,12128 8842,12125 Z M 8874,12129 L 8874,12136 8874,12143 8876,12150 8877,12156 8879,12162 8882,12168 8885,12173 8888,12178 8890,12180 8892,12182 8894,12184 8896,12186 8898,12188 8900,12189 8902,12191 8905,12192 8907,12193 8910,12194 8912,12195 8915,12195 8918,12196 8921,12196 8924,12196 8927,12197 8929,12196 8932,12196 8935,12196 8938,12195 8941,12195 8943,12194 8946,12193 8948,12192 8951,12191 8953,12189 8955,12188 8957,12186 8959,12184 8961,12182 8963,12180 8965,12178 8967,12175 8968,12173 8971,12167 8974,12162 8976,12155 8977,12148 8979,12141 8979,12133 8979,12125 8979,12118 8979,12111 8977,12104 8976,12098 8974,12092 8971,12086 8968,12081 8965,12076 8963,12074 8961,12072 8959,12070 8957,12068 8955,12066 8953,12065 8950,12063 8948,12062 8945,12061 8943,12060 8940,12059 8938,12059 8935,12058 8932,12058 8929,12058 8926,12058 8923,12058 8920,12058 8918,12058 8915,12059 8912,12059 8910,12060 8907,12061 8905,12062 8902,12063 8900,12065 8898,12066 8896,12068 8894,12070 8892,12072 8890,12074 8888,12076 8886,12078 8885,12081 8883,12083 8882,12086 8879,12092 8877,12098 8876,12105 8874,12113 8874,12121 8874,12129 Z"/>
    </g>
   </g>
  </g>
  <g class="com.sun.star.drawing.PolyLineShape">
   <g id="id51">
    <rect class="BoundingBox" stroke="none" fill="none" x="8487" y="12487" width="1733" height="414"/>
    <path fill="none" stroke="rgb(0,0,0)" stroke-width="25" stroke-linejoin="round" d="M 8500,12500 L 10100,12500 10100,12501 10100,12762"/>
    <path fill="rgb(0,0,0)" stroke="none" d="M 10219,12746 L 10100,12900 9982,12746 10219,12746 Z"/>
   </g>
  </g>
  <g class="com.sun.star.drawing.PolyLineShape">
   <g id="id52">
    <rect class="BoundingBox" stroke="none" fill="none" x="5900" y="13687" width="4214" height="533"/>
    <path fill="none" stroke="rgb(0,0,0)" stroke-width="25" stroke-linejoin="round" d="M 10100,13700 L 10100,14100 10088,14100 6038,14100"/>
    <path fill="rgb(0,0,0)" stroke="none" d="M 6054,14219 L 5900,14100 6054,13982 6054,14219 Z"/>
   </g>
  </g>
 </g>
</svg>