<?xml version="1.0" encoding="UTF-8"?>
<!DOCTYPE svg PUBLIC "-//W3C//DTD SVG 1.1//EN" "http://www.w3.org/Graphics/SVG/1.1/DTD/svg11.dtd">
<svg version="1.2" width="80.01mm" height="80.01mm" viewBox="14000 20000 8001 8001" preserveAspectRatio="xMidYMid" fill-rule="evenodd" stroke-width="28.222" stroke-linejoin="round" xmlns="http://www.w3.org/2000/svg" xmlns:ooo="http://xml.openoffice.org/svg/export" xmlns:xlink="http://www.w3.org/1999/xlink" xmlns:presentation="http://sun.com/xmlns/staroffice/presentation" xmlns:smil="http://www.w3.org/2001/SMIL20/" xmlns:anim="urn:oasis:names:tc:opendocument:xmlns:animation:1.0" xml:space="preserve">
 <defs class="EmbeddedBulletChars">
  <g id="bullet-char-template-57356" transform="scale(0.00048828125,-0.00048828125)">
   <path d="M 580,1141 L 1163,571 580,0 -4,571 580,1141 Z"/>
  </g>
  <g id="bullet-char-template-57354" transform="scale(0.00048828125,-0.00048828125)">
   <path d="M 8,1128 L 1137,1128 1137,0 8,0 8,1128 Z"/>
  </g>
  <g id="bullet-char-template-10146" transform="scale(0.00048828125,-0.00048828125)">
   <path d="M 174,0 L 602,739 174,1481 1456,739 174,0 Z M 1358,739 L 309,1346 659,739 1358,739 Z"/>
  </g>
  <g id="bullet-char-template-10132" transform="scale(0.00048828125,-0.00048828125)">
   <path d="M 2015,739 L 1276,0 717,0 1260,543 174,543 174,936 1260,936 717,1481 1274,1481 2015,739 Z"/>
  </g>
  <g id="bullet-char-template-10007" transform="scale(0.00048828125,-0.00048828125)">
   <path d="M 0,-2 C -7,14 -16,27 -25,37 L 356,567 C 262,823 215,952 215,954 215,979 228,992 255,992 264,992 276,990 289,987 310,991 331,999 354,1012 L 381,999 492,748 772,1049 836,1024 860,1049 C 881,1039 901,1025 922,1006 886,937 835,863 770,784 769,783 710,716 594,584 L 774,223 C 774,196 753,168 711,139 L 727,119 C 717,90 699,76 672,76 641,76 570,178 457,381 L 164,-76 C 142,-110 111,-127 72,-127 30,-127 9,-110 8,-76 1,-67 -2,-52 -2,-32 -2,-23 -1,-13 0,-2 Z"/>
  </g>
  <g id="bullet-char-template-10004" transform="scale(0.00048828125,-0.00048828125)">
   <path d="M 285,-33 C 182,-33 111,30 74,156 52,228 41,333 41,471 41,549 55,616 82,672 116,743 169,778 240,778 293,778 328,747 346,684 L 369,508 C 377,444 397,411 428,410 L 1163,1116 C 1174,1127 1196,1133 1229,1133 1271,1133 1292,1118 1292,1087 L 1292,965 C 1292,929 1282,901 1262,881 L 442,47 C 390,-6 338,-33 285,-33 Z"/>
  </g>
  <g id="bullet-char-template-9679" transform="scale(0.00048828125,-0.00048828125)">
   <path d="M 813,0 C 632,0 489,54 383,161 276,268 223,411 223,592 223,773 276,916 383,1023 489,1130 632,1184 813,1184 992,1184 1136,1130 1245,1023 1353,916 1407,772 1407,592 1407,412 1353,268 1245,161 1136,54 992,0 813,0 Z"/>
  </g>
  <g id="bullet-char-template-8226" transform="scale(0.00048828125,-0.00048828125)">
   <path d="M 346,457 C 273,457 209,483 155,535 101,586 74,649 74,723 74,796 101,859 155,911 209,963 273,989 346,989 419,989 480,963 531,910 582,859 608,796 608,723 608,648 583,586 532,535 482,483 420,457 346,457 Z"/>
  </g>
  <g id="bullet-char-template-8211" transform="scale(0.00048828125,-0.00048828125)">
   <path d="M -4,459 L 1135,459 1135,606 -4,606 -4,459 Z"/>
  </g>
  <g id="bullet-char-template-61548" transform="scale(0.00048828125,-0.00048828125)">
   <path d="M 173,740 C 173,903 231,1043 346,1159 462,1274 601,1332 765,1332 928,1332 1067,1274 1183,1159 1299,1043 1357,903 1357,740 1357,577 1299,437 1183,322 1067,206 928,148 765,148 601,148 462,206 346,322 231,437 173,577 173,740 Z"/>
  </g>
 </defs>
 <g class="Page">
  <g class="Group">
   <g class="com.sun.star.drawing.PolyPolygonShape">
    <g id="id3">
     <rect class="BoundingBox" stroke="none" fill="none" x="14000" y="20000" width="8001" height="8001"/>
    </g>
   </g>
   <g class="com.sun.star.drawing.PolyPolygonShape">
    <g id="id4">
     <rect class="BoundingBox" stroke="none" fill="none" x="14359" y="20543" width="569" height="1036"/>
     <path fill="rgb(0,0,0)" stroke="none" d="M 14359,21578 L 14359,21471 14589,21471 14589,20699 14406,20699 14406,20618 14437,20612 14467,20605 14496,20597 14523,20588 14549,20578 14574,20567 14598,20556 14621,20543 14719,20543 14719,21471 14927,21471 14927,21578 14359,21578 Z"/>
    </g>
   </g>
   <g class="com.sun.star.drawing.PolyPolygonShape">
    <g id="id5">
     <rect class="BoundingBox" stroke="none" fill="none" x="15202" y="20543" width="569" height="1036"/>
     <path fill="rgb(0,0,0)" stroke="none" d="M 15202,21578 L 15202,21471 15432,21471 15432,20699 15249,20699 15249,20618 15280,20612 15310,20605 15339,20597 15366,20588 15392,20578 15417,20567 15441,20556 15464,20543 15562,20543 15562,21471 15770,21471 15770,21578 15202,21578 Z"/>
    </g>
   </g>
   <g class="com.sun.star.drawing.PolyPolygonShape">
    <g id="id6">
     <rect class="BoundingBox" stroke="none" fill="none" x="15989" y="20523" width="647" height="1074"/>
     <path fill="rgb(0,0,0)" stroke="none" d="M 16314,21596 L 16295,21595 16277,21594 16259,21591 16242,21587 16225,21583 16209,21577 16194,21570 16179,21562 16164,21553 16150,21542 16136,21531 16123,21519 16111,21505 16099,21491 16087,21475 16076,21459 16066,21441 16056,21423 16038,21382 16024,21338 16011,21290 16002,21238 15995,21181 15991,21121 15990,21057 15991,20993 15995,20934 16002,20878 16011,20826 16024,20778 16038,20734 16056,20695 16066,20676 16076,20659 16087,20643 16099,20627 16111,20613 16123,20600 16136,20588 16150,20577 16164,20567 16179,20558 16194,20550 16209,20543 16225,20537 16242,20532 16259,20529 16277,20526 16295,20524 16314,20524 16332,20524 16350,20526 16368,20529 16385,20532 16401,20537 16417,20543 16433,20550 16448,20558 16462,20567 16476,20577 16490,20588 16503,20600 16515,20613 16527,20627 16538,20643 16549,20659 16560,20676 16569,20695 16587,20734 16601,20778 16613,20826 16623,20878 16629,20934 16633,20993 16635,21057 16633,21121 16629,21181 16623,21238 16613,21290 16601,21338 16587,21382 16569,21423 16560,21441 16549,21459 16538,21475 16527,21491 16515,21505 16503,21519 16490,21531 16476,21542 16462,21553 16448,21562 16433,21570 16417,21577 16401,21583 16385,21587 16368,21591 16350,21594 16332,21595 16314,21596 Z M 16314,21494 L 16325,21494 16336,21492 16346,21490 16357,21487 16367,21483 16376,21479 16386,21473 16395,21467 16404,21460 16412,21452 16421,21443 16428,21433 16436,21423 16443,21411 16457,21386 16469,21357 16480,21325 16489,21289 16496,21250 16502,21207 16506,21160 16509,21111 16509,21057 16509,21004 16506,20955 16502,20910 16496,20868 16489,20829 16480,20794 16470,20762 16458,20734 16444,20709 16437,20698 16429,20688 16421,20678 16413,20670 16405,20662 16396,20655 16387,20649 16377,20643 16367,20639 16357,20635 16347,20632 16336,20630 16325,20629 16314,20629 16302,20629 16291,20630 16280,20632 16270,20635 16260,20639 16250,20643 16240,20649 16231,20655 16222,20662 16214,20670 16205,20678 16197,20688 16190,20698 16182,20709 16168,20734 16156,20762 16145,20794 16136,20829 16129,20868 16123,20910 16119,20955 16116,21004 16115,21057 16116,21111 16119,21160 16123,21207 16129,21250 16136,21289 16145,21325 16156,21357 16168,21386 16182,21411 16190,21423 16197,21433 16205,21443 16214,21452 16222,21460 16231,21467 16240,21473 16250,21479 16260,21483 16270,21487 16280,21490 16291,21492 16302,21494 16314,21494 Z"/>
    </g>
   </g>
   <g class="com.sun.star.drawing.PolyPolygonShape">
    <g id="id7">
     <rect class="BoundingBox" stroke="none" fill="none" x="16889" y="20543" width="569" height="1036"/>
     <path fill="rgb(0,0,0)" stroke="none" d="M 16889,21578 L 16889,21471 17119,21471 17119,20699 16936,20699 16936,20618 16967,20612 16997,20605 17026,20597 17053,20588 17079,20578 17104,20567 17128,20556 17151,20543 17249,20543 17249,21471 17457,21471 17457,21578 16889,21578 Z"/>
    </g>
   </g>
   <g class="com.sun.star.drawing.PolyPolygonShape">
    <g id="id8">
     <rect class="BoundingBox" stroke="none" fill="none" x="17676" y="20523" width="647" height="1074"/>
     <path fill="rgb(0,0,0)" stroke="none" d="M 18001,21596 L 17982,21595 17964,21594 17946,21591 17929,21587 17912,21583 17896,21577 17881,21570 17866,21562 17851,21553 17837,21542 17823,21531 17810,21519 17798,21505 17786,21491 17774,21475 17763,21459 17753,21441 17743,21423 17725,21382 17711,21338 17698,21290 17689,21238 17682,21181 17678,21121 17677,21057 17678,20993 17682,20934 17689,20878 17698,20826 17711,20778 17725,20734 17743,20695 17753,20676 17763,20659 17774,20643 17786,20627 17798,20613 17810,20600 17823,20588 17837,20577 17851,20567 17866,20558 17881,20550 17896,20543 17912,20537 17929,20532 17946,20529 17964,20526 17982,20524 18001,20524 18019,20524 18037,20526 18055,20529 18072,20532 18088,20537 18104,20543 18120,20550 18135,20558 18149,20567 18163,20577 18177,20588 18190,20600 18202,20613 18214,20627 18225,20643 18236,20659 18247,20676 18256,20695 18274,20734 18288,20778 18300,20826 18310,20878 18316,20934 18320,20993 18322,21057 18320,21121 18316,21181 18310,21238 18300,21290 18288,21338 18274,21382 18256,21423 18247,21441 18236,21459 18225,21475 18214,21491 18202,21505 18190,21519 18177,21531 18163,21542 18149,21553 18135,21562 18120,21570 18104,21577 18088,21583 18072,21587 18055,21591 18037,21594 18019,21595 18001,21596 Z M 18001,21494 L 18012,21494 18023,21492 18033,21490 18044,21487 18054,21483 18063,21479 18073,21473 18082,21467 18091,21460 18099,21452 18108,21443 18115,21433 18123,21423 18130,21411 18144,21386 18156,21357 18167,21325 18176,21289 18183,21250 18189,21207 18193,21160 18196,21111 18196,21057 18196,21004 18193,20955 18189,20910 18183,20868 18176,20829 18167,20794 18157,20762 18145,20734 18131,20709 18124,20698 18116,20688 18108,20678 18100,20670 18092,20662 18083,20655 18074,20649 18064,20643 18054,20639 18044,20635 18034,20632 18023,20630 18012,20629 18001,20629 17989,20629 17978,20630 17967,20632 17957,20635 17947,20639 17937,20643 17927,20649 17918,20655 17909,20662 17901,20670 17892,20678 17884,20688 17877,20698 17869,20709 17855,20734 17843,20762 17832,20794 17823,20829 17816,20868 17810,20910 17806,20955 17803,21004 17802,21057 17803,21111 17806,21160 17810,21207 17816,21250 17823,21289 17832,21325 17843,21357 17855,21386 17869,21411 17877,21423 17884,21433 17892,21443 17901,21452 17909,21460 17918,21467 17927,21473 17937,21479 17947,21483 17957,21487 17967,21490 17978,21492 17989,21494 18001,21494 Z"/>
    </g>
   </g>
   <g class="com.sun.star.drawing.PolyPolygonShape">
    <g id="id9">
     <rect class="BoundingBox" stroke="none" fill="none" x="18575" y="20543" width="569" height="1036"/>
     <path fill="rgb(0,0,0)" stroke="none" d="M 18575,21578 L 18575,21471 18805,21471 18805,20699 18622,20699 18622,20618 18653,20612 18683,20605 18712,20597 18739,20588 18765,20578 18790,20567 18814,20556 18837,20543 18935,20543 18935,21471 19143,21471 19143,21578 18575,21578 Z"/>
    </g>
   </g>
   <g class="com.sun.star.drawing.PolyPolygonShape">
    <g id="id10">
     <rect class="BoundingBox" stroke="none" fill="none" x="19362" y="20523" width="647" height="1074"/>
     <path fill="rgb(0,0,0)" stroke="none" d="M 19687,21596 L 19668,21595 19650,21594 19632,21591 19615,21587 19598,21583 19582,21577 19567,21570 19552,21562 19537,21553 19523,21542 19509,21531 19496,21519 19484,21505 19472,21491 19460,21475 19449,21459 19439,21441 19429,21423 19411,21382 19397,21338 19384,21290 19375,21238 19368,21181 19364,21121 19363,21057 19364,20993 19368,20934 19375,20878 19384,20826 19397,20778 19411,20734 19429,20695 19439,20676 19449,20659 19460,20643 19472,20627 19484,20613 19496,20600 19509,20588 19523,20577 19537,20567 19552,20558 19567,20550 19582,20543 19598,20537 19615,20532 19632,20529 19650,20526 19668,20524 19687,20524 19705,20524 19723,20526 19741,20529 19758,20532 19774,20537 19790,20543 19806,20550 19821,20558 19835,20567 19849,20577 19863,20588 19876,20600 19888,20613 19900,20627 19911,20643 19922,20659 19933,20676 19942,20695 19960,20734 19974,20778 19986,20826 19996,20878 20002,20934 20006,20993 20008,21057 20006,21121 20002,21181 19996,21238 19986,21290 19974,21338 19960,21382 19942,21423 19933,21441 19922,21459 19911,21475 19900,21491 19888,21505 19876,21519 19863,21531 19849,21542 19835,21553 19821,21562 19806,21570 19790,21577 19774,21583 19758,21587 19741,21591 19723,21594 19705,21595 19687,21596 Z M 19687,21494 L 19698,21494 19709,21492 19719,21490 19730,21487 19740,21483 19749,21479 19759,21473 19768,21467 19777,21460 19785,21452 19794,21443 19801,21433 19809,21423 19816,21411 19830,21386 19842,21357 19853,21325 19862,21289 19869,21250 19875,21207 19879,21160 19882,21111 19882,21057 19882,21004 19879,20955 19875,20910 19869,20868 19862,20829 19853,20794 19843,20762 19831,20734 19817,20709 19810,20698 19802,20688 19794,20678 19786,20670 19778,20662 19769,20655 19760,20649 19750,20643 19740,20639 19730,20635 19720,20632 19709,20630 19698,20629 19687,20629 19675,20629 19664,20630 19653,20632 19643,20635 19633,20639 19623,20643 19613,20649 19604,20655 19595,20662 19587,20670 19578,20678 19570,20688 19563,20698 19555,20709 19541,20734 19529,20762 19518,20794 19509,20829 19502,20868 19496,20910 19492,20955 19489,21004 19488,21057 19489,21111 19492,21160 19496,21207 19502,21250 19509,21289 19518,21325 19529,21357 19541,21386 19555,21411 19563,21423 19570,21433 19578,21443 19587,21452 19595,21460 19604,21467 19613,21473 19623,21479 19633,21483 19643,21487 19653,21490 19664,21492 19675,21494 19687,21494 Z"/>
    </g>
   </g>
   <g class="com.sun.star.drawing.PolyPolygonShape">
    <g id="id11">
     <rect class="BoundingBox" stroke="none" fill="none" x="20261" y="20543" width="569" height="1036"/>
     <path fill="rgb(0,0,0)" stroke="none" d="M 20261,21578 L 20261,21471 20491,21471 20491,20699 20308,20699 20308,20618 20339,20612 20369,20605 20398,20597 20425,20588 20451,20578 20476,20567 20500,20556 20523,20543 20621,20543 20621,21471 20829,21471 20829,21578 20261,21578 Z"/>
    </g>
   </g>
   <g class="com.sun.star.drawing.PolyPolygonShape">
    <g id="id12">
     <rect class="BoundingBox" stroke="none" fill="none" x="21104" y="20543" width="569" height="1036"/>
     <path fill="rgb(0,0,0)" stroke="none" d="M 21104,21578 L 21104,21471 21334,21471 21334,20699 21151,20699 21151,20618 21182,20612 21212,20605 21241,20597 21268,20588 21294,20578 21319,20567 21343,20556 21366,20543 21464,20543 21464,21471 21672,21471 21672,21578 21104,21578 Z"/>
    </g>
   </g>
   <g class="com.sun.star.drawing.PolyPolygonShape">
    <g id="id13">
     <rect class="BoundingBox" stroke="none" fill="none" x="14303" y="22492" width="647" height="1074"/>
     <path fill="rgb(0,0,0)" stroke="none" d="M 14628,23565 L 14609,23564 14591,23563 14573,23560 14556,23556 14539,23552 14523,23546 14508,23539 14493,23531 14478,23522 14464,23511 14450,23500 14437,23488 14425,23474 14413,23460 14401,23444 14390,23428 14380,23410 14370,23392 14352,23351 14338,23307 14325,23259 14316,23207 14309,23150 14305,23090 14304,23026 14305,22962 14309,22903 14316,22847 14325,22795 14338,22747 14352,22703 14370,22664 14380,22645 14390,22628 14401,22612 14413,22596 14425,22582 14437,22569 14450,22557 14464,22546 14478,22536 14493,22527 14508,22519 14523,22512 14539,22506 14556,22501 14573,22498 14591,22495 14609,22493 14628,22493 14646,22493 14664,22495 14682,22498 14699,22501 14715,22506 14731,22512 14747,22519 14762,22527 14776,22536 14790,22546 14804,22557 14817,22569 14829,22582 14841,22596 14852,22612 14863,22628 14874,22645 14883,22664 14901,22703 14915,22747 14927,22795 14937,22847 14943,22903 14947,22962 14949,23026 14947,23090 14943,23150 14937,23207 14927,23259 14915,23307 14901,23351 14883,23392 14874,23410 14863,23428 14852,23444 14841,23460 14829,23474 14817,23488 14804,23500 14790,23511 14776,23522 14762,23531 14747,23539 14731,23546 14715,23552 14699,23556 14682,23560 14664,23563 14646,23564 14628,23565 Z M 14628,23463 L 14639,23463 14650,23461 14660,23459 14671,23456 14681,23452 14690,23448 14700,23442 14709,23436 14718,23429 14726,23421 14735,23412 14742,23402 14750,23392 14757,23380 14771,23355 14783,23326 14794,23294 14803,23258 14810,23219 14816,23176 14820,23129 14823,23080 14823,23026 14823,22973 14820,22924 14816,22879 14810,22837 14803,22798 14794,22763 14784,22731 14772,22703 14758,22678 14751,22667 14743,22657 14735,22647 14727,22639 14719,22631 14710,22624 14701,22618 14691,22612 14681,22608 14671,22604 14661,22601 14650,22599 14639,22598 14628,22598 14616,22598 14605,22599 14594,22601 14584,22604 14574,22608 14564,22612 14554,22618 14545,22624 14536,22631 14528,22639 14519,22647 14511,22657 14504,22667 14496,22678 14482,22703 14470,22731 14459,22763 14450,22798 14443,22837 14437,22879 14433,22924 14430,22973 14429,23026 14430,23080 14433,23129 14437,23176 14443,23219 14450,23258 14459,23294 14470,23326 14482,23355 14496,23380 14504,23392 14511,23402 14519,23412 14528,23421 14536,23429 14545,23436 14554,23442 14564,23448 14574,23452 14584,23456 14594,23459 14605,23461 14616,23463 14628,23463 Z"/>
    </g>
   </g>
   <g class="com.sun.star.drawing.PolyPolygonShape">
    <g id="id14">
     <rect class="BoundingBox" stroke="none" fill="none" x="15146" y="22492" width="647" height="1074"/>
     <path fill="rgb(0,0,0)" stroke="none" d="M 15471,23565 L 15452,23564 15434,23563 15416,23560 15399,23556 15382,23552 15366,23546 15351,23539 15336,23531 15321,23522 15307,23511 15293,23500 15280,23488 15268,23474 15256,23460 15244,23444 15233,23428 15223,23410 15213,23392 15195,23351 15181,23307 15168,23259 15159,23207 15152,23150 15148,23090 15147,23026 15148,22962 15152,22903 15159,22847 15168,22795 15181,22747 15195,22703 15213,22664 15223,22645 15233,22628 15244,22612 15256,22596 15268,22582 15280,22569 15293,22557 15307,22546 15321,22536 15336,22527 15351,22519 15366,22512 15382,22506 15399,22501 15416,22498 15434,22495 15452,22493 15471,22493 15489,22493 15507,22495 15525,22498 15542,22501 15558,22506 15574,22512 15590,22519 15605,22527 15619,22536 15633,22546 15647,22557 15660,22569 15672,22582 15684,22596 15695,22612 15706,22628 15717,22645 15726,22664 15744,22703 15758,22747 15770,22795 15780,22847 15786,22903 15790,22962 15792,23026 15790,23090 15786,23150 15780,23207 15770,23259 15758,23307 15744,23351 15726,23392 15717,23410 15706,23428 15695,23444 15684,23460 15672,23474 15660,23488 15647,23500 15633,23511 15619,23522 15605,23531 15590,23539 15574,23546 15558,23552 15542,23556 15525,23560 15507,23563 15489,23564 15471,23565 Z M 15471,23463 L 15482,23463 15493,23461 15503,23459 15514,23456 15524,23452 15533,23448 15543,23442 15552,23436 15561,23429 15569,23421 15578,23412 15585,23402 15593,23392 15600,23380 15614,23355 15626,23326 15637,23294 15646,23258 15653,23219 15659,23176 15663,23129 15666,23080 15666,23026 15666,22973 15663,22924 15659,22879 15653,22837 15646,22798 15637,22763 15627,22731 15615,22703 15601,22678 15594,22667 15586,22657 15578,22647 15570,22639 15562,22631 15553,22624 15544,22618 15534,22612 15524,22608 15514,22604 15504,22601 15493,22599 15482,22598 15471,22598 15459,22598 15448,22599 15437,22601 15427,22604 15417,22608 15407,22612 15397,22618 15388,22624 15379,22631 15371,22639 15362,22647 15354,22657 15347,22667 15339,22678 15325,22703 15313,22731 15302,22763 15293,22798 15286,22837 15280,22879 15276,22924 15273,22973 15272,23026 15273,23080 15276,23129 15280,23176 15286,23219 15293,23258 15302,23294 15313,23326 15325,23355 15339,23380 15347,23392 15354,23402 15362,23412 15371,23421 15379,23429 15388,23436 15397,23442 15407,23448 15417,23452 15427,23456 15437,23459 15448,23461 15459,23463 15471,23463 Z"/>
    </g>
   </g>
   <g class="com.sun.star.drawing.PolyPolygonShape">
    <g id="id15">
     <rect class="BoundingBox" stroke="none" fill="none" x="16045" y="22512" width="569" height="1036"/>
     <path fill="rgb(0,0,0)" stroke="none" d="M 16045,23547 L 16045,23440 16275,23440 16275,22668 16092,22668 16092,22587 16123,22581 16153,22574 16182,22566 16209,22557 16235,22547 16260,22536 16284,22525 16307,22512 16405,22512 16405,23440 16613,23440 16613,23547 16045,23547 Z"/>
    </g>
   </g>
   <g class="com.sun.star.drawing.PolyPolygonShape">
    <g id="id16">
     <rect class="BoundingBox" stroke="none" fill="none" x="16833" y="22492" width="647" height="1074"/>
     <path fill="rgb(0,0,0)" stroke="none" d="M 17158,23565 L 17139,23564 17121,23563 17103,23560 17086,23556 17069,23552 17053,23546 17038,23539 17022,23531 17008,23522 16994,23511 16980,23500 16967,23488 16955,23474 16943,23460 16931,23444 16920,23428 16910,23410 16900,23392 16882,23351 16868,23307 16855,23259 16846,23207 16839,23150 16835,23090 16834,23026 16835,22962 16839,22903 16846,22847 16855,22795 16868,22747 16882,22703 16900,22664 16910,22645 16920,22628 16931,22612 16943,22596 16955,22582 16967,22569 16980,22557 16994,22546 17008,22536 17022,22527 17038,22519 17053,22512 17069,22506 17086,22501 17103,22498 17121,22495 17139,22493 17158,22493 17176,22493 17194,22495 17212,22498 17229,22501 17245,22506 17261,22512 17277,22519 17292,22527 17306,22536 17320,22546 17334,22557 17347,22569 17359,22582 17371,22596 17382,22612 17393,22628 17404,22645 17413,22664 17431,22703 17445,22747 17457,22795 17467,22847 17473,22903 17477,22962 17479,23026 17477,23090 17473,23150 17467,23207 17457,23259 17445,23307 17431,23351 17413,23392 17404,23410 17393,23428 17382,23444 17371,23460 17359,23474 17347,23488 17334,23500 17320,23511 17306,23522 17292,23531 17277,23539 17261,23546 17245,23552 17229,23556 17212,23560 17194,23563 17176,23564 17158,23565 Z M 17158,23463 L 17169,23463 17180,23461 17190,23459 17201,23456 17211,23452 17220,23448 17230,23442 17239,23436 17248,23429 17256,23421 17265,23412 17272,23402 17280,23392 17287,23380 17301,23355 17313,23326 17324,23294 17333,23258 17340,23219 17346,23176 17350,23129 17353,23080 17353,23026 17353,22973 17350,22924 17346,22879 17340,22837 17333,22798 17324,22763 17314,22731 17302,22703 17288,22678 17281,22667 17273,22657 17265,22647 17257,22639 17249,22631 17240,22624 17231,22618 17221,22612 17211,22608 17201,22604 17191,22601 17180,22599 17169,22598 17158,22598 17146,22598 17135,22599 17124,22601 17114,22604 17104,22608 17094,22612 17084,22618 17075,22624 17066,22631 17058,22639 17049,22647 17041,22657 17034,22667 17026,22678 17012,22703 17000,22731 16989,22763 16980,22798 16973,22837 16967,22879 16963,22924 16960,22973 16959,23026 16960,23080 16963,23129 16967,23176 16973,23219 16980,23258 16989,23294 17000,23326 17012,23355 17026,23380 17034,23392 17041,23402 17049,23412 17058,23421 17066,23429 17075,23436 17084,23442 17094,23448 17104,23452 17114,23456 17124,23459 17135,23461 17146,23463 17158,23463 Z"/>
    </g>
   </g>
   <g class="com.sun.star.drawing.PolyPolygonShape">
    <g id="id17">
     <rect class="BoundingBox" stroke="none" fill="none" x="17732" y="22512" width="569" height="1036"/>
     <path fill="rgb(0,0,0)" stroke="none" d="M 17732,23547 L 17732,23440 17962,23440 17962,22668 17779,22668 17779,22587 17810,22581 17840,22574 17869,22566 17896,22557 17922,22547 17947,22536 17971,22525 17994,22512 18092,22512 18092,23440 18300,23440 18300,23547 17732,23547 Z"/>
    </g>
   </g>
   <g class="com.sun.star.drawing.PolyPolygonShape">
    <g id="id18">
     <rect class="BoundingBox" stroke="none" fill="none" x="18575" y="22512" width="569" height="1036"/>
     <path fill="rgb(0,0,0)" stroke="none" d="M 18575,23547 L 18575,23440 18805,23440 18805,22668 18622,22668 18622,22587 18653,22581 18683,22574 18712,22566 18739,22557 18765,22547 18790,22536 18814,22525 18837,22512 18935,22512 18935,23440 19143,23440 19143,23547 18575,23547 Z"/>
    </g>
   </g>
   <g class="com.sun.star.drawing.PolyPolygonShape">
    <g id="id19">
     <rect class="BoundingBox" stroke="none" fill="none" x="19362" y="22492" width="647" height="1074"/>
     <path fill="rgb(0,0,0)" stroke="none" d="M 19687,23565 L 19668,23564 19650,23563 19632,23560 19615,23556 19598,23552 19582,23546 19567,23539 19552,23531 19537,23522 19523,23511 19509,23500 19496,23488 19484,23474 19472,23460 19460,23444 19449,23428 19439,23410 19429,23392 19411,23351 19397,23307 19384,23259 19375,23207 19368,23150 19364,23090 19363,23026 19364,22962 19368,22903 19375,22847 19384,22795 19397,22747 19411,22703 19429,22664 19439,22645 19449,22628 19460,22612 19472,22596 19484,22582 19496,22569 19509,22557 19523,22546 19537,22536 19552,22527 19567,22519 19582,22512 19598,22506 19615,22501 19632,22498 19650,22495 19668,22493 19687,22493 19705,22493 19723,22495 19741,22498 19758,22501 19774,22506 19790,22512 19806,22519 19821,22527 19835,22536 19849,22546 19863,22557 19876,22569 19888,22582 19900,22596 19911,22612 19922,22628 19933,22645 19942,22664 19960,22703 19974,22747 19986,22795 19996,22847 20002,22903 20006,22962 20008,23026 20006,23090 20002,23150 19996,23207 19986,23259 19974,23307 19960,23351 19942,23392 19933,23410 19922,23428 19911,23444 19900,23460 19888,23474 19876,23488 19863,23500 19849,23511 19835,23522 19821,23531 19806,23539 19790,23546 19774,23552 19758,23556 19741,23560 19723,23563 19705,23564 19687,23565 Z M 19687,23463 L 19698,23463 19709,23461 19719,23459 19730,23456 19740,23452 19749,23448 19759,23442 19768,23436 19777,23429 19785,23421 19794,23412 19801,23402 19809,23392 19816,23380 19830,23355 19842,23326 19853,23294 19862,23258 19869,23219 19875,23176 19879,23129 19882,23080 19882,23026 19882,22973 19879,22924 19875,22879 19869,22837 19862,22798 19853,22763 19843,22731 19831,22703 19817,22678 19810,22667 19802,22657 19794,22647 19786,22639 19778,22631 19769,22624 19760,22618 19750,22612 19740,22608 19730,22604 19720,22601 19709,22599 19698,22598 19687,22598 19675,22598 19664,22599 19653,22601 19643,22604 19633,22608 19623,22612 19613,22618 19604,22624 19595,22631 19587,22639 19578,22647 19570,22657 19563,22667 19555,22678 19541,22703 19529,22731 19518,22763 19509,22798 19502,22837 19496,22879 19492,22924 19489,22973 19488,23026 19489,23080 19492,23129 19496,23176 19502,23219 19509,23258 19518,23294 19529,23326 19541,23355 19555,23380 19563,23392 19570,23402 19578,23412 19587,23421 19595,23429 19604,23436 19613,23442 19623,23448 19633,23452 19643,23456 19653,23459 19664,23461 19675,23463 19687,23463 Z"/>
    </g>
   </g>
   <g class="com.sun.star.drawing.PolyPolygonShape">
    <g id="id20">
     <rect class="BoundingBox" stroke="none" fill="none" x="20205" y="22492" width="647" height="1074"/>
     <path fill="rgb(0,0,0)" stroke="none" d="M 20530,23565 L 20511,23564 20493,23563 20475,23560 20458,23556 20441,23552 20425,23546 20410,23539 20395,23531 20380,23522 20366,23511 20352,23500 20339,23488 20327,23474 20315,23460 20303,23444 20292,23428 20282,23410 20272,23392 20254,23351 20240,23307 20227,23259 20218,23207 20211,23150 20207,23090 20206,23026 20207,22962 20211,22903 20218,22847 20227,22795 20240,22747 20254,22703 20272,22664 20282,22645 20292,22628 20303,22612 20315,22596 20327,22582 20339,22569 20352,22557 20366,22546 20380,22536 20395,22527 20410,22519 20425,22512 20441,22506 20458,22501 20475,22498 20493,22495 20511,22493 20530,22493 20548,22493 20566,22495 20584,22498 20601,22501 20617,22506 20633,22512 20649,22519 20664,22527 20678,22536 20692,22546 20706,22557 20719,22569 20731,22582 20743,22596 20754,22612 20765,22628 20776,22645 20785,22664 20803,22703 20817,22747 20829,22795 20839,22847 20845,22903 20849,22962 20851,23026 20849,23090 20845,23150 20839,23207 20829,23259 20817,23307 20803,23351 20785,23392 20776,23410 20765,23428 20754,23444 20743,23460 20731,23474 20719,23488 20706,23500 20692,23511 20678,23522 20664,23531 20649,23539 20633,23546 20617,23552 20601,23556 20584,23560 20566,23563 20548,23564 20530,23565 Z M 20530,23463 L 20541,23463 20552,23461 20562,23459 20573,23456 20583,23452 20592,23448 20602,23442 20611,23436 20620,23429 20628,23421 20637,23412 20644,23402 20652,23392 20659,23380 20673,23355 20685,23326 20696,23294 20705,23258 20712,23219 20718,23176 20722,23129 20725,23080 20725,23026 20725,22973 20722,22924 20718,22879 20712,22837 20705,22798 20696,22763 20686,22731 20674,22703 20660,22678 20653,22667 20645,22657 20637,22647 20629,22639 20621,22631 20612,22624 20603,22618 20593,22612 20583,22608 20573,22604 20563,22601 20552,22599 20541,22598 20530,22598 20518,22598 20507,22599 20496,22601 20486,22604 20476,22608 20466,22612 20456,22618 20447,22624 20438,22631 20430,22639 20421,22647 20413,22657 20406,22667 20398,22678 20384,22703 20372,22731 20361,22763 20352,22798 20345,22837 20339,22879 20335,22924 20332,22973 20331,23026 20332,23080 20335,23129 20339,23176 20345,23219 20352,23258 20361,23294 20372,23326 20384,23355 20398,23380 20406,23392 20413,23402 20421,23412 20430,23421 20438,23429 20447,23436 20456,23442 20466,23448 20476,23452 20486,23456 20496,23459 20507,23461 20518,23463 20530,23463 Z"/>
    </g>
   </g>
   <g class="com.sun.star.drawing.PolyPolygonShape">
    <g id="id21">
     <rect class="BoundingBox" stroke="none" fill="none" x="21104" y="22512" width="569" height="1036"/>
     <path fill="rgb(0,0,0)" stroke="none" d="M 21104,23547 L 21104,23440 21334,23440 21334,22668 21151,22668 21151,22587 21182,22581 21212,22574 21241,22566 21268,22557 21294,22547 21319,22536 21343,22525 21366,22512 21464,22512 21464,23440 21672,23440 21672,23547 21104,23547 Z"/>
    </g>
   </g>
   <g class="com.sun.star.drawing.PolyPolygonShape">
    <g id="id22">
     <rect class="BoundingBox" stroke="none" fill="none" x="14303" y="24461" width="647" height="1074"/>
     <path fill="rgb(0,0,0)" stroke="none" d="M 14628,25534 L 14609,25533 14591,25532 14573,25529 14556,25525 14539,25521 14523,25515 14508,25508 14493,25500 14478,25491 14464,25480 14450,25469 14437,25457 14425,25443 14413,25429 14401,25413 14390,25397 14380,25379 14370,25361 14352,25320 14338,25276 14325,25228 14316,25176 14309,25119 14305,25059 14304,24995 14305,24931 14309,24872 14316,24816 14325,24764 14338,24716 14352,24672 14370,24633 14380,24614 14390,24597 14401,24581 14413,24565 14425,24551 14437,24538 14450,24526 14464,24515 14478,24505 14493,24496 14508,24488 14523,24481 14539,24475 14556,24470 14573,24467 14591,24464 14609,24462 14628,24462 14646,24462 14664,24464 14682,24467 14699,24470 14715,24475 14731,24481 14747,24488 14762,24496 14776,24505 14790,24515 14804,24526 14817,24538 14829,24551 14841,24565 14852,24581 14863,24597 14874,24614 14883,24633 14901,24672 14915,24716 14927,24764 14937,24816 14943,24872 14947,24931 14949,24995 14947,25059 14943,25119 14937,25176 14927,25228 14915,25276 14901,25320 14883,25361 14874,25379 14863,25397 14852,25413 14841,25429 14829,25443 14817,25457 14804,25469 14790,25480 14776,25491 14762,25500 14747,25508 14731,25515 14715,25521 14699,25525 14682,25529 14664,25532 14646,25533 14628,25534 Z M 14628,25432 L 14639,25432 14650,25430 14660,25428 14671,25425 14681,25421 14690,25417 14700,25411 14709,25405 14718,25398 14726,25390 14735,25381 14742,25371 14750,25361 14757,25349 14771,25324 14783,25295 14794,25263 14803,25227 14810,25188 14816,25145 14820,25098 14823,25049 14823,24995 14823,24942 14820,24893 14816,24848 14810,24805 14803,24767 14794,24732 14784,24700 14772,24672 14758,24647 14751,24636 14743,24626 14735,24616 14727,24608 14719,24600 14710,24593 14701,24587 14691,24581 14681,24577 14671,24573 14661,24570 14650,24568 14639,24567 14628,24567 14616,24567 14605,24568 14594,24570 14584,24573 14574,24577 14564,24581 14554,24587 14545,24593 14536,24600 14528,24608 14519,24616 14511,24626 14504,24636 14496,24647 14482,24672 14470,24700 14459,24732 14450,24767 14443,24805 14437,24848 14433,24893 14430,24942 14429,24995 14430,25049 14433,25098 14437,25145 14443,25188 14450,25227 14459,25263 14470,25295 14482,25324 14496,25349 14504,25361 14511,25371 14519,25381 14528,25390 14536,25398 14545,25405 14554,25411 14564,25417 14574,25421 14584,25425 14594,25428 14605,25430 14616,25432 14628,25432 Z"/>
    </g>
   </g>
   <g class="com.sun.star.drawing.PolyPolygonShape">
    <g id="id23">
     <rect class="BoundingBox" stroke="none" fill="none" x="15202" y="24481" width="569" height="1036"/>
     <path fill="rgb(0,0,0)" stroke="none" d="M 15202,25516 L 15202,25409 15432,25409 15432,24637 15249,24637 15249,24556 15280,24550 15310,24543 15339,24535 15366,24526 15392,24516 15417,24505 15441,24494 15464,24481 15562,24481 15562,25409 15770,25409 15770,25516 15202,25516 Z"/>
    </g>
   </g>
   <g class="com.sun.star.drawing.PolyPolygonShape">
    <g id="id24">
     <rect class="BoundingBox" stroke="none" fill="none" x="15989" y="24461" width="647" height="1074"/>
     <path fill="rgb(0,0,0)" stroke="none" d="M 16314,25534 L 16295,25533 16277,25532 16259,25529 16242,25525 16225,25521 16209,25515 16194,25508 16179,25500 16164,25491 16150,25480 16136,25469 16123,25457 16111,25443 16099,25429 16087,25413 16076,25397 16066,25379 16056,25361 16038,25320 16024,25276 16011,25228 16002,25176 15995,25119 15991,25059 15990,24995 15991,24931 15995,24872 16002,24816 16011,24764 16024,24716 16038,24672 16056,24633 16066,24614 16076,24597 16087,24581 16099,24565 16111,24551 16123,24538 16136,24526 16150,24515 16164,24505 16179,24496 16194,24488 16209,24481 16225,24475 16242,24470 16259,24467 16277,24464 16295,24462 16314,24462 16332,24462 16350,24464 16368,24467 16385,24470 16401,24475 16417,24481 16433,24488 16448,24496 16462,24505 16476,24515 16490,24526 16503,24538 16515,24551 16527,24565 16538,24581 16549,24597 16560,24614 16569,24633 16587,24672 16601,24716 16613,24764 16623,24816 16629,24872 16633,24931 16635,24995 16633,25059 16629,25119 16623,25176 16613,25228 16601,25276 16587,25320 16569,25361 16560,25379 16549,25397 16538,25413 16527,25429 16515,25443 16503,25457 16490,25469 16476,25480 16462,25491 16448,25500 16433,25508 16417,25515 16401,25521 16385,25525 16368,25529 16350,25532 16332,25533 16314,25534 Z M 16314,25432 L 16325,25432 16336,25430 16346,25428 16357,25425 16367,25421 16376,25417 16386,25411 16395,25405 16404,25398 16412,25390 16421,25381 16428,25371 16436,25361 16443,25349 16457,25324 16469,25295 16480,25263 16489,25227 16496,25188 16502,25145 16506,25098 16509,25049 16509,24995 16509,24942 16506,24893 16502,24848 16496,24805 16489,24767 16480,24732 16470,24700 16458,24672 16444,24647 16437,24636 16429,24626 16421,24616 16413,24608 16405,24600 16396,24593 16387,24587 16377,24581 16367,24577 16357,24573 16347,24570 16336,24568 16325,24567 16314,24567 16302,24567 16291,24568 16280,24570 16270,24573 16260,24577 16250,24581 16240,24587 16231,24593 16222,24600 16214,24608 16205,24616 16197,24626 16190,24636 16182,24647 16168,24672 16156,24700 16145,24732 16136,24767 16129,24805 16123,24848 16119,24893 16116,24942 16115,24995 16116,25049 16119,25098 16123,25145 16129,25188 16136,25227 16145,25263 16156,25295 16168,25324 16182,25349 16190,25361 16197,25371 16205,25381 16214,25390 16222,25398 16231,25405 16240,25411 16250,25417 16260,25421 16270,25425 16280,25428 16291,25430 16302,25432 16314,25432 Z"/>
    </g>
   </g>
   <g class="com.sun.star.drawing.PolyPolygonShape">
    <g id="id25">
     <rect class="BoundingBox" stroke="none" fill="none" x="16889" y="24481" width="569" height="1036"/>
     <path fill="rgb(0,0,0)" stroke="none" d="M 16889,25516 L 16889,25409 17119,25409 17119,24637 16936,24637 16936,24556 16967,24550 16997,24543 17026,24535 17053,24526 17079,24516 17104,24505 17128,24494 17151,24481 17249,24481 17249,25409 17457,25409 17457,25516 16889,25516 Z"/>
    </g>
   </g>
   <g class="com.sun.star.drawing.PolyPolygonShape">
    <g id="id26">
     <rect class="BoundingBox" stroke="none" fill="none" x="17732" y="24481" width="569" height="1036"/>
     <path fill="rgb(0,0,0)" stroke="none" d="M 17732,25516 L 17732,25409 17962,25409 17962,24637 17779,24637 17779,24556 17810,24550 17840,24543 17869,24535 17896,24526 17922,24516 17947,24505 17971,24494 17994,24481 18092,24481 18092,25409 18300,25409 18300,25516 17732,25516 Z"/>
    </g>
   </g>
   <g class="com.sun.star.drawing.PolyPolygonShape">
    <g id="id27">
     <rect class="BoundingBox" stroke="none" fill="none" x="18575" y="24481" width="569" height="1036"/>
     <path fill="rgb(0,0,0)" stroke="none" d="M 18575,25516 L 18575,25409 18805,25409 18805,24637 18622,24637 18622,24556 18653,24550 18683,24543 18712,24535 18739,24526 18765,24516 18790,24505 18814,24494 18837,24481 18935,24481 18935,25409 19143,25409 19143,25516 18575,25516 Z"/>
    </g>
   </g>
   <g class="com.sun.star.drawing.PolyPolygonShape">
    <g id="id28">
     <rect class="BoundingBox" stroke="none" fill="none" x="19362" y="24461" width="647" height="1074"/>
     <path fill="rgb(0,0,0)" stroke="none" d="M 19687,25534 L 19668,25533 19650,25532 19632,25529 19615,25525 19598,25521 19582,25515 19567,25508 19552,25500 19537,25491 19523,25480 19509,25469 19496,25457 19484,25443 19472,25429 19460,25413 19449,25397 19439,25379 19429,25361 19411,25320 19397,25276 19384,25228 19375,25176 19368,25119 19364,25059 19363,24995 19364,24931 19368,24872 19375,24816 19384,24764 19397,24716 19411,24672 19429,24633 19439,24614 19449,24597 19460,24581 19472,24565 19484,24551 19496,24538 19509,24526 19523,24515 19537,24505 19552,24496 19567,24488 19582,24481 19598,24475 19615,24470 19632,24467 19650,24464 19668,24462 19687,24462 19705,24462 19723,24464 19741,24467 19758,24470 19774,24475 19790,24481 19806,24488 19821,24496 19835,24505 19849,24515 19863,24526 19876,24538 19888,24551 19900,24565 19911,24581 19922,24597 19933,24614 19942,24633 19960,24672 19974,24716 19986,24764 19996,24816 20002,24872 20006,24931 20008,24995 20006,25059 20002,25119 19996,25176 19986,25228 19974,25276 19960,25320 19942,25361 19933,25379 19922,25397 19911,25413 19900,25429 19888,25443 19876,25457 19863,25469 19849,25480 19835,25491 19821,25500 19806,25508 19790,25515 19774,25521 19758,25525 19741,25529 19723,25532 19705,25533 19687,25534 Z M 19687,25432 L 19698,25432 19709,25430 19719,25428 19730,25425 19740,25421 19749,25417 19759,25411 19768,25405 19777,25398 19785,25390 19794,25381 19801,25371 19809,25361 19816,25349 19830,25324 19842,25295 19853,25263 19862,25227 19869,25188 19875,25145 19879,25098 19882,25049 19882,24995 19882,24942 19879,24893 19875,24848 19869,24805 19862,24767 19853,24732 19843,24700 19831,24672 19817,24647 19810,24636 19802,24626 19794,24616 19786,24608 19778,24600 19769,24593 19760,24587 19750,24581 19740,24577 19730,24573 19720,24570 19709,24568 19698,24567 19687,24567 19675,24567 19664,24568 19653,24570 19643,24573 19633,24577 19623,24581 19613,24587 19604,24593 19595,24600 19587,24608 19578,24616 19570,24626 19563,24636 19555,24647 19541,24672 19529,24700 19518,24732 19509,24767 19502,24805 19496,24848 19492,24893 19489,24942 19488,24995 19489,25049 19492,25098 19496,25145 19502,25188 19509,25227 19518,25263 19529,25295 19541,25324 19555,25349 19563,25361 19570,25371 19578,25381 19587,25390 19595,25398 19604,25405 19613,25411 19623,25417 19633,25421 19643,25425 19653,25428 19664,25430 19675,25432 19687,25432 Z"/>
    </g>
   </g>
   <g class="com.sun.star.drawing.PolyPolygonShape">
    <g id="id29">
     <rect class="BoundingBox" stroke="none" fill="none" x="20261" y="24481" width="569" height="1036"/>
     <path fill="rgb(0,0,0)" stroke="none" d="M 20261,25516 L 20261,25409 20491,25409 20491,24637 20308,24637 20308,24556 20339,24550 20369,24543 20398,24535 20425,24526 20451,24516 20476,24505 20500,24494 20523,24481 20621,24481 20621,25409 20829,25409 20829,25516 20261,25516 Z"/>
    </g>
   </g>
   <g class="com.sun.star.drawing.PolyPolygonShape">
    <g id="id30">
     <rect class="BoundingBox" stroke="none" fill="none" x="21048" y="24461" width="647" height="1074"/>
     <path fill="rgb(0,0,0)" stroke="none" d="M 21373,25534 L 21354,25533 21336,25532 21318,25529 21301,25525 21284,25521 21268,25515 21253,25508 21238,25500 21223,25491 21209,25480 21195,25469 21182,25457 21170,25443 21158,25429 21146,25413 21135,25397 21125,25379 21115,25361 21097,25320 21083,25276 21070,25228 21061,25176 21054,25119 21050,25059 21049,24995 21050,24931 21054,24872 21061,24816 21070,24764 21083,24716 21097,24672 21115,24633 21125,24614 21135,24597 21146,24581 21158,24565 21170,24551 21182,24538 21195,24526 21209,24515 21223,24505 21238,24496 21253,24488 21268,24481 21284,24475 21301,24470 21318,24467 21336,24464 21354,24462 21373,24462 21391,24462 21409,24464 21427,24467 21444,24470 21460,24475 21476,24481 21492,24488 21507,24496 21521,24505 21535,24515 21549,24526 21562,24538 21574,24551 21586,24565 21597,24581 21608,24597 21619,24614 21628,24633 21646,24672 21660,24716 21672,24764 21682,24816 21688,24872 21692,24931 21694,24995 21692,25059 21688,25119 21682,25176 21672,25228 21660,25276 21646,25320 21628,25361 21619,25379 21608,25397 21597,25413 21586,25429 21574,25443 21562,25457 21549,25469 21535,25480 21521,25491 21507,25500 21492,25508 21476,25515 21460,25521 21444,25525 21427,25529 21409,25532 21391,25533 21373,25534 Z M 21373,25432 L 21384,25432 21395,25430 21405,25428 21416,25425 21426,25421 21435,25417 21445,25411 21454,25405 21463,25398 21471,25390 21480,25381 21487,25371 21495,25361 21502,25349 21516,25324 21528,25295 21539,25263 21548,25227 21555,25188 21561,25145 21565,25098 21568,25049 21568,24995 21568,24942 21565,24893 21561,24848 21555,24805 21548,24767 21539,24732 21529,24700 21517,24672 21503,24647 21496,24636 21488,24626 21480,24616 21472,24608 21464,24600 21455,24593 21446,24587 21436,24581 21426,24577 21416,24573 21406,24570 21395,24568 21384,24567 21373,24567 21361,24567 21350,24568 21339,24570 21329,24573 21319,24577 21309,24581 21299,24587 21290,24593 21281,24600 21273,24608 21264,24616 21256,24626 21249,24636 21241,24647 21227,24672 21215,24700 21204,24732 21195,24767 21188,24805 21182,24848 21178,24893 21175,24942 21174,24995 21175,25049 21178,25098 21182,25145 21188,25188 21195,25227 21204,25263 21215,25295 21227,25324 21241,25349 21249,25361 21256,25371 21264,25381 21273,25390 21281,25398 21290,25405 21299,25411 21309,25417 21319,25421 21329,25425 21339,25428 21350,25430 21361,25432 21373,25432 Z"/>
    </g>
   </g>
   <g class="com.sun.star.drawing.PolyPolygonShape">
    <g id="id31">
     <rect class="BoundingBox" stroke="none" fill="none" x="14359" y="26450" width="569" height="1037"/>
     <path fill="rgb(0,0,0)" stroke="none" d="M 14359,27485 L 14359,27378 14589,27378 14589,26606 14406,26606 14406,26525 14437,26519 14467,26512 14496,26504 14523,26495 14549,26485 14574,26474 14598,26463 14621,26450 14719,26450 14719,27378 14927,27378 14927,27485 14359,27485 Z"/>
    </g>
   </g>
   <g class="com.sun.star.drawing.PolyPolygonShape">
    <g id="id32">
     <rect class="BoundingBox" stroke="none" fill="none" x="15146" y="26430" width="647" height="1074"/>
     <path fill="rgb(0,0,0)" stroke="none" d="M 15471,27503 L 15452,27502 15434,27501 15416,27498 15399,27494 15382,27490 15366,27484 15351,27477 15336,27469 15321,27460 15307,27449 15293,27438 15280,27426 15268,27412 15256,27398 15244,27382 15233,27366 15223,27348 15213,27330 15195,27289 15181,27245 15168,27197 15159,27145 15152,27088 15148,27028 15147,26964 15148,26900 15152,26841 15159,26785 15168,26733 15181,26685 15195,26641 15213,26602 15223,26583 15233,26566 15244,26550 15256,26534 15268,26520 15280,26507 15293,26495 15307,26484 15321,26474 15336,26465 15351,26457 15366,26450 15382,26444 15399,26439 15416,26436 15434,26433 15452,26431 15471,26431 15489,26431 15507,26433 15525,26436 15542,26439 15558,26444 15574,26450 15590,26457 15605,26465 15619,26474 15633,26484 15647,26495 15660,26507 15672,26520 15684,26534 15695,26550 15706,26566 15717,26583 15726,26602 15744,26641 15758,26685 15770,26733 15780,26785 15786,26841 15790,26900 15792,26964 15790,27028 15786,27088 15780,27145 15770,27197 15758,27245 15744,27289 15726,27330 15717,27348 15706,27366 15695,27382 15684,27398 15672,27412 15660,27426 15647,27438 15633,27449 15619,27460 15605,27469 15590,27477 15574,27484 15558,27490 15542,27494 15525,27498 15507,27501 15489,27502 15471,27503 Z M 15471,27401 L 15482,27401 15493,27399 15503,27397 15514,27394 15524,27390 15533,27386 15543,27380 15552,27374 15561,27367 15569,27359 15578,27350 15585,27340 15593,27330 15600,27318 15614,27293 15626,27264 15637,27232 15646,27196 15653,27157 15659,27114 15663,27067 15666,27018 15666,26964 15666,26911 15663,26862 15659,26817 15653,26775 15646,26736 15637,26701 15627,26669 15615,26641 15601,26616 15594,26605 15586,26595 15578,26585 15570,26577 15562,26569 15553,26562 15544,26556 15534,26550 15524,26546 15514,26542 15504,26539 15493,26537 15482,26536 15471,26536 15459,26536 15448,26537 15437,26539 15427,26542 15417,26546 15407,26550 15397,26556 15388,26562 15379,26569 15371,26577 15362,26585 15354,26595 15347,26605 15339,26616 15325,26641 15313,26669 15302,26701 15293,26736 15286,26775 15280,26817 15276,26862 15273,26911 15272,26964 15273,27018 15276,27067 15280,27114 15286,27157 15293,27196 15302,27232 15313,27264 15325,27293 15339,27318 15347,27330 15354,27340 15362,27350 15371,27359 15379,27367 15388,27374 15397,27380 15407,27386 15417,27390 15427,27394 15437,27397 15448,27399 15459,27401 15471,27401 Z"/>
    </g>
   </g>
   <g class="com.sun.star.drawing.PolyPolygonShape">
    <g id="id33">
     <rect class="BoundingBox" stroke="none" fill="none" x="15989" y="26430" width="647" height="1074"/>
     <path fill="rgb(0,0,0)" stroke="none" d="M 16314,27503 L 16295,27502 16277,27501 16259,27498 16242,27494 16225,27490 16209,27484 16194,27477 16179,27469 16164,27460 16150,27449 16136,27438 16123,27426 16111,27412 16099,27398 16087,27382 16076,27366 16066,27348 16056,27330 16038,27289 16024,27245 16011,27197 16002,27145 15995,27088 15991,27028 15990,26964 15991,26900 15995,26841 16002,26785 16011,26733 16024,26685 16038,26641 16056,26602 16066,26583 16076,26566 16087,26550 16099,26534 16111,26520 16123,26507 16136,26495 16150,26484 16164,26474 16179,26465 16194,26457 16209,26450 16225,26444 16242,26439 16259,26436 16277,26433 16295,26431 16314,26431 16332,26431 16350,26433 16368,26436 16385,26439 16401,26444 16417,26450 16433,26457 16448,26465 16462,26474 16476,26484 16490,26495 16503,26507 16515,26520 16527,26534 16538,26550 16549,26566 16560,26583 16569,26602 16587,26641 16601,26685 16613,26733 16623,26785 16629,26841 16633,26900 16635,26964 16633,27028 16629,27088 16623,27145 16613,27197 16601,27245 16587,27289 16569,27330 16560,27348 16549,27366 16538,27382 16527,27398 16515,27412 16503,27426 16490,27438 16476,27449 16462,27460 16448,27469 16433,27477 16417,27484 16401,27490 16385,27494 16368,27498 16350,27501 16332,27502 16314,27503 Z M 16314,27401 L 16325,27401 16336,27399 16346,27397 16357,27394 16367,27390 16376,27386 16386,27380 16395,27374 16404,27367 16412,27359 16421,27350 16428,27340 16436,27330 16443,27318 16457,27293 16469,27264 16480,27232 16489,27196 16496,27157 16502,27114 16506,27067 16509,27018 16509,26964 16509,26911 16506,26862 16502,26817 16496,26775 16489,26736 16480,26701 16470,26669 16458,26641 16444,26616 16437,26605 16429,26595 16421,26585 16413,26577 16405,26569 16396,26562 16387,26556 16377,26550 16367,26546 16357,26542 16347,26539 16336,26537 16325,26536 16314,26536 16302,26536 16291,26537 16280,26539 16270,26542 16260,26546 16250,26550 16240,26556 16231,26562 16222,26569 16214,26577 16205,26585 16197,26595 16190,26605 16182,26616 16168,26641 16156,26669 16145,26701 16136,26736 16129,26775 16123,26817 16119,26862 16116,26911 16115,26964 16116,27018 16119,27067 16123,27114 16129,27157 16136,27196 16145,27232 16156,27264 16168,27293 16182,27318 16190,27330 16197,27340 16205,27350 16214,27359 16222,27367 16231,27374 16240,27380 16250,27386 16260,27390 16270,27394 16280,27397 16291,27399 16302,27401 16314,27401 Z"/>
    </g>
   </g>
   <g class="com.sun.star.drawing.PolyPolygonShape">
    <g id="id34">
     <rect class="BoundingBox" stroke="none" fill="none" x="16889" y="26450" width="569" height="1037"/>
     <path fill="rgb(0,0,0)" stroke="none" d="M 16889,27485 L 16889,27378 17119,27378 17119,26606 16936,26606 16936,26525 16967,26519 16997,26512 17026,26504 17053,26495 17079,26485 17104,26474 17128,26463 17151,26450 17249,26450 17249,27378 17457,27378 17457,27485 16889,27485 Z"/>
    </g>
   </g>
   <g class="com.sun.star.drawing.PolyPolygonShape">
    <g id="id35">
     <rect class="BoundingBox" stroke="none" fill="none" x="17732" y="26450" width="569" height="1037"/>
     <path fill="rgb(0,0,0)" stroke="none" d="M 17732,27485 L 17732,27378 17962,27378 17962,26606 17779,26606 17779,26525 17810,26519 17840,26512 17869,26504 17896,26495 17922,26485 17947,26474 17971,26463 17994,26450 18092,26450 18092,27378 18300,27378 18300,27485 17732,27485 Z"/>
    </g>
   </g>
   <g class="com.sun.star.drawing.PolyPolygonShape">
    <g id="id36">
     <rect class="BoundingBox" stroke="none" fill="none" x="18519" y="26430" width="647" height="1074"/>
     <path fill="rgb(0,0,0)" stroke="none" d="M 18844,27503 L 18825,27502 18807,27501 18789,27498 18772,27494 18755,27490 18739,27484 18724,27477 18709,27469 18694,27460 18680,27449 18666,27438 18653,27426 18641,27412 18629,27398 18617,27382 18606,27366 18596,27348 18586,27330 18568,27289 18554,27245 18541,27197 18532,27145 18525,27088 18521,27028 18520,26964 18521,26900 18525,26841 18532,26785 18541,26733 18554,26685 18568,26641 18586,26602 18596,26583 18606,26566 18617,26550 18629,26534 18641,26520 18653,26507 18666,26495 18680,26484 18694,26474 18709,26465 18724,26457 18739,26450 18755,26444 18772,26439 18789,26436 18807,26433 18825,26431 18844,26431 18862,26431 18880,26433 18898,26436 18915,26439 18931,26444 18947,26450 18963,26457 18978,26465 18992,26474 19006,26484 19020,26495 19033,26507 19045,26520 19057,26534 19068,26550 19079,26566 19090,26583 19099,26602 19117,26641 19131,26685 19143,26733 19153,26785 19159,26841 19163,26900 19165,26964 19163,27028 19159,27088 19153,27145 19143,27197 19131,27245 19117,27289 19099,27330 19090,27348 19079,27366 19068,27382 19057,27398 19045,27412 19033,27426 19020,27438 19006,27449 18992,27460 18978,27469 18963,27477 18947,27484 18931,27490 18915,27494 18898,27498 18880,27501 18862,27502 18844,27503 Z M 18844,27401 L 18855,27401 18866,27399 18876,27397 18887,27394 18897,27390 18906,27386 18916,27380 18925,27374 18934,27367 18942,27359 18951,27350 18958,27340 18966,27330 18973,27318 18987,27293 18999,27264 19010,27232 19019,27196 19026,27157 19032,27114 19036,27067 19039,27018 19039,26964 19039,26911 19036,26862 19032,26817 19026,26775 19019,26736 19010,26701 19000,26669 18988,26641 18974,26616 18967,26605 18959,26595 18951,26585 18943,26577 18935,26569 18926,26562 18917,26556 18907,26550 18897,26546 18887,26542 18877,26539 18866,26537 18855,26536 18844,26536 18832,26536 18821,26537 18810,26539 18800,26542 18790,26546 18780,26550 18770,26556 18761,26562 18752,26569 18744,26577 18735,26585 18727,26595 18720,26605 18712,26616 18698,26641 18686,26669 18675,26701 18666,26736 18659,26775 18653,26817 18649,26862 18646,26911 18645,26964 18646,27018 18649,27067 18653,27114 18659,27157 18666,27196 18675,27232 18686,27264 18698,27293 18712,27318 18720,27330 18727,27340 18735,27350 18744,27359 18752,27367 18761,27374 18770,27380 18780,27386 18790,27390 18800,27394 18810,27397 18821,27399 18832,27401 18844,27401 Z"/>
    </g>
   </g>
   <g class="com.sun.star.drawing.PolyPolygonShape">
    <g id="id37">
     <rect class="BoundingBox" stroke="none" fill="none" x="19418" y="26450" width="569" height="1037"/>
     <path fill="rgb(0,0,0)" stroke="none" d="M 19418,27485 L 19418,27378 19648,27378 19648,26606 19465,26606 19465,26525 19496,26519 19526,26512 19555,26504 19582,26495 19608,26485 19633,26474 19657,26463 19680,26450 19778,26450 19778,27378 19986,27378 19986,27485 19418,27485 Z"/>
    </g>
   </g>
   <g class="com.sun.star.drawing.PolyPolygonShape">
    <g id="id38">
     <rect class="BoundingBox" stroke="none" fill="none" x="20205" y="26430" width="647" height="1074"/>
     <path fill="rgb(0,0,0)" stroke="none" d="M 20530,27503 L 20511,27502 20493,27501 20475,27498 20458,27494 20441,27490 20425,27484 20410,27477 20395,27469 20380,27460 20366,27449 20352,27438 20339,27426 20327,27412 20315,27398 20303,27382 20292,27366 20282,27348 20272,27330 20254,27289 20240,27245 20227,27197 20218,27145 20211,27088 20207,27028 20206,26964 20207,26900 20211,26841 20218,26785 20227,26733 20240,26685 20254,26641 20272,26602 20282,26583 20292,26566 20303,26550 20315,26534 20327,26520 20339,26507 20352,26495 20366,26484 20380,26474 20395,26465 20410,26457 20425,26450 20441,26444 20458,26439 20475,26436 20493,26433 20511,26431 20530,26431 20548,26431 20566,26433 20584,26436 20601,26439 20617,26444 20633,26450 20649,26457 20664,26465 20678,26474 20692,26484 20706,26495 20719,26507 20731,26520 20743,26534 20754,26550 20765,26566 20776,26583 20785,26602 20803,26641 20817,26685 20829,26733 20839,26785 20845,26841 20849,26900 20851,26964 20849,27028 20845,27088 20839,27145 20829,27197 20817,27245 20803,27289 20785,27330 20776,27348 20765,27366 20754,27382 20743,27398 20731,27412 20719,27426 20706,27438 20692,27449 20678,27460 20664,27469 20649,27477 20633,27484 20617,27490 20601,27494 20584,27498 20566,27501 20548,27502 20530,27503 Z M 20530,27401 L 20541,27401 20552,27399 20562,27397 20573,27394 20583,27390 20592,27386 20602,27380 20611,27374 20620,27367 20628,27359 20637,27350 20644,27340 20652,27330 20659,27318 20673,27293 20685,27264 20696,27232 20705,27196 20712,27157 20718,27114 20722,27067 20725,27018 20725,26964 20725,26911 20722,26862 20718,26817 20712,26775 20705,26736 20696,26701 20686,26669 20674,26641 20660,26616 20653,26605 20645,26595 20637,26585 20629,26577 20621,26569 20612,26562 20603,26556 20593,26550 20583,26546 20573,26542 20563,26539 20552,26537 20541,26536 20530,26536 20518,26536 20507,26537 20496,26539 20486,26542 20476,26546 20466,26550 20456,26556 20447,26562 20438,26569 20430,26577 20421,26585 20413,26595 20406,26605 20398,26616 20384,26641 20372,26669 20361,26701 20352,26736 20345,26775 20339,26817 20335,26862 20332,26911 20331,26964 20332,27018 20335,27067 20339,27114 20345,27157 20352,27196 20361,27232 20372,27264 20384,27293 20398,27318 20406,27330 20413,27340 20421,27350 20430,27359 20438,27367 20447,27374 20456,27380 20466,27386 20476,27390 20486,27394 20496,27397 20507,27399 20518,27401 20530,27401 Z"/>
    </g>
   </g>
   <g class="com.sun.star.drawing.PolyPolygonShape">
    <g id="id39">
     <rect class="BoundingBox" stroke="none" fill="none" x="21104" y="26450" width="569" height="1037"/>
     <path fill="rgb(0,0,0)" stroke="none" d="M 21104,27485 L 21104,27378 21334,27378 21334,26606 21151,26606 21151,26525 21182,26519 21212,26512 21241,26504 21268,26495 21294,26485 21319,26474 21343,26463 21366,26450 21464,26450 21464,27378 21672,27378 21672,27485 21104,27485 Z"/>
    </g>
   </g>
  </g>
 </g>
</svg>