<?xml version="1.0" encoding="UTF-8"?>
<!DOCTYPE svg PUBLIC "-//W3C//DTD SVG 1.1//EN" "http://www.w3.org/Graphics/SVG/1.1/DTD/svg11.dtd">
<svg version="1.2" width="100mm" height="100mm" viewBox="0 0 10000 10000" preserveAspectRatio="xMidYMid" fill-rule="evenodd" stroke-width="28.222" stroke-linejoin="round" xmlns="http://www.w3.org/2000/svg" xmlns:ooo="http://xml.openoffice.org/svg/export" xmlns:xlink="http://www.w3.org/1999/xlink" xmlns:presentation="http://sun.com/xmlns/staroffice/presentation" xmlns:smil="http://www.w3.org/2001/SMIL20/" xmlns:anim="urn:oasis:names:tc:opendocument:xmlns:animation:1.0" xml:space="preserve">
 <defs class="ClipPathGroup">
  <clipPath id="presentation_clip_path" clipPathUnits="userSpaceOnUse">
   <rect x="0" y="0" width="10000" height="10000"/>
  </clipPath>
  <clipPath id="presentation_clip_path_shrink" clipPathUnits="userSpaceOnUse">
   <rect x="10" y="10" width="9980" height="9980"/>
  </clipPath>
 </defs>
 <defs class="TextShapeIndex">
  <g ooo:slide="id1" ooo:id-list="id3"/>
 </defs>
 <defs class="EmbeddedBulletChars">
  <g id="bullet-char-template-57356" transform="scale(0.00048828125,-0.00048828125)">
   <path d="M 580,1141 L 1163,571 580,0 -4,571 580,1141 Z"/>
  </g>
  <g id="bullet-char-template-57354" transform="scale(0.00048828125,-0.00048828125)">
   <path d="M 8,1128 L 1137,1128 1137,0 8,0 8,1128 Z"/>
  </g>
  <g id="bullet-char-template-10146" transform="scale(0.00048828125,-0.00048828125)">
   <path d="M 174,0 L 602,739 174,1481 1456,739 174,0 Z M 1358,739 L 309,1346 659,739 1358,739 Z"/>
  </g>
  <g id="bullet-char-template-10132" transform="scale(0.00048828125,-0.00048828125)">
   <path d="M 2015,739 L 1276,0 717,0 1260,543 174,543 174,936 1260,936 717,1481 1274,1481 2015,739 Z"/>
  </g>
  <g id="bullet-char-template-10007" transform="scale(0.00048828125,-0.00048828125)">
   <path d="M 0,-2 C -7,14 -16,27 -25,37 L 356,567 C 262,823 215,952 215,954 215,979 228,992 255,992 264,992 276,990 289,987 310,991 331,999 354,1012 L 381,999 492,748 772,1049 836,1024 860,1049 C 881,1039 901,1025 922,1006 886,937 835,863 770,784 769,783 710,716 594,584 L 774,223 C 774,196 753,168 711,139 L 727,119 C 717,90 699,76 672,76 641,76 570,178 457,381 L 164,-76 C 142,-110 111,-127 72,-127 30,-127 9,-110 8,-76 1,-67 -2,-52 -2,-32 -2,-23 -1,-13 0,-2 Z"/>
  </g>
  <g id="bullet-char-template-10004" transform="scale(0.00048828125,-0.00048828125)">
   <path d="M 285,-33 C 182,-33 111,30 74,156 52,228 41,333 41,471 41,549 55,616 82,672 116,743 169,778 240,778 293,778 328,747 346,684 L 369,508 C 377,444 397,411 428,410 L 1163,1116 C 1174,1127 1196,1133 1229,1133 1271,1133 1292,1118 1292,1087 L 1292,965 C 1292,929 1282,901 1262,881 L 442,47 C 390,-6 338,-33 285,-33 Z"/>
  </g>
  <g id="bullet-char-template-9679" transform="scale(0.00048828125,-0.00048828125)">
   <path d="M 813,0 C 632,0 489,54 383,161 276,268 223,411 223,592 223,773 276,916 383,1023 489,1130 632,1184 813,1184 992,1184 1136,1130 1245,1023 1353,916 1407,772 1407,592 1407,412 1353,268 1245,161 1136,54 992,0 813,0 Z"/>
  </g>
  <g id="bullet-char-template-8226" transform="scale(0.00048828125,-0.00048828125)">
   <path d="M 346,457 C 273,457 209,483 155,535 101,586 74,649 74,723 74,796 101,859 155,911 209,963 273,989 346,989 419,989 480,963 531,910 582,859 608,796 608,723 608,648 583,586 532,535 482,483 420,457 346,457 Z"/>
  </g>
  <g id="bullet-char-template-8211" transform="scale(0.00048828125,-0.00048828125)">
   <path d="M -4,459 L 1135,459 1135,606 -4,606 -4,459 Z"/>
  </g>
  <g id="bullet-char-template-61548" transform="scale(0.00048828125,-0.00048828125)">
   <path d="M 173,740 C 173,903 231,1043 346,1159 462,1274 601,1332 765,1332 928,1332 1067,1274 1183,1159 1299,1043 1357,903 1357,740 1357,577 1299,437 1183,322 1067,206 928,148 765,148 601,148 462,206 346,322 231,437 173,577 173,740 Z"/>
  </g>
 </defs>
 <g>
  <g id="id2" class="Master_Slide">
   <g id="bg-id2" class="Background"/>
   <g id="bo-id2" class="BackgroundObjects"/>
  </g>
 </g>
 <g class="SlideGroup">
  <g>
   <g id="container-id1">
    <g id="id1" class="Slide" clip-path="url(#presentation_clip_path)">
     <g class="Page">
      <g class="Graphic">
       <g id="id3">
        <rect class="BoundingBox" stroke="none" fill="none" x="300" y="12" width="9401" height="9988"/>
        <path fill="rgb(168,185,204)" stroke="none" d="M 5144,3195 C 4497,3177 4165,3684 4165,4408 4165,5132 4532,5712 5161,5712 5791,5712 5861,4988 5861,4988 L 7067,5060 C 7067,5060 7138,5714 6633,6213 6128,6712 5509,6794 5076,6791 4643,6787 4044,6797 3463,6203 2883,5609 2785,5032 2785,4465 2785,3898 2895,3146 3585,2577 4053,2190 4529,2047 5004,2047 6988,2047 7121,3877 7121,3877 L 5861,3865 C 5861,3865 5791,3213 5144,3195 Z"/>
        <path fill="rgb(27,117,179)" stroke="none" d="M 4421,776 L 4422,1006 4390,1006 C 4380,924 4350,868 4301,839 4274,823 4232,814 4178,813 L 4178,1414 C 4178,1456 4185,1484 4199,1497 4213,1511 4242,1518 4287,1518 L 4287,1547 3895,1547 3895,1518 C 3938,1518 3966,1511 3981,1497 3995,1483 4002,1455 4002,1414 L 4002,813 C 3948,814 3907,823 3878,839 3825,869 3796,924 3789,1006 L 3757,1006 3758,776 4421,776 Z"/>
        <path fill="rgb(27,117,179)" stroke="none" d="M 4560,1518 C 4590,1517 4611,1512 4623,1505 4643,1493 4654,1471 4654,1438 L 4654,885 C 4654,853 4644,831 4626,820 4615,813 4593,808 4560,805 L 4560,776 4933,776 4933,805 C 4901,807 4878,811 4866,818 4845,830 4835,852 4835,885 L 4835,1122 5097,1122 5097,885 C 5097,852 5087,830 5068,819 5055,812 5033,807 4999,805 L 4999,776 5374,776 5374,805 C 5342,807 5320,812 5308,819 5288,831 5278,853 5278,885 L 5278,1438 C 5278,1471 5289,1494 5311,1506 5324,1513 5345,1517 5374,1518 L 5374,1547 4999,1547 4999,1518 C 5031,1517 5053,1512 5067,1505 5087,1493 5097,1470 5097,1438 L 5097,1175 4835,1175 4835,1438 C 4835,1472 4846,1494 4868,1506 4881,1513 4903,1517 4933,1518 L 4933,1547 4560,1547 4560,1518 4560,1518 Z"/>
        <path fill="rgb(27,117,179)" stroke="none" d="M 5492,1547 L 5492,1518 C 5524,1517 5546,1512 5559,1505 5580,1493 5590,1470 5590,1438 L 5590,885 C 5590,852 5579,830 5558,818 5546,811 5524,807 5492,805 L 5492,776 6127,776 6127,1006 6100,1006 C 6086,933 6062,882 6029,855 5995,828 5934,814 5845,814 5812,814 5790,818 5781,825 5772,833 5767,847 5767,869 L 5767,1133 C 5830,1133 5873,1122 5895,1097 5917,1073 5934,1028 5946,964 L 5974,964 5974,1349 5946,1349 C 5938,1284 5922,1239 5898,1212 5874,1185 5830,1172 5768,1172 L 5768,1448 C 5768,1473 5774,1489 5786,1498 5798,1506 5822,1511 5860,1511 5930,1511 5987,1497 6032,1468 6076,1440 6115,1387 6150,1310 L 6181,1310 6136,1547 5492,1547 5492,1547 5492,1547 Z"/>
        <path fill="rgb(27,117,179)" stroke="none" d="M 508,7993 C 520,7980 526,7953 526,7913 L 526,7408 C 526,7365 520,7338 507,7327 495,7315 471,7308 435,7304 L 435,7275 789,7275 C 883,7275 955,7291 1003,7322 1052,7354 1077,7408 1077,7485 1077,7522 1067,7557 1048,7590 1029,7623 997,7650 953,7670 920,7684 887,7692 853,7695 820,7698 770,7700 705,7700 L 705,7913 C 705,7955 712,7982 725,7995 739,8008 764,8015 802,8017 L 802,8046 435,8046 435,8017 435,8017 C 471,8014 495,8006 508,7993 Z M 836,7637 C 871,7614 888,7564 888,7488 888,7436 880,7394 863,7362 846,7330 814,7314 766,7314 744,7314 728,7317 719,7322 709,7328 705,7338 705,7354 L 705,7660 C 770,7659 814,7651 836,7637 Z"/>
        <path fill="rgb(27,117,179)" stroke="none" d="M 1132,8017 C 1169,8015 1195,8008 1208,7995 1222,7982 1229,7955 1229,7913 L 1229,7408 C 1229,7364 1221,7335 1204,7322 1194,7313 1169,7307 1132,7304 L 1132,7275 1486,7275 C 1560,7275 1619,7283 1665,7299 1753,7331 1797,7389 1797,7473 1797,7535 1774,7584 1728,7620 1692,7646 1655,7663 1616,7671 L 1850,7996 C 1856,8005 1862,8010 1869,8013 1876,8016 1884,8018 1894,8018 L 1894,8046 1664,8046 1408,7689 1407,7689 1407,7913 C 1407,7953 1414,7980 1426,7994 1439,8008 1465,8015 1504,8017 L 1504,8046 1132,8046 1132,8017 1132,8017 1132,8017 Z M 1562,7621 C 1593,7601 1608,7555 1608,7483 1608,7439 1602,7404 1590,7378 1570,7335 1533,7313 1479,7313 1449,7313 1430,7317 1421,7325 1412,7332 1407,7345 1407,7362 L 1407,7652 C 1479,7651 1531,7641 1562,7621 L 1562,7621 Z"/>
        <path fill="rgb(27,117,179)" stroke="none" d="M 2751,7663 C 2751,7783 2713,7881 2638,7957 2564,8031 2471,8069 2361,8069 2243,8069 2147,8028 2073,7947 2004,7870 1969,7778 1969,7669 1969,7550 2005,7451 2078,7374 2151,7297 2245,7258 2361,7258 2472,7257 2564,7295 2638,7369 2713,7445 2751,7543 2751,7663 Z M 2555,7663 C 2555,7542 2538,7450 2503,7388 2468,7327 2420,7296 2360,7296 2277,7296 2220,7347 2189,7450 2173,7505 2165,7576 2165,7663 2165,7752 2173,7823 2190,7878 2220,7979 2277,8030 2360,8030 2443,8030 2500,7979 2530,7878 2547,7823 2555,7751 2555,7663 Z"/>
        <path fill="rgb(27,117,179)" stroke="none" d="M 3241,7260 C 3286,7260 3332,7269 3377,7287 3422,7304 3450,7313 3461,7313 3473,7313 3483,7309 3490,7300 3497,7292 3503,7279 3508,7261 L 3538,7261 3538,7528 3510,7528 C 3484,7470 3457,7425 3429,7391 3378,7330 3319,7299 3254,7299 3183,7299 3131,7331 3098,7395 3066,7459 3049,7548 3049,7664 3049,7759 3065,7844 3095,7919 3125,7993 3184,8030 3271,8030 3317,8030 3349,8020 3365,8000 3374,7988 3379,7971 3379,7947 L 3379,7827 C 3379,7792 3369,7770 3349,7759 3335,7752 3308,7749 3268,7748 L 3268,7719 3645,7719 3645,7748 C 3607,7749 3582,7757 3570,7772 3557,7786 3551,7813 3551,7852 L 3551,7997 C 3527,8013 3487,8029 3433,8044 3378,8060 3318,8068 3250,8068 3128,8068 3030,8028 2957,7948 2889,7873 2855,7780 2855,7667 2855,7553 2890,7458 2961,7380 3034,7300 3127,7260 3241,7260 Z"/>
        <path fill="rgb(27,117,179)" stroke="none" d="M 3713,8017 C 3750,8015 3776,8008 3789,7995 3803,7982 3810,7955 3810,7913 L 3810,7408 C 3810,7364 3802,7335 3786,7322 3775,7313 3751,7307 3713,7304 L 3713,7275 4068,7275 C 4141,7275 4201,7283 4246,7299 4334,7331 4378,7389 4378,7473 4378,7535 4355,7584 4309,7620 4274,7646 4236,7663 4197,7671 L 4431,7996 C 4437,8005 4444,8010 4450,8013 4457,8016 4466,8018 4476,8018 L 4476,8046 4246,8046 3989,7689 3988,7689 3988,7913 C 3988,7953 3995,7980 4008,7994 4021,8008 4046,8015 4085,8017 L 4085,8046 3713,8046 3713,8017 3713,8017 3713,8017 Z M 4143,7621 C 4174,7601 4190,7555 4190,7483 4190,7439 4184,7404 4172,7378 4151,7335 4114,7313 4060,7313 4031,7313 4011,7317 4002,7325 3993,7332 3988,7345 3988,7362 L 3988,7652 C 4060,7651 4112,7641 4143,7621 L 4143,7621 Z"/>
        <path fill="rgb(27,117,179)" stroke="none" d="M 4599,7979 C 4609,7965 4624,7933 4643,7884 L 4888,7259 4919,7259 5165,7859 C 5192,7926 5213,7969 5226,7989 5240,8008 5259,8018 5284,8017 L 5284,8046 4928,8046 4928,8017 C 4964,8015 4987,8012 4999,8007 5010,8002 5016,7990 5016,7970 5016,7962 5013,7948 5007,7930 5004,7919 4999,7906 4993,7891 L 4965,7822 4717,7822 C 4701,7867 4691,7897 4686,7910 4676,7940 4672,7961 4672,7974 4672,7991 4682,8003 4703,8010 4716,8014 4735,8016 4760,8017 L 4760,8046 4535,8046 4535,8017 4535,8017 C 4561,8015 4583,8002 4599,7979 Z M 4842,7513 L 4833,7513 4734,7777 4948,7777 4842,7513 Z"/>
        <path fill="rgb(27,117,179)" stroke="none" d="M 5350,8017 C 5392,8016 5419,8009 5431,7994 5444,7979 5450,7956 5450,7926 L 5450,7384 C 5450,7353 5443,7333 5429,7323 5414,7313 5389,7307 5352,7304 L 5352,7275 5630,7275 5847,7803 5856,7803 6071,7275 6349,7275 6349,7304 C 6311,7307 6286,7314 6272,7325 6259,7336 6252,7364 6252,7408 L 6252,7913 C 6252,7955 6259,7982 6272,7995 6286,8008 6311,8015 6349,8017 L 6349,8046 5983,8046 5983,8017 C 6016,8016 6040,8010 6057,8000 6073,7990 6081,7967 6081,7933 L 6081,7375 6073,7375 5803,8046 5774,8046 5501,7388 5496,7388 5496,7904 C 5496,7942 5503,7970 5517,7988 5531,8005 5561,8015 5607,8017 L 5607,8046 5350,8046 5350,8017 5350,8017 5350,8017 Z"/>
        <path fill="rgb(27,117,179)" stroke="none" d="M 6495,7994 C 6508,7979 6514,7956 6514,7926 L 6514,7384 C 6514,7353 6507,7333 6492,7323 6478,7313 6453,7307 6416,7304 L 6416,7275 6693,7275 6910,7803 6919,7803 7135,7275 7413,7275 7413,7304 C 7375,7307 7350,7314 7336,7325 7323,7336 7316,7364 7316,7408 L 7316,7913 C 7316,7955 7323,7982 7336,7995 7350,8008 7375,8015 7413,8017 L 7413,8046 7047,8046 7047,8017 C 7079,8016 7104,8010 7120,8000 7137,7990 7145,7967 7145,7933 L 7145,7375 7137,7375 6867,8046 6838,8046 6565,7388 6560,7388 6560,7904 C 6560,7942 6567,7970 6581,7988 6594,8005 6624,8015 6671,8017 L 6671,8046 6413,8046 6413,8017 6413,8017 C 6455,8016 6483,8009 6495,7994 Z"/>
        <path fill="rgb(27,117,179)" stroke="none" d="M 7547,8005 C 7569,7993 7580,7970 7580,7937 L 7580,7384 C 7580,7350 7570,7328 7548,7316 7536,7309 7513,7305 7480,7304 L 7480,7275 7865,7275 7865,7304 C 7830,7305 7807,7309 7794,7316 7772,7327 7762,7350 7762,7384 L 7762,7937 C 7762,7969 7770,7990 7787,8001 7804,8011 7830,8017 7865,8017 L 7865,8046 7480,8046 7480,8017 7480,8017 C 7511,8016 7533,8012 7547,8005 Z"/>
        <path fill="rgb(27,117,179)" stroke="none" d="M 8012,7993 C 8023,7978 8029,7955 8029,7926 L 8029,7386 C 7996,7347 7975,7324 7967,7317 7959,7310 7948,7306 7935,7304 L 7935,7275 8168,7275 8547,7751 8552,7751 8552,7416 C 8552,7378 8545,7350 8532,7334 8518,7317 8491,7307 8450,7304 L 8450,7275 8687,7275 8687,7304 C 8653,7310 8630,7318 8618,7328 8606,7337 8601,7360 8601,7395 L 8601,8067 8570,8067 8085,7457 8078,7457 8078,7904 C 8078,7939 8082,7964 8092,7979 8107,8002 8137,8015 8182,8017 L 8182,8046 7933,8046 7933,8017 C 7973,8016 8000,8008 8012,7993 Z"/>
        <path fill="rgb(27,117,179)" stroke="none" d="M 9161,7260 C 9206,7260 9252,7269 9297,7287 9342,7304 9370,7313 9381,7313 9393,7313 9403,7309 9410,7300 9417,7292 9423,7279 9427,7261 L 9458,7261 9458,7528 9430,7528 C 9404,7470 9377,7425 9349,7391 9297,7330 9239,7299 9174,7299 9103,7299 9051,7331 9018,7395 8986,7459 8969,7548 8969,7664 8969,7759 8985,7844 9015,7919 9045,7993 9104,8030 9190,8030 9237,8030 9269,8020 9285,8000 9294,7988 9299,7971 9299,7947 L 9299,7827 C 9299,7792 9289,7770 9268,7759 9255,7752 9228,7749 9188,7748 L 9188,7719 9565,7719 9565,7748 C 9527,7749 9502,7757 9490,7772 9477,7786 9471,7813 9471,7852 L 9471,7997 C 9447,8013 9407,8029 9353,8044 9298,8060 9237,8068 9170,8068 9048,8068 8950,8028 8877,7948 8809,7873 8775,7780 8775,7667 8775,7553 8810,7458 8881,7380 8954,7300 9047,7260 9161,7260 Z"/>
        <path fill="rgb(27,117,179)" stroke="none" d="M 1734,9158 C 1764,9157 1786,9152 1799,9145 1820,9133 1831,9111 1831,9077 L 1831,8525 C 1831,8492 1821,8469 1800,8458 1788,8451 1766,8446 1734,8445 L 1734,8416 2119,8416 2119,8445 C 2074,8446 2044,8453 2030,8464 2015,8475 2007,8504 2007,8549 L 2007,9088 C 2007,9113 2014,9130 2026,9138 2039,9146 2064,9150 2101,9150 2167,9150 2223,9135 2268,9105 2313,9075 2352,9016 2384,8928 L 2416,8928 2372,9187 1734,9187 1734,9158 1734,9158 1734,9158 Z"/>
        <path fill="rgb(27,117,179)" stroke="none" d="M 2563,9120 C 2574,9106 2589,9074 2608,9024 L 2853,8400 2883,8400 3129,8999 C 3157,9067 3177,9110 3191,9130 3205,9149 3224,9158 3249,9158 L 3249,9187 2893,9187 2893,9158 C 2928,9156 2952,9153 2963,9148 2975,9143 2980,9131 2980,9111 2980,9102 2977,9089 2972,9071 2968,9060 2963,9047 2957,9032 L 2929,8963 2682,8963 C 2666,9008 2655,9038 2651,9051 2641,9081 2636,9102 2636,9115 2636,9132 2647,9144 2668,9151 2680,9155 2699,9157 2724,9158 L 2724,9187 2500,9187 2500,9158 C 2526,9156 2547,9143 2563,9120 Z M 2913,8918 L 2807,8654 2798,8654 2698,8918 2913,8918 Z"/>
        <path fill="rgb(27,117,179)" stroke="none" d="M 3403,9133 C 3414,9118 3420,9096 3420,9067 L 3420,8527 C 3387,8487 3366,8465 3358,8458 3350,8451 3339,8446 3326,8445 L 3326,8416 3559,8416 3938,8892 3943,8892 3943,8557 C 3943,8519 3936,8491 3923,8474 3909,8458 3882,8448 3841,8445 L 3841,8416 4078,8416 4078,8445 C 4044,8451 4021,8458 4009,8468 3997,8478 3992,8501 3992,8535 L 3992,9208 3961,9208 3476,8598 3469,8598 3469,9045 C 3469,9080 3473,9105 3483,9119 3497,9143 3528,9156 3573,9158 L 3573,9186 3324,9186 3324,9158 C 3364,9157 3391,9148 3403,9133 Z"/>
        <path fill="rgb(27,117,179)" stroke="none" d="M 4558,8401 C 4604,8401 4649,8410 4694,8428 4740,8445 4768,8454 4779,8454 4791,8454 4800,8450 4807,8441 4814,8433 4820,8420 4825,8402 L 4856,8402 4856,8669 4828,8669 C 4801,8611 4774,8565 4747,8532 4695,8470 4636,8440 4571,8440 4500,8440 4448,8472 4416,8535 4383,8599 4367,8689 4367,8805 4367,8900 4382,8985 4412,9059 4443,9134 4501,9171 4588,9171 4635,9171 4667,9161 4683,9140 4692,9129 4697,9111 4697,9088 L 4697,8968 C 4697,8933 4686,8911 4666,8900 4653,8893 4626,8889 4585,8889 L 4585,8860 4963,8860 4963,8889 C 4925,8890 4900,8898 4887,8912 4875,8927 4869,8953 4869,8993 L 4869,9138 C 4844,9154 4805,9169 4750,9185 4696,9201 4635,9208 4568,9208 4445,9208 4348,9168 4275,9089 4206,9014 4172,8920 4172,8808 4172,8694 4208,8599 4278,8521 4351,8441 4445,8401 4558,8401 Z"/>
        <path fill="rgb(27,117,179)" stroke="none" d="M 5409,8416 L 5409,8445 C 5367,8446 5338,8453 5324,8465 5310,8477 5302,8505 5302,8549 L 5302,8931 C 5302,8989 5309,9034 5322,9066 5346,9124 5392,9154 5460,9154 5545,9154 5602,9121 5632,9056 5648,9020 5657,8971 5657,8906 L 5657,8557 C 5657,8516 5649,8488 5635,8473 5620,8457 5592,8448 5550,8445 L 5550,8416 5792,8416 5792,8445 C 5757,8452 5733,8460 5722,8470 5711,8481 5705,8504 5705,8541 L 5705,8906 C 5705,9003 5682,9078 5637,9130 5592,9183 5521,9209 5424,9209 5298,9209 5211,9170 5165,9092 5140,9050 5128,8996 5128,8931 L 5128,8549 C 5128,8506 5122,8479 5111,8468 5100,8457 5076,8449 5037,8445 L 5037,8416 5409,8416 5409,8416 Z"/>
        <path fill="rgb(27,117,179)" stroke="none" d="M 5930,9120 C 5940,9106 5955,9074 5974,9024 L 6219,8400 6250,8400 6495,8999 C 6523,9067 6544,9110 6557,9130 6571,9149 6590,9158 6615,9158 L 6615,9187 6259,9187 6259,9158 C 6295,9156 6318,9153 6329,9148 6341,9143 6346,9131 6346,9111 6346,9102 6343,9089 6338,9071 6334,9060 6329,9047 6323,9032 L 6295,8963 6048,8963 C 6032,9008 6021,9038 6017,9051 6007,9081 6002,9102 6002,9115 6002,9132 6013,9144 6034,9151 6046,9155 6065,9157 6090,9158 L 6090,9187 5866,9187 5866,9158 C 5892,9156 5913,9143 5930,9120 Z M 6173,8654 L 6164,8654 6064,8918 6279,8918 6173,8654 Z"/>
        <path fill="rgb(27,117,179)" stroke="none" d="M 7098,8401 C 7144,8401 7189,8410 7234,8428 7280,8445 7308,8454 7319,8454 7331,8454 7340,8450 7347,8441 7354,8433 7360,8420 7365,8402 L 7396,8402 7396,8669 7368,8669 C 7341,8611 7314,8565 7286,8532 7235,8470 7176,8440 7111,8440 7040,8440 6988,8472 6956,8535 6923,8599 6907,8689 6907,8805 6907,8900 6922,8985 6952,9059 6983,9134 7041,9171 7128,9171 7175,9171 7206,9161 7222,9140 7232,9129 7237,9111 7237,9088 L 7237,8968 C 7237,8933 7226,8911 7206,8900 7193,8893 7166,8889 7125,8889 L 7125,8860 7503,8860 7503,8889 C 7465,8890 7440,8898 7427,8912 7415,8927 7409,8953 7409,8993 L 7409,9138 C 7384,9154 7345,9169 7290,9185 7236,9201 7175,9208 7107,9208 6985,9208 6887,9168 6814,9089 6746,9014 6712,8920 6712,8808 6712,8694 6747,8599 6818,8521 6891,8441 6985,8401 7098,8401 Z"/>
        <path fill="rgb(27,117,179)" stroke="none" d="M 7577,9158 C 7609,9157 7631,9152 7644,9144 7665,9132 7675,9110 7675,9077 L 7675,8525 C 7675,8492 7664,8469 7643,8458 7631,8451 7609,8446 7577,8445 L 7577,8416 8212,8416 8212,8646 8185,8646 C 8171,8572 8147,8522 8114,8495 8080,8468 8019,8454 7930,8454 7897,8454 7875,8458 7866,8465 7857,8472 7852,8487 7852,8508 L 7852,8772 C 7915,8773 7958,8761 7980,8737 8002,8713 8019,8668 8031,8603 L 8059,8603 8059,8989 8031,8989 C 8023,8924 8007,8878 7983,8852 7959,8825 7915,8812 7852,8812 L 7852,9088 C 7852,9112 7858,9129 7870,9137 7882,9146 7907,9151 7944,9151 8015,9151 8072,9136 8116,9108 8161,9080 8200,9027 8235,8949 L 8265,8949 8221,9187 7577,9187 7577,9187 7577,9158 Z"/>
       </g>
      </g>
     </g>
    </g>
   </g>
  </g>
 </g>
</svg>