<?xml version="1.0" encoding="UTF-8"?>
<!DOCTYPE svg PUBLIC "-//W3C//DTD SVG 1.1//EN" "http://www.w3.org/Graphics/SVG/1.1/DTD/svg11.dtd">
<svg version="1.2" width="80.01mm" height="65.43mm" viewBox="20000 11700 8001 6543" preserveAspectRatio="xMidYMid" fill-rule="evenodd" stroke-width="28.222" stroke-linejoin="round" xmlns="http://www.w3.org/2000/svg" xmlns:ooo="http://xml.openoffice.org/svg/export" xmlns:xlink="http://www.w3.org/1999/xlink" xmlns:presentation="http://sun.com/xmlns/staroffice/presentation" xmlns:smil="http://www.w3.org/2001/SMIL20/" xmlns:anim="urn:oasis:names:tc:opendocument:xmlns:animation:1.0" xml:space="preserve">
 <defs class="EmbeddedBulletChars">
  <g id="bullet-char-template-57356" transform="scale(0.00048828125,-0.00048828125)">
   <path d="M 580,1141 L 1163,571 580,0 -4,571 580,1141 Z"/>
  </g>
  <g id="bullet-char-template-57354" transform="scale(0.00048828125,-0.00048828125)">
   <path d="M 8,1128 L 1137,1128 1137,0 8,0 8,1128 Z"/>
  </g>
  <g id="bullet-char-template-10146" transform="scale(0.00048828125,-0.00048828125)">
   <path d="M 174,0 L 602,739 174,1481 1456,739 174,0 Z M 1358,739 L 309,1346 659,739 1358,739 Z"/>
  </g>
  <g id="bullet-char-template-10132" transform="scale(0.00048828125,-0.00048828125)">
   <path d="M 2015,739 L 1276,0 717,0 1260,543 174,543 174,936 1260,936 717,1481 1274,1481 2015,739 Z"/>
  </g>
  <g id="bullet-char-template-10007" transform="scale(0.00048828125,-0.00048828125)">
   <path d="M 0,-2 C -7,14 -16,27 -25,37 L 356,567 C 262,823 215,952 215,954 215,979 228,992 255,992 264,992 276,990 289,987 310,991 331,999 354,1012 L 381,999 492,748 772,1049 836,1024 860,1049 C 881,1039 901,1025 922,1006 886,937 835,863 770,784 769,783 710,716 594,584 L 774,223 C 774,196 753,168 711,139 L 727,119 C 717,90 699,76 672,76 641,76 570,178 457,381 L 164,-76 C 142,-110 111,-127 72,-127 30,-127 9,-110 8,-76 1,-67 -2,-52 -2,-32 -2,-23 -1,-13 0,-2 Z"/>
  </g>
  <g id="bullet-char-template-10004" transform="scale(0.00048828125,-0.00048828125)">
   <path d="M 285,-33 C 182,-33 111,30 74,156 52,228 41,333 41,471 41,549 55,616 82,672 116,743 169,778 240,778 293,778 328,747 346,684 L 369,508 C 377,444 397,411 428,410 L 1163,1116 C 1174,1127 1196,1133 1229,1133 1271,1133 1292,1118 1292,1087 L 1292,965 C 1292,929 1282,901 1262,881 L 442,47 C 390,-6 338,-33 285,-33 Z"/>
  </g>
  <g id="bullet-char-template-9679" transform="scale(0.00048828125,-0.00048828125)">
   <path d="M 813,0 C 632,0 489,54 383,161 276,268 223,411 223,592 223,773 276,916 383,1023 489,1130 632,1184 813,1184 992,1184 1136,1130 1245,1023 1353,916 1407,772 1407,592 1407,412 1353,268 1245,161 1136,54 992,0 813,0 Z"/>
  </g>
  <g id="bullet-char-template-8226" transform="scale(0.00048828125,-0.00048828125)">
   <path d="M 346,457 C 273,457 209,483 155,535 101,586 74,649 74,723 74,796 101,859 155,911 209,963 273,989 346,989 419,989 480,963 531,910 582,859 608,796 608,723 608,648 583,586 532,535 482,483 420,457 346,457 Z"/>
  </g>
  <g id="bullet-char-template-8211" transform="scale(0.00048828125,-0.00048828125)">
   <path d="M -4,459 L 1135,459 1135,606 -4,606 -4,459 Z"/>
  </g>
  <g id="bullet-char-template-61548" transform="scale(0.00048828125,-0.00048828125)">
   <path d="M 173,740 C 173,903 231,1043 346,1159 462,1274 601,1332 765,1332 928,1332 1067,1274 1183,1159 1299,1043 1357,903 1357,740 1357,577 1299,437 1183,322 1067,206 928,148 765,148 601,148 462,206 346,322 231,437 173,577 173,740 Z"/>
  </g>
 </defs>
 <g class="Page">
  <g class="Graphic">
   <g id="id3">
    <rect class="BoundingBox" stroke="none" fill="none" x="20000" y="11700" width="8001" height="6543"/>
    <path fill="rgb(0,0,128)" stroke="none" d="M 21527,12152 C 20688,12152 20007,12834 20007,13673 20007,14512 20688,15193 21527,15193 22367,15193 23048,14512 23048,13673 23048,12834 22367,12152 21527,12152 Z"/>
    <path fill="rgb(255,255,255)" stroke="none" d="M 22157,12598 C 21912,12598 21712,12797 21712,13043 21712,13289 21912,13488 22157,13488 22403,13488 22603,13289 22603,13043 22603,12797 22403,12598 22157,12598 Z"/>
    <path fill="rgb(0,0,128)" stroke="none" d="M 23048,11707 C 22802,11707 22603,11906 22603,12152 22603,12398 22802,12597 23048,12597 23294,12597 23493,12398 23493,12152 23493,11906 23294,11707 23048,11707 Z"/>
    <path fill="rgb(0,0,128)" stroke="none" d="M 24027,15194 C 23187,15194 22506,15875 22506,16715 22506,17554 23187,18235 24027,18235 24866,18235 25547,17554 25547,16715 25547,15875 24866,15194 24027,15194 Z"/>
    <path fill="rgb(255,255,255)" stroke="none" d="M 24027,15378 C 23781,15378 23581,15578 23581,15824 23581,16069 23781,16269 24027,16269 24272,16269 24472,16069 24472,15824 24472,15578 24272,15378 24027,15378 Z"/>
    <path fill="rgb(0,0,128)" stroke="none" d="M 24026,14119 C 23781,14119 23581,14318 23581,14564 23581,14810 23781,15009 24026,15009 24272,15009 24472,14810 24472,14564 24472,14318 24272,14119 24026,14119 Z"/>
    <path fill="rgb(0,0,128)" stroke="none" d="M 26473,15193 C 27312,15193 27993,14512 27993,13673 27993,12834 27312,12152 26473,12152 25633,12152 24952,12834 24952,13673 24952,14512 25633,15193 26473,15193 Z"/>
    <path fill="rgb(255,255,255)" stroke="none" d="M 25843,13488 C 26088,13488 26288,13289 26288,13043 26288,12797 26088,12598 25843,12598 25597,12598 25397,12797 25397,13043 25397,13289 25597,13488 25843,13488 Z"/>
    <path fill="rgb(0,0,128)" stroke="none" d="M 24952,12597 C 25198,12597 25397,12398 25397,12152 25397,11906 25198,11707 24952,11707 24706,11707 24507,11906 24507,12152 24507,12398 24706,12597 24952,12597 Z"/>
   </g>
  </g>
 </g>
</svg>