<?xml version="1.0" encoding="UTF-8"?>
<!DOCTYPE svg PUBLIC "-//W3C//DTD SVG 1.1//EN" "http://www.w3.org/Graphics/SVG/1.1/DTD/svg11.dtd">
<svg version="1.2" width="80.03mm" height="80.02mm" viewBox="19999 28999 8003 8002" preserveAspectRatio="xMidYMid" fill-rule="evenodd" stroke-width="28.222" stroke-linejoin="round" xmlns="http://www.w3.org/2000/svg" xmlns:ooo="http://xml.openoffice.org/svg/export" xmlns:xlink="http://www.w3.org/1999/xlink" xmlns:presentation="http://sun.com/xmlns/staroffice/presentation" xmlns:smil="http://www.w3.org/2001/SMIL20/" xmlns:anim="urn:oasis:names:tc:opendocument:xmlns:animation:1.0" xml:space="preserve">
 <defs class="EmbeddedBulletChars">
  <g id="bullet-char-template-57356" transform="scale(0.00048828125,-0.00048828125)">
   <path d="M 580,1141 L 1163,571 580,0 -4,571 580,1141 Z"/>
  </g>
  <g id="bullet-char-template-57354" transform="scale(0.00048828125,-0.00048828125)">
   <path d="M 8,1128 L 1137,1128 1137,0 8,0 8,1128 Z"/>
  </g>
  <g id="bullet-char-template-10146" transform="scale(0.00048828125,-0.00048828125)">
   <path d="M 174,0 L 602,739 174,1481 1456,739 174,0 Z M 1358,739 L 309,1346 659,739 1358,739 Z"/>
  </g>
  <g id="bullet-char-template-10132" transform="scale(0.00048828125,-0.00048828125)">
   <path d="M 2015,739 L 1276,0 717,0 1260,543 174,543 174,936 1260,936 717,1481 1274,1481 2015,739 Z"/>
  </g>
  <g id="bullet-char-template-10007" transform="scale(0.00048828125,-0.00048828125)">
   <path d="M 0,-2 C -7,14 -16,27 -25,37 L 356,567 C 262,823 215,952 215,954 215,979 228,992 255,992 264,992 276,990 289,987 310,991 331,999 354,1012 L 381,999 492,748 772,1049 836,1024 860,1049 C 881,1039 901,1025 922,1006 886,937 835,863 770,784 769,783 710,716 594,584 L 774,223 C 774,196 753,168 711,139 L 727,119 C 717,90 699,76 672,76 641,76 570,178 457,381 L 164,-76 C 142,-110 111,-127 72,-127 30,-127 9,-110 8,-76 1,-67 -2,-52 -2,-32 -2,-23 -1,-13 0,-2 Z"/>
  </g>
  <g id="bullet-char-template-10004" transform="scale(0.00048828125,-0.00048828125)">
   <path d="M 285,-33 C 182,-33 111,30 74,156 52,228 41,333 41,471 41,549 55,616 82,672 116,743 169,778 240,778 293,778 328,747 346,684 L 369,508 C 377,444 397,411 428,410 L 1163,1116 C 1174,1127 1196,1133 1229,1133 1271,1133 1292,1118 1292,1087 L 1292,965 C 1292,929 1282,901 1262,881 L 442,47 C 390,-6 338,-33 285,-33 Z"/>
  </g>
  <g id="bullet-char-template-9679" transform="scale(0.00048828125,-0.00048828125)">
   <path d="M 813,0 C 632,0 489,54 383,161 276,268 223,411 223,592 223,773 276,916 383,1023 489,1130 632,1184 813,1184 992,1184 1136,1130 1245,1023 1353,916 1407,772 1407,592 1407,412 1353,268 1245,161 1136,54 992,0 813,0 Z"/>
  </g>
  <g id="bullet-char-template-8226" transform="scale(0.00048828125,-0.00048828125)">
   <path d="M 346,457 C 273,457 209,483 155,535 101,586 74,649 74,723 74,796 101,859 155,911 209,963 273,989 346,989 419,989 480,963 531,910 582,859 608,796 608,723 608,648 583,586 532,535 482,483 420,457 346,457 Z"/>
  </g>
  <g id="bullet-char-template-8211" transform="scale(0.00048828125,-0.00048828125)">
   <path d="M -4,459 L 1135,459 1135,606 -4,606 -4,459 Z"/>
  </g>
  <g id="bullet-char-template-61548" transform="scale(0.00048828125,-0.00048828125)">
   <path d="M 173,740 C 173,903 231,1043 346,1159 462,1274 601,1332 765,1332 928,1332 1067,1274 1183,1159 1299,1043 1357,903 1357,740 1357,577 1299,437 1183,322 1067,206 928,148 765,148 601,148 462,206 346,322 231,437 173,577 173,740 Z"/>
  </g>
 </defs>
 <g class="Page">
  <g class="Group">
   <g class="com.sun.star.drawing.PolyPolygonShape">
    <g id="id3">
     <rect class="BoundingBox" stroke="none" fill="none" x="20014" y="29053" width="7988" height="6113"/>
     <path fill="rgb(0,0,0)" stroke="none" d="M 20978,29415 L 20980,29417 20980,29417 20952,29413 20922,29410 20892,29408 20877,29408 20862,29409 20831,29410 20799,29412 20767,29415 20735,29420 20702,29426 20668,29433 20634,29443 20599,29454 20716,29548 20825,29630 20925,29702 21019,29764 21019,29764 21018,29764 21018,29763 21017,29763 21016,29763 21015,29762 21014,29762 21013,29762 21013,29761 21012,29761 21012,29761 21011,29761 21019,29766 20948,29747 20876,29733 20801,29726 20724,29726 20685,29728 20645,29733 20605,29740 20563,29750 20479,29776 20392,29813 20515,29888 20628,29953 20733,30008 20831,30056 20830,30056 20829,30056 20829,30056 20828,30055 20827,30055 20826,30055 20825,30054 20824,30054 20823,30054 20822,30054 20822,30054 20821,30054 20829,30058 20755,30048 20680,30044 20604,30047 20527,30057 20488,30065 20449,30075 20410,30088 20370,30103 20289,30141 20207,30190 20411,30275 20503,30310 20590,30341 20590,30341 20597,30345 20528,30351 20458,30361 20388,30379 20318,30403 20249,30434 20180,30474 20112,30523 20044,30582 20158,30609 20265,30632 20364,30651 20458,30666 20457,30666 20456,30666 20455,30666 20452,30667 20449,30667 20447,30668 20447,30668 20446,30668 20432,30668 20438,30670 20386,30683 20334,30701 20282,30722 20231,30749 20180,30780 20129,30816 20079,30857 20028,30905 20183,30936 20254,30949 20322,30959 20281,30981 20241,31005 20202,31033 20163,31063 20125,31097 20087,31134 20051,31175 20015,31219 20347,31235 20303,31257 20259,31282 20216,31311 20174,31344 20133,31380 20093,31421 20054,31467 20017,31517 20144,31521 20261,31522 20369,31521 20469,31517 20469,31517 20469,31517 20468,31517 20468,31518 20467,31518 20466,31519 20464,31519 20463,31520 20461,31520 20459,31521 20456,31521 20450,31521 20444,31522 20441,31522 20438,31522 20450,31526 20401,31550 20352,31577 20305,31609 20259,31645 20214,31685 20171,31731 20129,31782 20088,31839 20246,31839 20387,31834 20515,31826 20631,31814 20628,31814 20626,31815 20623,31816 20621,31816 20620,31817 20618,31817 20617,31818 20613,31818 20608,31818 20606,31818 20604,31818 20602,31819 20599,31820 20607,31822 20543,31843 20480,31869 20419,31902 20360,31940 20302,31986 20247,32039 20194,32101 20143,32171 20270,32172 20388,32169 20497,32164 20597,32156 20596,32156 20595,32157 20593,32159 20590,32160 20589,32161 20588,32162 20532,32195 20478,32233 20427,32277 20378,32326 20333,32381 20291,32443 20253,32512 20219,32589 20331,32567 20435,32544 20531,32520 20621,32496 20620,32496 20620,32496 20620,32497 20619,32497 20618,32497 20617,32498 20616,32498 20615,32498 20614,32499 20614,32499 20613,32499 20613,32500 20621,32498 20578,32532 20537,32570 20498,32613 20461,32659 20427,32709 20395,32765 20365,32825 20339,32890 20629,32816 20600,32852 20574,32891 20550,32932 20527,32975 20507,33022 20488,33071 20472,33124 20458,33179 20622,33117 20697,33086 20767,33055 20766,33055 20766,33055 20766,33055 20766,33055 20765,33055 20765,33056 20765,33056 20765,33056 20765,33056 20764,33058 20763,33058 20763,33059 20763,33059 20763,33059 20763,33059 20763,33059 20762,33060 20762,33060 20762,33060 20762,33060 20762,33060 20762,33060 20761,33061 20760,33061 20759,33061 20759,33062 20758,33062 20758,33062 20757,33063 20757,33063 20761,33061 20730,33099 20702,33140 20676,33184 20653,33230 20631,33280 20613,33333 20597,33389 20584,33449 20702,33401 20810,33354 20907,33307 20996,33261 20994,33262 20993,33264 20990,33266 20989,33267 20988,33268 20987,33269 20987,33269 20986,33270 20986,33271 20988,33269 20952,33312 20918,33358 20888,33407 20860,33460 20835,33517 20814,33578 20797,33643 20784,33714 20922,33651 21044,33590 21153,33530 21250,33473 21250,33473 21250,33473 21250,33474 21250,33474 21250,33474 21250,33474 21250,33474 21249,33474 21249,33475 21248,33475 21247,33476 21247,33476 21246,33477 21256,33473 21205,33519 21158,33570 21114,33625 21075,33686 21040,33753 21011,33826 20988,33906 20971,33993 21153,33908 21310,33828 21444,33751 21559,33677 21537,33724 21519,33773 21503,33824 21491,33878 21483,33935 21478,33995 21478,34057 21482,34123 21655,33985 21798,33858 21916,33742 22014,33634 22014,33640 22012,33674 22011,33708 22011,33743 22013,33779 22017,33815 22023,33852 22030,33890 22039,33929 22095,33839 22151,33762 22208,33695 22264,33639 22321,33590 22377,33547 22434,33509 22492,33475 22459,33498 22430,33520 22407,33542 22387,33564 22371,33586 22358,33607 22349,33628 22342,33648 22337,33669 22334,33689 22333,33710 22332,33731 22334,33815 22509,33642 22688,33473 22848,33317 22912,33247 22939,33214 22962,33183 22920,33253 22884,33321 22854,33388 22828,33455 22807,33519 22789,33582 22760,33704 22523,33824 22306,33924 22107,34006 21921,34075 21239,34287 21369,34335 21428,34359 21454,34372 21478,34385 21499,34398 21516,34412 21523,34419 21530,34426 21535,34433 21539,34440 21542,34447 21544,34455 21544,34462 21543,34470 21541,34478 21538,34486 21533,34494 21526,34502 21318,34710 21418,34678 21467,34665 21516,34655 21541,34652 21565,34650 21589,34651 21612,34654 21636,34659 21658,34666 21681,34677 21703,34691 21699,34710 21693,34729 21684,34747 21673,34763 21660,34779 21645,34794 21628,34808 21610,34821 21570,34847 21527,34871 21437,34918 21507,34894 21565,34878 21611,34869 21630,34866 21648,34864 21664,34864 21678,34864 21690,34866 21702,34867 21724,34873 21744,34879 21748,34903 21749,34925 21747,34946 21744,34967 21738,34986 21731,35004 21722,35022 21712,35039 21689,35071 21664,35102 21638,35133 21614,35165 21816,35020 22028,34885 22248,34760 22469,34646 22688,34545 22902,34457 23104,34383 23292,34326 23820,34149 24088,34050 24344,33938 24465,33876 24580,33810 24688,33739 24786,33662 24875,33579 24952,33490 25017,33394 25068,33290 25305,32342 25506,32115 25601,31998 25689,31879 25770,31756 25842,31628 25905,31496 25956,31357 26239,31310 26509,31279 26770,31262 27023,31255 28000,31278 26016,30942 25908,30812 25794,30712 25735,30672 25676,30638 25616,30611 25555,30590 25494,30576 25433,30567 25372,30563 25311,30566 25250,30573 25189,30586 25070,30625 24954,30682 24842,30756 24737,30845 24638,30947 24547,31060 24466,31184 24396,31317 24338,31456 24330,31474 24321,31490 24310,31505 24297,31519 24283,31532 24268,31543 24233,31563 24195,31579 24153,31590 24109,31597 24064,31599 24018,31597 23972,31590 23927,31578 23885,31563 23846,31542 23810,31518 23794,31503 23780,31488 23766,31472 23755,31454 23659,31270 23543,31085 23409,30901 23257,30719 22911,30365 22518,30030 22090,29723 21642,29452 21187,29226 20961,29133 20737,29053 20796,29154 20856,29248 20916,29335 20978,29415 Z"/>
    </g>
   </g>
   <g class="com.sun.star.drawing.PolyPolygonShape">
    <g id="id4">
     <rect class="BoundingBox" stroke="none" fill="none" x="20001" y="28999" width="8001" height="6122"/>
     <path fill="rgb(0,128,128)" stroke="none" d="M 20727,28999 L 20785,29100 20845,29194 20906,29281 20968,29363 20940,29359 20910,29356 20880,29354 20850,29353 20819,29354 20787,29357 20755,29361 20723,29365 20689,29371 20656,29379 20622,29388 20587,29398 20705,29495 20815,29578 20918,29651 21013,29713 20942,29693 20868,29679 20793,29671 20716,29671 20676,29673 20636,29678 20595,29685 20553,29695 20467,29721 20379,29758 20505,29835 20622,29901 20730,29958 20830,30007 20755,29996 20678,29990 20601,29992 20562,29996 20522,30001 20482,30009 20442,30019 20402,30032 20361,30047 20320,30065 20278,30085 20194,30135 20302,30183 20404,30225 20500,30261 20589,30291 20518,30297 20448,30307 20377,30325 20307,30349 20238,30381 20168,30421 20099,30471 20030,30531 20145,30557 20251,30579 20351,30598 20445,30612 20390,30626 20336,30643 20281,30665 20228,30692 20174,30724 20120,30761 20067,30804 20015,30854 20309,30908 20268,30929 20228,30953 20188,30980 20150,31011 20111,31045 20074,31082 20037,31123 20001,31169 20177,31179 20257,31181 20334,31182 20290,31204 20246,31230 20203,31259 20161,31291 20120,31328 20080,31369 20041,31414 20003,31465 20130,31470 20248,31472 20356,31471 20456,31467 20404,31490 20353,31517 20303,31549 20255,31585 20207,31627 20162,31675 20117,31728 20075,31788 20233,31788 20374,31784 20502,31775 20618,31762 20550,31784 20484,31810 20419,31843 20357,31882 20297,31929 20238,31984 20183,32049 20129,32122 20257,32122 20375,32120 20484,32114 20583,32107 20526,32140 20471,32179 20418,32223 20369,32273 20322,32329 20279,32392 20240,32462 20205,32541 20427,32493 20526,32469 20616,32443 20572,32478 20529,32516 20489,32559 20451,32605 20416,32657 20383,32713 20353,32774 20326,32840 20616,32766 20588,32803 20561,32841 20536,32883 20514,32927 20493,32974 20475,33023 20458,33076 20445,33132 20530,33100 20609,33068 20754,33006 20723,33045 20694,33087 20667,33131 20642,33179 20620,33229 20601,33284 20585,33341 20571,33403 20689,33354 20796,33306 20893,33260 20982,33214 20945,33257 20910,33303 20878,33353 20850,33407 20825,33465 20803,33527 20785,33594 20772,33665 20914,33600 21040,33537 21152,33476 21252,33418 21200,33465 21151,33517 21106,33573 21066,33635 21031,33702 21001,33776 20976,33857 20959,33946 21141,33861 21298,33780 21432,33703 21548,33628 21526,33676 21507,33725 21492,33777 21479,33831 21471,33889 21466,33949 21465,34012 21469,34078 21643,33939 21787,33811 21905,33694 22004,33586 22002,33620 22001,33655 22001,33690 22003,33727 22007,33764 22013,33803 22020,33842 22029,33881 22087,33789 22144,33711 22202,33643 22259,33586 22317,33537 22374,33494 22432,33457 22490,33422 22455,33446 22426,33469 22401,33491 22380,33513 22363,33535 22350,33556 22340,33577 22332,33598 22327,33619 22324,33640 22323,33660 22323,33681 22325,33767 22500,33594 22679,33425 22839,33269 22904,33198 22931,33165 22954,33134 22912,33204 22876,33273 22845,33341 22820,33407 22798,33472 22780,33535 22751,33656 22513,33776 22296,33876 22096,33958 21910,34027 21227,34239 21358,34288 21417,34313 21443,34326 21467,34339 21488,34352 21505,34366 21512,34373 21519,34380 21524,34387 21528,34395 21531,34402 21533,34410 21533,34417 21532,34425 21530,34433 21527,34441 21522,34449 21515,34457 21307,34664 21407,34632 21456,34619 21506,34609 21530,34606 21554,34605 21578,34605 21601,34608 21625,34613 21648,34621 21670,34631 21692,34644 21689,34664 21682,34683 21673,34700 21662,34717 21649,34733 21634,34748 21617,34762 21598,34776 21558,34801 21515,34825 21426,34872 21496,34848 21553,34832 21599,34823 21618,34820 21635,34818 21651,34818 21665,34818 21678,34819 21690,34821 21711,34827 21731,34833 21735,34857 21736,34879 21735,34900 21731,34921 21726,34940 21719,34958 21710,34976 21701,34993 21678,35025 21653,35057 21603,35119 21805,34975 22018,34840 22238,34714 22460,34600 22680,34498 22893,34410 23096,34336 23284,34278 23813,34102 24081,34003 24338,33891 24460,33829 24575,33763 24682,33692 24781,33615 24870,33531 24947,33442 25012,33345 25063,33241 25301,32294 25502,32066 25597,31949 25685,31828 25766,31705 25839,31577 25902,31444 25953,31305 26236,31258 26507,31227 26768,31210 27022,31203 28000,31225 26013,30889 25904,30759 25790,30658 25732,30618 25672,30585 25612,30558 25552,30537 25490,30522 25429,30513 25368,30510 25307,30512 25246,30520 25185,30533 25065,30572 24949,30630 24838,30704 24732,30792 24633,30894 24543,31008 24462,31132 24392,31265 24334,31404 24326,31422 24317,31438 24306,31453 24293,31467 24279,31480 24263,31492 24229,31513 24190,31528 24148,31540 24104,31546 24058,31548 24012,31546 23966,31539 23922,31528 23879,31512 23840,31491 23805,31466 23789,31452 23774,31436 23761,31420 23750,31402 23653,31218 23537,31033 23402,30849 23250,30667 22903,30312 22509,29977 22081,29669 21633,29398 21177,29172 20950,29078 20727,28999 Z"/>
    </g>
   </g>
   <g class="com.sun.star.drawing.PolyPolygonShape">
    <g id="id5">
     <rect class="BoundingBox" stroke="none" fill="none" x="24617" y="31005" width="1127" height="1286"/>
     <path fill="rgb(255,255,255)" stroke="none" d="M 25264,31015 L 25256,31029 25246,31041 25235,31052 25223,31062 25210,31071 25196,31080 25180,31087 25163,31093 25145,31098 25125,31103 25104,31106 25082,31108 25059,31110 25034,31110 24983,31109 24938,31107 24971,31140 24977,31145 24982,31151 24984,31153 24985,31156 24987,31158 24988,31161 24989,31163 24990,31165 24991,31168 24992,31170 24992,31172 24992,31174 24992,31179 24992,31183 24992,31187 24991,31192 24989,31196 24987,31201 24984,31206 24981,31210 24977,31215 24968,31226 24957,31236 24945,31247 24932,31257 24874,31301 24860,31311 24870,31322 24882,31341 24892,31358 24900,31374 24907,31390 24913,31404 24917,31418 24920,31431 24922,31443 24923,31453 24922,31463 24921,31473 24920,31481 24917,31490 24914,31498 24910,31505 24905,31513 24899,31519 24893,31526 24886,31532 24879,31538 24862,31550 24843,31562 24761,31606 24751,31610 24753,31621 24754,31627 24755,31632 24755,31637 24755,31642 24755,31647 24754,31652 24753,31657 24752,31662 24750,31666 24748,31671 24746,31675 24744,31680 24741,31684 24737,31688 24730,31697 24722,31706 24713,31714 24702,31723 24690,31731 24677,31739 24663,31746 24647,31754 24631,31761 24617,31767 24619,31781 24623,31803 24629,31824 24635,31845 24642,31864 24651,31882 24661,31899 24666,31907 24672,31914 24679,31922 24685,31928 24692,31934 24699,31939 24707,31943 24715,31947 24724,31951 24733,31954 24742,31956 24751,31958 24761,31959 24772,31960 24794,31960 24817,31958 24841,31954 24852,32001 24858,32023 24865,32045 24874,32065 24884,32084 24889,32093 24895,32101 24902,32109 24909,32117 24917,32124 24925,32130 24934,32136 24943,32141 24953,32145 24964,32149 24975,32152 24986,32154 24998,32156 25010,32156 25023,32157 25037,32156 25065,32152 25095,32146 25103,32162 25111,32177 25120,32191 25130,32204 25140,32216 25151,32227 25162,32236 25173,32245 25187,32253 25201,32260 25216,32266 25231,32272 25290,32290 25313,32264 25283,32255 25250,32243 25234,32237 25218,32230 25205,32223 25193,32216 25182,32208 25171,32200 25162,32190 25152,32179 25144,32168 25136,32154 25129,32139 25123,32123 25117,32105 25101,32111 25070,32119 25043,32124 25030,32125 25019,32126 25008,32125 24997,32124 24988,32122 24978,32120 24970,32117 24962,32113 24954,32109 24947,32104 24940,32099 24934,32094 24928,32087 24922,32080 24917,32072 24912,32064 24902,32046 24894,32026 24887,32004 24881,31982 24876,31957 24872,31932 24868,31913 24851,31919 24825,31925 24802,31928 24791,31929 24781,31929 24772,31929 24763,31928 24754,31926 24747,31924 24739,31922 24732,31919 24726,31916 24720,31912 24714,31908 24709,31903 24704,31899 24699,31894 24695,31888 24690,31882 24686,31876 24683,31869 24676,31855 24670,31839 24665,31822 24660,31804 24656,31785 24671,31778 24686,31771 24699,31763 24712,31755 24725,31747 24736,31738 24746,31729 24755,31719 24760,31714 24763,31709 24767,31704 24770,31699 24773,31693 24776,31688 24778,31683 24780,31677 24782,31671 24784,31666 24786,31654 24787,31643 24786,31631 24865,31588 24884,31576 24902,31563 24910,31556 24918,31549 24925,31541 24932,31532 24935,31528 24938,31523 24944,31513 24948,31502 24952,31491 24954,31478 24956,31466 24956,31453 24955,31439 24953,31426 24950,31412 24945,31398 24940,31383 24933,31368 24925,31352 24915,31336 24905,31318 24958,31278 24971,31268 24983,31257 24994,31246 25004,31235 25009,31228 25013,31222 25017,31215 25021,31208 25024,31201 25025,31197 25026,31193 25026,31189 25027,31185 25027,31181 25027,31177 25027,31174 25027,31172 25026,31170 25025,31168 25024,31166 25023,31164 25021,31160 25014,31152 25011,31148 25008,31144 25053,31143 25075,31142 25096,31140 25117,31137 25136,31134 25155,31129 25173,31124 25191,31118 25208,31110 25223,31101 25238,31091 25252,31080 25264,31068 25276,31055 25286,31041 25313,31041 25340,31044 25396,31051 25509,31068 25539,31071 25569,31073 25599,31074 25628,31073 25657,31070 25686,31065 25714,31057 25728,31052 25742,31046 25729,31015 25704,31025 25678,31032 25652,31037 25626,31039 25599,31040 25571,31039 25543,31037 25515,31033 25399,31016 25339,31009 25309,31006 25278,31006 25268,31006 25264,31015 Z"/>
    </g>
   </g>
   <g class="com.sun.star.drawing.PolyPolygonShape">
    <g id="id6">
     <rect class="BoundingBox" stroke="none" fill="none" x="25264" y="30850" width="289" height="289"/>
     <path fill="rgb(255,255,255)" stroke="none" d="M 25552,30994 L 25551,31009 25549,31023 25546,31037 25541,31050 25535,31063 25527,31075 25519,31086 25510,31096 25500,31105 25489,31113 25477,31120 25464,31127 25451,31131 25437,31135 25423,31137 25408,31138 25393,31137 25379,31135 25365,31131 25352,31127 25340,31120 25328,31113 25317,31105 25306,31096 25297,31086 25289,31075 25282,31063 25276,31050 25271,31037 25267,31023 25265,31009 25264,30994 25265,30979 25267,30965 25271,30951 25276,30938 25282,30925 25289,30914 25297,30902 25306,30892 25317,30883 25328,30875 25340,30868 25352,30862 25365,30857 25379,30853 25393,30851 25408,30850 25423,30851 25437,30853 25451,30857 25464,30862 25477,30868 25489,30875 25500,30883 25510,30892 25519,30902 25527,30914 25535,30925 25541,30938 25546,30951 25549,30965 25551,30979 25552,30994 Z"/>
    </g>
   </g>
   <g class="com.sun.star.drawing.PolyPolygonShape">
    <g id="id7">
     <rect class="BoundingBox" stroke="none" fill="none" x="25255" y="30841" width="307" height="307"/>
     <path fill="none" stroke="rgb(255,255,255)" stroke-width="17" stroke-linejoin="miter" d="M 25552,30994 L 25551,31009 25549,31023 25546,31037 25541,31050 25535,31063 25527,31075 25519,31086 25510,31096 25500,31105 25489,31113 25477,31120 25464,31127 25451,31131 25437,31135 25423,31137 25408,31138 25393,31137 25379,31135 25365,31131 25352,31127 25340,31120 25328,31113 25317,31105 25306,31096 25297,31086 25289,31075 25282,31063 25276,31050 25271,31037 25267,31023 25265,31009 25264,30994 25265,30979 25267,30965 25271,30951 25276,30938 25282,30925 25289,30914 25297,30902 25306,30892 25317,30883 25328,30875 25340,30868 25352,30862 25365,30857 25379,30853 25393,30851 25408,30850 25423,30851 25437,30853 25451,30857 25464,30862 25477,30868 25489,30875 25500,30883 25510,30892 25519,30902 25527,30914 25535,30925 25541,30938 25546,30951 25549,30965 25551,30979 25552,30994 Z"/>
    </g>
   </g>
   <g class="com.sun.star.drawing.PolyPolygonShape">
    <g id="id8">
     <rect class="BoundingBox" stroke="none" fill="none" x="25728" y="30858" width="276" height="458"/>
     <path fill="rgb(255,255,255)" stroke="none" d="M 25740,31012 L 25729,31017 25731,31031 25737,31061 25745,31089 25754,31115 25765,31138 25776,31159 25789,31179 25802,31196 25816,31213 25831,31228 25846,31242 25877,31268 25939,31315 25942,31301 25964,31297 25904,31251 25875,31226 25848,31199 25835,31184 25822,31168 25811,31150 25800,31132 25790,31112 25782,31090 25774,31066 25768,31041 25812,31033 25823,31031 25835,31028 25848,31023 25861,31018 25875,31010 25890,31001 25906,30989 25923,30975 25941,30958 25960,30937 26003,30885 25981,30858 25937,30912 25918,30933 25901,30950 25885,30963 25870,30974 25856,30982 25843,30988 25830,30992 25818,30996 25794,31000 25768,31004 25755,31007 25740,31012 Z"/>
    </g>
   </g>
   <g class="com.sun.star.drawing.PolyPolygonShape">
    <g id="id9">
     <rect class="BoundingBox" stroke="none" fill="none" x="21011" y="29711" width="1507" height="929"/>
     <path fill="rgb(255,255,255)" stroke="none" d="M 21011,29712 L 21109,29769 21219,29826 21457,29943 21699,30061 21812,30121 21915,30182 22018,30250 22114,30316 22203,30380 22282,30440 22351,30498 22409,30552 22482,30625 22487,30629 22492,30633 22496,30635 22500,30637 22502,30638 22504,30638 22506,30638 22507,30639 22509,30638 22510,30638 22511,30638 22512,30637 22513,30636 22514,30635 22515,30634 22516,30632 22516,30631 22516,30629 22516,30627 22516,30625 22516,30621 22514,30616 22512,30610 22509,30604 22505,30597 22500,30589 22484,30571 22463,30549 22437,30525 22375,30471 22303,30413 22223,30352 22134,30287 22037,30221 21932,30153 21710,30021 21478,29901 21242,29796 21126,29751 21011,29712 Z"/>
    </g>
   </g>
   <g class="com.sun.star.drawing.PolyPolygonShape">
    <g id="id10">
     <rect class="BoundingBox" stroke="none" fill="none" x="20966" y="29360" width="1532" height="953"/>
     <path fill="rgb(255,255,255)" stroke="none" d="M 20967,29360 L 21007,29373 21052,29390 21101,29412 21153,29438 21388,29566 21516,29640 21648,29719 21907,29885 22305,30172 22418,30273 22437,30289 22451,30300 22457,30305 22462,30308 22465,30309 22467,30310 22469,30310 22470,30310 22472,30311 22473,30311 22474,30312 22474,30312 22475,30312 22475,30312 22476,30312 22476,30312 22477,30312 22478,30311 22479,30311 22480,30310 22481,30310 22482,30310 22483,30310 22483,30310 22484,30309 22485,30309 22486,30308 22487,30308 22489,30306 22491,30305 22492,30303 22494,30301 22494,30299 22495,30298 22495,30297 22496,30296 22496,30295 22496,30294 22496,30293 22496,30292 22496,30285 22495,30285 22495,30284 22495,30284 22495,30284 22494,30283 22494,30282 22493,30281 22493,30281 22493,30280 22492,30280 22492,30280 22492,30279 22490,30276 22487,30272 22484,30269 22481,30266 22478,30262 22475,30259 22467,30252 22445,30233 22418,30210 22385,30185 22348,30157 21926,29856 21665,29689 21533,29609 21404,29535 21371,29521 21322,29497 21194,29438 21126,29408 21062,29383 21033,29373 21007,29366 20985,29361 20975,29360 20967,29360 Z"/>
    </g>
   </g>
   <g class="com.sun.star.drawing.PolyPolygonShape">
    <g id="id11">
     <rect class="BoundingBox" stroke="none" fill="none" x="20826" y="30005" width="1681" height="930"/>
     <path fill="rgb(255,255,255)" stroke="none" d="M 20827,30005 L 21362,30216 21637,30336 21766,30401 21884,30470 21999,30545 22106,30619 22202,30689 22286,30755 22323,30785 22357,30813 22388,30840 22414,30864 22435,30885 22452,30904 22465,30918 22470,30923 22472,30925 22474,30926 22478,30929 22482,30931 22486,30932 22489,30933 22492,30934 22494,30934 22495,30933 22497,30933 22498,30933 22499,30932 22500,30932 22501,30931 22502,30930 22503,30929 22504,30928 22504,30927 22505,30925 22505,30924 22505,30922 22505,30921 22505,30919 22505,30915 22503,30911 22502,30907 22500,30903 22498,30900 22496,30896 22494,30893 22487,30885 22480,30877 22461,30859 22437,30839 22411,30814 22380,30788 22307,30728 22222,30662 22125,30591 22018,30516 21901,30440 21778,30365 21650,30293 21518,30226 21382,30165 21244,30111 21105,30066 20966,30030 20827,30005 Z"/>
    </g>
   </g>
   <g class="com.sun.star.drawing.PolyPolygonShape">
    <g id="id12">
     <rect class="BoundingBox" stroke="none" fill="none" x="20585" y="30288" width="1828" height="931"/>
     <path fill="rgb(255,255,255)" stroke="none" d="M 20586,30289 L 20635,30291 20689,30299 20809,30326 20941,30366 21078,30415 21342,30525 21548,30625 21675,30696 21798,30770 21916,30847 22027,30924 22223,31074 22306,31145 22377,31210 22381,31213 22385,31215 22389,31216 22393,31217 22395,31217 22396,31217 22398,31217 22400,31217 22402,31216 22403,31216 22405,31215 22406,31214 22407,31213 22408,31212 22409,31211 22410,31209 22410,31208 22411,31206 22411,31205 22411,31203 22411,31201 22410,31199 22410,31197 22409,31195 22406,31191 22402,31186 22335,31115 22253,31041 22159,30966 22053,30890 21940,30814 21819,30739 21563,30594 21432,30528 21302,30468 21173,30416 21046,30372 20923,30337 20804,30311 20692,30294 20586,30289 Z"/>
    </g>
   </g>
   <g class="com.sun.star.drawing.PolyPolygonShape">
    <g id="id13">
     <rect class="BoundingBox" stroke="none" fill="none" x="20445" y="30609" width="1860" height="865"/>
     <path fill="rgb(255,255,255)" stroke="none" d="M 20446,30609 L 20587,30634 20732,30666 20879,30706 21027,30751 21172,30801 21313,30856 21447,30913 21573,30973 21703,31041 21824,31110 21935,31179 22033,31247 22078,31279 22118,31312 22188,31373 22239,31423 22268,31454 22272,31459 22277,31463 22281,31466 22285,31469 22288,31471 22292,31472 22294,31472 22295,31472 22297,31472 22298,31472 22299,31471 22300,31471 22301,31470 22302,31469 22303,31467 22303,31466 22303,31464 22303,31462 22303,31457 22301,31452 22299,31445 22296,31437 22291,31428 22285,31418 22277,31408 22267,31396 22243,31371 22213,31343 22179,31314 22140,31282 22053,31217 21953,31150 21841,31081 21719,31011 21588,30942 21451,30875 21310,30813 21166,30758 21021,30709 20875,30669 20730,30638 20587,30618 20446,30609 Z"/>
    </g>
   </g>
   <g class="com.sun.star.drawing.PolyPolygonShape">
    <g id="id14">
     <rect class="BoundingBox" stroke="none" fill="none" x="20309" y="30881" width="1916" height="836"/>
     <path fill="rgb(255,255,255)" stroke="none" d="M 20566,30883 L 20533,30882 20500,30882 20467,30884 20435,30887 20310,30905 20373,30901 20438,30901 20574,30912 20717,30936 20861,30970 21004,31012 21144,31059 21275,31111 21396,31163 21527,31228 21651,31298 21768,31370 21875,31443 21973,31515 22059,31584 22132,31649 22193,31707 22197,31711 22199,31712 22201,31713 22203,31714 22205,31715 22207,31715 22208,31716 22210,31716 22212,31715 22213,31715 22215,31715 22216,31714 22217,31713 22218,31712 22219,31711 22220,31710 22221,31708 22222,31707 22222,31705 22223,31702 22224,31699 22224,31695 22223,31694 22223,31692 22222,31690 22222,31689 22221,31687 22220,31686 22193,31653 22161,31620 22087,31552 22000,31481 21900,31409 21789,31337 21670,31266 21543,31197 21410,31132 21307,31086 21202,31043 21096,31004 20989,30969 20882,30939 20776,30914 20670,30896 20566,30883 Z"/>
    </g>
   </g>
   <g class="com.sun.star.drawing.PolyPolygonShape">
    <g id="id15">
     <rect class="BoundingBox" stroke="none" fill="none" x="20335" y="31171" width="1734" height="682"/>
     <path fill="rgb(255,255,255)" stroke="none" d="M 21386,31416 L 21496,31470 21599,31528 21694,31586 21780,31644 21858,31700 21926,31753 21985,31802 22033,31845 22037,31847 22040,31849 22044,31851 22048,31852 22052,31852 22056,31851 22057,31851 22059,31850 22061,31850 22062,31849 22063,31848 22064,31847 22065,31846 22066,31845 22067,31843 22067,31842 22068,31840 22068,31838 22068,31836 22067,31834 22066,31832 22065,31830 22063,31825 22059,31820 22012,31772 21954,31720 21884,31666 21805,31610 21716,31553 21618,31496 21513,31439 21402,31384 21284,31333 21160,31288 21032,31248 20899,31216 20763,31193 20623,31177 20480,31172 20335,31177 20460,31188 20592,31204 20729,31226 20868,31253 21006,31286 21140,31323 21268,31367 21386,31416 Z"/>
    </g>
   </g>
   <g class="com.sun.star.drawing.PolyPolygonShape">
    <g id="id16">
     <rect class="BoundingBox" stroke="none" fill="none" x="20459" y="31442" width="1354" height="475"/>
     <path fill="rgb(255,255,255)" stroke="none" d="M 20623,31443 L 20599,31443 20578,31444 20558,31446 20540,31449 20503,31455 20482,31458 20460,31460 20547,31466 20642,31476 20847,31506 21046,31546 21135,31569 21213,31592 21304,31627 21390,31664 21471,31704 21546,31746 21615,31787 21678,31829 21733,31870 21781,31909 21785,31912 21789,31914 21791,31915 21793,31916 21795,31916 21796,31916 21798,31916 21800,31916 21801,31915 21803,31915 21804,31914 21805,31913 21806,31912 21807,31911 21808,31910 21809,31909 21810,31907 21810,31906 21811,31904 21811,31903 21811,31901 21811,31899 21811,31898 21811,31896 21810,31892 21808,31889 21806,31886 21784,31863 21760,31841 21705,31796 21640,31753 21569,31711 21490,31671 21406,31632 21318,31595 21225,31561 21153,31538 21080,31516 21005,31497 20930,31480 20853,31466 20776,31455 20699,31447 20623,31443 Z"/>
    </g>
   </g>
   <g class="com.sun.star.drawing.PolyPolygonShape">
    <g id="id17">
     <rect class="BoundingBox" stroke="none" fill="none" x="20613" y="31754" width="994" height="318"/>
     <path fill="rgb(255,255,255)" stroke="none" d="M 21577,32066 L 21578,32068 21580,32068 21581,32069 21583,32070 21585,32070 21586,32071 21588,32071 21589,32071 21591,32071 21593,32070 21594,32070 21596,32069 21597,32069 21598,32068 21600,32067 21601,32066 21602,32065 21603,32064 21604,32063 21604,32061 21605,32060 21606,32058 21606,32057 21606,32055 21606,32053 21606,32052 21605,32050 21605,32048 21604,32047 21603,32045 21602,32043 21600,32041 21556,31998 21508,31959 21455,31924 21399,31893 21339,31865 21277,31840 21213,31819 21147,31801 21012,31774 20875,31759 20741,31754 20613,31759 20779,31774 20930,31793 21066,31819 21189,31852 21300,31892 21352,31915 21401,31941 21448,31969 21493,31999 21535,32031 21577,32066 Z"/>
    </g>
   </g>
   <g class="com.sun.star.drawing.PolyPolygonShape">
    <g id="id18">
     <rect class="BoundingBox" stroke="none" fill="none" x="20583" y="32036" width="847" height="172"/>
     <path fill="rgb(255,255,255)" stroke="none" d="M 20972,32039 L 20920,32037 20870,32038 20822,32042 20774,32050 20727,32060 20680,32072 20584,32101 20716,32083 20831,32073 20934,32072 21028,32080 21073,32087 21118,32096 21207,32122 21301,32158 21402,32202 21408,32205 21413,32206 21415,32206 21417,32206 21419,32206 21420,32206 21422,32205 21423,32204 21424,32203 21425,32202 21426,32201 21427,32200 21428,32199 21428,32197 21428,32196 21429,32194 21428,32191 21428,32187 21427,32184 21426,32181 21424,32178 21422,32175 21421,32174 21419,32173 21362,32142 21305,32116 21248,32094 21192,32076 21135,32062 21080,32052 21026,32044 20972,32039 Z"/>
    </g>
   </g>
   <g class="com.sun.star.drawing.PolyPolygonShape">
    <g id="id19">
     <rect class="BoundingBox" stroke="none" fill="none" x="20618" y="32295" width="788" height="140"/>
     <path fill="rgb(255,255,255)" stroke="none" d="M 20959,32299 L 20910,32306 20862,32315 20817,32328 20774,32343 20732,32361 20692,32382 20655,32407 20619,32433 20747,32387 20855,32356 20903,32346 20948,32338 20991,32334 21032,32332 21072,32334 21112,32337 21193,32351 21280,32373 21379,32400 21385,32402 21391,32402 21393,32402 21395,32401 21397,32401 21399,32400 21400,32399 21402,32398 21403,32397 21403,32396 21404,32394 21404,32393 21405,32391 21405,32390 21405,32388 21404,32386 21404,32383 21402,32380 21400,32376 21398,32373 21396,32371 21394,32370 21393,32369 21392,32368 21390,32367 21328,32344 21270,32326 21214,32313 21161,32304 21109,32298 21059,32296 21009,32296 20959,32299 Z"/>
    </g>
   </g>
   <g class="com.sun.star.drawing.PolyPolygonShape">
    <g id="id20">
     <rect class="BoundingBox" stroke="none" fill="none" x="20616" y="32522" width="1096" height="235"/>
     <path fill="rgb(255,255,255)" stroke="none" d="M 21697,32531 L 21622,32525 21544,32523 21466,32524 21387,32529 21229,32546 21077,32569 21005,32584 20936,32602 20871,32623 20809,32647 20753,32672 20701,32699 20656,32727 20617,32756 20816,32676 20887,32651 20943,32633 20987,32621 21023,32614 21083,32602 21229,32580 21378,32566 21532,32561 21695,32564 21697,32564 21699,32564 21700,32563 21702,32563 21703,32562 21704,32561 21705,32561 21706,32560 21707,32558 21708,32557 21708,32556 21709,32555 21710,32552 21710,32549 21710,32545 21709,32542 21708,32540 21708,32538 21707,32537 21706,32536 21705,32535 21704,32534 21703,32533 21702,32532 21700,32531 21699,32531 21697,32531 Z"/>
    </g>
   </g>
   <g class="com.sun.star.drawing.PolyPolygonShape">
    <g id="id21">
     <rect class="BoundingBox" stroke="none" fill="none" x="20752" y="32691" width="1082" height="309"/>
     <path fill="rgb(255,255,255)" stroke="none" d="M 21812,32692 L 21731,32692 21650,32696 21569,32706 21488,32718 21409,32734 21331,32752 21182,32793 21112,32814 21047,32837 20987,32861 20930,32887 20879,32914 20832,32941 20790,32970 20753,32999 20892,32936 21017,32885 21120,32847 21192,32824 21335,32785 21408,32768 21483,32753 21561,32741 21641,32733 21726,32728 21814,32727 21816,32727 21817,32726 21819,32726 21821,32725 21822,32725 21824,32724 21825,32723 21826,32722 21827,32720 21829,32719 21830,32718 21830,32716 21831,32715 21832,32713 21832,32712 21832,32710 21833,32708 21833,32707 21832,32705 21832,32704 21832,32702 21831,32701 21830,32699 21829,32698 21827,32697 21826,32696 21824,32695 21822,32694 21820,32693 21817,32693 21812,32692 Z"/>
    </g>
   </g>
   <g class="com.sun.star.drawing.PolyPolygonShape">
    <g id="id22">
     <rect class="BoundingBox" stroke="none" fill="none" x="20984" y="32823" width="1026" height="383"/>
     <path fill="rgb(255,255,255)" stroke="none" d="M 21989,32824 L 21835,32852 21681,32888 21530,32931 21386,32977 21320,33001 21258,33027 21200,33053 21148,33081 21100,33110 21057,33140 21018,33172 20984,33205 21131,33123 21246,33068 21334,33032 21398,33008 21534,32965 21674,32927 21824,32892 21994,32857 21997,32856 21999,32856 22001,32855 22003,32854 22005,32853 22006,32852 22007,32851 22007,32850 22008,32849 22008,32847 22009,32846 22008,32844 22008,32843 22008,32841 22007,32838 22005,32835 22003,32832 22001,32830 21999,32828 21996,32826 21995,32825 21993,32825 21992,32824 21991,32824 21990,32824 21989,32824 Z"/>
    </g>
   </g>
   <g class="com.sun.star.drawing.PolyPolygonShape">
    <g id="id23">
     <rect class="BoundingBox" stroke="none" fill="none" x="21254" y="32992" width="862" height="416"/>
     <path fill="rgb(255,255,255)" stroke="none" d="M 22092,32993 L 21946,33022 21813,33060 21692,33106 21583,33159 21486,33217 21398,33278 21321,33342 21254,33407 21348,33338 21438,33277 21528,33222 21621,33174 21722,33131 21832,33093 21957,33058 22099,33026 22102,33025 22104,33025 22106,33024 22107,33023 22109,33022 22110,33021 22111,33020 22112,33019 22113,33017 22114,33016 22114,33014 22115,33013 22115,33011 22115,33010 22115,33008 22114,33007 22114,33005 22113,33003 22113,33002 22112,33001 22111,32999 22110,32998 22108,32997 22107,32996 22105,32995 22104,32994 22102,32994 22100,32993 22098,32993 22096,32993 22094,32993 22092,32993 Z"/>
    </g>
   </g>
   <g class="com.sun.star.drawing.PolyPolygonShape">
    <g id="id24">
     <rect class="BoundingBox" stroke="none" fill="none" x="21545" y="33141" width="772" height="479"/>
     <path fill="rgb(255,255,255)" stroke="none" d="M 22290,33142 L 22215,33156 22144,33174 22077,33195 22014,33220 21955,33247 21900,33277 21849,33309 21801,33342 21757,33376 21717,33412 21646,33483 21589,33553 21546,33618 21641,33526 21732,33445 21821,33375 21910,33315 22000,33266 22046,33245 22094,33226 22142,33210 22192,33196 22298,33176 22300,33175 22303,33174 22305,33174 22307,33173 22309,33172 22310,33171 22312,33169 22313,33168 22314,33166 22315,33165 22315,33163 22316,33162 22316,33160 22316,33159 22316,33157 22316,33155 22315,33154 22314,33152 22314,33151 22313,33149 22312,33148 22310,33147 22309,33146 22307,33145 22306,33144 22304,33143 22302,33142 22300,33142 22297,33142 22295,33142 22290,33142 Z"/>
    </g>
   </g>
   <g class="com.sun.star.drawing.PolyPolygonShape">
    <g id="id25">
     <rect class="BoundingBox" stroke="none" fill="none" x="22000" y="33270" width="437" height="305"/>
     <path fill="rgb(255,255,255)" stroke="none" d="M 22414,33271 L 22402,33273 22389,33275 22362,33283 22334,33294 22304,33307 22274,33322 22243,33339 22181,33376 22151,33396 22123,33417 22098,33439 22074,33463 22052,33489 22033,33516 22015,33544 22000,33574 22065,33509 22091,33485 22114,33465 22135,33448 22156,33433 22198,33405 22228,33387 22258,33370 22287,33356 22316,33343 22344,33331 22371,33321 22422,33304 22427,33302 22429,33301 22430,33300 22432,33299 22433,33298 22434,33296 22435,33295 22435,33294 22436,33292 22436,33291 22436,33289 22436,33288 22435,33286 22435,33285 22434,33284 22432,33281 22430,33278 22428,33276 22425,33274 22422,33272 22420,33271 22418,33271 22417,33271 22415,33271 22414,33271 Z"/>
    </g>
   </g>
   <g class="com.sun.star.drawing.PolyPolygonShape">
    <g id="id26">
     <rect class="BoundingBox" stroke="none" fill="none" x="25264" y="30850" width="289" height="289"/>
     <path fill="rgb(255,255,255)" stroke="none" d="M 25552,30994 L 25551,31009 25549,31023 25546,31037 25541,31050 25535,31063 25527,31075 25519,31086 25510,31096 25500,31105 25489,31113 25477,31120 25464,31127 25451,31131 25437,31135 25423,31137 25408,31138 25393,31137 25379,31135 25365,31131 25352,31127 25340,31120 25328,31113 25317,31105 25306,31096 25297,31086 25289,31075 25282,31063 25276,31050 25271,31037 25267,31023 25265,31009 25264,30994 25265,30979 25267,30965 25271,30951 25276,30938 25282,30925 25289,30914 25297,30902 25306,30892 25317,30883 25328,30875 25340,30868 25352,30862 25365,30857 25379,30853 25393,30851 25408,30850 25423,30851 25437,30853 25451,30857 25464,30862 25477,30868 25489,30875 25500,30883 25510,30892 25519,30902 25527,30914 25535,30925 25541,30938 25546,30951 25549,30965 25551,30979 25552,30994 Z"/>
    </g>
   </g>
   <g class="com.sun.star.drawing.PolyPolygonShape">
    <g id="id27">
     <rect class="BoundingBox" stroke="none" fill="none" x="25255" y="30841" width="307" height="307"/>
     <path fill="none" stroke="rgb(255,255,255)" stroke-width="17" stroke-linejoin="miter" d="M 25552,30994 L 25551,31009 25549,31023 25546,31037 25541,31050 25535,31063 25527,31075 25519,31086 25510,31096 25500,31105 25489,31113 25477,31120 25464,31127 25451,31131 25437,31135 25423,31137 25408,31138 25393,31137 25379,31135 25365,31131 25352,31127 25340,31120 25328,31113 25317,31105 25306,31096 25297,31086 25289,31075 25282,31063 25276,31050 25271,31037 25267,31023 25265,31009 25264,30994 25265,30979 25267,30965 25271,30951 25276,30938 25282,30925 25289,30914 25297,30902 25306,30892 25317,30883 25328,30875 25340,30868 25352,30862 25365,30857 25379,30853 25393,30851 25408,30850 25423,30851 25437,30853 25451,30857 25464,30862 25477,30868 25489,30875 25500,30883 25510,30892 25519,30902 25527,30914 25535,30925 25541,30938 25546,30951 25549,30965 25551,30979 25552,30994 Z"/>
    </g>
   </g>
   <g class="com.sun.star.drawing.PolyPolygonShape">
    <g id="id28">
     <rect class="BoundingBox" stroke="none" fill="none" x="25264" y="30850" width="289" height="289"/>
     <path fill="rgb(55,200,113)" stroke="none" d="M 25552,30994 L 25551,31009 25549,31023 25546,31037 25541,31050 25535,31063 25527,31075 25519,31086 25510,31096 25500,31105 25489,31113 25477,31120 25464,31127 25451,31131 25437,31135 25423,31137 25408,31138 25393,31137 25379,31135 25365,31131 25352,31127 25340,31120 25328,31113 25317,31105 25306,31096 25297,31086 25289,31075 25282,31063 25276,31050 25271,31037 25267,31023 25265,31009 25264,30994 25265,30979 25267,30965 25271,30951 25276,30938 25282,30925 25289,30914 25297,30902 25306,30892 25317,30883 25328,30875 25340,30868 25352,30862 25365,30857 25379,30853 25393,30851 25408,30850 25423,30851 25437,30853 25451,30857 25464,30862 25477,30868 25489,30875 25500,30883 25510,30892 25519,30902 25527,30914 25535,30925 25541,30938 25546,30951 25549,30965 25551,30979 25552,30994 Z"/>
    </g>
   </g>
   <g class="com.sun.star.drawing.PolyPolygonShape">
    <g id="id29">
     <rect class="BoundingBox" stroke="none" fill="none" x="25255" y="30841" width="307" height="307"/>
     <path fill="none" stroke="rgb(255,255,255)" stroke-width="17" stroke-linejoin="miter" d="M 25552,30994 L 25551,31009 25549,31023 25546,31037 25541,31050 25535,31063 25527,31075 25519,31086 25510,31096 25500,31105 25489,31113 25477,31120 25464,31127 25451,31131 25437,31135 25423,31137 25408,31138 25393,31137 25379,31135 25365,31131 25352,31127 25340,31120 25328,31113 25317,31105 25306,31096 25297,31086 25289,31075 25282,31063 25276,31050 25271,31037 25267,31023 25265,31009 25264,30994 25265,30979 25267,30965 25271,30951 25276,30938 25282,30925 25289,30914 25297,30902 25306,30892 25317,30883 25328,30875 25340,30868 25352,30862 25365,30857 25379,30853 25393,30851 25408,30850 25423,30851 25437,30853 25451,30857 25464,30862 25477,30868 25489,30875 25500,30883 25510,30892 25519,30902 25527,30914 25535,30925 25541,30938 25546,30951 25549,30965 25551,30979 25552,30994 Z"/>
    </g>
   </g>
   <g class="Group">
    <g class="com.sun.star.drawing.PolyPolygonShape">
     <g id="id30">
      <rect class="BoundingBox" stroke="none" fill="none" x="25853" y="35876" width="321" height="431"/>
      <path fill="rgb(0,0,0)" stroke="none" d="M 25905,36275 L 25905,35916 25860,35912 25860,35881 25931,35881 25949,35881 25952,35881 25955,35880 25961,35880 25967,35880 25973,35880 25977,35879 25980,35879 25987,35878 25994,35878 26001,35878 26008,35878 26015,35877 26022,35877 26029,35877 26037,35877 26044,35877 26052,35878 26059,35879 26073,35881 26087,35884 26093,35885 26099,35887 26105,35889 26111,35891 26117,35894 26122,35897 26127,35901 26131,35904 26136,35908 26141,35912 26145,35917 26149,35922 26153,35927 26156,35932 26159,35938 26162,35943 26164,35950 26167,35956 26168,35963 26170,35971 26171,35978 26171,35987 26172,35995 26172,36004 26172,36015 26171,36020 26171,36026 26170,36031 26169,36036 26168,36041 26166,36046 26163,36055 26159,36064 26154,36072 26149,36081 26146,36085 26143,36088 26140,36092 26137,36095 26130,36102 26123,36109 26115,36114 26107,36119 26103,36121 26099,36124 26095,36126 26091,36127 26086,36130 26082,36131 26077,36133 26073,36135 26063,36138 26053,36140 26048,36141 26043,36142 26039,36143 26034,36143 26024,36143 26014,36143 25979,36143 25974,36143 25969,36144 25966,36144 25964,36144 25961,36144 25959,36145 25959,36275 26031,36282 26031,36306 25853,36306 25853,36282 25905,36275 Z M 25959,36113 L 25966,36114 25973,36114 25980,36115 25987,36116 26013,36116 26019,36116 26026,36115 26032,36115 26039,36114 26042,36114 26045,36113 26052,36111 26058,36109 26063,36107 26066,36106 26069,36105 26074,36102 26085,36096 26088,36093 26090,36091 26093,36088 26095,36086 26097,36083 26099,36081 26101,36078 26102,36075 26106,36068 26109,36061 26112,36054 26114,36046 26115,36042 26116,36037 26117,36027 26118,36017 26118,36006 26118,35993 26117,35981 26114,35971 26113,35966 26111,35961 26109,35956 26107,35952 26104,35948 26102,35944 26099,35940 26096,35937 26093,35933 26089,35930 26086,35927 26082,35925 26078,35922 26074,35920 26069,35918 26065,35916 26055,35913 26044,35910 26033,35909 26021,35908 26008,35907 26002,35908 25995,35909 25989,35909 25982,35910 25979,35910 25977,35910 25971,35911 25965,35912 25959,35913 25959,36113 Z"/>
     </g>
    </g>
    <g class="com.sun.star.drawing.PolyPolygonShape">
     <g id="id31">
      <rect class="BoundingBox" stroke="none" fill="none" x="26215" y="35994" width="212" height="313"/>
      <path fill="rgb(0,0,0)" stroke="none" d="M 26216,36282 L 26260,36277 26260,36055 26221,36033 26221,36016 26294,35994 26305,36000 26305,36042 26312,36034 26316,36030 26319,36028 26321,36026 26324,36024 26327,36022 26333,36018 26339,36014 26346,36010 26349,36008 26352,36007 26359,36004 26366,36002 26373,36000 26377,35998 26380,35997 26383,35996 26387,35995 26390,35995 26393,35994 26396,35994 26400,35994 26404,35994 26408,35994 26410,35994 26412,35995 26414,35995 26416,35996 26419,35996 26421,35996 26422,35996 26423,35996 26424,35996 26424,35996 26425,35996 26425,35997 26425,35997 26426,35997 26426,36052 26425,36052 26425,36052 26423,36052 26422,36052 26421,36051 26420,36051 26419,36050 26417,36049 26416,36049 26415,36048 26414,36048 26412,36048 26410,36047 26408,36047 26407,36046 26405,36046 26404,36045 26401,36045 26398,36044 26394,36043 26378,36043 26367,36044 26362,36044 26357,36045 26353,36045 26348,36046 26344,36048 26340,36049 26336,36050 26333,36052 26329,36053 26326,36055 26322,36056 26319,36058 26316,36060 26313,36062 26313,36277 26391,36282 26391,36306 26216,36306 26216,36282 Z"/>
     </g>
    </g>
    <g class="com.sun.star.drawing.PolyPolygonShape">
     <g id="id32">
      <rect class="BoundingBox" stroke="none" fill="none" x="26466" y="35991" width="283" height="323"/>
      <path fill="rgb(0,0,0)" stroke="none" d="M 26466,36148 L 26466,36139 26467,36130 26468,36121 26469,36113 26471,36105 26473,36097 26475,36089 26478,36081 26481,36074 26485,36067 26489,36061 26493,36055 26497,36049 26502,36044 26506,36038 26511,36033 26516,36028 26521,36023 26527,36019 26533,36015 26538,36011 26544,36007 26550,36004 26556,36001 26563,35999 26570,35997 26577,35995 26584,35994 26590,35993 26597,35992 26604,35991 26611,35991 26620,35991 26628,35992 26636,35993 26644,35994 26651,35995 26658,35997 26665,36000 26672,36003 26678,36006 26685,36010 26690,36014 26696,36018 26701,36022 26706,36027 26710,36032 26714,36038 26718,36043 26722,36048 26726,36054 26729,36060 26732,36066 26735,36073 26738,36080 26740,36087 26743,36102 26745,36117 26747,36133 26747,36141 26747,36149 26747,36158 26747,36167 26746,36176 26744,36184 26743,36192 26741,36200 26738,36208 26736,36216 26733,36223 26730,36230 26726,36237 26723,36244 26719,36250 26715,36257 26710,36262 26705,36268 26700,36273 26695,36278 26690,36283 26685,36287 26679,36291 26673,36294 26667,36298 26660,36301 26654,36304 26647,36306 26640,36308 26633,36310 26626,36311 26619,36312 26612,36313 26605,36313 26596,36313 26587,36312 26578,36311 26570,36310 26562,36308 26554,36306 26547,36303 26540,36300 26534,36296 26528,36292 26522,36288 26516,36283 26511,36278 26506,36273 26501,36268 26497,36262 26493,36257 26489,36251 26486,36244 26483,36238 26480,36231 26477,36224 26474,36217 26472,36210 26471,36202 26469,36195 26468,36179 26467,36164 26466,36148 Z M 26607,36282 L 26613,36282 26618,36282 26624,36281 26629,36280 26633,36279 26638,36278 26642,36276 26646,36274 26650,36272 26654,36269 26658,36266 26661,36264 26664,36260 26667,36257 26670,36253 26672,36249 26675,36245 26677,36240 26679,36235 26681,36230 26683,36225 26684,36220 26685,36214 26687,36209 26688,36195 26690,36182 26691,36168 26691,36152 26691,36138 26690,36125 26688,36112 26687,36100 26685,36094 26684,36088 26682,36083 26680,36078 26678,36073 26676,36068 26672,36059 26669,36055 26666,36050 26663,36046 26660,36043 26657,36039 26653,36036 26650,36033 26646,36030 26644,36029 26642,36028 26638,36026 26633,36024 26629,36023 26624,36021 26619,36021 26614,36020 26608,36020 26597,36021 26592,36021 26587,36022 26582,36023 26577,36024 26573,36025 26571,36026 26569,36027 26565,36030 26561,36032 26557,36035 26554,36038 26550,36041 26547,36045 26544,36048 26542,36052 26539,36056 26537,36061 26535,36066 26533,36071 26531,36075 26530,36081 26528,36086 26527,36091 26525,36103 26523,36116 26522,36130 26521,36137 26521,36145 26521,36151 26522,36158 26523,36171 26525,36183 26527,36196 26528,36201 26530,36207 26532,36213 26533,36219 26536,36224 26538,36230 26540,36234 26543,36239 26546,36244 26549,36248 26552,36253 26555,36257 26558,36260 26562,36264 26565,36268 26569,36271 26573,36273 26577,36276 26582,36278 26586,36279 26591,36281 26596,36282 26601,36282 26607,36282 Z"/>
     </g>
    </g>
    <g class="com.sun.star.drawing.PolyPolygonShape">
     <g id="id33">
      <rect class="BoundingBox" stroke="none" fill="none" x="26772" y="35847" width="135" height="602"/>
      <path fill="rgb(0,0,0)" stroke="none" d="M 26863,35922 L 26860,35922 26859,35922 26857,35921 26856,35921 26854,35921 26854,35921 26853,35921 26852,35920 26852,35920 26850,35920 26849,35919 26847,35918 26845,35917 26844,35916 26843,35915 26841,35914 26840,35913 26838,35911 26837,35910 26836,35908 26835,35907 26834,35906 26834,35904 26833,35903 26832,35902 26832,35901 26832,35900 26831,35900 26831,35899 26831,35898 26830,35896 26830,35894 26830,35892 26830,35888 26830,35884 26830,35882 26830,35880 26831,35878 26831,35877 26831,35876 26832,35875 26832,35874 26832,35873 26833,35872 26835,35869 26837,35866 26839,35864 26840,35863 26841,35861 26843,35859 26844,35858 26846,35857 26847,35856 26848,35855 26850,35854 26852,35853 26854,35853 26856,35852 26858,35851 26859,35850 26861,35849 26863,35849 26865,35848 26866,35848 26868,35848 26871,35848 26875,35848 26879,35849 26882,35849 26884,35850 26886,35851 26889,35852 26892,35854 26894,35856 26897,35858 26899,35861 26900,35863 26902,35866 26903,35869 26904,35872 26905,35875 26905,35879 26905,35883 26905,35885 26905,35887 26905,35889 26904,35891 26904,35893 26903,35895 26902,35897 26901,35898 26900,35901 26900,35901 26900,35902 26899,35904 26898,35906 26897,35907 26895,35908 26892,35912 26889,35914 26886,35916 26884,35917 26883,35917 26881,35918 26879,35919 26877,35920 26875,35920 26873,35921 26871,35921 26869,35922 26867,35922 26863,35922 Z M 26850,36054 L 26813,36033 26813,36016 26889,35994 26901,36000 26901,36310 26901,36326 26900,36333 26900,36341 26899,36348 26897,36355 26896,36361 26894,36368 26892,36374 26890,36380 26888,36386 26886,36392 26884,36397 26881,36402 26878,36407 26875,36411 26872,36416 26868,36419 26864,36423 26860,36426 26856,36429 26852,36432 26848,36435 26843,36438 26838,36440 26834,36442 26829,36444 26824,36445 26818,36446 26813,36447 26808,36447 26802,36448 26795,36448 26794,36447 26792,36447 26791,36447 26790,36446 26788,36446 26787,36446 26785,36446 26785,36446 26784,36446 26783,36446 26782,36446 26781,36445 26779,36445 26778,36445 26778,36445 26778,36445 26777,36445 26777,36445 26776,36445 26776,36445 26775,36444 26774,36444 26773,36444 26773,36443 26773,36443 26772,36443 26772,36443 26772,36406 26772,36406 26773,36406 26773,36406 26775,36406 26777,36407 26777,36407 26778,36407 26778,36407 26787,36407 26788,36408 26789,36408 26790,36408 26791,36408 26792,36408 26793,36408 26795,36409 26802,36409 26806,36408 26809,36408 26812,36408 26814,36407 26817,36406 26820,36405 26821,36405 26822,36404 26823,36404 26824,36403 26826,36402 26827,36402 26828,36401 26829,36400 26830,36399 26831,36398 26832,36397 26833,36396 26834,36395 26835,36394 26836,36392 26838,36389 26839,36387 26840,36383 26842,36380 26843,36376 26844,36372 26845,36368 26846,36364 26847,36360 26847,36355 26848,36345 26849,36333 26850,36321 26850,36307 26850,36054 Z"/>
     </g>
    </g>
    <g class="com.sun.star.drawing.PolyPolygonShape">
     <g id="id34">
      <rect class="BoundingBox" stroke="none" fill="none" x="26980" y="35991" width="261" height="323"/>
      <path fill="rgb(0,0,0)" stroke="none" d="M 26981,36153 L 26981,36145 26981,36136 26982,36128 26983,36120 26984,36112 26986,36104 26988,36097 26991,36090 26994,36082 26998,36075 27001,36068 27005,36062 27009,36055 27014,36050 27018,36044 27023,36039 27028,36034 27033,36029 27039,36024 27045,36019 27051,36015 27057,36011 27064,36008 27071,36004 27078,36001 27085,35999 27092,35996 27100,35994 27108,35993 27115,35992 27123,35991 27131,35991 27143,35992 27149,35992 27155,35993 27160,35994 27165,35995 27170,35996 27173,35997 27175,35998 27180,36000 27184,36002 27189,36005 27193,36007 27197,36010 27201,36013 27205,36017 27208,36020 27212,36024 27215,36028 27218,36032 27221,36037 27224,36041 27226,36046 27228,36051 27230,36056 27232,36062 27234,36068 27235,36073 27237,36079 27237,36085 27238,36091 27239,36098 27239,36104 27239,36109 27239,36113 27239,36121 27239,36135 27238,36141 27237,36147 27237,36152 27236,36155 27236,36158 27033,36158 27033,36161 27033,36164 27034,36179 27035,36187 27037,36194 27038,36201 27040,36207 27042,36213 27045,36219 27050,36229 27053,36234 27056,36238 27059,36242 27062,36246 27065,36249 27069,36252 27073,36255 27077,36258 27081,36261 27085,36263 27090,36265 27094,36267 27099,36269 27104,36271 27113,36273 27121,36274 27130,36275 27139,36275 27144,36275 27150,36275 27156,36275 27159,36274 27162,36274 27165,36274 27167,36274 27173,36273 27178,36272 27184,36271 27190,36270 27195,36269 27198,36268 27200,36267 27205,36265 27208,36264 27210,36264 27212,36263 27214,36262 27217,36261 27220,36259 27230,36282 27228,36284 27226,36286 27224,36287 27222,36289 27216,36292 27210,36295 27203,36298 27197,36301 27190,36303 27186,36304 27182,36306 27167,36308 27163,36309 27159,36310 27155,36310 27150,36310 27142,36311 27134,36312 27126,36313 27118,36313 27110,36313 27102,36312 27095,36311 27087,36310 27080,36308 27073,36306 27066,36304 27059,36301 27053,36298 27047,36295 27042,36292 27036,36288 27031,36284 27026,36279 27021,36275 27017,36269 27013,36264 27009,36259 27005,36253 27001,36247 26998,36241 26995,36234 26992,36227 26989,36220 26987,36212 26986,36205 26984,36197 26983,36188 26982,36180 26981,36171 26981,36153 Z M 27184,36125 L 27184,36097 27184,36093 27183,36090 27183,36083 27182,36076 27181,36069 27176,36058 27174,36052 27172,36049 27171,36046 27169,36044 27167,36041 27166,36039 27164,36037 27162,36035 27160,36033 27155,36029 27153,36028 27151,36027 27149,36026 27147,36025 27143,36024 27139,36023 27134,36022 27129,36021 27126,36021 27124,36020 27121,36020 27118,36020 27115,36020 27111,36020 27107,36021 27103,36021 27099,36022 27096,36023 27092,36024 27088,36026 27084,36028 27081,36030 27078,36032 27074,36034 27071,36036 27068,36039 27062,36045 27059,36048 27057,36051 27054,36055 27052,36059 27050,36063 27047,36067 27043,36077 27040,36087 27037,36098 27036,36105 27034,36111 27034,36118 27033,36125 27184,36125 Z"/>
     </g>
    </g>
    <g class="com.sun.star.drawing.PolyPolygonShape">
     <g id="id35">
      <rect class="BoundingBox" stroke="none" fill="none" x="27295" y="35991" width="239" height="322"/>
      <path fill="rgb(0,0,0)" stroke="none" d="M 27295,36159 L 27295,36150 27296,36141 27297,36132 27298,36123 27299,36115 27301,36107 27304,36099 27307,36091 27310,36084 27313,36077 27316,36070 27320,36063 27324,36057 27328,36050 27333,36045 27337,36039 27343,36034 27348,36029 27354,36024 27360,36020 27366,36016 27372,36012 27379,36009 27385,36006 27392,36003 27399,36000 27406,35998 27414,35996 27421,35994 27429,35993 27436,35992 27445,35991 27450,35991 27456,35991 27461,35992 27465,35992 27468,35993 27470,35993 27473,35993 27479,35993 27485,35994 27487,35994 27489,35994 27495,35995 27500,35996 27503,35997 27505,35998 27507,35999 27510,36000 27514,36001 27516,36002 27518,36002 27519,36003 27521,36004 27523,36005 27524,36006 27524,36071 27498,36071 27484,36036 27483,36036 27481,36035 27479,36033 27478,36032 27477,36032 27475,36031 27473,36030 27470,36029 27468,36028 27465,36027 27462,36026 27460,36026 27459,36026 27456,36025 27453,36025 27451,36025 27450,36025 27449,36024 27447,36024 27444,36024 27441,36023 27440,36023 27439,36023 27434,36023 27430,36024 27425,36024 27421,36025 27416,36026 27412,36027 27408,36029 27404,36030 27400,36032 27396,36034 27391,36036 27388,36039 27384,36042 27380,36044 27377,36047 27373,36051 27370,36054 27367,36058 27365,36063 27362,36067 27358,36076 27353,36085 27352,36091 27350,36097 27349,36102 27348,36108 27347,36115 27346,36121 27346,36128 27346,36135 27347,36153 27347,36161 27348,36169 27349,36177 27351,36185 27353,36192 27355,36198 27357,36205 27359,36211 27362,36217 27365,36222 27368,36228 27371,36233 27374,36237 27378,36242 27382,36246 27385,36250 27389,36254 27393,36257 27397,36260 27401,36262 27405,36265 27410,36267 27415,36269 27419,36270 27424,36272 27428,36273 27433,36274 27437,36275 27442,36275 27446,36275 27448,36275 27451,36275 27456,36274 27462,36274 27465,36274 27468,36274 27489,36269 27510,36265 27518,36261 27521,36260 27523,36259 27524,36258 27533,36282 27531,36284 27529,36286 27527,36287 27525,36289 27519,36292 27514,36295 27488,36304 27481,36306 27473,36308 27466,36309 27458,36310 27450,36311 27442,36311 27427,36311 27419,36311 27412,36311 27404,36310 27397,36309 27390,36307 27384,36305 27377,36303 27371,36300 27365,36297 27359,36294 27354,36290 27349,36287 27344,36283 27339,36278 27334,36273 27330,36268 27326,36263 27322,36258 27318,36252 27315,36246 27312,36240 27309,36234 27306,36227 27304,36220 27302,36213 27300,36206 27299,36198 27297,36191 27296,36183 27296,36175 27295,36167 27295,36159 Z"/>
     </g>
    </g>
    <g class="com.sun.star.drawing.PolyPolygonShape">
     <g id="id36">
      <rect class="BoundingBox" stroke="none" fill="none" x="27583" y="35927" width="191" height="387"/>
      <path fill="rgb(0,0,0)" stroke="none" d="M 27624,36235 L 27624,36135 27624,36035 27584,36035 27584,36014 27586,36013 27589,36012 27592,36012 27594,36011 27597,36011 27599,36010 27601,36010 27602,36010 27607,36009 27610,36008 27617,36006 27618,36005 27619,36004 27621,36003 27623,36001 27625,36001 27626,36000 27629,35995 27630,35992 27631,35990 27631,35988 27633,35986 27634,35983 27635,35979 27637,35975 27642,35956 27643,35954 27644,35952 27644,35950 27645,35948 27646,35943 27647,35939 27647,35937 27648,35935 27648,35933 27648,35932 27649,35929 27649,35928 27649,35928 27649,35927 27676,35927 27676,36000 27768,36000 27768,36035 27676,36035 27676,36172 27677,36202 27677,36214 27678,36224 27678,36234 27679,36242 27680,36249 27681,36255 27683,36260 27684,36262 27685,36265 27687,36266 27688,36268 27689,36269 27689,36270 27690,36270 27691,36271 27694,36272 27696,36272 27698,36273 27701,36273 27703,36274 27706,36274 27708,36274 27712,36274 27716,36274 27717,36273 27719,36273 27721,36273 27723,36272 27725,36272 27727,36272 27729,36272 27731,36271 27736,36270 27740,36269 27744,36268 27747,36267 27751,36266 27755,36265 27758,36264 27759,36263 27760,36263 27761,36262 27762,36262 27763,36261 27763,36261 27763,36261 27772,36285 27769,36289 27767,36290 27765,36292 27763,36293 27761,36295 27759,36296 27756,36297 27745,36301 27739,36303 27733,36306 27730,36307 27727,36308 27724,36308 27721,36309 27715,36310 27708,36311 27706,36312 27703,36312 27698,36313 27693,36313 27688,36313 27681,36313 27674,36312 27667,36310 27664,36309 27661,36308 27658,36307 27655,36306 27653,36304 27650,36302 27648,36301 27646,36299 27644,36296 27642,36294 27640,36292 27638,36289 27636,36287 27634,36284 27632,36281 27631,36277 27630,36274 27629,36270 27627,36262 27625,36254 27624,36245 27624,36235 Z"/>
     </g>
    </g>
    <g class="com.sun.star.drawing.PolyPolygonShape">
     <g id="id37">
      <rect class="BoundingBox" stroke="none" fill="none" x="21519" y="35517" width="898" height="1116"/>
      <path fill="rgb(0,0,0)" stroke="none" d="M 22375,36210 L 22368,36274 22357,36339 22349,36371 22340,36401 22327,36431 22313,36459 22294,36484 22273,36508 22247,36529 22217,36547 22182,36561 22143,36572 22097,36579 22046,36581 21914,36581 21888,36580 21878,36580 21869,36578 21861,36577 21855,36574 21849,36572 21847,36570 21845,36568 21843,36567 21841,36565 21840,36562 21838,36560 21836,36555 21835,36549 21834,36542 21833,36534 21833,36516 21833,35645 21833,35625 21834,35617 21835,35609 21838,35602 21839,35598 21841,35595 21843,35592 21846,35590 21849,35587 21852,35585 21860,35580 21871,35577 21883,35573 21898,35571 21937,35568 21988,35567 22042,35567 22042,35517 21983,35520 21907,35521 21768,35522 21641,35521 21573,35520 21520,35517 21520,35567 21557,35567 21599,35568 21631,35570 21644,35572 21654,35575 21663,35579 21667,35581 21670,35583 21673,35585 21676,35588 21678,35590 21680,35593 21682,35596 21683,35599 21685,35606 21687,35614 21687,35623 21688,35643 21688,36504 21687,36524 21687,36533 21685,36541 21683,36548 21682,36551 21680,36554 21678,36557 21676,36559 21673,36562 21670,36564 21667,36566 21663,36568 21654,36572 21644,36575 21631,36577 21599,36580 21557,36581 21520,36581 21520,36632 22371,36632 22415,36210 22375,36210 Z"/>
     </g>
    </g>
    <g class="com.sun.star.drawing.PolyPolygonShape">
     <g id="id38">
      <rect class="BoundingBox" stroke="none" fill="none" x="21927" y="35488" width="861" height="818"/>
      <path fill="rgb(0,0,0)" stroke="none" d="M 22388,35516 L 22385,35509 22383,35503 22382,35501 22380,35498 22379,35496 22377,35495 22375,35493 22373,35492 22371,35491 22369,35490 22366,35489 22363,35489 22360,35488 22356,35488 22352,35488 22349,35489 22346,35489 22343,35490 22341,35491 22338,35492 22336,35493 22334,35495 22333,35496 22331,35498 22330,35501 22329,35503 22326,35509 22324,35516 22059,36184 22055,36195 22052,36201 22048,36208 22044,36214 22040,36221 22034,36227 22027,36233 22020,36239 22011,36245 22001,36250 21989,36254 21976,36257 21961,36260 21945,36262 21927,36262 21927,36304 22181,36304 22181,36262 22171,36262 22163,36261 22154,36260 22147,36258 22139,36256 22133,36254 22127,36251 22121,36247 22116,36243 22112,36239 22108,36235 22105,36230 22103,36225 22101,36219 22100,36213 22100,36207 22100,36204 22100,36201 22100,36199 22101,36197 22104,36184 22159,36043 22485,36043 22550,36210 22552,36215 22554,36221 22555,36223 22556,36226 22556,36228 22556,36229 22556,36230 22556,36233 22555,36236 22554,36238 22553,36241 22552,36243 22550,36245 22548,36247 22546,36249 22541,36252 22535,36254 22528,36256 22521,36258 22506,36260 22491,36262 22463,36262 22463,36304 22786,36304 22786,36262 22763,36262 22738,36262 22717,36260 22709,36259 22702,36257 22696,36255 22690,36252 22686,36250 22682,36246 22678,36243 22675,36239 22673,36235 22671,36230 22666,36219 22388,35516 Z M 22468,36001 L 22176,36001 22321,35632 22468,36001 Z"/>
     </g>
    </g>
    <g class="com.sun.star.drawing.PolyPolygonShape">
     <g id="id39">
      <rect class="BoundingBox" stroke="none" fill="none" x="22673" y="35526" width="1060" height="1107"/>
      <path fill="rgb(0,0,0)" stroke="none" d="M 22702,35526 L 22673,35894 22713,35894 22722,35805 22734,35733 22741,35703 22751,35677 22762,35655 22769,35645 22776,35636 22784,35627 22792,35620 22802,35613 22812,35607 22834,35596 22860,35588 22890,35582 22924,35578 23007,35575 23056,35576 23079,35577 23088,35578 23092,35579 23095,35580 23101,35581 23107,35582 23111,35584 23115,35587 23119,35589 23121,35592 23124,35595 23126,35599 23127,35603 23128,35607 23129,35612 23129,35617 23130,35629 23130,35642 23130,36501 23130,36521 23129,36530 23127,36538 23126,36541 23125,36545 23123,36548 23121,36551 23118,36554 23116,36557 23112,36560 23108,36562 23099,36567 23088,36571 23074,36574 23057,36576 23014,36580 22958,36581 22892,36581 22892,36632 22959,36628 23044,36627 23201,36626 23360,36627 23446,36628 23513,36632 23513,36581 23447,36581 23390,36580 23348,36576 23331,36574 23317,36571 23306,36567 23296,36562 23293,36560 23289,36557 23286,36554 23284,36551 23282,36548 23280,36545 23279,36541 23278,36538 23276,36530 23275,36521 23275,36501 23275,35642 23275,35630 23275,35619 23276,35609 23277,35605 23279,35601 23280,35597 23282,35593 23284,35590 23287,35587 23290,35585 23294,35583 23299,35581 23304,35580 23312,35578 23322,35577 23346,35576 23398,35575 23480,35578 23514,35582 23544,35588 23570,35596 23592,35607 23602,35613 23611,35620 23620,35627 23628,35636 23635,35645 23641,35655 23653,35677 23662,35703 23670,35733 23682,35805 23691,35894 23731,35894 23701,35526 22702,35526 Z"/>
     </g>
    </g>
    <g class="com.sun.star.drawing.PolyPolygonShape">
     <g id="id40">
      <rect class="BoundingBox" stroke="none" fill="none" x="23569" y="35891" width="1012" height="1110"/>
      <path fill="rgb(0,0,0)" stroke="none" d="M 24539,36580 L 24523,36667 24505,36743 24494,36776 24481,36807 24466,36834 24449,36858 24429,36880 24406,36898 24379,36914 24348,36927 24313,36936 24274,36943 24229,36948 24179,36949 23963,36949 23938,36948 23927,36948 23918,36946 23911,36945 23904,36943 23902,36941 23899,36940 23897,36938 23895,36937 23893,36935 23891,36933 23890,36930 23889,36928 23887,36923 23885,36917 23884,36910 23884,36902 23884,36884 23884,36448 24029,36448 24057,36448 24082,36450 24104,36453 24123,36458 24140,36464 24155,36472 24161,36476 24167,36481 24172,36486 24177,36491 24181,36497 24185,36504 24191,36518 24196,36533 24200,36551 24203,36570 24204,36592 24205,36640 24247,36640 24247,36207 24205,36207 24204,36255 24203,36276 24200,36295 24196,36313 24191,36328 24185,36342 24181,36348 24177,36354 24172,36360 24167,36365 24161,36369 24155,36374 24140,36381 24123,36387 24104,36391 24082,36394 24057,36396 24029,36397 23884,36397 23884,36006 23884,35987 23884,35979 23885,35972 23887,35966 23889,35960 23890,35958 23891,35956 23893,35954 23895,35952 23897,35950 23899,35948 23902,35947 23904,35946 23911,35943 23918,35942 23927,35940 23938,35940 23963,35939 24173,35939 24218,35940 24258,35943 24294,35949 24325,35957 24353,35967 24378,35980 24399,35995 24417,36013 24433,36034 24446,36057 24457,36083 24467,36112 24475,36144 24481,36179 24492,36258 24534,36258 24488,35891 23569,35891 23569,35939 23607,35939 23649,35940 23681,35943 23694,35945 23704,35948 23713,35952 23717,35954 23720,35956 23723,35958 23725,35961 23728,35964 23730,35966 23731,35970 23733,35973 23735,35980 23736,35988 23737,35997 23737,36017 23737,36872 23737,36893 23736,36901 23735,36909 23733,36916 23731,36920 23730,36923 23728,36925 23725,36928 23723,36931 23720,36933 23717,36935 23713,36937 23704,36940 23694,36943 23681,36945 23649,36948 23607,36949 23569,36949 23569,37000 24511,37000 24579,36580 24539,36580 Z"/>
     </g>
    </g>
    <g class="com.sun.star.drawing.PolyPolygonShape">
     <g id="id41">
      <rect class="BoundingBox" stroke="none" fill="none" x="24457" y="35517" width="1147" height="1116"/>
      <path fill="rgb(0,0,0)" stroke="none" d="M 25298,35672 L 25312,35653 25320,35643 25329,35634 25339,35625 25350,35616 25361,35608 25374,35601 25389,35593 25404,35587 25422,35581 25441,35576 25461,35572 25484,35569 25534,35567 25534,35517 25144,35517 25144,35567 25156,35567 25168,35569 25178,35571 25188,35574 25197,35577 25205,35581 25213,35586 25220,35591 25226,35596 25231,35602 25236,35608 25239,35615 25242,35621 25244,35628 25246,35635 25246,35642 25246,35647 25245,35650 25245,35652 25245,35654 25244,35656 25243,35658 25242,35660 25240,35664 25238,35668 25231,35680 25044,35955 24834,35639 24833,35638 24833,35637 24831,35634 24829,35631 24827,35628 24825,35625 24824,35621 24823,35620 24823,35618 24823,35617 24823,35616 24823,35614 24823,35612 24824,35610 24824,35608 24827,35604 24829,35600 24833,35596 24838,35592 24843,35588 24849,35584 24856,35581 24864,35578 24873,35575 24882,35572 24892,35570 24903,35568 24915,35567 24927,35567 24927,35517 24875,35520 24811,35521 24689,35522 24476,35517 24476,35567 24508,35567 24539,35567 24565,35569 24577,35571 24587,35573 24597,35575 24606,35578 24614,35582 24622,35586 24629,35590 24636,35595 24642,35601 24648,35608 24654,35615 24660,35623 24960,36078 24692,36472 24683,36487 24669,36503 24661,36512 24652,36521 24641,36530 24628,36539 24614,36548 24598,36555 24580,36562 24560,36569 24538,36574 24514,36578 24487,36580 24458,36581 24458,36632 24847,36632 24847,36581 24834,36580 24821,36578 24810,36576 24800,36573 24790,36569 24782,36564 24774,36559 24768,36554 24762,36548 24757,36542 24753,36536 24750,36529 24748,36523 24746,36517 24745,36511 24744,36506 24745,36500 24745,36498 24745,36496 24746,36494 24746,36491 24747,36489 24748,36487 24750,36483 24753,36478 24760,36466 24991,36123 25250,36513 25251,36516 25253,36518 25256,36523 25257,36525 25258,36527 25258,36528 25259,36530 25259,36531 25259,36532 25259,36533 25259,36535 25258,36537 25257,36539 25255,36543 25252,36547 25248,36551 25244,36555 25238,36559 25232,36563 25225,36566 25217,36570 25208,36573 25198,36575 25188,36577 25177,36579 25165,36580 25152,36581 25152,36632 25205,36628 25269,36627 25389,36626 25602,36632 25602,36581 25572,36581 25542,36580 25517,36579 25505,36577 25495,36576 25485,36573 25476,36570 25467,36567 25459,36563 25452,36558 25444,36552 25438,36546 25431,36539 25425,36531 25418,36522 25073,36000 25298,35672 Z"/>
     </g>
    </g>
    <g class="com.sun.star.drawing.PolyPolygonShape">
     <g id="id42">
      <rect class="BoundingBox" stroke="none" fill="none" x="20228" y="35868" width="335" height="426"/>
      <path fill="rgb(0,0,0)" stroke="none" d="M 20305,36269 L 20372,36261 20372,35898 20273,35904 20253,35951 20228,35951 20236,35868 20562,35868 20562,35952 20539,35955 20524,35903 20426,35898 20426,36261 20497,36269 20497,36293 20305,36293 20305,36269 Z"/>
     </g>
    </g>
    <g class="com.sun.star.drawing.PolyPolygonShape">
     <g id="id43">
      <rect class="BoundingBox" stroke="none" fill="none" x="20598" y="35847" width="338" height="447"/>
      <path fill="rgb(0,0,0)" stroke="none" d="M 20602,36269 L 20644,36264 20644,35893 20598,35884 20598,35859 20684,35848 20697,35855 20697,35975 20695,36023 20702,36018 20708,36013 20715,36009 20718,36007 20721,36006 20729,36002 20736,35998 20739,35997 20743,35995 20746,35994 20750,35993 20754,35991 20757,35990 20760,35988 20764,35987 20768,35986 20771,35985 20774,35985 20778,35984 20791,35982 20797,35981 20800,35981 20802,35981 20809,35981 20816,35982 20822,35982 20828,35983 20833,35984 20838,35986 20843,35988 20847,35990 20852,35992 20856,35995 20860,35998 20864,36001 20867,36004 20871,36008 20874,36012 20876,36016 20878,36020 20881,36025 20883,36031 20884,36036 20886,36042 20888,36048 20889,36054 20889,36061 20891,36075 20893,36091 20893,36109 20894,36127 20894,36264 20934,36269 20934,36293 20795,36293 20795,36269 20842,36264 20842,36151 20840,36094 20839,36083 20838,36077 20837,36072 20836,36067 20834,36063 20833,36058 20831,36054 20830,36050 20828,36046 20826,36043 20824,36040 20821,36037 20819,36034 20816,36031 20813,36029 20809,36027 20805,36026 20801,36025 20797,36024 20793,36023 20787,36022 20782,36022 20776,36022 20757,36022 20737,36026 20734,36027 20732,36027 20729,36028 20727,36029 20722,36031 20717,36033 20711,36035 20709,36037 20706,36038 20704,36039 20701,36041 20699,36043 20697,36045 20697,36264 20737,36269 20737,36293 20602,36293 20602,36269 Z"/>
     </g>
    </g>
    <g class="com.sun.star.drawing.PolyPolygonShape">
     <g id="id44">
      <rect class="BoundingBox" stroke="none" fill="none" x="20980" y="35977" width="262" height="324"/>
      <path fill="rgb(0,0,0)" stroke="none" d="M 20981,36140 L 20981,36132 20981,36123 20982,36115 20984,36107 20985,36099 20987,36091 20990,36084 20992,36077 20995,36069 20998,36062 21002,36055 21005,36048 21009,36042 21013,36036 21018,36030 21023,36025 21028,36019 21033,36014 21039,36010 21044,36006 21051,36002 21057,35998 21064,35995 21071,35991 21078,35988 21085,35986 21092,35983 21100,35981 21108,35980 21116,35979 21124,35978 21133,35978 21139,35978 21145,35978 21150,35978 21156,35979 21161,35980 21166,35982 21171,35983 21176,35985 21181,35987 21186,35989 21190,35992 21194,35994 21198,35997 21202,36000 21206,36003 21210,36007 21213,36011 21216,36015 21219,36019 21221,36024 21224,36028 21226,36033 21228,36038 21230,36043 21232,36049 21234,36055 21235,36060 21237,36066 21238,36072 21239,36078 21240,36091 21240,36107 21239,36115 21239,36118 21239,36122 21238,36128 21237,36134 21237,36139 21236,36141 21236,36143 21033,36143 21033,36148 21033,36151 21033,36159 21034,36166 21035,36173 21037,36180 21038,36187 21040,36193 21042,36199 21044,36204 21047,36210 21050,36215 21053,36219 21056,36224 21060,36228 21063,36232 21067,36236 21071,36239 21074,36242 21078,36245 21082,36248 21086,36250 21090,36252 21095,36254 21099,36255 21104,36256 21108,36258 21113,36259 21117,36260 21122,36261 21127,36261 21131,36262 21136,36262 21140,36262 21145,36262 21150,36262 21156,36262 21159,36261 21162,36261 21165,36260 21167,36260 21173,36259 21179,36259 21182,36258 21185,36258 21188,36257 21190,36257 21196,36255 21201,36253 21205,36252 21207,36251 21210,36250 21214,36249 21221,36246 21230,36269 21228,36271 21226,36273 21224,36274 21221,36276 21219,36277 21216,36279 21213,36280 21210,36281 21206,36283 21203,36284 21196,36287 21189,36289 21182,36291 21174,36293 21167,36295 21159,36296 21150,36297 21142,36298 21134,36299 21126,36300 21118,36300 21110,36300 21102,36299 21095,36298 21087,36297 21080,36295 21073,36293 21067,36291 21060,36288 21054,36285 21048,36282 21042,36278 21036,36274 21031,36270 21026,36266 21021,36261 21017,36256 21013,36251 21009,36245 21005,36239 21002,36233 20998,36227 20995,36220 20992,36213 20989,36206 20987,36198 20986,36191 20984,36183 20983,36175 20982,36167 20981,36158 20981,36140 Z M 21184,36111 L 21184,36084 21184,36080 21183,36077 21183,36070 21182,36063 21181,36056 21180,36053 21179,36050 21178,36047 21177,36044 21175,36041 21174,36039 21171,36033 21170,36032 21169,36031 21168,36028 21166,36026 21164,36023 21162,36021 21160,36019 21157,36018 21155,36016 21153,36015 21151,36014 21149,36013 21147,36012 21143,36011 21139,36010 21138,36010 21136,36009 21134,36008 21132,36008 21129,36008 21126,36007 21124,36007 21118,36007 21115,36007 21111,36007 21107,36008 21103,36008 21099,36009 21096,36010 21092,36011 21088,36013 21086,36014 21085,36014 21081,36016 21078,36018 21075,36020 21068,36025 21062,36030 21059,36034 21057,36037 21054,36041 21052,36045 21047,36054 21043,36064 21041,36069 21040,36074 21039,36080 21038,36085 21036,36098 21034,36111 21184,36111 Z"/>
     </g>
    </g>
    <g class="com.sun.star.drawing.PolyPolygonShape">
     <g id="id45">
      <rect class="BoundingBox" stroke="none" fill="none" x="19999" y="36580" width="1245" height="52"/>
      <path fill="rgb(0,0,0)" stroke="none" d="M 20000,36581 L 21243,36581 21243,36630 20000,36630 20000,36581 Z"/>
     </g>
    </g>
    <g class="com.sun.star.drawing.PolyPolygonShape">
     <g id="id46">
      <rect class="BoundingBox" stroke="none" fill="none" x="25853" y="36580" width="2148" height="52"/>
      <path fill="rgb(0,0,0)" stroke="none" d="M 25853,36581 L 28000,36581 28000,36630 25853,36630 25853,36581 Z"/>
     </g>
    </g>
   </g>
  </g>
 </g>
</svg>