<?xml version="1.0" encoding="UTF-8"?>
<!DOCTYPE svg PUBLIC "-//W3C//DTD SVG 1.1//EN" "http://www.w3.org/Graphics/SVG/1.1/DTD/svg11.dtd">
<svg version="1.2" width="80.03mm" height="26.88mm" viewBox="10999 31199 8003 2688" preserveAspectRatio="xMidYMid" fill-rule="evenodd" stroke-width="28.222" stroke-linejoin="round" xmlns="http://www.w3.org/2000/svg" xmlns:ooo="http://xml.openoffice.org/svg/export" xmlns:xlink="http://www.w3.org/1999/xlink" xmlns:presentation="http://sun.com/xmlns/staroffice/presentation" xmlns:smil="http://www.w3.org/2001/SMIL20/" xmlns:anim="urn:oasis:names:tc:opendocument:xmlns:animation:1.0" xml:space="preserve">
 <defs class="EmbeddedBulletChars">
  <g id="bullet-char-template-57356" transform="scale(0.00048828125,-0.00048828125)">
   <path d="M 580,1141 L 1163,571 580,0 -4,571 580,1141 Z"/>
  </g>
  <g id="bullet-char-template-57354" transform="scale(0.00048828125,-0.00048828125)">
   <path d="M 8,1128 L 1137,1128 1137,0 8,0 8,1128 Z"/>
  </g>
  <g id="bullet-char-template-10146" transform="scale(0.00048828125,-0.00048828125)">
   <path d="M 174,0 L 602,739 174,1481 1456,739 174,0 Z M 1358,739 L 309,1346 659,739 1358,739 Z"/>
  </g>
  <g id="bullet-char-template-10132" transform="scale(0.00048828125,-0.00048828125)">
   <path d="M 2015,739 L 1276,0 717,0 1260,543 174,543 174,936 1260,936 717,1481 1274,1481 2015,739 Z"/>
  </g>
  <g id="bullet-char-template-10007" transform="scale(0.00048828125,-0.00048828125)">
   <path d="M 0,-2 C -7,14 -16,27 -25,37 L 356,567 C 262,823 215,952 215,954 215,979 228,992 255,992 264,992 276,990 289,987 310,991 331,999 354,1012 L 381,999 492,748 772,1049 836,1024 860,1049 C 881,1039 901,1025 922,1006 886,937 835,863 770,784 769,783 710,716 594,584 L 774,223 C 774,196 753,168 711,139 L 727,119 C 717,90 699,76 672,76 641,76 570,178 457,381 L 164,-76 C 142,-110 111,-127 72,-127 30,-127 9,-110 8,-76 1,-67 -2,-52 -2,-32 -2,-23 -1,-13 0,-2 Z"/>
  </g>
  <g id="bullet-char-template-10004" transform="scale(0.00048828125,-0.00048828125)">
   <path d="M 285,-33 C 182,-33 111,30 74,156 52,228 41,333 41,471 41,549 55,616 82,672 116,743 169,778 240,778 293,778 328,747 346,684 L 369,508 C 377,444 397,411 428,410 L 1163,1116 C 1174,1127 1196,1133 1229,1133 1271,1133 1292,1118 1292,1087 L 1292,965 C 1292,929 1282,901 1262,881 L 442,47 C 390,-6 338,-33 285,-33 Z"/>
  </g>
  <g id="bullet-char-template-9679" transform="scale(0.00048828125,-0.00048828125)">
   <path d="M 813,0 C 632,0 489,54 383,161 276,268 223,411 223,592 223,773 276,916 383,1023 489,1130 632,1184 813,1184 992,1184 1136,1130 1245,1023 1353,916 1407,772 1407,592 1407,412 1353,268 1245,161 1136,54 992,0 813,0 Z"/>
  </g>
  <g id="bullet-char-template-8226" transform="scale(0.00048828125,-0.00048828125)">
   <path d="M 346,457 C 273,457 209,483 155,535 101,586 74,649 74,723 74,796 101,859 155,911 209,963 273,989 346,989 419,989 480,963 531,910 582,859 608,796 608,723 608,648 583,586 532,535 482,483 420,457 346,457 Z"/>
  </g>
  <g id="bullet-char-template-8211" transform="scale(0.00048828125,-0.00048828125)">
   <path d="M -4,459 L 1135,459 1135,606 -4,606 -4,459 Z"/>
  </g>
  <g id="bullet-char-template-61548" transform="scale(0.00048828125,-0.00048828125)">
   <path d="M 173,740 C 173,903 231,1043 346,1159 462,1274 601,1332 765,1332 928,1332 1067,1274 1183,1159 1299,1043 1357,903 1357,740 1357,577 1299,437 1183,322 1067,206 928,148 765,148 601,148 462,206 346,322 231,437 173,577 173,740 Z"/>
  </g>
 </defs>
 <g class="Page">
  <g class="Group">
   <g class="com.sun.star.drawing.ClosedBezierShape">
    <g id="id3">
     <rect class="BoundingBox" stroke="none" fill="none" x="10999" y="31264" width="2476" height="2579"/>
     <path fill="rgb(0,0,0)" stroke="none" d="M 13409,31265 C 12627,31265 11846,31265 11065,31265 11043,31551 11022,31838 11000,32124 11029,32124 11058,32124 11087,32124 11142,31504 11207,31385 11785,31385 11850,31385 11948,31385 11992,31395 12068,31406 12068,31450 12068,31537 12068,32204 12068,32870 12068,33537 12068,33668 12068,33722 11665,33722 11614,33722 11563,33722 11512,33722 11512,33762 11512,33802 11512,33842 11665,33831 12052,33831 12231,33831 12411,33831 12809,33831 12962,33842 12962,33802 12962,33762 12962,33722 12911,33722 12860,33722 12809,33722 12406,33722 12406,33668 12406,33537 12406,32870 12406,32204 12406,31537 12406,31461 12406,31406 12482,31395 12515,31385 12624,31385 12700,31385 13278,31385 13332,31504 13387,32124 13416,32124 13445,32124 13474,32124 13452,31838 13430,31551 13409,31265 Z"/>
    </g>
   </g>
   <g class="com.sun.star.drawing.ClosedBezierShape">
    <g id="id4">
     <rect class="BoundingBox" stroke="none" fill="none" x="13746" y="31297" width="819" height="2546"/>
     <path fill="rgb(0,0,0)" stroke="none" d="M 14302,32156 C 14124,32171 13946,32185 13768,32200 13768,32240 13768,32280 13768,32320 14008,32320 14052,32341 14052,32526 14052,32870 14052,33215 14052,33559 14052,33722 14008,33722 13746,33722 13746,33762 13746,33802 13746,33842 13866,33842 14073,33831 14172,33831 14302,33831 14433,33842 14564,33842 14564,33802 14564,33762 14564,33722 14313,33722 14302,33711 14302,33559 14302,33091 14302,32624 14302,32156 Z M 14313,31493 C 14313,31374 14215,31298 14117,31298 13997,31298 13910,31395 13910,31493 13910,31602 13997,31700 14117,31700 14215,31700 14313,31624 14313,31493 Z"/>
    </g>
   </g>
   <g class="com.sun.star.drawing.ClosedBezierShape">
    <g id="id5">
     <rect class="BoundingBox" stroke="none" fill="none" x="14967" y="31199" width="1637" height="2688"/>
     <path fill="rgb(0,0,0)" stroke="none" d="M 15839,31298 C 15850,31287 15861,31254 15861,31243 15861,31211 15828,31200 15806,31200 15796,31200 15752,31200 15741,31211 15614,31222 15487,31232 15360,31243 15316,31243 15272,31243 15272,31319 15272,31363 15316,31363 15370,31363 15545,31363 15556,31385 15556,31428 15556,31439 15545,31482 15545,31493 15356,32240 15167,32986 14978,33733 14978,33744 14967,33776 14967,33787 14967,33831 15011,33885 15076,33885 15196,33885 15218,33776 15229,33744 15294,33486 15360,33229 15425,32972 15567,32994 15806,33070 15806,33287 15806,33320 15806,33331 15796,33385 15785,33450 15785,33483 15785,33515 15785,33787 15959,33885 16101,33885 16275,33885 16362,33755 16395,33689 16482,33537 16537,33309 16537,33298 16537,33265 16504,33265 16482,33265 16439,33265 16428,33265 16406,33352 16362,33537 16286,33798 16112,33798 16014,33798 16003,33711 16003,33635 16003,33548 16035,33439 16035,33428 16057,33341 16057,33341 16057,33287 16057,33037 15785,32928 15545,32896 15632,32841 15719,32765 15817,32646 16014,32417 16166,32243 16362,32243 16428,32243 16428,32272 16460,32287 16297,32320 16286,32450 16286,32483 16286,32526 16319,32602 16417,32602 16504,32602 16602,32537 16602,32385 16602,32287 16537,32156 16362,32156 16166,32156 16003,32320 15872,32472 15654,32722 15588,32787 15458,32852 15585,32334 15712,31816 15839,31298 Z"/>
    </g>
   </g>
   <g class="com.sun.star.drawing.ClosedBezierShape">
    <g id="id6">
     <rect class="BoundingBox" stroke="none" fill="none" x="17070" y="31243" width="1932" height="2600"/>
     <path fill="rgb(0,0,0)" stroke="none" d="M 18946,31374 C 18978,31330 18978,31330 18978,31298 18978,31243 18956,31243 18880,31243 18306,31243 17732,31243 17158,31243 17147,31530 17136,31816 17125,32102 17154,32102 17183,32102 17213,32102 17245,31667 17354,31363 17986,31363 18186,31363 18386,31363 18586,31363 18092,32142 17598,32921 17104,33700 17071,33744 17071,33744 17071,33776 17071,33842 17093,33842 17169,33842 17757,33842 18346,33842 18935,33842 18956,33505 18978,33168 19000,32831 18967,32831 18935,32831 18902,32831 18869,33352 18804,33711 18095,33711 17885,33711 17674,33711 17463,33711 17957,32932 18451,32153 18946,31374 Z"/>
    </g>
   </g>
  </g>
 </g>
</svg>