<?xml version="1.0" encoding="UTF-8"?>
<!DOCTYPE svg PUBLIC "-//W3C//DTD SVG 1.1//EN" "http://www.w3.org/Graphics/SVG/1.1/DTD/svg11.dtd">
<svg version="1.2" width="100mm" height="100mm" viewBox="0 0 10000 10000" preserveAspectRatio="xMidYMid" fill-rule="evenodd" stroke-width="28.222" stroke-linejoin="round" xmlns="http://www.w3.org/2000/svg" xmlns:ooo="http://xml.openoffice.org/svg/export" xmlns:xlink="http://www.w3.org/1999/xlink" xmlns:presentation="http://sun.com/xmlns/staroffice/presentation" xmlns:smil="http://www.w3.org/2001/SMIL20/" xmlns:anim="urn:oasis:names:tc:opendocument:xmlns:animation:1.0" xml:space="preserve">
 <defs class="ClipPathGroup">
  <clipPath id="presentation_clip_path" clipPathUnits="userSpaceOnUse">
   <rect x="0" y="0" width="10000" height="10000"/>
  </clipPath>
  <clipPath id="presentation_clip_path_shrink" clipPathUnits="userSpaceOnUse">
   <rect x="10" y="10" width="9980" height="9980"/>
  </clipPath>
 </defs>
 <defs class="TextShapeIndex">
  <g ooo:slide="id1" ooo:id-list="id3 id4 id5 id6"/>
 </defs>
 <defs class="EmbeddedBulletChars">
  <g id="bullet-char-template-57356" transform="scale(0.00048828125,-0.00048828125)">
   <path d="M 580,1141 L 1163,571 580,0 -4,571 580,1141 Z"/>
  </g>
  <g id="bullet-char-template-57354" transform="scale(0.00048828125,-0.00048828125)">
   <path d="M 8,1128 L 1137,1128 1137,0 8,0 8,1128 Z"/>
  </g>
  <g id="bullet-char-template-10146" transform="scale(0.00048828125,-0.00048828125)">
   <path d="M 174,0 L 602,739 174,1481 1456,739 174,0 Z M 1358,739 L 309,1346 659,739 1358,739 Z"/>
  </g>
  <g id="bullet-char-template-10132" transform="scale(0.00048828125,-0.00048828125)">
   <path d="M 2015,739 L 1276,0 717,0 1260,543 174,543 174,936 1260,936 717,1481 1274,1481 2015,739 Z"/>
  </g>
  <g id="bullet-char-template-10007" transform="scale(0.00048828125,-0.00048828125)">
   <path d="M 0,-2 C -7,14 -16,27 -25,37 L 356,567 C 262,823 215,952 215,954 215,979 228,992 255,992 264,992 276,990 289,987 310,991 331,999 354,1012 L 381,999 492,748 772,1049 836,1024 860,1049 C 881,1039 901,1025 922,1006 886,937 835,863 770,784 769,783 710,716 594,584 L 774,223 C 774,196 753,168 711,139 L 727,119 C 717,90 699,76 672,76 641,76 570,178 457,381 L 164,-76 C 142,-110 111,-127 72,-127 30,-127 9,-110 8,-76 1,-67 -2,-52 -2,-32 -2,-23 -1,-13 0,-2 Z"/>
  </g>
  <g id="bullet-char-template-10004" transform="scale(0.00048828125,-0.00048828125)">
   <path d="M 285,-33 C 182,-33 111,30 74,156 52,228 41,333 41,471 41,549 55,616 82,672 116,743 169,778 240,778 293,778 328,747 346,684 L 369,508 C 377,444 397,411 428,410 L 1163,1116 C 1174,1127 1196,1133 1229,1133 1271,1133 1292,1118 1292,1087 L 1292,965 C 1292,929 1282,901 1262,881 L 442,47 C 390,-6 338,-33 285,-33 Z"/>
  </g>
  <g id="bullet-char-template-9679" transform="scale(0.00048828125,-0.00048828125)">
   <path d="M 813,0 C 632,0 489,54 383,161 276,268 223,411 223,592 223,773 276,916 383,1023 489,1130 632,1184 813,1184 992,1184 1136,1130 1245,1023 1353,916 1407,772 1407,592 1407,412 1353,268 1245,161 1136,54 992,0 813,0 Z"/>
  </g>
  <g id="bullet-char-template-8226" transform="scale(0.00048828125,-0.00048828125)">
   <path d="M 346,457 C 273,457 209,483 155,535 101,586 74,649 74,723 74,796 101,859 155,911 209,963 273,989 346,989 419,989 480,963 531,910 582,859 608,796 608,723 608,648 583,586 532,535 482,483 420,457 346,457 Z"/>
  </g>
  <g id="bullet-char-template-8211" transform="scale(0.00048828125,-0.00048828125)">
   <path d="M -4,459 L 1135,459 1135,606 -4,606 -4,459 Z"/>
  </g>
  <g id="bullet-char-template-61548" transform="scale(0.00048828125,-0.00048828125)">
   <path d="M 173,740 C 173,903 231,1043 346,1159 462,1274 601,1332 765,1332 928,1332 1067,1274 1183,1159 1299,1043 1357,903 1357,740 1357,577 1299,437 1183,322 1067,206 928,148 765,148 601,148 462,206 346,322 231,437 173,577 173,740 Z"/>
  </g>
 </defs>
 <g>
  <g id="id2" class="Master_Slide">
   <g id="bg-id2" class="Background"/>
   <g id="bo-id2" class="BackgroundObjects"/>
  </g>
 </g>
 <g class="SlideGroup">
  <g>
   <g id="container-id1">
    <g id="id1" class="Slide" clip-path="url(#presentation_clip_path)">
     <g class="Page">
      <g class="Group">
       <g class="Group">
        <g class="com.sun.star.drawing.ClosedBezierShape">
         <g id="id3">
          <rect class="BoundingBox" stroke="none" fill="none" x="0" y="3412" width="3094" height="3218"/>
          <path fill="rgb(51,51,51)" stroke="none" d="M 3011,3412 C 2035,3412 1058,3412 82,3412 54,3769 27,4127 0,4484 36,4484 73,4484 109,4484 177,3711 259,3561 981,3561 1063,3561 1185,3561 1240,3575 1335,3588 1335,3643 1335,3751 1335,4584 1335,5417 1335,6249 1335,6412 1335,6480 831,6480 768,6480 704,6480 640,6480 640,6530 640,6579 640,6629 831,6616 1315,6616 1540,6616 1764,6616 2262,6616 2452,6629 2452,6579 2452,6530 2452,6480 2389,6480 2325,6480 2262,6480 1758,6480 1758,6412 1758,6249 1758,5417 1758,4584 1758,3751 1758,3656 1758,3588 1853,3575 1894,3561 2030,3561 2125,3561 2848,3561 2916,3711 2984,4484 3020,4484 3056,4484 3093,4484 3066,4127 3038,3769 3011,3412 Z"/>
         </g>
        </g>
        <g class="com.sun.star.drawing.ClosedBezierShape">
         <g id="id4">
          <rect class="BoundingBox" stroke="none" fill="none" x="3433" y="3453" width="1023" height="3177"/>
          <path fill="rgb(51,51,51)" stroke="none" d="M 4128,4525 C 3905,4543 3683,4562 3460,4580 3460,4629 3460,4679 3460,4729 3760,4729 3814,4756 3814,4987 3814,5417 3814,5847 3814,6277 3814,6480 3760,6480 3433,6480 3433,6530 3433,6580 3433,6629 3583,6629 3842,6616 3964,6616 4128,6616 4291,6629 4455,6629 4455,6580 4455,6530 4455,6480 4141,6480 4128,6467 4128,6277 4128,5693 4128,5109 4128,4525 Z M 4141,3697 C 4141,3548 4019,3453 3896,3453 3746,3453 3637,3575 3637,3697 3637,3833 3746,3955 3896,3955 4019,3955 4141,3860 4141,3697 Z"/>
         </g>
        </g>
        <g class="com.sun.star.drawing.ClosedBezierShape">
         <g id="id5">
          <rect class="BoundingBox" stroke="none" fill="none" x="4959" y="3331" width="2045" height="3355"/>
          <path fill="rgb(51,51,51)" stroke="none" d="M 6049,3453 C 6063,3440 6076,3399 6076,3385 6076,3345 6035,3331 6008,3331 5994,3331 5940,3331 5926,3345 5767,3358 5608,3372 5449,3385 5395,3385 5340,3385 5340,3480 5340,3535 5395,3535 5463,3535 5681,3535 5695,3562 5695,3616 5695,3630 5681,3684 5681,3698 5445,4630 5209,5562 4973,6494 4973,6507 4959,6548 4959,6562 4959,6616 5013,6684 5095,6684 5245,6684 5272,6548 5286,6507 5368,6186 5449,5865 5531,5544 5708,5571 6008,5666 6008,5937 6008,5978 6008,5992 5994,6060 5981,6141 5981,6182 5981,6222 5981,6562 6199,6684 6376,6684 6594,6684 6703,6521 6744,6440 6853,6250 6921,5964 6921,5951 6921,5910 6880,5910 6853,5910 6798,5910 6785,5910 6757,6019 6703,6250 6608,6575 6390,6575 6267,6575 6253,6467 6253,6372 6253,6263 6294,6127 6294,6114 6321,6005 6321,6005 6321,5937 6321,5625 5981,5489 5681,5449 5790,5381 5899,5286 6022,5136 6267,4851 6458,4634 6703,4634 6785,4634 6785,4670 6826,4688 6621,4729 6608,4892 6608,4933 6608,4987 6648,5082 6771,5082 6880,5082 7003,5001 7003,4811 7003,4688 6921,4526 6703,4526 6458,4526 6253,4729 6090,4919 5817,5231 5736,5313 5572,5394 5731,4747 5890,4100 6049,3453 Z"/>
         </g>
        </g>
        <g class="com.sun.star.drawing.ClosedBezierShape">
         <g id="id6">
          <rect class="BoundingBox" stroke="none" fill="none" x="7589" y="3385" width="2413" height="3245"/>
          <path fill="rgb(51,51,51)" stroke="none" d="M 9932,3548 C 9973,3494 9973,3494 9973,3453 9973,3385 9946,3385 9851,3385 9133,3385 8416,3385 7698,3385 7684,3742 7671,4100 7657,4457 7693,4457 7730,4457 7766,4457 7807,3914 7943,3534 8733,3534 8983,3534 9233,3534 9483,3534 8865,4507 8248,5480 7630,6453 7589,6507 7589,6507 7589,6548 7589,6629 7616,6629 7712,6629 8447,6629 9183,6629 9919,6629 9946,6209 9973,5788 10001,5367 9960,5367 9919,5367 9878,5367 9837,6018 9755,6466 8870,6466 8606,6466 8343,6466 8079,6466 8697,5494 9315,4521 9932,3548 Z"/>
         </g>
        </g>
       </g>
      </g>
     </g>
    </g>
   </g>
  </g>
 </g>
</svg>