<?xml version="1.0" encoding="UTF-8"?>
<!DOCTYPE svg PUBLIC "-//W3C//DTD SVG 1.1//EN" "http://www.w3.org/Graphics/SVG/1.1/DTD/svg11.dtd">
<svg version="1.2" width="80.01mm" height="80.01mm" viewBox="2000 2000 8001 8001" preserveAspectRatio="xMidYMid" fill-rule="evenodd" stroke-width="28.222" stroke-linejoin="round" xmlns="http://www.w3.org/2000/svg" xmlns:ooo="http://xml.openoffice.org/svg/export" xmlns:xlink="http://www.w3.org/1999/xlink" xmlns:presentation="http://sun.com/xmlns/staroffice/presentation" xmlns:smil="http://www.w3.org/2001/SMIL20/" xmlns:anim="urn:oasis:names:tc:opendocument:xmlns:animation:1.0" xml:space="preserve">
 <defs class="EmbeddedBulletChars">
  <g id="bullet-char-template-57356" transform="scale(0.00048828125,-0.00048828125)">
   <path d="M 580,1141 L 1163,571 580,0 -4,571 580,1141 Z"/>
  </g>
  <g id="bullet-char-template-57354" transform="scale(0.00048828125,-0.00048828125)">
   <path d="M 8,1128 L 1137,1128 1137,0 8,0 8,1128 Z"/>
  </g>
  <g id="bullet-char-template-10146" transform="scale(0.00048828125,-0.00048828125)">
   <path d="M 174,0 L 602,739 174,1481 1456,739 174,0 Z M 1358,739 L 309,1346 659,739 1358,739 Z"/>
  </g>
  <g id="bullet-char-template-10132" transform="scale(0.00048828125,-0.00048828125)">
   <path d="M 2015,739 L 1276,0 717,0 1260,543 174,543 174,936 1260,936 717,1481 1274,1481 2015,739 Z"/>
  </g>
  <g id="bullet-char-template-10007" transform="scale(0.00048828125,-0.00048828125)">
   <path d="M 0,-2 C -7,14 -16,27 -25,37 L 356,567 C 262,823 215,952 215,954 215,979 228,992 255,992 264,992 276,990 289,987 310,991 331,999 354,1012 L 381,999 492,748 772,1049 836,1024 860,1049 C 881,1039 901,1025 922,1006 886,937 835,863 770,784 769,783 710,716 594,584 L 774,223 C 774,196 753,168 711,139 L 727,119 C 717,90 699,76 672,76 641,76 570,178 457,381 L 164,-76 C 142,-110 111,-127 72,-127 30,-127 9,-110 8,-76 1,-67 -2,-52 -2,-32 -2,-23 -1,-13 0,-2 Z"/>
  </g>
  <g id="bullet-char-template-10004" transform="scale(0.00048828125,-0.00048828125)">
   <path d="M 285,-33 C 182,-33 111,30 74,156 52,228 41,333 41,471 41,549 55,616 82,672 116,743 169,778 240,778 293,778 328,747 346,684 L 369,508 C 377,444 397,411 428,410 L 1163,1116 C 1174,1127 1196,1133 1229,1133 1271,1133 1292,1118 1292,1087 L 1292,965 C 1292,929 1282,901 1262,881 L 442,47 C 390,-6 338,-33 285,-33 Z"/>
  </g>
  <g id="bullet-char-template-9679" transform="scale(0.00048828125,-0.00048828125)">
   <path d="M 813,0 C 632,0 489,54 383,161 276,268 223,411 223,592 223,773 276,916 383,1023 489,1130 632,1184 813,1184 992,1184 1136,1130 1245,1023 1353,916 1407,772 1407,592 1407,412 1353,268 1245,161 1136,54 992,0 813,0 Z"/>
  </g>
  <g id="bullet-char-template-8226" transform="scale(0.00048828125,-0.00048828125)">
   <path d="M 346,457 C 273,457 209,483 155,535 101,586 74,649 74,723 74,796 101,859 155,911 209,963 273,989 346,989 419,989 480,963 531,910 582,859 608,796 608,723 608,648 583,586 532,535 482,483 420,457 346,457 Z"/>
  </g>
  <g id="bullet-char-template-8211" transform="scale(0.00048828125,-0.00048828125)">
   <path d="M -4,459 L 1135,459 1135,606 -4,606 -4,459 Z"/>
  </g>
  <g id="bullet-char-template-61548" transform="scale(0.00048828125,-0.00048828125)">
   <path d="M 173,740 C 173,903 231,1043 346,1159 462,1274 601,1332 765,1332 928,1332 1067,1274 1183,1159 1299,1043 1357,903 1357,740 1357,577 1299,437 1183,322 1067,206 928,148 765,148 601,148 462,206 346,322 231,437 173,577 173,740 Z"/>
  </g>
 </defs>
 <g class="Page">
  <g class="Graphic">
   <g id="id3">
    <rect class="BoundingBox" stroke="none" fill="none" x="2000" y="2000" width="8001" height="8001"/>
    <path fill="rgb(234,181,40)" stroke="none" d="M 8714,4164 L 7877,4164 7877,3393 9552,3393 9552,4164 8714,4164 Z"/>
    <path fill="rgb(150,34,41)" stroke="none" d="M 8812,3150 L 7974,3150 7974,2379 9649,2379 9649,3150 8812,3150 Z"/>
    <path fill="rgb(24,138,150)" stroke="none" d="M 8617,5177 L 7779,5177 7779,4407 9454,4407 9454,5177 8617,5177 Z"/>
    <g style="opacity: 0.0980392156862745">
     <path fill="rgb(6,0,1)" fill-opacity="0.102" stroke="rgb(255,255,255)" stroke-opacity="0.102" d="M 8429,4164 L 7592,4164 7592,3393 9267,3393 9267,4164 8429,4164 Z"/>
    </g>
    <g style="opacity: 0.0980392156862745">
     <path fill="rgb(6,0,1)" fill-opacity="0.102" stroke="rgb(255,255,255)" stroke-opacity="0.102" d="M 8429,3150 L 7592,3150 7592,2379 9267,2379 9267,3150 8429,3150 Z"/>
    </g>
    <g style="opacity: 0.0980392156862745">
     <path fill="rgb(6,0,1)" fill-opacity="0.102" stroke="rgb(255,255,255)" stroke-opacity="0.102" d="M 8429,5177 L 7592,5177 7592,4407 9267,4407 9267,5177 8429,5177 Z"/>
    </g>
    <path fill="rgb(245,241,232)" stroke="none" d="M 5860,9992 L 2749,9992 2749,2008 8972,2008 8972,9992 5860,9992 Z"/>
    <path fill="rgb(13,84,91)" stroke="none" d="M 3179,9992 L 2100,9992 2100,2008 4258,2008 4258,9992 3179,9992 Z"/>
    <path fill="rgb(245,206,53)" stroke="none" d="M 2100,9992 L 2008,9992 2008,2008 2192,2008 2192,9992 2100,9992 Z"/>
    <path fill="rgb(255,255,255)" stroke="none" d="M 3770,2659 L 2748,2659 2748,2858 3376,2858 2749,3262 2748,3263 2748,3441 3770,3441 3770,3242 3144,3242 3770,2836 3770,2659 3770,2659 Z"/>
    <path fill="rgb(255,255,255)" stroke="none" d="M 3478,3748 C 3459,3711 3438,3680 3413,3657 3377,3623 3336,3600 3291,3589 3247,3577 3190,3572 3122,3572 3054,3572 2999,3577 2954,3589 2909,3600 2868,3623 2831,3657 2807,3680 2785,3711 2766,3748 2759,3764 2753,3780 2749,3799 2742,3825 2739,3856 2739,3889 2739,3921 2742,3951 2749,3977 2753,3996 2759,4012 2766,4028 2785,4066 2807,4097 2831,4121 2867,4155 2908,4178 2953,4189 2999,4200 3054,4205 3122,4205 3190,4205 3247,4200 3291,4188 3336,4177 3377,4154 3413,4121 3438,4097 3459,4066 3478,4028 3496,3990 3505,3943 3505,3889 3505,3833 3496,3786 3478,3748 L 3478,3748 Z M 3304,3975 C 3285,3995 3259,4007 3228,4011 3196,4017 3161,4019 3122,4019 3084,4019 3048,4017 3016,4011 2985,4007 2959,3995 2941,3975 2919,3953 2908,3925 2908,3889 2908,3852 2919,3824 2941,3802 2959,3782 2985,3770 3016,3766 3048,3761 3084,3759 3122,3759 3161,3759 3196,3761 3228,3766 3259,3770 3285,3782 3304,3802 3326,3824 3337,3852 3337,3889 3337,3925 3326,3953 3304,3975 L 3304,3975 Z"/>
    <path fill="rgb(255,255,255)" stroke="none" d="M 3474,4260 L 3333,4260 3333,4339 2962,4339 C 2935,4339 2909,4343 2884,4351 2858,4359 2835,4372 2816,4389 2796,4408 2779,4430 2766,4457 2757,4478 2751,4501 2749,4529 2748,4537 2748,4546 2748,4556 L 2748,4658 2907,4658 2907,4590 C 2907,4547 2928,4525 2973,4525 L 3333,4525 3333,4658 3474,4658 3474,4525 3696,4525 3696,4339 3474,4339 3474,4260 Z"/>
    <path fill="rgb(255,255,255)" stroke="none" d="M 3480,4921 C 3463,4882 3438,4848 3405,4819 3373,4789 3333,4768 3286,4752 3245,4738 3198,4730 3145,4729 3138,4728 3130,4728 3122,4728 3047,4728 2984,4738 2935,4758 2886,4777 2847,4803 2818,4836 2788,4867 2768,4905 2756,4946 2754,4957 2751,4967 2749,4978 2742,5010 2739,5042 2739,5074 2739,5095 2740,5114 2742,5133 2743,5143 2744,5154 2746,5164 2748,5168 2748,5171 2749,5174 2753,5198 2760,5219 2768,5239 2779,5261 2791,5282 2806,5301 2821,5320 2839,5340 2857,5358 L 2968,5245 C 2945,5221 2927,5197 2915,5173 2903,5149 2898,5117 2898,5076 2898,5022 2913,4981 2944,4954 2976,4925 3015,4912 3064,4912 L 3064,5380 3143,5380 C 3196,5380 3244,5373 3289,5358 3333,5344 3371,5323 3404,5296 3436,5267 3460,5233 3479,5193 3496,5152 3505,5106 3505,5054 3505,5005 3496,4962 3480,4921 L 3480,4921 Z M 3327,5133 C 3313,5153 3295,5169 3273,5179 3258,5186 3246,5190 3234,5192 3222,5194 3208,5195 3191,5196 L 3191,4912 C 3208,4913 3222,4914 3234,4917 3246,4918 3258,4922 3273,4929 3295,4940 3313,4955 3327,4976 3343,4997 3349,5023 3349,5054 3349,5085 3343,5112 3327,5133 L 3327,5133 Z"/>
    <path fill="rgb(255,255,255)" stroke="none" d="M 2748,5933 C 2748,5945 2748,5957 2749,5968 2752,6003 2759,6035 2768,6063 2783,6101 2802,6135 2828,6162 2853,6189 2883,6210 2920,6224 2956,6239 2996,6246 3041,6246 3078,6246 3110,6241 3139,6231 3167,6221 3194,6204 3218,6183 3228,6173 3238,6162 3245,6152 3253,6141 3262,6126 3273,6106 3319,6190 3391,6232 3490,6232 3532,6232 3571,6224 3606,6210 3640,6195 3669,6174 3693,6146 3719,6119 3737,6086 3750,6047 3764,6007 3770,5963 3770,5916 L 3770,5505 2748,5505 2748,5933 Z M 3177,5913 C 3177,5955 3166,5986 3144,6010 3122,6035 3092,6047 3052,6047 3013,6047 2982,6035 2960,6010 2937,5986 2926,5955 2926,5913 L 2926,5705 3177,5705 3177,5913 Z M 3561,5997 C 3540,6020 3512,6032 3474,6032 3438,6032 3410,6020 3389,5997 3368,5973 3357,5941 3357,5900 L 3357,5705 3593,5705 3593,5900 C 3593,5941 3582,5973 3561,5997 Z"/>
    <path fill="rgb(255,255,255)" stroke="none" d="M 3478,6519 C 3459,6482 3438,6451 3413,6427 3377,6394 3336,6371 3291,6360 3247,6348 3190,6342 3122,6342 3054,6342 2999,6348 2954,6360 2909,6371 2868,6394 2831,6427 2807,6451 2785,6482 2766,6519 2759,6534 2753,6551 2749,6569 2742,6596 2739,6625 2739,6658 2739,6691 2742,6721 2749,6747 2753,6766 2759,6783 2766,6798 2785,6836 2807,6867 2831,6891 2867,6926 2908,6949 2953,6960 2999,6971 3054,6976 3122,6976 3190,6976 3247,6969 3291,6958 3336,6947 3377,6924 3413,6891 3438,6867 3459,6836 3478,6798 3496,6760 3505,6714 3505,6658 3505,6602 3496,6556 3478,6519 L 3478,6519 Z M 3304,6746 C 3285,6766 3259,6777 3228,6782 3196,6786 3161,6789 3122,6789 3084,6789 3048,6786 3016,6782 2985,6777 2959,6766 2941,6746 2919,6724 2908,6694 2908,6658 2908,6623 2919,6595 2941,6572 2959,6553 2985,6541 3016,6537 3048,6531 3084,6529 3122,6529 3161,6529 3196,6531 3228,6537 3259,6541 3285,6553 3304,6572 3326,6595 3337,6623 3337,6658 3337,6694 3326,6724 3304,6746 L 3304,6746 Z"/>
    <path fill="rgb(255,255,255)" stroke="none" d="M 3478,7237 C 3459,7200 3438,7169 3413,7145 3388,7122 3361,7104 3332,7092 3319,7086 3305,7081 3291,7078 3247,7066 3190,7060 3122,7060 3054,7060 2999,7066 2954,7078 2909,7089 2868,7112 2831,7145 2807,7169 2785,7200 2766,7237 2759,7252 2753,7269 2749,7287 2742,7314 2739,7343 2739,7376 2739,7409 2742,7440 2749,7466 2753,7485 2759,7501 2766,7516 2783,7550 2802,7579 2823,7601 2825,7604 2829,7607 2831,7609 2867,7643 2908,7666 2953,7677 2999,7688 3055,7694 3122,7694 3190,7694 3247,7688 3291,7676 3336,7665 3377,7642 3413,7609 3438,7585 3459,7555 3478,7516 3496,7479 3505,7432 3505,7376 3505,7321 3496,7274 3478,7237 L 3478,7237 Z M 3304,7464 C 3285,7483 3259,7496 3228,7500 3196,7504 3161,7508 3122,7508 3084,7508 3048,7504 3016,7500 2991,7497 2968,7487 2950,7472 2947,7470 2944,7467 2941,7464 2919,7442 2908,7412 2908,7376 2908,7341 2919,7312 2941,7291 2959,7271 2985,7259 3016,7254 3048,7250 3084,7247 3122,7247 3141,7247 3159,7248 3175,7249 3194,7250 3211,7252 3228,7254 3259,7259 3285,7271 3304,7291 3326,7312 3337,7341 3337,7376 3337,7412 3326,7442 3304,7464 L 3304,7464 Z"/>
    <path fill="rgb(255,255,255)" stroke="none" d="M 3770,7810 L 2748,7810 2748,7996 2971,7996 3060,8075 2749,8258 2748,8259 2748,8491 2749,8490 3195,8204 3496,8471 3496,8245 3190,7996 3770,7996 3770,7810 3770,7810 Z"/>
    <path fill="rgb(255,255,255)" stroke="none" d="M 3770,2659 L 2748,2659 2748,2858 3376,2858 2749,3262 2748,3263 2748,3441 3770,3441 3770,3242 3144,3242 3770,2836 3770,2659 3770,2659 Z"/>
    <path fill="rgb(255,255,255)" stroke="none" d="M 3478,3748 C 3459,3711 3438,3680 3413,3657 3377,3623 3336,3600 3291,3589 3247,3577 3190,3572 3122,3572 3054,3572 2999,3577 2954,3589 2909,3600 2868,3623 2831,3657 2807,3680 2785,3711 2766,3748 2759,3764 2753,3780 2749,3799 2742,3825 2739,3856 2739,3889 2739,3921 2742,3951 2749,3977 2753,3996 2759,4012 2766,4028 2785,4066 2807,4097 2831,4121 2867,4155 2908,4178 2953,4189 2999,4200 3054,4205 3122,4205 3190,4205 3247,4200 3291,4188 3336,4177 3377,4154 3413,4121 3438,4097 3459,4066 3478,4028 3496,3990 3505,3943 3505,3889 3505,3833 3496,3786 3478,3748 L 3478,3748 Z M 3304,3975 C 3285,3995 3259,4007 3228,4011 3196,4017 3161,4019 3122,4019 3084,4019 3048,4017 3016,4011 2985,4007 2959,3995 2941,3975 2919,3953 2908,3925 2908,3889 2908,3852 2919,3824 2941,3802 2959,3782 2985,3770 3016,3766 3048,3761 3084,3759 3122,3759 3161,3759 3196,3761 3228,3766 3259,3770 3285,3782 3304,3802 3326,3824 3337,3852 3337,3889 3337,3925 3326,3953 3304,3975 L 3304,3975 Z"/>
    <path fill="rgb(255,255,255)" stroke="none" d="M 3474,4260 L 3333,4260 3333,4339 2962,4339 C 2935,4339 2909,4343 2884,4351 2858,4359 2835,4372 2816,4389 2796,4408 2779,4430 2766,4457 2757,4478 2751,4501 2749,4529 2748,4537 2748,4546 2748,4556 L 2748,4658 2907,4658 2907,4590 C 2907,4547 2928,4525 2973,4525 L 3333,4525 3333,4658 3474,4658 3474,4525 3696,4525 3696,4339 3474,4339 3474,4260 Z"/>
    <path fill="rgb(255,255,255)" stroke="none" d="M 3480,4921 C 3463,4882 3438,4848 3405,4819 3373,4789 3333,4768 3286,4752 3245,4738 3198,4730 3145,4729 3138,4728 3130,4728 3122,4728 3047,4728 2984,4738 2935,4758 2886,4777 2847,4803 2818,4836 2788,4867 2768,4905 2756,4946 2754,4957 2751,4967 2749,4978 2742,5010 2739,5042 2739,5074 2739,5095 2740,5114 2742,5133 2743,5143 2744,5154 2746,5164 2748,5168 2748,5171 2749,5174 2753,5198 2760,5219 2768,5239 2779,5261 2791,5282 2806,5301 2821,5320 2839,5340 2857,5358 L 2968,5245 C 2945,5221 2927,5197 2915,5173 2903,5149 2898,5117 2898,5076 2898,5022 2913,4981 2944,4954 2976,4925 3015,4912 3064,4912 L 3064,5380 3143,5380 C 3196,5380 3244,5373 3289,5358 3333,5344 3371,5323 3404,5296 3436,5267 3460,5233 3479,5193 3496,5152 3505,5106 3505,5054 3505,5005 3496,4962 3480,4921 L 3480,4921 Z M 3327,5133 C 3313,5153 3295,5169 3273,5179 3258,5186 3246,5190 3234,5192 3222,5194 3208,5195 3191,5196 L 3191,4912 C 3208,4913 3222,4914 3234,4917 3246,4918 3258,4922 3273,4929 3295,4940 3313,4955 3327,4976 3343,4997 3349,5023 3349,5054 3349,5085 3343,5112 3327,5133 L 3327,5133 Z"/>
    <path fill="rgb(255,255,255)" stroke="none" d="M 2748,5933 C 2748,5945 2748,5957 2749,5968 2752,6003 2759,6035 2768,6063 2783,6101 2802,6135 2828,6162 2853,6189 2883,6210 2920,6224 2956,6239 2996,6246 3041,6246 3078,6246 3110,6241 3139,6231 3167,6221 3194,6204 3218,6183 3228,6173 3238,6162 3245,6152 3253,6141 3262,6126 3273,6106 3319,6190 3391,6232 3490,6232 3532,6232 3571,6224 3606,6210 3640,6195 3669,6174 3693,6146 3719,6119 3737,6086 3750,6047 3764,6007 3770,5963 3770,5916 L 3770,5505 2748,5505 2748,5933 Z M 3177,5913 C 3177,5955 3166,5986 3144,6010 3122,6035 3092,6047 3052,6047 3013,6047 2982,6035 2960,6010 2937,5986 2926,5955 2926,5913 L 2926,5705 3177,5705 3177,5913 Z M 3561,5997 C 3540,6020 3512,6032 3474,6032 3438,6032 3410,6020 3389,5997 3368,5973 3357,5941 3357,5900 L 3357,5705 3593,5705 3593,5900 C 3593,5941 3582,5973 3561,5997 Z"/>
    <path fill="rgb(255,255,255)" stroke="none" d="M 3478,6519 C 3459,6482 3438,6451 3413,6427 3377,6394 3336,6371 3291,6360 3247,6348 3190,6342 3122,6342 3054,6342 2999,6348 2954,6360 2909,6371 2868,6394 2831,6427 2807,6451 2785,6482 2766,6519 2759,6534 2753,6551 2749,6569 2742,6596 2739,6625 2739,6658 2739,6691 2742,6721 2749,6747 2753,6766 2759,6783 2766,6798 2785,6836 2807,6867 2831,6891 2867,6926 2908,6949 2953,6960 2999,6971 3054,6976 3122,6976 3190,6976 3247,6969 3291,6958 3336,6947 3377,6924 3413,6891 3438,6867 3459,6836 3478,6798 3496,6760 3505,6714 3505,6658 3505,6602 3496,6556 3478,6519 L 3478,6519 Z M 3304,6746 C 3285,6766 3259,6777 3228,6782 3196,6786 3161,6789 3122,6789 3084,6789 3048,6786 3016,6782 2985,6777 2959,6766 2941,6746 2919,6724 2908,6694 2908,6658 2908,6623 2919,6595 2941,6572 2959,6553 2985,6541 3016,6537 3048,6531 3084,6529 3122,6529 3161,6529 3196,6531 3228,6537 3259,6541 3285,6553 3304,6572 3326,6595 3337,6623 3337,6658 3337,6694 3326,6724 3304,6746 L 3304,6746 Z"/>
    <path fill="rgb(255,255,255)" stroke="none" d="M 3478,7237 C 3459,7200 3438,7169 3413,7145 3388,7122 3361,7104 3332,7092 3319,7086 3305,7081 3291,7078 3247,7066 3190,7060 3122,7060 3054,7060 2999,7066 2954,7078 2909,7089 2868,7112 2831,7145 2807,7169 2785,7200 2766,7237 2759,7252 2753,7269 2749,7287 2742,7314 2739,7343 2739,7376 2739,7409 2742,7440 2749,7466 2753,7485 2759,7501 2766,7516 2783,7550 2802,7579 2823,7601 2825,7604 2829,7607 2831,7609 2867,7643 2908,7666 2953,7677 2999,7688 3055,7694 3122,7694 3190,7694 3247,7688 3291,7676 3336,7665 3377,7642 3413,7609 3438,7585 3459,7555 3478,7516 3496,7479 3505,7432 3505,7376 3505,7321 3496,7274 3478,7237 L 3478,7237 Z M 3304,7464 C 3285,7483 3259,7496 3228,7500 3196,7504 3161,7508 3122,7508 3084,7508 3048,7504 3016,7500 2991,7497 2968,7487 2950,7472 2947,7470 2944,7467 2941,7464 2919,7442 2908,7412 2908,7376 2908,7341 2919,7312 2941,7291 2959,7271 2985,7259 3016,7254 3048,7250 3084,7247 3122,7247 3141,7247 3159,7248 3175,7249 3194,7250 3211,7252 3228,7254 3259,7259 3285,7271 3304,7291 3326,7312 3337,7341 3337,7376 3337,7412 3326,7442 3304,7464 L 3304,7464 Z"/>
    <path fill="rgb(255,255,255)" stroke="none" d="M 3770,7810 L 2748,7810 2748,7996 2971,7996 3060,8075 2749,8258 2748,8259 2748,8491 2749,8490 3195,8204 3496,8471 3496,8245 3190,7996 3770,7996 3770,7810 3770,7810 Z"/>
    <path fill="rgb(86,86,87)" stroke="none" d="M 5570,6241 L 4258,6241 4258,5878 6882,5878 6882,6241 5570,6241 Z"/>
    <path fill="rgb(86,86,87)" stroke="none" d="M 6668,7241 L 4907,7241 4907,7190 8429,7190 8429,7241 6668,7241 Z"/>
    <path fill="rgb(86,86,87)" stroke="none" d="M 6668,8201 L 4907,8201 4907,8150 8429,8150 8429,8201 6668,8201 Z"/>
    <path fill="rgb(86,86,87)" stroke="none" d="M 6668,9161 L 4907,9161 4907,9110 8429,9110 8429,9161 6668,9161 Z"/>
    <path fill="rgb(35,24,21)" fill-opacity="0.051" stroke="rgb(255,255,255)" stroke-opacity="0.051" d="M 9552,3393 L 9552,4164 8972,4164 8972,4407 9454,4407 9454,5177 8972,5177 8972,9992 3026,9992 3026,9390 3767,8650 3841,8576 4193,8224 4258,8160 4350,8068 5176,7241 5228,7190 5276,7141 5564,6854 6541,5878 7592,4826 7779,4638 8011,4407 9024,3393 9552,3393 Z"/>
    <path fill="rgb(35,24,21)" fill-opacity="0.051" stroke="rgb(255,255,255)" stroke-opacity="0.051" d="M 9649,2983 L 9649,3150 9268,3150 9434,2983 9649,2983 Z"/>
   </g>
  </g>
 </g>
</svg>