<svg xmlns="http://www.w3.org/2000/svg" width="640" height="640" viewBox="0 0 516.753 516.753">
    <g stroke-width=".996" stroke-linecap="round" stroke-miterlimit="10" fill="none" stroke="#000">
        <path
            d="M27.244 513.42v-7.97M43.184 513.42v-7.97M59.125 513.42v-7.97M67.095 513.42v-7.97M98.976 513.42v-7.97M114.916 513.42v-7.97M162.738 513.42v-7.97M178.678 513.42v-7.97M194.618 513.42v-7.97M210.559 513.42v-7.97M226.5 513.42v-7.97M242.44 513.42v-7.97M258.38 513.42v-7.97M282.29 513.42v-7.97M298.231 513.42v-7.97M322.142 513.42v-7.97M346.052 513.42v-7.97M369.963 513.42v-7.97M385.904 513.42v-7.97M401.844 513.42v-7.97M457.635 513.42v-7.97M489.516 513.42v-7.97M505.457 513.42v-7.97M11.303 505.45h7.97M19.274 505.45h7.97M43.184 505.45h7.97M83.035 505.45h7.97M91.006 505.45h7.97M122.886 505.45h7.97M138.827 505.45h7.97M146.797 505.45h7.97M178.678 505.45h7.97M258.38 505.45h7.97M266.35 505.45h7.97M298.231 505.45h7.97M306.201 505.45h7.97M330.112 505.45h7.97M354.023 505.45h7.97M409.814 505.45h7.97M425.755 505.45h7.97M433.725 505.45h7.97M441.695 505.45h7.97M457.635 505.45h7.97M465.606 505.45h7.97M473.576 505.45h7.97M11.303 505.45v-7.97M35.214 505.45v-7.97M51.154 505.45v-7.97M67.095 505.45v-7.97M75.065 505.45v-7.97M106.946 505.45v-7.97M114.916 505.45v-7.97M130.857 505.45v-7.97M154.767 505.45v-7.97M170.708 505.45v-7.97M194.618 505.45v-7.97M202.589 505.45v-7.97M210.559 505.45v-7.97M218.529 505.45v-7.97M234.47 505.45v-7.97M250.41 505.45v-7.97M258.38 505.45v-7.97M274.32 505.45v-7.97M290.261 505.45v-7.97M298.231 505.45v-7.97M322.142 505.45v-7.97M338.082 505.45v-7.97M346.052 505.45v-7.97M361.993 505.45v-7.97M369.963 505.45v-7.97M377.933 505.45v-7.97M393.874 505.45v-7.97M401.844 505.45v-7.97M417.784 505.45v-7.97M433.725 505.45v-7.97M449.665 505.45v-7.97M481.546 505.45v-7.97M497.487 505.45v-7.97M505.457 505.45v-7.97M19.274 497.48h7.97M27.244 497.48h7.97M35.214 497.48h7.97M75.065 497.48h7.97M83.035 497.48h7.97M91.006 497.48h7.97M114.916 497.48h7.97M130.857 497.48h7.97M138.827 497.48h7.97M154.767 497.48h7.97M162.738 497.48h7.97M170.708 497.48h7.97M178.678 497.48h7.97M186.648 497.48h7.97M210.559 497.48h7.97M218.529 497.48h7.97M234.47 497.48h7.97M242.44 497.48h7.97M274.32 497.48h7.97M282.29 497.48h7.971M306.201 497.48h7.97M314.172 497.48h7.97M322.142 497.48h7.97M346.052 497.48h7.97M369.963 497.48h7.97M385.904 497.48h7.97M401.844 497.48h7.97M417.784 497.48h7.97M449.665 497.48h7.97M465.606 497.48h7.97M481.546 497.48h7.97M489.516 497.48h7.97M27.244 497.48v-7.97M51.154 497.48v-7.97M59.125 497.48v-7.97M83.035 497.48v-7.97M106.946 497.48v-7.97M122.886 497.48v-7.97M138.827 497.48v-7.97M154.767 497.48v-7.97M178.678 497.48v-7.97M202.589 497.48v-7.97M210.559 497.48v-7.97M226.5 497.48v-7.97M250.41 497.48v-7.97M258.38 497.48v-7.97M266.35 497.48v-7.97M274.32 497.48v-7.97M290.261 497.48v-7.97M306.201 497.48v-7.97M330.112 497.48v-7.97M338.082 497.48v-7.97M361.993 497.48v-7.97M385.904 497.48v-7.97M409.814 497.48v-7.97M425.755 497.48v-7.97M433.725 497.48v-7.97M441.695 497.48v-7.97M457.635 497.48v-7.97M465.606 497.48v-7.97M473.576 497.48v-7.97M481.546 497.48v-7.97M3.333 489.51h7.97M11.303 489.51h7.97M19.274 489.51h7.97M35.214 489.51h7.97M51.154 489.51h7.97M59.125 489.51h7.97M67.095 489.51h7.97M75.065 489.51h7.97M91.006 489.51h7.97M98.976 489.51h7.97M106.946 489.51h7.97M122.886 489.51h7.97M138.827 489.51h7.97M146.797 489.51h7.97M162.738 489.51h7.97M186.648 489.51h7.97M194.618 489.51h7.97M234.47 489.51h7.97M290.261 489.51h7.97M306.201 489.51h7.97M314.172 489.51h7.97M338.082 489.51h7.97M354.023 489.51h7.97M361.993 489.51h7.97M369.963 489.51h7.97M377.933 489.51h7.97M385.904 489.51h7.97M393.874 489.51h7.97M401.844 489.51h7.97M433.725 489.51h7.97M441.695 489.51h7.97M497.487 489.51h7.97M505.457 489.51h7.97M19.274 489.51v-7.971M35.214 489.51v-7.971M43.184 489.51v-7.971M51.154 489.51v-7.971M67.095 489.51v-7.971M83.035 489.51v-7.971M98.976 489.51v-7.971M114.916 489.51v-7.971M122.886 489.51v-7.971M130.857 489.51v-7.971M162.738 489.51v-7.971M178.678 489.51v-7.971M202.589 489.51v-7.971M210.559 489.51v-7.971M218.529 489.51v-7.971M226.5 489.51v-7.971M242.44 489.51v-7.971M250.41 489.51v-7.971M258.38 489.51v-7.971M266.35 489.51v-7.971M274.32 489.51v-7.971M282.29 489.51v-7.971M306.201 489.51v-7.971M322.142 489.51v-7.971M330.112 489.51v-7.971M346.052 489.51v-7.971M354.023 489.51v-7.971M377.933 489.51v-7.971M393.874 489.51v-7.971M409.814 489.51v-7.971M417.784 489.51v-7.971M425.755 489.51v-7.971M433.725 489.51v-7.971M457.635 489.51v-7.971M473.576 489.51v-7.971M481.546 489.51v-7.971M489.516 489.51v-7.971M497.487 489.51v-7.971M27.244 481.539h7.97M83.035 481.539h7.97M91.006 481.539h7.97M130.857 481.539h7.97M138.827 481.539h7.97M146.797 481.539h7.97M154.767 481.539h7.97M178.678 481.539h7.97M186.648 481.539h7.97M226.5 481.539h7.97M282.29 481.539h7.971M290.261 481.539h7.97M330.112 481.539h7.97M346.052 481.539h7.97M361.993 481.539h7.97M409.814 481.539h7.97M441.695 481.539h7.97M449.665 481.539h7.97M457.635 481.539h7.97M465.606 481.539h7.97M489.516 481.539h7.97M11.303 481.539v-7.97M19.274 481.539v-7.97M43.184 481.539v-7.97M59.125 481.539v-7.97M75.065 481.539v-7.97M98.976 481.539v-7.97M106.946 481.539v-7.97M114.916 481.539v-7.97M122.886 481.539v-7.97M170.708 481.539v-7.97M186.648 481.539v-7.97M202.589 481.539v-7.97M210.559 481.539v-7.97M218.529 481.539v-7.97M234.47 481.539v-7.97M242.44 481.539v-7.97M250.41 481.539v-7.97M266.35 481.539v-7.97M274.32 481.539v-7.97M298.231 481.539v-7.97M306.201 481.539v-7.97M314.172 481.539v-7.97M322.142 481.539v-7.97M338.082 481.539v-7.97M369.963 481.539v-7.97M385.904 481.539v-7.97M401.844 481.539v-7.97M417.784 481.539v-7.97M425.755 481.539v-7.97M433.725 481.539v-7.97M441.695 481.539v-7.97M465.606 481.539v-7.97M481.546 481.539v-7.97M497.487 481.539v-7.97M505.457 481.539v-7.97M19.274 473.569h7.97M27.244 473.569h7.97M35.214 473.569h7.97M43.184 473.569h7.97M51.154 473.569h7.97M59.125 473.569h7.97M67.095 473.569h7.97M75.065 473.569h7.97M83.035 473.569h7.97M98.976 473.569h7.97M122.886 473.569h7.97M130.857 473.569h7.97M138.827 473.569h7.97M146.797 473.569h7.97M154.767 473.569h7.97M162.738 473.569h7.97M170.708 473.569h7.97M194.618 473.569h7.97M210.559 473.569h7.97M218.529 473.569h7.97M250.41 473.569h7.97M258.38 473.569h7.97M274.32 473.569h7.97M282.29 473.569h7.971M298.231 473.569h7.97M322.142 473.569h7.97M338.082 473.569h7.97M346.052 473.569h7.97M354.023 473.569h7.97M361.993 473.569h7.97M369.963 473.569h7.97M377.933 473.569h7.97M385.904 473.569h7.97M393.874 473.569h7.97M401.844 473.569h7.97M449.665 473.569h7.97M473.576 473.569h7.97M481.546 473.569h7.97M497.487 473.569h7.97M11.303 473.569v-7.97M35.214 473.569v-7.97M59.125 473.569v-7.97M98.976 473.569v-7.97M114.916 473.569v-7.97M154.767 473.569v-7.97M186.648 473.569v-7.97M202.589 473.569v-7.97M234.47 473.569v-7.97M242.44 473.569v-7.97M258.38 473.569v-7.97M290.261 473.569v-7.97M306.201 473.569v-7.97M314.172 473.569v-7.97M338.082 473.569v-7.97M409.814 473.569v-7.97M425.755 473.569v-7.97M433.725 473.569v-7.97M449.665 473.569v-7.97M465.606 473.569v-7.97M473.576 473.569v-7.97M489.516 473.569v-7.97M497.487 473.569v-7.97M3.333 465.599h7.97M11.303 465.599h7.97M19.274 465.599h7.97M43.184 465.599h7.97M67.095 465.599h7.97M75.065 465.599h7.97M91.006 465.599h7.97M114.916 465.599h7.97M122.886 465.599h7.97M130.857 465.599h7.97M138.827 465.599h7.97M162.738 465.599h7.97M170.708 465.599h7.97M178.678 465.599h7.97M186.648 465.599h7.97M202.589 465.599h7.97M210.559 465.599h7.97M218.529 465.599h7.97M226.5 465.599h7.97M234.47 465.599h7.97M242.44 465.599h7.97M258.38 465.599h7.97M266.35 465.599h7.97M274.32 465.599h7.97M290.261 465.599h7.97M314.172 465.599h7.97M322.142 465.599h7.97M330.112 465.599h7.97M346.052 465.599h7.97M354.023 465.599h7.97M361.993 465.599h7.97M369.963 465.599h7.97M377.933 465.599h7.97M393.874 465.599h7.97M417.784 465.599h7.97M433.725 465.599h7.97M441.695 465.599h7.97M449.665 465.599h7.97M505.457 465.599h7.97M35.214 465.599v-7.97M51.154 465.599v-7.97M59.125 465.599v-7.97M83.035 465.599v-7.97M98.976 465.599v-7.97M106.946 465.599v-7.97M114.916 465.599v-7.97M138.827 465.599v-7.97M154.767 465.599v-7.97M194.618 465.599v-7.97M234.47 465.599v-7.97M250.41 465.599v-7.97M282.29 465.599v-7.97M306.201 465.599v-7.97M314.172 465.599v-7.97M330.112 465.599v-7.97M369.963 465.599v-7.97M385.904 465.599v-7.97M393.874 465.599v-7.97M409.814 465.599v-7.97M417.784 465.599v-7.97M465.606 465.599v-7.97M473.576 465.599v-7.97M481.546 465.599v-7.97M497.487 465.599v-7.97M505.457 465.599v-7.97M11.303 457.628h7.97M19.274 457.628h7.97M27.244 457.628h7.97M35.214 457.628h7.97M59.125 457.628h7.97M67.095 457.628h7.97M83.035 457.628h7.97M91.006 457.628h7.97M122.886 457.628h7.97M138.827 457.628h7.97M154.767 457.628h7.97M162.738 457.628h7.97M170.708 457.628h7.97M178.678 457.628h7.97M194.618 457.628h7.97M202.589 457.628h7.97M210.559 457.628h7.97M218.529 457.628h7.97M258.38 457.628h7.97M266.35 457.628h7.97M282.29 457.628h7.971M290.261 457.628h7.97M298.231 457.628h7.97M330.112 457.628h7.97M338.082 457.628h7.97M346.052 457.628h7.97M354.023 457.628h7.97M385.904 457.628h7.97M417.784 457.628h7.97M425.755 457.628h7.97M433.725 457.628h7.97M441.695 457.628h7.97M449.665 457.628h7.97M457.635 457.628h7.97M481.546 457.628h7.97M489.516 457.628h7.97M19.274 457.628v-7.97M35.214 457.628v-7.97M51.154 457.628v-7.97M67.095 457.628v-7.97M83.035 457.628v-7.97M98.976 457.628v-7.97M106.946 457.628v-7.97M114.916 457.628v-7.97M122.886 457.628v-7.97M130.857 457.628v-7.97M138.827 457.628v-7.97M162.738 457.628v-7.97M186.648 457.628v-7.97M210.559 457.628v-7.97M234.47 457.628v-7.97M242.44 457.628v-7.97M250.41 457.628v-7.97M258.38 457.628v-7.97M274.32 457.628v-7.97M290.261 457.628v-7.97M306.201 457.628v-7.97M314.172 457.628v-7.97M322.142 457.628v-7.97M346.052 457.628v-7.97M361.993 457.628v-7.97M377.933 457.628v-7.97M393.874 457.628v-7.97M401.844 457.628v-7.97M409.814 457.628v-7.97M417.784 457.628v-7.97M441.695 457.628v-7.97M449.665 457.628v-7.97M465.606 457.628v-7.97M473.576 457.628v-7.97M497.487 457.628v-7.97M505.457 457.628v-7.97M3.333 449.658h7.97M43.184 449.658h7.97M51.154 449.658h7.97M75.065 449.658h7.97M146.797 449.658h7.97M170.708 449.658h7.97M194.618 449.658h7.97M218.529 449.658h7.97M226.5 449.658h7.97M274.32 449.658h7.97M290.261 449.658h7.97M322.142 449.658h7.97M330.112 449.658h7.97M354.023 449.658h7.97M361.993 449.658h7.97M369.963 449.658h7.97M377.933 449.658h7.97M473.576 449.658h7.97M19.274 449.658v-7.97M27.244 449.658v-7.97M35.214 449.658v-7.97M59.125 449.658v-7.97M67.095 449.658v-7.97M75.065 449.658v-7.97M83.035 449.658v-7.97M91.006 449.658v-7.97M98.976 449.658v-7.97M106.946 449.658v-7.97M122.886 449.658v-7.97M130.857 449.658v-7.97M138.827 449.658v-7.97M146.797 449.658v-7.97M154.767 449.658v-7.97M162.738 449.658v-7.97M170.708 449.658v-7.97M186.648 449.658v-7.97M202.589 449.658v-7.97M210.559 449.658v-7.97M226.5 449.658v-7.97M242.44 449.658v-7.97M258.38 449.658v-7.97M266.35 449.658v-7.97M290.261 449.658v-7.97M306.201 449.658v-7.97M322.142 449.658v-7.97M338.082 449.658v-7.97M346.052 449.658v-7.97M385.904 449.658v-7.97M393.874 449.658v-7.97M401.844 449.658v-7.97M409.814 449.658v-7.97M425.755 449.658v-7.97M433.725 449.658v-7.97M441.695 449.658v-7.97M449.665 449.658v-7.97M457.635 449.658v-7.97M473.576 449.658v-7.97M481.546 449.658v-7.97M489.516 449.658v-7.97M505.457 449.658v-7.97M11.303 441.688h7.97M98.976 441.688h7.97M106.946 441.688h7.97M114.916 441.688h7.97M162.738 441.688h7.97M186.648 441.688h7.97M194.618 441.688h7.97M210.559 441.688h7.97M226.5 441.688h7.97M234.47 441.688h7.97M242.44 441.688h7.97M250.41 441.688h7.97M274.32 441.688h7.97M282.29 441.688h7.971M314.172 441.688h7.97M330.112 441.688h7.97M354.023 441.688h7.97M361.993 441.688h7.97M393.874 441.688h7.97M409.814 441.688h7.97M417.784 441.688h7.97M457.635 441.688h7.97M465.606 441.688h7.97M489.516 441.688h7.97M497.487 441.688h7.97M11.303 441.688v-7.97M27.244 441.688v-7.97M35.214 441.688v-7.97M43.184 441.688v-7.97M51.154 441.688v-7.97M59.125 441.688v-7.97M75.065 441.688v-7.97M83.035 441.688v-7.97M91.006 441.688v-7.97M98.976 441.688v-7.97M114.916 441.688v-7.97M138.827 441.688v-7.97M154.767 441.688v-7.97M178.678 441.688v-7.97M202.589 441.688v-7.97M210.559 441.688v-7.97M218.529 441.688v-7.97M266.35 441.688v-7.97M282.29 441.688v-7.97M298.231 441.688v-7.97M306.201 441.688v-7.97M314.172 441.688v-7.97M330.112 441.688v-7.97M346.052 441.688v-7.97M354.023 441.688v-7.97M377.933 441.688v-7.97M385.904 441.688v-7.97M401.844 441.688v-7.97M409.814 441.688v-7.97M425.755 441.688v-7.97M433.725 441.688v-7.97M441.695 441.688v-7.97M449.665 441.688v-7.97M457.635 441.688v-7.97M481.546 441.688v-7.97M505.457 441.688v-7.97M19.274 433.718h7.97M35.214 433.718h7.97M59.125 433.718h7.97M67.095 433.718h7.97M122.886 433.718h7.97M130.857 433.718h7.97M138.827 433.718h7.97M146.797 433.718h7.97M154.767 433.718h7.97M162.738 433.718h7.97M170.708 433.718h7.97M178.678 433.718h7.97M186.648 433.718h7.97M218.529 433.718h7.97M226.5 433.718h7.97M234.47 433.718h7.97M242.44 433.718h7.97M250.41 433.718h7.97M258.38 433.718h7.97M266.35 433.718h7.97M282.29 433.718h7.971M290.261 433.718h7.97M338.082 433.718h7.97M354.023 433.718h7.97M361.993 433.718h7.97M385.904 433.718h7.97M425.755 433.718h7.97M473.576 433.718h7.97M481.546 433.718h7.97M11.303 433.718v-7.97M27.244 433.718v-7.97M43.184 433.718v-7.97M51.154 433.718v-7.97M59.125 433.718v-7.97M75.065 433.718v-7.97M83.035 433.718v-7.97M91.006 433.718v-7.97M98.976 433.718v-7.97M106.946 433.718v-7.97M114.916 433.718v-7.97M146.797 433.718v-7.97M186.648 433.718v-7.97M202.589 433.718v-7.97M234.47 433.718v-7.97M250.41 433.718v-7.97M298.231 433.718v-7.97M306.201 433.718v-7.97M314.172 433.718v-7.97M322.142 433.718v-7.97M330.112 433.718v-7.97M346.052 433.718v-7.97M369.963 433.718v-7.97M377.933 433.718v-7.97M401.844 433.718v-7.97M409.814 433.718v-7.97M417.784 433.718v-7.97M425.755 433.718v-7.97M441.695 433.718v-7.97M465.606 433.718v-7.97M489.516 433.718v-7.97M497.487 433.718v-7.97M505.457 433.718v-7.97M11.303 425.747h7.97M27.244 425.747h7.97M43.184 425.747h7.97M122.886 425.747h7.97M130.857 425.747h7.97M154.767 425.747h7.97M162.738 425.747h7.97M170.708 425.747h7.97M194.618 425.747h7.97M202.589 425.747h7.97M210.559 425.747h7.97M218.529 425.747h7.97M258.38 425.747h7.97M266.35 425.747h7.97M274.32 425.747h7.97M282.29 425.747h7.971M306.201 425.747h7.97M330.112 425.747h7.97M346.052 425.747h7.97M377.933 425.747h7.97M385.904 425.747h7.97M393.874 425.747h7.97M401.844 425.747h7.97M441.695 425.747h7.97M449.665 425.747h7.97M457.635 425.747h7.97M465.606 425.747h7.97M473.576 425.747h7.97M489.516 425.747h7.97M19.274 425.747v-7.97M35.214 425.747v-7.97M59.125 425.747v-7.97M67.095 425.747v-7.97M75.065 425.747v-7.97M91.006 425.747v-7.97M106.946 425.747v-7.97M114.916 425.747v-7.97M122.886 425.747v-7.97M138.827 425.747v-7.97M146.797 425.747v-7.97M154.767 425.747v-7.97M170.708 425.747v-7.97M186.648 425.747v-7.97M226.5 425.747v-7.97M242.44 425.747v-7.97M258.38 425.747v-7.97M274.32 425.747v-7.97M290.261 425.747v-7.97M298.231 425.747v-7.97M322.142 425.747v-7.97M330.112 425.747v-7.97M346.052 425.747v-7.97M361.993 425.747v-7.97M369.963 425.747v-7.97M409.814 425.747v-7.97M417.784 425.747v-7.97M425.755 425.747v-7.97M433.725 425.747v-7.97M457.635 425.747v-7.97M473.576 425.747v-7.97M489.516 425.747v-7.97M505.457 425.747v-7.97M11.303 417.777h7.97M19.274 417.777h7.97M35.214 417.777h7.97M43.184 417.777h7.97M51.154 417.777h7.97M75.065 417.777h7.97M83.035 417.777h7.97M91.006 417.777h7.97M98.976 417.777h7.97M130.857 417.777h7.97M170.708 417.777h7.97M186.648 417.777h7.97M194.618 417.777h7.97M210.559 417.777h7.97M218.529 417.777h7.97M226.5 417.777h7.97M234.47 417.777h7.97M242.44 417.777h7.97M250.41 417.777h7.97M298.231 417.777h7.97M306.201 417.777h7.97M314.172 417.777h7.97M338.082 417.777h7.97M346.052 417.777h7.97M369.963 417.777h7.97M377.933 417.777h7.97M385.904 417.777h7.97M393.874 417.777h7.97M425.755 417.777h7.97M433.725 417.777h7.97M441.695 417.777h7.97M481.546 417.777h7.97M497.487 417.777h7.97M11.303 417.777v-7.97M35.214 417.777v-7.97M51.154 417.777v-7.97M67.095 417.777v-7.97M91.006 417.777v-7.97M114.916 417.777v-7.97M122.886 417.777v-7.97M146.797 417.777v-7.97M154.767 417.777v-7.97M162.738 417.777v-7.97M178.678 417.777v-7.97M210.559 417.777v-7.97M226.5 417.777v-7.97M258.38 417.777v-7.97M266.35 417.777v-7.97M274.32 417.777v-7.97M282.29 417.777v-7.97M290.261 417.777v-7.97M306.201 417.777v-7.97M322.142 417.777v-7.97M338.082 417.777v-7.97M354.023 417.777v-7.97M361.993 417.777v-7.97M377.933 417.777v-7.97M401.844 417.777v-7.97M409.814 417.777v-7.97M417.784 417.777v-7.97M433.725 417.777v-7.97M449.665 417.777v-7.97M457.635 417.777v-7.97M465.606 417.777v-7.97M473.576 417.777v-7.97M481.546 417.777v-7.97M497.487 417.777v-7.97M19.274 409.807h7.97M27.244 409.807h7.97M51.154 409.807h7.97M122.886 409.807h7.97M130.857 409.807h7.97M138.827 409.807h7.97M162.738 409.807h7.97M178.678 409.807h7.97M186.648 409.807h7.97M194.618 409.807h7.97M234.47 409.807h7.97M242.44 409.807h7.97M258.38 409.807h7.97M290.261 409.807h7.97M322.142 409.807h7.97M361.993 409.807h7.97M377.933 409.807h7.97M385.904 409.807h7.97M409.814 409.807h7.97M433.725 409.807h7.97M11.303 409.807v-7.97M19.274 409.807v-7.97M43.184 409.807v-7.97M67.095 409.807v-7.97M75.065 409.807v-7.97M83.035 409.807v-7.97M98.976 409.807v-7.97M106.946 409.807v-7.97M122.886 409.807v-7.97M146.797 409.807v-7.97M170.708 409.807v-7.97M186.648 409.807v-7.97M202.589 409.807v-7.97M210.559 409.807v-7.97M218.529 409.807v-7.97M234.47 409.807v-7.97M250.41 409.807v-7.97M258.38 409.807v-7.97M274.32 409.807v-7.97M282.29 409.807v-7.97M290.261 409.807v-7.97M306.201 409.807v-7.97M314.172 409.807v-7.97M330.112 409.807v-7.97M338.082 409.807v-7.97M346.052 409.807v-7.97M354.023 409.807v-7.97M361.993 409.807v-7.97M369.963 409.807v-7.97M377.933 409.807v-7.97M393.874 409.807v-7.97M409.814 409.807v-7.97M425.755 409.807v-7.97M449.665 409.807v-7.97M457.635 409.807v-7.97M465.606 409.807v-7.97M473.576 409.807v-7.97M481.546 409.807v-7.97M489.516 409.807v-7.97M497.487 409.807v-7.97M505.457 409.807v-7.97M27.244 401.837h7.97M35.214 401.837h7.97M43.184 401.837h7.97M51.154 401.837h7.97M59.125 401.837h7.97M83.035 401.837h7.97M106.946 401.837h7.97M114.916 401.837h7.97M122.886 401.837h7.97M130.857 401.837h7.97M146.797 401.837h7.97M154.767 401.837h7.97M162.738 401.837h7.97M170.708 401.837h7.97M210.559 401.837h7.97M266.35 401.837h7.97M306.201 401.837h7.97M314.172 401.837h7.97M393.874 401.837h7.97M417.784 401.837h7.97M433.725 401.837h7.97M441.695 401.837h7.97M457.635 401.837h7.97M497.487 401.837h7.97M11.303 401.837v-7.97M27.244 401.837v-7.97M51.154 401.837v-7.97M59.125 401.837v-7.97M75.065 401.837v-7.97M83.035 401.837v-7.97M91.006 401.837v-7.97M98.976 401.837v-7.97M122.886 401.837v-7.97M162.738 401.837v-7.97M178.678 401.837v-7.97M186.648 401.837v-7.97M194.618 401.837v-7.97M202.589 401.837v-7.97M226.5 401.837v-7.97M234.47 401.837v-7.97M242.44 401.837v-7.97M250.41 401.837v-7.97M258.38 401.837v-7.97M274.32 401.837v-7.97M282.29 401.837v-7.97M298.231 401.837v-7.97M314.172 401.837v-7.97M322.142 401.837v-7.97M338.082 401.837v-7.97M346.052 401.837v-7.97M354.023 401.837v-7.97M361.993 401.837v-7.97M369.963 401.837v-7.97M377.933 401.837v-7.97M385.904 401.837v-7.97M401.844 401.837v-7.97M409.814 401.837v-7.97M417.784 401.837v-7.97M425.755 401.837v-7.97M433.725 401.837v-7.97M457.635 401.837v-7.97M473.576 401.837v-7.97M481.546 401.837v-7.97M489.516 401.837v-7.97M11.303 393.867h7.97M19.274 393.867h7.97M27.244 393.867h7.97M67.095 393.867h7.97M98.976 393.867h7.97M106.946 393.867h7.97M130.857 393.867h7.97M138.827 393.867h7.97M202.589 393.867h7.97M210.559 393.867h7.97M218.529 393.867h7.97M226.5 393.867h7.97M274.32 393.867h7.97M282.29 393.867h7.971M290.261 393.867h7.97M298.231 393.867h7.97M322.142 393.867h7.97M338.082 393.867h7.97M385.904 393.867h7.97M441.695 393.867h7.97M489.516 393.867h7.97M505.457 393.867h7.97M35.214 393.867v-7.97M43.184 393.867v-7.97M51.154 393.867v-7.97M67.095 393.867v-7.97M75.065 393.867v-7.97M83.035 393.867v-7.97M91.006 393.867v-7.97M106.946 393.867v-7.97M114.916 393.867v-7.97M138.827 393.867v-7.97M146.797 393.867v-7.97M154.767 393.867v-7.97M170.708 393.867v-7.97M178.678 393.867v-7.97M194.618 393.867v-7.97M202.589 393.867v-7.97M218.529 393.867v-7.97M242.44 393.867v-7.97M250.41 393.867v-7.97M258.38 393.867v-7.97M266.35 393.867v-7.97M274.32 393.867v-7.97M314.172 393.867v-7.97M338.082 393.867v-7.97M354.023 393.867v-7.97M361.993 393.867v-7.97M369.963 393.867v-7.97M377.933 393.867v-7.97M385.904 393.867v-7.97M393.874 393.867v-7.97M401.844 393.867v-7.97M409.814 393.867v-7.97M417.784 393.867v-7.97M425.755 393.867v-7.97M433.725 393.867v-7.97M441.695 393.867v-7.97M449.665 393.867v-7.97M457.635 393.867v-7.97M465.606 393.867v-7.97M473.576 393.867v-7.97M481.546 393.867v-7.97M497.487 393.867v-7.97M505.457 393.867v-7.97M11.303 385.896h7.97M19.274 385.896h7.97M51.154 385.896h7.97M59.125 385.896h7.97M122.886 385.896h7.97M162.738 385.896h7.97M170.708 385.896h7.97M178.678 385.896h7.97M194.618 385.896h7.97M210.559 385.896h7.97M226.5 385.896h7.97M258.38 385.896h7.97M282.29 385.896h7.971M298.231 385.896h7.97M306.201 385.896h7.97M322.142 385.896h7.97M330.112 385.896h7.97M346.052 385.896h7.97M457.635 385.896h7.97M481.546 385.896h7.97M27.244 385.896v-7.97M43.184 385.896v-7.97M67.095 385.896v-7.97M83.035 385.896v-7.97M98.976 385.896v-7.97M106.946 385.896v-7.97M114.916 385.896v-7.97M122.886 385.896v-7.97M130.857 385.896v-7.97M138.827 385.896v-7.97M146.797 385.896v-7.97M154.767 385.896v-7.97M162.738 385.896v-7.97M170.708 385.896v-7.97M186.648 385.896v-7.97M202.589 385.896v-7.97M210.559 385.896v-7.97M226.5 385.896v-7.97M242.44 385.896v-7.97M258.38 385.896v-7.97M274.32 385.896v-7.97M290.261 385.896v-7.97M298.231 385.896v-7.97M314.172 385.896v-7.97M322.142 385.896v-7.97M338.082 385.896v-7.97M354.023 385.896v-7.97M361.993 385.896v-7.97M369.963 385.896v-7.97M393.874 385.896v-7.97M401.844 385.896v-7.97M417.784 385.896v-7.97M425.755 385.896v-7.97M433.725 385.896v-7.97M441.695 385.896v-7.97M449.665 385.896v-7.97M457.635 385.896v-7.97M473.576 385.896v-7.97M481.546 385.896v-7.97M489.516 385.896v-7.97M497.487 385.896v-7.97M505.457 385.896v-7.97M3.333 377.926h7.97M11.303 377.926h7.97M19.274 377.926h7.97M27.244 377.926h7.97M35.214 377.926h7.97M43.184 377.926h7.97M51.154 377.926h7.97M67.095 377.926h7.97M75.065 377.926h7.97M83.035 377.926h7.97M91.006 377.926h7.97M186.648 377.926h7.97M210.559 377.926h7.97M218.529 377.926h7.97M226.5 377.926h7.97M242.44 377.926h7.97M250.41 377.926h7.97M338.082 377.926h7.97M369.963 377.926h7.97M377.933 377.926h7.97M385.904 377.926h7.97M401.844 377.926h7.97M409.814 377.926h7.97M465.606 377.926h7.97M27.244 377.926v-7.97M51.154 377.926v-7.97M67.095 377.926v-7.97M106.946 377.926v-7.97M114.916 377.926v-7.97M122.886 377.926v-7.97M130.857 377.926v-7.97M138.827 377.926v-7.97M146.797 377.926v-7.97M154.767 377.926v-7.97M162.738 377.926v-7.97M170.708 377.926v-7.97M178.678 377.926v-7.97M194.618 377.926v-7.97M210.559 377.926v-7.97M234.47 377.926v-7.97M242.44 377.926v-7.97M258.38 377.926v-7.97M266.35 377.926v-7.97M274.32 377.926v-7.97M282.29 377.926v-7.97M290.261 377.926v-7.97M298.231 377.926v-7.97M306.201 377.926v-7.97M314.172 377.926v-7.97M322.142 377.926v-7.97M330.112 377.926v-7.97M354.023 377.926v-7.97M369.963 377.926v-7.97M377.933 377.926v-7.97M393.874 377.926v-7.97M409.814 377.926v-7.97M417.784 377.926v-7.97M425.755 377.926v-7.97M441.695 377.926v-7.97M449.665 377.926v-7.97M457.635 377.926v-7.97M473.576 377.926v-7.97M489.516 377.926v-7.97M497.487 377.926v-7.97M505.457 377.926v-7.97M11.303 369.956h7.97M35.214 369.956h7.97M59.125 369.956h7.97M75.065 369.956h7.97M83.035 369.956h7.97M91.006 369.956h7.97M98.976 369.956h7.97M178.678 369.956h7.97M194.618 369.956h7.97M218.529 369.956h7.97M266.35 369.956h7.97M330.112 369.956h7.97M338.082 369.956h7.97M346.052 369.956h7.97M354.023 369.956h7.97M361.993 369.956h7.97M393.874 369.956h7.97M433.725 369.956h7.97M457.635 369.956h7.97M481.546 369.956h7.97M11.303 369.956v-7.97M27.244 369.956v-7.97M43.184 369.956v-7.97M51.154 369.956v-7.97M67.095 369.956v-7.97M83.035 369.956v-7.97M114.916 369.956v-7.97M122.886 369.956v-7.97M138.827 369.956v-7.97M154.767 369.956v-7.97M162.738 369.956v-7.97M170.708 369.956v-7.97M178.678 369.956v-7.97M186.648 369.956v-7.97M210.559 369.956v-7.97M226.5 369.956v-7.97M242.44 369.956v-7.97M250.41 369.956v-7.97M258.38 369.956v-7.97M282.29 369.956v-7.97M290.261 369.956v-7.97M298.231 369.956v-7.97M306.201 369.956v-7.97M314.172 369.956v-7.97M322.142 369.956v-7.97M338.082 369.956v-7.97M369.963 369.956v-7.97M385.904 369.956v-7.97M409.814 369.956v-7.97M425.755 369.956v-7.97M433.725 369.956v-7.97M449.665 369.956v-7.97M457.635 369.956v-7.97M473.576 369.956v-7.97M481.546 369.956v-7.97M497.487 369.956v-7.97M505.457 369.956v-7.97M19.274 361.986h7.97M27.244 361.986h7.97M51.154 361.986h7.97M91.006 361.986h7.97M98.976 361.986h7.97M106.946 361.986h7.97M122.886 361.986h7.97M130.857 361.986h7.97M138.827 361.986h7.97M146.797 361.986h7.97M186.648 361.986h7.97M202.589 361.986h7.97M234.47 361.986h7.97M258.38 361.986h7.97M266.35 361.986h7.97M274.32 361.986h7.97M298.231 361.986h7.97M322.142 361.986h7.97M346.052 361.986h7.97M354.023 361.986h7.97M369.963 361.986h7.97M393.874 361.986h7.97M401.844 361.986h7.97M441.695 361.986h7.97M465.606 361.986h7.97M489.516 361.986h7.97M11.303 361.986v-7.97M27.244 361.986v-7.97M43.184 361.986v-7.97M67.095 361.986v-7.97M75.065 361.986v-7.97M83.035 361.986v-7.97M91.006 361.986v-7.97M114.916 361.986v-7.97M146.797 361.986v-7.97M170.708 361.986v-7.97M178.678 361.986v-7.97M194.618 361.986v-7.97M202.589 361.986v-7.97M218.529 361.986v-7.97M226.5 361.986v-7.97M250.41 361.986v-7.97M258.38 361.986v-7.97M274.32 361.986v-7.97M290.261 361.986v-7.97M298.231 361.986v-7.97M314.172 361.986v-7.97M330.112 361.986v-7.97M361.993 361.986v-7.97M369.963 361.986v-7.97M377.933 361.986v-7.97M385.904 361.986v-7.97M393.874 361.986v-7.97M409.814 361.986v-7.97M417.784 361.986v-7.97M433.725 361.986v-7.97M457.635 361.986v-7.97M465.606 361.986v-7.97M481.546 361.986v-7.97M497.487 361.986v-7.97M505.457 361.986v-7.97M11.303 354.015h7.97M35.214 354.015h7.97M59.125 354.015h7.97M67.095 354.015h7.97M98.976 354.015h7.97M122.886 354.015h7.97M130.857 354.015h7.97M154.767 354.015h7.97M162.738 354.015h7.97M178.678 354.015h7.97M210.559 354.015h7.97M226.5 354.015h7.97M234.47 354.015h7.97M242.44 354.015h7.97M274.32 354.015h7.97M282.29 354.015h7.971M306.201 354.015h7.97M330.112 354.015h7.97M338.082 354.015h7.97M346.052 354.015h7.97M354.023 354.015h7.97M409.814 354.015h7.97M417.784 354.015h7.97M425.755 354.015h7.97M433.725 354.015h7.97M441.695 354.015h7.97M449.665 354.015h7.97M465.606 354.015h7.97M481.546 354.015h7.97M19.274 354.015v-7.97M27.244 354.015v-7.97M43.184 354.015v-7.97M51.154 354.015v-7.97M59.125 354.015v-7.97M83.035 354.015v-7.97M98.976 354.015v-7.97M106.946 354.015v-7.97M114.916 354.015v-7.97M122.886 354.015v-7.97M138.827 354.015v-7.97M146.797 354.015v-7.97M154.767 354.015v-7.97M170.708 354.015v-7.97M194.618 354.015v-7.97M202.589 354.015v-7.97M210.559 354.015v-7.97M226.5 354.015v-7.97M250.41 354.015v-7.97M258.38 354.015v-7.97M266.35 354.015v-7.97M274.32 354.015v-7.97M290.261 354.015v-7.97M298.231 354.015v-7.97M306.201 354.015v-7.97M322.142 354.015v-7.97M346.052 354.015v-7.97M361.993 354.015v-7.97M369.963 354.015v-7.97M377.933 354.015v-7.97M385.904 354.015v-7.97M393.874 354.015v-7.97M401.844 354.015v-7.97M409.814 354.015v-7.97M457.635 354.015v-7.97M473.576 354.015v-7.97M481.546 354.015v-7.97M497.487 354.015v-7.97M505.457 354.015v-7.97M3.333 346.045h7.97M27.244 346.045h7.97M67.095 346.045h7.97M75.065 346.045h7.97M83.035 346.045h7.97M138.827 346.045h7.97M170.708 346.045h7.97M178.678 346.045h7.97M186.648 346.045h7.97M218.529 346.045h7.97M234.47 346.045h7.97M306.201 346.045h7.97M322.142 346.045h7.97M330.112 346.045h7.97M393.874 346.045h7.97M417.784 346.045h7.97M425.755 346.045h7.97M433.725 346.045h7.97M441.695 346.045h7.97M489.516 346.045h7.97M11.303 346.045v-7.97M19.274 346.045v-7.97M27.244 346.045v-7.97M35.214 346.045v-7.97M43.184 346.045v-7.97M51.154 346.045v-7.97M67.095 346.045v-7.97M83.035 346.045v-7.97M98.976 346.045v-7.97M106.946 346.045v-7.97M114.916 346.045v-7.97M122.886 346.045v-7.97M130.857 346.045v-7.97M154.767 346.045v-7.97M162.738 346.045v-7.97M178.678 346.045v-7.97M194.618 346.045v-7.97M202.589 346.045v-7.97M210.559 346.045v-7.97M218.529 346.045v-7.97M242.44 346.045v-7.97M250.41 346.045v-7.97M258.38 346.045v-7.97M266.35 346.045v-7.97M274.32 346.045v-7.97M282.29 346.045v-7.97M298.231 346.045v-7.97M314.172 346.045v-7.97M322.142 346.045v-7.97M338.082 346.045v-7.97M346.052 346.045v-7.97M354.023 346.045v-7.97M361.993 346.045v-7.97M377.933 346.045v-7.97M385.904 346.045v-7.97M409.814 346.045v-7.97M417.784 346.045v-7.97M433.725 346.045v-7.97M449.665 346.045v-7.97M457.635 346.045v-7.97M465.606 346.045v-7.97M473.576 346.045v-7.97M481.546 346.045v-7.97M497.487 346.045v-7.97M51.154 338.075h7.97M59.125 338.075h7.97M83.035 338.075h7.97M130.857 338.075h7.97M138.827 338.075h7.97M146.797 338.075h7.97M226.5 338.075h7.97M234.47 338.075h7.97M369.963 338.075h7.97M385.904 338.075h7.97M393.874 338.075h7.97M433.725 338.075h7.97M457.635 338.075h7.97M481.546 338.075h7.97M497.487 338.075h7.97M505.457 338.075h7.97M19.274 338.075v-7.97M27.244 338.075v-7.97M43.184 338.075v-7.97M67.095 338.075v-7.97M75.065 338.075v-7.97M91.006 338.075v-7.97M106.946 338.075v-7.97M114.916 338.075v-7.97M122.886 338.075v-7.97M130.857 338.075v-7.97M138.827 338.075v-7.97M154.767 338.075v-7.97M162.738 338.075v-7.97M170.708 338.075v-7.97M186.648 338.075v-7.97M194.618 338.075v-7.97M202.589 338.075v-7.97M210.559 338.075v-7.97M226.5 338.075v-7.97M242.44 338.075v-7.97M250.41 338.075v-7.97M258.38 338.075v-7.97M266.35 338.075v-7.97M282.29 338.075v-7.97M290.261 338.075v-7.97M298.231 338.075v-7.97M306.201 338.075v-7.97M314.172 338.075v-7.97M330.112 338.075v-7.97M338.082 338.075v-7.97M346.052 338.075v-7.97M354.023 338.075v-7.97M361.993 338.075v-7.97M385.904 338.075v-7.97M393.874 338.075v-7.97M409.814 338.075v-7.97M425.755 338.075v-7.97M449.665 338.075v-7.97M457.635 338.075v-7.97M473.576 338.075v-7.97M489.516 338.075v-7.97M497.487 338.075v-7.97M11.303 330.105h7.97M35.214 330.105h7.97M43.184 330.105h7.97M51.154 330.105h7.97M75.065 330.105h7.97M91.006 330.105h7.97M98.976 330.105h7.97M170.708 330.105h7.97M186.648 330.105h7.97M218.529 330.105h7.97M226.5 330.105h7.97M266.35 330.105h7.97M274.32 330.105h7.97M314.172 330.105h7.97M322.142 330.105h7.97M330.112 330.105h7.97M346.052 330.105h7.97M361.993 330.105h7.97M369.963 330.105h7.97M377.933 330.105h7.97M409.814 330.105h7.97M417.784 330.105h7.97M425.755 330.105h7.97M433.725 330.105h7.97M441.695 330.105h7.97M465.606 330.105h7.97M11.303 330.105v-7.97M19.274 330.105v-7.97M27.244 330.105v-7.97M43.184 330.105v-7.97M59.125 330.105v-7.97M67.095 330.105v-7.97M83.035 330.105v-7.97M106.946 330.105v-7.97M114.916 330.105v-7.97M122.886 330.105v-7.97M130.857 330.105v-7.97M138.827 330.105v-7.97M146.797 330.105v-7.97M154.767 330.105v-7.97M162.738 330.105v-7.97M170.708 330.105v-7.97M178.678 330.105v-7.97M202.589 330.105v-7.97M210.559 330.105v-7.97M218.529 330.105v-7.97M250.41 330.105v-7.97M258.38 330.105v-7.97M282.29 330.105v-7.97M290.261 330.105v-7.97M298.231 330.105v-7.97M306.201 330.105v-7.97M314.172 330.105v-7.97M338.082 330.105v-7.97M354.023 330.105v-7.97M369.963 330.105v-7.97M385.904 330.105v-7.97M393.874 330.105v-7.97M401.844 330.105v-7.97M417.784 330.105v-7.97M457.635 330.105v-7.97M473.576 330.105v-7.97M481.546 330.105v-7.97M497.487 330.105v-7.97M505.457 330.105v-7.97M67.095 322.135h7.97M91.006 322.135h7.97M178.678 322.135h7.97M186.648 322.135h7.97M194.618 322.135h7.97M226.5 322.135h7.97M234.47 322.135h7.97M242.44 322.135h7.97M258.38 322.135h7.97M266.35 322.135h7.97M322.142 322.135h7.97M338.082 322.135h7.97M354.023 322.135h7.97M401.844 322.135h7.97M433.725 322.135h7.97M441.695 322.135h7.97M449.665 322.135h7.97M457.635 322.135h7.97M481.546 322.135h7.97M489.516 322.135h7.97M19.274 322.135v-7.97M27.244 322.135v-7.97M35.214 322.135v-7.97M43.184 322.135v-7.97M51.154 322.135v-7.97M59.125 322.135v-7.97M75.065 322.135v-7.97M83.035 322.135v-7.97M91.006 322.135v-7.97M98.976 322.135v-7.97M106.946 322.135v-7.97M114.916 322.135v-7.97M122.886 322.135v-7.97M130.857 322.135v-7.97M138.827 322.135v-7.97M146.797 322.135v-7.97M162.738 322.135v-7.97M170.708 322.135v-7.97M202.589 322.135v-7.97M210.559 322.135v-7.97M218.529 322.135v-7.97M226.5 322.135v-7.97M250.41 322.135v-7.97M282.29 322.135v-7.97M290.261 322.135v-7.97M298.231 322.135v-7.97M306.201 322.135v-7.97M314.172 322.135v-7.97M330.112 322.135v-7.97M346.052 322.135v-7.97M361.993 322.135v-7.97M369.963 322.135v-7.97M377.933 322.135v-7.97M393.874 322.135v-7.97M409.814 322.135v-7.97M425.755 322.135v-7.97M457.635 322.135v-7.97M473.576 322.135v-7.97M481.546 322.135v-7.97M497.487 322.135v-7.97M505.457 322.135v-7.97M3.333 314.164h7.97M59.125 314.164h7.97M146.797 314.164h7.97M154.767 314.164h7.97M170.708 314.164h7.97M178.678 314.164h7.97M250.41 314.164h7.97M258.38 314.164h7.97M266.35 314.164h7.97M274.32 314.164h7.97M338.082 314.164h7.97M346.052 314.164h7.97M377.933 314.164h7.97M393.874 314.164h7.97M409.814 314.164h7.97M417.784 314.164h7.97M433.725 314.164h7.97M441.695 314.164h7.97M465.606 314.164h7.97M19.274 314.164v-7.97M27.244 314.164v-7.97M35.214 314.164v-7.97M51.154 314.164v-7.97M67.095 314.164v-7.97M75.065 314.164v-7.97M83.035 314.164v-7.97M91.006 314.164v-7.97M98.976 314.164v-7.97M106.946 314.164v-7.97M114.916 314.164v-7.97M122.886 314.164v-7.97M130.857 314.164v-7.97M138.827 314.164v-7.97M146.797 314.164v-7.97M170.708 314.164v-7.97M194.618 314.164v-7.97M202.589 314.164v-7.97M210.559 314.164v-7.97M218.529 314.164v-7.97M226.5 314.164v-7.97M234.47 314.164v-7.97M242.44 314.164v-7.97M258.38 314.164v-7.97M282.29 314.164v-7.97M290.261 314.164v-7.97M306.201 314.164v-7.97M314.172 314.164v-7.97M322.142 314.164v-7.97M330.112 314.164v-7.97M338.082 314.164v-7.97M361.993 314.164v-7.97M385.904 314.164v-7.97M401.844 314.164v-7.97M409.814 314.164v-7.97M425.755 314.164v-7.97M449.665 314.164v-7.97M457.635 314.164v-7.97M473.576 314.164v-7.97M481.546 314.164v-7.97M489.516 314.164v-7.97M505.457 314.164v-7.97M11.303 306.194h7.97M27.244 306.194h7.97M35.214 306.194h7.97M43.184 306.194h7.97M51.154 306.194h7.97M75.065 306.194h7.97M146.797 306.194h7.97M178.678 306.194h7.97M186.648 306.194h7.97M242.44 306.194h7.97M258.38 306.194h7.97M266.35 306.194h7.97M290.261 306.194h7.97M298.231 306.194h7.97M346.052 306.194h7.97M361.993 306.194h7.97M369.963 306.194h7.97M377.933 306.194h7.97M385.904 306.194h7.97M425.755 306.194h7.97M433.725 306.194h7.97M481.546 306.194h7.97M489.516 306.194h7.97M497.487 306.194h7.97M11.303 306.194v-7.97M19.274 306.194v-7.97M27.244 306.194v-7.97M43.184 306.194v-7.97M59.125 306.194v-7.97M67.095 306.194v-7.97M91.006 306.194v-7.97M98.976 306.194v-7.97M106.946 306.194v-7.97M114.916 306.194v-7.97M122.886 306.194v-7.97M130.857 306.194v-7.97M138.827 306.194v-7.97M146.797 306.194v-7.97M162.738 306.194v-7.97M170.708 306.194v-7.97M178.678 306.194v-7.97M194.618 306.194v-7.97M202.589 306.194v-7.97M210.559 306.194v-7.97M218.529 306.194v-7.97M234.47 306.194v-7.97M250.41 306.194v-7.97M258.38 306.194v-7.97M274.32 306.194v-7.97M282.29 306.194v-7.97M298.231 306.194v-7.97M314.172 306.194v-7.97M322.142 306.194v-7.97M330.112 306.194v-7.97M338.082 306.194v-7.97M346.052 306.194v-7.97M361.993 306.194v-7.97M385.904 306.194v-7.97M393.874 306.194v-7.97M401.844 306.194v-7.97M409.814 306.194v-7.97M417.784 306.194v-7.97M433.725 306.194v-7.97M449.665 306.194v-7.97M457.635 306.194v-7.97M465.606 306.194v-7.97M473.576 306.194v-7.97M67.095 298.224h7.97M75.065 298.224h7.97M83.035 298.224h7.97M154.767 298.224h7.97M194.618 298.224h7.97M218.529 298.224h7.97M226.5 298.224h7.97M234.47 298.224h7.97M306.201 298.224h7.97M346.052 298.224h7.97M354.023 298.224h7.97M369.963 298.224h7.97M401.844 298.224h7.97M417.784 298.224h7.97M433.725 298.224h7.97M473.576 298.224h7.97M481.546 298.224h7.97M489.516 298.224h7.97M497.487 298.224h7.97M505.457 298.224h7.97M19.274 298.224v-7.97M27.244 298.224v-7.97M35.214 298.224v-7.97M51.154 298.224v-7.97M59.125 298.224v-7.97M75.065 298.224v-7.97M83.035 298.224v-7.97M98.976 298.224v-7.97M106.946 298.224v-7.97M122.886 298.224v-7.97M130.857 298.224v-7.97M138.827 298.224v-7.97M146.797 298.224v-7.97M154.767 298.224v-7.97M170.708 298.224v-7.97M178.678 298.224v-7.97M186.648 298.224v-7.97M202.589 298.224v-7.97M210.559 298.224v-7.97M218.529 298.224v-7.97M242.44 298.224v-7.97M250.41 298.224v-7.97M258.38 298.224v-7.97M266.35 298.224v-7.97M274.32 298.224v-7.97M282.29 298.224v-7.97M290.261 298.224v-7.97M298.231 298.224v-7.97M306.201 298.224v-7.97M322.142 298.224v-7.97M330.112 298.224v-7.97M338.082 298.224v-7.97M354.023 298.224v-7.97M361.993 298.224v-7.97M377.933 298.224v-7.97M393.874 298.224v-7.97M409.814 298.224v-7.97M425.755 298.224v-7.97M441.695 298.224v-7.97M449.665 298.224v-7.97M457.635 298.224v-7.97M465.606 298.224v-7.97M473.576 298.224v-7.97M505.457 298.224v-7.97M3.333 290.254h7.97M59.125 290.254h7.97M106.946 290.254h7.97M114.916 290.254h7.97M154.767 290.254h7.97M178.678 290.254h7.97M186.648 290.254h7.97M226.5 290.254h7.97M314.172 290.254h7.97M338.082 290.254h7.97M361.993 290.254h7.97M385.904 290.254h7.97M393.874 290.254h7.97M409.814 290.254h7.97M425.755 290.254h7.97M481.546 290.254h7.97M489.516 290.254h7.97M19.274 290.254v-7.97M35.214 290.254v-7.97M43.184 290.254v-7.97M51.154 290.254v-7.97M59.125 290.254v-7.97M67.095 290.254v-7.97M75.065 290.254v-7.97M83.035 290.254v-7.97M91.006 290.254v-7.97M106.946 290.254v-7.97M122.886 290.254v-7.97M138.827 290.254v-7.97M146.797 290.254v-7.97M154.767 290.254v-7.97M170.708 290.254v-7.97M194.618 290.254v-7.97M202.589 290.254v-7.97M210.559 290.254v-7.97M218.529 290.254v-7.97M234.47 290.254v-7.97M242.44 290.254v-7.97M250.41 290.254v-7.97M266.35 290.254v-7.97M274.32 290.254v-7.97M282.29 290.254v-7.97M290.261 290.254v-7.97M298.231 290.254v-7.97M306.201 290.254v-7.97M314.172 290.254v-7.97M330.112 290.254v-7.97M338.082 290.254v-7.97M346.052 290.254v-7.97M354.023 290.254v-7.97M369.963 290.254v-7.97M377.933 290.254v-7.97M401.844 290.254v-7.97M417.784 290.254v-7.97M433.725 290.254v-7.97M449.665 290.254v-7.97M465.606 290.254v-7.97M473.576 290.254v-7.97M481.546 290.254v-7.97M497.487 290.254v-7.97M505.457 290.254v-7.97M11.303 282.284h7.97M19.274 282.284h7.97M27.244 282.284h7.97M43.184 282.284h7.97M91.006 282.284h7.97M98.976 282.284h7.97M130.857 282.284h7.97M162.738 282.284h7.97M170.708 282.284h7.97M178.678 282.284h7.97M218.529 282.284h7.97M258.38 282.284h7.97M314.172 282.284h7.97M322.142 282.284h7.97M354.023 282.284h7.97M385.904 282.284h7.97M401.844 282.284h7.97M417.784 282.284h7.97M425.755 282.284h7.97M441.695 282.284h7.97M449.665 282.284h7.97M457.635 282.284h7.97M481.546 282.284h7.97M27.244 282.284v-7.97M43.184 282.284v-7.97M67.095 282.284v-7.97M75.065 282.284v-7.97M91.006 282.284v-7.97M106.946 282.284v-7.97M114.916 282.284v-7.97M122.886 282.284v-7.97M130.857 282.284v-7.97M146.797 282.284v-7.97M154.767 282.284v-7.97M162.738 282.284v-7.97M178.678 282.284v-7.97M186.648 282.284v-7.97M202.589 282.284v-7.97M210.559 282.284v-7.97M218.529 282.284v-7.97M234.47 282.284v-7.97M242.44 282.284v-7.97M250.41 282.284v-7.97M258.38 282.284v-7.97M266.35 282.284v-7.97M274.32 282.284v-7.97M290.261 282.284v-7.97M298.231 282.284v-7.97M306.201 282.284v-7.97M330.112 282.284v-7.97M338.082 282.284v-7.97M361.993 282.284v-7.97M377.933 282.284v-7.97M385.904 282.284v-7.97M409.814 282.284v-7.97M433.725 282.284v-7.97M441.695 282.284v-7.97M457.635 282.284v-7.97M473.576 282.284v-7.97M481.546 282.284v-7.97M497.487 282.284v-7.97M505.457 282.284v-7.97M3.333 274.313h7.97M11.303 274.313h7.97M51.154 274.313h7.97M59.125 274.313h7.97M75.065 274.313h7.97M98.976 274.313h7.97M162.738 274.313h7.97M186.648 274.313h7.97M226.5 274.313h7.97M274.32 274.313h7.97M282.29 274.313h7.971M306.201 274.313h7.97M314.172 274.313h7.97M346.052 274.313h7.97M385.904 274.313h7.97M393.874 274.313h7.97M401.844 274.313h7.97M409.814 274.313h7.97M417.784 274.313h7.97M465.606 274.313h7.97M489.516 274.313h7.97M27.244 274.313v-7.97M35.214 274.313v-7.97M43.184 274.313v-7.97M51.154 274.313v-7.97M75.065 274.313v-7.97M91.006 274.313v-7.97M114.916 274.313v-7.97M130.857 274.313v-7.97M138.827 274.313v-7.97M146.797 274.313v-7.97M154.767 274.313v-7.97M170.708 274.313v-7.97M186.648 274.313v-7.97M194.618 274.313v-7.97M210.559 274.313v-7.97M218.529 274.313v-7.97M234.47 274.313v-7.97M242.44 274.313v-7.97M250.41 274.313v-7.97M258.38 274.313v-7.97M290.261 274.313v-7.97M298.231 274.313v-7.97M306.201 274.313v-7.97M330.112 274.313v-7.97M338.082 274.313v-7.97M354.023 274.313v-7.97M361.993 274.313v-7.97M369.963 274.313v-7.97M377.933 274.313v-7.97M385.904 274.313v-7.97M433.725 274.313v-7.97M449.665 274.313v-7.97M457.635 274.313v-7.97M465.606 274.313v-7.97M489.516 274.313v-7.97M505.457 274.313v-7.97M11.303 266.343h7.97M19.274 266.343h7.97M59.125 266.343h7.97M67.095 266.343h7.97M83.035 266.343h7.97M91.006 266.343h7.97M98.976 266.343h7.97M114.916 266.343h7.97M122.886 266.343h7.97M170.708 266.343h7.97M202.589 266.343h7.97M218.529 266.343h7.97M258.38 266.343h7.97M266.35 266.343h7.97M274.32 266.343h7.97M282.29 266.343h7.971M306.201 266.343h7.97M314.172 266.343h7.97M361.993 266.343h7.97M393.874 266.343h7.97M417.784 266.343h7.97M433.725 266.343h7.97M441.695 266.343h7.97M473.576 266.343h7.97M481.546 266.343h7.97M11.303 266.343v-7.97M27.244 266.343v-7.97M35.214 266.343v-7.97M43.184 266.343v-7.97M51.154 266.343v-7.97M59.125 266.343v-7.97M75.065 266.343v-7.97M83.035 266.343v-7.97M98.976 266.343v-7.97M114.916 266.343v-7.97M130.857 266.343v-7.97M138.827 266.343v-7.97M146.797 266.343v-7.97M154.767 266.343v-7.97M162.738 266.343v-7.97M178.678 266.343v-7.97M186.648 266.343v-7.97M194.618 266.343v-7.97M202.589 266.343v-7.97M218.529 266.343v-7.97M234.47 266.343v-7.97M242.44 266.343v-7.97M250.41 266.343v-7.97M258.38 266.343v-7.97M266.35 266.343v-7.97M298.231 266.343v-7.97M314.172 266.343v-7.97M330.112 266.343v-7.97M338.082 266.343v-7.97M346.052 266.343v-7.97M354.023 266.343v-7.97M377.933 266.343v-7.97M385.904 266.343v-7.97M393.874 266.343v-7.97M401.844 266.343v-7.97M409.814 266.343v-7.97M417.784 266.343v-7.97M425.755 266.343v-7.97M433.725 266.343v-7.97M457.635 266.343v-7.97M465.606 266.343v-7.97M473.576 266.343v-7.97M497.487 266.343v-7.97M505.457 266.343v-7.97M19.274 258.373h7.97M106.946 258.373h7.97M210.559 258.373h7.97M226.5 258.373h7.97M274.32 258.373h7.97M282.29 258.373h7.971M290.261 258.373h7.97M322.142 258.373h7.97M354.023 258.373h7.97M361.993 258.373h7.97M369.963 258.373h7.97M441.695 258.373h7.97M449.665 258.373h7.97M481.546 258.373h7.97M489.516 258.373h7.97M11.303 258.373v-7.97M27.244 258.373v-7.97M35.214 258.373v-7.97M43.184 258.373v-7.97M51.154 258.373v-7.97M59.125 258.373v-7.97M67.095 258.373v-7.97M75.065 258.373v-7.97M91.006 258.373v-7.97M98.976 258.373v-7.97M106.946 258.373v-7.97M122.886 258.373v-7.97M130.857 258.373v-7.97M138.827 258.373v-7.97M146.797 258.373v-7.97M154.767 258.373v-7.97M162.738 258.373v-7.97M170.708 258.373v-7.97M178.678 258.373v-7.97M186.648 258.373v-7.97M202.589 258.373v-7.97M218.529 258.373v-7.97M234.47 258.373v-7.97M242.44 258.373v-7.97M250.41 258.373v-7.97M258.38 258.373v-7.97M274.32 258.373v-7.97M298.231 258.373v-7.97M306.201 258.373v-7.97M314.172 258.373v-7.97M322.142 258.373v-7.97M338.082 258.373v-7.97M346.052 258.373v-7.97M369.963 258.373v-7.97M385.904 258.373v-7.97M393.874 258.373v-7.97M401.844 258.373v-7.97M409.814 258.373v-7.97M417.784 258.373v-7.97M425.755 258.373v-7.97M433.725 258.373v-7.97M441.695 258.373v-7.97M457.635 258.373v-7.97M465.606 258.373v-7.97M473.576 258.373v-7.97M481.546 258.373v-7.97M497.487 258.373v-7.97M505.457 258.373v-7.97M11.303 250.403h7.97M59.125 250.403h7.97M75.065 250.403h7.97M83.035 250.403h7.97M114.916 250.403h7.97M186.648 250.403h7.97M194.618 250.403h7.97M202.589 250.403h7.97M218.529 250.403h7.97M266.35 250.403h7.97M282.29 250.403h7.971M290.261 250.403h7.97M322.142 250.403h7.97M330.112 250.403h7.97M338.082 250.403h7.97M346.052 250.403h7.97M361.993 250.403h7.97M377.933 250.403h7.97M449.665 250.403h7.97M481.546 250.403h7.97M11.303 250.403v-7.97M19.274 250.403v-7.97M35.214 250.403v-7.97M43.184 250.403v-7.97M51.154 250.403v-7.97M67.095 250.403v-7.97M83.035 250.403v-7.97M98.976 250.403v-7.97M106.946 250.403v-7.97M122.886 250.403v-7.97M130.857 250.403v-7.97M138.827 250.403v-7.97M146.797 250.403v-7.97M154.767 250.403v-7.97M162.738 250.403v-7.97M170.708 250.403v-7.97M194.618 250.403v-7.97M210.559 250.403v-7.97M218.529 250.403v-7.97M234.47 250.403v-7.97M242.44 250.403v-7.97M250.41 250.403v-7.97M258.38 250.403v-7.97M274.32 250.403v-7.97M298.231 250.403v-7.97M306.201 250.403v-7.97M314.172 250.403v-7.97M322.142 250.403v-7.97M346.052 250.403v-7.97M354.023 250.403v-7.97M369.963 250.403v-7.97M377.933 250.403v-7.97M401.844 250.403v-7.97M409.814 250.403v-7.97M417.784 250.403v-7.97M425.755 250.403v-7.97M433.725 250.403v-7.97M441.695 250.403v-7.97M457.635 250.403v-7.97M465.606 250.403v-7.97M473.576 250.403v-7.97M481.546 250.403v-7.97M497.487 250.403v-7.97M19.274 242.432h7.97M27.244 242.432h7.97M51.154 242.432h7.97M67.095 242.432h7.97M83.035 242.432h7.97M91.006 242.432h7.97M106.946 242.432h7.97M170.708 242.432h7.97M178.678 242.432h7.97M226.5 242.432h7.97M282.29 242.432h7.971M330.112 242.432h7.97M354.023 242.432h7.97M385.904 242.432h7.97M401.844 242.432h7.97M441.695 242.432h7.97M489.516 242.432h7.97M505.457 242.432h7.97M27.244 242.432v-7.97M43.184 242.432v-7.97M51.154 242.432v-7.97M67.095 242.432v-7.97M75.065 242.432v-7.97M98.976 242.432v-7.97M122.886 242.432v-7.97M130.857 242.432v-7.97M138.827 242.432v-7.97M146.797 242.432v-7.97M154.767 242.432v-7.97M162.738 242.432v-7.97M186.648 242.432v-7.97M194.618 242.432v-7.97M202.589 242.432v-7.97M210.559 242.432v-7.97M218.529 242.432v-7.97M226.5 242.432v-7.97M242.44 242.432v-7.97M250.41 242.432v-7.97M258.38 242.432v-7.97M266.35 242.432v-7.97M274.32 242.432v-7.97M282.29 242.432v-7.97M298.231 242.432v-7.97M306.201 242.432v-7.97M314.172 242.432v-7.97M330.112 242.432v-7.97M338.082 242.432v-7.97M346.052 242.432v-7.97M361.993 242.432v-7.97M369.963 242.432v-7.97M377.933 242.432v-7.97M393.874 242.432v-7.97M401.844 242.432v-7.97M417.784 242.432v-7.97M425.755 242.432v-7.97M433.725 242.432v-7.97M441.695 242.432v-7.97M465.606 242.432v-7.97M473.576 242.432v-7.97M481.546 242.432v-7.97M489.516 242.432v-7.97M505.457 242.432v-7.97M11.303 234.462h7.97M19.274 234.462h7.97M75.065 234.462h7.97M83.035 234.462h7.97M98.976 234.462h7.97M106.946 234.462h7.97M114.916 234.462h7.97M130.857 234.462h7.97M162.738 234.462h7.97M194.618 234.462h7.97M234.47 234.462h7.97M282.29 234.462h7.971M290.261 234.462h7.97M314.172 234.462h7.97M322.142 234.462h7.97M377.933 234.462h7.97M409.814 234.462h7.97M449.665 234.462h7.97M457.635 234.462h7.97M11.303 234.462v-7.97M27.244 234.462v-7.97M35.214 234.462v-7.97M43.184 234.462v-7.97M59.125 234.462v-7.97M67.095 234.462v-7.97M83.035 234.462v-7.97M98.976 234.462v-7.97M122.886 234.462v-7.97M138.827 234.462v-7.97M146.797 234.462v-7.97M154.767 234.462v-7.97M170.708 234.462v-7.97M178.678 234.462v-7.97M186.648 234.462v-7.97M194.618 234.462v-7.97M210.559 234.462v-7.97M226.5 234.462v-7.97M234.47 234.462v-7.97M242.44 234.462v-7.97M250.41 234.462v-7.97M258.38 234.462v-7.97M266.35 234.462v-7.97M274.32 234.462v-7.97M282.29 234.462v-7.97M298.231 234.462v-7.97M306.201 234.462v-7.97M322.142 234.462v-7.97M346.052 234.462v-7.97M354.023 234.462v-7.97M361.993 234.462v-7.97M369.963 234.462v-7.97M385.904 234.462v-7.97M393.874 234.462v-7.97M401.844 234.462v-7.97M417.784 234.462v-7.97M425.755 234.462v-7.97M433.725 234.462v-7.97M441.695 234.462v-7.97M449.665 234.462v-7.97M465.606 234.462v-7.97M473.576 234.462v-7.97M489.516 234.462v-7.97M497.487 234.462v-7.97M505.457 234.462v-7.97M43.184 226.492h7.97M51.154 226.492h7.97M91.006 226.492h7.97M106.946 226.492h7.97M122.886 226.492h7.97M202.589 226.492h7.97M210.559 226.492h7.97M218.529 226.492h7.97M330.112 226.492h7.97M338.082 226.492h7.97M369.963 226.492h7.97M401.844 226.492h7.97M473.576 226.492h7.97M481.546 226.492h7.97M489.516 226.492h7.97M19.274 226.492v-7.97M27.244 226.492v-7.97M35.214 226.492v-7.97M43.184 226.492v-7.97M59.125 226.492v-7.97M67.095 226.492v-7.97M75.065 226.492v-7.97M83.035 226.492v-7.97M106.946 226.492v-7.97M114.916 226.492v-7.97M130.857 226.492v-7.97M138.827 226.492v-7.97M146.797 226.492v-7.97M154.767 226.492v-7.97M162.738 226.492v-7.97M170.708 226.492v-7.97M178.678 226.492v-7.97M186.648 226.492v-7.97M194.618 226.492v-7.97M218.529 226.492v-7.97M234.47 226.492v-7.97M250.41 226.492v-7.97M258.38 226.492v-7.97M266.35 226.492v-7.97M274.32 226.492v-7.97M290.261 226.492v-7.97M306.201 226.492v-7.97M314.172 226.492v-7.97M322.142 226.492v-7.97M330.112 226.492v-7.97M346.052 226.492v-7.97M354.023 226.492v-7.97M361.993 226.492v-7.97M377.933 226.492v-7.97M385.904 226.492v-7.97M393.874 226.492v-7.97M409.814 226.492v-7.97M417.784 226.492v-7.97M433.725 226.492v-7.97M441.695 226.492v-7.97M457.635 226.492v-7.97M465.606 226.492v-7.97M481.546 226.492v-7.97M3.333 218.522h7.97M11.303 218.522h7.97M59.125 218.522h7.97M83.035 218.522h7.97M91.006 218.522h7.97M130.857 218.522h7.97M194.618 218.522h7.97M202.589 218.522h7.97M226.5 218.522h7.97M234.47 218.522h7.97M242.44 218.522h7.97M274.32 218.522h7.97M282.29 218.522h7.971M290.261 218.522h7.97M385.904 218.522h7.97M393.874 218.522h7.97M417.784 218.522h7.97M441.695 218.522h7.97M449.665 218.522h7.97M465.606 218.522h7.97M497.487 218.522h7.97M505.457 218.522h7.97M27.244 218.522v-7.97M35.214 218.522v-7.97M43.184 218.522v-7.97M51.154 218.522v-7.97M59.125 218.522v-7.97M75.065 218.522v-7.97M98.976 218.522v-7.97M106.946 218.522v-7.97M114.916 218.522v-7.97M122.886 218.522v-7.97M138.827 218.522v-7.97M146.797 218.522v-7.97M154.767 218.522v-7.97M162.738 218.522v-7.97M170.708 218.522v-7.97M178.678 218.522v-7.97M186.648 218.522v-7.97M218.529 218.522v-7.97M250.41 218.522v-7.97M258.38 218.522v-7.97M266.35 218.522v-7.97M274.32 218.522v-7.97M298.231 218.522v-7.97M306.201 218.522v-7.97M314.172 218.522v-7.97M330.112 218.522v-7.97M338.082 218.522v-7.97M354.023 218.522v-7.97M369.963 218.522v-7.97M377.933 218.522v-7.97M385.904 218.522v-7.97M409.814 218.522v-7.97M417.784 218.522v-7.97M433.725 218.522v-7.97M457.635 218.522v-7.97M465.606 218.522v-7.97M481.546 218.522v-7.97M489.516 218.522v-7.97M497.487 218.522v-7.97M11.303 210.552h7.97M19.274 210.552h7.97M75.065 210.552h7.97M91.006 210.552h7.97M186.648 210.552h7.97M194.618 210.552h7.97M202.589 210.552h7.97M210.559 210.552h7.97M218.529 210.552h7.97M226.5 210.552h7.97M282.29 210.552h7.971M322.142 210.552h7.97M354.023 210.552h7.97M361.993 210.552h7.97M393.874 210.552h7.97M401.844 210.552h7.97M417.784 210.552h7.97M425.755 210.552h7.97M433.725 210.552h7.97M473.576 210.552h7.97M481.546 210.552h7.97M19.274 210.552v-7.97M35.214 210.552v-7.97M43.184 210.552v-7.97M51.154 210.552v-7.97M59.125 210.552v-7.97M67.095 210.552v-7.97M75.065 210.552v-7.97M83.035 210.552v-7.97M98.976 210.552v-7.97M106.946 210.552v-7.97M114.916 210.552v-7.97M122.886 210.552v-7.97M130.857 210.552v-7.97M146.797 210.552v-7.97M154.767 210.552v-7.97M162.738 210.552v-7.97M170.708 210.552v-7.97M178.678 210.552v-7.97M186.648 210.552v-7.97M202.589 210.552v-7.97M234.47 210.552v-7.97M242.44 210.552v-7.97M250.41 210.552v-7.97M258.38 210.552v-7.97M266.35 210.552v-7.97M274.32 210.552v-7.97M282.29 210.552v-7.97M290.261 210.552v-7.97M306.201 210.552v-7.97M314.172 210.552v-7.97M330.112 210.552v-7.97M338.082 210.552v-7.97M346.052 210.552v-7.97M361.993 210.552v-7.97M377.933 210.552v-7.97M385.904 210.552v-7.97M393.874 210.552v-7.97M409.814 210.552v-7.97M417.784 210.552v-7.97M441.695 210.552v-7.97M449.665 210.552v-7.97M457.635 210.552v-7.97M465.606 210.552v-7.97M473.576 210.552v-7.97M489.516 210.552v-7.97M497.487 210.552v-7.97M505.457 210.552v-7.97M3.333 202.581h7.97M19.274 202.581h7.97M83.035 202.581h7.97M130.857 202.581h7.97M138.827 202.581h7.97M210.559 202.581h7.97M218.529 202.581h7.97M242.44 202.581h7.97M290.261 202.581h7.97M298.231 202.581h7.97M346.052 202.581h7.97M361.993 202.581h7.97M369.963 202.581h7.97M425.755 202.581h7.97M441.695 202.581h7.97M473.576 202.581h7.97M27.244 202.581v-7.97M35.214 202.581v-7.97M43.184 202.581v-7.97M51.154 202.581v-7.97M67.095 202.581v-7.97M75.065 202.581v-7.97M91.006 202.581v-7.97M106.946 202.581v-7.97M114.916 202.581v-7.97M122.886 202.581v-7.97M138.827 202.581v-7.97M146.797 202.581v-7.97M154.767 202.581v-7.97M162.738 202.581v-7.97M170.708 202.581v-7.97M178.678 202.581v-7.97M194.618 202.581v-7.97M210.559 202.581v-7.97M218.529 202.581v-7.97M234.47 202.581v-7.97M242.44 202.581v-7.97M258.38 202.581v-7.97M266.35 202.581v-7.97M274.32 202.581v-7.97M282.29 202.581v-7.97M298.231 202.581v-7.97M314.172 202.581v-7.97M322.142 202.581v-7.97M330.112 202.581v-7.97M338.082 202.581v-7.97M346.052 202.581v-7.97M354.023 202.581v-7.97M377.933 202.581v-7.97M385.904 202.581v-7.97M393.874 202.581v-7.97M401.844 202.581v-7.97M417.784 202.581v-7.97M425.755 202.581v-7.97M441.695 202.581v-7.97M457.635 202.581v-7.97M465.606 202.581v-7.97M481.546 202.581v-7.97M497.487 202.581v-7.97M505.457 202.581v-7.97M3.333 194.611h7.97M11.303 194.611h7.97M51.154 194.611h7.97M59.125 194.611h7.97M91.006 194.611h7.97M178.678 194.611h7.97M186.648 194.611h7.97M194.618 194.611h7.97M250.41 194.611h7.97M282.29 194.611h7.971M354.023 194.611h7.97M361.993 194.611h7.97M401.844 194.611h7.97M409.814 194.611h7.97M449.665 194.611h7.97M465.606 194.611h7.97M481.546 194.611h7.97M489.516 194.611h7.97M27.244 194.611v-7.97M35.214 194.611v-7.97M43.184 194.611v-7.97M51.154 194.611v-7.97M67.095 194.611v-7.97M75.065 194.611v-7.97M83.035 194.611v-7.97M91.006 194.611v-7.97M106.946 194.611v-7.97M122.886 194.611v-7.97M130.857 194.611v-7.97M138.827 194.611v-7.97M154.767 194.611v-7.97M162.738 194.611v-7.97M170.708 194.611v-7.97M178.678 194.611v-7.97M202.589 194.611v-7.97M210.559 194.611v-7.97M226.5 194.611v-7.97M234.47 194.611v-7.97M242.44 194.611v-7.97M250.41 194.611v-7.97M258.38 194.611v-7.97M266.35 194.611v-7.97M274.32 194.611v-7.97M282.29 194.611v-7.97M290.261 194.611v-7.97M298.231 194.611v-7.97M306.201 194.611v-7.97M314.172 194.611v-7.97M322.142 194.611v-7.97M330.112 194.611v-7.97M338.082 194.611v-7.97M361.993 194.611v-7.97M369.963 194.611v-7.97M377.933 194.611v-7.97M393.874 194.611v-7.97M401.844 194.611v-7.97M425.755 194.611v-7.97M433.725 194.611v-7.97M441.695 194.611v-7.97M457.635 194.611v-7.97M465.606 194.611v-7.97M473.576 194.611v-7.97M481.546 194.611v-7.97M497.487 194.611v-7.97M505.457 194.611v-7.97M11.303 186.641h7.97M19.274 186.641h7.97M27.244 186.641h7.97M91.006 186.641h7.97M106.946 186.641h7.97M114.916 186.641h7.97M186.648 186.641h7.97M210.559 186.641h7.97M218.529 186.641h7.97M338.082 186.641h7.97M346.052 186.641h7.97M377.933 186.641h7.97M385.904 186.641h7.97M409.814 186.641h7.97M417.784 186.641h7.97M441.695 186.641h7.97M11.303 186.641v-7.97M19.274 186.641v-7.97M35.214 186.641v-7.97M43.184 186.641v-7.97M51.154 186.641v-7.97M59.125 186.641v-7.97M67.095 186.641v-7.97M75.065 186.641v-7.97M83.035 186.641v-7.97M98.976 186.641v-7.97M114.916 186.641v-7.97M130.857 186.641v-7.97M138.827 186.641v-7.97M146.797 186.641v-7.97M154.767 186.641v-7.97M162.738 186.641v-7.97M170.708 186.641v-7.97M178.678 186.641v-7.97M186.648 186.641v-7.97M194.618 186.641v-7.97M202.589 186.641v-7.97M210.559 186.641v-7.97M226.5 186.641v-7.97M234.47 186.641v-7.97M242.44 186.641v-7.97M250.41 186.641v-7.97M258.38 186.641v-7.97M266.35 186.641v-7.97M274.32 186.641v-7.97M282.29 186.641v-7.97M306.201 186.641v-7.97M314.172 186.641v-7.97M322.142 186.641v-7.97M330.112 186.641v-7.97M354.023 186.641v-7.97M369.963 186.641v-7.97M385.904 186.641v-7.97M401.844 186.641v-7.97M417.784 186.641v-7.97M425.755 186.641v-7.97M433.725 186.641v-7.97M441.695 186.641v-7.97M457.635 186.641v-7.97M465.606 186.641v-7.97M481.546 186.641v-7.97M489.516 186.641v-7.97M497.487 186.641v-7.97M505.457 186.641v-7.97M35.214 178.67h7.97M67.095 178.67h7.97M122.886 178.67h7.97M282.29 178.67h7.971M290.261 178.67h7.97M298.231 178.67h7.97M306.201 178.67h7.97M330.112 178.67h7.97M338.082 178.67h7.97M354.023 178.67h7.97M361.993 178.67h7.97M369.963 178.67h7.97M393.874 178.67h7.97M401.844 178.67h7.97M449.665 178.67h7.97M473.576 178.67h7.97M497.487 178.67h7.97M11.303 178.67v-7.97M19.274 178.67v-7.97M27.244 178.67v-7.97M51.154 178.67v-7.97M59.125 178.67v-7.97M83.035 178.67v-7.97M91.006 178.67v-7.97M106.946 178.67v-7.97M114.916 178.67v-7.97M122.886 178.67v-7.97M130.857 178.67v-7.97M138.827 178.67v-7.97M146.797 178.67v-7.97M154.767 178.67v-7.97M162.738 178.67v-7.97M170.708 178.67v-7.97M178.678 178.67v-7.97M194.618 178.67v-7.97M202.589 178.67v-7.97M210.559 178.67v-7.97M218.529 178.67v-7.97M226.5 178.67v-7.97M234.47 178.67v-7.97M242.44 178.67v-7.97M250.41 178.67v-7.97M258.38 178.67v-7.97M266.35 178.67v-7.97M274.32 178.67v-7.97M282.29 178.67v-7.97M298.231 178.67v-7.97M322.142 178.67v-7.97M330.112 178.67v-7.97M346.052 178.67v-7.97M361.993 178.67v-7.97M377.933 178.67v-7.97M385.904 178.67v-7.97M417.784 178.67v-7.97M425.755 178.67v-7.97M433.725 178.67v-7.97M441.695 178.67v-7.97M449.665 178.67v-7.97M465.606 178.67v-7.97M481.546 178.67v-7.97M489.516 178.67v-7.97M505.457 178.67v-7.97M27.244 170.7h7.97M35.214 170.7h7.97M43.184 170.7h7.97M59.125 170.7h7.97M75.065 170.7h7.97M91.006 170.7h7.97M98.976 170.7h7.97M106.946 170.7h7.97M178.678 170.7h7.97M186.648 170.7h7.97M290.261 170.7h7.97M306.201 170.7h7.97M346.052 170.7h7.97M385.904 170.7h7.97M393.874 170.7h7.97M401.844 170.7h7.97M409.814 170.7h7.97M449.665 170.7h7.97M465.606 170.7h7.97M489.516 170.7h7.97M35.214 170.7v-7.97M59.125 170.7v-7.97M75.065 170.7v-7.97M83.035 170.7v-7.97M91.006 170.7v-7.97M98.976 170.7v-7.97M122.886 170.7v-7.97M138.827 170.7v-7.97M146.797 170.7v-7.97M154.767 170.7v-7.97M162.738 170.7v-7.97M170.708 170.7v-7.97M202.589 170.7v-7.97M210.559 170.7v-7.97M218.529 170.7v-7.97M234.47 170.7v-7.97M242.44 170.7v-7.97M250.41 170.7v-7.97M258.38 170.7v-7.97M266.35 170.7v-7.97M274.32 170.7v-7.97M282.29 170.7v-7.97M290.261 170.7v-7.97M306.201 170.7v-7.97M314.172 170.7v-7.97M322.142 170.7v-7.97M330.112 170.7v-7.97M338.082 170.7v-7.97M354.023 170.7v-7.97M361.993 170.7v-7.97M369.963 170.7v-7.97M377.933 170.7v-7.97M401.844 170.7v-7.97M417.784 170.7v-7.97M433.725 170.7v-7.97M441.695 170.7v-7.97M457.635 170.7v-7.97M473.576 170.7v-7.97M489.516 170.7v-7.97M497.487 170.7v-7.97M505.457 170.7v-7.97M3.333 162.73h7.97M11.303 162.73h7.97M19.274 162.73h7.97M27.244 162.73h7.97M51.154 162.73h7.97M59.125 162.73h7.97M106.946 162.73h7.97M114.916 162.73h7.97M122.886 162.73h7.97M138.827 162.73h7.97M178.678 162.73h7.97M186.648 162.73h7.97M194.618 162.73h7.97M202.589 162.73h7.97M218.529 162.73h7.97M226.5 162.73h7.97M298.231 162.73h7.97M338.082 162.73h7.97M361.993 162.73h7.97M377.933 162.73h7.97M385.904 162.73h7.97M401.844 162.73h7.97M417.784 162.73h7.97M425.755 162.73h7.97M441.695 162.73h7.97M457.635 162.73h7.97M473.576 162.73h7.97M481.546 162.73h7.97M11.303 162.73v-7.97M35.214 162.73v-7.97M43.184 162.73v-7.97M51.154 162.73v-7.97M83.035 162.73v-7.97M91.006 162.73v-7.97M106.946 162.73v-7.97M130.857 162.73v-7.97M138.827 162.73v-7.97M154.767 162.73v-7.97M162.738 162.73v-7.97M170.708 162.73v-7.97M178.678 162.73v-7.97M194.618 162.73v-7.97M218.529 162.73v-7.97M242.44 162.73v-7.97M250.41 162.73v-7.97M266.35 162.73v-7.97M274.32 162.73v-7.97M282.29 162.73v-7.97M290.261 162.73v-7.97M298.231 162.73v-7.97M306.201 162.73v-7.97M322.142 162.73v-7.97M330.112 162.73v-7.97M338.082 162.73v-7.97M346.052 162.73v-7.97M354.023 162.73v-7.97M361.993 162.73v-7.97M385.904 162.73v-7.97M409.814 162.73v-7.97M417.784 162.73v-7.97M449.665 162.73v-7.97M465.606 162.73v-7.97M473.576 162.73v-7.97M505.457 162.73v-7.97M51.154 154.76h7.97M59.125 154.76h7.97M67.095 154.76h7.97M75.065 154.76h7.97M91.006 154.76h7.97M98.976 154.76h7.97M106.946 154.76h7.97M114.916 154.76h7.97M146.797 154.76h7.97M202.589 154.76h7.97M210.559 154.76h7.97M218.529 154.76h7.97M234.47 154.76h7.97M250.41 154.76h7.97M306.201 154.76h7.97M369.963 154.76h7.97M393.874 154.76h7.97M425.755 154.76h7.97M433.725 154.76h7.97M441.695 154.76h7.97M449.665 154.76h7.97M489.516 154.76h7.97M497.487 154.76h7.97M11.303 154.76v-7.97M19.274 154.76v-7.97M27.244 154.76v-7.97M35.214 154.76v-7.97M43.184 154.76v-7.97M67.095 154.76v-7.97M91.006 154.76v-7.97M106.946 154.76v-7.97M122.886 154.76v-7.97M130.857 154.76v-7.97M138.827 154.76v-7.97M146.797 154.76v-7.97M154.767 154.76v-7.97M162.738 154.76v-7.97M170.708 154.76v-7.97M178.678 154.76v-7.97M186.648 154.76v-7.97M194.618 154.76v-7.97M202.589 154.76v-7.97M218.529 154.76v-7.97M234.47 154.76v-7.97M242.44 154.76v-7.97M258.38 154.76v-7.97M266.35 154.76v-7.97M274.32 154.76v-7.97M282.29 154.76v-7.97M290.261 154.76v-7.97M314.172 154.76v-7.97M322.142 154.76v-7.97M330.112 154.76v-7.97M338.082 154.76v-7.97M346.052 154.76v-7.97M354.023 154.76v-7.97M369.963 154.76v-7.97M385.904 154.76v-7.97M393.874 154.76v-7.97M401.844 154.76v-7.97M409.814 154.76v-7.97M417.784 154.76v-7.97M425.755 154.76v-7.97M457.635 154.76v-7.97M465.606 154.76v-7.97M473.576 154.76v-7.97M481.546 154.76v-7.97M489.516 154.76v-7.97M505.457 154.76v-7.97M27.244 146.79h7.97M43.184 146.79h7.97M51.154 146.79h7.97M75.065 146.79h7.97M83.035 146.79h7.97M91.006 146.79h7.97M178.678 146.79h7.97M210.559 146.79h7.97M226.5 146.79h7.97M258.38 146.79h7.97M298.231 146.79h7.97M306.201 146.79h7.97M354.023 146.79h7.97M361.993 146.79h7.97M369.963 146.79h7.97M377.933 146.79h7.97M425.755 146.79h7.97M433.725 146.79h7.97M441.695 146.79h7.97M19.274 146.79v-7.97M35.214 146.79v-7.97M43.184 146.79v-7.97M59.125 146.79v-7.97M67.095 146.79v-7.97M75.065 146.79v-7.97M106.946 146.79v-7.97M114.916 146.79v-7.97M130.857 146.79v-7.97M138.827 146.79v-7.97M146.797 146.79v-7.97M162.738 146.79v-7.97M170.708 146.79v-7.97M178.678 146.79v-7.97M194.618 146.79v-7.97M202.589 146.79v-7.97M226.5 146.79v-7.97M234.47 146.79v-7.97M242.44 146.79v-7.97M250.41 146.79v-7.97M258.38 146.79v-7.97M274.32 146.79v-7.97M282.29 146.79v-7.97M290.261 146.79v-7.97M298.231 146.79v-7.97M314.172 146.79v-7.97M322.142 146.79v-7.97M330.112 146.79v-7.97M346.052 146.79v-7.97M361.993 146.79v-7.97M385.904 146.79v-7.97M401.844 146.79v-7.97M409.814 146.79v-7.97M417.784 146.79v-7.97M425.755 146.79v-7.97M449.665 146.79v-7.97M457.635 146.79v-7.97M465.606 146.79v-7.97M473.576 146.79v-7.97M481.546 146.79v-7.97M497.487 146.79v-7.97M505.457 146.79v-7.97M3.333 138.82h7.97M11.303 138.82h7.97M19.274 138.82h7.97M59.125 138.82h7.97M83.035 138.82h7.97M91.006 138.82h7.97M98.976 138.82h7.97M114.916 138.82h7.97M146.797 138.82h7.97M154.767 138.82h7.97M186.648 138.82h7.97M202.589 138.82h7.97M218.529 138.82h7.97M250.41 138.82h7.97M266.35 138.82h7.97M330.112 138.82h7.97M338.082 138.82h7.97M346.052 138.82h7.97M369.963 138.82h7.97M385.904 138.82h7.97M393.874 138.82h7.97M433.725 138.82h7.97M481.546 138.82h7.97M489.516 138.82h7.97M497.487 138.82h7.97M19.274 138.82v-7.97M35.214 138.82v-7.97M43.184 138.82v-7.97M51.154 138.82v-7.97M59.125 138.82v-7.97M75.065 138.82v-7.97M98.976 138.82v-7.97M122.886 138.82v-7.97M138.827 138.82v-7.97M146.797 138.82v-7.97M162.738 138.82v-7.97M170.708 138.82v-7.97M178.678 138.82v-7.97M186.648 138.82v-7.97M202.589 138.82v-7.97M210.559 138.82v-7.97M218.529 138.82v-7.97M234.47 138.82v-7.97M242.44 138.82v-7.97M250.41 138.82v-7.97M266.35 138.82v-7.97M282.29 138.82v-7.97M298.231 138.82v-7.97M306.201 138.82v-7.97M322.142 138.82v-7.97M338.082 138.82v-7.97M361.993 138.82v-7.97M377.933 138.82v-7.97M409.814 138.82v-7.97M425.755 138.82v-7.97M433.725 138.82v-7.97M457.635 138.82v-7.97M465.606 138.82v-7.97M473.576 138.82v-7.97M481.546 138.82v-7.97M505.457 138.82v-7.97M43.184 130.85h7.97M67.095 130.85h7.97M75.065 130.85h7.97M83.035 130.85h7.97M106.946 130.85h7.97M114.916 130.85h7.97M122.886 130.85h7.97M130.857 130.85h7.97M186.648 130.85h7.97M226.5 130.85h7.97M274.32 130.85h7.97M282.29 130.85h7.971M290.261 130.85h7.97M306.201 130.85h7.97M314.172 130.85h7.97M322.142 130.85h7.97M346.052 130.85h7.97M354.023 130.85h7.97M361.993 130.85h7.97M369.963 130.85h7.97M385.904 130.85h7.97M393.874 130.85h7.97M401.844 130.85h7.97M417.784 130.85h7.97M441.695 130.85h7.97M489.516 130.85h7.97M11.303 130.85v-7.97M19.274 130.85v-7.97M27.244 130.85v-7.97M35.214 130.85v-7.97M43.184 130.85v-7.97M59.125 130.85v-7.97M67.095 130.85v-7.97M83.035 130.85v-7.97M98.976 130.85v-7.97M106.946 130.85v-7.97M130.857 130.85v-7.97M146.797 130.85v-7.97M154.767 130.85v-7.97M162.738 130.85v-7.97M170.708 130.85v-7.97M178.678 130.85v-7.97M202.589 130.85v-7.97M218.529 130.85v-7.97M234.47 130.85v-7.97M242.44 130.85v-7.97M250.41 130.85v-7.97M258.38 130.85v-7.97M266.35 130.85v-7.97M274.32 130.85v-7.97M290.261 130.85v-7.97M306.201 130.85v-7.97M330.112 130.85v-7.97M338.082 130.85v-7.97M385.904 130.85v-7.97M401.844 130.85v-7.97M409.814 130.85v-7.97M417.784 130.85v-7.97M433.725 130.85v-7.97M449.665 130.85v-7.97M457.635 130.85v-7.97M465.606 130.85v-7.97M481.546 130.85v-7.97M497.487 130.85v-7.97M51.154 122.88h7.97M138.827 122.88h7.97M186.648 122.88h7.97M194.618 122.88h7.97M210.559 122.88h7.97M218.529 122.88h7.97M258.38 122.88h7.97M274.32 122.88h7.97M298.231 122.88h7.97M306.201 122.88h7.97M314.172 122.88h7.97M338.082 122.88h7.97M361.993 122.88h7.97M369.963 122.88h7.97M377.933 122.88h7.97M385.904 122.88h7.97M425.755 122.88h7.97M433.725 122.88h7.97M449.665 122.88h7.97M465.606 122.88h7.97M473.576 122.88h7.97M481.546 122.88h7.97M489.516 122.88h7.97M505.457 122.88h7.97M11.303 122.88v-7.971M27.244 122.88v-7.971M35.214 122.88v-7.971M43.184 122.88v-7.971M51.154 122.88v-7.971M67.095 122.88v-7.971M75.065 122.88v-7.971M91.006 122.88v-7.971M98.976 122.88v-7.971M106.946 122.88v-7.971M114.916 122.88v-7.971M122.886 122.88v-7.971M138.827 122.88v-7.971M154.767 122.88v-7.971M162.738 122.88v-7.971M170.708 122.88v-7.971M178.678 122.88v-7.971M202.589 122.88v-7.971M210.559 122.88v-7.971M226.5 122.88v-7.971M234.47 122.88v-7.971M242.44 122.88v-7.971M250.41 122.88v-7.971M266.35 122.88v-7.971M274.32 122.88v-7.971M290.261 122.88v-7.971M298.231 122.88v-7.971M322.142 122.88v-7.971M330.112 122.88v-7.971M354.023 122.88v-7.971M377.933 122.88v-7.971M393.874 122.88v-7.971M409.814 122.88v-7.971M417.784 122.88v-7.971M441.695 122.88v-7.971M465.606 122.88v-7.971M489.516 122.88v-7.971M505.457 122.88v-7.971M11.303 114.909h7.97M19.274 114.909h7.97M27.244 114.909h7.97M59.125 114.909h7.97M75.065 114.909h7.97M83.035 114.909h7.97M91.006 114.909h7.97M114.916 114.909h7.97M122.886 114.909h7.97M130.857 114.909h7.97M146.797 114.909h7.97M154.767 114.909h7.97M186.648 114.909h7.97M194.618 114.909h7.97M250.41 114.909h7.97M282.29 114.909h7.971M306.201 114.909h7.97M330.112 114.909h7.97M338.082 114.909h7.97M346.052 114.909h7.97M354.023 114.909h7.97M361.993 114.909h7.97M377.933 114.909h7.97M393.874 114.909h7.97M417.784 114.909h7.97M425.755 114.909h7.97M441.695 114.909h7.97M449.665 114.909h7.97M457.635 114.909h7.97M473.576 114.909h7.97M497.487 114.909h7.97M11.303 114.909v-7.97M35.214 114.909v-7.97M43.184 114.909v-7.97M51.154 114.909v-7.97M59.125 114.909v-7.97M67.095 114.909v-7.97M106.946 114.909v-7.97M114.916 114.909v-7.97M138.827 114.909v-7.97M170.708 114.909v-7.97M178.678 114.909v-7.97M186.648 114.909v-7.97M202.589 114.909v-7.97M218.529 114.909v-7.97M234.47 114.909v-7.97M242.44 114.909v-7.97M258.38 114.909v-7.97M266.35 114.909v-7.97M274.32 114.909v-7.97M290.261 114.909v-7.97M298.231 114.909v-7.97M306.201 114.909v-7.97M314.172 114.909v-7.97M322.142 114.909v-7.97M361.993 114.909v-7.97M377.933 114.909v-7.97M393.874 114.909v-7.97M409.814 114.909v-7.97M417.784 114.909v-7.97M433.725 114.909v-7.97M441.695 114.909v-7.97M465.606 114.909v-7.97M481.546 114.909v-7.97M489.516 114.909v-7.97M505.457 114.909v-7.97M19.274 106.939h7.97M67.095 106.939h7.97M75.065 106.939h7.97M83.035 106.939h7.97M91.006 106.939h7.97M98.976 106.939h7.97M122.886 106.939h7.97M138.827 106.939h7.97M146.797 106.939h7.97M154.767 106.939h7.97M202.589 106.939h7.97M210.559 106.939h7.97M218.529 106.939h7.97M226.5 106.939h7.97M274.32 106.939h7.97M322.142 106.939h7.97M338.082 106.939h7.97M346.052 106.939h7.97M369.963 106.939h7.97M449.665 106.939h7.97M489.516 106.939h7.97M27.244 106.939v-7.97M43.184 106.939v-7.97M51.154 106.939v-7.97M59.125 106.939v-7.97M91.006 106.939v-7.97M106.946 106.939v-7.97M114.916 106.939v-7.97M130.857 106.939v-7.97M138.827 106.939v-7.97M154.767 106.939v-7.97M170.708 106.939v-7.97M178.678 106.939v-7.97M194.618 106.939v-7.97M202.589 106.939v-7.97M226.5 106.939v-7.97M234.47 106.939v-7.97M250.41 106.939v-7.97M258.38 106.939v-7.97M266.35 106.939v-7.97M274.32 106.939v-7.97M298.231 106.939v-7.97M314.172 106.939v-7.97M322.142 106.939v-7.97M346.052 106.939v-7.97M361.993 106.939v-7.97M369.963 106.939v-7.97M385.904 106.939v-7.97M393.874 106.939v-7.97M401.844 106.939v-7.97M409.814 106.939v-7.97M417.784 106.939v-7.97M425.755 106.939v-7.97M449.665 106.939v-7.97M473.576 106.939v-7.97M481.546 106.939v-7.97M497.487 106.939v-7.97M505.457 106.939v-7.97M3.333 98.969h7.97M11.303 98.969h7.97M19.274 98.969h7.97M27.244 98.969h7.97M35.214 98.969h7.97M59.125 98.969h7.97M67.095 98.969h7.97M75.065 98.969h7.97M114.916 98.969h7.97M138.827 98.969h7.97M162.738 98.969h7.97M178.678 98.969h7.97M186.648 98.969h7.97M210.559 98.969h7.97M234.47 98.969h7.97M242.44 98.969h7.97M274.32 98.969h7.97M282.29 98.969h7.971M290.261 98.969h7.97M298.231 98.969h7.97M306.201 98.969h7.97M322.142 98.969h7.97M330.112 98.969h7.97M346.052 98.969h7.97M354.023 98.969h7.97M377.933 98.969h7.97M393.874 98.969h7.97M417.784 98.969h7.97M425.755 98.969h7.97M433.725 98.969h7.97M441.695 98.969h7.97M449.665 98.969h7.97M457.635 98.969h7.97M465.606 98.969h7.97M473.576 98.969h7.97M19.274 98.969v-7.97M35.214 98.969v-7.97M43.184 98.969v-7.97M59.125 98.969v-7.97M83.035 98.969v-7.97M98.976 98.969v-7.97M106.946 98.969v-7.97M114.916 98.969v-7.97M130.857 98.969v-7.97M154.767 98.969v-7.97M162.738 98.969v-7.97M170.708 98.969v-7.97M186.648 98.969v-7.97M194.618 98.969v-7.97M202.589 98.969v-7.97M210.559 98.969v-7.97M218.529 98.969v-7.97M226.5 98.969v-7.97M242.44 98.969v-7.97M258.38 98.969v-7.97M266.35 98.969v-7.97M314.172 98.969v-7.97M330.112 98.969v-7.97M338.082 98.969v-7.97M354.023 98.969v-7.97M369.963 98.969v-7.97M385.904 98.969v-7.97M409.814 98.969v-7.97M425.755 98.969v-7.97M489.516 98.969v-7.97M497.487 98.969v-7.97M67.095 90.998h7.97M83.035 90.998h7.97M122.886 90.998h7.97M130.857 90.998h7.97M138.827 90.998h7.97M234.47 90.998h7.97M250.41 90.998h7.97M266.35 90.998h7.97M274.32 90.998h7.97M282.29 90.998h7.971M290.261 90.998h7.97M298.231 90.998h7.97M354.023 90.998h7.97M361.993 90.998h7.97M369.963 90.998h7.97M385.904 90.998h7.97M393.874 90.998h7.97M401.844 90.998h7.97M433.725 90.998h7.97M441.695 90.998h7.97M457.635 90.998h7.97M473.576 90.998h7.97M497.487 90.998h7.97M11.303 90.998v-7.97M27.244 90.998v-7.97M35.214 90.998v-7.97M43.184 90.998v-7.97M51.154 90.998v-7.97M59.125 90.998v-7.97M67.095 90.998v-7.97M83.035 90.998v-7.97M98.976 90.998v-7.97M114.916 90.998v-7.97M122.886 90.998v-7.97M138.827 90.998v-7.97M154.767 90.998v-7.97M162.738 90.998v-7.97M178.678 90.998v-7.97M186.648 90.998v-7.97M202.589 90.998v-7.97M210.559 90.998v-7.97M226.5 90.998v-7.97M242.44 90.998v-7.97M250.41 90.998v-7.97M258.38 90.998v-7.97M266.35 90.998v-7.97M282.29 90.998v-7.97M306.201 90.998v-7.97M314.172 90.998v-7.97M322.142 90.998v-7.97M338.082 90.998v-7.97M346.052 90.998v-7.97M361.993 90.998v-7.97M377.933 90.998v-7.97M409.814 90.998v-7.97M417.784 90.998v-7.97M433.725 90.998v-7.97M457.635 90.998v-7.97M473.576 90.998v-7.97M481.546 90.998v-7.97M489.516 90.998v-7.97M497.487 90.998v-7.97M11.303 83.028h7.97M19.274 83.028h7.97M83.035 83.028h7.97M98.976 83.028h7.97M106.946 83.028h7.97M138.827 83.028h7.97M170.708 83.028h7.97M186.648 83.028h7.97M210.559 83.028h7.97M218.529 83.028h7.97M226.5 83.028h7.97M282.29 83.028h7.971M290.261 83.028h7.97M330.112 83.028h7.97M338.082 83.028h7.97M346.052 83.028h7.97M369.963 83.028h7.97M377.933 83.028h7.97M393.874 83.028h7.97M401.844 83.028h7.97M417.784 83.028h7.97M425.755 83.028h7.97M433.725 83.028h7.97M441.695 83.028h7.97M449.665 83.028h7.97M457.635 83.028h7.97M505.457 83.028h7.97M19.274 83.028v-7.97M27.244 83.028v-7.97M35.214 83.028v-7.97M51.154 83.028v-7.97M59.125 83.028v-7.97M67.095 83.028v-7.97M75.065 83.028v-7.97M91.006 83.028v-7.97M98.976 83.028v-7.97M114.916 83.028v-7.97M130.857 83.028v-7.97M146.797 83.028v-7.97M154.767 83.028v-7.97M162.738 83.028v-7.97M178.678 83.028v-7.97M186.648 83.028v-7.97M202.589 83.028v-7.97M210.559 83.028v-7.97M242.44 83.028v-7.97M250.41 83.028v-7.97M266.35 83.028v-7.97M274.32 83.028v-7.97M282.29 83.028v-7.97M298.231 83.028v-7.97M306.201 83.028v-7.97M314.172 83.028v-7.97M322.142 83.028v-7.97M354.023 83.028v-7.97M377.933 83.028v-7.97M393.874 83.028v-7.97M417.784 83.028v-7.97M457.635 83.028v-7.97M473.576 83.028v-7.97M481.546 83.028v-7.97M489.516 83.028v-7.97M497.487 83.028v-7.97M3.333 75.058h7.97M35.214 75.058h7.97M43.184 75.058h7.97M51.154 75.058h7.97M75.065 75.058h7.97M114.916 75.058h7.97M122.886 75.058h7.97M130.857 75.058h7.97M162.738 75.058h7.97M170.708 75.058h7.97M194.618 75.058h7.97M226.5 75.058h7.97M234.47 75.058h7.97M250.41 75.058h7.97M322.142 75.058h7.97M330.112 75.058h7.97M338.082 75.058h7.97M354.023 75.058h7.97M361.993 75.058h7.97M401.844 75.058h7.97M425.755 75.058h7.97M433.725 75.058h7.97M441.695 75.058h7.97M465.606 75.058h7.97M497.487 75.058h7.97M19.274 75.058v-7.97M27.244 75.058v-7.97M35.214 75.058v-7.97M51.154 75.058v-7.97M67.095 75.058v-7.97M83.035 75.058v-7.97M98.976 75.058v-7.97M106.946 75.058v-7.97M130.857 75.058v-7.97M146.797 75.058v-7.97M154.767 75.058v-7.97M162.738 75.058v-7.97M178.678 75.058v-7.97M186.648 75.058v-7.97M210.559 75.058v-7.97M218.529 75.058v-7.97M226.5 75.058v-7.97M242.44 75.058v-7.97M250.41 75.058v-7.97M258.38 75.058v-7.97M266.35 75.058v-7.97M274.32 75.058v-7.97M282.29 75.058v-7.97M290.261 75.058v-7.97M306.201 75.058v-7.97M314.172 75.058v-7.97M322.142 75.058v-7.97M346.052 75.058v-7.97M354.023 75.058v-7.97M369.963 75.058v-7.97M377.933 75.058v-7.97M385.904 75.058v-7.97M393.874 75.058v-7.97M401.844 75.058v-7.97M417.784 75.058v-7.97M425.755 75.058v-7.97M441.695 75.058v-7.97M457.635 75.058v-7.97M473.576 75.058v-7.97M481.546 75.058v-7.97M489.516 75.058v-7.97M497.487 75.058v-7.97M505.457 75.058v-7.97M59.125 67.088h7.97M83.035 67.088h7.97M91.006 67.088h7.97M106.946 67.088h7.97M114.916 67.088h7.97M138.827 67.088h7.97M146.797 67.088h7.97M186.648 67.088h7.97M194.618 67.088h7.97M266.35 67.088h7.97M290.261 67.088h7.97M338.082 67.088h7.97M409.814 67.088h7.97M425.755 67.088h7.97M449.665 67.088h7.97M457.635 67.088h7.97M11.303 67.088v-7.97M19.274 67.088v-7.97M35.214 67.088v-7.97M43.184 67.088v-7.97M59.125 67.088v-7.97M67.095 67.088v-7.97M75.065 67.088v-7.97M83.035 67.088v-7.97M98.976 67.088v-7.97M122.886 67.088v-7.97M138.827 67.088v-7.97M162.738 67.088v-7.97M170.708 67.088v-7.97M178.678 67.088v-7.97M202.589 67.088v-7.97M210.559 67.088v-7.97M218.529 67.088v-7.97M226.5 67.088v-7.97M234.47 67.088v-7.97M242.44 67.088v-7.97M250.41 67.088v-7.97M266.35 67.088v-7.97M282.29 67.088v-7.97M290.261 67.088v-7.97M298.231 67.088v-7.97M314.172 67.088v-7.97M322.142 67.088v-7.97M330.112 67.088v-7.97M346.052 67.088v-7.97M354.023 67.088v-7.97M361.993 67.088v-7.97M377.933 67.088v-7.97M385.904 67.088v-7.97M401.844 67.088v-7.97M417.784 67.088v-7.97M425.755 67.088v-7.97M441.695 67.088v-7.97M449.665 67.088v-7.97M465.606 67.088v-7.97M481.546 67.088v-7.97M489.516 67.088v-7.97M497.487 67.088v-7.97M505.457 67.088v-7.97M19.274 59.118h7.97M27.244 59.118h7.97M43.184 59.118h7.97M51.154 59.118h7.97M106.946 59.118h7.97M122.886 59.118h7.97M130.857 59.118h7.97M146.797 59.118h7.97M154.767 59.118h7.97M162.738 59.118h7.97M178.678 59.118h7.97M186.648 59.118h7.97M226.5 59.118h7.97M274.32 59.118h7.97M298.231 59.118h7.97M306.201 59.118h7.97M314.172 59.118h7.97M330.112 59.118h7.97M361.993 59.118h7.97M369.963 59.118h7.97M393.874 59.118h7.97M401.844 59.118h7.97M465.606 59.118h7.97M473.576 59.118h7.97M11.303 59.118v-7.97M43.184 59.118v-7.97M59.125 59.118v-7.97M75.065 59.118v-7.97M91.006 59.118v-7.97M98.976 59.118v-7.97M114.916 59.118v-7.97M138.827 59.118v-7.97M154.767 59.118v-7.97M170.708 59.118v-7.97M194.618 59.118v-7.97M202.589 59.118v-7.97M210.559 59.118v-7.97M218.529 59.118v-7.97M234.47 59.118v-7.97M242.44 59.118v-7.97M250.41 59.118v-7.97M258.38 59.118v-7.97M266.35 59.118v-7.97M274.32 59.118v-7.97M290.261 59.118v-7.97M298.231 59.118v-7.97M306.201 59.118v-7.97M322.142 59.118v-7.97M330.112 59.118v-7.97M338.082 59.118v-7.97M346.052 59.118v-7.97M354.023 59.118v-7.97M369.963 59.118v-7.97M385.904 59.118v-7.97M393.874 59.118v-7.97M409.814 59.118v-7.97M417.784 59.118v-7.97M425.755 59.118v-7.97M433.725 59.118v-7.97M441.695 59.118v-7.97M457.635 59.118v-7.97M465.606 59.118v-7.97M481.546 59.118v-7.97M489.516 59.118v-7.97M497.487 59.118v-7.97M11.303 51.147h7.97M19.274 51.147h7.97M27.244 51.147h7.97M35.214 51.147h7.97M67.095 51.147h7.97M75.065 51.147h7.97M83.035 51.147h7.97M98.976 51.147h7.97M106.946 51.147h7.97M114.916 51.147h7.97M122.886 51.147h7.97M170.708 51.147h7.97M178.678 51.147h7.97M218.529 51.147h7.97M377.933 51.147h7.97M441.695 51.147h7.97M449.665 51.147h7.97M497.487 51.147h7.97M27.244 51.147v-7.97M43.184 51.147v-7.97M51.154 51.147v-7.97M59.125 51.147v-7.97M67.095 51.147v-7.97M83.035 51.147v-7.97M130.857 51.147v-7.97M138.827 51.147v-7.97M146.797 51.147v-7.97M154.767 51.147v-7.97M162.738 51.147v-7.97M194.618 51.147v-7.97M202.589 51.147v-7.97M210.559 51.147v-7.97M226.5 51.147v-7.97M234.47 51.147v-7.97M250.41 51.147v-7.97M258.38 51.147v-7.97M266.35 51.147v-7.97M274.32 51.147v-7.97M282.29 51.147v-7.97M290.261 51.147v-7.97M306.201 51.147v-7.97M314.172 51.147v-7.97M330.112 51.147v-7.97M338.082 51.147v-7.97M346.052 51.147v-7.97M361.993 51.147v-7.97M369.963 51.147v-7.97M377.933 51.147v-7.97M393.874 51.147v-7.97M401.844 51.147v-7.97M409.814 51.147v-7.97M417.784 51.147v-7.97M425.755 51.147v-7.97M433.725 51.147v-7.97M441.695 51.147v-7.97M457.635 51.147v-7.97M465.606 51.147v-7.97M473.576 51.147v-7.97M489.516 51.147v-7.97M497.487 51.147v-7.97M3.333 43.177h7.97M11.303 43.177h7.97M43.184 43.177h7.97M83.035 43.177h7.97M91.006 43.177h7.97M106.946 43.177h7.97M114.916 43.177h7.97M162.738 43.177h7.97M170.708 43.177h7.97M178.678 43.177h7.97M186.648 43.177h7.97M210.559 43.177h7.97M226.5 43.177h7.97M250.41 43.177h7.97M274.32 43.177h7.97M306.201 43.177h7.97M314.172 43.177h7.97M322.142 43.177h7.97M346.052 43.177h7.97M354.023 43.177h7.97M369.963 43.177h7.97M385.904 43.177h7.97M393.874 43.177h7.97M465.606 43.177h7.97M473.576 43.177h7.97M481.546 43.177h7.97M505.457 43.177h7.97M19.274 43.177v-7.97M27.244 43.177v-7.97M35.214 43.177v-7.97M51.154 43.177v-7.97M67.095 43.177v-7.97M75.065 43.177v-7.97M98.976 43.177v-7.97M106.946 43.177v-7.97M122.886 43.177v-7.97M130.857 43.177v-7.97M146.797 43.177v-7.97M154.767 43.177v-7.97M170.708 43.177v-7.97M186.648 43.177v-7.97M202.589 43.177v-7.97M218.529 43.177v-7.97M242.44 43.177v-7.97M250.41 43.177v-7.97M266.35 43.177v-7.97M274.32 43.177v-7.97M290.261 43.177v-7.97M298.231 43.177v-7.97M330.112 43.177v-7.97M338.082 43.177v-7.97M346.052 43.177v-7.97M369.963 43.177v-7.97M393.874 43.177v-7.97M409.814 43.177v-7.97M417.784 43.177v-7.97M433.725 43.177v-7.97M449.665 43.177v-7.97M457.635 43.177v-7.97M489.516 43.177v-7.97M497.487 43.177v-7.97M19.274 35.207h7.97M35.214 35.207h7.97M51.154 35.207h7.97M75.065 35.207h7.97M83.035 35.207h7.97M98.976 35.207h7.97M130.857 35.207h7.97M138.827 35.207h7.97M154.767 35.207h7.97M194.618 35.207h7.97M202.589 35.207h7.97M210.559 35.207h7.97M218.529 35.207h7.97M226.5 35.207h7.97M234.47 35.207h7.97M242.44 35.207h7.97M282.29 35.207h7.971M290.261 35.207h7.97M298.231 35.207h7.97M306.201 35.207h7.97M322.142 35.207h7.97M354.023 35.207h7.97M361.993 35.207h7.97M377.933 35.207h7.97M401.844 35.207h7.97M417.784 35.207h7.97M425.755 35.207h7.97M433.725 35.207h7.97M441.695 35.207h7.97M457.635 35.207h7.97M465.606 35.207h7.97M473.576 35.207h7.97M11.303 35.207v-7.97M19.274 35.207v-7.97M35.214 35.207v-7.97M43.184 35.207v-7.97M59.125 35.207v-7.97M67.095 35.207v-7.97M75.065 35.207v-7.97M91.006 35.207v-7.97M106.946 35.207v-7.97M114.916 35.207v-7.97M122.886 35.207v-7.97M130.857 35.207v-7.97M146.797 35.207v-7.97M154.767 35.207v-7.97M170.708 35.207v-7.97M178.678 35.207v-7.97M186.648 35.207v-7.97M194.618 35.207v-7.97M218.529 35.207v-7.97M234.47 35.207v-7.97M250.41 35.207v-7.97M258.38 35.207v-7.97M266.35 35.207v-7.97M274.32 35.207v-7.97M282.29 35.207v-7.97M314.172 35.207v-7.97M330.112 35.207v-7.97M346.052 35.207v-7.97M369.963 35.207v-7.97M385.904 35.207v-7.97M393.874 35.207v-7.97M401.844 35.207v-7.97M417.784 35.207v-7.97M449.665 35.207v-7.97M465.606 35.207v-7.97M481.546 35.207v-7.97M489.516 35.207v-7.97M497.487 35.207v-7.97M505.457 35.207v-7.97M3.333 27.237h7.97M43.184 27.237h7.97M59.125 27.237h7.97M75.065 27.237h7.97M106.946 27.237h7.97M122.886 27.237h7.97M162.738 27.237h7.97M178.678 27.237h7.97M194.618 27.237h7.97M202.589 27.237h7.97M218.529 27.237h7.97M234.47 27.237h7.97M290.261 27.237h7.97M298.231 27.237h7.97M314.172 27.237h7.97M338.082 27.237h7.97M346.052 27.237h7.97M354.023 27.237h7.97M369.963 27.237h7.97M409.814 27.237h7.97M425.755 27.237h7.97M433.725 27.237h7.97M449.665 27.237h7.97M465.606 27.237h7.97M497.487 27.237h7.97M19.274 27.237v-7.97M27.244 27.237v-7.97M35.214 27.237v-7.97M43.184 27.237v-7.97M51.154 27.237v-7.97M59.125 27.237v-7.97M75.065 27.237v-7.97M91.006 27.237v-7.97M98.976 27.237v-7.97M114.916 27.237v-7.97M130.857 27.237v-7.97M138.827 27.237v-7.97M154.767 27.237v-7.97M170.708 27.237v-7.97M186.648 27.237v-7.97M210.559 27.237v-7.97M226.5 27.237v-7.97M242.44 27.237v-7.97M258.38 27.237v-7.97M266.35 27.237v-7.97M274.32 27.237v-7.97M290.261 27.237v-7.97M306.201 27.237v-7.97M314.172 27.237v-7.97M346.052 27.237v-7.97M361.993 27.237v-7.97M377.933 27.237v-7.97M385.904 27.237v-7.97M393.874 27.237v-7.97M401.844 27.237v-7.97M409.814 27.237v-7.97M425.755 27.237v-7.97M441.695 27.237v-7.97M449.665 27.237v-7.97M465.606 27.237v-7.97M481.546 27.237v-7.97M489.516 27.237v-7.97M497.487 27.237v-7.97M83.035 19.266h7.97M98.976 19.266h7.97M114.916 19.266h7.97M146.797 19.266h7.97M154.767 19.266h7.97M170.708 19.266h7.97M194.618 19.266h7.97M210.559 19.266h7.97M226.5 19.266h7.97M242.44 19.266h7.97M250.41 19.266h7.97M274.32 19.266h7.97M282.29 19.266h7.971M298.231 19.266h7.97M322.142 19.266h7.97M330.112 19.266h7.97M361.993 19.266h7.97M417.784 19.266h7.97M433.725 19.266h7.97M473.576 19.266h7.97M11.303 19.266v-7.97M19.274 19.266v-7.97M27.244 19.266v-7.97M35.214 19.266v-7.97M51.154 19.266v-7.97M59.125 19.266v-7.97M67.095 19.266v-7.97M75.065 19.266v-7.97M98.976 19.266v-7.97M122.886 19.266v-7.97M138.827 19.266v-7.97M146.797 19.266v-7.97M170.708 19.266v-7.97M186.648 19.266v-7.97M194.618 19.266v-7.97M202.589 19.266v-7.97M210.559 19.266v-7.97M218.529 19.266v-7.97M234.47 19.266v-7.97M250.41 19.266v-7.97M266.35 19.266v-7.97M282.29 19.266v-7.97M314.172 19.266v-7.97M338.082 19.266v-7.97M346.052 19.266v-7.97M354.023 19.266v-7.97M361.993 19.266v-7.97M377.933 19.266v-7.97M385.904 19.266v-7.97M393.874 19.266v-7.97M401.844 19.266v-7.97M409.814 19.266v-7.97M433.725 19.266v-7.97M449.665 19.266v-7.97M457.635 19.266v-7.97M465.606 19.266v-7.97M473.576 19.266v-7.97M481.546 19.266v-7.97M489.516 19.266v-7.97M497.487 19.266v-7.97M505.457 19.266v-7.97M11.303 11.296h7.97M35.214 11.296h7.97M59.125 11.296h7.97M83.035 11.296h7.97M91.006 11.296h7.97M98.976 11.296h7.97M106.946 11.296h7.97M122.886 11.296h7.97M154.767 11.296h7.97M162.738 11.296h7.97M178.678 11.296h7.97M234.47 11.296h7.97M258.38 11.296h7.97M266.35 11.296h7.97M290.261 11.296h7.97M298.231 11.296h7.97M306.201 11.296h7.97M314.172 11.296h7.97M322.142 11.296h7.97M369.963 11.296h7.97M409.814 11.296h7.97M417.784 11.296h7.97M441.695 11.296h7.97M449.665 11.296h7.97M497.487 11.296h7.97M27.244 11.296v-7.97M51.154 11.296v-7.97M75.065 11.296v-7.97M114.916 11.296v-7.97M138.827 11.296v-7.97M154.767 11.296v-7.97M194.618 11.296v-7.97M210.559 11.296v-7.97M226.5 11.296v-7.97M282.29 11.296v-7.97M338.082 11.296v-7.97M354.023 11.296v-7.97M369.963 11.296v-7.97M385.904 11.296v-7.97M401.844 11.296v-7.97M433.725 11.296v-7.97M465.606 11.296v-7.97M489.516 11.296v-7.97M3.333 3.326h510.094M3.333 513.42h510.094M3.333 513.42V11.296M513.427 505.45V3.326" />
    </g>
</svg>
