<svg width="800" height="800" xmlns="http://www.w3.org/2000/svg">
 <path fill="#e61a1a"
  d="M250 476c12 54 12 54 66 42 126-28 124-122 114-167s-48-131-174-103c-54 12-54 12-42 66l36 162Zm-45 10-36-162c-20-90-83-76 79-112 180-40 231 62 241 107l8 36c10 45 7 159-173 199-162 36-99 22-119-68Z" />
 <path fill="#80cc33"
  d="M651 283c22 99-16 353-178 389-54 12-116-12-120-30l-16-72c-2-9-2-9 7-11 3-1 6-1 9-2 9-2 50 55 104 43 171-38 181-248 169-302-2-9-44-28-48-46s21-33 39-37 38 1 40 10c4 18-26 30-30 35 5 4 22 14 24 23Z" />
</svg>
