<?xml version="1.0" encoding="UTF-8"?>
<!DOCTYPE svg PUBLIC "-//W3C//DTD SVG 1.1//EN" "http://www.w3.org/Graphics/SVG/1.1/DTD/svg11.dtd">
<svg version="1.2" width="100mm" height="100mm" viewBox="0 0 10000 10000" preserveAspectRatio="xMidYMid" fill-rule="evenodd" stroke-width="28.222" stroke-linejoin="round" xmlns="http://www.w3.org/2000/svg" xmlns:ooo="http://xml.openoffice.org/svg/export" xmlns:xlink="http://www.w3.org/1999/xlink" xmlns:presentation="http://sun.com/xmlns/staroffice/presentation" xmlns:smil="http://www.w3.org/2001/SMIL20/" xmlns:anim="urn:oasis:names:tc:opendocument:xmlns:animation:1.0" xml:space="preserve">
 <defs class="ClipPathGroup">
  <clipPath id="presentation_clip_path" clipPathUnits="userSpaceOnUse">
   <rect x="0" y="0" width="10000" height="10000"/>
  </clipPath>
  <clipPath id="presentation_clip_path_shrink" clipPathUnits="userSpaceOnUse">
   <rect x="10" y="10" width="9980" height="9980"/>
  </clipPath>
 </defs>
 <defs class="TextShapeIndex">
  <g ooo:slide="id1" ooo:id-list="id3 id4 id5 id6 id7 id8 id9 id10 id11 id12 id13 id14 id15 id16 id17 id18 id19 id20 id21 id22 id23 id24 id25 id26 id27 id28 id29 id30 id31 id32 id33 id34 id35 id36 id37 id38"/>
 </defs>
 <defs class="EmbeddedBulletChars">
  <g id="bullet-char-template-57356" transform="scale(0.00048828125,-0.00048828125)">
   <path d="M 580,1141 L 1163,571 580,0 -4,571 580,1141 Z"/>
  </g>
  <g id="bullet-char-template-57354" transform="scale(0.00048828125,-0.00048828125)">
   <path d="M 8,1128 L 1137,1128 1137,0 8,0 8,1128 Z"/>
  </g>
  <g id="bullet-char-template-10146" transform="scale(0.00048828125,-0.00048828125)">
   <path d="M 174,0 L 602,739 174,1481 1456,739 174,0 Z M 1358,739 L 309,1346 659,739 1358,739 Z"/>
  </g>
  <g id="bullet-char-template-10132" transform="scale(0.00048828125,-0.00048828125)">
   <path d="M 2015,739 L 1276,0 717,0 1260,543 174,543 174,936 1260,936 717,1481 1274,1481 2015,739 Z"/>
  </g>
  <g id="bullet-char-template-10007" transform="scale(0.00048828125,-0.00048828125)">
   <path d="M 0,-2 C -7,14 -16,27 -25,37 L 356,567 C 262,823 215,952 215,954 215,979 228,992 255,992 264,992 276,990 289,987 310,991 331,999 354,1012 L 381,999 492,748 772,1049 836,1024 860,1049 C 881,1039 901,1025 922,1006 886,937 835,863 770,784 769,783 710,716 594,584 L 774,223 C 774,196 753,168 711,139 L 727,119 C 717,90 699,76 672,76 641,76 570,178 457,381 L 164,-76 C 142,-110 111,-127 72,-127 30,-127 9,-110 8,-76 1,-67 -2,-52 -2,-32 -2,-23 -1,-13 0,-2 Z"/>
  </g>
  <g id="bullet-char-template-10004" transform="scale(0.00048828125,-0.00048828125)">
   <path d="M 285,-33 C 182,-33 111,30 74,156 52,228 41,333 41,471 41,549 55,616 82,672 116,743 169,778 240,778 293,778 328,747 346,684 L 369,508 C 377,444 397,411 428,410 L 1163,1116 C 1174,1127 1196,1133 1229,1133 1271,1133 1292,1118 1292,1087 L 1292,965 C 1292,929 1282,901 1262,881 L 442,47 C 390,-6 338,-33 285,-33 Z"/>
  </g>
  <g id="bullet-char-template-9679" transform="scale(0.00048828125,-0.00048828125)">
   <path d="M 813,0 C 632,0 489,54 383,161 276,268 223,411 223,592 223,773 276,916 383,1023 489,1130 632,1184 813,1184 992,1184 1136,1130 1245,1023 1353,916 1407,772 1407,592 1407,412 1353,268 1245,161 1136,54 992,0 813,0 Z"/>
  </g>
  <g id="bullet-char-template-8226" transform="scale(0.00048828125,-0.00048828125)">
   <path d="M 346,457 C 273,457 209,483 155,535 101,586 74,649 74,723 74,796 101,859 155,911 209,963 273,989 346,989 419,989 480,963 531,910 582,859 608,796 608,723 608,648 583,586 532,535 482,483 420,457 346,457 Z"/>
  </g>
  <g id="bullet-char-template-8211" transform="scale(0.00048828125,-0.00048828125)">
   <path d="M -4,459 L 1135,459 1135,606 -4,606 -4,459 Z"/>
  </g>
  <g id="bullet-char-template-61548" transform="scale(0.00048828125,-0.00048828125)">
   <path d="M 173,740 C 173,903 231,1043 346,1159 462,1274 601,1332 765,1332 928,1332 1067,1274 1183,1159 1299,1043 1357,903 1357,740 1357,577 1299,437 1183,322 1067,206 928,148 765,148 601,148 462,206 346,322 231,437 173,577 173,740 Z"/>
  </g>
 </defs>
 <g>
  <g id="id2" class="Master_Slide">
   <g id="bg-id2" class="Background"/>
   <g id="bo-id2" class="BackgroundObjects"/>
  </g>
 </g>
 <g class="SlideGroup">
  <g>
   <g id="container-id1">
    <g id="id1" class="Slide" clip-path="url(#presentation_clip_path)">
     <g class="Page">
      <g class="Group">
       <g class="com.sun.star.drawing.ClosedBezierShape">
        <g id="id3">
         <rect class="BoundingBox" stroke="none" fill="none" x="679" y="854" width="683" height="1243"/>
         <path fill="rgb(51,51,51)" stroke="none" d="M 679,2096 L 679,1967 955,1967 955,1041 736,1041 736,944 C 837,926 923,896 993,854 L 1111,854 1111,1967 1360,1967 1360,2096 679,2096 Z"/>
        </g>
       </g>
       <g class="com.sun.star.drawing.ClosedBezierShape">
        <g id="id4">
         <rect class="BoundingBox" stroke="none" fill="none" x="1679" y="854" width="683" height="1243"/>
         <path fill="rgb(51,51,51)" stroke="none" d="M 1679,2096 L 1679,1967 1955,1967 1955,1041 1736,1041 1736,944 C 1837,926 1923,896 1993,854 L 2111,854 2111,1967 2360,1967 2360,2096 1679,2096 Z"/>
        </g>
       </g>
       <g class="com.sun.star.drawing.ClosedBezierShape">
        <g id="id5">
         <rect class="BoundingBox" stroke="none" fill="none" x="2613" y="831" width="775" height="1288"/>
         <path fill="rgb(51,51,51)" stroke="none" d="M 3002,2118 C 2880,2117 2785,2063 2717,1953 2648,1843 2613,1683 2613,1471 2613,1261 2648,1101 2717,993 2785,885 2880,831 3002,831 3122,831 3216,885 3284,993 3353,1101 3387,1261 3387,1471 3387,1683 3353,1843 3284,1953 3216,2063 3122,2117 3002,2118 Z M 3002,1995 C 3074,1995 3132,1952 3174,1865 3216,1779 3236,1647 3236,1471 3236,1297 3216,1168 3174,1083 3133,999 3076,957 3002,957 2928,957 2870,999 2827,1083 2785,1168 2764,1297 2764,1471 2764,1647 2785,1779 2827,1865 2870,1952 2928,1995 3002,1995 Z"/>
        </g>
       </g>
       <g class="com.sun.star.drawing.ClosedBezierShape">
        <g id="id6">
         <rect class="BoundingBox" stroke="none" fill="none" x="3678" y="854" width="683" height="1243"/>
         <path fill="rgb(51,51,51)" stroke="none" d="M 3678,2096 L 3678,1967 3954,1967 3954,1041 3735,1041 3735,944 C 3836,926 3922,896 3992,854 L 4110,854 4110,1967 4359,1967 4359,2096 3678,2096 Z"/>
        </g>
       </g>
       <g class="com.sun.star.drawing.ClosedBezierShape">
        <g id="id7">
         <rect class="BoundingBox" stroke="none" fill="none" x="4612" y="831" width="775" height="1288"/>
         <path fill="rgb(51,51,51)" stroke="none" d="M 5001,2118 C 4879,2117 4784,2063 4716,1953 4647,1843 4612,1683 4612,1471 4612,1261 4647,1101 4716,993 4784,885 4879,831 5001,831 5121,831 5215,885 5283,993 5352,1101 5386,1261 5386,1471 5386,1683 5352,1843 5283,1953 5215,2063 5121,2117 5001,2118 Z M 5001,1995 C 5073,1995 5131,1952 5173,1865 5215,1779 5235,1647 5235,1471 5235,1297 5215,1168 5173,1083 5132,999 5075,957 5001,957 4927,957 4869,999 4826,1083 4784,1168 4763,1297 4763,1471 4763,1647 4784,1779 4826,1865 4869,1952 4927,1995 5001,1995 Z"/>
        </g>
       </g>
       <g class="com.sun.star.drawing.ClosedBezierShape">
        <g id="id8">
         <rect class="BoundingBox" stroke="none" fill="none" x="5678" y="854" width="683" height="1243"/>
         <path fill="rgb(51,51,51)" stroke="none" d="M 5678,2096 L 5678,1967 5954,1967 5954,1041 5735,1041 5735,944 C 5836,926 5922,896 5992,854 L 6110,854 6110,1967 6359,1967 6359,2096 5678,2096 Z"/>
        </g>
       </g>
       <g class="com.sun.star.drawing.ClosedBezierShape">
        <g id="id9">
         <rect class="BoundingBox" stroke="none" fill="none" x="6612" y="831" width="775" height="1288"/>
         <path fill="rgb(51,51,51)" stroke="none" d="M 7001,2118 C 6879,2117 6784,2063 6716,1953 6647,1843 6612,1683 6612,1471 6612,1261 6647,1101 6716,993 6784,885 6879,831 7001,831 7121,831 7215,885 7283,993 7352,1101 7386,1261 7386,1471 7386,1683 7352,1843 7283,1953 7215,2063 7121,2117 7001,2118 Z M 7001,1995 C 7073,1995 7131,1952 7173,1865 7215,1779 7235,1647 7235,1471 7235,1297 7215,1168 7173,1083 7132,999 7075,957 7001,957 6927,957 6869,999 6826,1083 6784,1168 6763,1297 6763,1471 6763,1647 6784,1779 6826,1865 6869,1952 6927,1995 7001,1995 Z"/>
        </g>
       </g>
       <g class="com.sun.star.drawing.ClosedBezierShape">
        <g id="id10">
         <rect class="BoundingBox" stroke="none" fill="none" x="7678" y="854" width="683" height="1243"/>
         <path fill="rgb(51,51,51)" stroke="none" d="M 7678,2096 L 7678,1967 7954,1967 7954,1041 7735,1041 7735,944 C 7836,926 7922,896 7992,854 L 8110,854 8110,1967 8359,1967 8359,2096 7678,2096 Z"/>
        </g>
       </g>
       <g class="com.sun.star.drawing.ClosedBezierShape">
        <g id="id11">
         <rect class="BoundingBox" stroke="none" fill="none" x="8677" y="854" width="683" height="1243"/>
         <path fill="rgb(51,51,51)" stroke="none" d="M 8677,2096 L 8677,1967 8953,1967 8953,1041 8734,1041 8734,944 C 8835,926 8921,896 8991,854 L 9109,854 9109,1967 9358,1967 9358,2096 8677,2096 Z"/>
        </g>
       </g>
       <g class="com.sun.star.drawing.ClosedBezierShape">
        <g id="id12">
         <rect class="BoundingBox" stroke="none" fill="none" x="613" y="3193" width="775" height="1288"/>
         <path fill="rgb(51,51,51)" stroke="none" d="M 1002,4480 C 880,4479 785,4425 717,4315 648,4205 613,4045 613,3833 613,3623 648,3463 717,3355 785,3247 880,3193 1002,3193 1122,3193 1216,3247 1284,3355 1353,3463 1387,3623 1387,3833 1387,4045 1353,4205 1284,4315 1216,4425 1122,4479 1002,4480 Z M 1002,4357 C 1074,4357 1132,4314 1174,4227 1216,4141 1236,4009 1236,3833 1236,3659 1216,3530 1174,3445 1133,3361 1076,3319 1002,3319 928,3319 870,3361 827,3445 785,3530 764,3659 764,3833 764,4009 785,4141 827,4227 870,4314 928,4357 1002,4357 Z"/>
        </g>
       </g>
       <g class="com.sun.star.drawing.ClosedBezierShape">
        <g id="id13">
         <rect class="BoundingBox" stroke="none" fill="none" x="1613" y="3193" width="775" height="1288"/>
         <path fill="rgb(51,51,51)" stroke="none" d="M 2002,4480 C 1880,4479 1785,4425 1716,4315 1648,4205 1613,4045 1613,3833 1613,3623 1648,3463 1716,3355 1785,3247 1880,3193 2002,3193 2122,3193 2216,3247 2284,3355 2353,3463 2387,3623 2387,3833 2387,4045 2353,4205 2284,4315 2216,4425 2122,4479 2002,4480 Z M 2002,4357 C 2074,4357 2132,4314 2174,4227 2216,4141 2236,4009 2236,3833 2236,3659 2216,3530 2174,3445 2133,3361 2076,3319 2002,3319 1928,3319 1870,3361 1827,3445 1785,3530 1764,3659 1764,3833 1764,4009 1785,4141 1827,4227 1870,4314 1928,4357 2002,4357 Z"/>
        </g>
       </g>
       <g class="com.sun.star.drawing.ClosedBezierShape">
        <g id="id14">
         <rect class="BoundingBox" stroke="none" fill="none" x="2679" y="3216" width="683" height="1243"/>
         <path fill="rgb(51,51,51)" stroke="none" d="M 2679,4458 L 2679,4329 2955,4329 2955,3403 2736,3403 2736,3306 C 2837,3288 2923,3258 2993,3216 L 3111,3216 3111,4329 3360,4329 3360,4458 2679,4458 Z"/>
        </g>
       </g>
       <g class="com.sun.star.drawing.ClosedBezierShape">
        <g id="id15">
         <rect class="BoundingBox" stroke="none" fill="none" x="3612" y="3193" width="775" height="1288"/>
         <path fill="rgb(51,51,51)" stroke="none" d="M 4001,4480 C 3879,4479 3784,4425 3716,4315 3647,4205 3612,4045 3612,3833 3612,3623 3647,3463 3716,3355 3784,3247 3879,3193 4001,3193 4121,3193 4215,3247 4283,3355 4352,3463 4386,3623 4386,3833 4386,4045 4352,4205 4283,4315 4215,4425 4121,4479 4001,4480 Z M 4001,4357 C 4073,4357 4131,4314 4173,4227 4215,4141 4235,4009 4235,3833 4235,3659 4215,3530 4173,3445 4132,3361 4075,3319 4001,3319 3927,3319 3869,3361 3826,3445 3784,3530 3763,3659 3763,3833 3763,4009 3784,4141 3826,4227 3869,4314 3927,4357 4001,4357 Z"/>
        </g>
       </g>
       <g class="com.sun.star.drawing.ClosedBezierShape">
        <g id="id16">
         <rect class="BoundingBox" stroke="none" fill="none" x="4678" y="3216" width="683" height="1243"/>
         <path fill="rgb(51,51,51)" stroke="none" d="M 4678,4458 L 4678,4329 4954,4329 4954,3403 4735,3403 4735,3306 C 4836,3288 4922,3258 4992,3216 L 5110,3216 5110,4329 5359,4329 5359,4458 4678,4458 Z"/>
        </g>
       </g>
       <g class="com.sun.star.drawing.ClosedBezierShape">
        <g id="id17">
         <rect class="BoundingBox" stroke="none" fill="none" x="5678" y="3216" width="683" height="1243"/>
         <path fill="rgb(51,51,51)" stroke="none" d="M 5678,4458 L 5678,4329 5954,4329 5954,3403 5735,3403 5735,3306 C 5836,3288 5922,3258 5992,3216 L 6110,3216 6110,4329 6359,4329 6359,4458 5678,4458 Z"/>
        </g>
       </g>
       <g class="com.sun.star.drawing.ClosedBezierShape">
        <g id="id18">
         <rect class="BoundingBox" stroke="none" fill="none" x="6612" y="3193" width="775" height="1288"/>
         <path fill="rgb(51,51,51)" stroke="none" d="M 7001,4480 C 6879,4479 6784,4425 6716,4315 6647,4205 6612,4045 6612,3833 6612,3623 6647,3463 6716,3355 6784,3247 6879,3193 7001,3193 7121,3193 7215,3247 7283,3355 7352,3463 7386,3623 7386,3833 7386,4045 7352,4205 7283,4315 7215,4425 7121,4479 7001,4480 Z M 7001,4357 C 7073,4357 7131,4314 7173,4227 7215,4141 7235,4009 7235,3833 7235,3659 7215,3530 7173,3445 7132,3361 7075,3319 7001,3319 6927,3319 6869,3361 6826,3445 6784,3530 6763,3659 6763,3833 6763,4009 6784,4141 6826,4227 6869,4314 6927,4357 7001,4357 Z"/>
        </g>
       </g>
       <g class="com.sun.star.drawing.ClosedBezierShape">
        <g id="id19">
         <rect class="BoundingBox" stroke="none" fill="none" x="7612" y="3193" width="775" height="1288"/>
         <path fill="rgb(51,51,51)" stroke="none" d="M 8001,4480 C 7879,4479 7784,4425 7716,4315 7647,4205 7612,4045 7612,3833 7612,3623 7647,3463 7716,3355 7784,3247 7879,3193 8001,3193 8121,3193 8215,3247 8283,3355 8352,3463 8386,3623 8386,3833 8386,4045 8352,4205 8283,4315 8215,4425 8121,4479 8001,4480 Z M 8001,4357 C 8073,4357 8131,4314 8173,4227 8215,4141 8235,4009 8235,3833 8235,3659 8215,3530 8173,3445 8132,3361 8075,3319 8001,3319 7927,3319 7869,3361 7826,3445 7784,3530 7763,3659 7763,3833 7763,4009 7784,4141 7826,4227 7869,4314 7927,4357 8001,4357 Z"/>
        </g>
       </g>
       <g class="com.sun.star.drawing.ClosedBezierShape">
        <g id="id20">
         <rect class="BoundingBox" stroke="none" fill="none" x="8677" y="3216" width="683" height="1243"/>
         <path fill="rgb(51,51,51)" stroke="none" d="M 8677,4458 L 8677,4329 8953,4329 8953,3403 8734,3403 8734,3306 C 8835,3288 8921,3258 8991,3216 L 9109,3216 9109,4329 9358,4329 9358,4458 8677,4458 Z"/>
        </g>
       </g>
       <g class="com.sun.star.drawing.ClosedBezierShape">
        <g id="id21">
         <rect class="BoundingBox" stroke="none" fill="none" x="613" y="5555" width="775" height="1288"/>
         <path fill="rgb(51,51,51)" stroke="none" d="M 1002,6841 C 880,6841 785,6787 717,6677 648,6567 613,6407 613,6195 613,5985 648,5825 717,5717 785,5609 880,5555 1002,5555 1122,5555 1216,5609 1284,5717 1353,5825 1387,5985 1387,6195 1387,6407 1353,6567 1284,6677 1216,6787 1122,6841 1002,6841 Z M 1002,6719 C 1074,6719 1132,6676 1174,6589 1216,6503 1236,6371 1236,6195 1236,6021 1216,5892 1174,5807 1133,5723 1076,5681 1002,5681 928,5681 870,5723 827,5807 785,5892 764,6021 764,6195 764,6371 785,6503 827,6589 870,6676 928,6719 1002,6719 Z"/>
        </g>
       </g>
       <g class="com.sun.star.drawing.ClosedBezierShape">
        <g id="id22">
         <rect class="BoundingBox" stroke="none" fill="none" x="1679" y="5578" width="683" height="1243"/>
         <path fill="rgb(51,51,51)" stroke="none" d="M 1679,6820 L 1679,6691 1955,6691 1955,5765 1736,5765 1736,5668 C 1837,5650 1923,5620 1993,5578 L 2111,5578 2111,6691 2360,6691 2360,6820 1679,6820 Z"/>
        </g>
       </g>
       <g class="com.sun.star.drawing.ClosedBezierShape">
        <g id="id23">
         <rect class="BoundingBox" stroke="none" fill="none" x="2613" y="5555" width="775" height="1288"/>
         <path fill="rgb(51,51,51)" stroke="none" d="M 3002,6841 C 2880,6841 2785,6787 2717,6677 2648,6567 2613,6407 2613,6195 2613,5985 2648,5825 2717,5717 2785,5609 2880,5555 3002,5555 3122,5555 3216,5609 3284,5717 3353,5825 3387,5985 3387,6195 3387,6407 3353,6567 3284,6677 3216,6787 3122,6841 3002,6841 Z M 3002,6719 C 3074,6719 3132,6676 3174,6589 3216,6503 3236,6371 3236,6195 3236,6021 3216,5892 3174,5807 3133,5723 3076,5681 3002,5681 2928,5681 2870,5723 2827,5807 2785,5892 2764,6021 2764,6195 2764,6371 2785,6503 2827,6589 2870,6676 2928,6719 3002,6719 Z"/>
        </g>
       </g>
       <g class="com.sun.star.drawing.ClosedBezierShape">
        <g id="id24">
         <rect class="BoundingBox" stroke="none" fill="none" x="3678" y="5578" width="683" height="1243"/>
         <path fill="rgb(51,51,51)" stroke="none" d="M 3678,6820 L 3678,6691 3954,6691 3954,5765 3735,5765 3735,5668 C 3836,5650 3922,5620 3992,5578 L 4110,5578 4110,6691 4359,6691 4359,6820 3678,6820 Z"/>
        </g>
       </g>
       <g class="com.sun.star.drawing.ClosedBezierShape">
        <g id="id25">
         <rect class="BoundingBox" stroke="none" fill="none" x="4678" y="5578" width="683" height="1243"/>
         <path fill="rgb(51,51,51)" stroke="none" d="M 4678,6820 L 4678,6691 4954,6691 4954,5765 4735,5765 4735,5668 C 4836,5650 4922,5620 4992,5578 L 5110,5578 5110,6691 5359,6691 5359,6820 4678,6820 Z"/>
        </g>
       </g>
       <g class="com.sun.star.drawing.ClosedBezierShape">
        <g id="id26">
         <rect class="BoundingBox" stroke="none" fill="none" x="5678" y="5578" width="683" height="1243"/>
         <path fill="rgb(51,51,51)" stroke="none" d="M 5678,6820 L 5678,6691 5954,6691 5954,5765 5735,5765 5735,5668 C 5836,5650 5922,5620 5992,5578 L 6110,5578 6110,6691 6359,6691 6359,6820 5678,6820 Z"/>
        </g>
       </g>
       <g class="com.sun.star.drawing.ClosedBezierShape">
        <g id="id27">
         <rect class="BoundingBox" stroke="none" fill="none" x="6612" y="5555" width="775" height="1288"/>
         <path fill="rgb(51,51,51)" stroke="none" d="M 7001,6841 C 6879,6841 6784,6787 6716,6677 6647,6567 6612,6407 6612,6195 6612,5985 6647,5825 6716,5717 6784,5609 6879,5555 7001,5555 7121,5555 7215,5609 7283,5717 7352,5825 7386,5985 7386,6195 7386,6407 7352,6567 7283,6677 7215,6787 7121,6841 7001,6841 Z M 7001,6719 C 7073,6719 7131,6676 7173,6589 7215,6503 7235,6371 7235,6195 7235,6021 7215,5892 7173,5807 7132,5723 7075,5681 7001,5681 6927,5681 6869,5723 6826,5807 6784,5892 6763,6021 6763,6195 6763,6371 6784,6503 6826,6589 6869,6676 6927,6719 7001,6719 Z"/>
        </g>
       </g>
       <g class="com.sun.star.drawing.ClosedBezierShape">
        <g id="id28">
         <rect class="BoundingBox" stroke="none" fill="none" x="7678" y="5578" width="683" height="1243"/>
         <path fill="rgb(51,51,51)" stroke="none" d="M 7678,6820 L 7678,6691 7954,6691 7954,5765 7735,5765 7735,5668 C 7836,5650 7922,5620 7992,5578 L 8110,5578 8110,6691 8359,6691 8359,6820 7678,6820 Z"/>
        </g>
       </g>
       <g class="com.sun.star.drawing.ClosedBezierShape">
        <g id="id29">
         <rect class="BoundingBox" stroke="none" fill="none" x="8611" y="5555" width="775" height="1288"/>
         <path fill="rgb(51,51,51)" stroke="none" d="M 9000,6841 C 8878,6841 8783,6787 8715,6677 8646,6567 8611,6407 8611,6195 8611,5985 8646,5825 8715,5717 8783,5609 8878,5555 9000,5555 9120,5555 9214,5609 9282,5717 9351,5825 9385,5985 9385,6195 9385,6407 9351,6567 9282,6677 9214,6787 9120,6841 9000,6841 Z M 9000,6719 C 9072,6719 9130,6676 9172,6589 9214,6503 9234,6371 9234,6195 9234,6021 9214,5892 9172,5807 9131,5723 9074,5681 9000,5681 8926,5681 8868,5723 8825,5807 8783,5892 8762,6021 8762,6195 8762,6371 8783,6503 8825,6589 8868,6676 8926,6719 9000,6719 Z"/>
        </g>
       </g>
       <g class="com.sun.star.drawing.ClosedBezierShape">
        <g id="id30">
         <rect class="BoundingBox" stroke="none" fill="none" x="679" y="7940" width="683" height="1243"/>
         <path fill="rgb(51,51,51)" stroke="none" d="M 679,9182 L 679,9053 955,9053 955,8127 736,8127 736,8030 C 837,8012 923,7982 993,7940 L 1111,7940 1111,9053 1360,9053 1360,9182 679,9182 Z"/>
        </g>
       </g>
       <g class="com.sun.star.drawing.ClosedBezierShape">
        <g id="id31">
         <rect class="BoundingBox" stroke="none" fill="none" x="1613" y="7917" width="775" height="1288"/>
         <path fill="rgb(51,51,51)" stroke="none" d="M 2002,9204 C 1880,9203 1785,9149 1716,9039 1648,8929 1613,8769 1613,8557 1613,8347 1648,8187 1716,8079 1785,7971 1880,7917 2002,7917 2122,7917 2216,7971 2284,8079 2353,8187 2387,8347 2387,8557 2387,8769 2353,8929 2284,9039 2216,9149 2122,9203 2002,9204 Z M 2002,9081 C 2074,9081 2132,9038 2174,8951 2216,8865 2236,8733 2236,8557 2236,8383 2216,8254 2174,8169 2133,8085 2076,8043 2002,8043 1928,8043 1870,8085 1827,8169 1785,8254 1764,8383 1764,8557 1764,8733 1785,8865 1827,8951 1870,9038 1928,9081 2002,9081 Z"/>
        </g>
       </g>
       <g class="com.sun.star.drawing.ClosedBezierShape">
        <g id="id32">
         <rect class="BoundingBox" stroke="none" fill="none" x="2613" y="7917" width="775" height="1288"/>
         <path fill="rgb(51,51,51)" stroke="none" d="M 3002,9204 C 2880,9203 2785,9149 2717,9039 2648,8929 2613,8769 2613,8557 2613,8347 2648,8187 2717,8079 2785,7971 2880,7917 3002,7917 3122,7917 3216,7971 3284,8079 3353,8187 3387,8347 3387,8557 3387,8769 3353,8929 3284,9039 3216,9149 3122,9203 3002,9204 Z M 3002,9081 C 3074,9081 3132,9038 3174,8951 3216,8865 3236,8733 3236,8557 3236,8383 3216,8254 3174,8169 3133,8085 3076,8043 3002,8043 2928,8043 2870,8085 2827,8169 2785,8254 2764,8383 2764,8557 2764,8733 2785,8865 2827,8951 2870,9038 2928,9081 3002,9081 Z"/>
        </g>
       </g>
       <g class="com.sun.star.drawing.ClosedBezierShape">
        <g id="id33">
         <rect class="BoundingBox" stroke="none" fill="none" x="3678" y="7940" width="683" height="1243"/>
         <path fill="rgb(51,51,51)" stroke="none" d="M 3678,9182 L 3678,9053 3954,9053 3954,8127 3735,8127 3735,8030 C 3836,8012 3922,7982 3992,7940 L 4110,7940 4110,9053 4359,9053 4359,9182 3678,9182 Z"/>
        </g>
       </g>
       <g class="com.sun.star.drawing.ClosedBezierShape">
        <g id="id34">
         <rect class="BoundingBox" stroke="none" fill="none" x="4678" y="7940" width="683" height="1243"/>
         <path fill="rgb(51,51,51)" stroke="none" d="M 4678,9182 L 4678,9053 4954,9053 4954,8127 4735,8127 4735,8030 C 4836,8012 4922,7982 4992,7940 L 5110,7940 5110,9053 5359,9053 5359,9182 4678,9182 Z"/>
        </g>
       </g>
       <g class="com.sun.star.drawing.ClosedBezierShape">
        <g id="id35">
         <rect class="BoundingBox" stroke="none" fill="none" x="5612" y="7917" width="775" height="1288"/>
         <path fill="rgb(51,51,51)" stroke="none" d="M 6001,9204 C 5879,9203 5784,9149 5716,9039 5647,8929 5612,8769 5612,8557 5612,8347 5647,8187 5716,8079 5784,7971 5879,7917 6001,7917 6121,7917 6215,7971 6283,8079 6352,8187 6386,8347 6386,8557 6386,8769 6352,8929 6283,9039 6215,9149 6121,9203 6001,9204 Z M 6001,9081 C 6073,9081 6131,9038 6173,8951 6215,8865 6235,8733 6235,8557 6235,8383 6215,8254 6173,8169 6132,8085 6075,8043 6001,8043 5927,8043 5869,8085 5826,8169 5784,8254 5763,8383 5763,8557 5763,8733 5784,8865 5826,8951 5869,9038 5927,9081 6001,9081 Z"/>
        </g>
       </g>
       <g class="com.sun.star.drawing.ClosedBezierShape">
        <g id="id36">
         <rect class="BoundingBox" stroke="none" fill="none" x="6678" y="7940" width="683" height="1243"/>
         <path fill="rgb(51,51,51)" stroke="none" d="M 6678,9182 L 6678,9053 6954,9053 6954,8127 6735,8127 6735,8030 C 6836,8012 6922,7982 6992,7940 L 7110,7940 7110,9053 7359,9053 7359,9182 6678,9182 Z"/>
        </g>
       </g>
       <g class="com.sun.star.drawing.ClosedBezierShape">
        <g id="id37">
         <rect class="BoundingBox" stroke="none" fill="none" x="7612" y="7917" width="775" height="1288"/>
         <path fill="rgb(51,51,51)" stroke="none" d="M 8001,9204 C 7879,9203 7784,9149 7716,9039 7647,8929 7612,8769 7612,8557 7612,8347 7647,8187 7716,8079 7784,7971 7879,7917 8001,7917 8121,7917 8215,7971 8283,8079 8352,8187 8386,8347 8386,8557 8386,8769 8352,8929 8283,9039 8215,9149 8121,9203 8001,9204 Z M 8001,9081 C 8073,9081 8131,9038 8173,8951 8215,8865 8235,8733 8235,8557 8235,8383 8215,8254 8173,8169 8132,8085 8075,8043 8001,8043 7927,8043 7869,8085 7826,8169 7784,8254 7763,8383 7763,8557 7763,8733 7784,8865 7826,8951 7869,9038 7927,9081 8001,9081 Z"/>
        </g>
       </g>
       <g class="com.sun.star.drawing.ClosedBezierShape">
        <g id="id38">
         <rect class="BoundingBox" stroke="none" fill="none" x="8677" y="7940" width="683" height="1243"/>
         <path fill="rgb(51,51,51)" stroke="none" d="M 8677,9182 L 8677,9053 8953,9053 8953,8127 8734,8127 8734,8030 C 8835,8012 8921,7982 8991,7940 L 9109,7940 9109,9053 9358,9053 9358,9182 8677,9182 Z"/>
        </g>
       </g>
      </g>
     </g>
    </g>
   </g>
  </g>
 </g>
</svg>