<?xml version="1.0" encoding="UTF-8"?>
<!DOCTYPE svg PUBLIC "-//W3C//DTD SVG 1.1//EN" "http://www.w3.org/Graphics/SVG/1.1/DTD/svg11.dtd">
<svg version="1.2" width="100mm" height="100mm" viewBox="0 0 10000 10000" preserveAspectRatio="xMidYMid" fill-rule="evenodd" stroke-width="28.222" stroke-linejoin="round" xmlns="http://www.w3.org/2000/svg" xmlns:ooo="http://xml.openoffice.org/svg/export" xmlns:xlink="http://www.w3.org/1999/xlink" xmlns:presentation="http://sun.com/xmlns/staroffice/presentation" xmlns:smil="http://www.w3.org/2001/SMIL20/" xmlns:anim="urn:oasis:names:tc:opendocument:xmlns:animation:1.0" xml:space="preserve">
 <defs class="ClipPathGroup">
  <clipPath id="presentation_clip_path" clipPathUnits="userSpaceOnUse">
   <rect x="0" y="0" width="10000" height="10000"/>
  </clipPath>
  <clipPath id="presentation_clip_path_shrink" clipPathUnits="userSpaceOnUse">
   <rect x="10" y="10" width="9980" height="9980"/>
  </clipPath>
 </defs>
 <defs class="TextShapeIndex">
  <g ooo:slide="id1" ooo:id-list="id3 id4 id5 id6 id7 id8 id9 id10 id11 id12 id13 id14 id15 id16 id17 id18 id19 id20 id21 id22 id23 id24 id25 id26 id27 id28 id29 id30 id31 id32 id33 id34 id35 id36 id37 id38 id39 id40 id41 id42 id43 id44 id45 id46"/>
 </defs>
 <defs class="EmbeddedBulletChars">
  <g id="bullet-char-template-57356" transform="scale(0.00048828125,-0.00048828125)">
   <path d="M 580,1141 L 1163,571 580,0 -4,571 580,1141 Z"/>
  </g>
  <g id="bullet-char-template-57354" transform="scale(0.00048828125,-0.00048828125)">
   <path d="M 8,1128 L 1137,1128 1137,0 8,0 8,1128 Z"/>
  </g>
  <g id="bullet-char-template-10146" transform="scale(0.00048828125,-0.00048828125)">
   <path d="M 174,0 L 602,739 174,1481 1456,739 174,0 Z M 1358,739 L 309,1346 659,739 1358,739 Z"/>
  </g>
  <g id="bullet-char-template-10132" transform="scale(0.00048828125,-0.00048828125)">
   <path d="M 2015,739 L 1276,0 717,0 1260,543 174,543 174,936 1260,936 717,1481 1274,1481 2015,739 Z"/>
  </g>
  <g id="bullet-char-template-10007" transform="scale(0.00048828125,-0.00048828125)">
   <path d="M 0,-2 C -7,14 -16,27 -25,37 L 356,567 C 262,823 215,952 215,954 215,979 228,992 255,992 264,992 276,990 289,987 310,991 331,999 354,1012 L 381,999 492,748 772,1049 836,1024 860,1049 C 881,1039 901,1025 922,1006 886,937 835,863 770,784 769,783 710,716 594,584 L 774,223 C 774,196 753,168 711,139 L 727,119 C 717,90 699,76 672,76 641,76 570,178 457,381 L 164,-76 C 142,-110 111,-127 72,-127 30,-127 9,-110 8,-76 1,-67 -2,-52 -2,-32 -2,-23 -1,-13 0,-2 Z"/>
  </g>
  <g id="bullet-char-template-10004" transform="scale(0.00048828125,-0.00048828125)">
   <path d="M 285,-33 C 182,-33 111,30 74,156 52,228 41,333 41,471 41,549 55,616 82,672 116,743 169,778 240,778 293,778 328,747 346,684 L 369,508 C 377,444 397,411 428,410 L 1163,1116 C 1174,1127 1196,1133 1229,1133 1271,1133 1292,1118 1292,1087 L 1292,965 C 1292,929 1282,901 1262,881 L 442,47 C 390,-6 338,-33 285,-33 Z"/>
  </g>
  <g id="bullet-char-template-9679" transform="scale(0.00048828125,-0.00048828125)">
   <path d="M 813,0 C 632,0 489,54 383,161 276,268 223,411 223,592 223,773 276,916 383,1023 489,1130 632,1184 813,1184 992,1184 1136,1130 1245,1023 1353,916 1407,772 1407,592 1407,412 1353,268 1245,161 1136,54 992,0 813,0 Z"/>
  </g>
  <g id="bullet-char-template-8226" transform="scale(0.00048828125,-0.00048828125)">
   <path d="M 346,457 C 273,457 209,483 155,535 101,586 74,649 74,723 74,796 101,859 155,911 209,963 273,989 346,989 419,989 480,963 531,910 582,859 608,796 608,723 608,648 583,586 532,535 482,483 420,457 346,457 Z"/>
  </g>
  <g id="bullet-char-template-8211" transform="scale(0.00048828125,-0.00048828125)">
   <path d="M -4,459 L 1135,459 1135,606 -4,606 -4,459 Z"/>
  </g>
  <g id="bullet-char-template-61548" transform="scale(0.00048828125,-0.00048828125)">
   <path d="M 173,740 C 173,903 231,1043 346,1159 462,1274 601,1332 765,1332 928,1332 1067,1274 1183,1159 1299,1043 1357,903 1357,740 1357,577 1299,437 1183,322 1067,206 928,148 765,148 601,148 462,206 346,322 231,437 173,577 173,740 Z"/>
  </g>
 </defs>
 <g>
  <g id="id2" class="Master_Slide">
   <g id="bg-id2" class="Background"/>
   <g id="bo-id2" class="BackgroundObjects"/>
  </g>
 </g>
 <g class="SlideGroup">
  <g>
   <g id="container-id1">
    <g id="id1" class="Slide" clip-path="url(#presentation_clip_path)">
     <g class="Page">
      <g class="Group">
       <g class="com.sun.star.drawing.ClosedBezierShape">
        <g id="id3">
         <rect class="BoundingBox" stroke="none" fill="none" x="7317" y="8432" width="400" height="539"/>
         <path fill="rgb(0,0,0)" stroke="none" d="M 7382,8931 C 7382,8781 7382,8632 7382,8482 7364,8480 7345,8478 7326,8476 7326,8464 7326,8451 7326,8438 7356,8438 7385,8438 7415,8438 7420,8438 7428,8438 7437,8438 7446,8437 7457,8437 7468,8437 7478,8435 7489,8435 7502,8435 7515,8435 7525,8433 7536,8433 7564,8433 7587,8437 7609,8442 7631,8446 7650,8455 7665,8467 7681,8480 7694,8496 7703,8516 7712,8536 7716,8562 7716,8592 7716,8610 7714,8629 7708,8645 7703,8659 7696,8674 7687,8688 7678,8701 7667,8712 7654,8723 7641,8732 7629,8741 7614,8746 7600,8754 7583,8759 7567,8763 7551,8766 7535,8766 7518,8766 7500,8766 7486,8766 7475,8766 7466,8766 7457,8766 7449,8768 7449,8822 7449,8877 7449,8931 7480,8934 7510,8937 7540,8940 7540,8950 7540,8959 7540,8969 7466,8969 7391,8969 7317,8969 7317,8959 7317,8950 7317,8940 7339,8937 7361,8934 7382,8931 Z M 7449,8728 C 7462,8730 7473,8730 7484,8732 7497,8732 7506,8732 7516,8732 7527,8732 7538,8730 7549,8730 7560,8728 7571,8725 7580,8721 7589,8717 7598,8712 7607,8706 7616,8699 7623,8690 7629,8681 7634,8670 7640,8658 7643,8645 7647,8630 7649,8612 7649,8594 7649,8551 7636,8520 7612,8500 7589,8480 7554,8471 7511,8471 7500,8473 7489,8473 7478,8475 7469,8475 7458,8476 7449,8478 7449,8562 7449,8645 7449,8728 Z"/>
        </g>
       </g>
       <g class="com.sun.star.drawing.ClosedBezierShape">
        <g id="id4">
         <rect class="BoundingBox" stroke="none" fill="none" x="7770" y="8579" width="264" height="392"/>
         <path fill="rgb(0,0,0)" stroke="none" d="M 7770,8940 C 7789,8938 7807,8935 7826,8933 7826,8840 7826,8748 7826,8656 7810,8647 7794,8638 7777,8629 7777,8621 7777,8614 7777,8607 7807,8598 7838,8589 7868,8580 7873,8582 7878,8584 7882,8587 7882,8604 7882,8622 7882,8639 7888,8634 7893,8627 7902,8619 7911,8612 7922,8607 7933,8600 7944,8594 7955,8591 7967,8587 7978,8581 7989,8580 8000,8580 8007,8580 8015,8580 8020,8581 8027,8581 8031,8581 8033,8583 8033,8606 8033,8629 8033,8652 8029,8652 8025,8650 8022,8648 8018,8647 8015,8647 8009,8645 8004,8643 8000,8643 7993,8641 7987,8641 7980,8641 7973,8641 7955,8641 7939,8643 7926,8648 7913,8652 7902,8658 7891,8665 7891,8754 7891,8843 7891,8933 7924,8935 7957,8938 7989,8940 7989,8950 7989,8959 7989,8969 7916,8969 7843,8969 7770,8969 7770,8959 7770,8950 7770,8940 Z"/>
        </g>
       </g>
       <g class="com.sun.star.drawing.ClosedBezierShape">
        <g id="id5">
         <rect class="BoundingBox" stroke="none" fill="none" x="8083" y="8576" width="353" height="404"/>
         <path fill="rgb(0,0,0)" stroke="none" d="M 8083,8772 C 8083,8741 8089,8714 8098,8688 8109,8665 8123,8645 8140,8629 8156,8610 8176,8598 8196,8589 8219,8580 8241,8576 8265,8576 8294,8576 8319,8580 8341,8591 8362,8601 8381,8616 8393,8634 8408,8650 8419,8672 8426,8696 8431,8721 8435,8746 8435,8773 8435,8804 8429,8831 8420,8857 8411,8882 8399,8904 8382,8922 8366,8940 8348,8953 8326,8964 8304,8973 8281,8978 8257,8978 8225,8978 8198,8973 8176,8962 8154,8949 8136,8935 8121,8915 8109,8897 8098,8873 8091,8850 8085,8824 8083,8799 8083,8772 Z M 8259,8940 C 8279,8940 8295,8936 8308,8929 8323,8922 8333,8913 8341,8898 8350,8884 8355,8868 8359,8848 8362,8826 8364,8804 8364,8777 8364,8754 8362,8732 8359,8712 8355,8692 8348,8676 8341,8661 8332,8645 8321,8634 8308,8625 8295,8616 8279,8612 8261,8612 8241,8612 8225,8614 8212,8621 8198,8629 8187,8639 8178,8652 8169,8667 8163,8683 8160,8701 8156,8721 8152,8743 8152,8768 8152,8790 8156,8811 8160,8831 8163,8851 8170,8871 8179,8886 8188,8902 8199,8915 8212,8926 8225,8935 8241,8940 8259,8940 Z"/>
        </g>
       </g>
       <g class="com.sun.star.drawing.ClosedBezierShape">
        <g id="id6">
         <rect class="BoundingBox" stroke="none" fill="none" x="8465" y="8396" width="169" height="752"/>
         <path fill="rgb(0,0,0)" stroke="none" d="M 8580,8489 C 8574,8489 8569,8489 8565,8487 8560,8485 8554,8482 8551,8478 8547,8475 8544,8471 8542,8466 8538,8460 8538,8455 8538,8447 8538,8440 8538,8433 8542,8428 8545,8422 8549,8417 8554,8411 8558,8408 8563,8404 8571,8402 8576,8399 8582,8397 8589,8397 8603,8397 8614,8402 8621,8409 8629,8418 8632,8428 8632,8440 8632,8447 8631,8455 8627,8460 8625,8467 8621,8471 8616,8476 8611,8480 8605,8484 8600,8485 8592,8489 8587,8489 8580,8489 Z M 8563,8654 C 8548,8645 8532,8637 8516,8629 8516,8621 8516,8614 8516,8607 8548,8598 8580,8589 8612,8580 8617,8582 8622,8584 8627,8587 8627,8716 8627,8845 8627,8974 8627,9002 8625,9025 8618,9047 8612,9069 8605,9087 8594,9101 8583,9116 8570,9126 8554,9134 8539,9142 8522,9147 8504,9147 8500,9147 8498,9147 8495,9147 8489,9145 8486,9145 8482,9145 8478,9145 8475,9143 8473,9143 8469,9143 8467,9141 8466,9141 8466,9125 8466,9110 8466,9094 8467,9094 8471,9096 8473,9096 8477,9096 8480,9096 8484,9096 8487,9098 8491,9098 8495,9098 8498,9098 8502,9098 8504,9098 8515,9098 8524,9096 8531,9090 8540,9087 8545,9080 8549,9070 8554,9060 8558,9047 8560,9031 8562,9014 8563,8994 8563,8971 8563,8865 8563,8760 8563,8654 Z"/>
        </g>
       </g>
       <g class="com.sun.star.drawing.ClosedBezierShape">
        <g id="id7">
         <rect class="BoundingBox" stroke="none" fill="none" x="8726" y="8576" width="325" height="404"/>
         <path fill="rgb(0,0,0)" stroke="none" d="M 8727,8779 C 8727,8750 8730,8723 8739,8699 8750,8674 8763,8652 8779,8636 8795,8618 8815,8603 8839,8592 8862,8581 8888,8576 8915,8576 8935,8576 8955,8578 8969,8585 8986,8591 9000,8600 9011,8612 9024,8625 9033,8639 9038,8658 9045,8676 9049,8696 9049,8717 9051,8732 9049,8744 9049,8755 9047,8766 9047,8775 9045,8784 8961,8784 8876,8784 8792,8784 8792,8786 8792,8786 8792,8788 8792,8789 8792,8790 8792,8792 8794,8819 8797,8842 8806,8860 8815,8878 8824,8893 8837,8902 8850,8913 8864,8920 8880,8926 8895,8929 8909,8931 8924,8931 8933,8931 8942,8931 8953,8929 8962,8929 8971,8927 8980,8926 8991,8924 8998,8922 9007,8918 9015,8917 9022,8913 9025,8911 9030,8921 9034,8930 9038,8940 9033,8946 9024,8951 9013,8956 9002,8960 8991,8965 8978,8969 8966,8971 8953,8974 8938,8974 8926,8976 8911,8978 8899,8978 8871,8978 8846,8973 8824,8964 8804,8955 8786,8942 8772,8924 8757,8907 8745,8886 8737,8862 8730,8837 8727,8810 8727,8779 Z M 8980,8743 C 8980,8732 8980,8719 8980,8708 8980,8696 8978,8685 8977,8674 8973,8665 8969,8654 8964,8645 8958,8636 8953,8630 8944,8623 8938,8619 8931,8618 8924,8616 8917,8614 8908,8612 8899,8612 8886,8612 8873,8614 8861,8619 8848,8625 8839,8632 8828,8643 8819,8652 8812,8667 8804,8683 8799,8699 8794,8719 8792,8743 8855,8743 8917,8743 8980,8743 Z"/>
        </g>
       </g>
       <g class="com.sun.star.drawing.ClosedBezierShape">
        <g id="id8">
         <rect class="BoundingBox" stroke="none" fill="none" x="9119" y="8576" width="299" height="402"/>
         <path fill="rgb(0,0,0)" stroke="none" d="M 9120,8786 C 9120,8754 9123,8726 9134,8701 9143,8676 9156,8654 9172,8636 9190,8618 9210,8603 9232,8594 9255,8583 9279,8578 9306,8576 9315,8576 9324,8576 9335,8578 9344,8578 9355,8580 9362,8580 9371,8581 9380,8583 9388,8587 9395,8589 9400,8591 9406,8594 9406,8621 9406,8648 9406,8676 9395,8676 9384,8676 9373,8676 9367,8661 9361,8647 9355,8632 9351,8630 9348,8627 9342,8625 9337,8623 9333,8621 9328,8619 9322,8619 9317,8618 9313,8618 9308,8618 9303,8616 9299,8616 9284,8616 9268,8619 9255,8625 9241,8630 9228,8639 9217,8650 9207,8663 9199,8677 9192,8694 9187,8712 9183,8732 9183,8755 9183,8786 9187,8813 9194,8835 9201,8857 9210,8875 9223,8889 9236,8904 9248,8915 9263,8920 9279,8927 9294,8931 9308,8931 9315,8931 9326,8929 9335,8929 9344,8927 9353,8926 9362,8924 9371,8922 9380,8920 9388,8918 9395,8915 9400,8913 9406,8909 9409,8920 9413,8930 9417,8940 9411,8946 9402,8951 9393,8956 9382,8960 9371,8964 9361,8967 9348,8971 9337,8973 9322,8974 9310,8976 9297,8976 9284,8976 9257,8976 9236,8973 9214,8962 9194,8953 9178,8940 9163,8922 9149,8906 9138,8886 9130,8862 9123,8839 9120,8813 9120,8786 Z"/>
        </g>
       </g>
       <g class="com.sun.star.drawing.ClosedBezierShape">
        <g id="id9">
         <rect class="BoundingBox" stroke="none" fill="none" x="9480" y="8496" width="237" height="484"/>
         <path fill="rgb(0,0,0)" stroke="none" d="M 9531,8880 C 9531,8839 9531,8797 9531,8755 9531,8714 9531,8672 9531,8630 9514,8630 9497,8630 9480,8630 9480,8622 9480,8613 9480,8605 9489,8601 9498,8600 9504,8600 9511,8598 9516,8596 9522,8594 9525,8592 9529,8589 9533,8587 9534,8583 9538,8578 9540,8572 9542,8569 9544,8563 9547,8556 9549,8549 9551,8542 9553,8533 9556,8525 9558,8518 9560,8511 9560,8504 9562,8498 9562,8496 9573,8496 9585,8496 9596,8496 9596,8527 9596,8557 9596,8587 9634,8587 9672,8587 9710,8587 9710,8601 9710,8616 9710,8630 9672,8630 9634,8630 9596,8630 9596,8688 9596,8745 9596,8802 9596,8830 9596,8851 9598,8868 9598,8884 9600,8897 9601,8906 9605,8915 9609,8922 9614,8926 9620,8927 9627,8929 9636,8929 9641,8929 9649,8929 9654,8927 9661,8927 9668,8926 9676,8924 9681,8922 9688,8920 9694,8918 9699,8917 9703,8915 9705,8913 9708,8923 9712,8933 9716,8944 9710,8949 9705,8955 9696,8958 9687,8962 9678,8965 9667,8969 9658,8973 9647,8974 9636,8976 9627,8978 9618,8978 9611,8978 9585,8978 9565,8971 9553,8955 9538,8940 9531,8915 9531,8880 Z"/>
        </g>
       </g>
       <g class="com.sun.star.drawing.ClosedBezierShape">
        <g id="id10">
         <rect class="BoundingBox" stroke="none" fill="none" x="1900" y="7983" width="1122" height="1395"/>
         <path fill="rgb(0,0,0)" stroke="none" d="M 2970,8850 C 2948,9060 2921,9313 2558,9313 2503,9313 2448,9313 2393,9313 2297,9313 2292,9299 2292,9232 2292,8869 2292,8506 2292,8143 2292,8073 2292,8045 2486,8045 2508,8045 2531,8045 2553,8045 2553,8025 2553,8004 2553,7984 2479,7989 2294,7989 2211,7989 2131,7989 1971,7989 1901,7984 1901,8004 1901,8025 1901,8045 1916,8045 1932,8045 1948,8045 2105,8045 2111,8067 2111,8141 2111,8500 2111,8859 2111,9217 2111,9290 2105,9313 1948,9313 1932,9313 1916,9313 1901,9313 1901,9334 1901,9355 1901,9377 2255,9377 2610,9377 2964,9377 2983,9201 3002,9025 3020,8850 3003,8850 2986,8850 2970,8850 Z"/>
        </g>
       </g>
       <g class="com.sun.star.drawing.ClosedBezierShape">
        <g id="id11">
         <rect class="BoundingBox" stroke="none" fill="none" x="2409" y="7947" width="1077" height="1022"/>
         <path fill="rgb(0,0,0)" stroke="none" d="M 2986,7982 C 2977,7957 2972,7948 2946,7948 2920,7948 2913,7957 2906,7982 2796,8260 2685,8539 2575,8817 2562,8851 2537,8915 2410,8915 2410,8932 2410,8950 2410,8967 2515,8967 2621,8967 2727,8967 2727,8950 2727,8932 2727,8915 2663,8915 2625,8888 2625,8846 2625,8835 2627,8831 2631,8817 2654,8758 2677,8700 2700,8641 2835,8641 2971,8641 3107,8641 3134,8711 3162,8780 3189,8850 3192,8859 3196,8868 3196,8875 3196,8915 3118,8915 3080,8915 3080,8932 3080,8950 3080,8967 3215,8967 3349,8967 3484,8967 3484,8950 3484,8932 3484,8915 3474,8915 3465,8915 3455,8915 3359,8915 3348,8900 3334,8860 3218,8568 3102,8275 2986,7982 Z M 3085,8589 C 2964,8589 2843,8589 2721,8589 2782,8435 2842,8281 2903,8127 2964,8281 3024,8435 3085,8589 Z"/>
        </g>
       </g>
       <g class="com.sun.star.drawing.ClosedBezierShape">
        <g id="id12">
         <rect class="BoundingBox" stroke="none" fill="none" x="3342" y="7994" width="1325" height="1384"/>
         <path fill="rgb(0,0,0)" stroke="none" d="M 3379,7995 C 3367,8148 3355,8301 3343,8455 3359,8455 3375,8455 3392,8455 3421,8125 3451,8056 3759,8056 3797,8056 3850,8056 3870,8062 3913,8069 3913,8092 3913,8140 3913,8498 3913,8856 3913,9214 3913,9284 3913,9313 3698,9313 3671,9313 3643,9313 3616,9313 3616,9334 3616,9355 3616,9377 3701,9369 3908,9369 4002,9369 4096,9369 4306,9369 4392,9377 4392,9355 4392,9334 4392,9313 4364,9313 4337,9313 4310,9313 4094,9313 4094,9284 4094,9214 4094,8856 4094,8498 4094,8140 4094,8098 4094,8069 4131,8062 4154,8056 4209,8056 4248,8056 4555,8056 4585,8125 4614,8455 4631,8455 4648,8455 4665,8455 4652,8301 4640,8148 4627,7995 4211,7995 3795,7995 3379,7995 Z"/>
        </g>
       </g>
       <g class="com.sun.star.drawing.ClosedBezierShape">
        <g id="id13">
         <rect class="BoundingBox" stroke="none" fill="none" x="4462" y="8451" width="1264" height="1387"/>
         <path fill="rgb(0,0,0)" stroke="none" d="M 5674,9311 C 5623,9625 5576,9773 5225,9773 5135,9773 5045,9773 4955,9773 4859,9773 4855,9759 4855,9692 4855,9510 4855,9328 4855,9147 4916,9147 4976,9147 5036,9147 5236,9147 5257,9212 5257,9387 5275,9387 5293,9387 5310,9387 5310,9207 5310,9026 5310,8846 5293,8846 5275,8846 5257,8846 5257,9020 5236,9083 5036,9083 4976,9083 4916,9083 4855,9083 4855,8920 4855,8757 4855,8594 4855,8525 4859,8511 4955,8511 5043,8511 5130,8511 5218,8511 5531,8511 5584,8625 5616,8909 5634,8909 5651,8909 5669,8909 5649,8757 5630,8604 5611,8451 5228,8451 4845,8451 4462,8451 4462,8471 4462,8491 4462,8511 4478,8511 4494,8511 4509,8511 4669,8511 4672,8534 4672,8609 4672,8965 4672,9321 4672,9677 4672,9751 4669,9773 4509,9773 4494,9773 4478,9773 4462,9773 4462,9794 4462,9815 4462,9837 4855,9837 5247,9837 5640,9837 5668,9662 5696,9486 5725,9311 5708,9311 5691,9311 5674,9311 Z"/>
        </g>
       </g>
       <g class="com.sun.star.drawing.ClosedBezierShape">
        <g id="id14">
         <rect class="BoundingBox" stroke="none" fill="none" x="5572" y="7983" width="1433" height="1395"/>
         <path fill="rgb(0,0,0)" stroke="none" d="M 6623,8178 C 6667,8112 6736,8047 6919,8045 6919,8025 6919,8004 6919,7984 6756,7984 6594,7984 6431,7984 6431,8004 6431,8025 6431,8045 6513,8047 6558,8092 6558,8140 6558,8159 6553,8163 6540,8187 6462,8301 6384,8416 6306,8531 6219,8399 6131,8268 6044,8136 6038,8130 6029,8114 6029,8107 6029,8082 6074,8047 6160,8045 6160,8025 6160,8004 6160,7984 6091,7989 5940,7989 5863,7989 5799,7989 5672,7987 5596,7984 5596,8004 5596,8025 5596,8045 5610,8045 5623,8045 5636,8045 5748,8045 5786,8060 5826,8116 5951,8306 6076,8495 6201,8685 6090,8849 5978,9013 5866,9177 5839,9219 5777,9313 5573,9313 5573,9334 5573,9355 5573,9377 5735,9377 5898,9377 6060,9377 6060,9355 6060,9334 6060,9313 5966,9311 5931,9255 5931,9219 5931,9201 5937,9192 5951,9170 6047,9027 6143,8884 6239,8741 6347,8903 6455,9066 6564,9228 6567,9237 6574,9244 6574,9252 6574,9275 6529,9311 6440,9313 6440,9334 6440,9355 6440,9377 6513,9369 6661,9369 6737,9369 6824,9369 6919,9373 7004,9377 7004,9355 7004,9334 7004,9313 6991,9313 6978,9313 6966,9313 6859,9313 6815,9302 6774,9239 6630,9022 6486,8804 6343,8587 6436,8450 6530,8314 6623,8178 Z"/>
        </g>
       </g>
       <g class="com.sun.star.drawing.ClosedBezierShape">
        <g id="id15">
         <rect class="BoundingBox" stroke="none" fill="none" x="286" y="8422" width="419" height="532"/>
         <path fill="rgb(0,0,0)" stroke="none" d="M 383,8924 C 410,8920 438,8917 466,8913 466,8762 466,8611 466,8460 425,8463 384,8465 343,8467 334,8487 326,8506 318,8525 307,8525 297,8525 287,8525 290,8491 293,8456 296,8422 432,8422 567,8422 703,8422 703,8457 703,8492 703,8527 694,8528 684,8530 674,8531 668,8509 662,8487 656,8466 615,8464 574,8462 533,8460 533,8611 533,8762 533,8913 563,8917 592,8920 622,8924 622,8933 622,8943 622,8953 542,8953 462,8953 383,8953 383,8943 383,8933 383,8924 Z"/>
        </g>
       </g>
       <g class="com.sun.star.drawing.ClosedBezierShape">
        <g id="id16">
         <rect class="BoundingBox" stroke="none" fill="none" x="748" y="8396" width="422" height="558"/>
         <path fill="rgb(0,0,0)" stroke="none" d="M 754,8924 C 772,8921 789,8919 807,8917 807,8762 807,8607 807,8453 787,8449 768,8446 749,8442 749,8432 749,8421 749,8411 784,8406 820,8402 856,8397 861,8400 866,8403 872,8406 872,8456 872,8506 872,8556 871,8576 871,8596 870,8616 881,8607 892,8600 903,8594 915,8587 926,8581 939,8578 950,8572 962,8569 973,8567 984,8565 995,8563 1004,8563 1028,8563 1046,8567 1060,8574 1077,8581 1087,8592 1096,8607 1104,8621 1111,8641 1113,8663 1116,8687 1118,8714 1118,8746 1118,8803 1118,8860 1118,8917 1135,8919 1152,8921 1169,8924 1169,8933 1169,8943 1169,8953 1111,8953 1053,8953 995,8953 995,8943 995,8933 995,8924 1014,8921 1034,8919 1053,8917 1053,8869 1053,8822 1053,8775 1053,8748 1051,8725 1051,8705 1049,8685 1046,8668 1040,8654 1035,8641 1028,8630 1017,8623 1006,8618 991,8614 971,8614 964,8614 957,8614 948,8614 939,8616 932,8618 923,8619 913,8621 904,8625 897,8629 888,8632 879,8636 872,8643 872,8734 872,8825 872,8917 889,8919 906,8921 923,8924 923,8933 923,8943 923,8953 866,8953 810,8953 754,8953 754,8943 754,8933 754,8924 Z"/>
        </g>
       </g>
       <g class="com.sun.star.drawing.ClosedBezierShape">
        <g id="id17">
         <rect class="BoundingBox" stroke="none" fill="none" x="1226" y="8559" width="327" height="404"/>
         <path fill="rgb(0,0,0)" stroke="none" d="M 1227,8763 C 1227,8734 1232,8706 1241,8683 1250,8658 1263,8636 1279,8618 1296,8600 1316,8587 1339,8576 1363,8565 1388,8560 1417,8560 1437,8558 1455,8562 1471,8569 1488,8574 1500,8583 1513,8596 1524,8609 1533,8623 1538,8641 1546,8659 1549,8679 1551,8701 1551,8715 1551,8728 1549,8739 1548,8750 1548,8759 1546,8766 1461,8766 1377,8766 1292,8766 1292,8768 1292,8770 1292,8772 1292,8773 1292,8773 1292,8775 1294,8802 1298,8824 1307,8842 1315,8860 1327,8875 1339,8886 1352,8897 1365,8904 1381,8907 1395,8913 1412,8915 1426,8915 1433,8915 1444,8915 1453,8913 1462,8911 1473,8911 1482,8909 1491,8907 1500,8904 1508,8902 1515,8898 1522,8897 1528,8895 1531,8904 1535,8914 1538,8924 1533,8929 1524,8935 1513,8938 1502,8944 1491,8947 1479,8951 1466,8955 1453,8956 1439,8958 1426,8960 1412,8962 1399,8962 1372,8962 1346,8956 1327,8947 1305,8938 1287,8924 1272,8907 1258,8889 1247,8869 1238,8844 1231,8821 1227,8793 1227,8763 Z M 1480,8726 C 1480,8715 1480,8703 1480,8692 1480,8679 1479,8668 1477,8658 1475,8647 1470,8638 1464,8629 1461,8619 1453,8612 1444,8607 1439,8603 1432,8601 1424,8600 1417,8596 1408,8596 1399,8596 1386,8596 1374,8598 1361,8603 1350,8607 1339,8616 1328,8625 1319,8636 1312,8650 1305,8667 1299,8683 1296,8703 1294,8726 1356,8726 1418,8726 1480,8726 Z"/>
        </g>
       </g>
       <g class="com.sun.star.drawing.ClosedBezierShape">
        <g id="id18">
         <rect class="BoundingBox" stroke="none" fill="none" x="0" y="9313" width="1556" height="63"/>
         <path fill="rgb(0,0,0)" stroke="none" d="M 0,9313 C 519,9313 1037,9313 1555,9313 1555,9334 1555,9354 1555,9375 1037,9375 519,9375 0,9375 0,9354 0,9334 0,9313 Z"/>
        </g>
       </g>
       <g class="com.sun.star.drawing.ClosedBezierShape">
        <g id="id19">
         <rect class="BoundingBox" stroke="none" fill="none" x="7317" y="9313" width="2685" height="63"/>
         <path fill="rgb(0,0,0)" stroke="none" d="M 7317,9313 C 8211,9313 9106,9313 10000,9313 10000,9334 10000,9354 10000,9375 9106,9375 8211,9375 7317,9375 7317,9354 7317,9334 7317,9313 Z"/>
        </g>
       </g>
      </g>
      <g class="Group">
       <g class="com.sun.star.drawing.ClosedBezierShape">
        <g id="id20">
         <rect class="BoundingBox" stroke="none" fill="none" x="17" y="145" width="9984" height="7642"/>
         <path fill="rgb(0,0,0)" stroke="none" d="M 1222,597 C 1223,598 1223,599 1224,600 L 1224,600 C 1178,592 1127,587 1076,590 974,590 865,607 748,646 950,813 1122,937 1273,1034 1270,1032 1265,1032 1263,1029 1266,1032 1270,1034 1273,1037 1040,964 785,954 488,1095 702,1229 879,1326 1037,1399 1032,1399 1030,1396 1025,1396 1028,1398 1031,1399 1035,1401 789,1360 534,1384 257,1566 440,1646 595,1707 736,1756 L 736,1756 C 739,1757 742,1759 746,1760 513,1770 279,1843 53,2057 250,2105 420,2139 571,2161 566,2161 561,2164 556,2164 551,2164 547,2164 539,2164 542,2164 544,2165 547,2166 372,2205 202,2292 34,2460 170,2489 291,2513 401,2528 265,2596 136,2698 17,2853 172,2865 311,2870 432,2873 284,2941 143,3050 19,3225 240,3234 425,3234 585,3225 583,3227 581,3227 576,3230 566,3230 556,3232 547,3232 551,3234 556,3235 561,3237 396,3310 240,3429 109,3628 386,3633 602,3618 787,3596 780,3599 775,3599 770,3601 763,3601 755,3601 748,3604 751,3604 755,3605 758,3606 542,3669 342,3793 177,4043 398,4048 585,4038 746,4024 741,4026 738,4029 734,4031 544,4135 379,4296 272,4565 466,4529 632,4490 775,4449 772,4451 768,4451 765,4454 768,4453 772,4452 775,4451 629,4560 505,4716 423,4942 556,4913 678,4881 785,4849 687,4966 615,5112 571,5304 717,5250 845,5199 957,5148 955,5148 955,5151 952,5153 952,5155 947,5155 945,5158 946,5157 948,5156 950,5155 845,5279 768,5435 729,5641 935,5561 1103,5481 1244,5406 1239,5410 1234,5413 1231,5418 1232,5417 1233,5416 1234,5415 1110,5554 1015,5729 979,5971 1222,5865 1409,5765 1562,5670 1562,5673 1559,5673 1557,5675 1561,5673 1565,5672 1569,5670 1394,5818 1258,6018 1212,6321 1540,6175 1771,6047 1948,5925 1870,6078 1831,6258 1851,6484 2167,6241 2368,6047 2516,5872 2516,5874 2516,5877 2516,5879 2507,5991 2514,6110 2548,6241 2735,5918 2922,5784 3114,5673 2876,5828 2917,5954 2917,6098 3189,5811 3563,5508 3702,5308 3551,5542 3490,5763 3449,5959 2621,6399 2113,6513 1547,6688 1768,6768 2004,6846 1907,6957 1820,7044 1733,7131 1647,7217 1812,7166 1982,7091 2128,7193 2113,7329 1943,7397 1795,7477 2055,7385 2111,7407 2179,7428 2213,7591 2094,7679 2016,7785 2667,7290 3517,6901 4115,6736 4955,6455 6041,6158 6335,5442 6433,5047 6532,4652 6631,4257 6976,3883 7294,3497 7445,3026 8409,2839 9186,2904 10000,2926 9925,2914 8347,2646 7520,2506 6816,1544 5769,2198 5421,3149 5334,3387 4838,3387 4693,3147 4124,1921 2395,624 921,145 1018,320 1117,468 1222,597 Z"/>
        </g>
       </g>
       <g class="com.sun.star.drawing.ClosedBezierShape">
        <g id="id21">
         <rect class="BoundingBox" stroke="none" fill="none" x="0" y="77" width="9984" height="7639"/>
         <path fill="rgb(0,128,128)" stroke="none" d="M 906,77 C 1001,252 1103,400 1207,532 1161,524 1110,519 1059,519 957,522 848,539 731,575 935,748 1110,872 1263,969 1027,893 772,884 471,1025 690,1163 874,1260 1035,1335 785,1289 525,1309 240,1496 427,1581 590,1644 734,1690 498,1700 265,1773 36,1989 233,2037 403,2069 554,2091 372,2130 192,2217 17,2392 153,2421 272,2443 384,2460 248,2525 119,2627 0,2785 155,2795 291,2802 415,2802 267,2870 126,2980 2,3154 223,3166 408,3166 568,3157 393,3227 231,3349 92,3557 369,3562 585,3550 770,3526 542,3589 333,3713 160,3975 381,3978 568,3970 726,3956 532,4060 364,4223 255,4497 454,4458 624,4420 768,4376 617,4485 491,4641 406,4871 539,4842 661,4811 768,4779 670,4896 595,5044 554,5236 700,5182 826,5129 940,5078 833,5204 751,5362 712,5573 916,5491 1083,5413 1224,5338 1095,5476 1001,5653 962,5901 1212,5789 1404,5687 1562,5593 1382,5743 1244,5942 1195,6251 1523,6107 1751,5976 1931,5855 1853,6008 1812,6190 1831,6416 2150,6173 2349,5976 2499,5801 2490,5913 2497,6037 2531,6170 2723,5840 2912,5709 3107,5597 2856,5755 2900,5882 2900,6027 3172,5741 3546,5440 3685,5238 3534,5474 3473,5695 3432,5889 2601,6328 2096,6442 1530,6617 1751,6697 1987,6778 1890,6889 1803,6975 1716,7061 1630,7147 1795,7096 1965,7023 2111,7122 2096,7258 1924,7329 1778,7407 2035,7314 2091,7336 2159,7358 2193,7521 2077,7608 1999,7715 2650,7222 3500,6831 4098,6666 4938,6384 6024,6090 6318,5372 6416,4977 6515,4583 6614,4189 6959,3815 7277,3426 7428,2955 8392,2768 9169,2836 9983,2856 9908,2844 8330,2576 7503,2436 6799,1474 5752,2130 5407,3079 5319,3319 4821,3319 4678,3077 4107,1853 2378,556 906,77 Z"/>
        </g>
       </g>
       <g class="com.sun.star.drawing.ClosedBezierShape">
        <g id="id22">
         <rect class="BoundingBox" stroke="none" fill="none" x="5771" y="2586" width="1408" height="1607"/>
         <path fill="rgb(255,255,255)" stroke="none" d="M 6580,2598 C 6553,2644 6512,2676 6454,2695 6393,2715 6318,2720 6228,2715 6209,2714 6191,2713 6172,2712 6186,2726 6199,2740 6213,2754 6235,2773 6240,2788 6240,2802 6240,2817 6235,2831 6220,2848 6194,2882 6140,2919 6092,2955 6086,2959 6080,2963 6075,2967 6079,2972 6083,2977 6087,2982 6128,3045 6148,3094 6152,3132 6155,3169 6148,3196 6131,3220 6097,3266 6019,3298 5951,3336 5947,3338 5943,3340 5939,3341 5940,3346 5940,3351 5941,3356 5948,3392 5939,3421 5912,3451 5888,3480 5844,3506 5788,3531 5782,3533 5777,3536 5771,3538 5772,3544 5773,3549 5774,3555 5786,3630 5810,3696 5856,3740 5900,3778 5968,3788 6050,3771 6067,3851 6087,3927 6135,3975 6186,4024 6264,4038 6369,4012 6393,4067 6427,4109 6466,4135 6510,4165 6565,4177 6612,4191 6621,4181 6631,4170 6641,4160 6595,4145 6527,4123 6490,4099 6454,4075 6422,4041 6403,3982 6400,3975 6398,3968 6395,3961 6389,3963 6382,3965 6376,3968 6267,4002 6208,3985 6167,3946 6126,3905 6101,3829 6089,3744 6088,3736 6086,3728 6084,3720 6077,3723 6070,3725 6063,3727 5973,3752 5919,3740 5885,3708 5851,3679 5832,3625 5820,3560 5871,3538 5914,3511 5944,3477 5973,3446 5985,3407 5982,3368 6046,3332 6121,3302 6165,3244 6186,3215 6199,3174 6194,3128 6189,3084 6167,3035 6131,2977 6174,2943 6223,2912 6255,2873 6272,2851 6284,2829 6284,2800 6284,2785 6269,2773 6259,2759 6337,2759 6408,2754 6466,2734 6527,2715 6575,2678 6607,2630 6697,2630 6791,2652 6886,2664 6986,2676 7085,2678 7177,2637 7172,2624 7166,2611 7160,2598 7078,2635 6988,2635 6893,2620 6799,2608 6699,2586 6597,2586 6593,2586 6589,2586 6585,2586 6583,2590 6582,2594 6580,2598 Z"/>
        </g>
       </g>
       <g class="com.sun.star.drawing.ClosedBezierShape">
        <g id="id23">
         <rect class="BoundingBox" stroke="none" fill="none" x="6579" y="2391" width="362" height="362"/>
         <path fill="rgb(255,255,255)" stroke="none" d="M 6939,2572 C 6939,2671 6859,2751 6760,2751 6660,2751 6580,2671 6580,2572 6580,2472 6660,2392 6760,2392 6859,2392 6939,2472 6939,2572 Z"/>
        </g>
       </g>
       <g class="com.sun.star.drawing.ClosedBezierShape">
        <g id="id24">
         <rect class="BoundingBox" stroke="none" fill="none" x="6571" y="2383" width="378" height="378"/>
         <path fill="none" stroke="rgb(255,255,255)" stroke-width="17" stroke-linejoin="miter" d="M 6939,2572 C 6939,2671 6859,2751 6760,2751 6660,2751 6580,2671 6580,2572 6580,2472 6660,2392 6760,2392 6859,2392 6939,2472 6939,2572 Z"/>
        </g>
       </g>
       <g class="com.sun.star.drawing.ClosedBezierShape">
        <g id="id25">
         <rect class="BoundingBox" stroke="none" fill="none" x="7160" y="2401" width="344" height="573"/>
         <path fill="rgb(255,255,255)" stroke="none" d="M 7175,2593 C 7170,2596 7165,2598 7160,2601 7161,2606 7162,2612 7163,2618 7199,2829 7326,2895 7423,2972 7424,2967 7426,2961 7428,2955 7437,2954 7445,2952 7454,2950 7355,2873 7248,2807 7209,2630 7282,2613 7350,2635 7503,2436 7494,2424 7485,2413 7476,2402 7316,2613 7275,2559 7175,2593 Z"/>
        </g>
       </g>
       <g class="com.sun.star.drawing.ClosedBezierShape">
        <g id="id26">
         <rect class="BoundingBox" stroke="none" fill="none" x="1263" y="968" width="1883" height="1161"/>
         <path fill="rgb(255,255,255)" stroke="none" d="M 1263,969 C 1567,1158 2069,1352 2392,1556 2570,1671 2728,1782 2852,1879 2975,1977 3068,2076 3102,2110 3136,2142 3158,2127 3136,2083 3114,2042 3002,1943 2878,1845 2752,1746 2594,1634 2414,1520 2057,1294 1640,1090 1263,969 Z"/>
        </g>
       </g>
       <g class="com.sun.star.drawing.ClosedBezierShape">
        <g id="id27">
         <rect class="BoundingBox" stroke="none" fill="none" x="1207" y="529" width="1914" height="1191"/>
         <path fill="rgb(255,255,255)" stroke="none" d="M 1207,529 C 1336,561 1525,670 1734,787 1943,903 2174,1046 2383,1185 2592,1326 2752,1447 2881,1544 3005,1649 3065,1717 3087,1717 3092,1719 3094,1719 3099,1717 3104,1717 3111,1712 3116,1705 3121,1697 3119,1690 3119,1685 3116,1683 3116,1680 3114,1678 3107,1666 3097,1656 3082,1644 3051,1615 3000,1573 2934,1525 2805,1425 2616,1289 2407,1148 2196,1010 1965,864 1754,748 1678,719 1312,524 1207,529 Z"/>
        </g>
       </g>
       <g class="com.sun.star.drawing.ClosedBezierShape">
        <g id="id28">
         <rect class="BoundingBox" stroke="none" fill="none" x="1032" y="1335" width="2100" height="1162"/>
         <path fill="rgb(255,255,255)" stroke="none" d="M 1032,1335 C 1426,1496 1982,1683 2354,1916 2553,2042 2728,2168 2856,2273 2922,2324 2975,2370 3017,2409 3056,2445 3080,2479 3092,2487 3119,2506 3141,2494 3126,2462 3119,2440 3087,2414 3046,2377 3005,2338 2949,2292 2883,2239 2752,2134 2577,2006 2375,1879 1975,1624 1494,1399 1032,1335 Z"/>
        </g>
       </g>
       <g class="com.sun.star.drawing.ClosedBezierShape">
        <g id="id29">
         <rect class="BoundingBox" stroke="none" fill="none" x="731" y="1689" width="2283" height="1163"/>
         <path fill="rgb(255,255,255)" stroke="none" d="M 731,1690 C 1037,1690 1666,1969 1933,2110 2363,2338 2754,2635 2971,2841 2995,2863 3031,2844 3002,2812 2803,2579 2388,2304 1953,2071 1518,1841 1071,1690 731,1690 Z"/>
        </g>
       </g>
       <g class="com.sun.star.drawing.ClosedBezierShape">
        <g id="id30">
         <rect class="BoundingBox" stroke="none" fill="none" x="556" y="2090" width="2324" height="1081"/>
         <path fill="rgb(255,255,255)" stroke="none" d="M 556,2091 C 1015,2159 1564,2343 1965,2545 2188,2657 2388,2778 2541,2887 2694,2994 2805,3115 2835,3147 2861,3179 2895,3181 2869,3125 2844,3069 2719,2960 2565,2851 2411,2742 2208,2620 1984,2506 1533,2278 1020,2098 556,2091 Z"/>
        </g>
       </g>
       <g class="com.sun.star.drawing.ClosedBezierShape">
        <g id="id31">
         <rect class="BoundingBox" stroke="none" fill="none" x="386" y="2430" width="2394" height="1045"/>
         <path fill="rgb(255,255,255)" stroke="none" d="M 707,2433 C 593,2423 491,2445 386,2460 794,2421 1363,2608 1744,2783 2191,2992 2563,3281 2740,3463 2769,3492 2788,3455 2774,3436 2606,3225 2213,2955 1761,2744 1423,2586 1049,2462 707,2433 Z"/>
        </g>
       </g>
       <g class="com.sun.star.drawing.ClosedBezierShape">
        <g id="id32">
         <rect class="BoundingBox" stroke="none" fill="none" x="417" y="2793" width="2168" height="852"/>
         <path fill="rgb(255,255,255)" stroke="none" d="M 1732,3098 C 2111,3276 2397,3504 2541,3635 2563,3655 2604,3640 2572,3604 2439,3451 2133,3239 1751,3060 1367,2880 904,2766 418,2800 819,2829 1355,2926 1732,3098 Z"/>
        </g>
       </g>
       <g class="com.sun.star.drawing.ClosedBezierShape">
        <g id="id33">
         <rect class="BoundingBox" stroke="none" fill="none" x="573" y="3132" width="1691" height="594"/>
         <path fill="rgb(255,255,255)" stroke="none" d="M 777,3132 C 692,3130 653,3147 573,3154 845,3166 1278,3239 1516,3319 1824,3429 2079,3589 2225,3715 2254,3740 2273,3708 2256,3686 2120,3536 1844,3390 1530,3281 1295,3198 1032,3142 777,3132 Z"/>
        </g>
       </g>
       <g class="com.sun.star.drawing.ClosedBezierShape">
        <g id="id34">
         <rect class="BoundingBox" stroke="none" fill="none" x="765" y="3522" width="1243" height="397"/>
         <path fill="rgb(255,255,255)" stroke="none" d="M 1970,3912 C 1989,3929 2021,3905 1999,3880 1722,3582 1178,3497 765,3528 1348,3567 1700,3669 1970,3912 Z"/>
        </g>
       </g>
       <g class="com.sun.star.drawing.ClosedBezierShape">
        <g id="id35">
         <rect class="BoundingBox" stroke="none" fill="none" x="728" y="3874" width="1058" height="214"/>
         <path fill="rgb(255,255,255)" stroke="none" d="M 1214,3878 C 1037,3863 891,3902 729,3956 1200,3880 1397,3917 1751,4082 1793,4101 1790,4058 1773,4046 1584,3934 1389,3890 1214,3878 Z"/>
        </g>
       </g>
       <g class="com.sun.star.drawing.ClosedBezierShape">
        <g id="id36">
         <rect class="BoundingBox" stroke="none" fill="none" x="772" y="4198" width="984" height="175"/>
         <path fill="rgb(255,255,255)" stroke="none" d="M 1197,4203 C 1030,4220 889,4276 772,4371 1239,4191 1367,4228 1722,4330 1771,4342 1756,4296 1737,4288 1523,4203 1365,4189 1197,4203 Z"/>
        </g>
       </g>
       <g class="com.sun.star.drawing.ClosedBezierShape">
        <g id="id37">
         <rect class="BoundingBox" stroke="none" fill="none" x="769" y="4482" width="1369" height="294"/>
         <path fill="rgb(255,255,255)" stroke="none" d="M 2120,4492 C 1873,4466 1591,4497 1346,4541 1100,4585 889,4677 770,4774 1178,4602 1253,4602 1353,4582 1596,4539 1836,4522 2118,4534 2142,4536 2142,4495 2120,4492 Z"/>
        </g>
       </g>
       <g class="com.sun.star.drawing.ClosedBezierShape">
        <g id="id38">
         <rect class="BoundingBox" stroke="none" fill="none" x="939" y="4693" width="1352" height="386"/>
         <path fill="rgb(255,255,255)" stroke="none" d="M 2264,4694 C 1994,4684 1717,4750 1477,4820 1236,4888 1057,4981 940,5078 1178,4964 1399,4886 1489,4859 1725,4791 1965,4733 2266,4738 2290,4738 2305,4696 2264,4694 Z"/>
        </g>
       </g>
       <g class="com.sun.star.drawing.ClosedBezierShape">
        <g id="id39">
         <rect class="BoundingBox" stroke="none" fill="none" x="1229" y="4859" width="1282" height="478"/>
         <path fill="rgb(255,255,255)" stroke="none" d="M 2485,4859 C 2230,4898 1965,4971 1732,5051 1501,5129 1336,5223 1229,5335 1504,5175 1657,5121 1746,5090 1975,5012 2188,4959 2492,4900 2529,4896 2499,4857 2485,4859 Z"/>
        </g>
       </g>
       <g class="com.sun.star.drawing.ClosedBezierShape">
        <g id="id40">
         <rect class="BoundingBox" stroke="none" fill="none" x="1566" y="5070" width="1078" height="519"/>
         <path fill="rgb(255,255,255)" stroke="none" d="M 2614,5070 C 2106,5151 1776,5372 1567,5588 1890,5345 2116,5214 2623,5112 2655,5107 2645,5066 2614,5070 Z"/>
        </g>
       </g>
       <g class="com.sun.star.drawing.ClosedBezierShape">
        <g id="id41">
         <rect class="BoundingBox" stroke="none" fill="none" x="1931" y="5256" width="964" height="598"/>
         <path fill="rgb(255,255,255)" stroke="none" d="M 2861,5257 C 2349,5335 2055,5646 1931,5852 2256,5527 2507,5352 2871,5299 2907,5294 2898,5250 2861,5257 Z"/>
        </g>
       </g>
       <g class="com.sun.star.drawing.ClosedBezierShape">
        <g id="id42">
         <rect class="BoundingBox" stroke="none" fill="none" x="2499" y="5417" width="546" height="381"/>
         <path fill="rgb(255,255,255)" stroke="none" d="M 3017,5418 C 2937,5427 2827,5484 2725,5549 2623,5613 2546,5695 2499,5797 2623,5668 2672,5634 2747,5585 2847,5522 2946,5483 3026,5459 3063,5449 3034,5415 3017,5418 Z"/>
        </g>
       </g>
       <g class="com.sun.star.drawing.ClosedBezierShape">
        <g id="id43">
         <rect class="BoundingBox" stroke="none" fill="none" x="6579" y="2391" width="362" height="362"/>
         <path fill="rgb(255,255,255)" stroke="none" d="M 6939,2572 C 6939,2671 6859,2751 6760,2751 6660,2751 6580,2671 6580,2572 6580,2472 6660,2392 6760,2392 6859,2392 6939,2472 6939,2572 Z"/>
        </g>
       </g>
       <g class="com.sun.star.drawing.ClosedBezierShape">
        <g id="id44">
         <rect class="BoundingBox" stroke="none" fill="none" x="6571" y="2383" width="378" height="378"/>
         <path fill="none" stroke="rgb(255,255,255)" stroke-width="17" stroke-linejoin="miter" d="M 6939,2572 C 6939,2671 6859,2751 6760,2751 6660,2751 6580,2671 6580,2572 6580,2472 6660,2392 6760,2392 6859,2392 6939,2472 6939,2572 Z"/>
        </g>
       </g>
       <g class="com.sun.star.drawing.ClosedBezierShape">
        <g id="id45">
         <rect class="BoundingBox" stroke="none" fill="none" x="6579" y="2391" width="362" height="362"/>
         <path fill="rgb(55,200,113)" stroke="none" d="M 6939,2572 C 6939,2671 6859,2751 6760,2751 6660,2751 6580,2671 6580,2572 6580,2472 6660,2392 6760,2392 6859,2392 6939,2472 6939,2572 Z"/>
        </g>
       </g>
       <g class="com.sun.star.drawing.ClosedBezierShape">
        <g id="id46">
         <rect class="BoundingBox" stroke="none" fill="none" x="6571" y="2383" width="378" height="378"/>
         <path fill="none" stroke="rgb(255,255,255)" stroke-width="17" stroke-linejoin="miter" d="M 6939,2572 C 6939,2671 6859,2751 6760,2751 6660,2751 6580,2671 6580,2572 6580,2472 6660,2392 6760,2392 6859,2392 6939,2472 6939,2572 Z"/>
        </g>
       </g>
      </g>
     </g>
    </g>
   </g>
  </g>
 </g>
</svg>